<?xml version="1.0" encoding="UTF-8" standalone="no"?>
<!-- Created with Inkscape (http://www.inkscape.org/) -->

<svg
   xmlns:dc="http://purl.org/dc/elements/1.1/"
   xmlns:cc="http://creativecommons.org/ns#"
   xmlns:rdf="http://www.w3.org/1999/02/22-rdf-syntax-ns#"
   xmlns:svg="http://www.w3.org/2000/svg"
   xmlns="http://www.w3.org/2000/svg"
   xmlns:sodipodi="http://sodipodi.sourceforge.net/DTD/sodipodi-0.dtd"
   xmlns:inkscape="http://www.inkscape.org/namespaces/inkscape"
   width="262.57047mm"
   height="83.133408mm"
   viewBox="0 0 262.57047 83.133408"
   version="1.1"
   id="svg14014"
   inkscape:version="0.92.5 (2060ec1f9f, 2020-04-08)"
   sodipodi:docname="blocking_2.svg">
  <defs
     id="defs14008" />
  <sodipodi:namedview
     id="base"
     pagecolor="#ffffff"
     bordercolor="#666666"
     borderopacity="1.0"
     inkscape:pageopacity="0.0"
     inkscape:pageshadow="2"
     inkscape:zoom="0.7"
     inkscape:cx="93.9276"
     inkscape:cy="81.886285"
     inkscape:document-units="mm"
     inkscape:current-layer="g14725"
     showgrid="false"
     fit-margin-top="0"
     fit-margin-left="0"
     fit-margin-right="0"
     fit-margin-bottom="0"
     inkscape:window-width="1920"
     inkscape:window-height="1080"
     inkscape:window-x="1920"
     inkscape:window-y="0"
     inkscape:window-maximized="0" />
  <metadata
     id="metadata14011">
    <rdf:RDF>
      <cc:Work
         rdf:about="">
        <dc:format>image/svg+xml</dc:format>
        <dc:type
           rdf:resource="http://purl.org/dc/dcmitype/StillImage" />
        <dc:title></dc:title>
      </cc:Work>
    </rdf:RDF>
  </metadata>
  <g
     inkscape:label="Layer 1"
     inkscape:groupmode="layer"
     id="layer1"
     transform="translate(-9.3219065,-87.611866)">
    <g
       id="g14725"
       transform="matrix(0.5,0,0,0.5,70.303572,64.589285)">
      <path
         id="path13195"
         d="m -118.36904,46.894486 c -3.06917,0.811389 -3.91583,1.305278 -3.4925,2.046111 0.14111,0.176389 0.35278,0.987778 0.52917,1.763889 0.35277,1.693333 1.16416,18.026943 1.12889,22.683611 -0.0353,1.799167 0.0353,3.280833 0.10583,3.280833 0.0705,0 0.49389,-0.176389 0.88194,-0.388056 0.52917,-0.282223 0.91723,-0.282223 1.55223,0.03528 0.56444,0.3175 1.72861,0.388056 3.63361,0.246946 4.97416,-0.3175 8.32555,-2.434167 10.40694,-6.491112 2.08139,-4.1275 1.48167,-7.373056 -2.01083,-10.512778 l -2.15195,-1.940278 1.27,-1.340555 c 4.90361,-5.080002 3.98639,-7.902225 -3.06916,-9.807224 -2.50473,-0.670278 -5.15056,-0.564445 -8.78417,0.423333 z m 9.13694,1.834444 c 2.25778,0.670278 3.70417,1.693334 3.70417,2.681111 0,0.811389 -2.50472,4.233334 -3.98639,5.468055 -0.88194,0.705556 -0.70555,1.658056 0.45861,2.575278 0.59972,0.458611 1.55222,1.199444 2.15195,1.658055 1.30527,1.023056 2.43416,3.175 2.43416,4.656667 0,3.527778 -2.61055,6.879168 -6.17361,7.937501 -2.04611,0.59972 -5.22111,0.846667 -6.73805,0.564444 -0.88195,-0.17639 -0.98778,-1.375834 -1.51695,-15.24 -0.17639,-4.550833 -0.42333,-8.5725 -0.56444,-8.89 -0.28222,-0.740833 0.635,-1.164166 3.84528,-1.834444 2.08139,-0.423333 3.73944,-0.3175 6.38527,0.423333 z"
         inkscape:connector-curvature="0"
         style="stroke-width:0.03527778" />
      <path
         id="path13197"
         d="m -95.438485,49.222819 c -0.105834,0.246945 -0.246945,2.998611 -0.352778,6.103056 -0.105833,3.104443 -0.3175,8.149166 -0.423333,11.183054 -0.282223,6.103055 0.03528,8.078612 1.552221,9.842501 0.9525,1.128887 2.610557,1.375834 3.774723,0.564444 0.881944,-0.670277 0.388057,-1.305277 -1.058333,-1.305277 -2.469444,0 -2.892777,-2.751667 -2.151944,-13.546668 0.599721,-8.254999 0.705554,-11.818054 0.352777,-12.699999 -0.246943,-0.670277 -1.516943,-0.740833 -1.693333,-0.141111 z"
         inkscape:connector-curvature="0"
         style="stroke-width:0.03527778" />
      <path
         id="path13199"
         d="m -61.889318,52.22143 c -0.07056,0.176389 -0.141113,4.868333 -0.17639,10.512777 0,11.324167 0.17639,12.52361 1.834443,12.52361 1.023057,0 1.164167,-0.529166 0.388057,-1.55222 -0.3175,-0.423333 -0.529167,-1.481668 -0.529167,-2.575279 0,-1.763889 0.03528,-1.869722 0.917223,-1.869722 1.164167,0 4.021667,1.446389 6.314721,3.139722 2.257779,1.728612 3.280833,2.046112 3.598333,1.234723 0.388056,-1.058334 -4.198054,-4.7625 -7.373054,-5.961945 -0.9525,-0.352778 -1.693333,-0.705555 -1.693333,-0.776111 0,-0.07056 1.058333,-1.164167 2.328333,-2.434167 2.398887,-2.363611 3.563054,-4.339166 2.8575,-4.797777 -0.211666,-0.141112 -1.622779,0.9525 -3.316113,2.575277 -1.622777,1.552223 -3.104443,2.716389 -3.31611,2.575278 -0.246943,-0.141111 -0.282223,-1.058333 -0.14111,-2.681111 0.14111,-1.340556 0.14111,-4.162778 0,-6.279444 -0.211667,-3.421944 -0.3175,-3.880555 -0.917223,-3.880555 -0.352777,0 -0.705557,0.105833 -0.77611,0.246944 z"
         inkscape:connector-curvature="0"
         style="stroke-width:0.03527778" />
      <path
         id="path13201"
         d="m -47.390154,59.206429 c -0.529167,1.199445 0.03528,1.834445 1.093612,1.27 0.881944,-0.493888 0.987777,-1.622777 0.176388,-1.940277 -0.811388,-0.3175 -0.811388,-0.282223 -1.27,0.670277 z"
         inkscape:connector-curvature="0"
         style="stroke-width:0.03527778" />
      <path
         id="path13203"
         d="m -26.117654,63.475041 c -2.716388,2.328333 -3.598334,5.468055 -2.151944,7.796388 0.388056,0.635 1.09361,1.234722 1.5875,1.375835 0.917223,0.246943 2.963333,0.03528 4.374444,-0.388057 l 0.846662,-0.282222 -0.21166,2.187222 c -0.352779,3.31611 -1.340556,6.596944 -2.892779,9.736667 -1.305277,2.610554 -1.516944,2.82222 -2.575277,2.928054 -1.30528,0.141113 -2.54,-0.705554 -2.54,-1.658054 0,-0.3175 -0.17639,-0.81139 -0.35278,-1.093613 -0.529166,-0.811387 -1.058333,0.211667 -1.058333,2.116667 0,1.940279 0.211667,2.293056 1.5875,2.610556 2.998613,0.705557 2.963333,0.740833 4.445,-0.81139 3.668889,-3.915833 5.573889,-11.25361 5.609169,-21.766387 0,-2.010833 -0.14111,-3.316111 -0.42334,-3.598333 -0.24694,-0.246945 -1.37583,-0.423333 -2.575273,-0.423333 -1.975556,0 -2.293056,0.105833 -3.668889,1.27 z m 4.550832,2.892777 c 0,2.681111 -0.458609,3.598334 -2.046109,4.268611 -0.846667,0.352778 -1.27,0.352778 -2.328334,-0.105833 -1.516943,-0.635 -1.658056,-1.5875 -0.564443,-3.739444 0.740833,-1.481667 1.058333,-1.728611 2.645833,-2.328334 2.187223,-0.846666 2.293053,-0.740833 2.293053,1.905 z"
         inkscape:connector-curvature="0"
         style="stroke-width:0.03527778" />
      <path
         id="path13205"
         d="m -85.349042,64.039485 c -3.280833,3.421944 -3.4925,9.454445 -0.388053,11.041945 2.222497,1.164167 5.891387,-0.105833 8.07861,-2.751667 0.705554,-0.881945 0.881943,-1.481667 0.881943,-3.104445 0,-1.693333 -0.176389,-2.257777 -1.09361,-3.563055 -1.305279,-1.799167 -2.963333,-2.751667 -4.93889,-2.751667 -1.128889,0 -1.622776,0.211667 -2.54,1.128889 z m 5.009444,1.728611 c 1.12889,0.881945 1.975556,2.434167 1.975556,3.598333 0,1.763889 -2.2225,3.598335 -4.7625,3.915835 -2.575276,0.3175 -3.81,-2.39889 -2.469443,-5.538612 1.058333,-2.54 3.421943,-3.421945 5.256387,-1.975556 z"
         inkscape:connector-curvature="0"
         style="stroke-width:0.03527778" />
      <path
         id="path13207"
         d="m -38.394321,64.110041 c -1.09361,0.987777 -1.446387,1.093611 -1.975554,0.776111 -0.846667,-0.529167 -1.340556,0.3175 -1.093613,1.905 0.105834,0.705555 0.03528,2.151944 -0.176387,3.280833 -0.352779,1.975555 -0.246946,3.069166 0.3175,3.069166 0.635,0 1.340554,-1.093611 1.552221,-2.469444 0.246946,-1.658055 1.622779,-4.586111 2.469446,-5.256389 0.423333,-0.352777 0.670277,-0.388055 1.058333,-0.07055 0.77611,0.635 1.869721,3.563055 2.151944,5.679722 0.105833,1.058333 0.3175,2.222499 0.388056,2.539999 0.176387,0.635 1.375834,0.881946 1.658054,0.35278 0.35278,-0.564447 -0.77611,-6.702779 -1.516944,-8.184446 -1.5875,-3.210277 -2.68111,-3.563055 -4.833056,-1.622777 z"
         inkscape:connector-curvature="0"
         style="stroke-width:0.03527778" />
      <path
         id="path13209"
         d="m -71.555431,64.639207 c -1.481667,0.917222 -3.4925,3.739445 -3.951111,5.503334 -0.493889,1.975555 0.49389,4.233333 2.2225,4.938889 1.658057,0.705554 3.739444,0.670277 4.797777,-0.07056 1.975557,-1.340557 1.658057,-1.940277 -0.881943,-1.658057 -3.245557,0.388057 -4.868334,-0.811387 -4.26861,-3.174999 0.246943,-1.023055 2.293053,-3.739444 3.033887,-4.092222 1.552223,-0.705555 1.940279,-0.987778 1.940279,-1.446389 0,-0.776111 -1.658056,-0.740833 -2.892779,0 z"
         inkscape:connector-curvature="0"
         style="stroke-width:0.03527778" />
      <path
         id="path13211"
         d="m -45.802654,64.392263 c -0.176388,0.246944 -0.211667,2.575278 -0.105834,5.291666 0.211667,5.009445 0.529167,6.103055 1.552223,5.256388 0.670277,-0.564443 0.599723,-9.560276 -0.105833,-10.406943 -0.564444,-0.670278 -0.917223,-0.705556 -1.340556,-0.141111 z"
         inkscape:connector-curvature="0"
         style="stroke-width:0.03527778" />
      <path
         id="path13215"
         d="m -74.307098,111.62921 c -11.747497,0.35277 -27.375552,1.27 -32.808332,1.905 -2.32833,0.28222 -4.83306,0.52916 -5.53861,0.52916 -0.88194,0 -1.41111,0.21167 -1.62278,0.59972 -0.17639,0.35278 -0.17639,2.89278 0,5.75028 0.45861,7.33778 0.45861,9.94834 0.14111,20.81389 -0.38805,12.41778 0.28223,27.16389 1.72861,38.1 0.28223,2.04611 0.52917,7.40833 0.56445,11.92389 0.0706,5.25639 0.24694,8.32555 0.45861,8.50194 0.21167,0.17639 8.18444,0.38806 17.674165,0.49389 9.525,0.10583 22.754167,0.38806 29.456944,0.59972 13.370279,0.45861 38.699723,0.17639 39.405277,-0.38805 0.493889,-0.42334 0.352779,-21.51945 -0.282221,-44.59111 -0.211667,-7.76111 -0.49389,-19.19111 -0.670279,-25.4 -0.282221,-11.14778 -0.423334,-12.77056 -1.799167,-17.00389 -0.211667,-0.635 -0.282221,-1.30528 -0.176387,-1.48167 0.105833,-0.14111 -0.635,-0.38805 -1.658057,-0.52916 -2.469443,-0.28223 -33.443333,-0.17639 -44.873333,0.17639 z m 45.120277,2.36361 c 1.234723,6.31472 1.411113,8.36083 1.340556,13.6525 -0.07056,3.10444 0.07056,9.27805 0.282223,13.75833 0.423334,9.63083 0.599721,17.21555 0.917221,39.89916 l 0.246946,17.00389 -1.552223,0.17639 c -4.30389,0.49389 -22.965833,0.59972 -35.2425,0.24695 -11.71222,-0.35278 -25.04722,-0.56445 -41.839442,-0.67028 l -4.26861,-0.0353 -0.21167,-8.04333 c -0.10583,-4.58609 -0.49389,-10.65387 -0.88194,-14.18165 -1.27,-10.72444 -1.72861,-20.42583 -1.55223,-31.75 0.24695,-14.42861 0.21167,-19.33222 -0.10583,-23.67139 l -0.28222,-4.09222 3.24555,-0.42333 c 13.617228,-1.72861 36.618338,-2.75167 63.958615,-2.78695 h 15.769167 z"
         inkscape:connector-curvature="0"
         style="stroke-width:0.03527778" />
      <path
         id="path13217"
         d="m -59.666818,131.38476 c -2.998613,0.77611 -7.373057,1.79917 -9.70139,2.25778 -2.328334,0.45861 -7.055557,1.48167 -10.512777,2.25778 -3.4925,0.81139 -6.385277,1.44639 -6.455833,1.44639 -0.07056,0 -0.776111,0.56444 -1.552224,1.27 -2.257776,2.04611 -1.622776,3.10444 0.846667,1.41111 0.705557,-0.45861 2.257777,-1.02306 3.457223,-1.23473 1.234721,-0.21166 3.527777,-0.70555 5.150554,-1.05833 2.151946,-0.49389 2.963333,-0.56444 3.069167,-0.28222 0.670279,2.04611 1.905,18.30916 2.2225,29.5275 0.211666,7.33777 0.3175,8.29027 0.846666,8.39611 0.458613,0.10583 0.635,-0.28222 0.846667,-1.94028 0.388056,-3.175 -0.564444,-23.38917 -1.481667,-31.4325 -0.45861,-3.95111 -0.493887,-5.15055 -0.176387,-5.32694 0.246944,-0.17639 2.116667,-0.635 4.198054,-1.05834 4.62139,-0.98777 13.229167,-3.10444 14.816667,-3.66888 1.199446,-0.42334 1.516946,-1.41112 0.564446,-1.79917 -0.3175,-0.10583 -0.564446,-0.21167 -0.599723,-0.17639 -0.03528,0 -2.54,0.635 -5.53861,1.41111 z"
         inkscape:connector-curvature="0"
         style="stroke-width:0.03527778" />
      <path
         id="path13219"
         d="m -65.769875,170.71948 c -0.14111,0.14111 -0.246943,2.99861 -0.246943,6.31472 0,5.04473 0.105833,6.17361 0.529166,6.52639 1.09361,0.88195 1.305277,-0.14111 1.340554,-6.56166 0.07056,-6.10306 0.03528,-6.31473 -0.635,-6.42056 -0.423333,-0.0706 -0.846667,0 -0.987777,0.14111 z"
         inkscape:connector-curvature="0"
         style="stroke-width:0.03527778" />
      <path
         id="path13221"
         d="m -3.6457121,111.91143 c -0.0353,0.14111 -1.09361,1.34055 -2.29305,2.64583 l -2.18723,2.39889 -2.1166599,-1.30528 c -1.76389,-1.09361 -2.2225,-1.27 -2.68111,-0.88194 -1.02306,0.84666 -0.59973,1.86972 1.23472,3.13972 0.98778,0.67028 1.7638899,1.30528 1.7638899,1.44639 0,0.14111 -0.5291699,0.84667 -1.1641699,1.5875 l -1.16417,1.34055 -1.12889,-0.81138 c -0.91722,-0.67028 -1.19944,-0.74084 -1.65805,-0.35278 -0.81139,0.67028 -0.635,1.62278 0.38805,2.43416 1.05834,0.81139 1.12889,0.56445 -1.44638,3.91584 -1.37584,1.79916 -1.48167,2.29305 -0.59973,2.78694 0.81139,0.42334 1.69334,-0.28222 3.21028,-2.50472 0.59972,-0.91722 1.23472,-1.76389 1.41111,-1.86972 0.49389,-0.28222 3.5630599,0.59972 3.5630599,1.05833 -0.0353,0.17639 -0.24695,0.74083 -0.52917,1.23472 -0.74083,1.27 -0.635,1.76389 0.3175,1.76389 0.56445,0 1.23472,-0.45861 1.97556,-1.41111 0.59972,-0.77611 1.41111,-1.41111 1.72861,-1.41111 0.35278,0 1.23472,0.45861 1.97555,1.05833 0.74084,0.56445 1.55223,1.05834 1.83445,1.05834 1.41110996,0 0.52915996,-2.57528 -1.34056,-3.91584 -1.09361,-0.77611 -1.09361,-0.77611 -0.38805,-1.48166 0.70555,-0.70556 0.70555,-0.70556 2.64582996,0.42333 2.15194004,1.23472 2.89278004,1.34056 3.21028004,0.52917 0.42333,-1.12889 0.17639,-1.62278 -1.55222,-2.68111 -0.95250004,-0.59973 -1.76389004,-1.19945 -1.76389004,-1.30528 0,-0.14111 1.02305,-1.48167 2.29305004,-3.03389 2.29306,-2.82222 2.71639,-3.81 1.79917,-4.16278 -0.49389,-0.21167 -3.49250004,2.71639 -5.04472,4.86833 l -0.74084,1.02306 -1.79916,-0.84667 c -0.98778,-0.45861 -1.79917,-0.91722 -1.79917,-0.98777 0,-0.10584 0.88194,-1.19945 1.94028,-2.43417 2.11666,-2.50472 2.46944,-3.63361 1.09361,-3.63361 -0.45861,0 -0.91722,0.14111 -0.98778,0.3175 z m -1.5875,9.10166 c 0.52917,0.24695 0.9525,0.59973 0.9525,0.74084 0,0.3175 -2.01083,2.54 -2.29305,2.54 -0.84667,0 -3.35139,-0.84667 -3.35139,-1.12889 0,-0.21167 0.49389,-0.98778 1.09361,-1.72861 1.16416,-1.48167 1.44639,-1.51695 3.59833,-0.42334 z"
         inkscape:connector-curvature="0"
         style="stroke-width:0.03527778" />
      <path
         id="path13223"
         d="m 15.651238,113.92226 c -1.72862,0.28222 -3.38667,0.56445 -3.63362,0.67028 -0.635,0.24694 -2.1519401,3.81 -2.4341601,5.64444 -0.24695,1.86973 0.5644401,2.82223 2.6458301,3.175 0.77611,0.10584 1.69333,0.52917 2.01083,0.88195 1.23473,1.37583 -0.28222,3.4925 -2.11666,3.03389 -0.45861,-0.10584 -1.34056,-0.77611 -1.97556,-1.44639 -1.4816601,-1.55222 -2.0813901,-1.5875 -2.0813901,-0.0706 0,1.19944 1.05834,2.54 2.7163901,3.38667 2.78695,1.41111 6.42056,-1.41111 5.99722,-4.65667 -0.24694,-1.79917 -1.16416,-2.68111 -3.31611,-3.24556 -1.62277,-0.42333 -1.69333,-0.49388 -1.65805,-1.69333 0.0705,-1.94028 0.9525,-3.06917 2.39889,-3.06917 1.83444,0 7.51416,-1.41111 7.97277,-1.94027 1.09361,-1.30528 -0.91722,-1.51695 -6.52638,-0.67028 z"
         inkscape:connector-curvature="0"
         style="stroke-width:0.03527778" />
      <g
         id="g14768"
         transform="translate(9.071429,-18.142852)">
        <path
           style="stroke-width:0.03527778"
           inkscape:connector-curvature="0"
           d="m 104.23373,126.44587 c -3.63361,3.84528 -5.291662,7.23195 -6.067772,12.34722 -0.74084,4.97417 -0.52917,8.71361 0.635,11.32417 1.02305,2.2225 2.081382,3.06917 4.127502,3.35139 1.44638,0.21166 3.56305,-0.42333 3.56305,-0.98778 0,-0.45861 -1.5875,-1.02305 -2.82222,-1.02305 -1.41111,0 -3.06917,-1.51695 -3.56306,-3.28084 -0.917222,-3.35139 -0.0705,-10.86555 1.65806,-14.67555 1.23472,-2.71639 3.81,-6.17361 5.43278,-7.33778 1.55222,-1.09361 1.79916,-2.32833 0.49389,-2.50472 -0.52917,-0.0706 -1.48167,0.67028 -3.45723,2.78694 z"
           id="path13225" />
        <path
           style="stroke-width:0.03527778"
           inkscape:connector-curvature="0"
           d="m 175.38902,126.62226 c -0.14113,0.35278 0.21167,0.88195 1.02304,1.55222 0.74083,0.59973 1.69333,2.04611 2.43416,3.59834 1.09363,2.39889 1.19947,2.82222 1.19947,6.10305 0,6.06778 -2.01084,10.12472 -5.99723,12.065 -2.57527,1.27 -3.13974,3.24556 -0.77611,2.75167 2.61054,-0.56445 5.78554,-3.21028 7.26721,-6.10306 1.1289,-2.18722 1.905,-6.80861 1.72863,-10.26583 -0.10584,-2.50472 -0.3528,-3.4925 -1.34057,-5.60917 -0.635,-1.44639 -1.69333,-3.03389 -2.3636,-3.59833 -1.3053,-1.16417 -2.82223,-1.37583 -3.175,-0.49389 z"
           id="path13227" />
        <path
           style="stroke-width:0.03527778"
           inkscape:connector-curvature="0"
           d="m 82.114568,128.20976 c -0.45861,0.88195 0.0353,1.37583 1.37583,1.37583 1.05833,0 0.98778,0.17639 -0.635,1.72862 -2.39889,2.25777 -1.79917,3.10444 2.39889,3.24555 1.65805,0.0706 2.68111,-0.0353 2.96333,-0.3175 0.635,-0.635 -0.0353,-1.12889 -2.2225,-1.62278 l -1.905,-0.42333 1.48167,-0.9525 c 0.81139,-0.49389 1.55222,-1.09361 1.69333,-1.30528 0.45861,-0.74083 -0.21166,-1.65805 -1.55222,-2.04611 -2.04611,-0.635 -3.13972,-0.52917 -3.59833,0.3175 z"
           id="path13229" />
        <path
           style="stroke-width:0.03527778"
           inkscape:connector-curvature="0"
           d="m 70.225958,129.69143 c -0.81139,0.9525 0.17638,1.48166 3.10444,1.65805 l 2.89278,0.17639 -1.86972,1.23472 c -1.94028,1.27 -4.33917,4.02167 -4.09223,4.72723 0.45861,1.37583 7.3025,1.55222 9.06639,0.21166 1.41111,-1.05833 0.59972,-1.48166 -2.78694,-1.41111 -1.65806,0.0353 -3.175,0.0706 -3.35139,0.0353 -0.59972,-0.0706 0.59972,-1.09361 2.57528,-2.18722 1.09361,-0.635 2.32833,-1.44639 2.78694,-1.83445 0.9525,-0.88194 1.02306,-2.2225 0.10583,-2.71639 -1.02305,-0.52916 -7.97277,-0.45861 -8.43138,0.10584 z"
           id="path13231" />
        <path
           style="stroke-width:0.03527778"
           inkscape:connector-curvature="0"
           d="m 111.50096,133.11337 c -1.51695,1.09361 -2.54,2.64584 -2.54,3.81 0,1.16417 1.41111,2.57528 3.73944,3.66889 3.10444,1.48167 2.99861,2.92806 -0.17639,3.35139 -1.19944,0.17639 -1.51694,0.0705 -2.25778,-0.74083 -1.02305,-1.09361 -1.65805,-1.16417 -1.65805,-0.21167 0,1.94028 1.44639,3.175 3.73944,3.175 2.29306,0 4.26861,-1.51694 4.58611,-3.56306 0.24695,-1.62277 -0.28222,-2.25777 -3.24555,-3.81 -2.82222,-1.48166 -3.21028,-2.32833 -1.69334,-3.52777 0.52917,-0.38806 1.30528,-0.74084 1.72862,-0.74084 0.70555,0 1.23472,-0.59972 1.23472,-1.37583 0,-0.21167 -1.51695,-1.09361 -1.905,-1.09361 -0.0706,0 -0.77611,0.45861 -1.55222,1.05833 z"
           id="path13233" />
        <path
           style="stroke-width:0.03527778"
           inkscape:connector-curvature="0"
           d="m 119.89707,132.97226 c -0.21167,0.49389 -0.35278,1.41111 -0.35278,2.01083 -0.0353,0.635 -0.24695,2.15195 -0.52917,3.42195 -0.74083,3.45722 -0.70555,6.17361 0.17639,7.05555 0.38806,0.38806 0.91722,0.70556 1.16417,0.70556 2.43416,-0.0353 3.13972,-2.08139 0.70555,-2.11667 -0.42333,0 -0.84666,-0.10583 -0.91722,-0.28222 -0.0705,-0.14111 0.0706,-1.37583 0.3175,-2.71639 1.34056,-7.23194 1.37583,-8.99583 0.28222,-8.99583 -0.28222,0 -0.67027,0.42333 -0.84666,0.91722 z"
           id="path13235" />
        <path
           style="stroke-width:0.03527778"
           inkscape:connector-curvature="0"
           d="m 51.846228,132.90171 c -0.84666,0.98777 -0.21166,1.62277 1.62278,1.62277 0.91722,0 3.21028,0.17639 5.08,0.42334 l 3.38667,0.42333 -3.63361,3.59833 c -2.57528,2.54 -3.95111,4.19806 -4.55084,5.50334 -0.49388,1.02305 -0.88194,2.04611 -0.88194,2.25777 0,0.98778 1.83444,1.23473 8.32555,0.98778 l 6.49112,-0.24694 v -0.84667 c 0,-1.37583 -1.30528,-1.62278 -7.12612,-1.34055 -3.98638,0.17638 -5.22111,0.14111 -5.22111,-0.17639 0,-0.49389 6.10306,-6.63223 8.5725,-8.5725 1.65806,-1.34056 2.04611,-2.32834 1.23473,-2.96334 -0.24695,-0.21166 -1.86973,-0.45861 -3.63362,-0.59972 -9.48972,-0.70555 -9.17222,-0.70555 -9.66611,-0.0706 z"
           id="path13237" />
        <path
           style="stroke-width:0.03527778"
           inkscape:connector-curvature="0"
           d="m 153.65789,136.67643 c -0.10583,0.45861 0,0.77611 0.3528,0.91722 0.5997,0.24694 1.19943,-0.49389 0.9172,-1.19944 -0.2822,-0.70556 -1.05833,-0.56445 -1.27,0.28222 z"
           id="path13239" />
        <path
           style="stroke-width:0.03527778"
           inkscape:connector-curvature="0"
           d="m 143.46262,138.86365 -1.51694,1.16417 -0.24695,3.13972 c -0.10583,1.76389 -0.38805,4.51555 -0.59972,6.17361 -0.38805,2.99861 -0.21167,3.81 0.77611,3.42194 0.3175,-0.10583 0.56445,-1.02305 0.70556,-2.78694 0.38804,-4.09222 0.42334,-4.16278 2.32834,-4.16278 4.0922,0 7.19667,-4.16278 4.83304,-6.52639 -0.7761,-0.77611 -2.8575,-1.5875 -4.16277,-1.5875 -0.3175,0 -1.27,0.52917 -2.11667,1.16417 z m 4.5861,1.51694 c 0.42334,0.28223 0.77613,0.84667 0.77613,1.19945 0,0.81139 -1.44639,1.97555 -2.8575,2.29305 -0.84666,0.21167 -1.23473,0.0706 -1.94029,-0.70555 -1.05834,-1.16417 -1.05834,-1.41111 0.0353,-2.46945 0.98777,-1.02305 2.78694,-1.16416 3.98637,-0.3175 z"
           id="path13241" />
        <path
           style="stroke-width:0.03527778"
           inkscape:connector-curvature="0"
           d="m 126.00012,139.18115 c -1.51694,1.62278 -1.94028,2.57528 -1.97555,4.445 0,1.97556 0.91722,2.89278 2.99861,2.89278 1.69333,0 3.81,-0.91722 3.81,-1.69334 0,-0.42333 -0.35278,-0.49388 -2.25778,-0.28222 -1.76389,0.17639 -2.32833,0.10584 -2.68111,-0.3175 -0.74083,-0.91722 -0.14111,-1.5875 1.41111,-1.5875 2.57528,0 4.30389,-1.37583 3.52778,-2.82222 -1.05834,-2.01083 -3.24556,-2.29306 -4.83306,-0.635 z m 3.06917,0.81139 c 0,0.0706 -0.3175,0.3175 -0.70556,0.52917 -0.77611,0.42333 -1.55222,0.17638 -1.23472,-0.38806 0.21167,-0.3175 1.94028,-0.45861 1.94028,-0.14111 z"
           id="path13243" />
        <path
           style="stroke-width:0.03527778"
           inkscape:connector-curvature="0"
           d="m 134.21984,139.85143 c -1.44638,1.12889 -2.08138,2.61055 -1.79916,4.23333 0.35278,1.97556 1.62278,2.89278 3.81,2.68111 1.62278,-0.14111 3.21028,-1.09361 2.96333,-1.79916 -0.0705,-0.17639 -1.05833,-0.3175 -2.2225,-0.24695 -1.62278,0.0706 -2.25778,-0.0706 -2.61055,-0.49389 -0.42334,-0.49389 -0.42334,-0.635 0.0353,-0.91722 0.28223,-0.17639 0.88195,-0.3175 1.30528,-0.3175 2.18722,0 4.05695,-2.39889 2.71639,-3.42194 -0.98778,-0.70556 -3.10444,-0.56445 -4.19806,0.28222 z"
           id="path13245" />
        <path
           style="stroke-width:0.03527778"
           inkscape:connector-curvature="0"
           d="m 168.72152,139.99254 c -0.59973,0.24694 -1.4464,0.91722 -1.86973,1.44639 -1.16417,1.44639 -0.88194,4.1275 0.4939,5.22111 l 0.98777,0.77611 -0.74084,1.62278 c -0.84666,1.94027 -2.25777,3.06916 -3.06916,2.39889 -0.28224,-0.21167 -0.635,-1.05834 -0.77611,-1.86973 -0.21166,-0.9525 -0.49389,-1.48166 -0.81139,-1.48166 -0.42334,0 -0.52917,0.49389 -0.52917,2.18722 0,3.52778 1.7639,4.62139 4.51556,2.75167 1.41111,-0.98778 2.15194,-2.18723 2.92804,-4.79778 0.28223,-0.9525 0.9878,-2.71639 1.55223,-3.91583 1.37584,-2.92806 1.4111,-3.81 0,-3.81 -0.56443,0 -1.16416,-0.21167 -1.30527,-0.49389 -0.24696,-0.42334 -0.45863,-0.42334 -1.37583,-0.0353 z m 1.27,2.11667 c 0,0.81138 -0.9878,2.99861 -1.3053,2.99861 -0.49387,0 -1.16416,-0.81139 -1.16416,-1.41111 0,-0.74084 1.27,-2.11667 1.94029,-2.11667 0.28221,0 0.52917,0.24694 0.52917,0.52917 z"
           id="path13247" />
        <path
           style="stroke-width:0.03527778"
           inkscape:connector-curvature="0"
           d="m 152.95235,140.02782 c -0.14113,0.14111 -0.24696,1.51694 -0.24696,3.03389 0,2.43416 0.0706,2.78694 0.59973,2.68111 1.19944,-0.21167 1.62277,-5.60917 0.4586,-5.85611 -0.3175,-0.0353 -0.67026,0 -0.81137,0.14111 z"
           id="path13249" />
        <path
           style="stroke-width:0.03527778"
           inkscape:connector-curvature="0"
           d="m 157.82069,140.34532 c -0.84667,2.89277 -1.16417,4.97416 -0.8114,5.36222 0.52917,0.67028 0.91723,0.28222 1.97556,-1.94028 0.77611,-1.5875 1.16417,-2.04611 1.86971,-2.11667 1.19946,-0.14111 1.65806,0.49389 1.79916,2.39889 0.0706,1.30528 0.21167,1.5875 0.8114,1.5875 0.59973,0 0.70557,-0.28222 0.8114,-2.01083 0.10583,-1.79917 0,-2.15194 -0.77613,-2.92806 -0.7761,-0.77611 -1.12887,-0.88194 -3.24554,-0.77611 -1.27,0.0353 -2.39889,0.21167 -2.43416,0.42334 z"
           id="path13251" />
        <path
           style="stroke-width:0.03527778"
           inkscape:connector-curvature="0"
           d="m 36.465118,148.84726 c -2.32833,0.88194 -5.57389,2.08139 -7.23194,2.68111 -1.65806,0.59972 -7.16139,3.13972 -12.27667,5.60917 -5.11527,2.50472 -11.5711101,5.60916 -14.3580501,6.87916 -5.57389,2.57528 -6.80861,3.42195 -6.13834,4.23334 0.24695,0.3175 0.74084,0.42333 1.34056,0.28222 1.58749996,-0.38806 9.70139,-4.09222 19.4380601,-8.89 5.15055,-2.54 10.86555,-5.15056 12.69999,-5.82083 11.50056,-4.1275 11.67695,-4.19806 12.02973,-5.08 0.74083,-1.94028 0,-1.94028 -5.50334,0.10583 z"
           id="path13253" />
      </g>
      <g
         id="g14796"
         transform="translate(7.5595239,-4.5357167)">
        <path
           style="stroke-width:0.03527778"
           inkscape:connector-curvature="0"
           d="m 3.6567879,185.67726 c -7.76111,0.14111 -8.96055,0.24694 -9.8425,0.81139 -0.56444,0.38805 -0.91722,0.88194 -0.84667,1.23472 0.10584,0.56444 1.69334,0.59972 21.9780601,0.49389 14.95778,-0.10583 22.01333,-0.24695 22.33083,-0.52917 0.24695,-0.17639 0.42334,-0.77611 0.35278,-1.27 l -0.10583,-0.91722 h -12.52361 c -6.87917,-0.0353 -16.5100001,0.0706 -21.3430601,0.17639 z"
           id="path13261" />
        <g
           transform="translate(-98.27381,-7.5595238)"
           id="g14751">
          <path
             id="path13255"
             d="m 352.51872,182.25531 c -2.01083,2.11667 -5.43276,6.42056 -8.14916,10.19528 -2.54,3.56306 -4.86834,6.70278 -5.18584,6.94972 -0.70556,0.59973 -0.74083,1.76389 -0.0706,2.01084 1.19946,0.45861 2.3989,-0.9525 8.71363,-9.87778 1.62277,-2.32833 4.48027,-5.82083 6.35,-7.76111 2.92804,-3.06917 3.35137,-3.66889 3.10443,-4.37445 -0.17639,-0.42333 -0.52916,-0.77611 -0.81139,-0.77611 -0.24694,0 -2.04611,1.65806 -3.95111,3.63361 z"
             inkscape:connector-curvature="0"
             style="stroke-width:0.03527778" />
          <path
             id="path13257"
             d="m 175.98872,183.63115 c -0.21166,0.45861 -0.81137,2.08139 -1.34053,3.63361 -0.70557,2.01083 -1.19947,2.92805 -1.7639,3.175 -0.98777,0.45861 -1.37583,1.5875 -0.70557,2.08139 0.3175,0.24694 0.59974,1.19944 0.70557,2.46944 0.1411,1.83445 0.3175,2.2225 1.4464,3.28083 0.74083,0.635 1.65803,1.16417 2.15193,1.16417 1.0936,0 3.0339,-1.62278 3.0339,-2.50472 0,-0.77611 -0.6703,-0.84667 -2.32833,-0.24695 -1.4464,0.52917 -2.15197,0.0353 -2.46947,-1.76388 -0.3175,-1.5875 0.42334,-2.18723 2.61057,-2.18723 2.89277,0 3.9511,-1.44639 1.5875,-2.08139 -0.74083,-0.21166 -1.7639,-0.38805 -2.29307,-0.38805 h -0.9525 l 1.05834,-2.89278 c 0.56446,-1.5875 1.02306,-3.21028 0.9525,-3.59833 -0.1411,-1.05833 -1.27,-1.12889 -1.69334,-0.14111 z"
             inkscape:connector-curvature="0"
             style="stroke-width:0.03527778" />
          <path
             id="path13259"
             d="m 223.47262,183.56059 c -1.34056,0.42334 -2.57527,1.62278 -3.45723,3.31611 -0.56443,1.12889 -0.67027,1.79917 -0.49387,3.42195 0.1411,1.5875 0.0705,2.04611 -0.3175,2.2225 -0.28223,0.10583 -0.52917,0.59972 -0.52917,1.12889 0,0.88194 0.0705,0.91722 1.69334,0.81138 0.9172,-0.0705 2.01083,0.0706 2.46943,0.3175 1.62277,0.91723 0.42334,3.59834 -1.5875,3.59834 -1.19943,0 -1.62277,-0.28222 -2.18723,-1.34056 -0.5997,-1.16416 -1.44637,-0.98778 -1.44637,0.3175 0,1.65806 1.65804,3.13972 3.52777,3.13972 2.89277,0 4.7625,-2.01083 4.51556,-4.97416 -0.10583,-1.37584 -0.0353,-1.44639 1.23471,-1.905 1.86973,-0.635 2.46946,-1.19945 1.94029,-1.83445 -0.3175,-0.38805 -0.98779,-0.45861 -3.175,-0.24694 -3.35139,0.28222 -4.16279,-0.17639 -4.16279,-2.43417 0,-1.09361 0.24696,-1.62277 1.19946,-2.57527 0.98777,-0.98778 1.48167,-1.19945 2.64583,-1.19945 1.69334,0 2.32834,-0.84667 1.27,-1.62278 -0.74083,-0.56444 -1.62279,-0.56444 -3.13973,-0.14111 z"
             inkscape:connector-curvature="0"
             style="stroke-width:0.03527778" />
          <path
             id="path13263"
             d="m 168.26289,186.45337 c -0.38804,1.05833 -0.21167,1.34056 0.88196,1.34056 0.77611,0 0.88194,-0.14112 0.77611,-0.9525 -0.14111,-1.27 -1.23474,-1.51695 -1.65807,-0.38806 z"
             inkscape:connector-curvature="0"
             style="stroke-width:0.03527778" />
          <path
             id="path13265"
             d="m 395.98096,187.05309 c -0.3175,0.56445 -0.6703,1.97556 -0.77613,3.10445 -0.38804,3.31611 -0.56444,3.56305 -2.50471,3.70416 -1.48166,0.10584 -1.69333,0.21167 -1.79916,0.9525 -0.14113,0.98778 0.42333,1.44639 1.79916,1.44639 0.91721,0 0.9525,0.0353 0.9525,2.04611 0,1.72861 0.1411,2.18722 0.84667,2.8575 1.27,1.19945 3.24554,1.30528 5.15054,0.3175 1.05833,-0.52916 1.62279,-1.05833 1.69333,-1.62278 0.14113,-0.91722 -0.0705,-0.9525 -1.905,-0.3175 -0.7761,0.24695 -1.83444,0.38806 -2.43417,0.28223 -0.9525,-0.21167 -1.05833,-0.35278 -1.05833,-1.62278 v -1.41111 l 3.2103,-0.21167 c 3.35137,-0.21167 4.02166,-0.38805 4.02166,-1.19944 0,-0.635 -1.05833,-0.9525 -3.88056,-1.19945 l -2.29307,-0.21166 0.14113,-2.46945 c 0.28221,-4.16278 0.24694,-5.22111 -0.21166,-5.36222 -0.21167,-0.0706 -0.6703,0.3175 -0.9525,0.91722 z"
             inkscape:connector-curvature="0"
             style="stroke-width:0.03527778" />
          <path
             id="path13267"
             d="m 183.92622,188.1467 c -0.2822,0.91722 0.24697,1.5875 1.05834,1.27 0.74083,-0.28222 0.56446,-1.76389 -0.24694,-1.905 -0.35277,-0.0705 -0.67027,0.17639 -0.8114,0.635 z"
             inkscape:connector-curvature="0"
             style="stroke-width:0.03527778" />
          <path
             id="path13269"
             d="m 140.56984,188.35837 c -0.24694,0.635 0.28223,4.72722 0.9525,7.72583 0.52917,2.25778 1.65805,2.96334 3.06918,1.94028 0.9172,-0.635 0.9525,-0.635 1.62277,-0.0353 1.94027,1.905 3.24556,1.02306 5.04473,-3.31611 0.635,-1.55222 1.62277,-3.42194 2.1872,-4.1275 1.1289,-1.44639 1.3053,-2.32833 0.45863,-2.64583 -0.91723,-0.35278 -2.25779,1.30528 -3.98639,4.83305 -0.91724,1.905 -1.83444,3.35139 -2.11667,3.35139 -0.28223,0 -0.635,-0.49389 -0.8114,-1.12889 -0.4586,-1.72861 -0.98777,-1.79916 -2.25777,-0.24694 -0.635,0.74083 -1.27,1.23472 -1.4111,1.09361 -0.14113,-0.10583 -0.3175,-1.37583 -0.42333,-2.78694 -0.0706,-1.41112 -0.35279,-3.13973 -0.56446,-3.81 -0.42333,-1.34056 -1.41111,-1.79917 -1.76389,-0.84667 z"
             inkscape:connector-curvature="0"
             style="stroke-width:0.03527778" />
          <path
             id="path13271"
             d="m 264.81819,188.35837 c -0.52917,0.28222 -1.4464,1.19944 -2.04613,2.08139 -1.23471,1.79916 -1.5875,1.94028 -1.905,0.70555 -0.24694,-0.91722 -1.05834,-1.16416 -1.48167,-0.49389 -0.1411,0.21167 -0.24693,2.43417 -0.2822,4.93889 -0.0353,4.445 -0.0353,4.55084 0.70553,4.55084 0.59974,0 0.84667,-0.3175 1.16417,-1.62278 0.70557,-2.82222 3.63363,-7.90222 4.51557,-7.90222 0.56443,0 1.23473,2.39889 1.48166,5.46805 0.1764,1.97556 0.3175,2.46945 0.84667,2.57528 0.4586,0.10583 0.84667,-0.38806 1.51693,-1.905 1.19947,-2.75167 2.15197,-4.02167 2.99863,-4.02167 0.59971,0 0.67027,0.28223 0.67027,2.96334 0,2.99861 0.3175,3.81 1.19944,3.06916 0.28223,-0.24694 0.45863,-1.48166 0.52916,-3.59833 0.0706,-3.42194 -0.38803,-5.60917 -1.19943,-5.60917 -0.84667,0 -2.82223,1.34056 -3.6336,2.46945 -0.9878,1.30528 -1.34057,1.12889 -1.65807,-0.635 -0.24693,-1.62278 -1.4111,-3.59833 -2.01083,-3.59833 -0.24694,0.0353 -0.88194,0.24694 -1.4111,0.56444 z"
             inkscape:connector-curvature="0"
             style="stroke-width:0.03527778" />
          <path
             id="path13273"
             d="m 157.11512,188.81698 c -4.2686,2.68111 -5.43277,7.37306 -2.32833,9.45444 1.48167,0.98778 2.25777,1.02306 3.77473,0.0706 l 1.19944,-0.74083 0.91723,0.74083 c 0.52916,0.42333 1.19943,0.74083 1.51693,0.74083 0.91723,0 2.15194,-1.02305 2.15194,-1.79916 0,-0.70556 -0.28221,-0.81139 -1.69334,-0.67028 -0.84666,0.0705 -0.84666,0.0353 -0.70553,-3.06917 0.10583,-2.82222 0.0353,-3.10444 -0.52917,-3.10444 -0.45863,0 -0.8114,0.52916 -1.27,1.83444 -0.3175,0.98778 -1.05833,2.39889 -1.5875,3.10445 -0.8114,1.05833 -1.16417,1.27 -2.04613,1.16416 -2.25777,-0.21166 -2.1872,-2.43416 0.14113,-4.58611 0.84667,-0.77611 1.83444,-1.34055 2.29304,-1.34055 0.9525,0 1.4464,-0.88195 0.91723,-1.72861 -0.52917,-0.81139 -1.55223,-0.84667 -2.75167,-0.0706 z"
             inkscape:connector-curvature="0"
             style="stroke-width:0.03527778" />
          <path
             id="path13275"
             d="m 357.84566,189.27559 c -5.715,3.13972 -4.4097,10.86556 1.83446,10.86556 1.55221,0 2.0461,-0.17639 2.9986,-1.02306 1.51694,-1.37583 1.05834,-1.86972 -1.34056,-1.34055 -0.9525,0.17638 -2.1872,0.24694 -2.71637,0.10583 -1.23473,-0.28222 -2.36363,-1.41111 -2.36363,-2.32833 0,-0.59973 0.24696,-0.70556 1.51696,-0.70556 2.3636,0 3.03387,-0.35278 3.9511,-1.94028 1.16417,-1.94028 1.09361,-2.50472 -0.24693,-3.35139 -1.3053,-0.77611 -2.5753,-0.88194 -3.63363,-0.28222 z m 2.46946,2.04611 c 0.42334,0.67028 -0.56446,1.41111 -1.79916,1.41111 -1.37584,0 -1.51697,-0.42333 -0.42334,-1.19944 0.91721,-0.635 1.905,-0.74083 2.2225,-0.21167 z"
             inkscape:connector-curvature="0"
             style="stroke-width:0.03527778" />
          <path
             id="path13277"
             d="m 280.58735,190.29865 c -2.82223,1.41111 -4.40973,3.52777 -4.40973,5.96194 0,2.01083 1.19944,3.175 3.24557,3.175 1.79916,-0.0353 3.91583,-0.98778 4.0922,-1.83444 0.10583,-0.52917 -0.24693,-0.635 -2.64583,-0.70556 -2.54,-0.10583 -2.75167,-0.17639 -2.8575,-0.91722 -0.10584,-0.70556 0,-0.77611 1.69333,-0.77611 2.18723,0 3.70417,-0.70556 4.40973,-2.11667 1.51694,-2.92805 -0.3175,-4.37444 -3.52777,-2.78694 z"
             inkscape:connector-curvature="0"
             style="stroke-width:0.03527778" />
          <path
             id="path13279"
             d="m 288.10152,190.54559 c -1.27,0.14111 -2.3989,1.62278 -2.3989,3.10445 0,0.98777 0.21167,1.27 1.1289,1.76388 l 1.12887,0.59973 -0.98777,0.81139 c -0.52916,0.45861 -1.16416,0.84666 -1.4464,0.84666 -0.56443,0 -1.2347,1.05834 -1.2347,1.905 0,2.04611 5.78554,-1.34055 5.9972,-3.4925 0.14113,-1.34055 0,-1.62278 -1.2347,-2.15194 -0.6703,-0.28222 -1.23473,-0.635 -1.23473,-0.77611 0,-0.14111 0.56443,-0.49389 1.23473,-0.74084 2.01083,-0.70555 1.27,-2.15194 -0.9525,-1.86972 z"
             inkscape:connector-curvature="0"
             style="stroke-width:0.03527778" />
          <path
             id="path13281"
             d="m 294.83956,191.07476 c -0.67027,0.42333 -1.51694,1.41111 -1.86971,2.15194 l -0.67029,1.37584 1.1289,1.02305 c 0.91723,0.84667 1.05833,1.12889 0.74083,1.55222 -0.24694,0.24695 -0.88194,0.49389 -1.4464,0.49389 -0.56443,0 -1.02304,0.14111 -1.02304,0.3175 0,0.17639 -0.10583,0.56445 -0.21166,0.84667 -0.3175,0.91722 1.0936,1.41111 2.54,0.9525 2.43416,-0.81139 3.42193,-3.91583 1.65803,-5.25639 l -0.98776,-0.74083 0.84666,-0.70556 c 0.4586,-0.38805 1.02307,-0.70555 1.30527,-0.70555 0.6703,0 0.635,-1.62278 -0.0705,-1.905 -0.74083,-0.28223 -0.56446,-0.3175 -1.94029,0.59972 z"
             inkscape:connector-curvature="0"
             style="stroke-width:0.03527778" />
          <path
             id="path13283"
             d="m 369.80483,192.13309 c -0.59971,1.02306 -1.44637,2.61056 -1.86971,3.59833 -0.88196,2.04612 -1.4464,1.72862 -1.4464,-0.81138 0,-2.15195 -0.52916,-3.03389 -1.48166,-2.50473 -0.67027,0.35278 -0.70557,0.59973 -0.4586,2.89278 0.24693,2.61056 0.9525,4.79778 1.69333,5.25639 1.12887,0.74083 1.94027,0.28222 2.54,-1.41111 0.9525,-2.61056 2.64583,-6.17361 3.21027,-6.84389 0.42333,-0.45861 0.4586,-0.74083 0.1411,-1.30528 -0.5997,-1.12889 -1.12887,-0.88194 -2.32833,1.12889 z"
             inkscape:connector-curvature="0"
             style="stroke-width:0.03527778" />
          <path
             id="path13285"
             d="m 314.41872,191.0042 c -1.19943,0.59972 -2.61053,3.10445 -2.61053,4.65667 0,2.32833 1.4111,4.09222 3.28083,4.1275 0.88194,0 0.9525,0.10583 0.9525,1.37583 0,1.62278 -1.27,3.70417 -2.36363,3.84528 -0.52917,0.0706 -1.02304,-0.24694 -1.5522,-0.9525 -1.4464,-1.97556 -2.50473,-1.19944 -1.37584,0.98778 0.81137,1.62278 1.5875,2.15194 3.175,2.15194 1.44637,0 2.92804,-1.55222 3.45721,-3.59833 0.98779,-3.70417 2.15196,-9.03111 2.18723,-9.98361 0.10583,-1.72861 0.0353,-1.94028 -0.70557,-1.94028 -0.49387,0 -0.7761,0.38806 -1.0936,1.48167 -0.8114,3.06916 -1.19943,3.91583 -2.01083,4.19805 -0.91723,0.35278 -2.18723,-0.67028 -2.18723,-1.76389 0,-1.09361 1.37583,-2.50472 2.46946,-2.50472 0.98777,0 1.5875,-0.91722 1.0936,-1.69333 -0.35277,-0.56445 -1.905,-0.77611 -2.7164,-0.38806 z"
             inkscape:connector-curvature="0"
             style="stroke-width:0.03527778" />
          <path
             id="path13287"
             d="m 192.92206,191.28642 c 0,0.42334 -1.83444,1.23473 -2.82221,1.23473 -0.81139,0.0353 -0.88196,0.21166 -1.37583,3.31611 -0.28223,1.76389 -0.42333,3.35139 -0.28223,3.45722 0.56443,0.59972 1.62277,-0.49389 2.89277,-2.92806 1.83446,-3.59833 2.3989,-3.59833 2.68113,-0.0705 0.1411,1.48167 0.35277,2.89278 0.4586,3.10444 0.28223,0.45861 1.1289,0.52917 1.37583,0.10584 0.38807,-0.59973 -0.35277,-7.19667 -0.84666,-7.69056 -0.59974,-0.56444 -2.0814,-0.9525 -2.0814,-0.52917 z"
             inkscape:connector-curvature="0"
             style="stroke-width:0.03527778" />
          <path
             id="path13289"
             d="m 199.16622,192.02726 c -1.62276,1.905 -2.11666,5.15055 -1.12887,7.05555 0.49387,0.98778 0.9525,1.19945 2.82221,1.48167 0.59973,0.10583 0.67029,0.35278 0.59973,1.51694 -0.24694,3.03389 -2.89277,7.05556 -4.86833,7.44362 -1.30527,0.24694 -1.72861,-0.52917 -2.11667,-3.73945 -0.1764,-1.72861 -0.35277,-2.11667 -0.8114,-2.04611 -1.5522,0.28222 -0.38804,6.42056 1.48167,7.83167 l 0.98779,0.74083 1.65804,-0.88194 c 1.905,-1.02306 4.05696,-3.70417 4.83307,-5.99723 0.28223,-0.88194 0.67026,-3.10444 0.88193,-4.93889 0.1764,-1.83444 0.56446,-3.98638 0.84667,-4.7625 0.28223,-0.77611 0.56446,-2.11666 0.59973,-2.99861 l 0.1411,-1.5875 -2.5047,-0.10583 c -2.43417,-0.10583 -2.54,-0.0706 -3.42197,0.98778 z m 3.45724,2.54 c -0.52917,2.36361 -1.83444,4.05694 -2.82224,3.66889 -0.70553,-0.24695 -0.70553,-2.39889 0,-3.73945 0.45863,-0.88194 0.77613,-1.05833 1.79917,-1.05833 1.23473,0 1.23473,0.0353 1.02307,1.12889 z"
             inkscape:connector-curvature="0"
             style="stroke-width:0.03527778" />
          <path
             id="path13291"
             d="m 301.22485,191.81559 c -1.30529,0.88195 -2.75166,3.31611 -3.06916,5.25639 -0.14113,0.98778 -0.0353,1.30528 0.635,1.79917 1.05833,0.74083 1.79916,0.70555 3.42193,-0.10584 1.16417,-0.59972 1.4464,-0.59972 2.18723,-0.17639 1.16417,0.635 2.8575,0.59973 3.81,-0.0705 1.30527,-0.91722 0.98777,-1.55222 -0.81139,-1.55222 -2.01084,0 -2.25777,-0.49389 -1.41111,-2.99861 0.56444,-1.5875 0.56444,-1.97556 0.17637,-2.43417 -0.3175,-0.42333 -0.56443,-0.45861 -0.88193,-0.21167 -0.3175,0.24695 -0.74083,0.24695 -1.37583,0 -1.23474,-0.45861 -1.23474,-0.45861 -2.68111,0.49389 z m 2.29304,2.92806 c -0.35277,0.52916 -0.98777,1.23472 -1.37583,1.5875 -0.81137,0.67027 -1.97554,0.84666 -1.97554,0.28222 0,-0.70556 1.19944,-2.2225 2.25777,-2.8575 1.4111,-0.84667 1.94027,-0.35278 1.0936,0.98778 z"
             inkscape:connector-curvature="0"
             style="stroke-width:0.03527778" />
          <path
             id="path13293"
             d="m 325.10789,191.88615 c -2.0461,1.37583 -3.42193,3.4925 -3.42193,5.22111 0,1.76389 1.02303,3.52778 2.43416,4.26861 2.11667,1.05833 5.75027,0.35278 5.2211,-1.05833 -0.17639,-0.35278 -0.70556,-0.52917 -1.7286,-0.52917 -1.94029,0 -3.77473,-1.16417 -3.81,-2.39889 0,-0.24694 0.52917,-0.42333 1.4111,-0.42333 1.7639,0 3.24557,-0.74084 4.19807,-2.08139 0.98777,-1.37584 0.9172,-2.29306 -0.1764,-3.175 -1.23473,-0.98778 -2.50473,-0.91722 -4.1275,0.17639 z m 3.06917,1.51694 c 0.28223,0.45861 -0.56444,1.05833 -1.905,1.30528 -0.88194,0.21167 -1.1289,0.14111 -0.98777,-0.24695 0.3175,-0.91722 2.5047,-1.72861 2.89277,-1.05833 z"
             inkscape:connector-curvature="0"
             style="stroke-width:0.03527778" />
          <path
             id="path13295"
             d="m 376.04899,191.35698 c -3.1397,1.23472 -5.11527,4.79778 -3.91583,7.05556 0.91723,1.72861 4.02167,2.2225 6.35,1.02305 1.72863,-0.88194 1.7639,-0.88194 1.7639,0.17639 0,1.05833 0.84666,1.51694 1.62277,0.84667 0.3175,-0.24695 0.9525,-1.23473 1.41113,-2.15195 0.88193,-1.69333 2.54,-3.10444 3.7747,-3.10444 0.52917,0 0.59973,0.3175 0.52917,2.36361 -0.0705,2.57528 0.49389,4.09222 1.37583,3.91583 0.8114,-0.14111 0.9878,-6.77333 0.24696,-7.97278 -0.67029,-1.02305 -2.0814,-1.02305 -4.1275,0.0706 -1.65806,0.91722 -2.01083,0.88194 -2.01083,-0.17639 0,-0.35278 -0.1764,-0.74083 -0.3528,-0.84667 -0.67027,-0.42333 -1.37583,0.56445 -1.76387,2.46945 -0.38806,1.83444 -0.42333,1.86972 -1.94029,2.25778 -2.99861,0.74083 -5.11527,0.38805 -5.11527,-0.91723 0,-0.3175 0.52916,-0.42333 1.69333,-0.42333 2.32833,0.0706 3.175,-0.24694 3.77473,-1.44639 0.70554,-1.34055 0.67027,-2.2225 -0.10583,-2.92805 -0.70557,-0.67028 -1.905,-0.74084 -3.2103,-0.21167 z m 1.72863,2.04611 c 0,0.42333 -1.02306,0.81139 -1.48166,0.52917 -0.21167,-0.14111 -0.1764,-0.35278 0.10583,-0.52917 0.635,-0.38805 1.37583,-0.38805 1.37583,0 z"
             inkscape:connector-curvature="0"
             style="stroke-width:0.03527778" />
          <path
             id="path13297"
             d="m 182.55039,192.97976 c -0.2822,0.9525 -0.5997,2.57528 -0.635,3.63361 -0.10583,1.72861 -0.0353,1.94028 0.59973,1.94028 0.52917,0 0.74084,-0.28223 0.8114,-1.05834 0.0705,-0.59972 0.35277,-1.905 0.635,-2.92805 0.9172,-3.24556 -0.38806,-4.69195 -1.41113,-1.5875 z"
             inkscape:connector-curvature="0"
             style="stroke-width:0.03527778" />
          <path
             id="path13299"
             d="m 167.91012,192.02726 c -0.56443,0.3175 -1.34056,2.78694 -1.69333,5.22111 -0.1764,1.48167 -0.1764,1.55222 0.635,1.41111 0.84667,-0.10583 0.9525,-0.38806 1.79917,-4.445 0.42333,-1.97556 0.1411,-2.75167 -0.74084,-2.18722 z"
             inkscape:connector-curvature="0"
             style="stroke-width:0.03527778" />
          <path
             id="path13301"
             d="m 230.56346,192.41531 c -0.98777,0.56445 -2.36361,3.03389 -2.36361,4.19806 0,1.51694 0.88194,3.06917 2.11667,3.70417 1.34054,0.67027 1.62277,0.67027 2.8222,-0.17639 2.15197,-1.51695 3.2103,-5.96195 1.7639,-7.40834 -0.7761,-0.77611 -3.24556,-0.9525 -4.33916,-0.3175 z m 3.42193,2.04611 c 0.3175,0.45862 -0.42333,2.18723 -1.27,3.10445 -0.9525,0.98778 -1.905,1.02305 -2.39887,0.10583 -0.45863,-0.88194 -0.24696,-1.72861 0.74083,-2.75166 0.70554,-0.77612 2.57527,-1.05834 2.92804,-0.45862 z"
             inkscape:connector-curvature="0"
             style="stroke-width:0.03527778" />
          <path
             id="path13303"
             d="m 240.82929,192.2742 c -1.48167,0.10584 -2.0461,0.28222 -2.0461,0.635 0,0.28222 -0.3175,0.70556 -0.70557,0.9525 -0.635,0.38806 -0.70556,0.84667 -0.70556,3.70417 0,3.06917 0.0353,3.28083 0.74083,3.28083 0.8114,0 1.51696,-1.37583 1.905,-3.77472 0.28223,-1.76389 0.59973,-2.08139 2.50473,-2.36361 1.7639,-0.3175 3.6689,-1.41111 3.6689,-2.15195 0,-0.56444 -0.4939,-0.56444 -5.36223,-0.28222 z"
             inkscape:connector-curvature="0"
             style="stroke-width:0.03527778" />
        </g>
      </g>
    </g>
  </g>
</svg>
