<?xml version="1.0" encoding="UTF-8" standalone="no"?>
<!-- Created with Inkscape (http://www.inkscape.org/) -->

<svg
   xmlns:dc="http://purl.org/dc/elements/1.1/"
   xmlns:cc="http://creativecommons.org/ns#"
   xmlns:rdf="http://www.w3.org/1999/02/22-rdf-syntax-ns#"
   xmlns:svg="http://www.w3.org/2000/svg"
   xmlns="http://www.w3.org/2000/svg"
   xmlns:sodipodi="http://sodipodi.sourceforge.net/DTD/sodipodi-0.dtd"
   xmlns:inkscape="http://www.inkscape.org/namespaces/inkscape"
   width="700.53284mm"
   height="278.95822mm"
   viewBox="0 0 700.53284 278.95822"
   version="1.1"
   id="svg22586"
   inkscape:version="0.92.5 (2060ec1f9f, 2020-04-08)"
   sodipodi:docname="comms_blocked.svg">
  <defs
     id="defs22580" />
  <sodipodi:namedview
     id="base"
     pagecolor="#ffffff"
     bordercolor="#666666"
     borderopacity="1.0"
     inkscape:pageopacity="0.0"
     inkscape:pageshadow="2"
     inkscape:zoom="0.175"
     inkscape:cx="-206.60251"
     inkscape:cy="600.37878"
     inkscape:document-units="mm"
     inkscape:current-layer="g23371"
     showgrid="false"
     fit-margin-top="0"
     fit-margin-left="0"
     fit-margin-right="0"
     fit-margin-bottom="0"
     inkscape:window-width="1920"
     inkscape:window-height="1080"
     inkscape:window-x="1920"
     inkscape:window-y="0"
     inkscape:window-maximized="0" />
  <metadata
     id="metadata22583">
    <rdf:RDF>
      <cc:Work
         rdf:about="">
        <dc:format>image/svg+xml</dc:format>
        <dc:type
           rdf:resource="http://purl.org/dc/dcmitype/StillImage" />
        <dc:title></dc:title>
      </cc:Work>
    </rdf:RDF>
  </metadata>
  <g
     inkscape:label="Layer 1"
     inkscape:groupmode="layer"
     id="layer1"
     transform="translate(102.31406,-93.115445)">
    <g
       id="g23371">
      <path
         id="path21736"
         d="m 56.23441,93.837754 c -3.28083,1.693334 -5.46805,5.150557 -5.75027,9.172226 -0.21167,3.03389 0.3175,4.33916 2.08138,5.25639 1.65806,0.81138 3.52778,0.84666 5.78556,0.0706 1.69333,-0.56445 1.72861,-0.56445 2.2225,0.17639 0.635,0.98777 1.83444,1.02305 1.83444,0.0706 0,-0.35278 -0.17638,-1.05834 -0.38805,-1.55223 -0.35278,-0.70555 -0.24695,-1.16416 0.52917,-2.71639 0.52916,-1.12888 0.91722,-2.46944 0.91722,-3.35138 0,-2.892782 -1.79917,-6.279449 -3.88056,-7.373059 -1.30528,-0.670277 -1.62278,-0.670277 -3.35139,0.246943 z m 3.59834,2.645834 c 1.51694,2.2225 1.86972,4.092222 1.16416,5.926662 l -0.35277,0.9525 -0.74084,-0.91722 c -1.09361,-1.41111 -1.86972,-1.23472 -1.62278,0.38806 0.10584,0.74083 0.28223,1.62278 0.42334,1.94028 0.35278,0.88194 -1.5875,1.76388 -3.59834,1.62277 -1.27,-0.0706 -1.76388,-0.3175 -2.32833,-1.05833 -0.70555,-0.9525 -0.70555,-0.98778 -0.0705,-3.28083 0.35277,-1.30528 1.12888,-3.104446 1.72861,-3.986392 0.91722,-1.411111 1.27,-1.658054 2.25777,-1.693334 0.635,0 1.34056,-0.211666 1.55223,-0.423333 0.635,-0.635 0.88194,-0.529167 1.5875,0.529167 z"
         inkscape:connector-curvature="0"
         style="stroke-width:0.03527778" />
      <path
         id="path21738"
         d="m 107.03441,95.601644 c -1.41111,1.516944 -3.42194,5.573886 -5.11528,10.230556 -1.02305,2.78694 -1.05833,3.59833 -0.21166,3.91583 0.81139,0.3175 1.30528,-0.3175 2.15194,-2.61055 l 0.81139,-2.25778 1.76389,0.10583 c 1.86972,0.14111 2.54,-0.3175 1.83444,-1.16416 -0.21166,-0.24695 -0.88194,-0.59973 -1.44639,-0.70556 -1.30527,-0.28222 -1.34055,-1.16417 -0.0353,-3.527776 1.09361,-2.010833 1.62277,-2.2225 1.76389,-0.705557 0.0353,0.564444 0.3175,2.504723 0.59972,4.268613 0.28222,1.76389 0.52916,3.73944 0.52916,4.33916 0,1.23473 0.88195,3.21028 1.41112,3.21028 0.17638,0 0.49388,-0.3175 0.70555,-0.74083 0.3175,-0.56445 0.21167,-2.32833 -0.52917,-7.65528 -0.52916,-3.845276 -1.09361,-7.231943 -1.27,-7.584719 -0.52916,-0.98778 -1.55222,-0.705557 -2.96333,0.881943 z"
         inkscape:connector-curvature="0"
         style="stroke-width:0.03527778" />
      <path
         id="path21740"
         d="m 70.02802,100.89331 c -0.10583,0.24694 -0.24694,1.16417 -0.3175,2.01083 -0.21166,1.79917 -1.27,3.38667 -2.2225,3.38667 -0.56444,0 -0.70555,-0.35278 -0.84666,-2.43417 -0.10584,-1.34055 -0.35278,-2.50472 -0.56445,-2.57527 -0.81139,-0.28223 -1.37583,1.05833 -1.37583,3.28083 0,4.86833 3.45722,5.92667 5.85611,1.76389 1.09361,-1.94028 1.41111,-4.62139 0.59972,-5.43278 -0.52916,-0.52917 -0.98778,-0.52917 -1.12889,0 z"
         inkscape:connector-curvature="0"
         style="stroke-width:0.03527778" />
      <path
         id="path21742"
         d="m 74.93163,101.66942 c -2.29305,1.02306 -3.10444,3.95111 -1.79916,6.45583 0.67028,1.34056 2.39889,2.11667 3.66889,1.65806 1.48166,-0.52917 1.34055,-1.30528 -0.3175,-1.905 -1.72861,-0.59972 -2.2225,-1.41111 -0.88195,-1.41111 1.37584,0 2.57528,-0.59972 3.21028,-1.55222 0.67028,-1.02306 0.45861,-2.04611 -0.635,-3.03389 -0.84667,-0.81139 -1.76389,-0.88195 -3.24556,-0.21167 z m 2.29306,2.11667 c 0,0.49389 -1.30528,1.02305 -1.79917,0.70555 -0.17639,-0.0706 -0.21166,-0.38805 -0.0705,-0.67027 0.24694,-0.67028 1.86972,-0.70556 1.86972,-0.0353 z"
         inkscape:connector-curvature="0"
         style="stroke-width:0.03527778" />
      <path
         id="path21744"
         d="m 85.90302,101.95164 c -0.59972,2.25778 -1.30527,3.70417 -2.04611,4.26861 -1.37583,1.02306 -1.72861,0.52917 -1.12889,-1.5875 0.49389,-1.5875 0.49389,-1.83444 0,-2.32833 -0.77611,-0.81139 -1.51694,-0.0353 -2.18722,2.32833 -0.52917,1.76389 -0.52917,2.04612 -0.0353,3.06917 0.74084,1.51695 1.94028,1.79917 3.77473,0.88195 1.905,-0.9525 3.24555,-3.31612 3.10444,-5.36223 -0.0706,-1.09361 -0.28222,-1.55222 -0.74083,-1.62277 -0.3175,-0.0706 -0.67028,0.0705 -0.74084,0.35277 z"
         inkscape:connector-curvature="0"
         style="stroke-width:0.03527778" />
      <path
         id="path21746"
         d="m 91.82969,102.62192 c -0.59972,0.17639 -1.30528,0.56445 -1.55222,0.84667 -0.24695,0.28222 -0.74084,0.52916 -1.05834,0.52916 -0.35277,0 -0.70555,0.17639 -0.77611,0.42334 -0.28222,0.77611 0.28223,3.73944 0.91723,4.65666 1.41111,2.15195 5.04472,3.13973 5.85611,1.5875 0.35277,-0.59972 0.28222,-0.74083 -0.35278,-0.91722 -1.27,-0.35278 -3.66889,-1.65805 -3.81,-2.15194 -0.10583,-0.3175 0.3175,-0.38806 1.76389,-0.21167 1.69333,0.17639 1.94028,0.14111 2.71639,-0.67028 0.59972,-0.67027 0.77611,-1.16416 0.59972,-1.76389 -0.49389,-2.04611 -2.2225,-2.96333 -4.30389,-2.32833 z m 2.50472,2.08139 c 0.28222,0.45861 -0.70555,0.84667 -1.44639,0.56444 -0.70555,-0.28222 -0.3175,-0.91722 0.56445,-0.91722 0.35278,0 0.77611,0.17639 0.88194,0.35278 z"
         inkscape:connector-curvature="0"
         style="stroke-width:0.03527778" />
      <path
         id="path21748"
         d="m 30.30525,119.55525 c 0,1.83445 0.24694,5.67973 0.52916,8.60778 0.3175,2.89278 0.70556,11.46528 0.88195,18.97945 0.17639,7.54944 0.35278,13.75833 0.42333,13.79361 1.05833,0.59972 3.42195,0.91722 7.19667,0.91722 3.10444,0 4.72722,0.14111 5.00944,0.42334 0.3175,0.3175 0.52917,0.3175 0.84667,0 0.98778,-0.98778 32.385,-0.24695 56.90305,1.34055 15.24,0.98778 22.86,1.41111 25.82334,1.41111 2.36361,0 2.61055,-0.0706 3.13972,-0.88194 1.19944,-1.83445 2.57528,-11.14778 2.64583,-17.85056 0.0353,-3.56305 -1.09361,-18.66194 -1.65805,-22.36611 -0.3175,-2.01083 -0.77612,-2.71639 -1.65806,-2.57528 -0.59972,0.0706 -0.77611,0.35278 -0.74083,1.16417 0.0353,1.69333 1.23472,15.27527 1.55222,17.99167 0.17639,1.34055 0.3175,3.56305 0.35278,4.93889 0,2.99861 -0.91723,10.93611 -1.55223,13.58194 -0.28222,1.05833 -0.59972,2.36361 -0.70555,2.89278 l -0.21167,0.98778 h -3.31611 c -1.83444,0 -10.12472,-0.38806 -18.45028,-0.84667 -8.29027,-0.49389 -17.145,-0.9525 -19.685,-1.09361 -2.50472,-0.10584 -5.64444,-0.28222 -6.91444,-0.38806 l -2.29306,-0.21166 0.10584,-4.09223 c 0.17639,-5.43277 0.74083,-15.62805 1.19944,-21.76639 0.21167,-2.71639 0.49389,-7.09083 0.635,-9.70139 l 0.21167,-4.7625 7.9375,0.14111 c 4.37444,0.0706 8.07861,0.24695 8.255,0.42334 0.74083,0.67028 0.59972,6.27944 -0.28222,13.72305 -0.49389,4.16278 -1.05834,10.26584 -1.27,13.58195 -0.17639,3.28083 -0.45861,6.87917 -0.56445,7.97278 -0.24694,2.11666 0.17639,2.8575 1.09361,2.08139 0.88195,-0.70556 1.19945,-2.68111 1.72861,-10.58334 0.3175,-4.16277 0.81139,-9.34861 1.12889,-11.46528 0.3175,-2.15194 0.635,-6.45583 0.74084,-9.63083 l 0.17639,-5.75028 6.59694,0.21167 c 3.59833,0.14111 6.91444,0.28222 7.33778,0.38805 0.74083,0.14112 0.77611,0.28223 0.635,3.06917 -0.10584,1.5875 -0.35278,6.13833 -0.56445,10.12472 -0.17639,3.98639 -0.74083,10.65389 -1.23472,14.81667 -0.91722,8.04334 -1.05833,11.46528 -0.49389,11.81806 0.635,0.38805 1.30528,-1.79917 2.04611,-6.70278 1.37584,-9.13694 2.54,-22.89528 2.54,-30.1625 v -2.82222 h 5.99722 c 4.90362,0 5.99723,-0.10584 5.99723,-0.49389 0,-0.67028 -1.65806,-0.84667 -11.1125,-1.27 -24.90611,-1.09361 -42.15695,-1.72861 -60.14861,-2.11667 -17.53306,-0.38806 -24.41222,-0.635 -25.82333,-0.9525 l -0.98778,-0.17639 z m 12.34722,-0.14111 c 0.10583,0.10584 0.21167,7.16139 0.21167,15.73389 0.0353,8.5725 0.21166,17.49778 0.42333,19.82612 0.21167,2.32833 0.24694,4.37444 0.10583,4.51555 -0.14111,0.14111 -2.36361,0.21167 -4.90361,0.17639 l -4.62139,-0.10583 -0.17639,-14.2875 c -0.0705,-8.85473 -0.35277,-16.51001 -0.67027,-20.10834 -0.28223,-3.175 -0.49389,-5.89139 -0.42334,-5.99722 0.14111,-0.21167 9.80722,0 10.05417,0.24694 z m 17.53305,3.95111 c 0.24695,2.25778 0.45862,10.90084 0.52917,19.47334 0.0706,10.86556 0.21167,15.5575 0.49389,15.83972 0.56444,0.56445 1.09361,-1.02305 1.5875,-4.83305 0.38806,-2.96334 0.21167,-26.10556 -0.24694,-32.03223 l -0.17639,-2.46944 7.69055,0.10583 c 4.23333,0.0706 7.83167,0.28222 8.00806,0.42333 0.17639,0.17639 0.14111,2.71639 -0.10584,6.06778 -1.27,17.32139 -1.44639,20.81389 -1.44639,27.37556 v 7.19667 l -3.88055,-0.24695 c -2.11667,-0.14111 -9.03111,-0.35278 -15.38111,-0.49389 l -11.50056,-0.21166 -0.14111,-2.11667 c -0.59972,-9.17222 -0.74083,-16.47472 -0.42333,-22.64834 0.17639,-3.84527 0.24694,-8.92527 0.14111,-11.32416 l -0.21167,-4.33917 7.3025,0.10583 7.33778,0.10584 z"
         inkscape:connector-curvature="0"
         style="stroke-width:0.03527778" />
      <path
         id="path21752"
         d="m 18.76941,131.79664 c -0.635,0.49389 -0.81138,1.02306 -0.88194,2.71639 l -0.10583,2.11667 -2.2225,0.24694 c -6.2794495,0.70556 -11.8533395,3.56306 -15.5222295,8.04334 -6.208885,7.62 -8.396108,22.71889 -5.397495,37.39444 0.987777,4.72722 1.693333,7.40834 4.621385,17.28611 1.41111,4.79778 2.71639,11.21834 3.21028,15.91028 0.35278,3.28083 0.35278,4.05694 -0.17639,6.10306 -1.16416,4.72722 -5.573888,10.23055 -10.618608,13.22916 -3.6336135,2.18722 -10.5480575,4.62139 -14.2875005,5.04472 -0.67028,0.0706 -0.881946,0.3175 -0.881946,0.98778 0,0.77611 0.176389,0.88195 1.552223,0.98778 3.739443,0.28222 13.6877775,-3.84528 18.0975005,-7.47889 2.963331,-2.46944 5.644441,-5.89139 7.267221,-9.27805 1.30528,-2.75167 1.30528,-2.78695 1.27,-7.16139 -0.0353,-5.22111 -1.37583,-12.55889 -3.70417,-20.14361 -2.36361,-7.69056 -4.092218,-14.67556 -4.727218,-19.19111 -0.846667,-5.64445 -0.846667,-13.79362 -0.03528,-17.99167 1.940278,-10.26583 5.362228,-15.62806 12.135558,-19.01472 2.0461095,-1.05834 6.6322195,-2.32834 8.2549995,-2.32834 0.9525,0 0.98778,0.0353 0.98778,1.905 0,1.51695 0.17639,2.15195 0.81139,2.89278 1.09361,1.27 1.97555,1.02306 4.58611,-1.27 2.25778,-2.04611 3.63361,-4.1275 3.91583,-6.0325 0.24695,-1.51695 -0.52917,-2.36361 -3.95111,-4.33917 -2.50472,-1.41111 -3.06917,-1.51694 -4.19806,-0.635 z m 6.24417,5.89139 c -0.24694,0.28222 -0.59972,0.52917 -0.77611,0.52917 -0.21167,0 -0.17639,-0.24695 0.0706,-0.52917 0.24694,-0.28222 0.59972,-0.52917 0.77611,-0.52917 0.21166,0 0.17639,0.24695 -0.0706,0.52917 z"
         inkscape:connector-curvature="0"
         style="stroke-width:0.03527778" />
      <path
         id="path21758"
         d="m 135.36247,145.30803 c -0.635,0.35278 -0.88195,1.72862 -0.35278,1.72862 2.89278,0.10583 5.89139,0.45861 7.3025,0.88194 4.40972,1.30528 12.59416,8.36083 16.1925,14.04056 2.08139,3.24555 4.40973,8.25499 5.18583,11.07722 0.38807,1.51694 0.9525,3.52777 1.23473,4.51555 1.09361,4.02167 1.51694,6.24417 2.04611,10.93611 0.7761,6.73806 1.02306,12.17084 0.67026,15.52222 l -0.2822,2.82223 -2.46946,0.17639 -2.46944,0.17638 0.0353,1.5875 c 0.0353,0.9525 0.52917,2.61056 1.16417,4.02167 0.59973,1.34056 1.09363,2.46945 1.09363,2.54 0,0.0706 -3.52779,0.14111 -7.83168,0.14111 -4.33917,0 -9.66611,0.17639 -11.85333,0.35278 -3.38667,0.3175 -4.09223,0.28222 -4.79778,-0.17639 -0.74083,-0.49389 -0.88195,-0.49389 -1.37583,0 -0.49389,0.45861 -0.52917,1.72861 -0.3175,9.98361 0.14111,5.18584 0.24694,18.415 0.24694,29.42167 0,15.5575 0.10583,20.03778 0.42333,20.03778 0.24695,0 0.70556,-0.91723 1.02306,-2.04612 0.67028,-2.18722 0.81139,-11.67694 0.56444,-39.58166 -0.0705,-7.09083 -0.10583,-13.44083 -0.10583,-14.14639 l 0.0353,-1.27 13.44083,-0.45861 c 16.9686,-0.59972 32.0675,-0.21167 46.10807,1.09361 l 4.33916,0.42333 -1.05833,0.635 c -1.7639,1.05834 -1.09363,1.65806 2.11667,1.94028 l 2.78693,0.24695 v 6.91444 c 0,7.16139 0.88194,20.53167 2.11667,32.49083 0.84667,8.04334 1.27,17.95639 0.7761,18.66195 -0.38804,0.52916 -3.66887,0.24694 -14.04054,-1.19945 -16.1925,-2.29305 -26.63473,-2.96333 -45.61417,-3.03389 -12.84111,-0.0353 -13.75834,0.10584 -12.065,1.48167 0.77611,0.635 1.51694,0.67028 17.49777,0.67028 18.73251,-0.0353 22.18974,0.21166 39.12307,2.50472 13.86417,1.86972 15.66333,2.01083 16.72167,1.12889 0.81137,-0.635 0.84666,-0.81139 0.81137,-6.10306 -0.0353,-3.24555 -0.38804,-8.64305 -0.91721,-13.22916 -1.23473,-11.14778 -1.94029,-21.59 -2.15196,-32.10278 -0.10583,-5.04472 -0.24693,-9.525 -0.35277,-9.98361 -0.1411,-0.67028 -0.38806,-0.77611 -1.905,-0.77611 -1.27,0 -1.94027,-0.17639 -2.43416,-0.67028 -1.37584,-1.37583 -12.73527,-2.61056 -28.15167,-3.06917 -4.72723,-0.14111 -8.5725,-0.3175 -8.5725,-0.38805 0,-0.10584 0.56443,-0.81139 1.23473,-1.62278 1.4111,-1.65806 2.15194,-3.63361 1.79917,-4.93889 -0.1764,-0.70555 -0.45863,-0.91722 -1.37584,-1.02305 l -1.12889,-0.10584 0.10583,-5.46805 c 0.0706,-3.52778 -0.0706,-7.02028 -0.4586,-9.87778 -0.28223,-2.43417 -0.70557,-5.85611 -0.91723,-7.58472 -0.52917,-4.83306 -2.96334,-13.86417 -4.72724,-17.70945 -1.62277,-3.56305 -4.5861,-7.97277 -7.54943,-11.35944 -2.68111,-3.03389 -8.11389,-7.3025 -11.32417,-8.89 -2.99861,-1.48167 -8.14916,-2.2225 -9.59555,-1.34056 z"
         inkscape:connector-curvature="0"
         style="stroke-width:0.03527778" />
      <path
         id="path21768"
         d="m 241.97192,183.9372 c -0.28223,0.3175 -0.59973,1.76389 -0.70556,3.28083 l -0.1764,2.68111 -1.62277,0.88195 c -2.6811,1.44639 -2.64583,1.41111 -2.3989,4.37444 0.14113,1.86973 0.38807,2.89278 0.84667,3.38667 0.9525,1.05833 2.61056,0.91722 4.1275,-0.35278 1.1289,-0.91722 1.55223,-1.05833 2.75166,-0.91722 1.79917,0.17639 3.24557,-0.77611 2.50474,-1.65806 -0.24694,-0.3175 -0.88194,-0.59972 -1.37584,-0.67027 -0.7761,-0.0706 -0.91723,-0.24695 -0.84666,-0.98778 0.0706,-0.49389 0.10583,-2.39889 0.10583,-4.26861 0,-2.54 -0.1411,-3.77472 -0.635,-4.7625 -0.70557,-1.51695 -1.79917,-1.94028 -2.57527,-0.98778 z m -0.28223,9.94833 c 0.35277,1.34056 -0.10583,2.39889 -1.16417,2.71639 -0.88193,0.28222 -0.9525,0.21167 -1.23473,-1.09361 -0.1411,-0.74083 0,-1.30528 0.56446,-2.01083 0.9525,-1.19945 1.44637,-1.09361 1.83444,0.38805 z"
         inkscape:connector-curvature="0"
         style="stroke-width:0.03527778" />
      <path
         id="path21770"
         d="m 218.58275,190.14609 c -0.56446,0.42333 -0.56446,0.74083 -0.0706,4.51555 0.8114,6.06778 1.4464,7.54945 2.96333,6.70278 0.8114,-0.42333 0.9525,-1.41111 0.3175,-2.04611 -0.67027,-0.67028 -0.1764,-0.81139 1.5875,-0.45861 1.0936,0.17639 1.905,0.17639 2.3989,-0.10583 1.62277,-0.81139 1.05833,-1.5875 -1.51696,-2.11667 -1.19944,-0.28222 -1.23471,-0.52917 -0.10584,-2.18722 0.4939,-0.74084 0.84667,-1.48167 0.77613,-1.69334 -0.24696,-0.81138 -1.51696,-0.56444 -2.54,0.49389 -0.56446,0.56445 -1.12889,1.05834 -1.27,1.05834 -0.10583,0 -0.3175,-0.70556 -0.45863,-1.5875 -0.21166,-1.69334 -0.74083,-2.99861 -1.19943,-2.99861 -0.1764,0 -0.56444,0.21166 -0.88194,0.42333 z"
         inkscape:connector-curvature="0"
         style="stroke-width:0.03527778" />
      <path
         id="path21772"
         d="m 330.76606,192.08637 c -0.2822,0.52916 -0.7761,2.18722 -1.12887,3.63361 -0.3528,1.44639 -1.23473,4.62139 -1.97557,7.05555 -1.51693,4.86834 -1.62276,5.57389 -0.81139,5.89139 0.81139,0.3175 1.16416,-0.24694 2.25779,-3.45722 l 0.98777,-2.96333 1.55223,-0.10584 1.5875,-0.10583 0.4586,1.5875 c 0.59974,2.2225 1.62277,3.73944 2.46944,3.73944 1.05833,0 1.16417,-0.70555 0.3528,-2.29305 -0.84667,-1.69334 -0.91724,-2.96334 -0.10584,-3.52778 0.70554,-0.52917 0.38804,-1.51694 -0.635,-1.905 -0.635,-0.21167 -0.98779,-1.02305 -1.86973,-4.30389 -0.9525,-3.45722 -1.19943,-4.02166 -1.86973,-4.1275 -0.56444,-0.0705 -0.9172,0.17639 -1.27,0.88195 z m 1.51696,5.29166 c 0,0.35278 0.10584,0.98778 0.21167,1.41111 0.17637,0.70556 0.0705,0.81139 -0.74083,0.81139 -0.8114,0 -0.91724,-0.10583 -0.74084,-0.81139 0.10584,-0.42333 0.21167,-1.05833 0.21167,-1.41111 0,-0.3175 0.24693,-0.59972 0.52917,-0.59972 0.2822,0 0.52916,0.28222 0.52916,0.59972 z"
         inkscape:connector-curvature="0"
         style="stroke-width:0.03527778" />
      <path
         id="path21774"
         d="m 230.61246,192.1922 c -1.905,1.02306 -3.10444,2.68111 -2.75167,3.88056 0.45863,1.62277 1.02307,2.43416 2.11667,2.99861 1.41113,0.74083 2.54,0.67027 3.6689,-0.21167 1.4111,-1.12889 1.19943,-1.72861 -0.67027,-1.72861 -1.83447,0 -2.04613,-0.42333 -0.52917,-1.05833 1.16417,-0.49389 2.46944,-2.04612 2.46944,-2.92806 0,-0.70556 -1.34057,-1.65806 -2.29307,-1.65806 -0.38804,0.0353 -1.27,0.35278 -2.01083,0.70556 z"
         inkscape:connector-curvature="0"
         style="stroke-width:0.03527778" />
      <path
         id="path21776"
         d="m 195.72275,192.96831 c -0.28223,0.52917 -0.45863,2.64583 -0.45863,5.92667 -0.0353,4.55083 0.0353,5.25639 0.6703,6.35 0.56444,0.9525 1.02304,1.27 1.905,1.34055 1.51694,0.14111 2.8575,-0.74083 2.8575,-1.905 0,-0.88194 -0.0706,-0.91722 -1.27,-0.67028 -0.91723,0.14112 -1.37583,0.0706 -1.5875,-0.24694 -0.42333,-0.635 -0.38806,-5.96194 0.0353,-8.50194 0.1764,-1.12889 0.24693,-2.25778 0.10583,-2.54 -0.28223,-0.81139 -1.79916,-0.635 -2.25777,0.24694 z"
         inkscape:connector-curvature="0"
         style="stroke-width:0.03527778" />
      <path
         id="path21778"
         d="m 185.35109,194.13248 c -2.43417,0.88194 -4.1275,3.4925 -2.99863,4.62139 0.21166,0.21166 0.77613,2.04611 1.23473,4.09222 1.05833,4.72722 1.51693,5.60916 3.4925,6.6675 l 1.62277,0.84666 1.69333,-0.88194 c 1.19946,-0.635 1.97557,-1.41111 2.82223,-2.82222 1.02307,-1.69334 1.16417,-2.18722 1.02307,-3.81 -0.14113,-2.08139 -0.38807,-2.36361 -2.61057,-2.92806 -0.88193,-0.24694 -1.51693,-0.59972 -1.51693,-0.88194 0,-0.28222 0.1411,-0.49389 0.2822,-0.49389 0.42333,0 1.83446,-2.64583 1.83446,-3.42194 0,-0.35278 -0.17639,-0.84667 -0.42333,-1.09362 -0.56446,-0.56444 -4.69196,-0.52916 -6.45583,0.10584 z m 3.70416,2.25778 c 0,0.21166 -0.17639,0.45861 -0.35279,0.56444 -0.70554,0.42333 -1.48167,2.36361 -1.27,3.21028 0.24696,0.88194 1.83446,1.905 2.96333,1.905 0.3528,0 0.9525,0.21166 1.34057,0.49389 0.67026,0.49388 0.635,0.52916 -0.14111,2.11666 -0.91723,1.905 -2.68113,3.175 -3.66889,2.64584 -0.9525,-0.52917 -1.55224,-1.94028 -2.2225,-5.43278 -0.3175,-1.76389 -0.67027,-3.52778 -0.77611,-3.95111 -0.14113,-0.56445 0.0705,-0.88195 0.84667,-1.30528 1.0936,-0.59972 3.28083,-0.74083 3.28083,-0.24694 z"
         inkscape:connector-curvature="0"
         style="stroke-width:0.03527778" />
      <path
         id="path21780"
         d="m 212.12692,196.14331 c -0.42333,0.17639 -1.09363,0.9525 -1.51696,1.72861 -0.42334,0.74084 -0.84667,1.37583 -0.9525,1.37583 -0.0705,0 -0.3175,-0.38805 -0.49387,-0.88194 -0.42334,-1.16417 -1.23473,-1.44639 -2.5753,-0.9525 -0.7761,0.28222 -1.19943,0.3175 -1.5522,0.0353 -1.48167,-1.27 -3.8453,1.76389 -3.5278,4.51555 0.21167,2.08139 1.19946,3.10445 3.06917,3.10445 1.7639,0 3.10446,-0.98778 4.1275,-2.99861 l 0.77613,-1.51695 0.38803,0.9525 c 0.1764,0.52917 0.3528,1.09361 0.3528,1.27 0,0.45861 1.69333,1.41111 2.54,1.41111 1.16417,0 3.42194,-1.41111 4.0922,-2.54 0.91724,-1.51694 0.1764,-1.79916 -2.01083,-0.81139 -1.02304,0.49389 -2.01083,0.77612 -2.1872,0.67028 -0.635,-0.38805 -0.3175,-2.2225 0.56443,-3.24555 1.5875,-1.905 0.9525,-3.13972 -1.0936,-2.11667 z m -7.0203,3.81 c 0.10584,0.17639 0.59974,0.35278 1.09363,0.35278 1.12887,0 1.05834,0.45861 -0.21166,1.55222 -1.23473,1.02306 -2.11667,0.88194 -2.11667,-0.3175 0,-1.5875 0.70554,-2.46944 1.2347,-1.5875 z"
         inkscape:connector-curvature="0"
         style="stroke-width:0.03527778" />
      <path
         id="path21782"
         d="m 282.85886,196.91942 c -0.6703,0.635 -2.04613,2.01084 -3.10447,3.03389 -3.42193,3.35139 -4.7625,7.90222 -3.21027,10.97139 1.16417,2.29305 2.29307,3.10444 4.40974,3.13972 1.2347,0 2.2225,-0.28222 3.28083,-0.88194 l 1.48167,-0.84667 1.2347,0.70556 c 2.15196,1.27 3.24556,-0.14112 1.34056,-1.65806 -0.9525,-0.74083 -0.9525,-0.84667 -0.49389,-1.97556 2.2225,-5.50333 1.83446,-10.93611 -0.9525,-12.91166 -1.51694,-1.09361 -2.57527,-0.98778 -3.98637,0.42333 z m 3.7747,2.04611 c 0.6703,1.30528 0.70556,4.40972 0.10583,6.84389 -0.49387,1.86972 -0.98777,1.86972 -1.5522,-0.0705 -0.28223,-0.98778 -0.59973,-1.41112 -1.16417,-1.48167 -1.19946,-0.17639 -1.30529,0.77611 -0.42333,3.45722 0.9172,2.71639 0.7761,3.10445 -1.02307,3.88056 -1.62276,0.67027 -2.89276,0.3175 -3.81,-1.02306 -0.4586,-0.67028 -0.81139,-1.62278 -0.81139,-2.15194 0,-1.76389 1.12889,-4.23334 2.75166,-6.06778 l 1.65807,-1.83445 0.1764,1.05834 c 0.38803,2.25778 2.2225,0.38805 2.0461,-2.04611 -0.0706,-0.74084 0.0353,-1.41111 0.24693,-1.48167 0.84667,-0.35278 1.23473,-0.14111 1.79917,0.91722 z"
         inkscape:connector-curvature="0"
         style="stroke-width:0.03527778" />
      <path
         id="path21784"
         d="m 319.54773,201.50553 c -1.55221,1.05834 -2.43417,2.82222 -2.43417,4.7625 0,3.35139 3.8453,4.86834 6.42056,2.54 0.88194,-0.81139 1.05834,-1.12889 0.74084,-1.48166 -0.3175,-0.3175 -0.8114,-0.3175 -2.18723,0.0353 -1.44637,0.35278 -1.94027,0.35278 -2.32834,0 -0.98777,-0.81139 -0.5997,-1.41111 0.88197,-1.41111 0.7761,0 1.97553,-0.21166 2.64583,-0.49389 2.32833,-0.98777 1.8697,-3.70416 -0.77613,-4.40972 -1.7286,-0.49389 -1.51694,-0.52917 -2.96333,0.45861 z m 2.50473,1.76389 c 0,0.0706 -0.24694,0.21167 -0.52917,0.35278 -0.28223,0.10583 -0.52917,0.0353 -0.52917,-0.14111 0,-0.21167 0.24694,-0.35278 0.52917,-0.35278 0.28223,0 0.52917,0.0706 0.52917,0.14111 z"
         inkscape:connector-curvature="0"
         style="stroke-width:0.03527778" />
      <path
         id="path21786"
         d="m 314.36189,201.43498 c -0.24693,0.24694 -0.42333,0.81139 -0.42333,1.30527 0,2.64584 -1.905,5.50334 -3.03387,4.58612 -0.56446,-0.45862 -0.6703,-2.99862 -0.14113,-3.31612 0.635,-0.38805 0.3528,-1.23472 -0.52917,-1.65805 -0.74083,-0.35278 -0.98777,-0.28222 -1.4111,0.28222 -1.48167,2.01083 -0.74083,6.38528 1.23473,7.19667 1.97554,0.81139 4.48027,-0.49389 5.43277,-2.82222 0.9525,-2.36362 0.635,-5.99723 -0.4939,-5.99723 -0.10583,0 -0.38803,0.17639 -0.635,0.42334 z"
         inkscape:connector-curvature="0"
         style="stroke-width:0.03527778" />
      <path
         id="path21788"
         d="m 300.60356,203.76331 c -2.25777,2.25778 -2.61054,5.60917 -0.67027,6.94972 0.9525,0.67028 3.4925,0.67028 4.79777,0.0353 2.64583,-1.37583 1.97556,-2.54 -1.16417,-1.94028 -1.0936,0.17639 -2.15193,0.24695 -2.32833,0.14111 -0.67027,-0.42333 -0.35277,-0.88194 0.6703,-0.88194 1.2347,0 4.48026,-2.11667 4.33916,-2.8575 -0.0706,-0.24695 -0.14113,-0.77611 -0.1764,-1.12889 -0.0706,-0.74083 -1.05833,-1.23472 -2.96333,-1.48167 -1.02306,-0.14111 -1.37583,0.0353 -2.50473,1.16417 z"
         inkscape:connector-curvature="0"
         style="stroke-width:0.03527778" />
      <path
         id="path21790"
         d="m 296.15856,203.33998 c -0.10583,0.3175 -0.21167,1.05833 -0.21167,1.65805 0,1.48167 -1.0936,4.51556 -1.5875,4.37445 -0.17637,-0.0706 -0.38803,-1.02306 -0.4586,-2.08139 -0.21167,-3.84528 -2.25777,-3.52778 -2.32833,0.35278 -0.0706,4.65666 3.52777,6.24416 5.50333,2.39888 0.88194,-1.69333 1.23473,-5.3975 0.67027,-6.49111 -0.49387,-0.91722 -1.27,-1.02305 -1.5875,-0.21166 z"
         inkscape:connector-curvature="0"
         style="stroke-width:0.03527778" />
      <path
         id="path21792"
         d="m 250.33275,205.49192 c -0.38806,0.38806 -0.28223,8.07861 0.14111,9.17222 0.59973,1.5875 1.7286,2.57528 2.92806,2.57528 1.44637,0 3.38667,-1.19944 3.38667,-2.08139 0,-0.88194 -0.59973,-1.05833 -2.01084,-0.635 -1.94029,0.59972 -2.2225,0.0706 -2.2225,-4.48028 0,-2.61055 -0.14113,-4.09222 -0.42333,-4.37444 -0.45863,-0.45861 -1.4464,-0.56444 -1.79917,-0.17639 z"
         inkscape:connector-curvature="0"
         style="stroke-width:0.03527778" />
      <path
         id="path21794"
         d="m -29.808085,206.19748 c -0.49389,0.14111 -0.599723,0.38805 -0.423333,1.16416 l 0.176387,1.02306 -1.658054,-0.52917 c -4.021667,-1.27 -24.059443,-0.84666 -44.344166,0.91722 -4.268611,0.35278 -10.548055,0.84667 -13.934722,1.05834 -7.831666,0.45861 -9.701388,0.67028 -10.442217,1.19944 -0.49389,0.38806 -0.59973,1.83445 -0.88195,11.53584 -0.17639,6.10305 -0.45861,13.75833 -0.635,17.07444 -0.42333,7.05555 -0.45861,29.06889 -0.0706,32.10278 0.17638,1.37583 0.14111,2.32833 -0.10584,2.75166 -0.52916,0.88195 0.0706,1.65806 1.76389,2.29306 1.693334,0.59972 17.709445,0.67028 26.423055,0.10583 6.985,-0.45861 26.81111,-0.49389 32.279167,-0.0353 2.2225,0.17639 6.067777,0.59973 8.53722,0.9525 3.104446,0.38806 4.79778,0.49389 5.468057,0.24695 2.081389,-0.74083 2.504723,-4.83306 1.905,-18.13278 -0.246944,-4.93889 -0.564444,-14.64028 -0.740834,-21.55472 -0.176389,-6.91444 -0.529166,-13.6525 -0.740833,-14.99306 -0.246944,-1.41111 -0.388056,-5.29166 -0.388056,-9.10166 0.03528,-5.43278 -0.03528,-6.84389 -0.458611,-7.51417 -0.3175,-0.45861 -0.670277,-0.77611 -0.811389,-0.77611 -0.141111,0.0353 -0.529167,0.10583 -0.917221,0.21167 z m -0.07056,10.05416 c 0.07056,3.73945 0.3175,8.14917 0.493889,9.80723 0.211667,1.65805 0.388054,5.99722 0.388054,9.63083 0.03528,3.63361 0.282223,12.3825 0.599723,19.40278 0.529167,12.24138 0.529167,19.12055 -0.03528,20.46111 -0.211666,0.45861 -0.529166,0.59972 -1.199446,0.45861 -6.526387,-1.37584 -20.073054,-2.11667 -32.84361,-1.83445 -36.900553,0.81139 -38.946665,0.74084 -38.241105,-0.81139 0.17639,-0.3175 0.38805,-7.86694 0.52916,-16.79222 0.14111,-8.92528 0.423336,-18.20333 0.670281,-20.6375 0.211666,-2.43416 0.529166,-8.50194 0.670278,-13.51139 0.141111,-5.25638 0.423333,-9.24277 0.599722,-9.41916 0.211666,-0.21167 2.963333,-0.52917 6.17361,-0.70556 3.175,-0.21166 10.230556,-0.74083 15.663333,-1.23472 5.432777,-0.45861 12.911667,-1.02306 16.580554,-1.23472 3.704167,-0.21167 7.65528,-0.42334 8.819447,-0.49389 1.164166,-0.0706 6.35,-0.0706 11.535833,0 l 9.454443,0.10583 z"
         inkscape:connector-curvature="0"
         style="stroke-width:0.03527778" />
      <path
         id="path21796"
         d="m -61.416975,227.18775 c -1.658053,0.14112 -4.480277,0.49389 -6.31472,0.74084 -2.469446,0.38805 -3.563057,0.38805 -4.339167,0.10583 -0.846666,-0.3175 -1.234723,-0.24694 -2.08139,0.24695 -0.846666,0.45861 -1.904999,0.59972 -4.727221,0.59972 -2.892778,0 -3.704167,0.10583 -4.092222,0.56444 -0.388056,0.49389 -0.352778,0.67028 0.388055,1.27 0.811389,0.67028 1.234722,0.70556 5.362222,0.52917 2.786946,-0.14111 4.58611,-0.10583 4.691943,0.14111 0.141113,0.17639 -0.03528,3.21028 -0.388053,6.77333 -0.564444,6.20889 -0.529167,15.13417 0.03528,17.07445 0.282224,0.84666 1.481667,1.41111 1.975557,0.91722 0.176387,-0.17639 0.14111,-1.37583 -0.105833,-2.75167 -0.423334,-2.78694 -0.211667,-11.7475 0.45861,-18.34444 0.211666,-2.32833 0.45861,-4.26861 0.49389,-4.30389 0.14111,-0.21167 4.26861,-0.88194 8.643053,-1.37583 4.868334,-0.56445 5.961947,-0.91723 5.291667,-1.72861 -0.529167,-0.635 -1.834444,-0.74084 -5.291667,-0.45862 z"
         inkscape:connector-curvature="0"
         style="stroke-width:0.03527778" />
      <path
         id="path21798"
         d="m -60.640862,250.11831 c -0.49389,0.49389 -0.49389,2.82222 0.07055,5.92667 0.35278,2.11666 0.458613,2.29305 1.27,2.29305 h 0.881946 l -0.105833,-3.88055 c -0.07056,-2.11667 -0.282223,-4.05695 -0.49389,-4.30389 -0.45861,-0.56445 -1.058333,-0.59973 -1.622777,-0.0353 z"
         inkscape:connector-curvature="0"
         style="stroke-width:0.03527778" />
      <path
         id="path21800"
         d="m 244.79412,207.53803 c -0.635,0.74084 -0.17637,1.5875 0.84667,1.5875 1.05833,0 1.41113,-0.45861 1.09363,-1.41111 -0.24696,-0.84667 -1.3053,-0.91722 -1.9403,-0.17639 z"
         inkscape:connector-curvature="0"
         style="stroke-width:0.03527778" />
      <path
         id="path21802"
         d="m 260.84552,207.50275 c -2.18723,0.98778 -3.70416,3.31612 -3.70416,5.67973 0,1.62277 1.7286,3.59833 3.38666,3.91583 1.62277,0.3175 4.51554,-1.09361 4.65667,-2.25778 0.1411,-0.81139 0.10583,-0.84666 -2.18723,-0.59972 -1.65804,0.17639 -2.46944,0.14111 -2.8575,-0.17639 -0.81137,-0.67028 -0.67027,-0.91722 0.84666,-1.37583 1.51694,-0.45861 3.56307,-2.50472 3.56307,-3.56306 0,-0.88194 -1.19946,-2.11666 -2.01083,-2.11666 -0.35277,0.0353 -1.09361,0.24694 -1.69334,0.49388 z"
         inkscape:connector-curvature="0"
         style="stroke-width:0.03527778" />
      <path
         id="path21804"
         d="m 234.70469,208.24359 c -0.35277,0.56444 -0.70557,2.2225 -0.91723,4.33916 -0.38804,4.37445 -0.4586,4.55084 -1.27,3.81 -0.9525,-0.84666 -1.7286,-0.70555 -2.32834,0.38806 l -0.52916,0.98778 -1.19944,-2.64584 c -0.67027,-1.44638 -1.4111,-3.31611 -1.62277,-4.1275 -0.45863,-1.69333 -1.62279,-2.36361 -2.36363,-1.34055 -0.38803,0.49389 -0.2822,1.02305 0.45863,3.10444 1.37584,3.81 2.18721,5.60917 3.13971,6.84389 0.98779,1.27 1.72863,1.44639 2.64583,0.59972 0.52917,-0.45861 0.8114,-0.49388 1.905,-0.14111 2.32834,0.77611 3.2103,-0.81139 3.5278,-6.35 0.10583,-1.83444 0.2822,-3.38666 0.38804,-3.4925 0.35279,-0.38805 0.84666,0.88195 0.84666,2.25778 0,2.29306 0.635,5.57389 1.19946,6.10306 0.74084,0.74083 1.97554,0.17639 2.54,-1.16417 0.67027,-1.65806 1.05834,-1.76389 2.29304,-0.74083 1.1289,0.98777 1.72863,1.12889 2.29307,0.59972 0.17639,-0.17639 0.9525,-0.38806 1.7286,-0.45861 1.5875,-0.10584 1.5875,-0.17639 0.9525,-3.56306 -0.35277,-1.94028 -0.7761,-2.46944 -1.69334,-2.29305 -0.56443,0.10583 -0.67026,0.45861 -0.67026,1.94027 0,0.98778 -0.10584,1.905 -0.24694,2.04612 -0.14113,0.14111 -0.77613,-0.17639 -1.37583,-0.70556 -1.16417,-0.9525 -2.32834,-1.05833 -3.91584,-0.35278 -0.52916,0.21167 -0.635,0.0706 -0.635,-0.91722 -0.0353,-2.92806 -1.27,-5.3975 -2.29306,-4.55083 -0.24694,0.21166 -0.52917,0.0705 -0.8114,-0.38806 -0.5997,-0.91722 -1.34054,-0.84667 -2.0461,0.21167 z"
         inkscape:connector-curvature="0"
         style="stroke-width:0.03527778" />
      <path
         id="path21806"
         d="m 305.75412,221.01414 c -0.28223,0.35278 -0.98776,1.48167 -1.51693,2.46945 -0.52917,1.02305 -1.37583,2.11666 -1.83446,2.39889 -0.67027,0.45861 -0.74084,0.67027 -0.45861,1.23472 0.1764,0.35278 0.35277,1.23472 0.35277,1.94028 0,1.72861 0.52917,2.61055 1.97557,3.21027 1.05833,0.45862 1.37583,0.42334 2.50473,-0.0353 1.48167,-0.635 1.8697,-1.05834 1.8697,-2.25778 0,-0.70556 -0.10583,-0.77611 -0.7761,-0.56445 -1.62277,0.49389 -3.0339,0.59973 -3.28083,0.21167 -0.42334,-0.70555 0.4586,-1.34055 2.11666,-1.5875 1.905,-0.3175 3.21027,-1.27 2.8575,-2.15194 -0.17639,-0.49389 -0.52916,-0.59973 -1.97556,-0.45861 -0.98777,0.10583 -1.76387,0.0353 -1.76387,-0.10584 0,-0.17639 0.42333,-1.09361 0.9525,-2.01083 0.9525,-1.69333 0.9525,-2.89278 0,-2.89278 -0.28223,0 -0.74083,0.28222 -1.02307,0.59972 z"
         inkscape:connector-curvature="0"
         style="stroke-width:0.03527778" />
      <path
         id="path21808"
         d="m 391.33802,221.86081 c -1.02306,1.12889 -1.51696,5.53861 -1.905,17.42722 -0.38806,11.53583 -0.88196,17.78 -2.29306,28.32806 -1.19944,8.89 -1.16417,15.98083 0.0706,14.74611 0.1411,-0.10584 0.35277,-1.76389 0.52917,-3.63361 0.2822,-3.24556 1.12887,-10.30111 2.2225,-19.33223 0.56443,-4.48027 1.0936,-13.08805 1.4111,-22.40138 0.1411,-3.59834 0.42333,-8.11389 0.635,-10.05417 l 0.42333,-3.52778 8.81944,-0.3175 c 11.88863,-0.42333 22.04863,0.0706 43.88556,2.25778 6.0325,0.56444 9.525,1.05833 10.4775,1.41111 0.4939,0.21167 2.54,0.35278 4.51557,0.35278 2.01083,0 4.16277,0.10583 4.79777,0.24694 l 1.16416,0.21167 -0.24693,5.32694 c -0.10583,2.92806 -0.38807,12.24139 -0.56446,20.67278 -0.17637,8.43139 -0.45861,16.61583 -0.67027,18.16806 -0.7761,6.38527 -2.25777,13.86416 -3.0339,15.59277 l -0.84667,1.86973 h -4.51553 c -4.97417,0 -8.89,-0.3175 -18.97947,-1.41111 -12.065,-1.30528 -25.57637,-2.54 -35.27777,-3.175 -3.28083,-0.21167 -7.58473,-0.59973 -9.525,-0.88195 -4.93889,-0.70555 -5.82083,-0.67028 -5.82083,0.14111 0,0.35278 0.21167,0.81139 0.4586,1.02306 0.88197,0.70555 8.07863,1.44639 20.1789,2.01083 5.08,0.24695 16.29833,1.23472 26.28194,2.29306 13.89946,1.48166 17.63889,1.76389 22.86,1.79916 6.10306,0 5.96196,0.0706 7.26723,-2.92805 0.8114,-1.86972 2.43416,-9.94834 3.06916,-15.27528 0.1764,-1.55222 0.4939,-9.48972 0.67027,-17.63889 0.21167,-8.14917 0.45863,-17.67417 0.56447,-21.20194 0.17637,-4.51556 0.10583,-6.59695 -0.1764,-7.12611 -0.8114,-1.51695 -2.3636,-1.97556 -7.09084,-2.01084 -2.43416,-0.0353 -6.45583,-0.3175 -8.99583,-0.635 -7.1614,-0.88194 -23.70667,-2.36361 -30.51527,-2.71639 -3.38666,-0.17638 -11.35946,-0.35277 -17.67416,-0.35277 -11.18307,0 -11.50057,0.0353 -12.17084,0.74083 z"
         inkscape:connector-curvature="0"
         style="stroke-width:0.03527778" />
      <path
         id="path21810"
         d="m 295.20606,224.29498 c -0.7761,0.42333 -1.44637,1.12889 -1.7286,1.83444 -0.24694,0.635 -0.74084,1.41111 -1.05834,1.69333 -0.4586,0.38806 -0.70556,1.65806 -1.02306,5.32695 -0.42333,4.30389 -0.38804,4.93889 0.10583,5.92666 0.3528,0.67028 0.84667,1.09362 1.27,1.09362 0.38807,0 0.70557,-0.10584 0.70557,-0.28223 0.28223,-6.42055 0.38806,-7.9375 0.52916,-8.18444 0.14111,-0.21167 0.4939,-0.17639 0.84667,0.0706 0.91723,0.56444 2.46944,-0.14112 4.2686,-1.86973 1.65807,-1.62277 2.15197,-3.38666 1.27,-4.72722 -1.0936,-1.65805 -3.10443,-2.01083 -5.18583,-0.88194 z m 3.3514,2.04611 c 0.35277,0.59972 -2.0461,2.50472 -3.0339,2.43416 -1.12887,-0.0705 -1.12887,-0.0705 -0.635,-0.9525 0.6703,-1.23472 3.2103,-2.2225 3.6689,-1.48166 z"
         inkscape:connector-curvature="0"
         style="stroke-width:0.03527778" />
      <path
         id="path21812"
         d="m 311.25746,225.42387 c -0.35277,0.67027 -0.59973,1.905 -0.59973,2.92805 0.0353,2.18722 1.16416,3.35139 3.31613,3.35139 1.34053,0 1.37583,0.0353 1.16416,0.9525 -0.8114,3.38667 -4.86833,8.39611 -6.0325,7.44361 -0.3175,-0.24694 -0.42333,-0.74083 -0.24696,-1.44639 0.28223,-1.27 -0.1411,-4.1275 -0.5997,-4.1275 -0.8114,0 -1.7639,3.13972 -1.65807,5.36222 0.10584,2.04611 0.1764,2.25778 1.0936,2.68111 2.36363,1.12889 6.49113,-1.83444 8.53724,-6.06777 1.55223,-3.28084 3.13973,-9.56028 2.64583,-10.4775 -0.56444,-1.02306 -1.62277,-0.81139 -2.11667,0.38805 -0.4939,1.19945 -2.25777,2.82223 -3.0339,2.82223 -0.7761,0 -0.98776,-0.9525 -0.56443,-2.39889 0.35277,-1.05834 0.3175,-1.37584 -0.1764,-1.905 -0.7761,-0.88195 -1.05833,-0.81139 -1.7286,0.49389 z"
         inkscape:connector-curvature="0"
         style="stroke-width:0.03527778" />
      <path
         id="path21814"
         d="m 249.73302,225.5297 c -0.635,0.74083 -0.1764,1.5875 0.88194,1.5875 0.4939,0 0.98779,-0.24695 1.09363,-0.52917 0.24693,-0.59972 -0.42334,-1.5875 -1.09363,-1.5875 -0.24694,0 -0.635,0.24695 -0.88194,0.52917 z"
         inkscape:connector-curvature="0"
         style="stroke-width:0.03527778" />
      <path
         id="path21816"
         d="m 270.33523,227.36414 c -0.74084,0.28223 -1.79917,0.91723 -2.36361,1.44639 -2.71639,2.57528 -2.64583,5.50334 0.10584,6.94972 2.2225,1.16417 6.87916,0.21167 6.87916,-1.41111 0,-0.67027 -0.21166,-0.70555 -2.82223,-0.59972 -2.2225,0.10583 -2.96333,0.0353 -3.28083,-0.38805 -0.38804,-0.45862 -0.1411,-0.635 1.72863,-1.27 2.57527,-0.84667 4.55083,-2.25778 4.55083,-3.24556 0,-0.35278 -0.3175,-0.98778 -0.70556,-1.37583 -0.8114,-0.81139 -2.01083,-0.81139 -4.09223,-0.10584 z"
         inkscape:connector-curvature="0"
         style="stroke-width:0.03527778" />
      <path
         id="path21818"
         d="m 284.44636,227.89331 -1.27,1.12889 -0.70557,-0.9525 c -0.7761,-1.05833 -1.7286,-1.23472 -2.3989,-0.45861 -0.21166,0.28222 -0.81137,0.56444 -1.34053,0.635 -0.8114,0.10583 -1.02307,0.38805 -1.5875,2.2225 -0.74084,2.43416 -0.6703,3.63361 0.21166,4.19805 0.84667,0.56445 1.7286,-0.0705 2.3636,-1.76389 0.91724,-2.32833 1.19944,-2.61055 1.41111,-1.19944 0.14113,1.09361 0.3175,1.23472 1.30529,1.34056 0.9525,0.10583 1.23471,-0.0706 1.94027,-1.12889 0.9525,-1.51695 1.19944,-1.55223 1.48167,-0.38806 0.28223,1.16417 1.4464,2.29306 2.29306,2.29306 0.9525,0 1.30527,-1.30528 0.59971,-2.08139 -0.3175,-0.35278 -0.56444,-1.09361 -0.56444,-1.65806 0,-1.37583 -0.70556,-2.64583 -1.69333,-2.99861 -0.59973,-0.24694 -1.05834,-0.0705 -2.0461,0.81139 z"
         inkscape:connector-curvature="0"
         style="stroke-width:0.03527778" />
      <path
         id="path21820"
         d="m 256.85912,227.71692 c -0.74083,0.28222 -1.5522,2.2225 -1.34053,3.13972 0.1411,0.49389 0.7761,1.12889 1.62277,1.55223 1.65806,0.84666 1.5875,1.34055 -0.35277,2.43416 -0.77613,0.42333 -1.41113,0.98778 -1.41113,1.23472 0,0.81139 0.98779,1.37584 1.97556,1.12889 1.34057,-0.35278 3.3161,-2.43416 3.3161,-3.4925 0,-1.02305 -1.5522,-3.06916 -2.32833,-3.06916 -0.70554,0 -0.5997,-0.84667 0.21167,-1.5875 1.1289,-1.02306 -0.10584,-1.97556 -1.69334,-1.34056 z"
         inkscape:connector-curvature="0"
         style="stroke-width:0.03527778" />
      <path
         id="path21822"
         d="m 176.35525,228.42248 c -6.84389,1.09361 -16.51001,3.77472 -18.06223,5.04472 -0.74083,0.59972 -0.77611,0.70555 -0.24694,1.23472 0.49389,0.49389 0.91722,0.42333 4.86834,-0.88194 2.39887,-0.81139 4.445,-1.37584 4.55083,-1.27 0.24694,0.24694 -0.56446,13.75833 -1.02306,16.93333 -0.52917,3.73944 0.7761,4.1275 1.79917,0.56444 0.42333,-1.37583 0.98776,-7.44361 1.34056,-13.93472 l 0.24694,-4.23333 3.38666,-0.74083 c 1.86973,-0.42334 4.2686,-1.05834 5.29167,-1.37584 1.69333,-0.56444 1.79917,-0.67028 1.19943,-1.09361 -0.635,-0.49389 -1.5522,-0.52917 -3.35137,-0.24694 z"
         inkscape:connector-curvature="0"
         style="stroke-width:0.03527778" />
      <path
         id="path21824"
         d="m 250.36802,229.6572 c -0.1411,0.42333 0.0353,2.32833 0.70557,7.69055 0.21166,1.65806 0.35277,1.94028 1.05833,2.04611 0.74083,0.10584 0.7761,0.0353 0.7761,-3.24555 0,-1.83444 -0.1764,-4.16278 -0.38806,-5.15056 -0.3175,-1.48166 -0.49387,-1.76388 -1.19944,-1.76388 -0.42333,0 -0.88193,0.21166 -0.9525,0.42333 z"
         inkscape:connector-curvature="0"
         style="stroke-width:0.03527778" />
      <path
         id="path21826"
         d="m 427.18023,240.20525 c -6.70277,0.635 -13.82887,2.46945 -14.04054,3.59834 -0.21167,1.05833 0.9525,1.09361 4.93887,0.10583 2.15196,-0.52917 3.95113,-0.91722 4.02167,-0.81139 0.0706,0.0706 -0.10584,1.69333 -0.38804,3.63361 -0.84667,5.50334 -1.19946,8.18445 -1.55223,11.60639 -0.21167,1.72861 -0.4586,3.66889 -0.59973,4.30389 -0.17637,0.88194 -0.0705,1.16417 0.52916,1.48167 0.635,0.35277 0.77613,0.24694 1.23473,-0.635 0.3175,-0.56445 0.77611,-3.13973 1.09361,-5.75028 0.70556,-6.27945 1.97556,-14.11111 2.36363,-14.605 0.38803,-0.52917 1.62276,-0.74083 6.27943,-1.19945 3.9511,-0.38805 4.86833,-0.77611 3.73944,-1.62277 -0.77611,-0.52917 -2.78694,-0.56445 -7.62,-0.10584 z"
         inkscape:connector-curvature="0"
         style="stroke-width:0.03527778" />
      <path
         id="path21828"
         d="m 497.62996,243.83886 c -0.67027,0.67028 -1.02307,3.70417 -1.05834,9.13695 -0.0353,4.86833 0.4939,6.59694 1.97557,6.59694 1.5522,0 2.25777,-1.51694 0.88193,-1.94027 -0.74083,-0.24695 -0.74083,-0.3175 -0.52916,-6.87917 0.1764,-5.3975 0.1411,-6.70278 -0.24694,-7.02028 -0.38806,-0.3175 -0.59973,-0.28222 -1.02306,0.10583 z"
         inkscape:connector-curvature="0"
         style="stroke-width:0.03527778" />
      <path
         id="path21830"
         d="m 517.27969,243.83886 c -0.10583,0.28223 -0.14113,3.4925 -0.0706,7.09084 0.10584,6.0325 0.1764,6.63222 0.77611,7.09083 0.91723,0.635 2.18723,0.635 2.46946,-0.0353 0.1411,-0.38805 0.70554,-0.52916 1.97554,-0.52916 2.46946,0 2.32833,-0.74084 -0.42334,-2.18723 -3.06916,-1.5875 -3.06916,-2.2225 -0.21166,-4.23333 1.65806,-1.16417 2.25779,-1.76389 2.32833,-2.50472 0.14113,-1.19945 -0.42333,-1.23472 -2.43417,-0.0706 -0.84666,0.49389 -1.65803,0.88195 -1.79916,0.88195 -0.17637,0 -0.28221,-1.05834 -0.28221,-2.32834 0,-1.27 -0.1764,-2.61055 -0.35279,-2.99861 -0.42334,-0.77611 -1.69334,-0.88194 -1.97554,-0.17639 z"
         inkscape:connector-curvature="0"
         style="stroke-width:0.03527778" />
      <path
         id="path21832"
         d="m 538.34052,244.65025 c -0.21166,0.74084 -0.38806,2.18723 -0.38806,3.175 0,1.72861 -0.0706,1.86973 -0.84667,1.86973 -0.91723,0 -3.13973,1.65805 -3.3514,2.46944 -0.88193,3.45722 -0.635,5.99722 0.6703,6.70278 1.2347,0.67028 2.75167,0.38805 3.98637,-0.67028 1.16417,-1.02306 1.16417,-1.02306 2.01083,-0.35278 1.09363,0.81139 2.5753,0.84667 3.2103,0.10584 0.42333,-0.52917 0.35277,-0.67028 -0.38807,-1.16417 -2.29306,-1.48167 -2.46943,-2.18722 -1.5875,-5.85611 0.74084,-2.99861 0.67027,-4.30389 -0.35276,-6.06778 -0.6703,-1.12889 -1.1289,-1.51694 -1.7639,-1.51694 -0.67027,0 -0.91723,0.24694 -1.19944,1.30527 z m -0.10583,8.39611 c 0.0705,0.67028 -0.21167,1.51695 -0.70557,2.29306 -0.91723,1.34056 -1.51693,1.65806 -1.79916,0.9525 -0.24694,-0.635 0.35277,-3.42194 0.88193,-4.05694 0.635,-0.77612 1.51697,-0.35278 1.6228,0.81138 z"
         inkscape:connector-curvature="0"
         style="stroke-width:0.03527778" />
      <path
         id="path21834"
         d="m 486.55273,244.43859 c -2.32834,0.28222 -4.33917,1.12889 -4.33917,1.83444 0,0.21167 0.42333,2.15195 0.88196,4.30389 0.49387,2.11667 1.12887,5.3975 1.44637,7.23194 0.8114,4.86834 0.8114,4.93889 1.34057,4.93889 0.24693,0 0.67027,-0.24694 0.91723,-0.52916 0.24693,-0.28223 0.74083,-0.52917 1.12887,-0.52917 0.6703,0 2.50473,-0.81139 4.09223,-1.79917 0.4586,-0.28222 1.1289,-1.09361 1.51694,-1.83444 0.81139,-1.55222 0.52916,-3.175 -0.91721,-5.29167 l -0.84666,-1.30528 0.67026,-1.48166 c 0.98777,-2.15195 0.91724,-3.52778 -0.21166,-4.65667 -0.52917,-0.49389 -1.19944,-0.9525 -1.51694,-0.9525 -0.3175,-0.0353 -0.88196,-0.0705 -1.27,-0.10583 -0.38806,-0.0353 -1.69333,0.0353 -2.89279,0.17639 z m 4.1275,2.96333 c 0,0.70556 -0.3175,1.86972 -0.70554,2.64583 -0.9525,1.86973 -0.91723,2.25778 0.52917,3.66889 1.19943,1.23472 1.5875,2.64584 0.9525,3.59834 -0.4939,0.77611 -2.99863,2.25777 -3.81,2.25777 -0.70557,0 -0.84667,-0.17639 -0.84667,-1.16416 -0.0353,-1.09361 -1.79917,-9.38389 -2.29307,-10.51278 -0.10583,-0.35278 -0.0353,-0.70556 0.1764,-0.84667 0.49387,-0.28222 3.28084,-0.77611 4.86834,-0.84666 1.05833,-0.0353 1.12887,0.0353 1.12887,1.19944 z"
         inkscape:connector-curvature="0"
         style="stroke-width:0.03527778" />
      <path
         id="path21836"
         d="m 174.66192,245.88498 c -0.59973,0.59972 0.1411,1.34055 1.4111,1.34055 1.02307,0 3.10444,0.88195 3.10444,1.30528 0,0.10583 -0.7761,1.05833 -1.76387,2.04611 -1.79917,1.94028 -2.32834,3.13972 -1.97557,4.51556 0.35277,1.51694 3.21027,2.18722 4.72723,1.09361 1.12887,-0.77611 0.42334,-1.55223 -1.37583,-1.55223 -1.905,0 -1.79917,-0.74083 0.42333,-3.175 0.9525,-1.05833 1.83444,-2.29305 1.94027,-2.75166 0.24694,-0.91722 -0.52916,-1.97556 -2.0461,-2.75167 -1.16417,-0.59972 -3.88056,-0.635 -4.445,-0.0705 z"
         inkscape:connector-curvature="0"
         style="stroke-width:0.03527778" />
      <path
         id="path21838"
         d="m 527.08689,251.10609 c -2.3636,1.72861 -3.175,3.98639 -1.905,5.50333 1.3053,1.62278 3.175,1.97556 5.1153,0.98778 1.0936,-0.56445 1.65804,-1.09361 1.65804,-1.62278 0,-0.14111 -1.05834,-0.28222 -2.36361,-0.35278 -2.89276,-0.14111 -3.3161,-0.88194 -0.84666,-1.48166 1.905,-0.45862 3.06916,-1.83445 2.7164,-3.175 -0.3175,-1.34056 -2.43417,-1.27 -4.37447,0.14111 z"
         inkscape:connector-curvature="0"
         style="stroke-width:0.03527778" />
      <path
         id="path21840"
         d="m 503.80356,251.31775 c -0.42333,0.28223 -1.0936,1.16417 -1.48167,1.905 -1.27,2.50473 -0.7761,4.93889 1.23473,5.89139 1.16417,0.56445 1.30527,0.56445 2.46944,0 2.36363,-1.12889 3.4925,-5.11528 1.86973,-6.59694 -0.4586,-0.42334 -1.05833,-0.9525 -1.37583,-1.23472 -0.70557,-0.67028 -1.7286,-0.67028 -2.7164,0.0353 z m 2.2578,4.30389 c -0.74084,1.44639 -1.27,1.72861 -1.86974,0.9525 -0.635,-0.88194 -0.59973,-1.34055 0.28224,-2.39889 0.70553,-0.91722 0.74083,-0.91722 1.4111,-0.28222 0.67027,0.635 0.70556,0.74083 0.1764,1.72861 z"
         inkscape:connector-curvature="0"
         style="stroke-width:0.03527778" />
      <path
         id="path21842"
         d="m 512.02329,251.31775 c -0.28223,0.3175 -0.88193,1.19945 -1.27,2.01084 -1.4111,2.71639 -0.24693,5.53861 2.2225,5.53861 1.30527,0 2.9986,-0.9525 3.21027,-1.83445 0.24696,-0.88194 -0.1411,-1.02305 -1.65804,-0.59972 -0.70556,0.17639 -1.4464,0.24695 -1.62279,0.14111 -0.635,-0.38805 -0.38804,-1.79916 0.52916,-3.175 0.9878,-1.44639 0.91723,-2.64583 -0.17637,-2.64583 -0.35279,0 -0.91723,0.24694 -1.23473,0.56444 z"
         inkscape:connector-curvature="0"
         style="stroke-width:0.03527778" />
      <path
         id="path21846"
         d="m 428.30912,257.17386 c 0.0706,0.67028 0.56444,0.9525 2.3989,1.55223 l 2.29304,0.70555 -1.51694,0.98778 c -1.94026,1.19944 -1.86973,2.04611 0.28224,3.66889 0.88193,0.67028 1.5875,1.37583 1.5875,1.5875 0,0.38805 -1.19947,0.88194 -3.88057,1.62278 -2.11667,0.56444 -2.54,0.91722 -1.97556,1.5875 0.91723,1.09361 5.43279,0.28222 7.37306,-1.37584 1.34057,-1.12889 1.16417,-2.64583 -0.4939,-3.98639 -0.67027,-0.52916 -1.19943,-1.12888 -1.19943,-1.30527 0.0353,-0.21167 0.52916,-0.67028 1.16416,-1.05834 0.70557,-0.45861 1.16417,-1.05833 1.23474,-1.65805 0.10583,-0.81139 -0.14113,-1.02306 -2.0814,-2.01084 -1.4464,-0.74083 -2.7164,-1.09361 -3.73944,-1.09361 -1.41113,0 -1.55223,0.0706 -1.4464,0.77611 z"
         inkscape:connector-curvature="0"
         style="stroke-width:0.03527778" />
      <path
         id="path21848"
         d="m 591.04552,264.5822 c -1.02306,2.54 -2.29306,7.76111 -2.29306,9.48972 0,2.18722 0.635,2.68111 3.4925,2.75167 2.75166,0.0353 4.23333,-0.74084 5.11527,-2.75167 0.56446,-1.23472 0.56446,-1.44639 0.10583,-2.39889 -0.3175,-0.56444 -0.81137,-1.23472 -1.0936,-1.48167 -0.4939,-0.42333 -0.42334,-0.635 0.67027,-1.83444 1.41113,-1.5875 1.37583,-1.41111 0.81139,-2.61056 -0.52916,-1.16416 -3.35139,-2.64583 -5.00943,-2.64583 -1.09363,0 -1.23473,0.14111 -1.79917,1.48167 z m 3.4925,1.19944 c 0.7761,0.28222 0.70554,0.9525 -0.1764,1.76389 -1.23473,1.12889 -1.44639,1.79917 -0.88193,2.89278 0.2822,0.56444 0.7761,1.19944 1.05833,1.44639 1.27,1.05833 0.0353,2.8575 -1.97556,2.8575 -1.5875,0 -1.7639,-0.91722 -0.8114,-4.40972 0.24696,-0.98778 0.6703,-2.43417 0.88196,-3.28084 0.38804,-1.44639 0.7761,-1.69333 1.905,-1.27 z"
         inkscape:connector-curvature="0"
         style="stroke-width:0.03527778" />
      <path
         id="path21850"
         d="m 546.59552,264.79386 c -1.62279,1.02306 -3.52779,3.31612 -4.23333,5.15056 -1.19946,3.13972 0.0705,8.32556 2.43417,9.77194 1.44637,0.88195 3.73943,0.88195 4.9036,-0.0353 0.4939,-0.38806 1.02306,-0.70556 1.23473,-0.70556 0.17637,0 0.5997,0.3175 0.9525,0.70556 0.74083,0.84666 1.69333,0.91722 2.29304,0.17639 0.35279,-0.42334 0.24696,-0.70556 -0.49387,-1.62278 -1.05834,-1.23472 -1.1289,-2.15195 -0.38807,-3.95111 0.28223,-0.70556 0.52917,-2.29306 0.52917,-3.52778 0,-2.99861 -1.1289,-4.83306 -3.6336,-5.85611 -2.11667,-0.88195 -2.2578,-0.91722 -3.59834,-0.10584 z m 4.93887,2.68112 c 1.37584,2.08138 0.9525,5.00944 -0.7761,5.22111 -0.9525,0.10583 -0.98777,0.17639 -0.98777,1.97555 0,2.32834 -1.05833,3.70417 -2.78696,3.52778 -2.32833,-0.21167 -3.52777,-5.3975 -1.97554,-8.32556 1.23471,-2.29305 1.62277,-2.64583 2.78694,-2.43416 0.67027,0.14111 1.16416,0.0353 1.4464,-0.28222 0.635,-0.77612 1.69333,-0.635 2.29303,0.3175 z"
         inkscape:connector-curvature="0"
         style="stroke-width:0.03527778" />
      <path
         id="path21854"
         d="m 577.35773,267.93359 c -0.14111,0.10583 -0.24694,0.77611 -0.24694,1.41111 0,1.905 -1.97556,5.3975 -3.06917,5.3975 -0.35276,0 -0.4586,-0.70556 -0.4586,-2.82222 0,-2.25778 -0.10583,-2.89278 -0.56446,-3.06917 -0.84667,-0.3175 -1.19944,0.3175 -1.65804,2.8575 -0.35279,2.15194 -0.3175,2.50472 0.28221,3.66889 1.5875,2.92805 4.40973,2.18722 6.45583,-1.69334 1.23473,-2.39888 1.48167,-4.55083 0.56446,-5.43277 -0.59973,-0.59973 -0.9525,-0.70556 -1.30529,-0.3175 z"
         inkscape:connector-curvature="0"
         style="stroke-width:0.03527778" />
      <path
         id="path21856"
         d="m 582.15552,268.7097 c -2.7164,1.97555 -3.56306,4.23333 -2.50473,6.59694 0.88194,1.905 4.19807,2.61056 6.2089,1.34056 1.2347,-0.81139 0.42333,-1.55222 -1.69333,-1.55222 -1.02307,0 -1.83447,-0.21167 -2.11667,-0.49389 -0.56446,-0.70556 -0.3175,-2.18723 0.35277,-2.01084 2.46943,0.635 3.56306,0.42334 4.40973,-0.88194 0.67027,-1.05833 0.49387,-2.29306 -0.52917,-3.31611 -0.98779,-0.98778 -2.46946,-0.88195 -4.1275,0.3175 z m 3.06917,1.41111 c 0,0.17639 -0.21167,0.45861 -0.45863,0.67028 -0.52917,0.45861 -1.48167,-0.0353 -1.16417,-0.59973 0.28223,-0.45861 1.6228,-0.52916 1.6228,-0.0705 z"
         inkscape:connector-curvature="0"
         style="stroke-width:0.03527778" />
      <path
         id="path21858"
         d="m 565.85719,269.3447 c -0.84667,0.70555 -2.01083,1.94028 -2.54,2.68111 l -1.02307,1.41111 0.21167,-2.08139 c 0.1764,-1.72861 0.10584,-2.18722 -0.35277,-2.57528 -0.84666,-0.70555 -1.23473,-0.17639 -1.79916,2.61056 -0.8114,3.84528 -2.29307,5.32694 -2.29307,2.29305 0,-1.94027 -0.67027,-3.24555 -1.55223,-3.10444 -0.67027,0.10583 -0.74083,0.3175 -0.635,2.57528 0.1764,3.38666 0.88196,4.58611 2.75167,4.58611 1.30529,0 1.41113,-0.0706 2.36363,-1.94028 0.52916,-1.05833 1.12887,-2.01083 1.30526,-2.04611 0.21167,-0.0706 0.35277,0.49389 0.35277,1.27 0,2.46944 2.46947,3.63361 4.97417,2.36361 1.27,-0.67028 1.02306,-1.23472 -0.56444,-1.23472 -1.79916,0 -2.29306,-0.3175 -2.29306,-1.48167 0,-1.02305 0.0353,-1.05833 1.37583,-0.81139 1.69334,0.28223 2.64584,-0.17639 3.38667,-1.5875 0.70556,-1.37583 0.6703,-2.92805 -0.10583,-3.63361 -0.98777,-0.88194 -1.86971,-0.70555 -3.56304,0.70556 z m 1.905,1.83444 c -0.10583,0.42334 -0.45863,0.74084 -0.74083,0.74084 -0.635,0 -0.635,-0.3175 0.10583,-1.12889 0.70554,-0.77611 0.9525,-0.59973 0.635,0.38805 z"
         inkscape:connector-curvature="0"
         style="stroke-width:0.03527778" />
      <path
         id="path21860"
         d="m 503.23912,269.3447 c -0.24693,0.56444 -0.67026,1.86972 -0.88193,2.92805 -0.59973,2.78695 -1.83446,6.6675 -2.18723,6.87917 -0.1411,0.10583 -0.52917,-0.28222 -0.84667,-0.88194 -0.635,-1.27 -0.98777,-1.30528 -1.97556,-0.3175 -0.98777,0.98777 -1.23471,0.56444 -1.55221,-2.46945 -0.42333,-4.26861 -0.52916,-4.65667 -1.37583,-4.55083 -0.635,0.10583 -0.74083,0.35278 -0.84667,2.32833 -0.10583,2.50472 0.70554,6.24417 1.62277,7.23195 0.38807,0.45861 0.91723,0.59972 1.7286,0.52916 0.635,-0.0705 1.16417,0 1.16417,0.14111 0,0.14111 0.52917,0.49389 1.16417,0.77611 1.55223,0.635 2.25779,0.21167 3.31613,-2.18722 0.84666,-1.86972 2.57527,-9.10166 2.57527,-10.65389 0,-1.05833 -1.30527,-0.88194 -1.90501,0.24695 z"
         inkscape:connector-curvature="0"
         style="stroke-width:0.03527778" />
      <path
         id="path21862"
         d="m 506.59052,269.52109 c -0.1764,0.45861 -0.42333,1.905 -0.56446,3.28083 -0.1411,1.34056 -0.4586,3.63361 -0.74083,5.08 -0.38804,1.94028 -0.38804,2.71639 -0.10584,3.06917 0.74084,0.88194 2.01084,0.56444 3.0339,-0.74084 1.16417,-1.44639 1.37583,-1.51694 1.7286,-0.45861 0.56447,1.76389 2.18723,2.25778 3.10447,0.91722 0.52916,-0.74083 0.56443,-0.74083 1.2347,-0.14111 1.27,1.16417 1.65806,0.56445 1.65806,-2.46944 -0.0353,-2.57528 -0.10583,-2.78695 -0.81139,-2.89278 -0.9525,-0.14111 -1.55221,0.88195 -1.62277,2.8575 -0.0706,1.79917 -0.88194,2.01083 -1.5875,0.42333 -1.0936,-2.50472 -1.79917,-3.06916 -2.92807,-2.36361 -0.38803,0.24695 -0.7761,0.42334 -0.84666,0.35278 -0.0705,-0.0705 -0.0353,-1.65805 0.10583,-3.56305 0.1764,-2.11667 0.14113,-3.56306 -0.0705,-3.77473 -0.59973,-0.59972 -1.27,-0.38805 -1.5875,0.42334 z"
         inkscape:connector-curvature="0"
         style="stroke-width:0.03527778" />
      <path
         id="path21864"
         d="m 519.64329,269.23886 c -0.21167,0.24695 -0.4939,2.11667 -0.59973,4.16278 -0.2822,4.1275 -0.0705,4.86834 1.72863,5.92667 1.34054,0.84667 2.39887,0.88194 3.7747,0.17639 0.9525,-0.49389 1.1289,-0.49389 2.18723,0.17639 1.94027,1.19944 6.27944,0.84666 6.27944,-0.49389 0,-0.635 -0.7761,-0.91722 -2.6811,-0.91722 -1.69334,0 -2.96334,-0.88195 -2.96334,-2.08139 0,-0.88195 0.635,-1.30528 1.16417,-0.77611 0.91723,0.91722 4.05694,0.0353 4.83307,-1.34056 1.16416,-2.25778 -0.635,-3.63361 -3.70417,-2.82222 -2.7164,0.74083 -4.7625,2.96333 -4.7625,5.22111 0,0.88194 -0.1764,1.05833 -1.05833,1.27 -0.6703,0.14111 -1.3053,0.0705 -1.6228,-0.21167 -1.0936,-0.91722 -1.2347,-1.65805 -0.81137,-4.72722 0.35277,-2.36361 0.3175,-3.06917 -0.0353,-3.52778 -0.52916,-0.67028 -1.19943,-0.67028 -1.7286,-0.0353 z"
         inkscape:connector-curvature="0"
         style="stroke-width:0.03527778" />
      <path
         id="path21866"
         d="m 513.85773,270.72053 c -0.49387,0.52917 -0.21167,1.51695 0.49389,1.72861 0.98777,0.3175 1.65807,-0.35278 1.16417,-1.16416 -0.42333,-0.67028 -1.27,-0.9525 -1.65806,-0.56445 z"
         inkscape:connector-curvature="0"
         style="stroke-width:0.03527778" />
      <path
         id="path21868"
         d="m 171.94552,285.04331 c -0.10583,0.24694 -0.56443,2.50472 -1.05833,4.97417 -1.7286,8.81944 -1.55223,18.27388 0.52917,28.82195 2.46943,12.48833 4.93889,19.15583 9.13693,24.80027 4.1628,5.57389 11.6064,8.74889 21.87223,9.31333 l 4.19807,0.21167 0.1411,2.25776 c 0.21167,3.175 0.67027,3.5278 3.10444,2.36363 2.29306,-1.09363 5.04473,-3.38666 6.03249,-4.97416 0.45863,-0.74084 0.6703,-1.5875 0.59974,-2.46947 -0.0706,-1.0936 -0.42334,-1.5522 -1.94027,-2.8222 -1.905,-1.51696 -4.7978,-2.64583 -6.0325,-2.32833 -0.84667,0.21166 -1.34057,1.37583 -1.69334,3.7747 l -0.24696,1.72863 -4.2686,-0.21167 c -7.86694,-0.3175 -13.75833,-2.32833 -17.78,-6.0325 -4.05694,-3.73946 -7.51417,-11.07723 -9.73667,-20.67279 -2.2225,-9.59554 -2.78693,-13.93471 -2.82223,-21.16666 -0.0353,-5.78555 0.10583,-7.65528 0.8114,-11.81805 0.4939,-2.75167 0.7761,-5.25639 0.635,-5.57389 -0.24694,-0.70556 -1.27,-0.81139 -1.48167,-0.17639 z m 42.545,67.45112 c -0.74083,0.70553 -0.7761,0.70553 -0.52916,0.0353 0.38806,-1.1289 0.98776,-1.72861 1.12889,-1.23474 0.10584,0.24697 -0.17639,0.77613 -0.59973,1.19947 z"
         inkscape:connector-curvature="0"
         style="stroke-width:0.03527778" />
      <path
         id="path21870"
         d="m 554.67412,288.04192 c -0.3175,0.35278 -0.88193,1.27 -1.23473,2.08139 -0.38803,0.81139 -0.88193,1.65805 -1.16416,1.86972 -0.635,0.52917 -0.635,4.05695 0,5.67972 0.81139,2.01084 3.56306,2.82223 5.36223,1.55223 1.02306,-0.70556 0.9525,-2.15195 -0.10584,-1.94028 -0.38806,0.0705 -1.27,0.14111 -1.94026,0.17639 -1.19947,0.0353 -1.23474,0 -1.34057,-1.41111 l -0.10583,-1.44639 1.65806,-0.21167 c 1.905,-0.21167 2.96334,-0.98778 2.32834,-1.76389 -0.24697,-0.28222 -0.8114,-0.42333 -1.4464,-0.3175 -1.4111,0.21167 -1.5875,-0.3175 -0.70557,-2.15194 1.1289,-2.29306 0.24697,-3.66889 -1.30527,-2.11667 z"
         inkscape:connector-curvature="0"
         style="stroke-width:0.03527778" />
      <path
         id="path21872"
         d="m 500.41689,288.11248 c -0.10583,0.14111 0.0353,0.56444 0.28223,0.9525 0.42334,0.52916 0.56444,0.56444 1.05834,0.17638 0.84666,-0.70555 0.70556,-1.44638 -0.28223,-1.44638 -0.49387,0 -0.9525,0.14111 -1.05834,0.3175 z"
         inkscape:connector-curvature="0"
         style="stroke-width:0.03527778" />
      <path
         id="path21874"
         d="m 422.41773,291.04053 c -0.77611,0.42333 -2.29304,1.65806 -3.38667,2.78695 -1.0936,1.09361 -2.29304,2.08138 -2.64583,2.15194 -1.83444,0.35278 -0.38804,2.54 1.94029,2.92806 0.81137,0.14111 1.44637,0.28222 1.44637,0.38805 0,0.0706 -0.84666,1.65806 -1.905,3.56306 -1.02303,1.905 -3.06916,5.67971 -4.48027,8.39611 -4.97416,9.41916 -11.39473,18.2386 -18.90889,25.92916 -14.53444,14.9225 -28.92777,21.48417 -47.13111,21.51944 -6.1736,0 -10.4775,-0.42334 -16.47473,-1.62277 -2.43416,-0.4939 -4.79777,-0.9525 -5.29166,-0.98777 -0.74084,-0.10583 -0.91721,-0.3175 -0.98777,-1.3053 -0.10584,-1.5522 -1.4111,-12.73526 -1.69334,-14.8872 -0.21166,-1.5875 -0.21166,-1.65806 0.67027,-1.65806 1.23473,0 2.01084,-0.35277 2.01084,-0.88194 0,-0.6703 -3.35137,-1.16417 -11.1125,-1.5875 -3.88054,-0.21167 -9.2075,-0.52917 -11.81804,-0.70556 -6.59696,-0.42334 -37.04167,-0.42334 -48.15417,0 -5.04473,0.17639 -12.73527,0.4586 -17.07443,0.56443 -9.63084,0.3175 -9.27807,0.14113 -9.91307,4.58613 -0.70556,4.83304 0.70557,29.56277 1.7286,30.58583 0.56447,0.56444 24.90613,0.88194 34.21944,0.45861 4.55083,-0.21167 7.19667,-0.1764 7.83167,0.0353 0.56446,0.21167 1.16416,0.24697 1.51696,0.0353 0.3175,-0.1764 6.59693,-0.28223 14.78137,-0.21167 11.6064,0.0705 14.3228,0.21167 14.9578,0.59971 0.56443,0.38806 0.88193,0.42333 1.2347,0.10583 0.3528,-0.2822 1.905,-0.2822 5.7503,-0.0705 6.985,0.42334 11.35943,0.42334 12.94693,0 1.7639,-0.49389 2.0461,-1.55223 2.25777,-8.53723 0.10583,-4.3039 0.28223,-5.715 0.59973,-5.60916 7.7611,2.32833 11.85333,2.89276 21.97807,2.89276 7.33776,0 8.60776,-0.10583 12.55887,-0.88193 10.12473,-2.0461 19.72029,-6.70277 28.50446,-13.86417 4.2686,-3.45723 12.73527,-12.41777 16.51,-17.4625 5.715,-7.69056 7.47887,-10.51277 12.48833,-20.03777 4.23334,-8.00806 4.51554,-8.46667 5.43277,-8.46667 0.4939,0 1.37583,0.24694 1.94027,0.56444 0.88196,0.45862 1.16417,0.45862 1.6228,0.0706 0.4586,-0.38806 0.52916,-1.09361 0.35277,-4.55083 -0.10584,-2.25778 -0.35277,-4.445 -0.56444,-4.86834 -0.52917,-0.9525 -1.86973,-0.9525 -3.73946,0.0353 z m -155.61027,46.91943 c 0.10583,0.84667 0.52916,3.81 0.91723,6.63224 0.38804,2.82223 1.0936,7.40833 1.5875,10.16 0.84667,4.97416 1.76387,13.75833 1.48167,14.07583 -0.10584,0.0706 -2.92807,0.24693 -6.35,0.35277 l -6.17361,0.21166 -0.21166,-3.1397 c -0.14113,-1.72863 -0.52917,-5.7503 -0.91723,-8.96056 -0.35277,-3.21027 -0.77611,-7.1614 -0.88194,-8.81944 -0.21167,-2.5753 -0.56446,-5.2564 -1.41113,-10.4775 l -0.21167,-1.16417 5.7503,-0.10583 c 3.17497,-0.0353 5.8561,-0.14113 5.96194,-0.1764 0.1411,-0.0353 0.3175,0.59973 0.4586,1.4111 z m 15.16943,-0.70553 c 0.10584,0.4586 0.21167,1.30527 0.21167,1.94027 0,0.59973 0.38806,3.38666 0.88196,6.1736 0.4586,2.78696 1.19944,8.60779 1.5875,12.98223 0.42334,4.37443 0.88194,8.53723 1.02304,9.24277 l 0.3175,1.34056 h -6.4911 c -5.92667,0 -6.4911,-0.0353 -6.4911,-0.635 -0.0353,-2.2225 -1.16417,-11.67693 -1.905,-15.94556 -0.4939,-2.82221 -1.05834,-6.70277 -1.27,-8.64304 -0.21167,-1.9403 -0.56447,-4.19806 -0.74084,-5.04473 -0.1764,-0.84667 -0.24696,-1.69333 -0.14113,-1.86973 0.14113,-0.17637 2.99863,-0.3175 6.49113,-0.3175 6.24417,0 6.31471,0 6.52637,0.77613 z m 13.3703,-0.52917 c 2.25777,0.21167 2.3636,0.24694 2.3636,1.12887 0,0.4939 0.24694,2.01083 0.52917,3.38667 0.9525,4.65666 3.175,20.42583 3.4925,25.11779 l 0.21166,2.92804 -3.59833,-0.0353 c -2.01083,-0.0353 -5.15056,-0.1411 -6.985,-0.28223 l -3.3514,-0.21167 -0.21166,-1.44637 c -0.14111,-0.77613 -0.59971,-5.00946 -1.02304,-9.41916 -0.38807,-4.37447 -1.02307,-9.80723 -1.41113,-12.065 -0.38804,-2.2578 -0.7761,-5.29167 -0.9172,-6.73807 l -0.24697,-2.61056 h 4.37447 c 2.39887,0 5.43277,0.10583 6.77333,0.24696 z m 15.31054,0.635 c 0.24696,0.10583 0.35279,0.35277 0.24696,0.635 -0.10583,0.2822 0.3175,2.8575 0.9172,5.75027 1.51697,7.3025 1.97557,10.58333 2.64584,18.37973 0.28223,3.73944 0.635,7.05554 0.77613,7.37304 0.21166,0.56446 -0.24697,0.56446 -5.29167,0.35279 -4.3039,-0.21166 -5.53863,-0.17639 -5.53863,0.17637 0,0.24697 -0.0705,0.3528 -0.17637,0.24697 -0.10583,-0.10584 -0.28223,-1.7639 -0.38807,-3.6689 -0.21166,-3.81 -1.79916,-16.0514 -2.9986,-23.07167 -0.38806,-2.43416 -0.8114,-4.9389 -0.91723,-5.5739 l -0.1764,-1.12887 5.22113,0.21167 c 2.89277,0.10583 5.46804,0.24694 5.67971,0.3175 z m -57.46748,4.65667 c 0.42334,2.6811 0.91721,6.77333 1.12887,9.10166 0.21167,2.32834 0.59974,5.89137 0.88197,7.9375 0.2822,2.04611 0.56443,5.11527 0.5997,6.87917 l 0.10583,3.175 -5.715,0.10583 -5.75026,0.0705 v -4.93883 c 0,-2.92806 -0.28224,-6.87917 -0.67027,-9.77196 -0.38807,-2.6811 -0.8114,-6.70277 -0.91723,-8.92527 -0.14111,-2.2225 -0.4939,-4.9036 -0.74084,-5.92667 -0.28223,-1.02306 -0.4939,-1.94027 -0.4939,-2.01083 0,-0.1764 3.31613,-0.35277 7.7964,-0.4586 l 3.0339,-0.0706 z m -13.22916,-2.2578 c 0.3175,1.02307 0.67027,3.73946 0.7761,6.0678 0.1411,2.32833 0.4586,5.75027 0.74083,7.5847 0.84667,5.50333 1.16417,9.80723 0.9525,12.94696 l -0.21166,2.96334 -5.5739,-0.10584 c -3.03387,-0.0706 -5.64444,-0.21166 -5.78554,-0.35279 -0.74083,-0.74084 -1.72863,-26.8111 -1.1289,-29.63334 l 0.28223,-1.30526 4.30387,-0.10584 c 2.36363,-0.0706 4.4803,-0.0706 4.69197,0 0.21166,0.0706 0.635,0.91723 0.9525,1.94027 z m 80.22164,-1.69333 c 0.45863,0.14113 0.635,1.05833 1.51696,8.99583 0.70554,6.10307 0.9525,18.0975 0.49387,21.55473 l -0.21167,1.55223 h -2.43416 -2.43417 l -0.17637,-3.70416 c -0.1764,-3.6689 -1.05833,-13.12334 -1.4464,-15.52223 -0.67027,-4.19807 -2.43417,-11.9239 -2.89277,-12.62944 l -0.52916,-0.84667 3.84527,0.24694 c 2.11666,0.1411 4.02166,0.28223 4.2686,0.35277 z"
         inkscape:connector-curvature="0"
         style="stroke-width:0.03527778" />
      <path
         id="path21876"
         d="m 543.34996,291.46386 c -0.91723,0.77612 -0.98777,1.02306 -1.05834,4.1275 -0.0706,1.83445 -0.24693,4.65667 -0.42333,6.31473 -0.42333,3.4925 -0.1411,5.3975 0.8114,5.57387 0.9172,0.1764 1.27,-0.52916 1.27,-2.78693 0,-3.59833 0.24693,-4.19805 2.08137,-4.97417 1.97556,-0.84666 3.06917,-1.79916 3.95113,-3.52777 1.5522,-2.99861 0.17637,-4.7625 -4.1628,-5.36223 -1.2347,-0.17638 -1.65803,-0.0705 -2.46943,0.635 z m 4.2686,1.83445 c 0.9525,0.35278 0.635,1.905 -0.635,3.175 -1.76387,1.76389 -2.2225,1.5875 -2.39887,-0.77611 -0.0353,-1.05834 0.0353,-2.08139 0.24693,-2.29306 0.35277,-0.35278 1.94027,-0.42333 2.78694,-0.10583 z"
         inkscape:connector-curvature="0"
         style="stroke-width:0.03527778" />
      <path
         id="path21878"
         d="m 520.24302,292.76914 c -1.41113,1.51695 -1.69333,2.04611 -1.7639,3.28084 -0.10583,2.46944 0.10584,4.19805 0.635,5.22111 0.52917,0.98777 2.11667,2.04611 3.13974,2.04611 0.70553,0 2.71637,-1.02306 3.06916,-1.55222 0.7761,-1.16417 -0.35279,-1.69334 -1.86973,-0.88195 -1.02306,0.52917 -1.97556,0.0706 -2.3989,-1.16417 -0.74083,-2.08138 -0.56443,-2.39888 1.19947,-2.39888 2.08137,0 3.38666,-0.70556 4.23333,-2.25778 1.2347,-2.25778 -0.1764,-4.09222 -3.13973,-4.09222 -1.23473,0 -1.62277,0.21166 -3.10444,1.79916 z m 4.48027,0.67028 c 0.3175,0.52917 -1.1289,1.76389 -2.11667,1.76389 -1.0936,0 -1.16416,-0.81139 -0.10583,-1.55222 0.88194,-0.635 1.905,-0.74084 2.2225,-0.21167 z"
         inkscape:connector-curvature="0"
         style="stroke-width:0.03527778" />
      <path
         id="path21880"
         d="m 561.23579,292.27525 c -1.4464,0.49389 -1.905,2.92806 -0.8114,4.55084 0.3175,0.49389 1.16417,1.19944 1.905,1.5875 l 1.34057,0.67027 -0.67027,1.94028 c -1.83446,5.32695 -4.72723,7.47889 -7.3025,5.46806 -1.19946,-0.9525 -1.51696,-0.88194 -1.51696,0.24693 0.0353,1.65807 0.84666,2.32833 2.92806,2.50473 1.4111,0.10584 2.2225,-0.0353 3.28083,-0.56443 2.78694,-1.4464 3.6689,-2.8928 6.49111,-10.90084 1.23473,-3.56306 1.41113,-4.445 1.05833,-4.86834 -0.88194,-1.05833 -1.7286,-0.59972 -2.64583,1.41111 -0.45861,1.05834 -1.09361,2.04612 -1.41111,2.15195 -0.9525,0.38805 -1.5875,-0.52917 -1.5875,-2.36361 0,-1.76389 -0.17639,-2.08139 -1.05833,-1.83445 z"
         inkscape:connector-curvature="0"
         style="stroke-width:0.03527778" />
      <path
         id="path21882"
         d="m 500.84023,292.66331 c -0.91721,0.17639 -1.09361,1.44639 -0.88194,6.06778 0.1764,4.33916 0.59973,5.75027 1.5875,5.57389 0.52917,-0.10584 0.59973,-0.74084 0.59973,-5.85612 0,-3.4925 -0.14113,-5.75027 -0.35279,-5.82083 -0.17637,-0.0705 -0.635,-0.0705 -0.9525,0.0353 z"
         inkscape:connector-curvature="0"
         style="stroke-width:0.03527778" />
      <path
         id="path21884"
         d="m 531.81412,293.22775 c -0.49389,0.56445 -1.05833,0.84667 -1.37583,0.70556 -0.88193,-0.3175 -1.5875,1.19944 -1.83443,3.95111 -0.28224,2.89278 0.1411,4.1275 1.34053,3.95111 0.52917,-0.0705 1.05834,-0.67028 1.69334,-2.01083 l 0.91723,-1.94028 0.38806,1.12889 c 0.28221,0.88194 0.59971,1.12889 1.27,1.12889 0.74084,0 1.12887,-0.38806 2.01084,-1.94028 0.5997,-1.05833 1.2347,-1.83444 1.4111,-1.72861 0.1764,0.10583 0.3175,0.81139 0.3175,1.55222 0,1.72861 0.635,3.175 1.4111,3.175 1.16417,0 1.3053,-0.74083 0.91723,-4.40972 -0.38806,-3.35139 -0.42333,-3.52778 -1.34056,-3.84528 -0.84667,-0.28222 -1.16417,-0.17639 -2.39887,0.81139 -0.8114,0.635 -1.48167,1.09361 -1.55224,1.05833 -0.0353,-0.0705 -0.21166,-0.635 -0.42333,-1.19944 -0.4586,-1.41111 -1.62277,-1.5875 -2.75167,-0.38806 z"
         inkscape:connector-curvature="0"
         style="stroke-width:0.03527778" />
      <path
         id="path21886"
         d="m 505.70856,293.4747 c -0.49387,0.38805 -0.9172,1.09361 -0.9172,1.51694 0,0.98778 1.37583,2.43417 2.8222,3.03389 0.59973,0.24695 1.05833,0.56445 1.05833,0.67028 0,0.42333 -1.905,2.04611 -3.10443,2.64583 -1.19944,0.635 -1.30527,1.12889 -0.35277,1.72861 1.76387,1.12889 6.56167,-3.21027 5.78554,-5.22111 -0.10584,-0.3175 -0.91721,-0.88194 -1.79917,-1.27 -1.97554,-0.88194 -2.25777,-1.51694 -1.27,-2.57528 0.38806,-0.42333 0.74083,-0.88194 0.74083,-1.02305 0,-0.52917 -2.08137,-0.21167 -2.96333,0.49389 z"
         inkscape:connector-curvature="0"
         style="stroke-width:0.03527778" />
      <path
         id="path21890"
         d="m 249.73302,311.36053 c -0.3175,0.1411 -1.48166,0.9525 -2.61056,1.83443 -3.45721,2.61057 -6.0325,7.37307 -6.42054,11.7828 -0.28223,2.89277 0.7761,4.97417 3.03387,6.10304 2.32833,1.19946 4.37446,1.09363 7.19667,-0.38804 l 2.29306,-1.19946 0.70557,1.19946 c 0.4586,0.7761 0.98777,1.19944 1.48166,1.19944 0.81137,0 0.81137,-0.52917 -0.0706,-2.75167 -0.38807,-0.91723 -0.38807,-1.34057 0,-2.29307 1.30527,-3.21026 1.55223,-4.23333 1.69333,-7.3025 0.1764,-2.78693 0.0706,-3.59833 -0.4586,-4.7272 -1.23473,-2.54 -4.83306,-4.33917 -6.8439,-3.45723 z m 3.38667,2.92806 c 0.67027,0.38804 1.37583,1.02304 1.55223,1.37584 0.4586,0.88193 0.4586,5.11527 -0.0353,6.8086 -0.35276,1.30527 -0.38803,1.34056 -1.02303,0.7761 -0.38807,-0.35277 -0.91723,-0.52917 -1.27,-0.38804 -0.4939,0.17637 -0.56447,0.56444 -0.3528,2.50471 l 0.21167,2.25779 -1.83444,1.09361 c -2.96333,1.69333 -5.96193,1.27 -7.1614,-1.05834 -1.83443,-3.52777 1.5875,-10.9361 6.17363,-13.37027 1.65804,-0.88196 2.32834,-0.88196 3.73944,0 z"
         inkscape:connector-curvature="0"
         style="stroke-width:0.03527778" />
      <path
         id="path21892"
         d="m 299.43939,316.58163 c -2.08137,5.46807 -2.71637,13.89946 -1.02303,13.89946 0.38803,0 1.05833,0.38804 1.5522,0.88194 0.77613,0.7761 1.09363,0.84667 2.3989,0.67027 3.42193,-0.49387 5.99723,-2.9986 5.43277,-5.25637 -0.14111,-0.52917 -0.70554,-1.41113 -1.30527,-1.97557 -0.56444,-0.52916 -1.02307,-1.05833 -1.02307,-1.16416 0,-0.10584 0.56447,-0.91724 1.23473,-1.83444 2.18724,-2.82223 1.37584,-4.65667 -2.39889,-5.3975 -4.62137,-0.91723 -4.445,-0.91723 -4.86834,0.17637 z m 5.92667,2.36363 c 0.42333,0.38804 0.24696,0.7761 -1.12887,2.43417 -1.97557,2.43416 -2.01083,3.175 -0.1764,4.37443 0.7761,0.52917 1.4111,1.19944 1.4111,1.51694 0,1.05833 -2.01083,2.64583 -3.28083,2.61056 -2.57527,-0.10583 -2.54,-0.0706 -2.43417,-3.13973 0.10584,-2.57527 0.9525,-7.65527 1.37584,-8.3961 0.28223,-0.42333 3.66889,0.0353 4.23333,0.59973 z"
         inkscape:connector-curvature="0"
         style="stroke-width:0.03527778" />
      <path
         id="path21894"
         d="m 265.14939,322.26136 c -0.1411,0.10584 -0.24693,0.84667 -0.24693,1.5875 0,2.2225 -2.46944,6.27944 -3.81,6.27944 -0.42334,0 -0.4586,-0.38804 -0.24694,-2.2225 0.4586,-3.88054 0.42334,-4.62137 -0.24693,-4.7625 -0.84667,-0.17637 -1.65807,1.5875 -1.905,4.1275 -0.3175,2.92806 0,3.84529 1.48166,4.48029 1.44637,0.59971 2.11664,0.35277 4.12748,-1.55223 1.94029,-1.86973 3.21029,-5.75027 2.50473,-7.62 -0.21167,-0.56443 -1.23473,-0.7761 -1.65807,-0.3175 z"
         inkscape:connector-curvature="0"
         style="stroke-width:0.03527778" />
      <path
         id="path21896"
         d="m 270.01773,323.53136 c -2.43417,1.37584 -3.91584,4.55084 -3.03387,6.45584 0.9172,2.01083 5.18583,3.06916 6.4911,1.62276 0.7761,-0.88193 0.4586,-1.12887 -1.4111,-1.12887 -1.97557,0 -2.92807,-0.49389 -2.92807,-1.55223 0,-0.70556 0.1411,-0.8114 1.16417,-0.7761 1.5875,0.10583 2.96333,-0.42333 3.77473,-1.4464 0.9525,-1.19943 0.88193,-2.0814 -0.1764,-3.10443 -1.05833,-1.09363 -2.0461,-1.09363 -3.88056,-0.0706 z m 2.64583,1.79917 c 0,0.56443 -2.01083,1.48167 -2.39887,1.0936 -0.3175,-0.2822 1.2347,-1.5875 1.905,-1.5875 0.2822,0 0.49387,0.21167 0.49387,0.4939 z"
         inkscape:connector-curvature="0"
         style="stroke-width:0.03527778" />
      <path
         id="path21898"
         d="m 280.74219,325.25996 c -1.09363,2.2225 -2.29307,3.81 -2.8575,3.81 -0.42333,0 -0.3528,-2.0461 0.10583,-2.8575 0.49387,-0.9525 0.0705,-2.08137 -0.77613,-2.08137 -1.65803,0 -2.32833,4.55084 -0.9172,6.20887 0.70554,0.8114 0.98777,0.91724 2.11667,0.70557 1.62276,-0.3175 2.89276,-1.79917 4.16277,-4.86833 0.98776,-2.3989 0.98776,-3.10444 -0.0706,-3.10444 -0.4586,0 -0.98777,0.67027 -1.76387,2.1872 z"
         inkscape:connector-curvature="0"
         style="stroke-width:0.03527778" />
      <path
         id="path21900"
         d="m 286.24552,323.67246 c -1.55223,0.8114 -2.29306,1.55224 -3.0339,2.99863 -1.55223,3.03387 -0.38806,5.53861 2.7164,5.82084 1.905,0.1411 2.82221,-0.24697 2.50471,-1.09363 -0.14111,-0.35277 -0.635,-0.56444 -1.41111,-0.56444 -1.34056,0 -2.50473,-0.98777 -2.29306,-2.01083 0.10583,-0.52917 0.42333,-0.59973 1.79917,-0.52917 4.33916,0.28223 6.91446,-2.11666 4.65666,-4.33916 -1.02303,-1.05834 -3.28083,-1.16417 -4.93887,-0.28224 z m 3.56304,1.5875 c 0.3528,0.56447 -0.88194,1.34057 -2.2225,1.34057 -1.34054,0 -1.48167,-0.42333 -0.38804,-1.19944 0.91721,-0.67029 2.25777,-0.74083 2.61054,-0.14113 z"
         inkscape:connector-curvature="0"
         style="stroke-width:0.03527778" />
    </g>
  </g>
</svg>
