<?xml version="1.0" encoding="UTF-8" standalone="no"?>
<!-- Created with Inkscape (http://www.inkscape.org/) -->

<svg
   xmlns:dc="http://purl.org/dc/elements/1.1/"
   xmlns:cc="http://creativecommons.org/ns#"
   xmlns:rdf="http://www.w3.org/1999/02/22-rdf-syntax-ns#"
   xmlns:svg="http://www.w3.org/2000/svg"
   xmlns="http://www.w3.org/2000/svg"
   xmlns:sodipodi="http://sodipodi.sourceforge.net/DTD/sodipodi-0.dtd"
   xmlns:inkscape="http://www.inkscape.org/namespaces/inkscape"
   width="148.11902mm"
   height="15.507086mm"
   viewBox="0 0 148.11902 15.507086"
   version="1.1"
   id="svg8819"
   inkscape:version="0.92.5 (2060ec1f9f, 2020-04-08)"
   sodipodi:docname="fpps.svg">
  <defs
     id="defs8813" />
  <sodipodi:namedview
     id="base"
     pagecolor="#ffffff"
     bordercolor="#666666"
     borderopacity="1.0"
     inkscape:pageopacity="0.0"
     inkscape:pageshadow="2"
     inkscape:zoom="0.35"
     inkscape:cx="-508.66148"
     inkscape:cy="-242.12384"
     inkscape:document-units="mm"
     inkscape:current-layer="layer1"
     showgrid="false"
     fit-margin-top="0"
     fit-margin-left="0"
     fit-margin-right="0"
     fit-margin-bottom="0"
     inkscape:window-width="1920"
     inkscape:window-height="1080"
     inkscape:window-x="1920"
     inkscape:window-y="0"
     inkscape:window-maximized="0" />
  <metadata
     id="metadata8816">
    <rdf:RDF>
      <cc:Work
         rdf:about="">
        <dc:format>image/svg+xml</dc:format>
        <dc:type
           rdf:resource="http://purl.org/dc/dcmitype/StillImage" />
        <dc:title></dc:title>
      </cc:Work>
    </rdf:RDF>
  </metadata>
  <g
     inkscape:label="Layer 1"
     inkscape:groupmode="layer"
     id="layer1"
     transform="translate(-31.773827,-69.264315)">
    <g
       id="g9467"
       transform="matrix(0.5,0,0,0.5,157.2381,2.6011908)">
      <path
         id="path1300"
         d="m -244.10885,133.47237 c -0.17639,0.0353 -1.51695,0.45861 -2.89278,0.88194 -2.92806,0.84667 -2.64583,0.3175 -3.4925,6.35 -0.42333,3.03389 -0.52917,5.25639 -0.35278,8.81945 0.28222,6.45583 0.9525,8.60777 2.18722,7.33777 0.38806,-0.38805 0.42334,-0.84666 0.14112,-2.36361 -0.52917,-2.78694 -0.45862,-8.21972 0.10583,-9.03111 0.28222,-0.35278 1.51694,-0.88194 2.92805,-1.23472 1.55223,-0.38806 2.46945,-0.81139 2.54,-1.16417 0.17639,-0.77611 -1.79916,-1.09361 -3.66888,-0.59972 -0.88195,0.24695 -1.65806,0.38806 -1.72862,0.28222 -0.24694,-0.24694 0.74084,-5.57389 1.12889,-5.96194 0.17639,-0.17639 1.41111,-0.67028 2.75167,-1.12889 1.94028,-0.67028 2.50472,-0.98778 2.57528,-1.5875 0.10583,-0.635 -0.0353,-0.77611 -0.88195,-0.74083 -0.52916,0 -1.12889,0.0706 -1.34055,0.14111 z"
         inkscape:connector-curvature="0"
         style="stroke-width:0.03527778" />
      <path
         id="path1304"
         d="m -213.38191,138.30542 c -0.14111,0.45861 -0.3175,2.46945 -0.45861,4.51556 -0.21167,4.16278 -0.49389,4.97416 -1.48167,4.69194 -1.09361,-0.28222 -3.81,1.12889 -4.40972,2.32834 -0.9525,1.79916 -0.74083,3.45722 0.635,4.83305 1.5875,1.5875 3.21028,1.62278 4.90361,0.14111 1.37584,-1.19944 1.72861,-1.27 2.36361,-0.52916 0.56445,0.67027 2.82223,0.70555 2.82223,0.0706 0,-0.24695 -0.38806,-0.81139 -0.88195,-1.23473 -1.37583,-1.19944 -1.69333,-2.36361 -1.27,-4.83305 0.21167,-1.44639 0.21167,-3.42195 -0.0705,-6.35 -0.38806,-3.88056 -0.49389,-4.23334 -1.16417,-4.33917 -0.52916,-0.0705 -0.81139,0.14111 -0.98777,0.70556 z m -0.56444,11.71222 c 0,1.34056 -1.30528,3.4925 -2.2225,3.66889 -0.91723,0.17639 -1.65806,-0.56444 -1.65806,-1.69333 0,-0.81139 0.3175,-1.19944 1.69333,-2.04611 0.91723,-0.59972 1.76389,-1.09361 1.94028,-1.09361 0.14111,-0.0353 0.24695,0.49389 0.24695,1.16416 z"
         inkscape:connector-curvature="0"
         style="stroke-width:0.03527778" />
      <path
         id="path1308"
         d="m -124.62302,139.11681 c -2.15194,0.9525 -3.81,3.70417 -2.50472,4.1275 0.3175,0.10583 0.3175,0.98778 0,3.52778 -0.52917,4.69194 -0.49389,7.76111 0.10583,8.60778 0.91722,1.19944 1.41111,0.0706 1.62278,-3.4925 l 0.17639,-3.24556 1.41111,-0.21167 c 0.77611,-0.10583 1.79917,-0.38805 2.25778,-0.635 1.09361,-0.59972 1.44639,-0.0706 1.44639,2.32834 0,2.01083 0.17639,2.25778 1.23472,1.86972 0.52917,-0.17639 0.81139,-0.74083 1.05833,-2.29306 0.38806,-2.18722 0.59972,-2.43416 2.92806,-2.99861 1.12889,-0.28222 1.48166,-0.52916 1.41111,-0.98777 -0.0706,-0.45862 -0.56445,-0.635 -2.11667,-0.70556 -1.12889,-0.0706 -2.36361,0.0706 -2.75166,0.28222 -0.67028,0.35278 -0.70556,0.28222 -0.70556,-1.12889 0,-4.55083 -2.18722,-6.52638 -5.57389,-5.04472 z m 3.13972,2.18722 c 0.21167,0.56445 0.45861,1.5875 0.56445,2.29306 0.24694,1.72861 -1.09361,3.21028 -2.82222,3.03389 l -1.12889,-0.10584 0.10583,-2.46944 c 0.10583,-1.97555 0.24694,-2.61055 0.84667,-3.10444 1.05833,-0.88195 2.01083,-0.74084 2.43416,0.35277 z"
         inkscape:connector-curvature="0"
         style="stroke-width:0.03527778" />
      <path
         id="path1312"
         d="m -30.325523,139.6107 c -2.08139,0.9525 -3.70417,2.75167 -3.70417,4.09222 0,1.44639 0.77612,2.11667 3.4925,3.03389 1.86973,0.635 2.18723,0.84667 2.08139,1.48167 -0.10583,0.84666 -2.50472,2.15194 -4.65666,2.54 -1.19945,0.24694 -1.27,0.21166 -1.48167,-0.84667 -0.14111,-0.59972 -0.3175,-1.09361 -0.45861,-1.09361 -0.84667,0.0353 -1.94028,1.83444 -1.62278,2.78694 0.635,2.04612 5.85611,1.44639 9.06639,-1.05833 1.5875,-1.23472 2.04611,-1.27 2.04611,-0.21167 0,2.01084 3.10444,2.96334 5.57389,1.69334 0.81139,-0.42334 1.905,-0.74084 2.46944,-0.74084 0.59973,0 1.34056,-0.35277 1.83445,-0.88194 0.45861,-0.49389 1.02305,-0.88194 1.23472,-0.88194 0.21167,0 0.635,0.38805 0.88194,0.88194 0.49389,0.91722 1.86973,1.19944 2.32834,0.49389 0.10583,-0.21167 -0.0353,-0.88195 -0.3175,-1.48167 -0.3175,-0.635 -0.635,-1.41111 -0.77611,-1.79916 -0.14111,-0.52917 -0.42334,-0.635 -1.62278,-0.45862 l -1.44639,0.17639 0.21167,-1.09361 c 0.10583,-0.635 0.38805,-1.94028 0.59972,-2.89278 0.70555,-2.99861 0.45861,-4.19805 -0.67028,-3.49249 -0.635,0.38805 -0.9525,1.27 -2.18722,6.13833 -1.30528,5.25639 -0.98778,4.7625 -3.175,4.65666 -1.05833,-0.0706 -2.08139,-0.28222 -2.29306,-0.45861 -0.49389,-0.49389 0.21167,-1.44639 1.51695,-2.08139 0.59972,-0.28222 1.12889,-0.81138 1.12889,-1.16416 0,-1.09361 -2.57528,-0.81139 -3.98639,0.45861 l -1.23472,1.05833 -0.38806,-0.98778 c -0.49389,-1.12888 -1.30528,-1.72861 -3.73944,-2.57527 -3.10445,-1.09361 -2.36361,-2.68111 1.86972,-4.05695 2.89278,-0.91722 3.175,-1.69333 0.59972,-1.79916 -1.09361,-0.0353 -2.29306,0.17639 -3.175,0.56444 z"
         inkscape:connector-curvature="0"
         style="stroke-width:0.03527778" />
      <path
         id="path1314"
         d="m 5.7989166,140.2457 c -0.21166,0.56445 -0.59972,1.79917 -0.84666,2.82222 -0.74084,2.8575 -1.05834,3.24556 -2.39889,3.06917 -1.37583,-0.21167 -3.73945,1.05833 -4.37445,2.32833 -0.81138,1.5875 -0.56444,3.13972 0.635,4.26861 1.48167,1.37584 2.96334,1.37584 4.55084,-0.0353 0.67027,-0.56444 1.62277,-1.02305 2.08139,-1.05833 0.74083,0 0.81138,-0.14111 0.67027,-1.34056 -0.10583,-0.84666 0.17639,-2.32833 0.84667,-4.26861 1.37583,-4.09222 1.34056,-6.73805 -0.10583,-6.73805 -0.42334,0 -0.84667,0.38805 -1.05834,0.9525 z m -2.08138,8.18444 c 0,0.35278 -0.35278,1.16417 -0.81139,1.83445 -1.41111,2.11667 -3.63361,1.55222 -2.89278,-0.74083 0.45861,-1.44639 3.70417,-2.43417 3.70417,-1.09362 z"
         inkscape:connector-curvature="0"
         style="stroke-width:0.03527778" />
      <path
         id="path1316"
         d="m 18.357807,142.43292 c -1.02306,1.51695 -2.61056,5.78556 -2.64583,6.94972 0,0.42334 0.1764,1.23473 0.38807,1.86973 0.3175,0.88194 0.56443,1.09361 1.16416,1.02305 0.4586,-0.0706 0.70554,-0.3175 0.59971,-0.635 -0.42334,-1.83444 0.0353,-4.19805 1.37583,-6.985 0.77613,-1.62277 1.3053,-3.10444 1.19946,-3.28083 -0.38806,-0.67028 -1.23473,-0.24694 -2.0814,1.05833 z"
         inkscape:connector-curvature="0"
         style="stroke-width:0.03527778" />
      <path
         id="path1318"
         d="m -157.60774,142.53876 c -0.28223,0.635 -0.67028,1.94027 -0.91723,2.89277 -0.24694,0.9525 -0.67027,2.18723 -0.91722,2.71639 -0.38805,0.74084 -0.42333,1.23472 -0.17639,1.905 0.21167,0.52917 0.35278,1.37584 0.35278,1.86972 0,1.37584 0.81139,2.39889 1.86972,2.36362 1.37584,-0.0705 2.99861,-0.88195 3.59834,-1.79917 0.81138,-1.23472 0.35277,-1.65806 -1.12889,-1.02306 -1.76389,0.74084 -2.2225,0.67028 -2.2225,-0.35277 0,-0.59973 0.3175,-1.02306 1.05833,-1.41112 1.09361,-0.56444 1.44639,-1.5875 0.56444,-1.5875 -0.24694,0 -0.67027,-0.24694 -0.91722,-0.52916 -0.35278,-0.42334 -0.28222,-0.98778 0.28222,-2.8575 0.38806,-1.30528 0.635,-2.57528 0.52917,-2.82222 -0.35278,-0.91723 -1.48167,-0.52917 -1.97555,0.635 z"
         inkscape:connector-curvature="0"
         style="stroke-width:0.03527778" />
      <path
         id="path1320"
         d="m -73.823023,142.22126 c -0.21167,0.24694 -0.70555,1.19944 -1.09361,2.11666 -0.74083,1.69334 -2.46944,3.03389 -2.75167,2.11667 -0.35277,-0.98778 -1.62277,-2.2225 -2.32833,-2.2225 -1.09361,0 -2.43417,0.98778 -3.84528,2.8575 -0.98778,1.27 -1.27,2.04611 -1.44639,3.77472 -0.14111,1.19945 -0.35277,3.13972 -0.45861,4.30389 -0.21166,2.01083 -0.21166,2.11667 0.52917,2.11667 0.59972,0 0.84667,-0.38806 1.34055,-2.11667 0.42334,-1.62278 0.74084,-2.15194 1.30528,-2.29306 0.42334,-0.0706 1.16417,-0.21166 1.65806,-0.3175 1.44639,-0.3175 2.75166,-1.55222 3.175,-3.06916 0.59972,-1.97556 0.98778,-1.69334 0.77611,0.56444 -0.24695,2.29306 0.42333,3.35139 2.08139,3.35139 1.09361,0 3.10444,-0.88194 3.52778,-1.55222 0.56444,-0.81139 0.21166,-0.9525 -1.65806,-0.74083 -1.86972,0.24694 -1.94028,0.21166 -1.94028,-0.56445 0,-1.27 0.52917,-1.83444 2.01084,-2.25778 1.62277,-0.45861 1.94027,-1.41111 0.635,-1.72861 -0.81139,-0.21166 -0.91723,-0.38805 -0.74084,-1.19944 0.14111,-0.52917 0.56445,-1.37584 0.9525,-1.94028 0.38806,-0.52917 0.59972,-1.12889 0.49389,-1.30528 -0.3175,-0.49389 -1.79917,-0.42333 -2.2225,0.10584 z m -5.78555,4.19805 c 0.70555,0.70556 0.49388,2.61056 -0.35278,3.59833 -1.02306,1.12889 -2.64584,1.5875 -2.96334,0.81139 -0.35277,-0.91722 0.52917,-3.35139 1.51695,-4.09222 1.05833,-0.84667 1.23472,-0.88194 1.79917,-0.3175 z"
         inkscape:connector-curvature="0"
         style="stroke-width:0.03527778" />
      <path
         id="path1322"
         d="m -241.07496,143.84403 c -0.49389,0.88195 -0.14111,1.79917 0.67027,1.79917 0.81139,0 1.51695,-0.84667 1.34056,-1.65806 -0.17639,-0.91722 -1.55222,-1.02305 -2.01083,-0.14111 z"
         inkscape:connector-curvature="0"
         style="stroke-width:0.03527778" />
      <path
         id="path1324"
         d="m -163.49913,143.84403 c 0,0.91723 0.59972,1.27 1.23472,0.74084 0.81139,-0.67028 0.635,-1.41111 -0.35278,-1.41111 -0.635,0 -0.88194,0.17638 -0.88194,0.67027 z"
         inkscape:connector-curvature="0"
         style="stroke-width:0.03527778" />
      <path
         id="path1326"
         d="m -194.1908,143.77348 c -1.02305,0.42333 -2.8575,2.01083 -3.31611,2.89278 -0.635,1.19944 -0.59972,13.54666 0.0353,14.18166 0.81139,0.81139 1.16417,-0.0706 1.16417,-2.96333 0,-3.91583 0.21167,-4.48028 1.41111,-4.48028 3.10445,0 5.67972,-5.67972 4.05695,-8.81944 -0.45862,-0.84667 -0.77612,-1.05834 -1.69334,-1.02306 -0.59972,0 -1.37583,0.10583 -1.65805,0.21167 z m 1.76389,4.69194 c -0.42333,1.62278 -2.54,4.09222 -3.175,3.70417 -0.17639,-0.10583 -0.35278,-1.19945 -0.35278,-2.43417 0,-1.94028 0.10584,-2.29305 0.98778,-3.10444 0.52917,-0.49389 1.27,-1.05834 1.65806,-1.27 0.59972,-0.3175 0.74083,-0.24695 0.98777,0.59972 0.21167,0.59972 0.14111,1.55222 -0.10583,2.50472 z"
         inkscape:connector-curvature="0"
         style="stroke-width:0.03527778" />
      <path
         id="path1328"
         d="m -68.460803,144.0557 c -0.28222,0.74083 0.14111,1.23472 1.12889,1.23472 0.67028,0 0.84667,-0.17639 0.84667,-0.88194 0,-0.70556 -0.17639,-0.88195 -0.88195,-0.88195 -0.49388,0 -0.98777,0.24695 -1.09361,0.52917 z"
         inkscape:connector-curvature="0"
         style="stroke-width:0.03527778" />
      <path
         id="path1330"
         d="m -182.37274,144.58487 c -0.14111,0.24694 -0.10584,0.56444 0.10583,0.77611 0.49389,0.49389 2.01083,0.21166 2.01083,-0.42334 0,-0.635 -1.76389,-0.91722 -2.11666,-0.35277 z"
         inkscape:connector-curvature="0"
         style="stroke-width:0.03527778" />
      <path
         id="path1332"
         d="m 22.238377,144.58487 c -0.14113,0.24694 -0.10583,0.56444 0.10583,0.77611 0.49387,0.49389 1.5875,0.0706 1.4111,-0.52917 -0.21166,-0.56444 -1.19943,-0.74083 -1.51693,-0.24694 z"
         inkscape:connector-curvature="0"
         style="stroke-width:0.03527778" />
      <path
         id="path1334"
         d="m -188.4758,145.43153 c -0.17639,0.21167 -0.59972,1.62278 -0.91722,3.10445 -0.77611,3.28083 -0.52917,4.86833 0.67028,4.86833 1.12889,0 1.23472,-0.28222 1.51694,-3.63361 l 0.24695,-2.89278 1.19944,-0.10583 c 1.37583,-0.14111 2.96333,-1.05833 2.64583,-1.51695 -0.28222,-0.45861 -5.00944,-0.3175 -5.36222,0.17639 z"
         inkscape:connector-curvature="0"
         style="stroke-width:0.03527778" />
      <path
         id="path1336"
         d="m -101.12802,146.70153 c -0.70555,0.38806 -1.55222,1.05834 -1.83444,1.48167 -0.77611,1.09361 -0.70556,2.96333 0.17639,4.19806 0.59972,0.84666 0.9525,1.02305 2.18722,1.02305 2.504717,0 2.928047,-0.88194 0.776107,-1.5875 -1.411107,-0.49389 -1.728607,-1.94028 -0.423327,-1.94028 0.458607,0 1.552217,-0.24694 2.363607,-0.52916 0.81139,-0.28223 1.5875,-0.52917 1.69333,-0.52917 0.0706,0 0.0706,0.70556 -0.0353,1.5875 -0.14111,0.84667 -0.14111,1.79917 -0.0353,2.11667 0.3175,0.84666 1.62278,0.635 2.43417,-0.38806 0.67028,-0.84667 0.81139,-0.88194 1.51695,-0.45861 0.59972,0.38806 0.98777,0.38806 1.83444,0.0706 0.91722,-0.35278 1.09361,-0.3175 1.41111,0.28222 0.42333,0.77611 1.51695,0.88195 2.01083,0.21167 0.17639,-0.21167 0.24695,-1.37583 0.14112,-2.54 -0.17639,-1.83444 -0.3175,-2.11667 -0.98778,-2.2225 -0.42334,-0.0706 -1.12889,0.0706 -1.51695,0.28222 -0.635,0.35278 -0.91722,0.28222 -1.62277,-0.38805 -0.77612,-0.74084 -0.88195,-0.74084 -1.69334,-0.17639 -1.37583,0.88194 -3.31611,0.74083 -4.16278,-0.3175 -0.84666,-1.09361 -2.36361,-1.12889 -4.233327,-0.17639 z"
         inkscape:connector-curvature="0"
         style="stroke-width:0.03527778" />
      <path
         id="path1338"
         d="m -7.8183034,146.70153 c -1.34055,0.81139 -1.86972,1.69334 -1.86972,3.13973 0,1.83444 1.37583,2.64583 4.26861,2.43416 1.12889,-0.0706 1.5875,-0.28222 1.65806,-0.74083 0.10583,-0.42333 -0.17639,-0.67028 -0.9525,-0.81139 -1.37584,-0.28222 -1.37584,-0.635 -0.0706,-1.41111 1.34056,-0.77611 1.5875,-1.76389 0.70556,-2.64583 -0.84667,-0.84667 -2.29306,-0.84667 -3.73945,0.0353 z"
         inkscape:connector-curvature="0"
         style="stroke-width:0.03527778" />
      <path
         id="path1340"
         d="m 26.365877,146.80737 c -0.74083,0.81139 -1.79917,4.30389 -1.37583,4.69194 0.38803,0.38806 1.65803,-0.28222 2.8575,-1.51694 0.67026,-0.70556 1.34053,-1.16417 1.5875,-1.02306 0.21166,0.14111 0.38803,0.9525 0.38803,1.83445 0,1.44638 0.0706,1.5875 0.77613,1.48166 0.67027,-0.0706 0.84667,-0.42333 1.0936,-2.01083 0.21167,-1.48167 0.14111,-2.08139 -0.3175,-2.75167 -0.4586,-0.74083 -0.74083,-0.84666 -1.79916,-0.635 -0.88194,0.14111 -1.4111,0.0706 -1.83444,-0.3175 -0.56446,-0.52916 -0.67029,-0.49389 -1.37583,0.24695 z"
         inkscape:connector-curvature="0"
         style="stroke-width:0.03527778" />
      <path
         id="path1342"
         d="m 38.677807,146.94848 -0.74083,0.98778 -0.67027,-0.81139 c -0.77613,-0.91723 -1.4464,-0.98778 -2.82223,-0.28223 -1.94027,1.02306 -2.32833,3.42195 -0.84667,5.15056 0.88194,1.05833 0.91724,1.19944 0.42334,2.01083 -0.3175,0.56445 -1.30527,1.23473 -2.75167,1.79917 -1.69333,0.67028 -2.96333,1.55222 -4.83306,3.31611 -3.63361,3.45722 -3.84527,5.22111 -0.59971,5.22111 1.62277,0 4.48027,-1.02305 6.20887,-2.2225 0.52917,-0.35278 1.37584,-1.48166 1.86973,-2.46944 1.55224,-3.10445 1.48167,-3.06917 6.13834,-3.06917 2.9986,0 4.2686,-0.14111 4.79777,-0.49389 1.19946,-0.91722 0.10583,-1.27 -4.02167,-1.34055 -4.55083,-0.10584 -4.83304,-0.38806 -2.75167,-2.64584 1.7639,-1.97555 3.175,-4.97416 2.64584,-5.60916 -0.59971,-0.74084 -1.23471,-0.59973 -2.04611,0.45861 z m -2.2225,1.5875 c 0.59974,0.59972 0.52917,1.09361 -0.3175,2.01083 -0.56443,0.59972 -0.84666,0.70556 -1.23473,0.35278 -0.67027,-0.52917 -0.635,-1.34056 0.10584,-2.15195 0.67029,-0.74083 0.88196,-0.77611 1.44639,-0.21166 z m -4.16276,9.41916 c 0,1.34056 -3.42197,4.1275 -4.7978,3.84528 -0.49387,-0.10583 -0.4586,-0.24694 0.24696,-1.12889 1.48167,-1.86972 4.55084,-3.70416 4.55084,-2.71639 z"
         inkscape:connector-curvature="0"
         style="stroke-width:0.03527778" />
      <path
         id="path1344"
         d="m -232.71413,147.65403 -1.27,1.27 -0.56444,-1.12889 c -0.635,-1.19944 -1.76389,-1.48166 -2.11667,-0.52916 -0.10583,0.3175 0.0353,1.05833 0.3175,1.65805 0.70555,1.44639 0.67028,1.83445 -0.3175,2.89278 -0.52917,0.56445 -0.77611,1.16417 -0.67028,1.5875 0.24695,0.9525 0.88195,0.88195 2.15195,-0.17639 0.59972,-0.49389 1.16416,-0.88194 1.30527,-0.88194 0.10584,0 0.74084,0.38805 1.37584,0.88194 1.48166,1.12889 3.38666,1.19945 3.38666,0.17639 0,-0.38805 -0.14111,-0.70555 -0.3175,-0.70555 -0.17639,0 -0.84666,-0.42334 -1.44639,-0.9525 -1.16416,-0.98778 -1.19944,-1.34056 -0.3175,-3.52778 0.74084,-1.83445 0,-2.08139 -1.51694,-0.56445 z"
         inkscape:connector-curvature="0"
         style="stroke-width:0.03527778" />
      <path
         id="path1346"
         d="m -60.205803,146.94848 c -0.3175,0.35278 -0.9525,1.41111 -1.44639,2.39889 -0.91722,1.83444 -1.16416,1.76389 -1.37583,-0.35278 -0.0705,-0.88195 -0.28222,-1.05833 -0.98778,-1.05833 -0.84666,0 -0.88194,0.0706 -0.84666,2.18722 0.0353,2.68111 0.49389,3.35139 2.2225,3.21028 1.19944,-0.10584 1.34055,-0.24695 2.92805,-3.24556 0.91722,-1.72861 1.5875,-3.28083 1.48167,-3.45722 -0.3175,-0.49389 -1.41111,-0.3175 -1.97556,0.3175 z"
         inkscape:connector-curvature="0"
         style="stroke-width:0.03527778" />
      <path
         id="path1348"
         d="m 12.995587,148.35959 c -1.09361,2.2225 -1.69333,2.46944 -1.69333,0.70555 0,-0.59972 -0.21167,-1.34055 -0.45861,-1.62277 -0.77612,-0.81139 -1.4111204,0.21166 -1.5522304,2.39889 -0.10583,1.72861 -0.0353,1.97555 0.7408404,2.36361 1.02305,0.52916 2.43416,0.10583 3.4925,-1.02306 1.05832,-1.12889 1.83445,-3.4925 1.41112,-4.23333 -0.52917,-0.98778 -0.91723,-0.70556 -1.94029,1.41111 z"
         inkscape:connector-curvature="0"
         style="stroke-width:0.03527778" />
      <path
         id="path1350"
         d="m -177.32802,147.12487 c -1.65806,1.34055 -2.25778,4.23333 -1.12889,5.36222 0.70556,0.70555 3.03389,0.74083 4.33917,0.0353 2.25777,-1.16417 2.15194,-4.58611 -0.14111,-5.43278 -1.44639,-0.49389 -2.36362,-0.49389 -3.06917,0.0353 z m 3.175,2.32833 c 0.14111,0.88194 -1.37583,2.01083 -2.25778,1.69333 -0.81139,-0.3175 -0.45861,-1.69333 0.56445,-2.2225 1.12888,-0.56444 1.55222,-0.42333 1.69333,0.52917 z"
         inkscape:connector-curvature="0"
         style="stroke-width:0.03527778" />
      <path
         id="path1352"
         d="m -169.91969,147.26598 c -1.05833,0.56444 -1.19944,0.88194 -1.51694,3.73944 -0.14111,1.30528 -0.0706,2.04611 0.17639,2.2225 0.74083,0.45861 2.04611,-0.84666 2.64583,-2.64583 0.56444,-1.65806 0.70555,-1.79917 2.15194,-2.15195 1.72861,-0.45861 2.25778,-0.9525 1.51695,-1.41111 -0.74084,-0.45861 -3.91584,-0.3175 -4.97417,0.24695 z"
         inkscape:connector-curvature="0"
         style="stroke-width:0.03527778" />
      <path
         id="path1354"
         d="m -112.98135,147.51292 c -1.02306,0.70556 -1.12889,0.91722 -0.9525,2.01084 0.10583,0.67027 0.35278,1.65805 0.56444,2.15194 0.67028,1.69333 3.31611,2.25778 5.22111,1.09361 1.48167,-0.91722 0.91723,-1.65805 -1.27,-1.65805 -1.44639,0 -1.69333,-0.10584 -1.69333,-0.67028 0,-0.56445 0.38806,-0.77611 1.905,-1.05834 2.04611,-0.42333 2.99861,-1.27 2.2225,-2.04611 -0.24694,-0.24694 -1.41111,-0.45861 -2.64583,-0.52916 -1.79917,-0.0706 -2.39889,0.0353 -3.35139,0.70555 z"
         inkscape:connector-curvature="0"
         style="stroke-width:0.03527778" />
      <path
         id="path1356"
         d="m -55.725523,147.08959 c -1.94028,1.16417 -2.68111,3.175 -1.76389,4.86833 0.84667,1.65806 2.32834,2.25778 5.15056,2.08139 2.54,-0.14111 3.38666,-0.56444 3.03389,-1.48167 -0.17639,-0.45861 -0.77611,-0.56444 -2.71639,-0.56444 -3.03389,0 -3.21028,-0.52917 -0.59972,-1.76389 1.94027,-0.9525 2.32833,-1.55222 1.55222,-2.61055 -0.59972,-0.81139 -3.59834,-1.12889 -4.65667,-0.52917 z"
         inkscape:connector-curvature="0"
         style="stroke-width:0.03527778" />
      <path
         id="path1358"
         d="m -241.60413,147.8657 c -0.88194,1.30528 -1.09361,4.445 -0.42333,5.99722 0.38805,0.9525 0.74083,1.34056 1.16416,1.23472 0.52917,-0.10583 0.635,-0.49388 0.635,-2.39888 0,-1.27 0.14111,-3.03389 0.3175,-3.98639 0.28223,-1.55223 0.24695,-1.65806 -0.45861,-1.65806 -0.38805,0 -0.9525,0.35278 -1.23472,0.81139 z"
         inkscape:connector-curvature="0"
         style="stroke-width:0.03527778" />
      <path
         id="path1360"
         d="m -225.3058,148.11264 c -1.65805,0.88195 -2.39889,1.97556 -2.39889,3.52778 0,3.38667 3.81,5.36222 6.56167,3.38667 0.91722,-0.67028 0.49389,-0.98778 -1.62278,-1.19945 -2.08139,-0.17638 -2.75166,-0.77611 -1.94027,-1.62277 0.31749,-0.3175 0.88194,-0.56445 1.19944,-0.56445 0.98778,0 2.50472,-1.37583 2.50472,-2.25778 0,-1.02305 -1.05833,-1.97555 -2.15194,-1.97555 -0.45861,0.0353 -1.44639,0.35278 -2.15195,0.70555 z"
         inkscape:connector-curvature="0"
         style="stroke-width:0.03527778" />
      <path
         id="path1362"
         d="m -164.06358,147.68931 c -0.24694,0.14111 -0.45861,1.34056 -0.52916,2.71639 -0.14112,2.32833 -0.10584,2.46944 0.635,2.57528 0.91722,0.14111 1.30527,-0.88195 1.30527,-3.63361 0.0353,-1.76389 -0.45861,-2.32834 -1.41111,-1.65806 z"
         inkscape:connector-curvature="0"
         style="stroke-width:0.03527778" />
      <path
         id="path1364"
         d="m -151.75163,148.1832 c -1.27,1.62278 -0.52917,4.62139 1.30528,5.25639 1.23472,0.45861 1.34055,1.16417 0.52916,3.52778 -0.59972,1.69333 -1.23472,2.57527 -2.78694,3.77472 -1.44639,1.12889 -2.2225,0.98778 -2.82223,-0.45861 -0.70555,-1.69334 -1.62277,-1.65806 -1.62277,0.10583 0,2.92806 2.04611,3.91583 4.93889,2.32833 3.10444,-1.69333 4.19805,-3.81 5.78555,-11.1125 0.67028,-2.99861 0.49389,-3.84527 -0.70555,-3.84527 -0.67028,0 -0.88195,0.28222 -1.19945,1.48166 -0.56444,2.2225 -0.635,2.39889 -1.02305,2.39889 -0.56445,0 -1.16417,-1.37583 -0.91722,-2.15194 0.21166,-0.67028 -0.3175,-1.72861 -0.88195,-1.72861 -0.14111,0 -0.42333,0.21166 -0.59972,0.42333 z"
         inkscape:connector-curvature="0"
         style="stroke-width:0.03527778" />
      <path
         id="path1366"
         d="m -68.954693,149.1357 c -0.52916,1.905 -0.45861,3.81 0.17639,4.05694 0.81139,0.3175 1.5875,-1.23472 1.69334,-3.35138 0.0705,-1.72862 0,-1.905 -0.70556,-1.94028 -0.635,-0.0353 -0.88194,0.21166 -1.16417,1.23472 z"
         inkscape:connector-curvature="0"
         style="stroke-width:0.03527778" />
      <path
         id="path1368"
         d="m 21.321147,148.71237 c -0.21167,0.56444 -0.4586,1.5875 -0.56444,2.29305 -0.1764,1.09361 -0.0706,1.34056 0.35277,1.34056 0.70557,0 2.01083,-2.43417 2.01083,-3.70417 0,-1.27 -1.30526,-1.19944 -1.79916,0.0705 z"
         inkscape:connector-curvature="0"
         style="stroke-width:0.03527778" />
      <path
         id="path1370"
         d="m -182.54913,150.75848 c 0,2.2225 0.0353,2.32833 0.81139,2.2225 0.70555,-0.10584 0.77611,-0.28222 0.77611,-2.2225 0,-1.94028 -0.0705,-2.11667 -0.77611,-2.2225 -0.77611,-0.10584 -0.81139,0 -0.81139,2.2225 z"
         inkscape:connector-curvature="0"
         style="stroke-width:0.03527778" />
    </g>
  </g>
</svg>
