<?xml version="1.0" encoding="UTF-8" standalone="no"?>
<!-- Created with Inkscape (http://www.inkscape.org/) -->

<svg
   xmlns:dc="http://purl.org/dc/elements/1.1/"
   xmlns:cc="http://creativecommons.org/ns#"
   xmlns:rdf="http://www.w3.org/1999/02/22-rdf-syntax-ns#"
   xmlns:svg="http://www.w3.org/2000/svg"
   xmlns="http://www.w3.org/2000/svg"
   xmlns:sodipodi="http://sodipodi.sourceforge.net/DTD/sodipodi-0.dtd"
   xmlns:inkscape="http://www.inkscape.org/namespaces/inkscape"
   width="161.88387mm"
   height="68.301636mm"
   viewBox="0 0 161.88387 68.301636"
   version="1.1"
   id="svg5798"
   inkscape:version="0.92.5 (2060ec1f9f, 2020-04-08)"
   sodipodi:docname="matVecMul.svg">
  <defs
     id="defs5792" />
  <sodipodi:namedview
     id="base"
     pagecolor="#ffffff"
     bordercolor="#666666"
     borderopacity="1.0"
     inkscape:pageopacity="0.0"
     inkscape:pageshadow="2"
     inkscape:zoom="0.35"
     inkscape:cx="-459.79201"
     inkscape:cy="-265.21175"
     inkscape:document-units="mm"
     inkscape:current-layer="layer1"
     showgrid="false"
     fit-margin-top="0"
     fit-margin-left="0"
     fit-margin-right="0"
     fit-margin-bottom="0"
     inkscape:window-width="1920"
     inkscape:window-height="1080"
     inkscape:window-x="0"
     inkscape:window-y="0"
     inkscape:window-maximized="0" />
  <metadata
     id="metadata5795">
    <rdf:RDF>
      <cc:Work
         rdf:about="">
        <dc:format>image/svg+xml</dc:format>
        <dc:type
           rdf:resource="http://purl.org/dc/dcmitype/StillImage" />
        <dc:title></dc:title>
      </cc:Work>
    </rdf:RDF>
  </metadata>
  <g
     inkscape:label="Layer 1"
     inkscape:groupmode="layer"
     id="layer1"
     transform="translate(-18.843779,-10.361086)">
    <g
       id="g6560"
       transform="matrix(0.25,0,0,0.25,25.324406,15.808036)">
      <path
         id="path4988"
         d="m 43.639526,-21.454839 c -1.975556,0.811389 -3.845276,4.233333 -4.974166,9.136944 -0.352777,1.5875 -0.705557,2.5047222 -0.9525,2.3988892 -0.246944,-0.07056 -0.77611,-1.8344452 -1.164167,-3.9511112 -1.164167,-5.750278 -1.44639,-6.526389 -2.39889,-6.526389 -2.18722,0 -4.7625,5.856111 -6.35,14.2875002 -0.881943,4.7625 -0.91722,5.39749999 -0.352777,5.82083299 1.023057,0.881944 1.411111,0.07056 2.39889,-4.93888899 1.340554,-6.7733332 3.033887,-11.7827772 3.774721,-11.0419442 0.176389,0.176389 0.635,1.834444 1.023056,3.739444 1.023057,4.9741672 1.869723,6.3852782 3.774723,6.1736112 0.9525,-0.105833 1.023054,-0.246944 2.081387,-4.3744442 0.564447,-2.328333 1.27,-4.727222 1.481667,-5.291667 0.564446,-1.375833 2.187223,-3.104444 2.54,-2.716388 0.141113,0.141111 0.423333,2.998611 0.635,6.314722 0.458613,6.8086112 1.375833,10.7244442 2.57528,10.7244442 0.811387,0 0.811387,-0.352778 0.176387,-4.056945 -0.282221,-1.552222 -0.599721,-5.0447222 -0.740834,-7.7611102 -0.105833,-2.716389 -0.28222,-5.432778 -0.388053,-6.067778 -0.282224,-1.940278 -1.411113,-2.610555 -3.139724,-1.869722 z"
         inkscape:connector-curvature="0"
         style="stroke-width:0.03527778" />
      <path
         id="path4990"
         d="m 67.169803,-21.349006 c -0.529166,0.635 -1.09361,3.316111 -1.128889,5.256389 0,2.187222 -0.282221,2.751666 -1.27,2.751666 -1.375834,0 -1.481667,1.023056 -0.246944,2.081389 0.81139,0.705556 1.12889,1.3405562 1.340556,2.6811112 0.388054,2.681111 1.340554,4.268611 2.8575,4.7625 1.128888,0.388056 1.375834,0.352778 2.2225,-0.246944 0.9525,-0.740834 1.446388,-2.2225 0.740834,-2.2225 -0.211667,0 -0.705557,0.176389 -1.093613,0.388055 -1.481667,0.776111 -2.786944,-0.599722 -2.786944,-3.033888 0,-1.4111112 0.246944,-1.5875002 2.822223,-2.2930562 1.516944,-0.423333 1.940277,-0.670278 1.940277,-1.234722 0,-0.635 -0.211666,-0.705556 -2.434166,-0.635 l -2.39889,0.105833 0.211667,-2.046111 c 0.141112,-1.093611 0.423333,-2.822222 0.635,-3.845277 0.211666,-0.987778 0.282223,-2.046111 0.176389,-2.363611 -0.282223,-0.670278 -1.09361,-0.740834 -1.5875,-0.105834 z"
         inkscape:connector-curvature="0"
         style="stroke-width:0.03527778" />
      <path
         id="path4992"
         d="m 537.42256,-19.620395 c -0.17638,0.246945 -0.74084,1.658056 -1.19944,3.104445 -0.84667,2.610555 -0.88194,2.645833 -1.97556,2.54 -1.55221,-0.176389 -1.83444,0.740833 -0.70554,1.975555 0.81137,0.881944 0.88193,1.164167 0.74083,3.2808332 -0.1764,2.187222 -0.10583,2.398889 0.81137,3.421945 0.56446,0.599722 1.41113,1.199444 1.905,1.305277 1.27,0.282223 3.175,-0.987777 3.175,-2.081389 0,-0.811388 -0.0705,-0.811388 -1.30527,-0.529166 -2.0461,0.458611 -2.57527,0.141111 -2.57527,-1.481667 0,-2.2930552 0.45861,-2.7869442 2.50471,-2.7869442 2.0814,0 3.95113,-0.846667 3.77473,-1.693333 -0.10583,-0.493889 -0.56444,-0.599723 -2.3989,-0.635 -1.27,0 -2.39887,-0.07056 -2.54,-0.07056 -0.1411,-0.03528 0.14113,-1.128889 0.635,-2.434167 0.45863,-1.305278 0.84667,-2.786944 0.77613,-3.280833 -0.10583,-0.987778 -1.02306,-1.340556 -1.62279,-0.635 z"
         inkscape:connector-curvature="0"
         style="stroke-width:0.03527778" />
      <path
         id="path4994"
         d="m 271.46342,-18.42095 c -0.3175,0.493889 -1.5875,3.563055 -2.82224,6.773333 -2.46943,6.5616662 -3.24556,8.2550002 -3.91583,8.4666662 -0.635,0.176389 -1.79917,-2.645833 -2.3989,-5.856111 -1.0936,-5.7502772 -2.08137,-8.1844442 -3.35137,-8.1844442 -1.05833,0 -1.19946,0.9525 -0.38806,2.681111 0.42333,0.846667 1.05833,3.104444 1.4464,5.0094442 1.2347,6.103056 2.75166,8.88999999 4.79776,8.88999999 1.905,0 3.06917,-1.72861099 4.97417,-7.19666599 0.4586,-1.305278 1.55223,-4.2333342 2.46944,-6.4205562 1.30529,-3.280833 1.55223,-4.1275 1.19946,-4.550833 -0.635,-0.776111 -1.3053,-0.635 -2.01083,0.388056 z"
         inkscape:connector-curvature="0"
         style="stroke-width:0.03527778" />
      <path
         id="path4996"
         d="m 527.72118,-18.773728 c -0.1411,0.141111 -0.24693,1.27 -0.24693,2.469444 0,1.234722 -0.3175,3.527778 -0.70557,5.150556 -0.84666,3.5983332 -0.88193,5.1505552 -0.10583,6.2794442 1.48167,2.151944 4.33917,2.575278 4.33917,0.635 0,-0.423333 -0.28223,-0.635 -0.84667,-0.635 -0.4939,0 -1.1289,-0.282222 -1.4464,-0.599722 -0.67027,-0.670278 -0.635,-1.693334 0.3175,-7.0908332 0.6703,-3.563056 0.42334,-6.173611 -0.52916,-6.35 -0.28221,-0.03528 -0.635,0 -0.77611,0.141111 z"
         inkscape:connector-curvature="0"
         style="stroke-width:0.03527778" />
      <path
         id="path4998"
         d="m 294.35868,-17.15095 c -0.24693,0.246944 -0.42333,0.917222 -0.42333,1.552222 0,2.328333 -0.70556,4.903611 -1.5875,5.7150002 -1.02306,0.917222 -1.0936,1.234722 -0.38806,1.799166 0.38806,0.3175 0.45863,0.917222 0.3175,2.257778 -0.14111,1.516944 -0.0353,2.046111 0.67029,3.069166 0.4586,0.670278 1.23471,1.446389 1.76387,1.728612 0.84667,0.49388799 1.05834,0.49388799 2.18723,-0.07056 0.88194,-0.388056 1.27,-0.811389 1.27,-1.340556 0,-0.670277 -0.1411,-0.705555 -1.37583,-0.493888 -1.16417,0.176388 -1.4464,0.105833 -1.94027,-0.599723 -0.77613,-1.093611 -0.74083,-2.998611 0.0705,-3.386666 0.3175,-0.176389 1.3053,-0.423333 2.15196,-0.564445 1.86971,-0.282222 3.56304,-1.128888 3.56304,-1.799166 0,-0.564445 -0.9525,-0.9172222 -1.97554,-0.7408342 -1.86973,0.3527782 -3.4925,0.3527782 -3.42196,-0.07056 0.77613,-3.598333 1.05833,-6.314722 0.77613,-6.843889 -0.38807,-0.740833 -1.05833,-0.811389 -1.65807,-0.211666 z"
         inkscape:connector-curvature="0"
         style="stroke-width:0.03527778" />
      <path
         id="path5000"
         d="m 86.043411,-15.916228 c -0.52916,0.493889 -0.21166,1.411111 0.67028,1.834444 1.09361,0.493889 1.55222,0.246945 1.55222,-0.846666 0,-0.987778 -1.55222,-1.693334 -2.2225,-0.987778 z"
         inkscape:connector-curvature="0"
         style="stroke-width:0.03527778" />
      <path
         id="path5002"
         d="m 100.26036,-13.058728 c -0.282219,0.105833 -1.093609,0.811389 -1.763889,1.5875 l -1.27,1.411111 -1.16417,-0.635 c -0.635,-0.3175 -1.55222,-1.023056 -2.01083,-1.516945 -0.67028,-0.776111 -0.91722,-0.881944 -1.44639,-0.564444 -1.44639,0.881944 -0.74083,2.434167 1.76389,3.7041662 0.70555,0.388056 1.30528,0.846667 1.30528,1.023056 0,0.176389 -0.635,1.305278 -1.41111,2.504722 -1.55223,2.398889 -1.69334,2.963333 -0.84667,3.280833 0.9525,0.388056 1.09361,0.246945 2.57528,-2.081388 0.81139,-1.27 1.62277,-2.293056 1.83444,-2.293056 0.21167,0 1.62278,0.987778 3.174999,2.151944 1.72861,1.375834 2.96333,2.081389 3.31611,1.940278 0.49389,-0.176389 0.49389,-0.3175 0.0353,-1.164166 -0.56444,-1.093612 -2.25778,-2.751667 -3.98639,-3.951111 -1.411109,-0.9525 -1.411109,-1.164167 -0.24694,-2.6811112 0.98777,-1.305278 1.05833,-3.033889 0.14111,-2.716389 z"
         inkscape:connector-curvature="0"
         style="stroke-width:0.03527778" />
      <path
         id="path5004"
         d="m 494.10145,-12.988173 c -0.38803,0.141111 -1.62277,0.388056 -2.6811,0.529167 -2.75167,0.352778 -3.10443,1.023055 -3.10443,6.3147222 0,3.421944 0.10583,4.162778 0.56443,4.339166 0.91723,0.352778 1.1289,-0.282222 1.4464,-4.127499 l 0.2822,-3.704167 2.3989,-0.5644442 c 2.78694,-0.705556 4.1275,-1.481667 4.1275,-2.434167 0,-0.564444 -0.24693,-0.705556 -1.1289,-0.670278 -0.635,0 -1.48166,0.141111 -1.905,0.3175 z"
         inkscape:connector-curvature="0"
         style="stroke-width:0.03527778" />
      <path
         id="path5006"
         d="m 79.622861,-12.282617 c -1.16417,0.388055 -2.54,0.776111 -3.03389,0.881944 l -0.9525,0.176389 0.14111,3.4219442 c 0.0706,1.905 0.14111,3.563056 0.14111,3.704167 0,0.423333 1.34056,0.352778 1.5875,-0.07056 0.10584,-0.211666 0.3175,-1.340555 0.45861,-2.504722 0.28223,-2.398889 0.14111,-2.257777 3.70417,-3.8100002 1.83444,-0.811388 2.39889,-1.234722 2.29306,-1.693333 -0.14112,-0.881944 -1.76389,-0.917222 -4.33917,-0.105833 z"
         inkscape:connector-curvature="0"
         style="stroke-width:0.03527778" />
      <path
         id="path5008"
         d="m 521.47702,-10.800951 c -0.38807,0.8466672 -0.70557,1.7286112 -0.70557,2.0108342 0,0.246944 -0.35277,1.058333 -0.74083,1.799166 -1.12887,2.010834 -3.56304,2.8575 -3.9511,1.411111 -0.21167,-0.881944 0.21166,-2.575277 0.98777,-3.739444 0.74083,-1.1641672 0.70556,-2.2577782 -0.14111,-2.2577782 -1.19943,0 -2.8575,3.0338892 -2.8575,5.1505562 0,2.293055 1.16417,3.633611 3.21027,3.668888 2.5753,0 4.72723,-2.398888 5.78557,-6.526388 0.70556,-2.6105562 0.67027,-2.9986112 -0.1764,-2.9986112 -0.52917,0 -0.9525,0.458611 -1.4111,1.481666 z"
         inkscape:connector-curvature="0"
         style="stroke-width:0.03527778" />
      <path
         id="path5010"
         d="m 55.17536,-11.435951 c -2.892777,1.5875002 -3.280834,6.6675002 -0.635,8.3255562 1.481666,0.881944 2.328333,0.881944 3.880554,-0.03528 l 1.27,-0.740833 1.023056,0.740833 c 0.564444,0.423333 1.305277,0.740833 1.693333,0.740833 1.834444,-0.03528 2.046111,-1.728611 0.211667,-2.187222 -1.41111,-0.352778 -1.693333,-1.128889 -1.693333,-4.515555 v -2.6458342 l -2.469444,-0.07055 c -1.44639,-0.03528 -2.786943,0.105833 -3.280833,0.388055 z m 3.45722,3.1750002 c 0,0.423334 -0.352777,1.340556 -0.811387,2.010834 -0.881943,1.305277 -2.187223,1.622777 -2.822223,0.635 -0.529167,-0.846667 0.3175,-2.681111 1.481667,-3.104445 1.5875,-0.564444 2.151943,-0.458611 2.151943,0.458611 z"
         inkscape:connector-curvature="0"
         style="stroke-width:0.03527778" />
      <path
         id="path5012"
         d="m 508.91812,-11.541784 c -0.7761,0.388056 -2.61054,2.9986112 -2.61054,3.7394442 0,0.740834 1.65804,2.2225 2.46944,2.2225 0.38806,0 0.8114,0.246945 0.91723,0.529167 0.3175,0.811389 -0.52917,1.5875 -1.65807,1.5875 -1.23473,0 -1.48166,0.388055 -0.81139,1.340555 1.34056,1.94027799 4.72723,0.03528 4.72723,-2.681111 0,-1.516944 -0.635,-2.293055 -2.18723,-2.681111 -1.27,-0.282222 -1.23471,-1.023055 0.0706,-1.975555 0.67027,-0.493889 1.05833,-1.0583332 1.05833,-1.6227782 0,-0.917222 -0.67026,-1.058333 -1.97556,-0.458611 z"
         inkscape:connector-curvature="0"
         style="stroke-width:0.03527778" />
      <path
         id="path5014"
         d="m 87.454531,-10.624562 c -0.10584,0.176389 -0.21167,1.8697222 -0.28223,3.8100002 -0.14111,3.386667 -0.10583,3.527778 0.635,3.633611 0.49389,0.07056 0.81139,-0.105833 0.91723,-0.529166 0.38805,-1.27 0.67027,-5.715 0.42333,-6.4205562 -0.21167,-0.705555 -1.37583,-1.023055 -1.69333,-0.493889 z"
         inkscape:connector-curvature="0"
         style="stroke-width:0.03527778" />
      <path
         id="path5016"
         d="m 276.19062,-10.060117 c -1.5875,0.9525002 -3.03387,2.9986112 -3.3161,4.6213882 -0.38807,2.504723 1.23473,5.00944499 3.45723,5.36222299 1.4111,0.211666 3.59833,-0.776112 3.7747,-1.72861199 0.10584,-0.529166 -0.17637,-0.599722 -1.97553,-0.599722 -2.2225,0 -3.0339,-0.493889 -2.82224,-1.658055 0.0706,-0.352778 1.09361,-1.164167 2.46944,-1.869722 2.50473,-1.305278 4.1628,-2.645834 4.1628,-3.386667 0,-0.7761112 -1.51697,-1.5522222 -2.99863,-1.5522222 -0.84667,0 -1.94027,0.3175 -2.75167,0.811389 z"
         inkscape:connector-curvature="0"
         style="stroke-width:0.03527778" />
      <path
         id="path5018"
         d="m 499.78118,-10.377617 c -2.15193,0.6702772 -2.96333,1.1994442 -3.70416,2.4341662 -1.4111,2.257778 -0.4586,4.938889 2.29306,6.491111 2.15194,1.23472199 4.7625,0.91722199 4.7625,-0.529166 0,-0.458612 -0.4939,-0.705556 -2.18723,-1.023056 -1.16417,-0.246944 -2.3989,-0.670278 -2.6811,-0.9525 -0.4939,-0.458611 -0.45863,-0.564444 0.3175,-0.881944 0.4586,-0.211667 1.51693,-0.529167 2.29304,-0.740834 2.25779,-0.564444 3.31613,-1.552222 3.31613,-3.104444 0,-1.058333 -0.1764,-1.3758332 -0.9525,-1.7638892 -1.16417,-0.529166 -1.6228,-0.493889 -3.45724,0.07056 z m 1.94027,1.9755552 c 0,0.458611 -1.69333,1.128889 -2.43416,0.9525 -0.38804,-0.07055 -0.24694,-0.282222 0.49389,-0.705555 1.23474,-0.670278 1.94027,-0.740834 1.94027,-0.246945 z"
         inkscape:connector-curvature="0"
         style="stroke-width:0.03527778" />
      <path
         id="path5020"
         d="m 311.99758,-8.7901168 c -0.9525,0.776111 -1.1289,1.164166 -1.1289,2.469444 0,2.081389 0.67027,3.915833 1.4464,3.915833 0.81137,0 1.05834,-0.458611 1.55221,-2.786944 l 0.38806,-1.975556 2.96333,-0.03528 c 2.92807,-0.03528 5.29167,-0.705556 5.29167,-1.552223 0,-0.599722 -0.70556,-0.740833 -5.04473,-0.846666 -4.2686,-0.105834 -4.37444,-0.105834 -5.46804,0.811389 z"
         inkscape:connector-curvature="0"
         style="stroke-width:0.03527778" />
      <path
         id="path5022"
         d="m 284.79842,-7.8376168 c -2.50474,2.716388 -3.13974,5.221111 -1.7639,6.98499899 0.4939,0.635 1.05833,0.917223 1.83443,0.917223 1.6228,0 3.59834,-1.058334 3.59834,-1.94027799 0,-0.599722 -0.17637,-0.670278 -1.23471,-0.564445 -2.57529,0.282223 -2.64583,0.282223 -2.54,-0.670277 0.17637,-1.5875 1.94027,-4.056945 2.9986,-4.162778 0.74084,-0.105833 0.9525,-0.3175 0.9525,-0.9525 0,-0.811389 -0.59973,-1.234722 -1.76389,-1.234722 -0.3175,0 -1.27,0.740833 -2.08137,1.622778 z"
         inkscape:connector-curvature="0"
         style="stroke-width:0.03527778" />
      <path
         id="path5024"
         d="m 303.31925,-8.4020618 c -2.5753,2.293056 -3.06917,4.621389 -1.23473,6.138333 1.23473,1.058334 1.94027,1.128889 3.77473,0.388056 2.57527,-1.093611 4.16277,-3.316111 3.7747,-5.326944 -0.24693,-1.411111 -0.84666,-1.763889 -3.24553,-2.116667 -1.6228,-0.211667 -1.83447,-0.141111 -3.06917,0.917222 z m 4.30387,2.2225 c -0.42333,1.199445 -2.15194,2.363611 -3.52777,2.363611 -1.1289,0 -1.19943,-0.3175 -0.4586,-1.763889 0.70554,-1.340555 1.48167,-1.763888 3.03387,-1.693333 1.27,0.07056 1.27,0.07056 0.9525,1.093611 z"
         inkscape:connector-curvature="0"
         style="stroke-width:0.03527778" />
      <path
         id="path5026"
         d="m 606.91979,5.4268272 c -0.24694,0.246944 -0.42334,0.635 -0.42334,0.881944 0,0.987777 1.48167,1.234723 7.1614,1.09361 l 5.715,-0.105833 0.10583,8.1138888 c 0.0353,4.445 -0.0706,10.724444 -0.24696,13.934724 -0.7761,12.558887 -1.79916,27.76361 -1.97554,28.927776 -0.10583,0.670277 -0.42333,4.727221 -0.70556,8.995834 -0.4586,6.49111 -1.7286,21.23722 -2.46944,28.75139 -0.38806,3.59833 -1.5875,24.094719 -1.94029,32.631939 -1.23471,28.82194 -2.11667,43.60333 -3.73944,62.08889 -0.98777,11.35944 -1.0936,13.22916 -0.91723,21.34305 0.14113,6.56167 0.0706,8.07861 -0.3175,8.32556 -0.2822,0.17639 -3.4925,0.45861 -7.16137,0.67027 -5.50333,0.28223 -6.73806,0.45862 -7.02029,0.91723 -0.21167,0.3175 -0.24694,0.84666 -0.10584,1.19944 0.21167,0.56445 0.77613,0.59972 7.90223,0.35278 4.19807,-0.14111 7.90223,-0.38806 8.255,-0.56445 0.52917,-0.28222 0.59973,-1.65805 0.74084,-13.44083 0.10583,-7.23194 0.35277,-14.99305 0.56443,-17.21555 1.34057,-14.21695 2.8575,-39.0525 3.56307,-58.7375 0.21166,-5.25639 0.49389,-11.92389 0.70556,-14.81667 0.17637,-2.92805 0.49387,-8.07861 0.70554,-11.46527 0.21167,-3.38667 0.77613,-10.477499 1.27,-15.698619 1.16417,-12.73527 2.8575,-33.443327 3.4925,-43.215273 0.28223,-4.374444 0.77613,-11.183054 1.09363,-15.169444 0.35277,-4.868333 0.49387,-10.653887 0.42333,-17.74472 L 621.48952,5.0034942 h -7.05557 c -5.04473,0 -7.19666,0.105833 -7.51416,0.423333 z"
         inkscape:connector-curvature="0"
         style="stroke-width:0.03527778" />
      <path
         id="path5028"
         d="m 440.69092,6.1323812 c -2.78697,0.35278 -3.59834,0.740833 -3.4925,1.658056 0.0353,0.3175 -0.0353,1.12889 -0.14113,1.799167 -0.52917,2.8927768 -1.02304,15.6633328 -1.30527,34.9249998 -0.21167,13.546667 -0.4939,22.824721 -0.88194,26.9875 -0.3175,3.492498 -0.70556,11.359447 -0.88196,17.462497 -0.635,22.683609 -1.16417,35.101389 -2.11667,48.506939 -0.70553,10.61861 -1.0936,17.00389 -1.5875,27.51667 -0.9172,18.76778 -1.19943,23.88305 -1.5522,27.34028 -0.52917,5.25639 -1.16417,16.61583 -0.9878,18.27389 0.10584,0.84666 0.28223,1.65805 0.45863,1.83444 0.17637,0.17639 2.50471,0.21167 5.2211,0.0706 4.09224,-0.21167 4.97417,-0.35278 5.29167,-0.84667 0.74083,-1.19945 -0.635,-1.65806 -4.79777,-1.69333 -2.0814,0 -3.84529,-0.14112 -3.95113,-0.3175 -0.21166,-0.3175 0.0353,-5.04473 1.02307,-18.20334 0.28223,-3.88055 0.67027,-10.30111 0.88193,-14.2875 0.1764,-3.98639 0.4939,-10.58333 0.70557,-14.64027 0.56443,-11.1125 0.98777,-18.69723 1.7639,-29.63334 0.35276,-5.43277 0.7761,-13.93472 0.88193,-18.87361 0.1411,-4.93889 0.28223,-9.24277 0.35277,-9.525 0.0706,-0.28222 0.3175,-6.103049 0.52917,-12.876389 0.21166,-6.80861 0.635,-15.204717 0.91723,-18.697217 0.3175,-3.845277 0.67027,-14.534443 0.84666,-27.163889 0.1764,-11.465277 0.4939,-22.965831 0.67027,-25.576388 0.21167,-2.610556 0.3528,-6.244166 0.38807,-8.043333 0,-3.9158328 -0.24694,-3.7394428 5.75027,-4.1980558 4.40973,-0.352777 5.53863,-0.811387 4.33916,-1.728611 -0.81137,-0.564443 -4.1275,-0.599723 -8.32553,-0.07056 z"
         inkscape:connector-curvature="0"
         style="stroke-width:0.03527778" />
      <path
         id="path5030"
         d="m 315.70175,8.8840482 c -2.5753,0.246946 -3.2103,0.599723 -2.99863,1.6227788 0.14113,0.77611 1.905,0.846667 7.86696,0.352777 l 3.56304,-0.282223 0.4939,10.371667 c 0.24693,5.679723 0.52916,11.994446 0.56443,14.040556 0.0706,2.04611 0.28223,7.12611 0.45863,11.288887 0.52917,10.724446 0.70554,18.309167 1.12887,43.21528 0.1764,12.029719 0.4939,26.458329 0.6703,32.102769 0.17637,5.60917 0.3175,19.12056 0.35277,29.98611 0,20.46112 0.38806,34.25473 1.0936,42.26278 0.24696,2.57528 0.45863,5.11528 0.45863,5.67972 l 0.0353,1.02306 -5.78557,0.98778 c -6.06777,0.98777 -7.3025,1.51694 -6.4911,2.71639 0.4939,0.77611 1.83444,0.70555 8.53723,-0.3175 6.06777,-0.9525 6.42054,-1.16417 6.0325,-3.73945 -0.1764,-0.98778 -0.38806,-3.35139 -0.52916,-5.25639 -0.14113,-1.905 -0.38807,-5.25639 -0.56447,-7.37305 -0.17637,-2.15195 -0.4586,-19.96722 -0.67027,-39.61695 -0.17639,-19.64972 -0.42333,-35.8775 -0.52916,-36.05388 -0.10584,-0.17639 -0.35277,-10.54806 -0.56444,-23.001109 -0.38806,-26.811114 -1.1289,-50.23556 -2.04613,-65.89889 -0.21166,-3.386667 -0.38803,-7.9375 -0.42333,-10.089447 l -0.0705,-3.9511098 -1.27,-0.211667 c -1.5875,-0.246943 -6.13833,-0.176389 -9.31333,0.141111 z"
         inkscape:connector-curvature="0"
         style="stroke-width:0.03527778" />
      <path
         id="path5032"
         d="m 263.06729,10.083494 c -2.11667,0.635 -2.46944,1.622777 -2.46944,6.914443 0,2.434167 0.21167,6.561667 0.4586,9.172224 0.3528,3.421943 0.4939,14.287497 0.56447,38.276387 0.0705,18.415003 0.21166,46.778332 0.35276,62.970832 0.14111,16.1925 0.10584,35.63055 -0.0353,43.21527 -0.3528,17.18028 -0.14113,29.10417 0.56443,29.91556 0.38807,0.49389 1.1289,0.59972 3.56307,0.59972 3.56303,0 4.23333,-0.17639 4.23333,-1.05833 0,-0.9525 -0.45863,-1.12889 -3.4925,-1.37584 l -2.68113,-0.21166 -0.17637,-5.11528 c -0.10583,-2.82222 -0.0353,-12.27667 0.10583,-20.99028 0.1411,-8.74889 0.1411,-30.55055 0,-48.50694 -0.14113,-17.95639 -0.28223,-46.672498 -0.3175,-63.852775 -0.0353,-20.884444 -0.1764,-32.314444 -0.45863,-34.572221 -0.21166,-1.834443 -0.49387,-5.432777 -0.5997,-7.972777 -0.28223,-5.468056 -0.42333,-5.256389 3.9511,-5.609166 6.8086,-0.529167 6.8439,-0.529167 6.8439,-1.375834 0,-0.282223 -0.3528,-0.5644458 -0.77613,-0.7055558 -1.37583,-0.352777 -8.14917,-0.17639 -9.63083,0.2822228 z"
         inkscape:connector-curvature="0"
         style="stroke-width:0.03527778" />
      <path
         id="path5034"
         d="m -9.6299165,10.824327 c -2.5047225,0.246944 -6.4558325,0.635 -8.7488885,0.811387 -3.668889,0.3175 -4.303889,0.458613 -5.609167,1.340557 l -1.446388,1.023056 0.246944,4.938887 c 0.670278,14.710834 0.635,22.119167 -0.141111,38.981944 -0.493889,11.1125 -0.670278,19.22639 -0.564444,23.106943 1.093611,31.397219 1.446388,63.464719 0.917222,80.609719 -0.423334,13.82889 -0.352778,17.03917 0.811389,29.38639 0.529166,5.53861 0.458611,5.50333 5.714999,5.50333 5.291666,0.0353 7.831666,-0.74083 6.314722,-1.905 -0.493889,-0.38805 -1.728611,-0.49389 -4.90361,-0.52916 -2.328334,0 -4.409723,-0.14112 -4.656667,-0.28223 -0.670278,-0.42333 -1.5875,-11.14777 -1.658056,-19.29694 0,-4.09222 0.07056,-15.34583 0.176389,-25.04722 0.141111,-9.70139 0.105834,-25.01195 -0.03528,-34.04306 -0.740833,-43.038882 -0.776111,-49.953326 -0.388055,-55.209716 0.670278,-8.537223 0.917222,-31.150277 0.423333,-38.4175 -0.388055,-5.256387 -0.352777,-6.385277 0.03528,-6.773333 0.282222,-0.3175 2.116667,-0.635 4.868333,-0.846667 4.903611,-0.423333 15.6633335,-1.86972 18.8030555,-2.50472 1.234723,-0.282223 2.010833,-0.599723 2.010833,-0.917223 0,-0.599723 -5.644444,-0.564444 -12.170833,0.07056 z"
         inkscape:connector-curvature="0"
         style="stroke-width:0.03527778" />
      <path
         id="path5036"
         d="m 178.2948,12.411827 c -1.48167,0.352777 -2.01083,0.846667 -1.69333,1.622777 0.21166,0.529167 0.77611,0.564444 6.13833,0.388057 3.24556,-0.105834 6.17361,-0.246947 6.49111,-0.3175 0.56445,-0.105834 0.635,0.45861 0.81139,5.53861 0.10583,3.104443 0.35278,7.373056 0.52917,9.525 0.21166,2.116666 0.35277,6.49111 0.35277,9.701387 0,6.52639 0.77612,22.295556 1.62278,31.92639 0.28222,3.4925 0.67028,10.089443 0.88195,14.640273 0.17639,4.55084 0.49389,10.65389 0.67027,13.58195 0.21167,2.892779 0.52917,10.759719 0.70556,17.462499 0.17639,6.70277 0.42333,13.82889 0.49389,15.875 0.10583,2.04611 0.28222,9.56027 0.38805,16.75694 0.10584,7.16139 0.28223,14.78139 0.35278,16.93333 0.70556,16.15722 0.98778,21.23722 1.41111,23.1775 0.24695,1.23472 0.35278,2.32834 0.21167,2.46945 -0.14111,0.17639 -3.95111,0.45861 -8.50194,0.635 -8.67834,0.38805 -10.93612,0.74083 -10.93612,1.62277 0,1.09362 1.5875,1.34056 5.75028,0.84667 3.175,-0.35278 9.24278,-0.635 15.69861,-0.70555 0.9525,0 0.98778,-0.77612 0.24695,-3.52778 -0.74084,-2.78695 -1.48167,-16.61583 -1.905,-35.98333 -0.56445,-23.95361 -1.05834,-40.64 -1.44639,-49.56528 -0.21167,-4.26861 -0.52917,-11.818059 -0.70556,-16.756939 -0.21166,-4.93889 -0.59972,-11.606393 -0.88194,-14.81667 -0.81139,-8.854723 -1.94028,-29.492223 -1.97556,-35.630556 -0.0353,-8.184444 -1.09361,-23.741944 -1.65805,-24.447498 -0.28222,-0.3175 -1.12889,-0.635 -1.94028,-0.740833 -2.89278,-0.35278 -9.98361,-0.49389 -11.1125,-0.211667 z"
         inkscape:connector-curvature="0"
         style="stroke-width:0.03527778" />
      <path
         id="path5038"
         d="m 515.72675,14.810714 c -0.70557,0.776113 -2.54,4.868334 -3.24557,7.196667 -0.74083,2.504723 -0.67026,4.339167 0.24694,5.961946 1.09363,1.975554 2.68113,2.398887 4.72723,1.234721 4.1275,-2.293054 3.6689,-7.725834 -0.70556,-8.219721 -0.88194,-0.105833 -1.62277,-0.246946 -1.62277,-0.352779 0,-0.07055 0.4939,-1.164167 1.05833,-2.469444 0.59973,-1.27 1.05833,-2.610556 1.05833,-2.928056 0,-0.881944 -0.88193,-1.128887 -1.51693,-0.423334 z m 2.5047,9.313334 c 0.24697,1.940279 -3.3161,4.550833 -3.9511,2.892779 -0.84667,-2.187223 0.59973,-4.092223 2.96333,-3.915833 0.67027,0.07055 0.91724,0.28222 0.98777,1.023054 z"
         inkscape:connector-curvature="0"
         style="stroke-width:0.03527778" />
      <path
         id="path5042"
         d="m 458.54145,19.008771 c -0.1411,0.14111 -1.16416,0.211666 -2.29303,0.17639 -1.905,-0.105834 -2.0814,-0.03528 -3.63363,1.305276 -0.9525,0.846667 -1.905,2.151944 -2.36361,3.210277 -0.67026,1.552223 -0.70556,1.975557 -0.35276,3.245557 0.21166,0.81139 0.9172,2.010833 1.5522,2.645833 1.4464,1.44639 3.0339,1.552223 4.90363,0.282223 0.70554,-0.49389 1.37583,-0.881946 1.51693,-0.881946 0.10584,0 0.635,0.388056 1.23474,0.881946 1.12887,0.9525 2.2225,1.09361 3.6336,0.45861 1.7286,-0.77611 0.8114,-2.04611 -1.48167,-2.04611 -1.34056,0 -1.51693,-0.105833 -1.7639,-0.9525 -0.10583,-0.564446 -0.0353,-2.469446 0.1764,-4.30389 0.3175,-2.469443 0.3175,-3.421943 0.0353,-3.774723 -0.4586,-0.564443 -0.7761,-0.59972 -1.16417,-0.246943 z m -1.05833,3.880556 c -0.42333,3.598334 -2.8575,6.420554 -4.7272,5.432777 -2.0814,-1.12889 -0.84667,-4.727223 2.2225,-6.420556 2.64583,-1.446387 2.78693,-1.375834 2.5047,0.987779 z"
         inkscape:connector-curvature="0"
         style="stroke-width:0.03527778" />
      <path
         id="path5044"
         d="m 575.20506,19.820161 c -2.61054,1.481666 -3.81,3.386666 -3.81,6.0325 0,1.658053 0.14112,2.18722 0.88196,2.963333 1.27,1.375833 2.57527,1.940277 4.33916,1.940277 1.76388,0 2.8575,-0.635 2.64584,-1.622777 -0.10584,-0.529167 -0.45863,-0.67028 -1.86973,-0.705557 -2.54,-0.07056 -2.54,-0.07056 -3.13973,-0.705556 -0.81138,-0.77611 -0.70554,-3.033887 0.17639,-4.162777 0.88194,-1.12889 3.13973,-2.328333 4.37444,-2.328333 1.16417,0 1.51696,-0.881944 0.70556,-1.76389 -0.88193,-0.987777 -2.15193,-0.881944 -4.30389,0.35278 z"
         inkscape:connector-curvature="0"
         style="stroke-width:0.03527778" />
      <path
         id="path5046"
         d="m 298.69785,24.053494 c -1.69333,1.940277 -3.21027,3.527777 -3.3514,3.527777 -0.2822,0 -2.3636,-3.386667 -2.89277,-4.691944 -0.38806,-0.917223 -1.83443,-0.670279 -1.97556,0.3175 -0.0705,0.423334 0.59973,1.940277 1.48167,3.421944 0.91723,1.44639 1.62279,2.751666 1.62279,2.928056 0,0.176387 -1.4464,1.905 -3.175,3.845277 -1.72863,1.940277 -3.175,3.774723 -3.175,4.056944 0,0.670277 0.67027,1.41111 1.27,1.41111 0.21167,0 1.7286,-1.516944 3.35137,-3.351387 1.6228,-1.834444 3.13973,-3.35139 3.31613,-3.35139 0.21167,0 1.30527,0.9525 2.46944,2.116667 1.16416,1.199446 2.78693,2.54 3.6336,2.998613 2.54,1.446387 3.5278,0.246943 1.23473,-1.481667 -2.54,-1.94028 -4.6214,-4.021667 -5.04473,-5.044723 -0.42333,-1.023057 -0.35277,-1.164167 2.32833,-4.445 3.0339,-3.66889 3.81,-4.90361 3.4925,-5.432777 -0.56443,-0.9525 -1.7286,-0.141113 -4.5861,3.175 z"
         inkscape:connector-curvature="0"
         style="stroke-width:0.03527778" />
      <path
         id="path5048"
         d="m 467.32562,20.913771 c -0.1411,0.211666 -0.0705,1.27 0.21167,2.328333 0.35279,1.516944 0.35279,2.08139 0.0353,2.504723 -0.84666,1.199444 -1.19946,2.151944 -1.02306,2.68111 0.3175,0.776111 1.4111,0.705557 2.18723,-0.14111 0.84667,-0.917223 1.27,-0.881946 2.89277,0.176387 1.5875,1.12889 3.45723,1.093613 3.45723,0 0,-0.493887 -0.4939,-0.9525 -1.65807,-1.481666 -1.94026,-0.917221 -2.15193,-1.658054 -0.81139,-2.928054 0.59973,-0.564446 0.88196,-1.164167 0.81139,-1.76389 -0.1411,-1.234723 -1.23473,-1.340556 -2.25776,-0.17639 -0.9878,1.164167 -1.79917,0.98778 -1.97557,-0.423333 -0.0706,-0.705554 -0.3175,-1.023054 -0.88193,-1.09361 -0.38807,-0.07056 -0.84667,0.07056 -0.9878,0.3175 z"
         inkscape:connector-curvature="0"
         style="stroke-width:0.03527778" />
      <path
         id="path5050"
         d="m 584.58895,20.949048 c -0.91723,0.352779 -1.19943,1.234723 -0.635,1.905 0.3175,0.388056 1.02307,0.529166 2.57527,0.493889 1.19946,-0.03528 2.29307,-0.07056 2.46946,-0.03528 0.17638,0 -0.98779,1.27 -2.54,2.751666 -1.5875,1.516944 -2.89279,3.033887 -2.89279,3.351387 0,0.35278 0.3175,0.917223 0.70556,1.27 0.635,0.564447 1.51694,0.705557 5.82084,0.917223 2.82223,0.141111 5.25639,0.141111 5.46806,0.03528 0.4586,-0.28222 0.4586,-1.834443 0,-2.116666 -0.21167,-0.141111 -2.0814,-0.352777 -4.16279,-0.458611 -2.15194,-0.14111 -3.77471,-0.388056 -3.77471,-0.599723 0.0353,-0.211666 1.4111,-1.375833 3.10444,-2.645833 2.54,-1.905 3.03389,-2.434167 2.96333,-3.175 -0.0353,-0.529167 -0.42333,-1.023054 -0.9525,-1.305277 -1.02306,-0.45861 -7.1261,-0.740833 -8.14917,-0.388055 z"
         inkscape:connector-curvature="0"
         style="stroke-width:0.03527778" />
      <path
         id="path5052"
         d="m 491.03229,21.090161 c -0.14111,0.14111 -0.24694,0.493887 -0.24694,0.77611 0,0.282223 -0.38806,0.987777 -0.88193,1.552223 -0.84667,0.987777 -0.84667,1.128887 -0.3528,1.693333 0.28223,0.3175 0.52917,1.09361 0.52917,1.693334 0,1.340553 1.09363,2.116666 1.76389,1.305276 0.21167,-0.282223 0.3175,-0.670276 0.21167,-0.846666 -0.3175,-0.45861 0.38807,-0.846667 2.25777,-1.27 1.37583,-0.3175 1.5875,-0.49389 1.5875,-1.234723 0,-0.811387 -0.1411,-0.881944 -1.65804,-0.987777 -1.62279,-0.105834 -1.65806,-0.14111 -1.7639,-1.41111 -0.10583,-1.234724 -0.84666,-1.869723 -1.44639,-1.27 z"
         inkscape:connector-curvature="0"
         style="stroke-width:0.03527778" />
      <path
         id="path5054"
         d="m 546.59479,21.654604 c -0.24694,0.246944 -0.42334,0.705557 -0.42334,1.058333 0,0.352777 -0.38806,0.881944 -0.88193,1.199444 -0.4939,0.3175 -0.88196,0.881946 -0.88196,1.234723 0,0.423333 0.35279,0.81139 0.88196,1.023057 0.5997,0.211666 0.88193,0.59972 0.88193,1.199443 0,0.45861 0.24694,1.023057 0.52917,1.27 0.8114,0.670277 1.5875,0.14111 1.5875,-1.023056 0,-0.9525 0.1764,-1.128887 1.86973,-1.728611 1.48167,-0.564443 1.83444,-0.846666 1.83444,-1.516943 0,-0.776113 -0.14111,-0.846667 -1.86973,-0.81139 -1.76388,0.07056 -1.83444,0.03528 -2.11667,-1.023056 -0.3175,-1.234721 -0.7761,-1.516944 -1.4111,-0.881944 z"
         inkscape:connector-curvature="0"
         style="stroke-width:0.03527778" />
      <path
         id="path5058"
         d="m 523.80535,23.418494 c -1.30527,1.834443 -0.3175,5.573887 1.65807,6.31472 1.16416,0.423334 1.19943,0.458613 0.9172,1.869723 -0.17637,0.81139 -0.2822,1.552224 -0.3175,1.693334 0,0.17639 -0.56444,0.917223 -1.27,1.693333 -2.0461,2.257777 -3.3161,1.693333 -3.3161,-1.552223 0,-1.763887 -0.56444,-2.398887 -1.30527,-1.446387 -0.77613,1.09361 -0.59973,4.1275 0.35277,5.503331 0.67027,0.987779 1.05833,1.199446 2.18723,1.305279 2.78693,0.176387 5.32693,-2.610556 5.6797,-6.314723 0.10584,-1.058333 0.52917,-3.421944 0.91723,-5.326944 0.77611,-3.668889 0.70557,-4.515556 -0.42333,-4.515556 -0.38806,0 -0.70556,0.03528 -0.70556,0.07056 -0.14111,1.12889 -1.48167,4.056944 -2.04611,4.445 -0.7761,0.49389 -0.7761,0.49389 -0.7761,-1.622776 0,-2.504724 -0.635,-3.421947 -1.55223,-2.116667 z"
         inkscape:connector-curvature="0"
         style="stroke-width:0.03527778" />
      <path
         id="path5060"
         d="m 80.046191,23.841827 c -0.3175,0.3175 -0.59972,1.693334 -0.74083,3.563054 -0.14111,1.658056 -0.49389,4.409723 -0.74083,6.103056 -0.67028,3.986388 -0.67028,7.761111 0,9.348611 0.74083,1.799166 2.50472,3.421943 3.70416,3.421943 2.92806,0 4.09222,-1.763887 3.77472,-5.85611 -0.17638,-2.504723 -0.98777,-5.009444 -1.76388,-5.503333 -0.24695,-0.141111 -1.16417,-0.282221 -2.08139,-0.282221 -1.905,0 -1.86973,0.07055 -1.37584,-2.8575 0.17639,-1.058333 0.42334,-3.139723 0.52917,-4.62139 0.24694,-3.63361 -0.10583,-4.515556 -1.30528,-3.31611 z m 3.42195,13.864164 c 0.14111,0.3175 0.3175,1.481667 0.45861,2.57528 0.24694,2.50472 -0.24695,3.598333 -1.5875,3.45722 -1.23472,-0.14111 -2.18722,-1.975554 -2.18722,-4.198054 0,-1.340556 0.14111,-1.693333 0.81138,-2.010833 1.16417,-0.564443 2.25778,-0.49389 2.50473,0.176387 z"
         inkscape:connector-curvature="0"
         style="stroke-width:0.03527778" />
      <path
         id="path5062"
         d="m 151.9423,31.955714 c -2.46944,1.093613 -4.65667,4.868334 -4.26861,7.337777 0.3175,2.010834 1.41111,3.98639 2.75167,4.93889 0.9525,0.670277 1.5875,0.81139 3.63361,0.77611 3.06916,-0.03528 4.7625,-0.77611 4.7625,-2.116666 0,-0.846667 -0.0706,-0.881944 -1.12889,-0.635 -1.41111,0.282223 -4.58611,0.282223 -5.57389,-0.03528 -1.72861,-0.529167 -2.29306,-3.98639 -1.02306,-6.067777 0.81139,-1.305277 2.96334,-2.575277 4.37445,-2.575277 0.9525,0 1.23472,-0.917223 0.45861,-1.693333 -0.56444,-0.564447 -2.64583,-0.529167 -3.98639,0.07055 z"
         inkscape:connector-curvature="0"
         style="stroke-width:0.03527778" />
      <path
         id="path5064"
         d="m 11.67786,34.107661 c -3.5277765,1.834443 -5.3269435,5.50333 -4.1627765,8.53722 1.27,3.386667 5.0799995,4.30389 7.3730555,1.799167 1.128887,-1.199444 1.5875,-1.12889 1.869721,0.388056 0.423333,2.081387 1.940279,2.928054 3.915833,2.151944 1.622777,-0.599723 1.023057,-2.116667 -0.846667,-2.116667 -0.846666,0 -1.058333,-0.670277 -1.09361,-3.280833 0,-1.199444 -0.14111,-3.104444 -0.282223,-4.233334 -0.211667,-1.72861 -0.423333,-2.18722 -1.481667,-3.069166 -1.516943,-1.27 -3.069166,-1.340554 -5.291666,-0.176387 z m 3.915833,3.59833 c -0.246943,1.411113 -1.058333,3.175 -2.18722,4.7625 -0.98778,1.411113 -2.504723,1.375834 -3.104447,-0.07055 -1.1641655,-2.822223 1.27,-5.715 4.974167,-5.961943 0.458613,-0.03528 0.529167,0.211667 0.3175,1.269997 z"
         inkscape:connector-curvature="0"
         style="stroke-width:0.03527778" />
      <path
         id="path5070"
         d="m 458.22395,70.161548 c -0.10583,0.176389 -0.2822,1.375833 -0.42333,2.751666 -0.2822,2.681111 -0.5997,3.351388 -1.65804,3.351388 -1.02306,0 -4.37446,1.763889 -5.715,2.963329 -0.88196,0.77612 -1.34056,1.69334 -1.7639,3.24556 -0.74083,2.71639 -0.70556,3.84528 0.10584,5.64444 1.69333,3.70417 5.43277,3.38667 7.4789,-0.59972 0.7761,-1.5875 1.5522,-1.76389 1.8697,-0.49389 0.28223,1.12889 2.15196,2.29306 3.6689,2.29306 2.32833,0 4.97416,-1.94028 3.9864,-2.92806 -0.28224,-0.28222 -0.91724,-0.21166 -2.29307,0.21167 -2.11667,0.67028 -2.75167,0.56444 -3.52777,-0.635 -0.70556,-1.05833 -0.77613,-7.16139 -0.1764,-11.88861 0.3175,-2.434167 0.3175,-3.210277 -0.0353,-3.63361 -0.45863,-0.564446 -1.27,-0.705557 -1.51697,-0.282223 z m -1.19943,8.466663 c 0.35277,0.52917 -1.55223,5.715 -2.6811,7.37306 -1.41113,2.08139 -2.15197,2.57528 -2.96334,2.04611 -0.45863,-0.28222 -0.67029,-0.9525 -0.74083,-2.46945 -0.0706,-1.905 0.0353,-2.2225 1.16417,-3.73944 0.74083,-0.98778 1.905,-2.04611 2.89276,-2.54 1.86974,-0.98778 2.11667,-1.02306 2.32834,-0.67028 z"
         inkscape:connector-curvature="0"
         style="stroke-width:0.03527778" />
      <path
         id="path5072"
         d="m 299.65035,72.207658 c -0.38806,0.49389 -1.23473,2.116667 -1.83443,3.63361 -1.55224,3.739443 -1.79917,3.951113 -3.24557,2.822223 -1.55223,-1.164166 -3.6336,-3.351389 -4.6214,-4.7625 -0.81137,-1.199443 -1.905,-1.516943 -2.2225,-0.670277 -0.52916,1.375834 3.2103,5.785557 6.13834,7.231947 0.81139,0.42333 1.48166,0.88194 1.48166,1.02305 0,0.17639 -0.56443,1.5875 -1.27,3.21028 -1.30527,3.03389 -1.44637,4.37444 -0.42333,4.55083 0.70556,0.14111 2.2578,-2.96333 5.29167,-10.4775 0.9525,-2.434163 2.08139,-4.86833 2.46946,-5.397496 1.30527,-1.869721 -0.3528,-2.963334 -1.7639,-1.164167 z"
         inkscape:connector-curvature="0"
         style="stroke-width:0.03527778" />
      <path
         id="path5074"
         d="m 225.2848,74.677102 c -0.3175,0.493889 -0.77611,2.116666 -0.98778,3.633609 -0.56444,3.91584 -0.77611,4.09222 -2.18722,1.44639 -1.48167,-2.716387 -2.39889,-3.77472 -3.42195,-3.704166 -1.09361,0.03528 -1.16416,1.164167 -0.10583,2.257776 0.98778,1.05834 3.4925,5.75028 3.21028,6.0325 -0.3175,0.28222 -2.57528,0.0353 -4.90361,-0.52916 -1.16417,-0.3175 -2.54,-0.59973 -2.99861,-0.635 -1.05834,-0.0353 -1.76389,0.91722 -1.16417,1.65805 0.52917,0.59972 5.00944,1.86972 7.9375,2.2225 1.09361,0.10583 2.01083,0.35278 2.01083,0.52917 0,0.17639 -0.635,0.88194 -1.41111,1.62278 -0.81139,0.70555 -2.43416,2.46944 -3.66889,3.95111 -3.21027,3.88055 -3.70416,4.97416 -2.2225,4.97416 0.59973,0 1.65806,-0.91722 3.81,-3.31611 1.62278,-1.83444 3.175,-3.35139 3.42195,-3.35139 0.35278,-0.0353 0.42333,0.35278 0.24694,1.44639 -0.45861,3.175 -0.38805,6.27945 0.17639,6.63222 1.05833,0.670279 1.65806,-0.52916 1.83445,-3.73944 0.0705,-1.62278 0.3175,-3.13972 0.52916,-3.35139 0.24695,-0.24694 0.9525,0.70556 2.25778,3.06917 1.83444,3.31611 3.06917,4.656659 3.84528,4.19805 0.74083,-0.45861 0.28222,-1.69333 -2.11667,-5.96194 -2.29305,-4.02167 -2.89278,-5.50333 -2.18722,-5.50333 0.14111,0 2.04611,0.3175 4.26861,0.70555 6.56167,1.16417 8.46667,0.84667 6.985,-1.12889 -0.35278,-0.42333 -1.65806,-0.77611 -4.7625,-1.19944 -2.54,-0.35278 -4.30389,-0.77611 -4.26861,-0.98778 0,-0.21167 1.44639,-1.48167 3.21028,-2.8575 1.905,-1.44639 3.42194,-2.92806 3.73944,-3.59833 0.52917,-1.093613 0.52917,-1.199447 -0.14111,-1.658059 -0.59972,-0.458611 -0.81139,-0.388054 -2.08139,0.811389 -2.01083,1.905 -7.79639,6.38528 -8.21972,6.38528 -0.38806,0 -0.24695,-1.62278 0.52917,-5.64445 0.74083,-3.880553 0.74083,-5.079996 0.0353,-5.221107 -0.3175,-0.07056 -0.84666,0.282221 -1.19944,0.811388 z"
         inkscape:connector-curvature="0"
         style="stroke-width:0.03527778" />
      <path
         id="path5076"
         d="m 578.20368,75.382658 c -1.37583,0.917223 -2.64583,2.434167 -3.63362,4.374443 -1.27,2.54 -0.0353,7.09083 2.2225,8.11389 1.16416,0.56444 3.10446,0.45861 3.59833,-0.14111 0.635,-0.74083 0.1764,-1.5875 -0.88194,-1.5875 -1.30527,0 -2.18723,-0.56445 -2.82223,-1.76389 -0.70554,-1.34056 -0.67027,-2.2225 0.14113,-3.81 0.91721,-1.79917 2.57527,-3.280833 3.98637,-3.563056 1.27,-0.246944 1.69334,-1.128887 0.9878,-1.975554 -0.635,-0.776113 -2.11667,-0.599723 -3.59834,0.352777 z"
         inkscape:connector-curvature="0"
         style="stroke-width:0.03527778" />
      <path
         id="path5078"
         d="m 152.2598,76.370435 c -3.06917,2.081386 -4.69194,5.362226 -3.66889,7.302496 0.28222,0.56445 0.21167,0.77612 -0.52916,1.27 -0.52917,0.35278 -0.88195,0.91723 -0.88195,1.41112 0,0.84666 0.0706,0.84666 3.28083,0.84666 3.4925,0 5.53862,0.74084 5.53862,1.97556 0,1.05833 -1.69334,2.8575 -3.59834,3.81 -2.08139,1.02305 -3.66889,1.16416 -4.7625,0.38805 -1.5875,-1.09361 -1.44639,1.02306 0.14111,2.29306 1.27,0.98778 3.31611,0.91722 5.53861,-0.21167 2.25778,-1.12889 2.89278,-1.69333 3.98639,-3.59833 0.74084,-1.23472 0.84667,-1.76389 0.67028,-3.03389 -0.28222,-1.76389 -0.28222,-1.76389 2.96333,-2.15194 2.25778,-0.3175 3.88056,-1.02306 3.88056,-1.79917 0,-0.84667 -0.74083,-0.91722 -6.31472,-0.49389 -5.08,0.35278 -5.36222,0.35278 -6.73806,-0.35278 -1.16416,-0.59972 -1.41111,-0.88194 -1.41111,-1.79916 0,-1.44639 2.82222,-4.233337 4.90361,-4.868337 1.44639,-0.423333 1.48167,-0.458612 0.98778,-1.199446 -0.77611,-1.199443 -2.01083,-1.128887 -3.98639,0.211667 z"
         inkscape:connector-curvature="0"
         style="stroke-width:0.03527778" />
      <path
         id="path5080"
         d="m 518.58425,75.700158 c -2.5753,0.705556 -4.3039,2.04611 -5.36223,4.127503 -1.1289,2.29305 -1.16417,3.59833 -0.10584,5.60916 0.98777,1.97556 2.8575,2.99861 5.43277,2.99861 1.9403,0 3.70417,-0.91722 3.91584,-2.08138 0.10583,-0.52917 -0.14111,-0.56445 -2.46944,-0.35278 -3.21027,0.28222 -4.69193,-0.3175 -5.15056,-2.08139 -0.45861,-1.69333 -0.0353,-2.57528 1.19946,-2.43417 2.39887,0.28222 3.70417,0.10584 5.11527,-0.67028 0.8114,-0.45861 1.65806,-1.09361 1.83443,-1.41111 0.70557,-1.12889 -0.56443,-3.59833 -2.0461,-3.951107 -0.38806,-0.105833 -1.4464,0 -2.3636,0.246944 z m 2.54,2.469444 c 0,0.529169 -2.3989,1.622779 -3.5278,1.622779 -1.0936,0 -0.81137,-1.02306 0.45863,-1.55222 1.51694,-0.67028 3.06917,-0.705559 3.06917,-0.07056 z"
         inkscape:connector-curvature="0"
         style="stroke-width:0.03527778" />
      <path
         id="path5082"
         d="m 552.23922,77.428768 c -0.21166,0.211667 -0.42333,0.811393 -0.49387,1.305283 -0.0706,0.52916 -0.4939,1.05833 -1.05833,1.34055 -1.19946,0.56445 -1.37584,2.15195 -0.28223,2.43417 0.49389,0.14111 0.70556,0.49389 0.70556,1.12889 0,1.44639 0.38804,2.43416 0.9525,2.64583 0.88194,0.35278 1.51694,-0.42333 1.27,-1.5875 -0.24696,-1.27 0.38804,-2.08139 1.5875,-2.08139 1.0936,0 2.2225,-0.9525 1.94027,-1.62278 -0.10583,-0.3175 -0.70556,-0.49389 -1.55223,-0.49389 -1.37583,0 -1.37583,0 -1.37583,-1.41111 0,-1.51694 -0.98777,-2.504719 -1.69334,-1.658053 z"
         inkscape:connector-curvature="0"
         style="stroke-width:0.03527778" />
      <path
         id="path5084"
         d="m 588.82229,77.534602 c -0.77611,0.917219 0.0353,1.728609 1.94027,1.834449 0.88196,0.0705 1.62279,0.24694 1.62279,0.42333 0,0.14111 -0.8114,0.77611 -1.7639,1.41111 -2.57527,1.65806 -4.5861,4.05694 -4.5861,5.50333 0,1.86973 0.91721,2.25778 5.36221,2.25778 3.38666,0 3.88056,-0.0705 4.55083,-0.74083 1.27,-1.27 0.70556,-1.55222 -3.3161,-1.65806 -2.68111,-0.0705 -3.77473,-0.21166 -3.77473,-0.52916 0,-0.24695 1.34056,-1.41112 2.92806,-2.61056 4.02167,-3.03389 4.97417,-4.09222 4.69194,-5.15056 -0.24694,-1.058329 -1.02304,-1.305273 -4.48027,-1.305273 -2.04611,0 -2.82223,0.14111 -3.175,0.564444 z"
         inkscape:connector-curvature="0"
         style="stroke-width:0.03527778" />
      <path
         id="path5086"
         d="m 14.53536,78.240161 c -0.211667,0.49389 -0.352777,1.48166 -0.352777,2.18722 0,0.70555 -0.14111,1.44639 -0.282223,1.65805 -0.14111,0.17639 -1.375834,0.91723 -2.716387,1.5875 -2.0813895,1.05834 -2.6811125,1.5875 -3.9511125,3.45723 -2.04611,3.03389 -2.293054,4.83305 -0.9525,7.05555 0.705556,1.16417 1.516946,1.905 2.681113,2.46945 1.5522195,0.77611 1.6933325,0.77611 2.7163865,0.24694 0.599723,-0.28222 1.516946,-1.19944 2.010833,-2.01083 l 0.9525,-1.48167 0.917223,1.09361 c 0.49389,0.59972 1.27,1.27 1.693334,1.48167 1.799166,0.91722 4.72722,0.10583 4.233333,-1.16417 -0.14111,-0.38805 -0.670277,-0.56444 -1.658057,-0.56444 -1.975553,0 -2.645833,-0.42334 -3.31611,-2.11667 -0.670277,-1.69333 -0.77611,-6.985 -0.17639,-11.1125 0.282224,-2.04611 0.246947,-2.82222 -0.07055,-3.210276 -0.635,-0.776111 -1.340557,-0.599723 -1.728613,0.423336 z m -0.705554,8.60777 c 0,1.94028 -1.411113,6.42056 -2.363613,7.47889 -0.846667,0.9525 -2.0461095,0.77611 -3.0691665,-0.45861 -1.375833,-1.62278 -1.340553,-2.57528 0.246947,-5.04472 1.023053,-1.62278 3.7041655,-3.73944 4.7272195,-3.73944 0.3175,0 0.458613,0.56444 0.458613,1.76388 z"
         inkscape:connector-curvature="0"
         style="stroke-width:0.03527778" />
      <path
         id="path5088"
         d="m 533.85952,78.310711 c -0.1764,0.3175 -0.4939,1.51695 -0.70557,2.64584 -0.42333,2.25777 -0.52916,2.54 -1.5522,3.66888 -1.55223,1.72862 -2.32833,0.42334 -1.7639,-2.89277 0.28223,-1.48167 0.24694,-2.04611 -0.10583,-2.32834 -0.635,-0.52916 -1.16417,-0.10583 -1.7639,1.30528 -0.74083,1.79917 -0.635,4.05695 0.3175,5.46806 0.70556,1.05833 1.02306,1.19944 2.46946,1.30527 0.98777,0.0706 1.65804,0.28223 1.65804,0.52917 -0.0353,1.905 -2.5047,7.76111 -3.88054,9.2075 -0.84666,0.84667 -1.27,0.52917 -1.55223,-1.12889 -0.28223,-1.905 -1.23473,-4.02166 -1.62277,-3.77472 -1.05833,0.67028 0.3175,7.58472 1.62277,8.078609 1.16417,0.45861 2.92807,-0.776109 4.33917,-2.963329 1.83443,-2.8575 2.78693,-5.75028 3.21027,-10.05417 0.21166,-1.94028 0.49389,-4.02167 0.67027,-4.58611 0.74083,-2.46944 0.81139,-3.73944 0.17639,-4.445 -0.74083,-0.846666 -1.0936,-0.846666 -1.51693,-0.0353 z"
         inkscape:connector-curvature="0"
         style="stroke-width:0.03527778" />
      <path
         id="path5090"
         d="m 490.89118,78.310711 c -0.21166,0.14111 -0.4586,0.88195 -0.52916,1.65806 -0.10584,1.19944 -0.21167,1.41111 -0.9525,1.41111 -1.905,0 -1.83444,2.36361 0.0706,2.57528 0.81137,0.10583 0.88194,0.24694 0.70554,1.27 -0.10583,0.77611 0,1.27 0.38806,1.5875 0.74084,0.635 1.55224,0 1.69334,-1.30528 0.0706,-0.70556 0.38806,-1.02306 1.16416,-1.23472 1.69334,-0.52917 2.11667,-0.81139 2.2225,-1.5875 0.10584,-0.77611 -0.7761,-1.19945 -2.2225,-1.02306 -0.56443,0.0706 -0.74083,-0.21167 -0.88193,-1.34055 -0.28223,-2.08139 -0.70557,-2.61056 -1.65807,-2.01084 z"
         inkscape:connector-curvature="0"
         style="stroke-width:0.03527778" />
      <path
         id="path5092"
         d="m 472.33508,79.792381 c -0.84666,0.77611 -1.72863,1.41111 -1.94029,1.41111 -0.21167,0 -0.635,-0.49389 -0.9525,-1.05833 -0.59971,-1.16417 -1.83444,-1.44639 -2.18721,-0.49389 -0.10583,0.28222 0.21167,1.30528 0.74084,2.25778 l 0.9172,1.69333 -0.84667,1.30528 c -1.34053,1.94027 -0.38803,3.28083 1.34057,1.905 l 0.91723,-0.74084 1.0936,0.91723 c 1.83444,1.55222 3.91583,1.69333 4.1275,0.3175 0.10583,-0.635 -0.21167,-0.9525 -1.48167,-1.55223 -2.15193,-0.98777 -2.29306,-1.65805 -0.7761,-3.91583 2.11667,-3.10444 1.51694,-4.339166 -0.9525,-2.04611 z"
         inkscape:connector-curvature="0"
         style="stroke-width:0.03527778" />
      <path
         id="path5094"
         d="m 369.39452,80.286271 c -0.0706,0.0705 -1.4464,0.21166 -3.06917,0.3175 -3.24556,0.14111 -4.445,0.77611 -3.73943,1.94028 0.35276,0.49388 0.9525,0.59972 3.88053,0.56444 16.8628,-0.10583 18.1328,-0.21167 18.1328,-1.55222 0,-1.30528 -0.6703,-1.41111 -7.9375,-1.41111 -3.91583,0 -7.19667,0.0706 -7.26723,0.14111 z"
         inkscape:connector-curvature="0"
         style="stroke-width:0.03527778" />
      <path
         id="path5096"
         d="m 84.808691,82.790991 c -1.37583,0.59972 -4.90361,3.84528 -5.57389,5.18583 -1.09361,2.15195 -0.3175,5.715 1.69334,7.58473 2.36361,2.2225 9.10166,2.54 9.10166,0.45861 0,-0.49389 -0.45861,-0.635 -2.54,-0.77611 -3.35139,-0.24695 -5.25639,-1.02306 -6.06777,-2.54 -0.74084,-1.37584 -0.67028,-3.28084 0.14111,-3.06917 1.65805,0.42333 2.2225,0.42333 3.95111,-0.10583 2.36361,-0.67028 3.73944,-1.69334 4.40972,-3.31612 0.42333,-1.05833 0.42333,-1.30527 -0.0353,-2.04611 -1.02305,-1.55222 -3.28083,-2.15194 -5.08,-1.37583 z m 3.24556,2.46944 c -0.0353,0.88195 -4.40972,2.92806 -5.50334,2.57528 -0.45861,-0.17639 0.81139,-1.48166 2.36362,-2.43416 1.09361,-0.70556 3.175,-0.77612 3.13972,-0.14112 z"
         inkscape:connector-curvature="0"
         style="stroke-width:0.03527778" />
      <path
         id="path5098"
         d="m 374.01592,90.904881 c -0.28224,0.0705 -2.50474,0.3175 -4.86834,0.56444 -4.1275,0.42334 -4.37446,0.49389 -4.69196,1.30528 -0.5997,1.55222 0.3528,1.905 4.445,1.65806 12.13556,-0.81139 14.39333,-1.05834 14.7814,-1.69334 0.28223,-0.42333 0.28223,-0.77611 0,-1.23472 -0.35277,-0.49389 -1.02307,-0.59972 -4.7625,-0.635 -2.3989,-0.0353 -4.6214,-0.0353 -4.9036,0.0353 z"
         inkscape:connector-curvature="0"
         style="stroke-width:0.03527778" />
      <path
         id="path5100"
         d="m 81.316191,137.71849 c -0.21166,0.24694 -0.3175,0.77611 -0.21166,1.16417 0.0705,0.38805 0.21166,4.44499 0.3175,8.99583 0.10583,4.55083 0.24694,8.64305 0.3175,9.03111 0.3175,1.48167 2.29305,1.30528 2.29305,-0.17639 0,-2.43417 2.25778,-6.38528 3.63361,-6.38528 0.59972,0 1.79917,2.43417 2.15195,4.37445 0.38805,1.97555 1.27,4.09222 1.76389,4.09222 0.21166,0 0.59972,-0.14111 0.88194,-0.3175 1.05833,-0.67028 -1.83444,-9.8425 -3.31611,-10.40695 -1.09361,-0.42333 -2.54,-0.21166 -3.45722,0.49389 -0.49389,0.38806 -1.02306,0.70556 -1.23473,0.70556 -0.17638,0 -0.45861,-2.43417 -0.59972,-5.53861 -0.14111,-3.03389 -0.3175,-5.715 -0.42333,-5.99722 -0.21167,-0.59973 -1.65806,-0.59973 -2.11667,-0.0353 z"
         inkscape:connector-curvature="0"
         style="stroke-width:0.03527778" />
      <path
         id="path5102"
         d="m 149.79036,141.31682 c -0.38806,0.98778 0.14111,1.69334 1.16416,1.55222 0.77611,-0.0705 0.98778,-0.28222 0.98778,-0.98777 0,-0.70556 -0.21167,-0.91723 -0.98778,-0.98778 -0.635,-0.0706 -1.02305,0.0705 -1.16416,0.42333 z"
         inkscape:connector-curvature="0"
         style="stroke-width:0.03527778" />
      <path
         id="path5104"
         d="m 8.3617505,144.77404 c -1.12889,0.59973 -3.35139,2.82223 -3.915834,3.88056 -1.305277,2.50472 -0.282223,5.85611 2.328334,7.62 1.234723,0.84667 2.822223,0.91722 4.3038885,0.28222 0.564444,-0.24694 0.599721,-0.14111 0.423334,0.88195 -0.776113,4.7625 -1.9402795,7.02027 -3.6688895,7.02027 -0.77611,0 -1.375833,-0.38805 -2.54,-1.76389 -0.846667,-0.9525 -1.622777,-1.76388 -1.76389,-1.76388 -0.59972,0 -0.246943,1.5875 0.67028,3.13972 1.27,2.18722 1.658053,2.50472 3.104443,2.75166 0.987777,0.14112 1.481667,0 2.469444,-0.74083 1.4816655,-1.16417 2.8927785,-3.4925 3.5277785,-5.89139 0.529167,-1.905 0.811387,-12.98222 0.388054,-13.68778 -0.14111,-0.21166 -0.493887,-0.38805 -0.811387,-0.38805 -0.282223,0 -0.98778,-0.38806 -1.5875,-0.88195 -1.12889,-0.9525 -1.8344455,-1.05833 -2.9280555,-0.45861 z m 2.5047225,3.175 c 0.705553,-0.0705 0.740833,0.0353 0.45861,1.44639 -0.635,2.8575 -1.4463895,4.83306 -2.1166665,5.22111 -0.987777,0.52917 -2.786943,-1.30527 -2.786943,-2.8575 0,-2.08139 1.940277,-4.55083 3.175,-4.02166 0.28222,0.14111 0.8819425,0.21166 1.2699995,0.21166 z"
         inkscape:connector-curvature="0"
         style="stroke-width:0.03527778" />
      <path
         id="path5106"
         d="m 150.3548,147.34932 c -0.28222,0.3175 -0.35278,0.9525 -0.21167,1.65806 0.14112,0.635 0.38806,2.75166 0.56445,4.65666 0.3175,3.66889 0.81139,4.72723 1.97555,4.30389 0.52917,-0.21166 0.56445,-0.74083 0.42334,-5.11528 -0.14111,-5.08 -0.42334,-6.0325 -1.69334,-6.0325 -0.35277,0 -0.81138,0.24695 -1.05833,0.52917 z"
         inkscape:connector-curvature="0"
         style="stroke-width:0.03527778" />
      <path
         id="path5108"
         d="m 285.57452,149.9246 c -1.4111,1.44639 0.0353,2.15194 4.40973,2.18722 1.97554,0 3.59833,0.14111 3.59833,0.3175 0,0.38806 -1.23473,1.65806 -5.22113,5.43278 -3.21027,3.03389 -4.30387,4.51555 -4.30387,5.99722 0,0.84667 0.24694,1.09361 1.51694,1.65806 2.25777,1.02305 4.83306,1.16416 9.8425,0.59972 4.37443,-0.49389 5.5739,-0.88195 5.5739,-1.86972 0,-1.02306 -1.3053,-1.23473 -5.5739,-0.88195 -2.25777,0.21167 -5.11527,0.38806 -6.31473,0.38806 -3.31611,0 -3.10444,-0.56445 2.08139,-5.18584 5.22111,-4.65666 6.38527,-7.02027 3.9864,-8.21972 -1.48166,-0.70555 -8.96056,-1.05833 -9.59556,-0.42333 z"
         inkscape:connector-curvature="0"
         style="stroke-width:0.03527778" />
      <path
         id="path5110"
         d="m 509.76479,164.88238 c -0.10584,0.24694 -0.21167,1.19944 -0.24694,2.15194 -0.0353,0.91722 -0.38806,3.77472 -0.74083,6.35 -0.38807,2.54 -0.70557,5.25639 -0.70557,5.96194 0,1.19945 0.10584,1.34056 0.88197,1.34056 0.74083,0 0.9525,-0.28222 1.44637,-2.04611 0.67029,-2.32833 1.41113,-3.59833 2.11666,-3.59833 0.56447,0 0.74084,0.74083 0.9878,4.05694 0.21167,3.13972 0.4586,3.77472 1.4111,3.63361 0.70557,-0.10583 0.74083,-0.28222 0.70557,-3.66889 -0.0353,-2.75166 -0.21167,-3.91583 -0.70557,-4.93889 -0.635,-1.34055 -0.74083,-1.37583 -2.3636,-1.30527 -1.6228,0.0353 -1.72863,0 -1.51696,-0.70556 0.14113,-0.42333 0.42333,-2.08139 0.635,-3.66889 0.3175,-2.32833 0.3175,-2.99861 -0.0353,-3.42194 -0.56444,-0.67028 -1.65807,-0.74084 -1.86973,-0.14111 z"
         inkscape:connector-curvature="0"
         style="stroke-width:0.03527778" />
      <path
         id="path5112"
         d="m 452.19145,168.86877 c -2.29303,0.81138 -3.84527,2.32833 -4.5861,4.445 -1.55223,4.48027 1.4464,7.97277 4.79777,5.57388 0.56446,-0.42333 1.1289,-0.67027 1.23473,-0.56444 0.38807,0.42333 -0.70556,3.81 -1.69333,5.18583 -1.19944,1.65806 -1.86973,1.76389 -3.21027,0.45861 -1.16417,-1.09361 -1.86973,-0.74083 -1.48167,0.74084 0.56444,2.29305 3.4925,3.03389 5.43277,1.41111 1.97557,-1.69334 2.82223,-4.09222 3.70417,-10.51278 0.74083,-5.46805 0.7761,-5.29167 -1.02307,-6.35 -0.88193,-0.49389 -1.62277,-0.91722 -1.69333,-0.91722 -0.0705,0.0353 -0.70554,0.24694 -1.48167,0.52917 z m 2.36363,2.54 c -0.42333,1.19944 -2.32833,4.51555 -3.0339,5.29166 -1.05833,1.19945 -1.94026,1.05834 -2.18723,-0.38805 -0.38803,-2.04611 1.37584,-4.69195 3.5278,-5.25639 1.48167,-0.35278 1.94027,-0.28222 1.69333,0.35278 z"
         inkscape:connector-curvature="0"
         style="stroke-width:0.03527778" />
      <path
         id="path5114"
         d="m 462.81008,169.6096 c -0.35279,0.38805 -0.3175,1.83444 0.17637,3.35139 0.3528,1.23472 0.3175,1.48166 -0.3175,2.18722 -0.9172,0.98778 -1.2347,2.04611 -0.81137,2.71639 0.28221,0.42333 0.49387,0.42333 1.5875,0.0353 1.16417,-0.38806 1.34054,-0.38806 1.86971,0.24694 0.84666,0.9525 1.97556,1.48167 3.175,1.48167 1.02306,0 2.36363,-1.05834 1.65806,-1.30528 -1.65806,-0.635 -2.89277,-1.48167 -3.3514,-2.32833 -0.52916,-0.9525 -0.52916,-0.98778 1.37584,-2.64584 1.37583,-1.23472 1.86973,-1.86972 1.69333,-2.29305 -0.3175,-0.84667 -1.34054,-0.74084 -2.71637,0.28222 -1.6228,1.19944 -2.04613,1.12889 -2.18723,-0.45861 -0.10584,-1.09361 -0.24694,-1.30528 -0.98777,-1.41111 -0.4939,-0.0706 -1.02307,0 -1.16417,0.14111 z"
         inkscape:connector-curvature="0"
         style="stroke-width:0.03527778" />
      <path
         id="path5116"
         d="m 490.15035,170.52682 c -0.1764,0.24695 -0.4586,0.84667 -0.59973,1.34056 -0.1411,0.49389 -0.49387,1.23472 -0.7761,1.69333 -0.4586,0.74083 -0.67027,0.77611 -2.61057,0.56444 -1.94027,-0.21166 -2.08137,-0.17638 -2.08137,0.49389 0,0.88195 1.0936,1.55223 2.9986,1.79917 l 1.37584,0.21167 -0.0706,1.5875 c -0.10583,1.83444 0.28223,2.57527 1.19947,2.39888 0.52916,-0.0705 0.70553,-0.49388 0.7761,-1.69333 0.1411,-1.905 0.4939,-2.36361 1.94027,-2.64583 2.01083,-0.38806 2.36363,-0.56445 2.36363,-1.05833 0,-0.67028 -1.19947,-1.30528 -1.905,-1.02306 -0.3175,0.10583 -0.8114,0.14111 -1.09363,0 -0.45861,-0.17639 -0.45861,-0.35278 0.0353,-1.62278 0.3175,-0.77611 0.49387,-1.65805 0.35277,-1.94028 -0.24693,-0.635 -1.4111,-0.70555 -1.905,-0.10583 z"
         inkscape:connector-curvature="0"
         style="stroke-width:0.03527778" />
      <path
         id="path5118"
         d="m 568.53756,170.63265 c -0.49388,1.27 0.91723,2.15195 1.905,1.16417 0.3175,-0.3175 0.28223,-0.56444 -0.17638,-1.05833 -0.70556,-0.77611 -1.48166,-0.81139 -1.72862,-0.10584 z"
         inkscape:connector-curvature="0"
         style="stroke-width:0.03527778" />
      <path
         id="path5120"
         d="m 545.99506,174.76015 c -0.0705,0.45862 -0.21167,1.19945 -0.24694,1.65806 -0.0706,0.67028 -0.38806,0.9525 -1.23473,1.16417 -1.44637,0.38805 -1.48167,1.19944 -0.10583,1.97555 0.98779,0.56445 1.05833,0.70556 0.84666,2.08139 -0.17637,1.19944 -0.10583,1.55222 0.3528,1.72861 0.81137,0.3175 1.5522,-0.45861 1.83443,-1.83444 0.1764,-0.9525 0.4939,-1.34056 1.37584,-1.69334 0.635,-0.28222 1.23473,-0.635 1.34056,-0.81139 0.3175,-0.52916 -0.21167,-1.09361 -1.16417,-1.19944 -0.74083,-0.10583 -0.88196,-0.35278 -0.98779,-1.55222 -0.0705,-0.77611 -0.28221,-1.5875 -0.49387,-1.83445 -0.56446,-0.70555 -1.3053,-0.52916 -1.51696,0.3175 z"
         inkscape:connector-curvature="0"
         style="stroke-width:0.03527778" />
      <path
         id="path5122"
         d="m 521.26535,175.60682 c -0.635,1.51695 -0.70556,3.77472 -0.1764,5.15056 0.38807,0.98777 1.4464,1.51694 2.78697,1.37583 0.67026,-0.0706 0.81137,0.0353 0.635,0.56444 -0.10584,0.35278 -0.28224,1.09361 -0.42334,1.69334 -0.88196,3.95111 -4.97416,6.42055 -5.36223,3.24555 -0.1411,-1.05833 -0.91723,-1.83444 -1.51693,-1.48166 -0.24697,0.17638 -0.3175,0.84666 -0.21167,1.86972 0.24693,2.29305 1.5522,3.38666 3.70417,3.13972 3.06916,-0.35278 5.2211,-3.59833 6.24416,-9.34861 0.28221,-1.72861 0.70554,-3.66889 0.91721,-4.30389 0.35279,-0.91722 0.3175,-1.23472 -0.14111,-1.65805 -0.7761,-0.81139 -1.44639,-0.38806 -2.32833,1.41111 -1.4464,3.03388 -3.0339,3.59833 -2.43417,0.88194 0.635,-2.78694 0.56444,-3.63361 -0.35276,-3.73944 -0.635,-0.10584 -0.91724,0.14111 -1.34057,1.19944 z"
         inkscape:connector-curvature="0"
         style="stroke-width:0.03527778" />
      <path
         id="path5124"
         d="m 573.79395,174.90127 c -0.38806,1.05833 0.88194,1.55222 3.84527,1.55222 4.05696,0 4.05696,0.0353 -2.96333,5.67972 -1.02304,0.81139 -1.34054,1.34055 -1.34054,2.11667 0,0.88194 0.21167,1.16416 1.30527,1.5875 1.83444,0.77611 3.3161,0.9525 5.50333,0.70555 4.02167,-0.52917 4.09223,-2.11667 0.0706,-2.01083 -2.46946,0.0353 -4.05696,-0.21167 -4.05696,-0.67028 0,-0.17639 1.05833,-1.09361 2.39889,-2.04611 3.95111,-2.96333 5.11527,-4.55083 4.3039,-6.0325 -0.4939,-0.9525 -2.43417,-1.44639 -5.92667,-1.44639 -2.36362,0 -2.96333,0.10583 -3.13973,0.56445 z"
         inkscape:connector-curvature="0"
         style="stroke-width:0.03527778" />
      <path
         id="path5126"
         d="m 566.80895,176.17127 c -0.10583,0.24694 -0.21166,2.18722 -0.24693,4.33916 -0.10584,3.66889 -0.0706,3.88056 0.5997,3.88056 0.59973,0 0.77613,-0.45861 1.37584,-3.45723 0.49389,-2.68111 0.56446,-3.66888 0.28223,-4.33916 -0.42334,-0.88195 -1.72861,-1.16417 -2.01084,-0.42333 z"
         inkscape:connector-curvature="0"
         style="stroke-width:0.03527778" />
      <path
         id="path5128"
         d="m 42.052026,231.62793 c -0.493889,0.3175 -1.128889,0.52917 -1.446389,0.56444 -0.881944,0 -1.023054,1.02306 -1.023054,7.26723 0,4.37445 0.105833,5.82082 0.493887,6.34999 0.423333,0.52916 0.635,0.59973 1.164167,0.28223 0.529166,-0.3175 0.670279,-1.05834 0.846666,-4.93889 0.246947,-5.46806 0.81139,-7.19667 2.328334,-7.19667 1.481666,0 3.245556,1.27 3.880556,2.75167 0.423333,0.98778 0.49389,2.08139 0.352777,4.48028 -0.176387,3.38667 0.105833,4.76251 0.98778,4.76251 0.881943,0 1.23472,-1.5875 1.23472,-5.5739 0,-3.31611 -0.105833,-3.98639 -0.846667,-5.36222 -1.516943,-2.8575 -5.785553,-4.65667 -7.972777,-3.38667 z"
         inkscape:connector-curvature="0"
         style="stroke-width:0.03527778" />
      <path
         id="path5130"
         d="m 90.382581,233.77987 c -0.56444,0.59973 -1.12889,0.84667 -1.905,0.77612 l -1.09361,-0.0706 -0.28222,4.72722 c -0.3175,5.08 -0.17639,6.38527 0.635,6.38527 0.88194,0 1.48166,-1.48167 1.69333,-4.12749 0.21167,-2.71639 0.74083,-4.05694 2.11667,-5.32694 l 0.88194,-0.81139 0.9525,0.98777 c 0.49389,0.52917 1.34056,1.69334 1.86972,2.54 0.81139,1.41112 0.91723,1.905 0.84667,4.33918 -0.0706,2.5047 -0.0353,2.75167 0.59972,2.75167 1.12889,0 1.55222,-0.9525 1.55222,-3.45723 0.0353,-2.01084 -0.14111,-2.68112 -1.12888,-4.58612 -1.37584,-2.54 -3.88056,-5.00944 -5.08,-5.00944 -0.45861,0 -1.19945,0.38806 -1.65806,0.88194 z"
         inkscape:connector-curvature="0"
         style="stroke-width:0.03527778" />
      <path
         id="path5132"
         d="m 63.74786,235.36737 c -0.776113,0.84667 -0.529167,1.94028 0.881943,3.70417 1.164167,1.48167 1.199444,1.27 -0.599723,3.88055 -1.305277,1.94029 0.07056,2.92806 1.799167,1.27 1.375833,-1.34054 1.834446,-1.34054 3.316113,-0.0705 0.9525,0.81137 1.375833,0.9525 2.116666,0.7761 1.446388,-0.38806 1.305277,-1.19943 -0.458612,-2.43416 -0.881944,-0.59973 -1.5875,-1.27 -1.5875,-1.48167 0,-0.21167 0.705556,-1.05833 1.5875,-1.83445 0.987779,-0.91722 1.5875,-1.76388 1.5875,-2.25777 0,-1.5875 -1.023054,-1.41111 -3.633611,0.70555 l -1.375833,1.09361 -0.81139,-1.02305 c -0.59972,-0.77611 -0.77611,-1.34056 -0.635,-2.04611 0.17639,-0.88195 0.105834,-0.98778 -0.670277,-0.98778 -0.493889,0 -1.164166,0.3175 -1.516943,0.70555 z"
         inkscape:connector-curvature="0"
         style="stroke-width:0.03527778" />
      <path
         id="path5134"
         d="m 493.57229,238.15432 c -0.56444,0.56444 -1.37584,1.09361 -1.83444,1.16417 -0.70556,0.10583 -0.8114,0.42333 -1.19943,3.28083 -0.635,4.9389 -0.59974,7.90223 0.1411,8.18443 0.98777,0.38807 1.7639,-1.05833 2.18723,-4.19803 0.70554,-4.83307 1.905,-7.23196 3.4572,-6.91446 1.09363,0.21167 2.18723,3.56306 2.2578,6.98499 0.0353,3.95113 0.2822,4.7625 1.37583,4.7625 0.81137,0 0.88194,-0.1411 0.98777,-2.11666 0.1411,-2.75167 -0.4939,-7.23194 -1.34056,-9.13694 -1.30527,-3.06916 -4.05694,-3.98639 -6.0325,-2.01083 z"
         inkscape:connector-curvature="0"
         style="stroke-width:0.03527778" />
      <path
         id="path5136"
         d="m 288.82008,238.61293 c -0.38806,0.21167 -0.8114,0.56444 -0.9525,0.77611 -0.14113,0.21167 -0.42333,0.17639 -0.77613,-0.10583 -0.38803,-0.3175 -0.70553,-0.35278 -1.27,-0.0353 -0.70553,0.38806 -0.70553,0.59972 -0.635,6.10305 0.10584,5.50334 0.14113,5.715 0.84667,5.82084 1.19946,0.1764 1.5875,-0.7761 1.905,-4.33917 0.28223,-3.28083 1.02306,-5.3975 2.01083,-5.715 0.21167,-0.0705 0.84667,0.59972 1.41113,1.55222 0.81137,1.41111 1.02304,2.22251 1.16417,4.86835 0.17637,2.96333 0.24693,3.175 0.9525,3.28083 1.16417,0.17637 1.62277,-1.3053 1.37583,-4.3039 -0.1764,-2.57527 -1.30529,-5.36222 -2.92806,-7.26722 -0.91723,-1.09361 -1.905,-1.30528 -3.10444,-0.635 z"
         inkscape:connector-curvature="0"
         style="stroke-width:0.03527778" />
    </g>
  </g>
</svg>
