<?xml version="1.0" encoding="UTF-8" standalone="no"?>
<!-- Created with Inkscape (http://www.inkscape.org/) -->

<svg
   xmlns:dc="http://purl.org/dc/elements/1.1/"
   xmlns:cc="http://creativecommons.org/ns#"
   xmlns:rdf="http://www.w3.org/1999/02/22-rdf-syntax-ns#"
   xmlns:svg="http://www.w3.org/2000/svg"
   xmlns="http://www.w3.org/2000/svg"
   xmlns:sodipodi="http://sodipodi.sourceforge.net/DTD/sodipodi-0.dtd"
   xmlns:inkscape="http://www.inkscape.org/namespaces/inkscape"
   width="85.939545mm"
   height="64.245369mm"
   viewBox="0 0 85.939545 64.24537"
   version="1.1"
   id="svg1417"
   inkscape:version="0.92.5 (2060ec1f9f, 2020-04-08)"
   sodipodi:docname="mem_hierarchy_devices.svg">
  <defs
     id="defs1411" />
  <sodipodi:namedview
     id="base"
     pagecolor="#ffffff"
     bordercolor="#666666"
     borderopacity="1.0"
     inkscape:pageopacity="0.0"
     inkscape:pageshadow="2"
     inkscape:zoom="0.35"
     inkscape:cx="-169.02312"
     inkscape:cy="121.40861"
     inkscape:document-units="mm"
     inkscape:current-layer="layer1"
     showgrid="false"
     fit-margin-top="0"
     fit-margin-left="0"
     fit-margin-right="0"
     fit-margin-bottom="0"
     inkscape:window-width="1920"
     inkscape:window-height="1080"
     inkscape:window-x="1920"
     inkscape:window-y="0"
     inkscape:window-maximized="0" />
  <metadata
     id="metadata1414">
    <rdf:RDF>
      <cc:Work
         rdf:about="">
        <dc:format>image/svg+xml</dc:format>
        <dc:type
           rdf:resource="http://purl.org/dc/dcmitype/StillImage" />
        <dc:title></dc:title>
      </cc:Work>
    </rdf:RDF>
  </metadata>
  <g
     inkscape:label="Layer 1"
     inkscape:groupmode="layer"
     id="layer1"
     transform="translate(145.7793,-116.71065)">
    <g
       id="g2182"
       transform="matrix(0.125,0,0,0.125,-89.958337,130.22917)">
      <path
         id="path1129"
         d="m -79.533541,-107.40631 c -1.34056,0.49389 -2.71639,1.51694 -4.65666,3.38666 -1.55223,1.44639 -2.78694,2.85751 -2.78694,3.10445 0,0.24694 0.3175,0.635 0.70554,0.84667 0.91723,0.493885 1.4464,0.176385 3.88056,-2.29306 2.18723,-2.2225 3.84527,-3.21028 5.92667,-3.56306 1.5875,-0.24694 1.4464,-0.45861 2.54,3.95112 0.42333,1.72861 1.05833,2.363607 2.18723,2.187218 0.9525,-0.141111 0.9525,-0.493888 0,-4.092218 -0.88196,-3.42195 -1.7639,-4.30389 -4.09223,-4.26862 -0.98777,0 -2.64583,0.3175 -3.70417,0.74084 z"
         inkscape:connector-curvature="0"
         style="stroke-width:0.03527778" />
      <path
         id="path1131"
         d="m -156.47437,-107.2652 c -3.175,1.37583 -6.24417,6.27944 -4.37446,6.985 0.77613,0.282222 1.02306,0.0706 2.43417,-2.08139 1.19946,-1.905 3.24556,-3.35139 4.69196,-3.35139 0.9525,0 1.79916,1.09361 2.39887,3.03389 0.8114,2.681112 2.2225,3.739445 3.31613,2.43417 0.3175,-0.38806 0.2822,-0.67028 -0.14113,-1.30528 -0.3175,-0.42333 -0.56444,-1.02306 -0.56444,-1.30528 0,-1.09361 -1.55223,-3.66889 -2.61056,-4.30389 -1.30527,-0.81139 -3.45721,-0.84666 -5.15054,-0.10583 z"
         inkscape:connector-curvature="0"
         style="stroke-width:0.03527778" />
      <path
         id="path1133"
         d="m -139.01187,-107.2652 c -1.5875,0.81139 -2.89279,2.18722 -4.26863,4.445 -1.34054,2.18722 -1.30527,2.75167 0.0353,2.75167 0.67027,0 1.30527,-0.56445 2.61054,-2.39889 0.98779,-1.34056 2.15196,-2.61056 2.64583,-2.82223 0.8114,-0.35277 0.98779,-0.3175 1.41113,0.38806 0.2822,0.42333 0.74083,1.55222 0.9525,2.54 0.52916,2.01083 1.19943,2.998612 2.08137,2.998612 0.91723,0 1.51696,-0.881942 1.1289,-1.658052 -0.21167,-0.35278 -0.635,-1.5875 -0.9525,-2.71639 -1.05834,-3.59834 -3.06917,-4.86834 -5.64444,-3.52778 z"
         inkscape:connector-curvature="0"
         style="stroke-width:0.03527778" />
      <path
         id="path1135"
         d="m -101.08827,-106.91242 c -0.88193,0.49389 -2.5047,1.83444 -3.66887,2.99861 -2.2225,2.25778 -2.3989,3.13972 -0.59973,3.13972 0.84667,0 1.51694,-0.49389 3.28083,-2.29305 3.033899,-3.06917 3.668899,-3.10445 5.573899,-0.10584 2.15194,3.492502 2.64583,3.880557 3.88054,3.10445 0.45863,-0.28223 0.35279,-0.67028 -0.67027,-2.64584 -0.635,-1.23472 -1.79917,-2.92805 -2.54,-3.70416 -1.65806,-1.72862 -2.92806,-1.83445 -5.256399,-0.49389 z"
         inkscape:connector-curvature="0"
         style="stroke-width:0.03527778" />
      <path
         id="path1139"
         d="m -119.04466,-107.08881 c -0.84667,0.17639 -2.2225,0.635 -3.06917,1.02305 -1.94027,0.9525 -4.79777,4.05695 -4.65667,5.08 0.21167,1.375837 1.34057,1.093615 3.10446,-0.77611 1.97554,-2.08139 3.28084,-2.82222 5.3975,-3.10444 1.83444,-0.24695 2.50471,0.24694 3.10444,2.43417 0.38806,1.55222 1.19944,2.716384 1.905,2.716384 0.21167,0 0.67027,-0.211667 1.02306,-0.458614 0.4939,-0.38805 0.56444,-0.635 0.28224,-1.16416 -0.2117,-0.35278 -0.63503,-1.41111 -0.95253,-2.32834 -0.56444,-1.65805 -2.25777,-3.45722 -3.175,-3.45722 -0.24694,0 -0.67027,-0.0706 -0.9525,-0.14111 -0.24694,-0.0706 -1.16417,0 -2.01083,0.17639 z"
         inkscape:connector-curvature="0"
         style="stroke-width:0.03527778" />
      <path
         id="path1141"
         d="m -59.989641,-106.98298 c -0.56446,0.24695 -2.0814,1.44639 -3.3514,2.61056 -1.97556,1.83444 -2.2225,2.2225 -1.905,2.78694 0.70557,1.16417 1.51694,0.91722 3.77473,-1.23472 1.19944,-1.16417 2.61054,-2.2225 3.175,-2.36361 1.55221,-0.38806 2.68111,0.0705 3.21027,1.34055 1.69334,4.021671 1.55223,3.81 2.78694,3.70417 1.30529,-0.10583 1.34056,-0.3175 0.28223,-3.10444 -0.42333,-1.12889 -1.27,-2.43417 -1.97556,-3.10445 -1.05834,-0.98778 -1.48167,-1.12889 -3.06917,-1.12889 -1.02304,0.0353 -2.32833,0.24695 -2.92804,0.49389 z"
         inkscape:connector-curvature="0"
         style="stroke-width:0.03527778" />
      <path
         id="path1143"
         d="m -175.3127,-106.20687 c -2.3989,1.19945 -3.38667,2.04611 -4.69196,3.95111 -1.37584,2.01084 -1.44638,2.822226 -0.3175,3.104448 1.12889,0.282223 1.48166,0.03528 2.29306,-1.552218 0.38806,-0.70556 1.05833,-1.65806 1.51694,-2.08139 1.02306,-0.9525 3.70416,-2.18723 4.7625,-2.2225 0.98779,0 1.86973,1.30527 2.11666,3.13972 0.21167,1.65806 0.77613,2.257777 1.9403,2.081388 0.74083,-0.105833 0.81137,-0.282218 0.70554,-1.693328 -0.3175,-4.83306 -4.02167,-6.94973 -8.32554,-4.72723 z"
         inkscape:connector-curvature="0"
         style="stroke-width:0.03527778" />
      <path
         id="path1145"
         d="m -39.987141,-105.85409 c -1.94029,0.9525 -4.65667,3.70417 -4.65667,4.72722 0,0.77611 0.91721,1.164169 1.69334,0.74084 0.3175,-0.21167 1.2347,-1.02306 2.01083,-1.83445 3.24554,-3.42194 6.45583,-3.21028 7.05554,0.42334 0.3175,2.010828 1.05833,3.139717 2.04613,3.139717 1.44637,0 1.76387,-0.458611 1.19943,-1.799167 -0.3175,-0.67028 -0.70556,-1.86972 -0.91723,-2.68111 -0.24693,-0.91722 -0.84666,-1.86972 -1.62277,-2.54 -1.65806,-1.44639 -4.1275,-1.51695 -6.8086,-0.17639 z"
         inkscape:connector-curvature="0"
         style="stroke-width:0.03527778" />
      <path
         id="path1147"
         d="m -193.76299,-105.71298 c -1.5875,0.70556 -6.80861,5.67972 -6.80861,6.491113 0,0.740833 0.9525,1.340555 1.69333,1.093611 0.38806,-0.105833 1.23473,-0.881944 1.86973,-1.728611 1.83444,-2.293053 3.66888,-3.739443 5.04472,-3.986393 l 1.27,-0.21166 1.05833,2.36361 c 1.19945,2.610554 2.43417,3.598332 3.35139,2.645832 0.45861,-0.458611 0.35278,-0.846667 -0.91722,-3.245552 -1.48167,-2.82223 -2.89278,-4.16278 -4.37445,-4.09223 -0.38805,0 -1.37583,0.3175 -2.18722,0.67028 z"
         inkscape:connector-curvature="0"
         style="stroke-width:0.03527778" />
      <path
         id="path1149"
         d="m -18.009101,-105.50131 c -1.34054,0.52916 -2.9986,1.65805 -4.40971,2.92805 -2.18723,1.97556 -2.25779,2.11667 -1.69333,2.716393 0.7761,0.776111 1.5875,0.458611 3.98637,-1.622773 1.7639,-1.51695 4.3039,-2.82223 5.50334,-2.82223 0.81139,0 1.55223,1.09361 2.08139,3.06917 0.42334,1.622777 1.37584,2.398888 2.50473,2.046111 0.4938804,-0.176389 0.6350004,-0.423334 0.4938804,-0.811389 -0.14111,-0.352782 -0.42334,-1.234722 -0.5997104,-2.010832 -0.38806,-1.69334 -1.51696,-3.59834 -2.3989,-4.05695 -1.0936,-0.59972 -3.24556,-0.35277 -5.46806,0.56445 z"
         inkscape:connector-curvature="0"
         style="stroke-width:0.03527778" />
      <path
         id="path1151"
         d="m -232.10994,-104.44298 c -2.8575,1.02306 -3.77472,1.86972 -5.00944,4.621391 -1.37583,3.033888 -1.44639,3.4925 -0.52917,3.739444 1.02306,0.246944 2.08139,-0.670278 2.50473,-2.187222 0.45861,-1.799163 1.51694,-3.069163 3.21027,-3.915833 1.83445,-0.9525 2.39889,-0.88194 2.64584,0.24694 0.49389,2.398893 1.23472,3.880559 2.15194,4.303893 0.74084,0.352777 1.02306,0.3175 1.44639,-0.07056 0.42333,-0.458611 0.42333,-0.635 -0.0353,-1.340555 -0.28222,-0.458611 -0.635,-1.411108 -0.77611,-2.081388 -0.3175,-1.83445 -0.91722,-2.82222 -2.01083,-3.38667 -1.16417,-0.59972 -1.83445,-0.59972 -3.59834,0.0706 z"
         inkscape:connector-curvature="0"
         style="stroke-width:0.03527778" />
      <path
         id="path1153"
         d="m -215.28243,-103.94909 c -1.05834,0.59972 -2.29306,1.69333 -2.89278,2.61056 -0.59972,0.84666 -1.30528,1.622774 -1.62278,1.728607 -0.67028,0.282223 -0.70556,1.446389 0,2.010833 0.81139,0.670278 1.83444,0.07056 3.42194,-2.04611 1.76389,-2.32833 4.37445,-3.91583 5.46806,-3.31611 0.35278,0.21167 1.19944,1.27 1.86972,2.39889 1.27,2.046108 2.32834,2.786942 3.21028,2.222497 0.38806,-0.246944 0.28222,-0.705555 -0.70555,-2.610557 -1.62278,-3.13972 -2.75167,-4.05694 -5.08001,-4.05694 -1.37583,0 -2.29305,0.28222 -3.66888,1.05833 z"
         inkscape:connector-curvature="0"
         style="stroke-width:0.03527778" />
      <path
         id="path1155"
         d="m -256.06355,-104.12548 c -2.64583,1.09361 -6.70278,6.702779 -6.52639,8.995835 0.0706,0.987778 0.28222,1.27 0.91723,1.340556 0.52916,0.07055 0.84666,-0.105834 0.9525,-0.529167 0.91722,-2.998611 4.72722,-8.219724 6.06777,-8.219724 0.70556,0 1.83445,2.08139 2.08139,3.880557 0.35278,2.293056 0.70556,3.069167 1.55222,3.351389 0.9525,0.3175 1.83445,-0.423333 1.44639,-1.199444 -0.17639,-0.3175 -0.42333,-1.340556 -0.56444,-2.328334 -0.35278,-2.469448 -1.65806,-4.938888 -2.89278,-5.397498 -1.19944,-0.45861 -1.72861,-0.42334 -3.03389,0.10583 z"
         inkscape:connector-curvature="0"
         style="stroke-width:0.03527778" />
      <path
         id="path1157"
         d="m -84.507701,-96.505478 c -7.26723,0.105833 -31.467799,0.388055 -53.798629,0.635 -42.29804,0.423333 -66.53388,0.881944 -74.61249,1.446389 -2.61056,0.176389 -9.27806,0.493889 -14.81667,0.705555 -9.87778,0.352778 -22.01334,1.058334 -29.98611,1.763889 -2.2225,0.176389 -5.89139,0.493889 -8.14917,0.705556 -2.2225,0.176389 -5.92667,0.352778 -8.18445,0.352778 -3.98638,0 -4.16277,0.03528 -4.48027,0.776111 -0.28223,0.776111 -0.3175,0.776111 -0.3175,0.07056 -0.0353,-0.917222 -1.19945,-2.010833 -2.01084,-1.834444 -0.9525,0.176389 -1.48166,1.27 -0.84666,1.693333 0.45861,0.282222 0.52916,1.869723 0.56444,10.477502 0.0353,5.573887 0.21167,11.88861 0.45861,14.040554 0.52917,5.080002 1.44639,26.811112 1.44639,35.101392 0,7.3025 -0.49389,20.35528 -1.27,32.8083313 -0.59972,9.7366697 -0.67028,41.8394497 -0.14111,50.7999997 0.56444,9.03111 1.19944,12.10028 2.82222,13.58195 0.70556,0.67027 1.48167,0.70555 10.19528,0.91722 19.72028,0.49389 36.37139,1.05833 40.78111,1.37583 2.54,0.17639 8.64306,0.49389 13.58195,0.70556 4.93889,0.21166 12.10028,0.59972 15.875,0.88194 3.77472,0.28222 10.54806,0.67028 14.99306,0.88195 4.48027,0.21166 11.14777,0.59972 14.81667,0.88194 3.70417,0.28222 10.37167,0.67028 14.81667,0.88195 4.48027,0.21166 9.87777,0.52916 11.99443,0.70555 2.15194,0.17639 7.23194,0.49389 11.2889,0.70556 4.09221,0.21166 11.39471,0.70555 16.22777,1.09361 4.86833,0.38805 10.9714,0.84667 13.581959,1.05833 2.61054,0.17639 8.18444,0.635 12.34721,1.02306 9.87779,0.88194 24.37696,1.94028 35.63056,2.64583 16.29833,0.9525 29.42167,1.5875 53.2694404,2.50472 4.37446,0.17639 5.75029,0.35278 6.80862,0.88195 0.91721,0.45861 2.0813796,0.67028 3.7747096,0.67028 h 2.43417 l -0.52917,1.30527 c -0.59971,1.44639 -1.69333,2.78695 -2.71637,3.35139 -0.8114,0.42334 -1.4816696,-0.10583 -2.3636296,-1.86972 -0.74083,-1.44639 -1.62277,-1.94028 -2.32833,-1.34056 -0.77611,0.635 -0.59971,1.79917 0.56446,3.59834 1.69333,2.68111 3.4571996,2.99861 6.2088696,1.16416 2.01083,-1.37583 3.13973,-3.24555 2.8575,-4.79777 l -0.21167,-0.9525 2.5753,0.17639 c 2.25777,0.14111 2.71637,0.0705 3.84527,-0.67028 1.5875,-1.05834 3.24556,-3.73945 3.91583,-6.45584 0.88194,-3.38666 1.48167,-35.06611 0.9525,-49.60055 -0.38806,-10.19528 -1.4111,-25.6116697 -1.97556,-29.4569497 -0.38804,-2.54 -0.9525,-9.1016613 -1.09361,-12.6999973 -0.0706,-1.940277 -0.35277,-6.314721 -0.635,-9.701388 -0.28223,-3.386666 -0.635,-8.396112 -0.74083,-11.112502 -0.24694,-5.609167 -1.48167,-18.697223 -1.94027,-20.81389 -0.1764,-0.77611 -0.35279,-2.257777 -0.35279,-3.280833 0,-1.023054 -0.14111,-2.928054 -0.3175,-4.233334 -0.21167,-1.305277 -0.52917,-4.198056 -0.74084,-6.420556 -1.12887,-11.359444 -2.54,-18.838333 -4.05693,-21.872222 -0.98777,-1.905 -3.10444,-3.563056 -5.46807,-4.268612 -2.9633296,-0.846666 -65.82833,-1.516944 -94.54443,-0.987777 z m 85.44277043,2.046111 c 6.27945997,0.3175 6.73805997,0.352778 8.88999997,1.375833 1.2699996,0.599723 2.5399996,1.481667 2.8927896,2.010834 1.12887,1.728611 2.6811,8.784167 3.4925,15.875 0.56444,4.868333 0.67027,5.891389 1.7286,16.051389 0.3175,2.822223 0.70557,6.52639 0.91723,8.29028 0.84667,6.879167 1.12888,10.4775 1.41111,16.756943 0.35277,8.219724 1.27,20.073057 1.79916,22.507226 0.21167,1.023054 0.28223,2.4694443 0.14111,3.2455543 -0.14111,0.740836 0.0353,3.563056 0.3175,6.244166 1.79916,15.6986097 2.50473,33.0552797 2.18723,53.1988897 -0.3175,20.70806 -0.59973,25.99973 -1.5875,28.25751 -1.05834,2.39888 -2.04611,3.31611 -3.42194,3.31611 -1.27,0 -4.51556,-0.635 -5.60917,-1.05834 -0.67029,-0.28222 -5.7855596,-0.52916 -39.51112,-1.94027 -6.985,-0.28223 -13.72304,-0.59973 -14.99304,-0.70556 -1.27,-0.10583 -6.42057,-0.42333 -11.4653,-0.70556 -10.7597,-0.635 -18.5561,-1.23472 -34.7486,-2.64583 -6.4911,-0.56444 -13.1586,-1.12889 -14.816669,-1.23472 -1.65806,-0.14111 -6.42056,-0.52917 -10.58333,-0.88195 -4.16279,-0.35277 -9.56029,-0.77611 -11.99446,-0.88194 -2.43417,-0.14111 -8.85471,-0.52917 -14.2875,-0.88195 -5.43277,-0.35277 -12.24137,-0.77611 -15.16944,-0.88194 -2.89277,-0.10583 -8.14916,-0.45861 -11.64166,-0.70556 -3.4925,-0.28222 -9.91307,-0.67027 -14.2875,-0.88194 -4.37445,-0.21167 -10.08945,-0.52917 -12.7,-0.70556 -2.61056,-0.17638 -8.18445,-0.49388 -12.34723,-0.70555 -4.16277,-0.21167 -11.64166,-0.59972 -16.58055,-0.88195 -11.85334,-0.67027 -26.91695,-1.19944 -42.43917,-1.51694 -14.35806,-0.28222 -13.26445,-0.0353 -14.00528,-3.38667 -0.21167,-0.98777 -0.56444,-3.88055 -0.74083,-6.38528 -0.45861,-5.78555 -0.42334,-46.2844397 0.0353,-52.9166697 1.44639,-21.3430523 1.27,-46.1433293 -0.52916,-72.4958323 -0.3175,-4.93889 -0.42334,-9.630833 -0.28222,-13.511389 l 0.21166,-5.891389 1.27,-0.03528 c 0.70556,0 2.15195,0 3.21028,0.03528 2.04611,0.03528 16.93333,-0.917223 19.05,-1.234723 2.39889,-0.352777 23.495,-1.5875 27.34028,-1.5875 2.15195,0 7.23195,-0.246944 11.28889,-0.564444 11.14778,-0.811389 26.88167,-1.128889 71.96666,-1.552223 22.50723,-0.211666 45.684729,-0.529166 51.505559,-0.705555 12.94696,-0.352778 84.9489004,-0.105834 94.08584043,0.3175 z"
         inkscape:connector-curvature="0"
         style="stroke-width:0.03527778" />
      <path
         id="path1159"
         d="m -247.63216,-71.669921 c -0.35278,0.917221 -0.24694,8.71361 0.14111,13.758333 0.35278,4.233334 0.74084,8.396111 2.32834,25.223613 0.49388,4.974167 0.635,10.830277 0.67027,30.5152833 0.0353,13.3702697 0.17639,24.9413897 0.3175,25.6469397 0.45862,2.18722 0.59973,2.2225 7.26723,1.72861 12.7,-0.98777 52.35222,1.19945 86.43055,4.72723 5.78556,0.59972 37.32389,1.44638 40.67529,1.09361 3.175,-0.35278 3.24556,-0.42334 3.13973,-3.45723 -0.10583,-2.92805 -1.23473,-14.85194 -2.01083,-21.5194397 -0.6703,-5.67971997 -2.18723,-22.9658363 -2.7164,-30.7975033 -0.24693,-3.915833 -0.28223,-9.877779 -0.10583,-17.286113 0.17639,-6.208889 0.3175,-14.393333 0.3175,-18.168056 0.0353,-6.279444 -0.0353,-6.985 -0.67027,-8.07861 -0.42336,-0.740834 -1.1289,-1.340557 -1.7639,-1.516946 -1.05833,-0.3175 -10.61863,-0.564444 -48.78917,-1.375834 -25.01195,-0.493887 -78.38723,0.07056 -81.63278,0.917223 -2.18723,0.564444 -0.17639,2.610557 2.08138,2.151944 1.62278,-0.352777 34.29001,-0.9525 52.31695,-0.9525 26.84639,-0.03528 74.96529,1.12889 75.63556,1.799167 0.28223,0.282223 0.35277,3.104446 0.21166,9.807223 -0.4586,28.363336 -0.10583,38.029446 2.46946,62.6886153 1.5875,15.2752797 1.79917,17.7799997 1.86971,20.6374997 l 0.0706,2.64583 -2.11666,0.17639 c -1.16417,0.10584 -8.53723,0.0706 -16.40417,-0.0353 -11.88863,-0.21167 -16.26306,-0.42334 -26.10556,-1.34056 -6.49111,-0.59972 -14.49917,-1.30528 -17.81527,-1.62278 -9.8425,-0.88194 -29.45696,-2.25778 -37.74723,-2.64583 -9.63084,-0.45861 -26.74056,-0.56445 -29.84501,-0.21167 l -2.32833,0.28222 -0.21167,-1.16416 c -0.10583,-0.67028 -0.21166,-11.28889 -0.21166,-23.6008397 -0.0353,-21.8016663 -0.17639,-25.7174993 -1.27,-37.0769433 -0.28222,-2.998613 -0.67028,-7.514166 -0.88195,-10.018889 -0.21166,-2.54 -0.52916,-6.561667 -0.77611,-8.995834 -0.21167,-2.434166 -0.42333,-6.632223 -0.42333,-9.348613 l -0.0353,-4.938889 -0.91722,-0.105834 c -0.59972,-0.07055 -1.02306,0.105834 -1.16417,0.458613 z"
         inkscape:connector-curvature="0"
         style="stroke-width:0.03527778" />
      <path
         id="path1161"
         d="m -46.231311,-70.576311 c -1.34056,0.07056 -6.84389,0.282223 -12.17083,0.49389 -11.99446,0.45861 -18.76779,0.987777 -19.2264,1.516944 -0.21166,0.246943 -0.67027,0.599723 -1.02306,0.77611 -0.56444,0.3175 -0.635,0.81139 -0.59971,4.092223 0.10584,5.43278 -0.59973,20.778613 -1.41112,30.409446 -0.35277,4.62139 -0.67027,9.489723 -0.67027,10.83028 0,1.340554 -0.14111,2.54 -0.35277,2.645833 -0.1764,0.105833 -0.88196,-0.17639 -1.48167,-0.635 -1.7639,-1.340556 -4.05696,-2.363613 -4.65667,-2.151946 -0.635,0.246946 -0.77612,1.375833 -0.21166,1.728613 1.12887,0.705554 -0.28223,0.881943 -7.23196,0.881943 -6.208879,0 -7.584709,-0.105833 -7.584709,-0.493889 0,-0.246944 -0.24696,-0.670277 -0.52917,-0.917221 -0.70556,-0.599723 -2.85749,0.07055 -4.79779,1.481667 -1.76387,1.27 -1.79917,2.18722 -0.0353,3.069166 2.64583,1.340554 5.8561,2.504721 6.45583,2.328334 1.34057,-0.423334 1.05834,-2.010834 -0.42333,-2.469446 -1.69333,-0.564444 -0.1764,-0.705554 5.961939,-0.599721 3.63363,0.07055 6.63223,0.176387 6.70279,0.246944 0.0705,0.07056 -0.0706,0.45861 -0.28223,0.881943 -0.8114,1.516946 1.05833,2.39889 2.25777,1.093613 0.3528,-0.388056 1.4464,-1.023056 2.43417,-1.44639 1.02306,-0.423333 2.11666,-1.023056 2.46946,-1.340556 0.3175,-0.282221 0.67027,-0.45861 0.7761,-0.352777 0.28223,0.282223 -0.42333,7.408333 -1.97556,19.6849963 -1.48167,11.9238897 -2.36361,24.7297297 -1.83444,26.8111197 l 0.3175,1.23472 3.88057,-0.14111 c 4.02166,-0.10583 12.62943,0.3175 22.89526,1.19944 3.31611,0.28223 9.24277,0.67028 13.22917,0.88195 9.56027,0.45861 24.48277,1.34055 26.8464,1.5875 2.8222,0.28222 3.38667,-0.35278 4.33917,-4.7625 0.9525,-4.58611 1.27,-9.06639 1.27,-19.4027797 0,-5.53861 0.1411,-12.13556 0.35276,-14.64028 0.88194,-10.6538893 0.52917,-31.7500023 -0.91723,-51.5055593 -0.70553,-9.771943 -1.4111,-11.782776 -4.62137,-12.558889 -0.74083,-0.176387 -5.92666,-0.3175 -11.57113,-0.3175 -5.60916,0 -11.1125,-0.03528 -12.17083,-0.105834 -1.05833,-0.07055 -3.03387,-0.07055 -4.40971,-0.03528 z m 26.67,2.54 c 2.68111,0.352777 3.03388,1.093611 3.66888,7.902223 1.34056,14.14639 1.97556,41.204447 1.23473,52.2816663 -0.21167,3.4925 -0.56444,12.24139 -0.70557,19.4380597 -0.2822,12.94695 -0.635,16.36889 -1.76387,18.52083 -0.35279,0.67028 -0.635,0.74084 -1.86973,0.56445 -3.52777,-0.45861 -11.8886,-0.98778 -25.99973,-1.62278 -4.16277,-0.17639 -9.10167,-0.49389 -10.9361,-0.70555 -6.10307,-0.635 -18.80307,-1.41112 -23.1775,-1.41112 -2.3989,0 -4.37444,-0.14111 -4.51557,-0.35277 -0.4586,-0.77611 0.8114,-17.0038897 2.15196,-27.16388967 0.45861,-3.59834003 0.91721,-7.16139003 1.02304,-7.93750303 0.28223,-2.2225003 0.8114,-8.6783363 1.5875,-19.7555573 0.38807,-5.644446 0.77613,-10.548056 0.88196,-10.936112 0.21167,-0.987777 0.91721,-18.485557 0.9525,-23.67139 l 0.0353,-4.30389 2.50473,-0.07056 c 1.37584,-0.03528 5.67971,-0.246944 9.56027,-0.458611 7.62,-0.45861 42.26277,-0.670277 45.36723,-0.3175 z"
         inkscape:connector-curvature="0"
         style="stroke-width:0.03527778" />
      <path
         id="path1163"
         d="m -67.433271,-52.831588 c -1.62277,0.740834 -2.61054,1.905 -2.61054,3.069167 0,1.058333 2.2225,3.175 4.69194,4.409723 2.25777,1.164167 2.57527,1.975557 1.27,3.63361 -0.9525,1.199447 -1.4464,1.164167 -3.10444,-0.3175 -2.71639,-2.469443 -3.56306,-0.811387 -0.91723,1.869724 1.48167,1.481666 1.69334,1.552223 3.0339,1.375833 1.55221,-0.211667 2.89277,-1.199444 3.70417,-2.786944 1.12887,-2.187223 0.24693,-4.092223 -2.61057,-5.538613 -2.2225,-1.128889 -3.59833,-2.293056 -3.59833,-2.99861 0,-0.529166 1.48167,-1.27 2.57527,-1.27 1.27,0 1.905,-0.564446 1.4464,-1.305279 -0.52917,-0.881944 -2.15194,-0.9525 -3.88057,-0.141111 z"
         inkscape:connector-curvature="0"
         style="stroke-width:0.03527778" />
      <path
         id="path1165"
         d="m -57.343811,-52.866864 -1.23473,0.59972 0.10584,5.397503 c 0.17639,6.455833 0.35277,7.3025 1.48166,7.3025 h 0.84667 l -0.1411,-3.880557 c -0.0706,-2.151943 -0.14113,-4.7625 -0.1764,-5.820833 v -1.94028 l 1.48167,-0.105833 c 1.7286,-0.14111 2.9986,0.423333 2.71639,1.164167 -0.10583,0.282223 -0.74083,0.811389 -1.41112,1.199446 -1.48167,0.881943 -1.55221,1.905 -0.28221,4.62139 1.02304,2.2225 1.69333,3.033887 3.03387,3.739443 0.91723,0.45861 2.04613,0.352777 2.04613,-0.211666 0,-0.141111 -0.635,-1.058334 -1.41113,-1.975557 -0.7761,-0.9525 -1.62277,-2.328333 -1.83443,-3.033887 -0.35277,-1.234723 -0.3175,-1.340556 0.91723,-2.540003 1.05833,-0.987777 1.27,-1.41111 1.0936,-2.04611 -0.4586,-1.516943 -1.16417,-2.257777 -2.57527,-2.68111 -1.86973,-0.564446 -3.175,-0.49389 -4.65667,0.211667 z"
         inkscape:connector-curvature="0"
         style="stroke-width:0.03527778" />
      <path
         id="path1167"
         d="m -44.114641,-51.138254 c -1.41113,1.41111 -2.18723,3.210277 -2.68113,5.961946 -0.21166,1.340554 -0.635,2.716387 -0.9172,3.033887 -0.6703,0.740833 -0.3528,1.693333 0.56443,1.693333 0.91723,0 2.15194,-1.622776 2.15194,-2.8575 0,-1.058333 0.0706,-1.09361 3.45723,-1.023053 0.1411,0 0.42333,0.529166 0.635,1.164166 0.28223,0.846667 0.59973,1.128887 1.23473,1.128887 0.7761,0 0.84667,-0.14111 0.74083,-1.305276 -0.0706,-1.023057 0.0705,-1.375834 0.635,-1.693334 0.81138,-0.423333 0.635,-0.9525 -0.49389,-1.375833 -0.42334,-0.17639 -0.9525,-0.881944 -1.19944,-1.658057 -1.05833,-3.175 -1.5875,-4.021666 -2.36363,-4.021666 -0.42333,0 -1.2347,0.423333 -1.76387,0.9525 z m 1.76387,2.99861 c 0.52917,1.270003 0.24696,1.693336 -1.12887,1.693336 -0.9525,0 -1.05833,-0.881946 -0.24696,-2.046113 0.70556,-1.023056 0.77613,-0.987777 1.37583,0.352777 z"
         inkscape:connector-curvature="0"
         style="stroke-width:0.03527778" />
      <path
         id="path1169"
         d="m -29.474371,-50.609088 c -0.38806,0.635 -0.8114,1.516944 -0.91723,1.940277 -0.3175,1.16417 -1.05833,0.98778 -1.4111,-0.352777 -0.24694,-0.846666 -0.56444,-1.164166 -1.27,-1.234723 -1.1289,-0.14111 -1.79917,0.917223 -2.54,4.056947 -0.24694,1.128889 -0.74084,2.645833 -1.05834,3.421943 -0.635,1.552223 -0.49389,1.975557 0.67027,1.975557 0.9878,0 1.72863,-1.164167 2.11667,-3.280834 0.14113,-0.705556 0.38806,-1.305277 0.52917,-1.305277 0.14112,0 0.49389,0.635 0.81139,1.446387 0.45861,1.164167 0.70557,1.411113 1.37584,1.30528 0.59973,-0.07056 0.98777,-0.564446 1.51693,-1.94028 0.38807,-1.023053 0.8114,-1.86972 0.9878,-1.86972 0.1411,0 0.24693,0.846667 0.2822,1.834444 0.0353,2.68111 0.70557,4.691943 1.55223,4.691943 0.67027,0 0.70557,-0.28222 0.77611,-4.938887 0.0706,-5.538613 -0.21167,-6.632223 -1.72861,-6.808613 -0.7761,-0.105833 -1.12889,0.14111 -1.69333,1.058333 z"
         inkscape:connector-curvature="0"
         style="stroke-width:0.03527778" />
      <path
         id="path1171"
         d="m -194.50382,-58.652421 c -2.08139,0.670277 -3.24556,1.516944 -3.24556,2.328333 0,1.058334 0.52917,1.12889 2.39889,0.17639 1.86972,-0.9525 3.38667,-1.093613 5.32695,-0.529166 1.86972,0.529166 2.15194,1.375833 1.41111,3.986387 -0.3175,1.12889 -0.635,1.481666 -1.83445,2.010833 -0.81139,0.35278 -2.15194,0.705556 -2.92805,0.81139 l -1.48167,0.17639 -0.21167,-1.799167 c -0.3175,-2.328333 -0.74083,-3.069167 -1.79916,-3.069167 -1.02306,0 -1.05834,0.282221 -0.56445,4.90361 0.21167,1.658057 0.52917,4.868334 0.77611,7.090834 0.35278,3.81 0.98778,5.997223 1.69334,5.997223 0.81139,0 0.9525,-1.058333 0.70555,-4.58611 -0.17639,-2.046113 -0.35278,-4.374447 -0.38805,-5.221113 l -0.10584,-1.516944 1.97556,-0.141113 c 4.55083,-0.28222 6.6675,-2.398887 6.6675,-6.702776 0,-2.54 -1.62278,-3.915834 -5.00944,-4.233334 -1.12889,-0.105833 -2.46945,0.03528 -3.38667,0.3175 z"
         inkscape:connector-curvature="0"
         style="stroke-width:0.03527778" />
      <path
         id="path1173"
         d="m -165.22327,-57.805754 c -0.84666,0.846666 -1.30527,4.656666 -0.9525,7.76111 0.1764,1.693333 0.0706,2.540003 -0.84666,5.397503 -1.23473,3.845277 -2.15194,5.3975 -3.91584,6.596943 -2.50473,1.693334 -6.06777,0.105834 -7.69056,-3.386666 -1.19944,-2.645834 -1.37583,-5.644444 -0.59971,-10.795 0.35277,-2.2225 0.52917,-4.30389 0.38804,-4.62139 -0.24693,-0.705557 -1.62277,-0.564444 -2.01083,0.17639 -0.56444,1.09361 -1.48166,9.136943 -1.30527,11.359443 0.4586,5.644446 4.33917,10.16 8.7489,10.16 3.6336,0 6.3147,-2.434167 8.14916,-7.373054 1.02304,-2.786946 1.12888,-3.527779 1.41111,-9.031113 0.21166,-4.7625 0.17639,-6.103056 -0.21167,-6.49111 -0.38806,-0.388056 -0.56444,-0.352779 -1.16417,0.246944 z"
         inkscape:connector-curvature="0"
         style="stroke-width:0.03527778" />
      <path
         id="path1175"
         d="m -213.5891,-54.983531 c -3.91583,3.915833 -5.43278,6.773333 -5.46806,10.054167 -0.0353,4.021666 2.08139,7.161389 6.20889,9.242776 3.03389,1.516947 5.67973,1.658057 8.39611,0.49389 2.01084,-0.881943 3.06917,-2.151943 2.32834,-2.751666 -0.35278,-0.3175 -0.91722,-0.246944 -2.18722,0.246943 -2.96334,1.164167 -4.09223,1.234723 -6.31473,0.388057 -5.04472,-1.869723 -7.12611,-6.491111 -4.97416,-11.077224 0.42333,-0.987776 1.94027,-2.963333 3.28083,-4.409723 2.25778,-2.398887 2.61055,-2.645833 3.81,-2.645833 0.91722,0 1.44639,-0.211667 1.72861,-0.635 0.52917,-0.881944 -0.84667,-2.010833 -2.46944,-2.010833 -1.05834,0 -1.62278,0.423333 -4.33917,3.104446 z"
         inkscape:connector-curvature="0"
         style="stroke-width:0.03527778" />
      <path
         id="path1179"
         d="m 23.512859,-84.122978 c -1.02306,1.023056 -0.10583,1.834445 3.77471,3.139724 1.09362,0.388054 2.57529,1.09361 3.31612,1.622777 1.86971,1.305277 1.69334,2.293056 -0.81139,4.198056 -2.04611,1.552221 -2.32834,2.116667 -1.34057,2.751667 0.4939,0.28222 1.09363,0.03528 3.0339,-1.30528 3.24556,-2.2225 3.88056,-3.63361 2.54,-5.53861 -1.02306,-1.41111 -3.59833,-3.033889 -6.27944,-3.915834 -1.30529,-0.423333 -2.50473,-0.881944 -2.68112,-1.058333 -0.49388,-0.423333 -1.05834,-0.388056 -1.55221,0.105833 z"
         inkscape:connector-curvature="0"
         style="stroke-width:0.03527778" />
      <path
         id="path1181"
         d="m -290.84744,-80.030754 c -0.88194,0.3175 -2.08139,1.09361 -2.71639,1.693333 -2.89278,2.928054 -1.05833,5.679721 4.37445,6.49111 2.99861,0.49389 4.40972,0.246944 4.23333,-0.635 -0.0706,-0.423333 -0.74083,-0.740833 -2.2225,-1.058333 -4.65667,-1.058333 -4.7625,-1.09361 -4.7625,-1.975556 0,-0.9525 0.67028,-1.622777 2.71639,-2.645834 1.83444,-0.91722 2.15194,-1.41111 1.34055,-2.04611 -0.81138,-0.564444 -1.02305,-0.564444 -2.96333,0.17639 z"
         inkscape:connector-curvature="0"
         style="stroke-width:0.03527778" />
      <path
         id="path1183"
         d="m 26.723129,-64.614364 c -1.905,0.811387 -1.23473,1.940276 1.1289,1.940276 1.05833,0 1.76387,0.282224 2.75166,1.093611 0.70554,0.599723 1.30527,1.305279 1.30527,1.552223 0,0.282223 -0.9525,1.516943 -2.11666,2.751666 -2.29307,2.469444 -2.57527,3.280834 -1.27,3.633611 0.67027,0.141113 1.12889,-0.141111 2.54,-1.622777 3.42193,-3.66889 3.88056,-4.691944 2.71639,-6.35 -0.59973,-0.846667 -2.25779,-2.434167 -3.06916,-2.8575 -0.9525,-0.529167 -2.92807,-0.599723 -3.9864,-0.14111 z"
         inkscape:connector-curvature="0"
         style="stroke-width:0.03527778" />
      <path
         id="path1185"
         d="m -289.22466,-59.675477 c -2.11667,2.046113 -2.15195,3.915833 -0.14111,5.150556 1.44639,0.846667 3.10444,0.846667 4.16278,0 1.02305,-0.81139 0.74083,-1.164167 -1.16417,-1.41111 -0.81139,-0.105833 -1.51695,-0.388057 -1.5875,-0.635 -0.0706,-0.211667 0.35278,-0.9525 0.9525,-1.658057 2.18722,-2.469443 0.17639,-3.774723 -2.2225,-1.446389 z"
         inkscape:connector-curvature="0"
         style="stroke-width:0.03527778" />
      <path
         id="path1187"
         d="m 27.111189,-47.681031 c -0.635,0.49389 -0.56446,0.599723 1.62277,2.68111 l 2.29307,2.151946 -1.37584,1.128887 c -3.59833,2.928057 -3.91583,3.280834 -3.42196,3.880557 0.24696,0.3175 0.74084,0.564443 1.05834,0.529167 0.70556,0 4.48029,-2.963334 5.43279,-4.268611 0.635,-0.846666 0.67027,-1.058333 0.21167,-2.116666 -0.4939,-1.234723 -1.97557,-2.786947 -3.6689,-3.84528 -1.27,-0.81139 -1.27,-0.81139 -2.15194,-0.14111 z"
         inkscape:connector-curvature="0"
         style="stroke-width:0.03527778" />
      <path
         id="path1189"
         d="m -287.98994,-47.257698 c -0.9525,0.388057 -1.83444,2.8575 -1.83444,5.150557 0,1.905 0.14111,2.398887 0.84666,3.175 0.98778,1.058333 3.06917,1.55222 4.30389,0.987777 0.45861,-0.211667 0.84667,-0.49389 0.84667,-0.670277 0,-0.35278 -1.5875,-1.12889 -2.29306,-1.12889 -1.51694,0 -1.55222,-3.774723 -0.0353,-4.974167 0.9525,-0.740833 0.91722,-1.552223 -0.0706,-2.36361 -0.56444,-0.458613 -0.98778,-0.49389 -1.76389,-0.17639 z"
         inkscape:connector-curvature="0"
         style="stroke-width:0.03527778" />
      <path
         id="path1191"
         d="m 27.322859,-30.747698 c -0.635,0.740834 -0.14113,1.164167 2.18721,1.94028 1.09362,0.352777 1.905,0.846666 1.97556,1.164166 0.0706,0.3175 -0.67027,1.305277 -1.7286,2.293054 -1.27,1.199446 -1.7639,1.905 -1.6228,2.328334 0.3528,0.881946 1.41113,0.670279 3.175,-0.705554 3.31613,-2.610557 3.38667,-5.185834 0.10584,-6.70278 -2.08138,-0.987777 -3.45721,-1.058333 -4.09221,-0.3175 z"
         inkscape:connector-curvature="0"
         style="stroke-width:0.03527778" />
      <path
         id="path1193"
         d="m -287.53133,-29.583531 c -1.37583,0.881946 -3.59833,3.316113 -4.30389,4.833056 -1.09361,2.257777 0.67028,4.268611 3.45723,3.98639 1.65805,-0.141113 1.69333,-1.340556 0.0706,-1.834446 -0.635,-0.176387 -1.16417,-0.493887 -1.16417,-0.740833 0,-0.776111 2.43417,-3.633611 3.52778,-4.092221 1.12889,-0.529167 1.41111,-1.5875 0.635,-2.363613 -0.56444,-0.564443 -0.98778,-0.529166 -2.2225,0.211667 z"
         inkscape:connector-curvature="0"
         style="stroke-width:0.03527778" />
      <path
         id="path1195"
         d="m -289.71855,-12.579641 c -3.56306,2.6105563 -3.4925,6.9497193 0.10583,8.1138893 1.34056,0.45861 2.61056,0.17639 2.61056,-0.52917 0,-0.28222 -0.635,-0.84666 -1.41111,-1.27 -1.12889,-0.635 -1.41111,-0.98777 -1.41111,-1.79916 0,-1.340559 2.15194,-3.4572263 3.52777,-3.4572263 1.30528,0 1.65806,-0.564444 0.84667,-1.44639 -0.91722,-0.987777 -2.57528,-0.846666 -4.26861,0.388057 z"
         inkscape:connector-curvature="0"
         style="stroke-width:0.03527778" />
      <path
         id="path1197"
         d="m 27.111189,-1.4671417 c -0.3175,0.77611003 0.0705,1.09361003 1.86971,1.55222003 0.9525,0.24695 2.32833,0.59973 3.10446,0.77611 1.79917,0.49388997 4.40971,1.97555997 4.40971,2.53999997 0,0.81139 -1.02304,1.90501 -2.82221,3.06917 -1.83446,1.16417 -2.11667,1.905 -1.02306,2.57528 0.84666,0.52917 5.3975,-2.8575 5.92666,-4.37445 0.635,-1.79916 -0.17639,-3.13972 -2.6811,-4.48026997 -3.38666,-1.79917003 -8.39613,-2.75167003 -8.78417,-1.65806003 z"
         inkscape:connector-curvature="0"
         style="stroke-width:0.03527778" />
      <path
         id="path1199"
         d="m -291.05911,3.7539683 c -2.32833,2.39889 -3.4925,4.79778 -3.24555,6.5263897 0.28222,1.79917 1.69333,2.96334 3.35139,2.82222 1.62278,-0.14111 1.83444,-0.81138 0.45861,-1.5875 -0.59972,-0.35277 -1.19945,-0.91722 -1.30528,-1.27 -0.3175,-0.9877697 1.19945,-3.6336097 3.06917,-5.3269397 1.79916,-1.62278 2.15194,-2.43417 1.16416,-2.82222 -1.12888,-0.42334 -1.72861,-0.17639 -3.4925,1.65805 z"
         inkscape:connector-curvature="0"
         style="stroke-width:0.03527778" />
      <path
         id="path1201"
         d="m 31.944229,17.512308 c -0.52916,0.67027 0.45863,1.51694 3.28084,2.89277 3.06916,1.51695 3.03389,2.11667 -0.14111,4.23334 -3.24556,2.15194 -3.66889,2.57528 -3.13973,3.21028 0.635,0.77611 1.23473,0.59972 3.9864,-1.27 4.33917,-2.89278 5.00944,-4.40973 2.89277,-6.27945 -1.16417,-1.02305 -5.36221,-3.24555 -6.13833,-3.24555 -0.17638,0 -0.52917,0.21166 -0.74084,0.45861 z"
         inkscape:connector-curvature="0"
         style="stroke-width:0.03527778" />
      <path
         id="path1203"
         d="m -291.97633,20.369808 c -3.31611,2.25777 -3.73944,7.76111 -0.70555,9.03111 1.55222,0.635 3.4925,0.59972 4.16277,-0.10583 0.84667,-0.81139 0.0706,-1.5875 -1.72861,-1.72862 -0.84666,-0.0705 -1.5875,-0.35277 -1.79916,-0.67027 -0.84667,-1.34056 0.635,-4.23334 2.75166,-5.46806 0.56445,-0.35278 0.635,-0.52917 0.3175,-1.05833 -0.56444,-0.98778 -1.55222,-0.98778 -2.99861,0 z"
         inkscape:connector-curvature="0"
         style="stroke-width:0.03527778" />
      <path
         id="path1207"
         d="m 33.002569,35.362858 c -0.84667,0.52917 -0.0705,1.65806 1.76389,2.54 1.97557,0.91723 2.8575,1.86973 2.54,2.75167 -0.10583,0.3175 -0.70556,1.19945 -1.34056,1.97556 -0.59971,0.77611 -1.4111,1.86972 -1.76387,2.39889 -0.59973,0.9525 -0.59973,0.98777 0.0353,1.48166 0.35277,0.28222 0.7761,0.52917 0.88193,0.52917 0.10584,0 1.1289,-1.19945 2.2225,-2.68111 3.28084,-4.33917 3.0339,-5.96195 -1.2347,-8.11389 -2.75167,-1.37584 -2.46946,-1.27 -3.10446,-0.88195 z"
         inkscape:connector-curvature="0"
         style="stroke-width:0.03527778" />
      <path
         id="path1209"
         d="m -291.27077,38.326198 c -1.34056,0.88194 -3.13972,4.05694 -3.13972,5.53861 0,2.78694 4.40972,4.48028 6.84388,2.64583 0.70556,-0.52916 0.70556,-0.52916 0,-1.05833 -0.38805,-0.3175 -1.05833,-0.42333 -1.62277,-0.3175 -2.89278,0.59972 -3.21028,-2.57528 -0.49389,-5.11528 1.02305,-0.98778 1.19944,-1.97556 0.35278,-2.29306 -0.74084,-0.28222 -0.56445,-0.3175 -1.94028,0.59973 z"
         inkscape:connector-curvature="0"
         style="stroke-width:0.03527778" />
      <path
         id="path1211"
         d="m -290.38883,51.767028 c -2.57528,1.12889 -4.62139,4.97417 -3.95111,7.40834 0.635,2.36361 3.70417,4.16277 5.75028,3.38666 1.12889,-0.42333 0.98778,-1.09361 -0.38806,-1.69333 -2.68111,-1.16417 -2.78694,-1.27 -2.89277,-2.75167 -0.0706,-1.09361 0.10583,-1.72861 0.98777,-2.92805 0.59973,-0.81139 1.55223,-1.65806 2.15195,-1.86973 1.09361,-0.38805 1.30528,-0.91722 0.59972,-1.62277 -0.52917,-0.52917 -0.88194,-0.52917 -2.25778,0.0705 z"
         inkscape:connector-curvature="0"
         style="stroke-width:0.03527778" />
      <path
         id="path1213"
         d="m 33.849229,53.742588 c -0.49387,0.81139 0.3528,1.83444 2.61057,3.13972 3.13973,1.86972 3.4925,2.29306 2.64583,3.24556 -0.38806,0.42333 -1.905,1.37583 -3.38667,2.11666 -2.78693,1.41111 -3.3161,2.11667 -2.08139,2.78695 0.52916,0.28222 1.27,0.0353 3.63362,-1.23473 3.38667,-1.79916 4.40971,-2.75166 4.58611,-4.23333 0.1411,-1.34055 -0.74084,-2.39889 -3.10444,-3.73944 -0.98779,-0.56445 -2.0814,-1.34056 -2.43417,-1.72862 -0.67029,-0.74083 -2.11666,-0.9525 -2.46946,-0.35277 z"
         inkscape:connector-curvature="0"
         style="stroke-width:0.03527778" />
      <path
         id="path1215"
         d="m 32.332299,70.252588 c -0.4939,0.35278 0.1411,1.05833 1.69333,1.83444 1.34056,0.70556 4.23333,3.24556 4.23333,3.70417 0,0.70556 -0.84666,1.23472 -3.42193,2.11667 -1.7639,0.635 -2.3989,1.02305 -2.3989,1.48166 0,0.9525 1.5875,0.98778 4.05694,0.0706 2.39889,-0.88195 4.23333,-2.36361 4.23333,-3.42195 0,-0.9525 -1.27,-2.43416 -3.66887,-4.26861 -1.905,-1.48166 -3.8453,-2.11666 -4.72723,-1.51694 z"
         inkscape:connector-curvature="0"
         style="stroke-width:0.03527778" />
      <path
         id="path1217"
         d="m -249.88994,71.840088 c -0.77611,0.91722 0.91723,5.22111 2.61056,6.56167 1.27,1.02305 3.10444,0.9525 4.19806,-0.10584 0.84666,-0.84666 2.64583,-4.09222 2.64583,-4.79778 0,-0.17639 -0.38806,-0.35277 -0.88195,-0.35277 -0.635,0 -1.09361,0.38805 -1.79916,1.5875 -1.27,2.2225 -2.11667,2.61055 -3.175,1.55222 -0.45861,-0.45861 -1.12889,-1.72861 -1.48167,-2.78695 -0.67028,-1.97555 -1.41111,-2.54 -2.11667,-1.65805 z"
         inkscape:connector-curvature="0"
         style="stroke-width:0.03527778" />
      <path
         id="path1219"
         d="m -268.79883,72.263418 c -0.38805,1.02306 -0.21166,2.43417 0.45861,3.95111 0.77612,1.65806 1.72862,2.39889 3.56306,2.71639 1.62278,0.28222 3.95111,-1.12889 5.3975,-3.24555 1.12889,-1.5875 1.12889,-2.64584 0.0353,-2.82223 -0.56445,-0.0705 -0.88195,0.17639 -1.19945,0.98778 -0.59972,1.44639 -2.43416,2.82222 -3.77472,2.82222 -1.41111,0 -2.32833,-1.09361 -2.57528,-3.10444 -0.14111,-1.34056 -0.3175,-1.69333 -0.91722,-1.76389 -0.45861,-0.0706 -0.84667,0.14111 -0.98778,0.45861 z"
         inkscape:connector-curvature="0"
         style="stroke-width:0.03527778" />
      <path
         id="path1221"
         d="m -235.42605,72.863138 c -0.635,0.635 -0.52916,1.19945 0.67028,3.70417 1.79917,3.73945 4.65667,4.7625 7.19667,2.54 1.34055,-1.19944 2.39889,-2.89278 2.04611,-3.28083 -0.49389,-0.49389 -1.79917,-0.14111 -2.61056,0.70555 -1.27,1.37584 -1.905,1.62278 -2.96333,1.12889 -0.91722,-0.42333 -2.29306,-2.57528 -2.29306,-3.56305 0,-0.45862 -1.05833,-1.65806 -1.44638,-1.65806 -0.10584,0 -0.35278,0.17639 -0.59973,0.42333 z"
         inkscape:connector-curvature="0"
         style="stroke-width:0.03527778" />
      <path
         id="path1223"
         d="m -218.21049,74.168418 c -1.19944,2.29306 1.34056,7.09084 3.73944,7.09084 1.94028,0 4.97417,-2.29306 5.75028,-4.33917 0.49389,-1.30528 0.49389,-1.55222 -0.14111,-1.79917 -0.35278,-0.10583 -1.19944,0.49389 -2.39889,1.72861 -2.78694,2.89278 -4.37444,2.61056 -4.7625,-0.81139 -0.24694,-2.46944 -1.34055,-3.38666 -2.18722,-1.86972 z"
         inkscape:connector-curvature="0"
         style="stroke-width:0.03527778" />
      <path
         id="path1225"
         d="m -202.82938,74.415368 c -0.59972,1.5875 1.23472,5.92666 2.96334,6.94972 2.01083,1.19944 4.48027,0.635 6.49111,-1.44639 1.62277,-1.76389 0.28222,-2.50472 -1.97556,-1.12889 -1.37583,0.84667 -3.21028,0.91722 -3.91583,0.17639 -0.3175,-0.28222 -0.635,-1.02306 -0.77611,-1.65806 -0.52917,-2.71639 -0.91723,-3.45722 -1.76389,-3.45722 -0.42334,0 -0.91722,0.24695 -1.02306,0.56445 z"
         inkscape:connector-curvature="0"
         style="stroke-width:0.03527778" />
      <path
         id="path1227"
         d="m -185.75493,75.085638 c -0.35278,0.42334 -0.35278,0.88195 -0.0353,2.15195 0.88194,3.45722 2.43417,5.43278 4.23334,5.43278 1.79917,0 5.67971,-2.54 5.67971,-3.66889 0,-0.9525 -1.16417,-0.91722 -2.99861,0.14111 -2.46943,1.41111 -3.24555,1.37583 -3.91583,-0.17639 -0.24694,-0.67028 -0.49389,-1.62278 -0.49389,-2.11667 0,-1.97555 -1.44639,-2.99861 -2.46944,-1.76389 z"
         inkscape:connector-curvature="0"
         style="stroke-width:0.03527778" />
      <path
         id="path1229"
         d="m -167.58687,75.297308 c -0.45863,0.67028 0.17637,3.31611 1.23471,5.11528 1.12889,2.01083 2.54,2.8575 4.1275,2.43417 1.30529,-0.3175 4.79779,-3.81 4.62139,-4.65667 -0.21166,-1.12889 -1.23473,-0.88195 -3.06916,0.74083 -1.02307,0.91722 -2.01084,1.62278 -2.25777,1.62278 -1.05834,-0.0353 -1.7639,-1.12889 -2.18723,-3.35139 -0.14111,-0.77611 -0.38807,-1.62278 -0.59973,-1.86972 -0.45861,-0.52917 -1.55221,-0.56445 -1.86971,-0.0353 z"
         inkscape:connector-curvature="0"
         style="stroke-width:0.03527778" />
      <path
         id="path1231"
         d="m -152.20577,76.108698 c -0.24693,0.28222 -0.52916,1.37583 -0.59973,2.39889 -0.24693,2.57528 0.59973,4.1275 2.64584,4.86833 1.48166,0.52917 1.55223,0.49389 3.4925,-0.52916 2.43416,-1.34056 3.56306,-2.71639 2.89279,-3.52778 -0.635,-0.74084 -1.19946,-0.67028 -2.43417,0.38805 -1.23473,1.02306 -2.92806,1.5875 -3.56306,1.19945 -0.3175,-0.21167 -0.38806,-0.84667 -0.24694,-2.2225 0.14111,-1.5875 0.0705,-2.04611 -0.42333,-2.50472 -0.77613,-0.70556 -1.23473,-0.70556 -1.7639,-0.0706 z"
         inkscape:connector-curvature="0"
         style="stroke-width:0.03527778" />
      <path
         id="path1233"
         d="m -136.613,76.884808 c -0.35277,0.9525 0.21167,4.65667 0.91723,6.06778 0.77611,1.51694 1.94027,2.18722 3.81,2.18722 1.05834,0 1.55223,-0.3175 2.99861,-1.72861 1.27,-1.27 1.72862,-1.97556 1.62279,-2.57528 -0.1764,-1.30528 -1.23473,-1.16416 -2.68113,0.38806 -1.37583,1.48166 -2.89277,1.905 -3.4925,0.98778 -0.1411,-0.21167 -0.35277,-1.51695 -0.49387,-2.8575 -0.14113,-1.44639 -0.42333,-2.54 -0.70556,-2.71639 -0.77611,-0.49389 -1.72861,-0.35278 -1.97557,0.24694 z"
         inkscape:connector-curvature="0"
         style="stroke-width:0.03527778" />
      <path
         id="path1235"
         d="m -122.21966,78.225368 c -1.44638,1.76389 -1.23471,4.93889 0.49389,6.73805 1.51694,1.65806 3.52777,1.72861 5.85611,0.21167 2.75166,-1.72861 4.09223,-4.97417 2.2225,-5.25639 -0.56444,-0.0706 -0.98777,0.24694 -1.55221,1.16417 -0.91723,1.44639 -2.61056,2.64583 -3.77473,2.64583 -1.37583,0 -1.97556,-2.15194 -1.1289,-4.02167 0.3175,-0.70555 0.3175,-1.02305 -0.0353,-1.44639 -0.56443,-0.67027 -1.55223,-0.67027 -2.08139,-0.0353 z"
         inkscape:connector-curvature="0"
         style="stroke-width:0.03527778" />
      <path
         id="path1237"
         d="m -104.86297,78.331198 c -0.4939,0.17639 -0.59973,1.83444 -0.24696,3.63361 0.3175,1.5875 2.25779,3.52778 3.52779,3.52778 2.998599,0 6.314709,-5.04472 4.515539,-6.84389 -0.70554,-0.74083 -1.905,-0.14111 -1.905,0.91722 0,1.02306 -1.305269,3.03389 -2.187209,3.28084 -0.98779,0.35277 -1.37583,-0.21167 -1.58749,-2.18723 -0.28224,-2.32833 -0.77613,-2.89277 -2.11667,-2.32833 z"
         inkscape:connector-curvature="0"
         style="stroke-width:0.03527778" />
      <path
         id="path1239"
         d="m -89.728811,79.389528 c -0.17639,0.35278 -0.21166,1.72861 -0.10583,3.06917 0.21167,2.15194 0.35277,2.50472 1.37583,3.42194 1.65804,1.48167 3.28084,1.30528 5.29167,-0.49388 0.91721,-0.84667 0.98777,-1.72862 0.24694,-2.36362 -0.45861,-0.35277 -0.77611,-0.28222 -1.94027,0.52917 -1.86973,1.30528 -2.46946,0.84667 -2.46946,-1.905 0,-1.09361 -0.17638,-2.18722 -0.42334,-2.43417 -0.5997,-0.59972 -1.62277,-0.52916 -1.97554,0.17639 z"
         inkscape:connector-curvature="0"
         style="stroke-width:0.03527778" />
      <path
         id="path1241"
         d="m -74.418271,80.518418 c -0.49387,0.56445 -0.56443,1.05834 -0.38804,2.61056 0.14111,1.05833 0.56444,2.43416 0.91721,3.06916 0.70556,1.12889 2.50473,2.11667 3.84529,2.11667 1.16417,0 4.33917,-1.62278 5.43277,-2.78694 1.905,-2.01084 0.28223,-2.89278 -2.2225,-1.23473 -0.7761,0.49389 -2.01083,0.98778 -2.78693,1.09362 -1.3053,0.17638 -1.48167,0.10583 -1.97557,-0.88195 -0.3175,-0.59972 -0.56443,-1.72861 -0.56443,-2.50472 0,-1.05833 -0.1764,-1.51695 -0.6703,-1.79917 -0.88193,-0.45861 -0.88193,-0.45861 -1.5875,0.3175 z"
         inkscape:connector-curvature="0"
         style="stroke-width:0.03527778" />
      <path
         id="path1243"
         d="m -51.276041,82.035368 c -0.56443,0.56444 -0.52916,2.8575 0.0706,4.26861 0.635,1.51694 2.32833,2.92805 3.88054,3.21028 3.59833,0.67027 9.13696,-5.53862 6.73806,-7.54945 -0.67027,-0.56444 -1.0936,-0.24694 -1.94027,1.37583 -0.35279,0.74084 -1.23473,1.83445 -1.94029,2.43417 -2.32834,2.08139 -4.30388,1.19945 -4.62138,-2.04611 -0.0706,-0.81139 -0.21166,-1.62278 -0.3175,-1.79917 -0.3175,-0.45861 -1.37583,-0.38805 -1.86973,0.10584 z"
         inkscape:connector-curvature="0"
         style="stroke-width:0.03527778" />
      <path
         id="path1247"
         d="m -32.084931,83.728698 c -0.635,1.62278 -0.74084,4.30389 -0.21167,5.32694 0.4939,0.91723 2.18723,1.72862 3.59833,1.72862 2.2578,0 6.8439,-3.42195 6.56167,-4.90362 -0.21167,-1.02305 -1.69333,-0.88194 -2.89277,0.24695 -1.19944,1.12889 -3.0339,2.18722 -3.84527,2.18722 -1.1289,0 -1.4464,-0.9525 -0.9525,-2.99861 0.38804,-1.55222 0.38804,-2.01083 0,-2.46944 -0.77613,-0.9525 -1.65806,-0.635 -2.25779,0.88194 z"
         inkscape:connector-curvature="0"
         style="stroke-width:0.03527778" />
      <path
         id="path1249"
         d="m -6.0499306,84.363698 c -0.70554,0.45861 -1.55221,2.46944 -1.55221,3.63361 0,1.41111 1.27,3.66889 2.3636,4.16278 1.51694,0.67028 3.38667,0.45861 5.08000003,-0.635 2.01083997,-1.23472 5.39749997,-5.75028 4.79776997,-6.35 -0.70554,-0.70556 -1.2347,-0.42333 -3.84526997,2.18722 -2.96333003,2.99861 -3.81000003,3.35139 -5.08000003,2.2225 -0.81139,-0.70555 -0.88193,-0.88194 -0.56443,-1.97555 0.17637,-0.67028 0.4586,-1.48167 0.56443,-1.79917 0.14111,-0.35278 0,-0.81139 -0.3175,-1.16417 -0.635,-0.635 -0.88193,-0.67028 -1.44639,-0.28222 z"
         inkscape:connector-curvature="0"
         style="stroke-width:0.03527778" />
      <path
         id="path1251"
         d="m -314.58938,100.66203 c -0.70556,0.42334 -0.84667,1.41112 -0.24695,1.41112 0.45861,0 0.35278,1.69333 -0.74083,10.75972 -2.15195,17.74472 -2.57528,23.35389 -2.61056,34.925 l -0.0353,11.25361 1.23473,0.28224 c 0.67027,0.1411 3.21027,0.10583 5.64444,-0.10584 3.42195,-0.28223 7.09083,-0.24696 16.40417,0.17637 17.18028,0.8114 29.13944,1.19947 50.8,1.6228 28.50445,0.52917 46.21389,1.16417 66.14583,2.29304 9.73667,0.56446 37.3239,2.43416 44.45,2.99863 2.43417,0.21166 7.58473,0.5997 11.46529,0.88193 3.88054,0.28223 7.86694,0.59973 8.81944,0.70557 0.98777,0.10583 6.38529,0.49387 11.99446,0.88193 21.413599,1.48167 32.173329,2.29307 51.858329,3.88057 21.30777,1.7286 36.61834,2.78693 45.8611104,3.175 8.7136,0.35276 20.8491596,0.88193 27.3402696,1.2347 1.83446,0.0706 9.91306,0.59973 17.95639,1.1289 12.62944,0.8114 15.0989,0.88193 18.55611,0.52916 2.2225,-0.21166 4.44502,-0.59973 5.00946,-0.91723 1.4111,-0.74083 3.13973,-2.64583 3.81,-4.16277 0.84666,-2.11666 1.02306,-6.91443 0.38806,-12.80583 -0.3175,-2.92806 -0.88196,-8.78417 -1.27,-13.05278 -0.635,-7.19667 -2.78696,-23.38917 -3.4925,-26.31722 -0.45863,-1.97556 -2.15196,-4.72723 -3.45723,-5.60917 -1.48167,-1.02306 -3.91583,-1.65806 -8.04333,-2.15194 -1.72863,-0.21167 -4.19807,-0.67028 -5.46807,-1.02306 -6.13833,-1.79917 -23.35389,-2.92806 -50.4472296,-3.35139 -16.5805404,-0.24694 -35.6658304,-0.77611 -43.7444304,-1.23472 -3.38667,-0.17639 -11.50057,-0.67028 -17.99167,-1.05834 -16.8275,-0.98777 -32.8789,-1.86972 -52.387499,-2.82222 -4.05696,-0.17639 -15.80446,-0.67028 -26.10556,-1.05833 -10.26584,-0.35278 -20.60223,-0.77611 -22.93057,-0.88195 -11.00666,-0.49388 -37.64138,-0.9525 -77.6111,-1.27 -24.05945,-0.21166 -49.77695,-0.45861 -57.15001,-0.52916 -9.2075,-0.10584 -13.58194,-0.0353 -14.00527,0.21166 z m 29.17472,1.97556 c 0.38805,0.10583 24.05945,0.3175 52.56389,0.49389 28.53973,0.17639 55.91527,0.45861 60.85417,0.67028 4.9389,0.21166 15.66333,0.635 23.8125,0.91722 17.99167,0.67028 28.85723,1.12889 37.74723,1.5875 3.70417,0.21167 14.393329,0.77611 23.812499,1.23472 9.41917,0.49389 22.26027,1.19945 28.575,1.5875 15.13417,0.91722 35.77167,1.65806 52.7402704,1.94028 16.5099996,0.24694 29.5627896,0.74083 37.9236296,1.41111 10.23054,0.88195 10.65387,0.91722 10.4422,1.48167 -0.3175,0.77611 1.16417,1.12889 6.0678,1.51694 4.97416,0.38806 8.14916,0.88195 9.8425,1.5875 1.51693,0.635 3.175,2.99861 3.6336,5.22111 0.70556,3.59834 2.78696,19.54389 3.175,24.58862 0.21167,2.82222 0.635,7.33777 0.91723,10.05416 0.84667,7.86696 1.02307,12.98223 0.4939,14.81666 -0.52917,1.905 -2.61057,4.19807 -4.09223,4.55084 -3.06917,0.67029 -9.41917,0.59973 -22.01334,-0.28221 -7.26723,-0.4939 -20.91973,-1.23473 -30.33889,-1.62279 -25.54111,-1.05834 -35.7364,-1.65804 -56.09167,-3.35137 -5.715,-0.4939 -21.9075,-1.7639 -35.98333,-2.82224 -14.07584,-1.05833 -30.726939,-2.3636 -37.041669,-2.82223 -50.27083,-3.88053 -85.97195,-5.75027 -125.76529,-6.52637 -21.59,-0.42333 -35.48944,-0.88196 -47.27222,-1.4464 -9.13695,-0.4586 -17.18028,-0.56443 -21.87223,-0.3175 l -3.13972,0.1764 0.0706,-7.40834 c 0.0705,-4.09223 0.24694,-9.80723 0.45861,-12.7 0.35277,-5.36223 2.18722,-23.45973 2.78694,-27.69306 0.17639,-1.27 0.35278,-3.35139 0.35278,-4.65667 v -2.36361 l 2.92806,-0.14111 c 3.98638,-0.14111 23.53027,0.10583 24.41222,0.3175 z"
         inkscape:connector-curvature="0"
         style="stroke-width:0.03527778" />
      <path
         id="path1253"
         d="m -207.62716,115.97259 c -3.66889,0.74083 -3.52777,0.59972 -3.52777,3.81 0,1.5875 -0.24695,4.86833 -0.49389,7.3025 -0.635,5.29167 -1.37584,13.6525 -1.37584,14.74611 0.0353,0.635 -0.17639,0.81139 -0.81139,0.81139 -1.05833,0 -1.09361,0.49389 -0.0705,1.19945 1.09361,0.77611 4.51555,0.70555 8.85472,-0.14111 7.26722,-1.48167 10.26584,-3.84528 13.72306,-10.75973 2.25778,-4.48028 2.8575,-6.63222 2.68111,-9.17222 -0.28222,-3.175 -1.72861,-5.18583 -5.04472,-6.87917 -2.36361,-1.19944 -2.50473,-1.23472 -7.02028,-1.30527 -2.64583,-0.0353 -5.60917,0.14111 -6.91445,0.38805 z m 10.40695,1.76389 c 2.39889,0.635 3.81,1.41111 4.86833,2.68111 2.08139,2.43417 1.83445,5.64445 -0.77611,11.1125 -2.11667,4.445 -4.72722,7.40834 -7.72583,8.74889 -1.86972,0.84667 -10.4775,2.68111 -10.83028,2.29306 -0.0706,-0.0706 0.14111,-0.77611 0.52917,-1.55223 0.52916,-1.05833 0.84666,-2.92805 1.23472,-7.72583 0.28222,-3.4925 0.67028,-7.37306 0.88194,-8.64306 0.17639,-1.27 0.35278,-3.21027 0.35278,-4.30388 0,-2.29306 -0.17639,-2.15195 3.70417,-2.71639 3.21028,-0.45861 5.82083,-0.42334 7.76111,0.10583 z"
         inkscape:connector-curvature="0"
         style="stroke-width:0.03527778" />
      <path
         id="path1255"
         d="m -147.83133,118.68898 c -3.42194,3.175 -5.5386,7.97278 -7.4436,16.89806 -1.5875,7.54944 -1.62277,7.90222 -0.59973,8.04333 1.09362,0.17639 1.41112,-0.67028 2.57529,-6.49111 0.52917,-2.82222 1.05833,-5.22111 1.19944,-5.32695 0.10583,-0.10583 0.67027,0 1.23473,0.24695 0.84666,0.35278 1.83443,0.35278 4.65666,0 1.94027,-0.21167 3.63361,-0.3175 3.73944,-0.21167 0.10583,0.10584 0.4939,2.15195 0.88194,4.51556 0.74083,4.55083 1.02306,5.22111 2.08139,5.22111 0.84667,0 0.88194,-1.05833 0.0706,-6.10306 l -0.59973,-3.84527 0.84666,-0.67028 c 0.74084,-0.56445 0.8114,-0.70556 0.35277,-1.02306 -0.2822,-0.17639 -0.74083,-0.35278 -0.9525,-0.35278 -0.49387,0 -0.5997,-0.3175 -1.30527,-5.15055 -0.635,-4.05695 -1.02306,-5.29167 -2.0461,-6.42056 -1.23473,-1.27 -2.82223,-1.05833 -4.69196,0.67028 z m 3.31613,1.12889 c 0.49387,0.635 1.905,9.10167 1.5522,9.45444 -0.52916,0.49389 -6.4911,0.98778 -7.5847,0.59973 -0.88196,-0.3175 -1.02307,-0.49389 -0.8114,-1.30528 0.4939,-1.905 3.06917,-6.70278 4.3039,-7.9375 1.37583,-1.37584 1.905,-1.55222 2.54,-0.81139 z"
         inkscape:connector-curvature="0"
         style="stroke-width:0.03527778" />
      <path
         id="path1257"
         d="m -176.5827,118.26565 c -1.6228,0.52916 -3.175,1.44639 -3.175,1.905 0.0705,4.86833 -0.45863,13.26444 -1.02307,16.65111 -0.91723,5.46805 -0.9525,6.38528 -0.0353,6.63222 0.35277,0.10583 0.81138,0 0.98777,-0.24694 0.67027,-0.81139 2.29307,-13.335 2.32834,-17.95639 l 0.0353,-4.51556 1.72862,-0.49389 c 2.36361,-0.70555 4.05694,-0.67028 5.3975,0.17639 2.39888,1.44639 1.76388,4.02167 -1.55223,6.27945 -2.82223,1.94027 -3.6336,2.78694 -3.6336,3.73944 0,0.98778 1.69333,3.56306 5.75027,8.67833 2.25777,2.8575 3.10444,3.73945 3.88056,3.81 0.56444,0.0706 0.9525,-0.0353 0.9525,-0.3175 0,-0.21166 -0.91723,-1.69333 -2.04612,-3.28083 -1.12888,-1.55222 -2.96334,-4.09222 -4.05694,-5.64444 -1.1289,-1.51695 -2.01083,-2.92806 -2.01083,-3.175 0,-0.21167 1.05833,-1.09361 2.32833,-1.94028 3.77473,-2.54 4.9389,-5.3975 3.3161,-8.04334 -1.0936,-1.83444 -2.2225,-2.32833 -5.43277,-2.46944 -1.55223,-0.0353 -3.24556,0.0353 -3.73943,0.21167 z"
         inkscape:connector-curvature="0"
         style="stroke-width:0.03527778" />
      <path
         id="path1259"
         d="m -111.53047,120.06481 c -2.04613,0.81139 -4.02169,4.30389 -6.27946,11.18306 -0.74084,2.18722 -1.48167,4.05694 -1.65807,4.19806 -0.52916,0.3175 -0.9172,-1.23473 -1.30527,-5.29167 -0.28223,-2.82222 -0.56443,-4.09222 -1.05833,-4.7625 -1.94027,-2.61056 -3.56306,-0.67028 -6.94973,8.255 -3.66887,9.63083 -3.88054,10.58333 -2.2225,10.33639 0.635,-0.0706 0.98779,-0.77611 2.0814,-3.81 3.45723,-9.8425 4.62139,-12.7 5.2211,-12.7 0.1764,0 0.42333,1.05833 0.56446,2.36361 0.35277,3.66889 0.84667,5.82083 1.5875,7.09083 0.56444,0.91722 0.91721,1.12889 1.94027,1.12889 1.7639,0 2.15194,-0.74083 4.7625,-8.99583 1.23473,-3.98639 2.43417,-6.24417 3.73946,-7.09084 0.81137,-0.56444 0.91721,-0.52916 1.5875,0.0706 1.16417,1.05833 1.55221,2.04611 3.10444,7.97278 1.48166,5.75028 3.03389,10.19528 4.2686,12.17083 0.67029,1.12889 1.83446,1.55222 2.293059,0.84667 0.10584,-0.17639 -0.458599,-1.97556 -1.269999,-3.98639 -0.7761,-2.01083 -2.0461,-5.89139 -2.82223,-8.64306 -0.74083,-2.75166 -1.69333,-5.89139 -2.11666,-6.94972 -1.12887,-3.06917 -3.175,-4.33917 -5.46804,-3.38667 z"
         inkscape:connector-curvature="0"
         style="stroke-width:0.03527778" />
      <path
         id="path1271"
         d="m 107.33286,135.83398 c 0.24694,0.10583 0.56444,0.0706 0.67027,-0.0353 0.14113,-0.10583 -0.0705,-0.21166 -0.4586,-0.17639 -0.38807,0 -0.4939,0.10584 -0.21167,0.21167 z"
         inkscape:connector-curvature="0"
         style="stroke-width:0.03527778" />
      <path
         id="path1277"
         d="m -342.91744,200.53342 c -3.10445,0.14113 -14.605,0.24696 -25.57639,0.21167 -14.88723,-0.0353 -20.60223,0.0353 -22.57778,0.38806 -1.86972,0.3175 -8.04333,0.4586 -20.6375,0.52917 l -17.99167,0.10583 -1.48167,0.9525 c -1.48166,0.9525 -1.51694,1.02307 -1.51694,2.89277 0,1.02306 -0.14111,2.01083 -0.35278,2.11667 -0.17639,0.10583 -0.35278,0.81139 -0.35278,1.51696 0,0.70554 -0.14111,1.83443 -0.35277,2.5047 -0.52917,1.83447 -1.02306,6.0678 -1.41111,11.64167 -0.21167,2.82223 -0.84667,8.96056 -1.44639,13.61723 -0.56445,4.65667 -1.19945,11.71223 -1.37584,15.6986 -0.17639,3.9864 -0.635,9.2075 -1.02305,11.64167 -1.09361,6.7028 -2.61056,21.83696 -3.73945,36.6889 -0.28222,3.9864 -0.70555,9.13693 -0.88194,11.46527 -0.35278,3.91586 -1.09361,12.94696 -2.15195,25.75279 -0.70555,8.64307 -0.84666,16.9686 -0.56444,28.575 0.24694,9.0664 0.17639,18.415 -0.21167,28.04584 -0.0706,1.905 0.77611,2.3636 1.48167,0.81139 0.70555,-1.48166 1.12889,-11.25363 0.88194,-20.03779 -0.59972,-20.6375 -0.3175,-29.10417 1.76389,-53.7986 0.56445,-6.6675 1.05834,-12.98224 1.62278,-20.46113 0.91722,-12.84111 2.54,-28.43387 3.91583,-37.74721 0.38806,-2.61056 0.84667,-7.7964 1.02306,-11.46529 0.38806,-7.58471 0.81139,-11.60637 1.76389,-17.4625 0.52917,-3.13971 1.76389,-17.145 1.76389,-20.0025 0,-0.28221 0.38805,-0.45861 1.02305,-0.45861 1.02306,0 1.05834,-0.0353 1.30528,-2.3636 0.14111,-1.51696 0.10583,-2.57529 -0.14111,-2.96333 -0.21167,-0.3175 -0.3175,-1.16417 -0.17639,-1.79917 l 0.17639,-1.23473 2.18722,0.0353 c 3.52778,0.0353 13.6525,-0.88194 15.34584,-1.4111 1.23472,-0.35277 3.81,-0.42334 11.99444,-0.28223 5.67972,0.14113 12.17083,0.10583 14.35806,-0.0353 3.45722,-0.21167 4.1275,-0.35277 4.72722,-0.98777 0.74083,-0.77613 0.77611,-0.77613 10.16,-0.45863 6.35,0.21167 15.16944,0.1764 27.05806,-0.1411 17.74472,-0.42334 35.8775,-0.24694 60.14861,0.70556 4.93889,0.17637 13.61722,0.49387 19.22639,0.70554 9.45445,0.3528 26.74056,1.27 39.51112,2.11667 2.92805,0.17639 10.61861,0.59973 17.10972,0.88196 13.15861,0.635 21.48417,1.12887 49.03611,2.9986 17.3214,1.19944 73.765829,2.0814 154.8694594,2.46944 42.1216696,0.21166 68.0155396,0.49389 80.0805696,0.84666 9.8072,0.3175 26.705261,0.70557 37.570831,0.91723 27.83417,0.45861 63.42943,1.48167 74.78887,2.11667 6.5264,0.38807 29.31583,1.23473 42.43917,1.62277 5.92666,0.1764 8.18446,0.10583 8.18446,-0.17637 0,-0.21167 -0.21167,-0.38807 -0.45863,-0.38807 -0.2822,0 -0.7761,-0.3175 -1.12887,-0.70556 -0.56446,-0.635 -1.09363,-0.70554 -5.2564,-0.70554 -5.18583,0 -29.91556,-0.84666 -40.42833,-1.41113 -15.3811,-0.7761 -43.9914,-1.5875 -73.5189,-2.11666 -10.86554,-0.21167 -24.094701,-0.49387 -29.456941,-0.70554 -21.83693,-0.74083 -46.24916,-1.05833 -97.5783296,-1.23473 -29.6686304,-0.0706 -61.3480604,-0.3175 -70.3791704,-0.4939 -9.03112,-0.21167 -27.022789,-0.52917 -40.040289,-0.74083 -26.74056,-0.38804 -27.41083,-0.42334 -68.43889,-2.99861 -7.54944,-0.4586 -17.07444,-1.02306 -21.16667,-1.23473 -4.05694,-0.21166 -12.62944,-0.67027 -19.05,-1.05833 -23.45972,-1.4111 -31.00917,-1.79917 -45.68472,-2.29304 -8.255,-0.28223 -19.50861,-0.67029 -25.04723,-0.84666 -15.16944,-0.52917 -37.57083,-0.70557 -43.92083,-0.3528 z m -86.36001,3.70417 c -0.10583,0.10583 -0.42333,0.14113 -0.67027,0.0353 -0.28223,-0.10583 -0.17639,-0.21166 0.21166,-0.21166 0.38806,-0.0353 0.59973,0.0705 0.45861,0.17637 z m 7.09084,-0.0353 c -0.24695,0.28223 -3.06917,0.3175 -3.35139,0.0706 -0.10583,-0.14113 0.635,-0.24696 1.65805,-0.24696 1.02306,0 1.79917,0.0706 1.69334,0.1764 z"
         inkscape:connector-curvature="0"
         style="stroke-width:0.03527778" />
      <path
         id="path1281"
         d="m 237.96646,219.16009 c -0.35277,0.24696 -0.38803,0.56446 -0.10583,1.48166 0.38806,1.3053 0.88196,6.91447 0.91723,10.54807 0,3.0339 -0.8114,15.45166 -1.19943,18.34443 -0.70557,5.00947 -1.1289,22.225 -0.9525,40.56947 0.1411,14.81666 0.0705,20.07303 -0.3175,24.51806 -0.3175,3.4925 -0.59974,12.27667 -0.70557,23.10694 -0.10583,9.59556 -0.3175,19.05 -0.4586,20.99026 -0.14113,1.9403 -0.14113,5.4328 0,7.76113 0.38804,6.10304 0.35277,13.72304 -0.0353,17.70944 -0.17637,1.905 -0.38803,7.54943 -0.49387,12.5236 l -0.14113,9.10167 h 0.8114 c 0.4586,0 0.9525,-0.17637 1.0936,-0.38804 0.38807,-0.635 0.9878,-21.41363 1.02307,-35.06613 0.0706,-23.6361 0.4939,-48.01304 0.91723,-52.2111 0.2822,-2.82223 0.4586,-13.6878 0.49387,-32.45557 0.0353,-15.52223 0.1764,-28.92776 0.28223,-29.80973 1.4111,-9.8072 2.2578,-24.7297 1.65807,-28.99833 -0.21167,-1.69333 -0.3175,-3.21027 -0.21167,-3.38667 0.10583,-0.17637 0.0353,-1.30527 -0.1764,-2.5047 -0.35277,-1.83446 -0.4939,-2.15196 -1.16417,-2.15196 -0.38806,0 -0.9525,0.14113 -1.23473,0.3175 z"
         inkscape:connector-curvature="0"
         style="stroke-width:0.03527778" />
      <path
         id="path1283"
         d="m -185.29632,256.76622 c -6.49111,1.76387 -11.99445,6.1736 -13.72306,11.04193 -1.34055,3.81 0.0353,7.37307 4.69195,11.99444 3.52778,3.4925 6.38528,5.46806 15.45166,10.61863 15.76917,8.99583 19.57917,12.55887 19.57917,18.20333 0,2.64583 -1.16417,4.83304 -3.91583,7.4436 -5.3975,5.08 -13.47611,7.26723 -26.95222,7.3378 -7.51417,0.0353 -9.70139,-0.3175 -11.74751,-1.9403 -1.05833,-0.81137 -1.69333,-0.84667 -1.97555,-0.10583 -0.35278,0.91723 0.81139,2.18723 2.89278,3.21029 l 2.01083,0.98777 h 7.76111 c 12.91166,0 19.93195,-1.5875 26.84639,-6.0325 2.96333,-1.86973 5.04473,-3.9864 6.24417,-6.31473 0.9525,-1.83443 1.0936,-2.50473 1.0936,-4.9389 0.0706,-6.56166 -3.45721,-9.94833 -20.60221,-19.75553 -8.67834,-4.97417 -11.88861,-7.19667 -15.09889,-10.54807 -4.26861,-4.37443 -5.29167,-7.7964 -3.45723,-11.46527 2.04612,-3.9864 8.39612,-7.83166 14.35806,-8.67833 2.6811,-0.38807 5.29167,0.35277 8.21973,2.3636 2.50471,1.65807 4.05694,2.0814 4.30387,1.16417 0.14113,-0.4939 -3.56304,-3.13973 -5.89137,-4.23334 -1.62279,-0.74083 -2.3989,-0.88193 -5.08,-0.84666 -1.72862,0 -3.9864,0.24693 -5.00945,0.4939 z"
         inkscape:connector-curvature="0"
         style="stroke-width:0.03527778" />
      <path
         id="path1285"
         d="m -133.7202,262.09315 c -1.34057,0.28223 -3.77473,1.16417 -5.32696,1.97557 -9.77194,4.83303 -11.50054,13.1586 -4.02167,19.15583 1.27,1.02304 5.36223,3.88054 9.13696,6.3147 10.795,7.09084 15.09887,10.9714 17.56833,15.98084 1.23471,2.50473 1.34054,2.92806 1.30527,5.53863 -0.0353,3.4925 -1.12889,6.10306 -3.6336,8.53723 -3.175,3.1397 -7.9375,4.7625 -20.14363,6.87916 -6.06777,1.05834 -9.31333,1.16417 -12.065,0.49387 -0.84666,-0.21166 -0.98777,-0.1411 -0.98777,0.4939 0,0.38807 0.35277,1.0936 0.74084,1.48167 0.74083,0.74083 0.98777,0.74083 4.51556,0.56443 5.50333,-0.3175 17.07444,-2.5047 21.66054,-4.0922 5.22113,-1.79917 9.2075,-4.97417 11.07723,-8.78417 1.23473,-2.61056 1.51694,-6.77336 0.635,-9.77196 -1.7286,-5.99723 -7.7964,-11.78277 -21.48417,-20.4611 -8.00806,-5.1153 -10.58333,-7.9375 -10.58333,-11.81807 -0.0353,-2.32833 1.05833,-4.445 3.28083,-6.45583 4.09223,-3.70417 11.67694,-5.715 16.40417,-4.33917 2.18723,0.635 3.0339,0.56444 3.0339,-0.28223 0,-0.7761 -4.19807,-1.97553 -6.6675,-1.94027 -1.09363,0 -3.06917,0.24694 -4.445,0.52917 z"
         inkscape:connector-curvature="0"
         style="stroke-width:0.03527778" />
      <path
         id="path1287"
         d="m 67.363129,262.93982 c 0.10583,0.1764 0.3528,0.35277 0.56446,0.35277 0.17637,0 0.3175,-0.17637 0.3175,-0.35277 0,-0.21167 -0.24696,-0.35277 -0.56446,-0.35277 -0.2822,0 -0.42333,0.1411 -0.3175,0.35277 z"
         inkscape:connector-curvature="0"
         style="stroke-width:0.03527778" />
      <path
         id="path1289"
         d="m -95.867141,267.17315 c -0.77613,0.4939 -0.8114,1.27 -0.0706,1.55223 0.3175,0.10584 1.69333,0.21167 3.10443,0.21167 7.05557,0 17.70947,1.37583 23.00113,2.96333 8.7136,2.61054 17.49777,7.90221 21.87221,13.19387 4.69196,5.67973 6.77333,13.93473 5.25639,21.02557 -0.98776,4.69193 -3.9511,9.7014 -7.90223,13.37029 -4.23333,3.88054 -11.81804,7.79637 -17.56833,9.06637 -3.4925,0.74084 -11.8886,1.41113 -17.9211,1.41113 h -3.9864 l -0.52917,-3.81 c -1.0936,-7.26723 -1.34054,-12.52363 -1.48166,-29.24529 -0.10584,-15.91027 -0.52917,-24.13 -1.27,-26.07027 -0.35277,-1.02307 -1.19944,-1.41113 -1.83444,-0.91723 -0.35277,0.3175 -0.35277,1.02306 0,3.6689 0.28223,1.97553 0.59973,11.18303 0.8114,23.38916 0.17637,11.04194 0.42333,20.88444 0.52917,21.87223 0.10583,0.9525 0.4586,3.70417 0.7761,6.10304 0.42333,3.2103 0.4586,4.55083 0.1764,5.18583 -0.88197,1.905 0.74083,2.11667 12.3472,1.6228 9.66613,-0.42333 12.59417,-0.88196 17.56833,-2.75167 10.3364,-3.88056 17.28613,-9.87779 21.2725,-18.34446 3.38667,-7.3025 2.43417,-17.07443 -2.43416,-24.4475 -5.57387,-8.46667 -18.06221,-15.48693 -31.64417,-17.78 -6.8086,-1.16417 -19.0147,-1.94027 -20.07304,-1.27 z"
         inkscape:connector-curvature="0"
         style="stroke-width:0.03527778" />
      <path
         id="path1291"
         d="m -65.457701,290.80925 c 0,0.1764 0.17639,0.3528 0.35277,0.3528 0.21166,0 0.35279,-0.1764 0.35279,-0.3528 0,-0.21166 -0.14113,-0.35277 -0.35279,-0.35277 -0.17638,0 -0.35277,0.14111 -0.35277,0.35277 z"
         inkscape:connector-curvature="0"
         style="stroke-width:0.03527778" />
      <path
         id="path1297"
         d="m 229.46453,344.78428 c 0,0.17637 0.1764,0.35277 0.35277,0.35277 0.21166,0 0.35279,-0.1764 0.35279,-0.35277 0,-0.21167 -0.14113,-0.3528 -0.35279,-0.3528 -0.17637,0 -0.35277,0.14113 -0.35277,0.3528 z"
         inkscape:connector-curvature="0"
         style="stroke-width:0.03527778" />
      <path
         id="path1299"
         d="m 205.33453,345.31345 c -0.10584,0.2822 -0.0353,0.52916 0.1411,0.52916 0.21167,0 0.3528,-0.24696 0.3528,-0.52916 0,-0.28223 -0.0706,-0.52917 -0.14113,-0.52917 -0.0705,0 -0.21167,0.24694 -0.35277,0.52917 z"
         inkscape:connector-curvature="0"
         style="stroke-width:0.03527778" />
    </g>
  </g>
</svg>
