<?xml version="1.0" encoding="UTF-8" standalone="no"?>
<!-- Created with Inkscape (http://www.inkscape.org/) -->

<svg
   xmlns:dc="http://purl.org/dc/elements/1.1/"
   xmlns:cc="http://creativecommons.org/ns#"
   xmlns:rdf="http://www.w3.org/1999/02/22-rdf-syntax-ns#"
   xmlns:svg="http://www.w3.org/2000/svg"
   xmlns="http://www.w3.org/2000/svg"
   xmlns:sodipodi="http://sodipodi.sourceforge.net/DTD/sodipodi-0.dtd"
   xmlns:inkscape="http://www.inkscape.org/namespaces/inkscape"
   width="207.37328mm"
   height="42.239872mm"
   viewBox="0 0 207.37328 42.239872"
   version="1.1"
   id="svg4059"
   inkscape:version="0.92.5 (2060ec1f9f, 2020-04-08)"
   sodipodi:docname="pipeline.svg">
  <defs
     id="defs4053" />
  <sodipodi:namedview
     id="base"
     pagecolor="#ffffff"
     bordercolor="#666666"
     borderopacity="1.0"
     inkscape:pageopacity="0.0"
     inkscape:pageshadow="2"
     inkscape:zoom="0.35"
     inkscape:cx="131.88651"
     inkscape:cy="-343.03377"
     inkscape:document-units="mm"
     inkscape:current-layer="layer1"
     showgrid="false"
     fit-margin-top="0"
     fit-margin-left="0"
     fit-margin-right="0"
     fit-margin-bottom="0"
     inkscape:window-width="1920"
     inkscape:window-height="1080"
     inkscape:window-x="0"
     inkscape:window-y="0"
     inkscape:window-maximized="0" />
  <metadata
     id="metadata4056">
    <rdf:RDF>
      <cc:Work
         rdf:about="">
        <dc:format>image/svg+xml</dc:format>
        <dc:type
           rdf:resource="http://purl.org/dc/dcmitype/StillImage" />
        <dc:title></dc:title>
      </cc:Work>
    </rdf:RDF>
  </metadata>
  <g
     inkscape:label="Layer 1"
     inkscape:groupmode="layer"
     id="layer1"
     transform="translate(16.752115,-15.832445)">
    <g
       id="g4719"
       transform="matrix(0.25,0,0,0.25,-11.906251,23.745535)">
      <path
         id="path3341"
         d="m 787.89085,-31.292079 c -22.29554,1.446389 -43.74444,2.116667 -72.49583,2.293056 -16.40417,0.07056 -32.0675,0.246944 -34.85444,0.352777 -4.9389,0.211667 -5.00944,0.211667 -5.2211,1.058334 -0.21167,0.881944 -0.1764,1.622777 0.52916,8.784167 0.635,6.491111 1.76388,26.4230535 2.01084,35.454166 0.35277,12.699998 0.81137,51.293888 1.02304,80.9625 0.14112,24.729719 0.28223,32.490829 0.59973,32.702499 0.24693,0.14111 0.70556,0.0353 0.98777,-0.24695 0.45862,-0.42333 2.50473,-0.52917 11.39473,-0.56444 5.96193,0 10.9361,0.0706 11.1125,0.17639 0.1411,0.0705 9.24277,0.49388 20.17889,0.88194 10.97138,0.42333 24.13,0.88194 29.28054,1.09361 17.35667,0.635 32.49084,2.01083 46.91946,4.30389 3.77471,0.59972 7.54944,1.16417 8.36084,1.23472 2.6811,0.3175 2.57527,1.86972 2.1872,-29.38639 -0.52916,-43.814994 -2.2225,-102.9758255 -2.96333,-104.2458255 -0.10583,-0.14111 -0.17637,-2.504723 -0.17637,-5.291667 0,-2.786943 -0.1764,-7.161388 -0.38807,-9.6661095 -0.17639,-2.54 -0.4586,-7.373055 -0.635,-10.795 -0.24693,-4.445 -0.49389,-6.526389 -0.88193,-7.3025 -1.1289,-2.187222 -1.16417,-2.187222 -7.0203,-2.151945 -2.96333,0.03528 -7.40833,0.211667 -9.94833,0.352778 z m 14.35806,3.069167 c 0.4939,0.493889 1.02307,8.325556 1.65807,24.4122205 0.21166,4.55083303 0.5997,12.558889 0.88193,17.8152795 0.70557,12.347221 1.16417,26.987497 1.62277,49.918054 0.1764,10.195279 0.42334,21.836939 0.52917,25.929169 0.10583,4.05694 0.24696,15.769159 0.3175,25.999719 0.10583,17.85055 0.0706,18.62666 -0.52917,18.62666 -0.35277,0 -3.24554,-0.38805 -6.38527,-0.84666 -3.175,-0.45861 -6.70277,-0.9525 -7.86693,-1.05834 -1.16417,-0.14111 -4.58613,-0.52916 -7.58473,-0.91722 -10.0189,-1.27 -21.94277,-1.94028 -48.33057,-2.82222 -6.10304,-0.21167 -16.3336,-0.635 -22.75416,-0.9525 -6.38527,-0.28222 -16.29834,-0.635 -21.97804,-0.77611 l -10.30113,-0.21167 -0.17637,-27.869439 c -0.10584,-15.34584 -0.28223,-32.561389 -0.42334,-38.276389 -0.10583,-5.715 -0.24696,-15.875 -0.24696,-22.577777 -0.0705,-17.95639 -1.27,-45.3319445 -2.5047,-57.855555 -0.3175,-2.822222 -0.52917,-5.362222 -0.52917,-5.715 0,-0.846667 3.84527,-0.987778 39.5111,-1.164167 17.35667,-0.07056 34.36057,-0.3175 37.74723,-0.493889 3.38667,-0.211666 10.16,-0.529166 14.99304,-0.740833 15.02834,-0.635 17.6389,-0.776111 17.8153,-0.9525 0.0705,-0.07056 3.28083,-0.105833 7.1261,-0.03528 5.11527,0.07056 7.05556,0.211667 7.40833,0.564445 z"
         inkscape:connector-curvature="0"
         style="stroke-width:0.03527778" />
      <path
         id="path3343"
         d="m 713.66641,5.9612545 c -0.17639,0.352777 -0.42333,1.658054 -0.56443,2.928054 -0.14113,1.2700005 -0.635,4.1275005 -1.1289,6.3500005 -0.4939,2.2225 -0.98777,4.656666 -1.05833,5.362223 -0.10584,0.740833 -0.3175,1.340556 -0.45861,1.340556 -0.14112,0 -0.59973,-0.776113 -1.02306,-1.728613 -0.52917,-1.27 -0.9525,-1.763887 -1.62277,-1.86972 -1.16417,-0.246946 -2.57529,0.846666 -3.21029,2.434166 -0.67027,1.552221 -1.09361,1.481667 -1.55221,-0.352779 -0.21167,-0.811387 -0.52917,-1.975554 -0.70556,-2.54 -0.1764,-0.599721 -0.56444,-2.575277 -0.91723,-4.409721 -0.74084,-4.2333335 -1.30527,-5.6444465 -2.2225,-5.6444465 -1.44638,0 -1.51694,1.058334 -0.35277,6.5969465 1.55223,7.408334 2.92806,11.43 4.23333,12.100277 1.23473,0.705554 2.7164,-0.176389 2.9986,-1.72861 0.45863,-2.8575 0.84667,-3.175 1.5875,-1.411113 1.5875,3.915834 4.4803,4.233334 5.22113,0.599723 1.51694,-7.584723 1.905,-9.701389 2.39887,-13.0175 0.635,-4.1627775 0.45863,-5.6091665 -0.5997,-5.6091665 -0.38807,0 -0.8114,0.282223 -1.02307,0.599723 z"
         inkscape:connector-curvature="0"
         style="stroke-width:0.03527778" />
      <path
         id="path3345"
         d="m 735.46808,9.4890315 c -0.88194,2.1872235 -2.01083,5.6797235 -2.43417,7.4436105 -0.3175,1.44639 -0.635,1.975556 -1.27,2.187223 -1.05833,0.423333 -1.05833,0.81139 -0.10583,1.72861 0.56444,0.529167 0.67027,0.917223 0.52917,1.693334 -0.3175,1.375833 0.38806,4.339166 1.12889,4.90361 1.09361,0.846666 2.89277,0.49389 5.08,-1.023054 1.02304,-0.670277 1.69334,-0.564444 1.69334,0.282221 0,0.705556 1.69333,2.575279 2.8575,3.175 1.0936,0.599723 3.38666,0.705556 4.16277,0.211666 0.7761,-0.493887 -0.0706,-1.340554 -1.79917,-1.86972 -1.69333,-0.49389 -3.10444,-2.187223 -3.10444,-3.739444 0,-1.093613 0.0353,-1.093613 2.15194,-1.340556 2.89277,-0.3175 4.37444,-1.340557 4.37444,-2.963334 0,-1.09361 -0.17638,-1.340556 -1.5875,-2.081389 -1.30527,-0.670277 -1.905,-0.811388 -2.99861,-0.599721 -1.79916,0.352777 -3.4925,2.116667 -4.02166,4.233333 -0.28223,1.199444 -0.56444,1.622777 -1.05834,1.622777 -0.35277,0 -0.91723,0.3175 -1.30527,0.740834 -0.35279,0.423333 -1.09362,0.9525 -1.62279,1.234723 -0.88194,0.45861 -0.98777,0.423333 -1.34054,-0.211667 -0.21167,-0.423333 -0.35279,-1.375833 -0.28223,-2.187223 0.10583,-1.375833 0.1764,-1.44639 1.86973,-2.116667 0.98777,-0.388056 2.01083,-0.917223 2.29304,-1.199443 0.84667,-0.846667 -0.42333,-1.5875 -2.2225,-1.30528 -1.23471,0.17639 -1.37583,0.141113 -1.19944,-0.45861 0.10584,-0.352777 0.70557,-2.36361 1.34057,-4.445 0.9172,-3.104444 1.05833,-3.8805565 0.67027,-4.3391675 -0.67027,-0.811389 -1.37584,-0.635 -1.79917,0.423334 z m 10.58333,10.4775005 c 0.4939,0.599723 0.28223,0.740833 -1.44639,1.058333 -1.02304,0.17639 -1.34054,0.14111 -1.34054,-0.246944 0,-1.199446 1.97554,-1.763889 2.78693,-0.811389 z"
         inkscape:connector-curvature="0"
         style="stroke-width:0.03527778" />
      <path
         id="path3347"
         d="m 725.76668,12.946255 c -0.35277,0.881943 0.14113,1.5875 1.05834,1.5875 1.05833,0 1.41112,-0.458613 1.09362,-1.411113 -0.28223,-0.846667 -1.86973,-0.987777 -2.15196,-0.176387 z"
         inkscape:connector-curvature="0"
         style="stroke-width:0.03527778" />
      <path
         id="path3349"
         d="m 717.97031,16.650421 c -0.98779,0.423334 -1.37583,1.199444 -1.69333,3.386667 -0.21167,1.622777 0.24693,5.609167 0.70554,6.067777 0.10583,0.105833 0.635,0.03528 1.16416,-0.14111 0.91723,-0.3175 0.9525,-0.423334 1.1289,-3.66889 l 0.1764,-3.35139 2.25777,-0.176387 c 2.43416,-0.17639 3.4925,-0.917223 2.57527,-1.834446 -0.52917,-0.529167 -5.22111,-0.77611 -6.31471,-0.282221 z"
         inkscape:connector-curvature="0"
         style="stroke-width:0.03527778" />
      <path
         id="path3351"
         d="m 726.11948,18.484865 c -0.28223,0.45861 -0.77613,6.985 -0.56446,7.584723 0.21166,0.599721 1.30529,0.564444 1.94029,-0.03528 0.635,-0.635 1.0936,-5.785554 0.59971,-7.055554 -0.35277,-0.9525 -1.51694,-1.27 -1.97554,-0.49389 z"
         inkscape:connector-curvature="0"
         style="stroke-width:0.03527778" />
      <path
         id="path3353"
         d="m 707.91614,35.030142 c -0.56446,0.211667 -0.98779,0.635 -0.98779,0.9525 0,0.282223 -0.28221,0.846667 -0.59971,1.199443 -0.52916,0.564447 -0.59973,1.658057 -0.59973,8.501947 0,4.303887 0.14111,8.184443 0.28223,8.643053 0.35277,1.093613 2.08138,0.98778 2.25777,-0.14111 0.10584,-0.705556 0.21167,-0.740833 1.30527,-0.388056 1.5875,0.458613 4.72723,-0.14111 6.2089,-1.234721 1.30527,-0.987779 2.43417,-3.033889 2.43417,-4.480279 0,-1.622777 -0.635,-2.892777 -2.2225,-4.550834 l -1.48167,-1.516943 1.05833,-0.846667 c 2.36361,-1.869723 2.64584,-2.257777 2.64584,-3.4925 0,-1.12889 -0.1764,-1.340556 -1.48167,-2.04611 -1.16417,-0.599723 -2.25777,-0.776113 -4.69194,-0.881946 -1.72862,-0.03528 -3.59833,0.07056 -4.1275,0.282223 z m 6.52638,2.257777 c 0.52916,0.141113 0.9525,0.352779 0.9525,0.49389 0,0.105833 -0.77611,0.9525 -1.76388,1.834443 -0.98779,0.917223 -1.76389,1.94028 -1.76389,2.328333 0,0.388057 0.88193,1.799167 1.97556,3.139724 1.69333,2.04611 1.94027,2.54 1.76387,3.457223 -0.24693,1.340553 -1.5522,2.54 -3.35137,3.069166 -1.19946,0.352777 -1.48167,0.3175 -2.78696,-0.529166 -1.69333,-1.058334 -1.65804,-0.776113 -1.23471,-9.489723 l 0.21167,-4.797777 2.50471,0.14111 c 1.37583,0.07056 2.96333,0.246943 3.4925,0.352777 z"
         inkscape:connector-curvature="0"
         style="stroke-width:0.03527778" />
      <path
         id="path3355"
         d="m 746.01614,38.910698 c -0.28223,0.176387 -0.70556,0.740834 -0.91723,1.27 -0.4586,1.128887 -1.48166,8.290277 -1.48166,10.265834 0,3.104443 1.62277,6.0325 3.10443,5.573887 0.91723,-0.3175 0.9878,-0.917221 0.21167,-2.398887 -1.12887,-2.187223 0.0706,-1.799167 3.175,1.09361 2.3989,2.2225 3.31613,2.8575 4.1275,2.8575 0.77613,0 1.02306,-0.17639 1.02306,-0.705557 0,-0.705553 -2.39889,-3.31611 -5.43277,-5.891387 l -1.76389,-1.481666 1.16416,-0.635 c 2.01084,-1.093613 4.09223,-2.751667 4.19807,-3.386667 0.21166,-1.12889 -0.9525,-1.023056 -3.6689,0.423333 -1.51694,0.776111 -2.82223,1.340554 -2.96333,1.27 -0.14111,-0.07056 -0.10584,-0.987779 0.0353,-2.010833 0.74083,-4.833056 0.77612,-6.173613 0.24696,-6.35 -0.28223,-0.105833 -0.74084,-0.07056 -1.05834,0.105833 z"
         inkscape:connector-curvature="0"
         style="stroke-width:0.03527778" />
      <path
         id="path3357"
         d="m 723.36781,45.789865 c -4.16279,4.303887 -1.51696,11.1125 3.24554,8.360833 1.02306,-0.599723 1.05833,-0.564446 2.15196,0.352777 1.27,1.058334 2.3636,1.199444 3.38667,0.45861 0.7761,-0.564443 0.49387,-1.622776 -0.45863,-1.622776 -1.30527,0 -1.5875,-0.881944 -1.4111,-4.056944 0.17639,-2.363613 0.10583,-3.069167 -0.3175,-3.421946 -0.42334,-0.3175 -0.67027,-0.3175 -1.23473,0.03528 -0.38804,0.246944 -0.74084,0.388054 -0.74084,0.3175 -0.5997,-1.234723 -0.98777,-1.516946 -2.11666,-1.622779 -1.02304,-0.105834 -1.44638,0.105833 -2.50471,1.199445 z m 4.48027,1.975554 c -0.4939,2.751666 -2.54,5.291666 -3.52777,4.445 -0.24696,-0.211667 -0.45863,-0.987777 -0.45863,-1.72861 0,-1.799167 1.72863,-3.845277 3.2103,-3.845277 0.9525,0 0.98777,0.07055 0.7761,1.128887 z"
         inkscape:connector-curvature="0"
         style="stroke-width:0.03527778" />
      <path
         id="path3359"
         d="m 735.43281,46.495419 c -3.38667,2.2225 -3.6689,7.47889 -0.45863,8.819446 2.46946,1.023054 5.8914,0.352777 5.36223,-1.058333 -0.17639,-0.388057 -0.67027,-0.564447 -1.76389,-0.564447 -1.86971,0 -3.42194,-1.058333 -3.42194,-2.293053 0,-0.49389 0.56444,-1.44639 1.34056,-2.293057 1.12888,-1.128889 1.62277,-1.41111 2.64584,-1.41111 1.02304,0 1.30527,-0.141113 1.30527,-0.635 0,-1.693333 -2.82223,-2.010833 -5.00944,-0.564446 z"
         inkscape:connector-curvature="0"
         style="stroke-width:0.03527778" />
      <path
         id="path3361"
         d="m 610.62002,-25.965135 c -3.98638,0.176389 -11.50054,0.705556 -16.75694,1.199445 -11.6064,1.058333 -31.32667,2.046111 -51.15277,2.610555 -21.20196,0.564445 -26.4936,0.846668 -27.19917,1.44639 -0.635,0.529166 -0.59973,1.905 0.21167,10.371666 0.1764,1.9402775 0.3175,5.0094435 0.35277,6.8438875 0,1.799166 0.24696,5.785556 0.52917,8.819446 0.77613,8.2197205 1.5875,21.8722205 1.5875,26.8463875 0,2.434167 0.14113,7.725833 0.35279,11.818056 0.635,13.193888 0.70554,16.968611 0.91721,39.511113 0.10583,13.40555 0.0706,24.694439 -0.14111,28.398609 -0.3175,5.04472 -0.28223,6.27944 0.10584,6.6675 0.28223,0.28222 1.44637,0.52916 2.89277,0.59972 1.30527,0.0705 6.38527,0.38805 11.21833,0.67028 17.67417,1.05833 24.09473,1.27 49.74167,1.5875 14.35806,0.17638 29.0336,0.49388 32.63193,0.67027 22.8953,1.27 26.91696,1.27 28.08113,0.14111 0.635,-0.67027 0.49387,-4.05694 -0.42333,-9.45444 -1.37584,-7.86694 -1.905,-15.557499 -2.2578,-31.044439 -0.17637,-8.53723 -0.49387,-18.379725 -0.70554,-21.872223 -0.98779,-17.533056 -1.37583,-26.211389 -1.5875,-34.572223 -0.42333,-19.0500005 -1.69333,-30.2683335 -4.72723,-42.933054 -0.98777,-4.021667 -1.79916,-5.820833 -3.38666,-7.443611 l -1.30527,-1.305278 -5.8914,0.07056 c -3.21027,0 -9.10167,0.176389 -13.08806,0.352777 z m 18.45029,2.998611 c 1.23471,1.305278 1.905,3.03389 3.10444,7.866945 1.16416,4.621389 2.18723,10.2658335 2.96333,16.4041665 0.52917,4.1275 0.67027,6.843887 1.79917,35.6305545 0.28223,7.76111 0.67027,15.69861 0.84666,17.63889 0.21167,1.940277 0.4939,11.782777 0.67027,21.872219 0.3528,18.62667 0.8114,26.458329 2.15196,35.277779 1.05834,7.05555 1.16417,8.53722 0.74084,8.78416 -0.3175,0.21167 -19.89667,-0.49389 -28.08113,-1.02305 -1.7286,-0.10584 -14.67554,-0.35278 -28.75137,-0.52917 -24.90613,-0.3175 -29.7039,-0.45861 -49.5653,-1.5875 -5.2211,-0.3175 -10.3011,-0.59972 -11.28887,-0.635 l -1.7639,-0.0705 0.1764,-11.46528 c 0.24694,-16.580559 0.1411,-31.926389 -0.28223,-43.038888 -0.21167,-5.326943 -0.56444,-15.169443 -0.7761,-21.87222 -0.4586,-15.063611 -1.27,-30.02139 -1.94027,-36.4066675 -0.28223,-2.645833 -0.52917,-6.561667 -0.52917,-8.643056 0,-2.081388 -0.24696,-6.0324985 -0.52916,-8.7488875 -0.28224,-2.716389 -0.52917,-5.044722 -0.52917,-5.150555 0,-0.246945 17.81527,-0.987778 35.10137,-1.411111 21.2725,-0.529167 42.12167,-1.481667 42.43917,-1.940279 0.28223,-0.458611 3.38666,-0.776111 10.3011,-1.058333 2.82223,-0.141111 7.26723,-0.352778 9.87779,-0.493889 2.61054,-0.141111 6.59694,-0.282222 8.85471,-0.3175 4.02167,-0.03528 4.09223,-0.03528 5.00946,0.917222 z"
         inkscape:connector-curvature="0"
         style="stroke-width:0.03527778" />
      <path
         id="path3363"
         d="m 551.24752,22.647642 c -0.67027,0.81139 -1.55221,2.39889 -1.97554,3.527779 -0.42334,1.164164 -0.91723,2.116664 -1.05834,2.116664 -0.17639,0 -0.45862,-1.375833 -0.59973,-3.033887 -0.3175,-3.210277 -0.81139,-4.021666 -2.0461,-3.563056 -0.84667,0.352779 -3.13973,5.362223 -5.00946,11.077223 -0.88194,2.68111 -2.08137,5.961944 -2.6811,7.26722 -1.02307,2.187224 -1.05834,2.434167 -0.52917,2.963334 0.28223,0.3175 0.8114,0.458613 1.1289,0.352779 0.74083,-0.3175 2.29304,-3.81 3.88054,-8.784166 2.57529,-8.11389 2.8575,-8.360834 3.38666,-3.457223 0.38807,3.421943 0.74084,4.233333 1.905,4.233333 1.09363,0 1.6228,-0.987777 2.64584,-4.93889 1.44639,-5.468054 1.86973,-5.53861 2.43416,-0.45861 0.84667,7.690556 2.18723,12.453056 3.56307,12.453056 1.23473,0 1.44639,-1.128889 0.70556,-3.280833 -0.84667,-2.39889 -1.62279,-7.090833 -2.0814,-12.735279 -0.21166,-2.293054 -0.56443,-4.374444 -0.7761,-4.656665 -0.70556,-0.846666 -1.62279,-0.529166 -2.89279,0.917221 z"
         inkscape:connector-curvature="0"
         style="stroke-width:0.03527778" />
      <path
         id="path3365"
         d="m 561.72502,32.666532 c -1.5875,0.705553 -2.96334,3.63361 -2.96334,6.17361 0,4.480277 3.3514,6.385277 7.54946,4.374443 0.81138,-0.388053 1.27,-0.846666 1.27,-1.27 0,-0.635 -0.17639,-0.670276 -2.29306,-0.45861 -2.15194,0.211667 -2.3636,0.17639 -3.21027,-0.670277 -0.59973,-0.599723 -0.84667,-1.199446 -0.77613,-1.869723 0.10584,-0.917223 0.1764,-0.9525 2.04613,-0.846666 1.44637,0.07056 2.2225,-0.07056 3.06917,-0.599724 2.39887,-1.516943 2.89277,-3.668887 0.98777,-4.58611 -1.48167,-0.740833 -4.37444,-0.846666 -5.67973,-0.246943 z m 3.73946,1.975553 c 0.4586,0.3175 0.42333,0.423334 -0.14113,0.881947 -0.81137,0.635 -2.54,0.705553 -2.89277,0.105833 -0.56444,-0.917223 1.905,-1.728613 3.0339,-0.98778 z"
         inkscape:connector-curvature="0"
         style="stroke-width:0.03527778" />
      <path
         id="path3367"
         d="m 582.22141,33.795419 c -0.56443,0.3175 -1.65806,1.199446 -2.39889,2.010833 -1.27,1.411113 -1.34054,1.44639 -1.72861,0.776113 -0.7761,-1.340556 -2.3636,-2.645833 -3.21027,-2.645833 -0.45862,0 -1.12889,0.3175 -1.48166,0.705553 -0.3528,0.388057 -0.91723,0.705557 -1.27,0.705557 -0.88196,0 -1.19946,0.77611 -1.72863,3.81 -0.49387,2.99861 -0.35277,3.598333 0.84667,3.598333 1.02306,0 1.69333,-1.058333 2.54,-3.915833 0.28223,-0.917223 0.67029,-1.799167 0.84666,-1.905 0.56446,-0.352777 1.7639,2.010833 1.7639,3.386667 0,1.375833 0.74083,2.293056 1.5875,1.975556 0.28223,-0.141113 0.9525,-1.023056 1.48167,-2.046113 1.16416,-2.18722 2.82223,-4.198054 3.45723,-4.198054 0.2822,0 0.56443,1.093611 0.81137,3.316111 0.42333,3.880556 0.84667,4.90361 1.94029,4.727223 0.84667,-0.105834 0.84667,0.03528 0.42334,-5.926667 -0.21167,-2.645833 -0.42334,-3.527779 -0.9878,-4.162779 -0.84666,-0.917221 -1.44637,-0.9525 -2.89277,-0.211667 z"
         inkscape:connector-curvature="0"
         style="stroke-width:0.03527778" />
      <path
         id="path3369"
         d="m -11.150788,-17.674856 c -2.328333,0.07055 -4.586111,0.176388 -5.009444,0.282222 -2.363611,0.564444 -2.8575,5.115277 -3.139722,28.927776 -0.176389,14.252223 -0.105833,19.3675 0.529167,32.102777 1.411111,29.210002 1.552222,33.760832 1.305277,43.497502 l -0.246944,9.63083 1.058333,1.05833 c 1.27,1.23472 -0.846666,1.12889 22.0838881,1.19945 16.0866659,0.0353 41.8041659,0.81139 46.7430549,1.411109 1.693334,0.21166 38.346941,1.76389 54.151388,2.29305 11.64166,0.38806 18.55611,0.42334 19.08527,0.0706 0.28223,-0.17639 0.3175,-1.44639 0.10584,-4.480279 -0.45861,-7.19666 -0.98778,-21.83694 -1.37584,-39.793329 -0.21166,-9.454444 -0.635,-19.931944 -0.91722,-23.283333 -0.28222,-3.35139 -0.67028,-11.077221 -0.84667,-17.180277 -0.24694,-7.655277 -0.56444,-12.5941675 -1.05833,-15.8750005 -0.45861,-3.06916697 -0.70555,-6.6675 -0.70555,-10.054166 -0.0353,-3.7041665 -0.14112,-5.4680555 -0.45862,-5.8913885 -0.38805,-0.493889 -1.5875,-0.599722 -8.92527,-0.776111 -11.535837,-0.3175 -23.530277,-0.9525 -23.988887,-1.305278 -0.84667,-0.670318 -15.945557,-1.128929 -40.710557,-1.234762 -14.463887,-0.03528 -29.386387,-0.246945 -33.16111,-0.458611 -6.3499989,-0.352778 -13.72305386,-0.388056 -24.518054,-0.141111 z m 56.268054,2.575277 c 32.102777,0.352778 38.488057,0.564445 42.156947,1.552222 1.55222,0.423334 4.90361,0.670278 12.876387,0.917223 5.92666,0.176389 12.3825,0.423333 14.35805,0.564444 l 3.56306,0.246945 0.17638,5.6797215 c 0.10584,3.139721 0.45862,7.02027803 0.74084,8.678332 0.35278,1.905 0.67028,7.055556 0.91722,14.1111125 0.17639,6.103054 0.56444,14.216944 0.84667,17.991664 0.3175,3.774724 0.70555,14.111113 0.91722,22.930557 0.3175,14.216939 0.81139,29.139439 1.30528,39.581659 l 0.17639,3.457229 h -8.60778 c -4.69195,0 -13.89945,-0.24695 -20.390557,-0.49389 -6.49111,-0.282219 -16.333607,-0.705559 -21.872217,-0.917219 -5.538613,-0.21167 -15.698613,-0.67028 -22.57778,-1.05834 C 29.524489,97.048471 15.201712,96.660421 0.13810114,96.801531 -12.632454,96.907361 -14.078843,96.836811 -14.92551,96.307641 l -0.881944,-0.59972 0.141111,-10.68917 c 0.141111,-7.79639 -0.03528,-15.06361 -0.564444,-26.740553 -1.305278,-27.6225 -1.481667,-34.43111 -1.27,-46.0375 0.211666,-13.4055565 0.846666,-26.669999 1.27,-27.12861 0.458611,-0.529167 11.6769441,-0.881944 21.3077771,-0.670278 4.868332,0.07056 22.8599989,0.3175 40.0402759,0.458611 z"
         inkscape:connector-curvature="0"
         style="stroke-width:0.03527778" />
      <path
         id="path3371"
         d="m 15.695599,12.734588 c -3.704166,0.987777 -5.04472,1.516944 -5.573887,2.116667 -0.5997229,0.77611 -0.6349999,1.55222 -0.5644459,13.47611 0.105833,10.971387 0.17639,12.66472 0.6349999,12.66472 1.44639,-0.03528 1.552223,-0.423333 1.693333,-7.373053 l 0.141113,-6.738057 2.010833,-0.564443 c 4.162777,-1.199444 10.018888,-2.998611 10.301111,-3.175 0.564443,-0.352777 -0.388057,-1.552223 -1.234723,-1.552223 -0.458611,0 -2.469444,0.493889 -4.515554,1.058333 -2.046113,0.599723 -4.339167,1.093613 -5.08,1.164167 l -1.375834,0.07056 -0.211666,-3.880556 c -0.141113,-2.151944 -0.17639,-3.951111 -0.141113,-3.986388 0.246946,-0.246946 7.126113,-2.187223 8.537223,-2.398889 1.658056,-0.246944 2.36361,-0.81139 2.010833,-1.693334 -0.282223,-0.77611 -0.9525,-0.705556 -6.632223,0.81139 z"
         inkscape:connector-curvature="0"
         style="stroke-width:0.03527778" />
      <path
         id="path3373"
         d="m 39.331712,15.662642 c -0.564446,0.881946 -1.516946,4.1275 -2.681113,8.925279 -0.670277,2.786944 -0.91722,3.280831 -1.799166,3.774721 -1.199444,0.705556 -1.340554,1.834443 -0.3175,2.39889 0.599723,0.3175 0.705556,0.740833 0.705556,2.50472 0,4.656667 2.963333,7.055557 6.738056,5.468057 1.516944,-0.635 2.575277,-1.799167 2.328334,-2.504724 -0.282223,-0.670276 -1.058334,-0.670276 -2.39889,0.03528 -2.328333,1.199444 -4.162777,-0.17639 -4.445,-3.280833 -0.246944,-2.328334 0.246944,-2.751667 3.31611,-3.03389 2.8575,-0.246944 4.339167,-0.81139 4.339167,-1.72861 0,-0.564447 -0.3175,-0.635 -3.351387,-0.635 -3.104446,0 -3.35139,-0.03528 -3.35139,-0.705557 0,-0.388056 0.635,-2.963333 1.41111,-5.715 0.776113,-2.786943 1.411113,-5.326943 1.411113,-5.67972 0,-0.881946 -1.305279,-0.740834 -1.905,0.176387 z"
         inkscape:connector-curvature="0"
         style="stroke-width:0.03527778" />
      <path
         id="path3375"
         d="m 59.792822,18.132088 c -0.105833,0.45861 -0.282223,3.033887 -0.388056,5.750277 -0.105833,2.716387 -0.352777,6.80861 -0.564444,9.101667 -0.388056,4.797777 -0.282223,5.53861 0.9525,5.53861 0.9525,0 1.128888,-0.3175 2.081388,-3.527777 0.3175,-1.058333 0.846666,-2.328333 1.199446,-2.786946 l 0.635,-0.846667 1.09361,0.776113 c 2.04611,1.446387 2.610556,2.575277 2.504723,5.256387 -0.105833,2.610557 0.105833,3.245557 1.09361,3.245557 0.9525,0 1.164167,-0.49389 1.305277,-3.386667 0.17639,-3.03389 -0.45861,-4.58611 -2.68111,-6.596944 -1.834444,-1.622779 -2.963333,-1.940279 -4.339167,-1.128889 -0.564443,0.3175 -1.09361,0.529166 -1.164166,0.45861 -0.07056,-0.07055 0.03528,-2.504721 0.246943,-5.397498 0.246946,-3.81 0.246946,-5.573889 -0.03528,-6.279446 -0.45861,-1.199443 -1.72861,-1.305277 -1.940277,-0.176387 z"
         inkscape:connector-curvature="0"
         style="stroke-width:0.03527778" />
      <path
         id="path3377"
         d="m 25.890879,27.657085 c -3.245557,1.658057 -5.468057,4.727224 -5.468057,7.514167 0,3.316113 2.116667,5.11528 5.997223,5.11528 2.469444,0 4.938888,-1.058334 4.938888,-2.116667 0,-0.67028 -0.141111,-0.705556 -3.421944,-0.49389 -3.210277,0.211667 -3.527777,0.17639 -4.233333,-0.529166 -0.458611,-0.458611 -0.81139,-1.199444 -0.81139,-1.76389 0,-0.846667 0.17639,-1.058334 1.093613,-1.234721 0.59972,-0.105833 1.658054,-0.211666 2.293054,-0.211666 3.245556,0 6.067779,-2.928057 5.08,-5.291667 -0.246944,-0.599723 -0.740834,-1.234723 -1.093611,-1.411113 -0.987777,-0.564443 -2.8575,-0.388054 -4.374443,0.423333 z m 3.704166,1.975557 c 0,0.81139 -1.093612,1.552223 -2.963333,2.04611 -2.751667,0.705557 -3.280833,0.211667 -1.27,-1.23472 1.058333,-0.776113 1.905,-1.093613 2.892777,-1.093613 0.740833,0 1.340556,0.141113 1.340556,0.282223 z"
         inkscape:connector-curvature="0"
         style="stroke-width:0.03527778" />
      <path
         id="path3379"
         d="m 50.655876,28.609585 c -1.905,1.234724 -3.210277,3.069167 -3.81,5.3975 -0.388054,1.44639 -0.388054,1.834447 0.141113,2.928057 0.811387,1.72861 2.469444,2.645833 4.691944,2.645833 1.305277,0 2.081389,-0.211666 2.751666,-0.740833 1.516944,-1.199444 1.199444,-1.72861 -1.023056,-1.72861 -2.504721,0 -4.056944,-0.740834 -4.056944,-1.975557 0,-2.398889 2.54,-5.08 4.797777,-5.08 0.846667,0 1.164167,-0.176389 1.340557,-0.811389 0.493889,-1.834444 -2.293057,-2.2225 -4.833057,-0.635001 z"
         inkscape:connector-curvature="0"
         style="stroke-width:0.03527778" />
      <path
         id="path3381"
         d="m 169.11865,-16.969301 c -4.445,0.282222 -8.50195,0.599722 -8.99583,0.740833 -0.77612,0.246945 -0.91723,0.493889 -1.16417,2.681111 -0.17639,1.728612 -0.0706,3.6688885 0.35278,6.5263885 0.45861,3.386666 0.635,8.784166 0.84666,30.7269435 0.17639,14.640277 0.45861,33.443334 0.635,41.804167 0.21167,8.325549 0.45861,21.096109 0.59973,28.292779 0.17638,9.313329 0.35277,13.158609 0.635,13.193879 1.05833,0.14112 5.715,0.21167 33.19638,0.42334 16.29834,0.14111 36.15972,0.42333 44.09722,0.59972 7.97279,0.21167 23.21279,0.52917 33.86666,0.74083 10.68917,0.17639 21.37833,0.49389 23.8125,0.67028 12.45306,0.88195 12.27667,0.84667 13.08806,0.17639 0.635,-0.59972 0.70557,-0.9525 0.52917,-4.19806 -0.10583,-1.97555 -0.42333,-5.29166 -0.74083,-7.408329 -0.98777,-7.23194 -1.30527,-16.96861 -1.37584,-48.013052 -0.10583,-29.386387 -0.35276,-38.488054 -1.30526,-46.7430545 -0.1764,-1.658056 -0.4939,-6.420556 -0.70557,-10.583333 -0.21167,-4.1627765 -0.56443,-7.9727765 -0.8114,-8.4313875 -0.21166,-0.493889 -0.84666,-1.023056 -1.44637,-1.199445 -1.83446,-0.529167 -12.02973,-0.670278 -19.2264,-0.246944 -8.46666,0.493889 -23.38916,0.493889 -36.5125,0.03528 -15.02833,-0.564444 -69.46194,-0.388055 -79.37499,0.211667 z m 80.7861,2.822222 c 0.67029,0.811389 0.91723,0.881945 2.64583,0.705556 1.05833,-0.07056 4.23333,-0.352778 7.05556,-0.599722 3.73944,-0.3175 7.12611,-0.352778 12.62944,-0.141112 5.4328,0.246945 7.62,0.211667 7.86696,-0.07056 0.52917,-0.635 15.45167,-0.987778 19.5086,-0.458611 l 3.38667,0.423333 0.1411,1.093611 c 0.10584,0.599722 0.3528,4.1627775 0.56447,7.9374995 0.21166,3.774721 0.52916,8.325554 0.70553,10.054167 0.88197,8.2197215 1.1289,17.8858335 1.23473,48.0130545 0.14111,31.608884 0.28224,36.653604 1.37584,45.861104 0.74083,5.926669 0.9525,8.643049 0.70556,8.643049 -0.14113,0 -0.84666,-0.17638 -1.62279,-0.42333 -1.12887,-0.3175 -1.41111,-0.3175 -1.79917,0.14111 -0.38804,0.49389 -1.27,0.49389 -8.18444,0.0706 -4.2686,-0.24695 -17.42723,-0.635 -29.28056,-0.81139 -11.81804,-0.21167 -26.42304,-0.52917 -32.45554,-0.74082 -5.99723,-0.17639 -23.88306,-0.42334 -39.6875,-0.49389 -15.80445,-0.10584 -29.28056,-0.17639 -29.88028,-0.21167 h -1.16417 l 0.21167,-2.04611 c 0.10583,-1.09361 0,-7.408329 -0.21167,-14.005279 -0.59972,-16.33361 -0.98777,-36.300834 -1.37583,-67.733334 -0.17639,-15.1694445 -0.49389,-27.1991655 -0.70556,-28.2222215 -0.17638,-0.987778 -0.35277,-2.9280545 -0.35277,-4.3391655 l -0.0353,-2.54 h 1.86972 c 0.98778,0 3.28083,-0.176389 5.00945,-0.388056 5.75027,-0.705555 21.41361,-0.917222 51.50555,-0.740833 l 29.63334,0.176389 z"
         inkscape:connector-curvature="0"
         style="stroke-width:0.03527778" />
      <path
         id="path3383"
         d="m 194.34226,8.8187545 c -1.41111,0.564443 -1.5875,0.740833 -1.79917,2.0108335 -0.14111,0.77611 -0.10583,2.293054 0.0706,3.351387 0.35278,2.116667 0.9525,10.97139 1.30528,19.22639 0.24694,4.974167 0.28222,5.291667 0.9525,5.291667 0.56444,0 0.77611,-0.35278 1.05833,-1.94028 l 0.35278,-1.940277 1.72861,0.105834 c 3.84528,0.246943 6.6675,-2.046111 10.05416,-8.184444 2.39889,-4.374444 2.82223,-5.53861 2.8575,-8.184444 0,-4.268612 -1.905,-7.373056 -5.715,-9.2780565 -1.97555,-1.023056 -2.43416,-1.09361 -5.715,-1.058333 -2.46944,0 -4.05694,0.176389 -5.15055,0.599723 z m 9.56028,2.6105545 c 3.98639,2.046112 5.64444,5.856112 4.33916,10.124723 -0.74083,2.575277 -3.13972,6.80861 -5.00944,8.89 -1.27,1.446387 -1.94028,1.834443 -3.91583,2.434166 -1.34056,0.388054 -2.57528,0.705554 -2.75167,0.705554 -0.21167,0 -0.45861,-1.658054 -0.59972,-3.81 -0.14111,-2.081387 -0.3175,-4.797777 -0.38806,-6.067777 -0.0705,-1.27 -0.24694,-3.95111 -0.35278,-5.99722 -0.10583,-2.046113 -0.35277,-4.30389 -0.49389,-5.044723 -0.3175,-1.305277 -0.28222,-1.375834 0.77612,-1.834444 0.635,-0.282223 2.25777,-0.49389 3.63361,-0.529167 2.15194,0 2.82222,0.176388 4.7625,1.128888 z"
         inkscape:connector-curvature="0"
         style="stroke-width:0.03527778" />
      <path
         id="path3385"
         d="m 247.64698,18.167365 c -0.1764,0.635 -0.74084,2.504723 -1.27,4.198056 l -0.91723,3.104444 h -1.48166 c -2.18722,0.03528 -4.26861,1.09361 -5.3975,2.82222 l -0.98778,1.481667 -0.67027,-1.375833 c -1.16417,-2.257777 -1.5875,-2.575277 -3.56306,-2.575277 -1.16417,0 -2.18722,0.246946 -2.92806,0.705556 -1.5875,0.9525 -2.99861,3.351387 -3.21027,5.362221 -0.17639,1.869723 -0.35278,1.940279 -3.24556,1.905 -1.905,-0.03528 -1.94028,-0.03528 -2.04611,-1.199444 -0.21167,-2.08139 1.5875,-4.409723 3.63361,-4.727223 0.49389,-0.07055 0.70556,-0.388054 0.70556,-0.987777 0,-0.705554 -0.21167,-0.91722 -1.05834,-0.987777 -3.03389,-0.352777 -6.20888,4.021667 -5.715,7.831667 0.35278,2.68111 3.42195,3.563054 6.0325,1.799167 0.70556,-0.49389 1.37584,-0.881947 1.51695,-0.881947 0.10583,0 0.635,0.388057 1.23472,0.881947 0.67028,0.564443 1.48167,0.881943 2.25778,0.881943 1.69333,0 4.23333,-1.27 5.36222,-2.68111 1.09361,-1.375833 1.48167,-1.481667 1.48167,-0.49389 0,1.023057 0.9525,2.751667 1.72861,3.175 1.5875,0.846667 4.26861,-0.211666 5.92666,-2.293056 0.88196,-1.09361 1.05833,-1.164167 1.69333,-0.740834 1.19946,0.776113 2.39889,0.881947 3.88056,0.388057 0.74083,-0.282223 1.4111,-0.45861 1.4464,-0.423333 0.0353,0.03528 0.3175,0.599723 0.635,1.234723 0.67027,1.305277 2.43417,2.54 3.66887,2.54 1.23473,0 3.31613,-0.98778 3.175,-1.481667 -0.10583,-0.246946 -0.84667,-0.564446 -1.69333,-0.705556 -2.15194,-0.388057 -3.24554,-1.164167 -3.10444,-2.293057 0.10583,-0.811387 0.35277,-0.987777 2.0461,-1.375833 2.01084,-0.45861 3.88057,-2.010833 3.88057,-3.245554 0,-1.44639 -2.18723,-3.245556 -3.9511,-3.245556 -1.79917,0 -3.95113,2.751666 -4.445,5.679723 l -0.28224,1.55222 -1.55223,-0.105833 c -1.76387,-0.14111 -2.8222,-0.881944 -2.8222,-1.940277 0,-0.352777 0.21167,-1.481667 0.49387,-2.469444 0.42333,-1.446389 1.37583,-8.008056 1.4464,-9.560277 0,-0.176389 -0.35277,-0.423333 -0.7761,-0.599723 -0.6703,-0.246943 -0.8114,-0.105833 -1.1289,0.846667 z m 10.3364,9.525 c 0.2822,0.493887 0.2822,0.705554 -0.14113,0.9525 -1.905,1.27 -3.4925,0.564444 -2.11667,-0.881946 0.9525,-0.987777 1.65806,-1.023054 2.2578,-0.07055 z m -23.31862,1.023054 c 0.81139,0.9525 0.77611,2.08139 -0.14111,3.245556 -1.37584,1.76389 -3.98639,2.54 -4.86834,1.481667 -1.16416,-1.375833 1.86973,-6.17361 3.56306,-5.679723 0.45861,0.141113 1.09361,0.564446 1.44639,0.9525 z m 10.33639,0.458613 c 0.38806,2.18722 -2.78695,5.67972 -4.58611,5.009443 -0.42334,-0.17639 -0.56445,-0.670277 -0.56445,-1.975556 0,-2.010834 0.70556,-3.104444 2.50472,-3.739444 2.04611,-0.740833 2.36361,-0.635 2.64584,0.705557 z"
         inkscape:connector-curvature="0"
         style="stroke-width:0.03527778" />
      <path
         id="path3387"
         d="m 212.93365,24.764309 c -0.56445,0.176389 -1.51695,0.705556 -2.18722,1.199446 -3.06917,2.36361 -2.25778,7.796387 1.44638,9.419164 1.44639,0.670279 1.72862,0.670279 3.06917,0.211666 1.905,-0.635 1.94028,-1.41111 0.0706,-1.693333 -1.72861,-0.211667 -2.8575,-0.811387 -3.35139,-1.72861 -0.52917,-1.023057 -0.49389,-1.058333 1.48166,-1.058333 2.36362,0 4.72723,-1.305277 5.43278,-3.069167 0.49389,-1.12889 0.49389,-1.305277 -0.10583,-1.940277 -1.30528,-1.481667 -3.63361,-2.010833 -5.85611,-1.340556 z m 3.4925,2.257776 c 0.59972,0.49389 0.635,0.564447 0.10583,1.093613 -0.52917,0.564444 -4.445,1.340554 -5.00944,0.987777 -0.49389,-0.282223 0.49389,-1.516943 1.62277,-2.010833 1.48167,-0.670277 2.43417,-0.670277 3.28084,-0.07056 z"
         inkscape:connector-curvature="0"
         style="stroke-width:0.03527778" />
      <path
         id="path3389"
         d="m 416.90975,-17.427912 c -0.0705,0.07056 -7.83167,0.3175 -17.25084,0.529167 -20.39053,0.458611 -32.7025,0.9525 -43.21527,1.622777 -4.2686,0.282223 -9.06639,0.529167 -10.6186,0.529167 -4.3039,0 -4.445,0.176389 -3.84529,5.1152775 0.59973,4.797778 1.86973,19.8966655 2.08139,24.8708325 0.10584,2.046112 0.42334,5.750279 0.70557,8.290279 0.2822,2.504721 0.7761,7.196664 1.0936,10.406944 0.3175,3.210277 0.7761,7.725833 1.05833,10.054166 0.59974,5.115277 1.09361,11.500554 1.5875,20.461111 0.21167,3.668887 0.56444,8.995832 0.77611,11.818052 0.24696,2.89278 0.42333,12.31195 0.45863,21.69583 v 16.580559 l 4.7625,-0.10583 c 2.61053,-0.0706 8.43137,0.17638 12.87637,0.49388 5.43279,0.38806 16.15723,0.67028 32.45556,0.84667 13.40557,0.17639 28.7161,0.45861 34.04307,0.67028 9.525,0.35278 31.50303,0.635 35.94803,0.45861 1.55223,-0.0706 2.3989,0.0353 2.82223,0.38806 0.3175,0.3175 1.65807,0.59972 3.175,0.70555 2.32834,0.14111 2.57527,0.10583 1.97557,-0.3175 -0.56446,-0.42333 -1.86973,-0.67028 -2.7164,-0.52917 -0.1764,0 -0.28223,-0.14111 -0.28223,-0.35277 0,-0.21167 0.28223,-0.28223 0.635,-0.17639 0.3175,0.0705 1.41113,0.21166 2.36363,0.28222 l 1.76387,0.10583 -0.0353,-4.40972 c 0,-4.7625 -0.70556,-15.098889 -1.19943,-18.520829 -0.635,-4.09222 -1.05834,-12.84111 -1.41113,-28.857222 -0.21167,-8.89 -0.45861,-16.65111 -0.52917,-17.28611 -0.0705,-0.635 -0.21167,-3.35139 -0.35277,-6.067777 -0.10583,-2.71639 -0.42333,-7.79639 -0.70556,-11.28889 -0.28221,-3.4925 -0.67027,-10.018887 -0.88194,-14.463887 -0.21167,-4.48028 -0.635,-11.5358345 -0.9525,-15.69861347 -0.28223,-4.16277703 -0.635,-9.70138803 -0.7761,-12.31194253 l -0.21167,-4.7625 -1.5875,-0.388055 c -1.09363,-0.282223 -3.42196,-0.3175 -7.40833,-0.141112 -3.2103,0.141112 -9.3839,0.105834 -13.75833,-0.07056 -7.62,-0.282222 -32.59667,-0.423333 -32.84363,-0.176389 z m 43.07416,2.716389 c 5.00947,-0.07056 7.6553,0.03528 8.5725,0.352778 l 1.3053,0.423333 v 2.681111 c 0,1.4816665 0.24693,5.1505545 0.52917,8.1491655 0.2822,2.99861003 0.84666,11.324167 1.2347,18.5208335 0.38806,7.16139 0.84667,14.957777 1.05833,17.286111 0.9525,12.3825 1.3053,19.649723 1.5875,35.454166 0.24697,11.712216 0.77613,23.530276 1.23473,26.281946 0.35277,2.2225 1.41111,16.227769 1.41111,18.767769 0,1.51695 0,1.51695 -1.27,1.51695 -0.67027,0 -1.905,-0.17639 -2.75167,-0.38806 -0.9525,-0.24694 -2.29304,-0.24694 -3.81,-0.0353 -1.44637,0.17639 -9.70137,0.10584 -21.51944,-0.17638 -10.54806,-0.24695 -30.65639,-0.59973 -44.73223,-0.81139 -14.07583,-0.17639 -27.305,-0.49389 -29.45693,-0.70556 -2.11667,-0.21167 -7.7611,-0.49389 -12.5236,-0.635 l -8.64307,-0.24694 0.0706,-2.82223 c 0.49387,-20.002489 -0.635,-45.966938 -2.8928,-66.957214 -2.3636,-21.695831 -2.61054,-24.341665 -2.9986,-31.467777 -0.4939,-8.4313885 -1.02307,-14.6050005 -1.86973,-21.872221 -0.0705,-0.599722 0.17639,-0.705556 1.69333,-0.776111 0.9878,-0.07056 5.50333,-0.3175 10.05417,-0.635 11.39473,-0.740834 22.71889,-1.164167 41.80416,-1.5875 8.89,-0.211667 16.29834,-0.458611 16.40417,-0.599722 0.10583,-0.105834 8.7489,-0.07056 19.2264,0.105833 10.4775,0.141111 22.29556,0.211667 26.28193,0.176389 z"
         inkscape:connector-curvature="0"
         style="stroke-width:0.03527778" />
      <path
         id="path3391"
         d="m 371.71891,17.355975 c -2.5047,0.423334 -5.25637,1.30528 -6.59693,2.116667 -1.05834,0.670279 -1.16417,0.846667 -0.9525,2.046113 0.10583,0.705554 0.35277,3.563054 0.56443,6.279443 0.3175,4.938887 1.16417,11.1125 1.5875,11.782777 0.42334,0.670277 1.16417,0.352777 1.83447,-0.81139 0.5997,-0.9525 1.19943,-1.305276 4.19803,-2.328333 3.5278,-1.23472 4.72723,-1.905 4.72723,-2.716387 0,-0.599723 -1.12889,-0.917223 -2.3636,-0.67028 -0.52916,0.141113 -2.2225,0.635 -3.70416,1.12889 -1.51697,0.529167 -2.82224,0.846667 -2.92807,0.77611 -0.0706,-0.105833 -0.24693,-1.305276 -0.38806,-2.68111 l -0.24694,-2.504723 1.19944,-0.352777 c 0.67029,-0.211666 2.50473,-0.564443 4.09223,-0.77611 2.9986,-0.458613 3.88056,-0.9525 3.4925,-1.975556 -0.21167,-0.493888 -0.635,-0.564444 -3.13973,-0.388054 -1.5875,0.14111 -3.56304,0.317497 -4.33917,0.45861 l -1.48167,0.211667 -0.1411,-2.575277 c -0.10583,-1.44639 -0.0353,-2.786946 0.10583,-2.998613 0.28224,-0.352777 3.56307,-1.234721 6.8439,-1.834444 1.5875,-0.3175 2.08137,-1.305277 1.02304,-2.081389 -0.67027,-0.493888 -0.9525,-0.493888 -3.38667,-0.105834 z"
         inkscape:connector-curvature="0"
         style="stroke-width:0.03527778" />
      <path
         id="path3393"
         d="m 417.50948,20.954309 c -0.59973,0.917223 -1.62277,4.586112 -1.62277,5.785556 0,1.72861 -0.8114,2.54 -1.23473,1.199444 -0.4939,-1.5875 -2.29307,-0.423334 -2.29307,1.516943 0,0.458613 -0.52916,1.869723 -1.12887,3.104446 -0.88196,1.693334 -1.37583,2.293054 -2.01083,2.363611 l -0.84667,0.14111 0.17637,-2.99861 c 0.21167,-2.928057 0,-3.774724 -0.9525,-3.774724 -0.67027,0 -1.5522,1.975557 -1.79916,4.021667 -0.38804,3.386667 1.44639,6.06778 3.70416,5.326946 1.86973,-0.599723 4.09223,-3.527779 4.7625,-6.279446 0.42334,-1.799167 1.02307,-0.635 0.8114,1.658057 -0.28223,3.31611 0.35277,4.691943 2.3636,5.150556 1.9403,0.423333 3.24557,-0.141113 4.3039,-1.975556 1.34057,-2.257777 0.59973,-2.998611 -1.34056,-1.375834 -1.16417,0.987777 -2.57527,1.164167 -2.89277,0.352777 -0.10584,-0.3175 -0.10584,-1.27 0.0353,-2.151943 0.21166,-1.728611 0.91723,-2.257777 2.89279,-2.257777 0.52917,0 1.27,-0.211667 1.62277,-0.49389 1.0936,-0.81139 0.10583,-1.622777 -1.97556,-1.622777 -0.91721,0 -1.76387,-0.105833 -1.83444,-0.282223 -0.21167,-0.282223 0.67027,-5.573887 0.98777,-6.103054 0.38806,-0.564446 -0.1411,-2.08139 -0.70554,-2.08139 -0.28223,0 -0.74083,0.352777 -1.02306,0.776111 z"
         inkscape:connector-curvature="0"
         style="stroke-width:0.03527778" />
      <path
         id="path3395"
         d="m 391.82725,26.563475 c -2.46944,1.27 -4.16277,4.092223 -4.16277,6.985 0,2.645834 1.4111,3.98639 4.5861,4.409723 1.83446,0.246944 3.9864,-0.423333 4.1628,-1.234723 0.10583,-0.670277 -0.84667,-1.023056 -2.96334,-1.023056 -1.7639,0 -3.31613,-1.09361 -3.31613,-2.328334 0,-0.77611 0.14113,-0.846666 1.5875,-0.846666 2.18723,0 3.88057,-0.77611 4.55084,-2.081387 0.77613,-1.44639 0.70556,-2.25778 -0.24694,-3.139723 -1.34056,-1.27 -2.7164,-1.481667 -4.19806,-0.740834 z m 2.36363,2.575277 c 0,0.458613 -0.3528,0.776113 -1.05834,0.98778 -1.48166,0.388053 -2.01083,-0.282223 -0.91723,-1.164167 1.02307,-0.846667 1.97557,-0.740833 1.97557,0.176387 z"
         inkscape:connector-curvature="0"
         style="stroke-width:0.03527778" />
      <path
         id="path3397"
         d="m 378.24531,26.775142 c -0.1411,0.352777 0.1764,1.76389 0.67027,3.175 0.8114,2.2225 0.84667,2.610556 0.38806,2.963333 -0.635,0.564444 -1.51693,2.2225 -1.51693,2.963334 0,0.881943 1.62277,0.635 2.25777,-0.352777 0.7761,-1.164167 1.02306,-1.12889 2.54,0.352777 1.55223,1.516943 3.3161,1.72861 3.3161,0.423333 0,-0.45861 -0.52917,-1.340557 -1.2347,-2.010833 -0.6703,-0.670277 -1.23474,-1.340557 -1.23474,-1.552224 0,-0.211666 0.56444,-0.9525 1.27,-1.658053 2.04611,-2.08139 0.77611,-3.52778 -1.30526,-1.516947 l -0.9525,0.917224 -1.1289,-2.151944 c -0.91723,-1.728613 -1.34057,-2.151944 -2.01084,-2.151944 -0.4586,0 -0.9525,0.282221 -1.05833,0.599721 z"
         inkscape:connector-curvature="0"
         style="stroke-width:0.03527778" />
      <path
         id="path3399"
         d="m 400.29391,27.233752 c -0.49387,0.35278 -1.44637,1.76389 -2.1872,3.139723 -1.905,3.66889 -1.65807,5.961944 0.84667,7.267223 1.51693,0.776111 3.9511,0.670277 5.08,-0.211666 1.5522,-1.199447 1.19943,-1.728613 -1.1289,-1.728613 -2.75167,0 -3.73944,-0.705554 -3.45723,-2.398887 0.21166,-1.516947 2.46946,-5.009447 3.21029,-5.009447 0.635,0 0.70554,-0.740833 0.10584,-1.340553 -0.59974,-0.599723 -1.48167,-0.529167 -2.46947,0.28222 z"
         inkscape:connector-curvature="0"
         style="stroke-width:0.03527778" />
      <path
         id="path3401"
         d="m 426.68171,28.644865 c -0.59973,0.28222 -1.5875,1.199444 -2.2225,2.04611 -3.31613,4.374444 0.7761,10.16 6.42054,9.101667 1.905,-0.388057 1.51696,-1.305277 -0.88194,-2.010833 -2.3636,-0.705557 -4.23333,-2.293057 -4.23333,-3.633611 0,-0.846666 0.10583,-0.917223 1.4111,-0.917223 1.72863,0 4.09223,-1.12889 4.40973,-2.116666 0.35277,-1.058334 -0.10583,-2.08139 -1.19943,-2.645834 -1.19947,-0.599723 -2.29307,-0.564443 -3.70417,0.17639 z"
         inkscape:connector-curvature="0"
         style="stroke-width:0.03527778" />
      <path
         id="path3405"
         d="m 145.41198,36.441252 c -1.09361,1.093613 0.14111,2.328333 3.21028,3.280833 1.09361,0.35278 1.97556,0.776113 1.97556,0.917224 0,0.3175 -2.71639,2.645833 -5.00945,4.339166 -1.41111,1.058334 -1.76389,2.2225 -0.74083,2.610557 0.88194,0.352777 3.42194,-1.164167 6.13833,-3.704167 2.18722,-2.046113 2.43417,-2.39889 2.43417,-3.633613 0,-1.55222 -0.17639,-1.693333 -3.98639,-2.99861 -1.41111,-0.49389 -2.78694,-0.9525 -3.06917,-1.058333 -0.28222,-0.105834 -0.74083,0.03528 -0.9525,0.246943 z"
         inkscape:connector-curvature="0"
         style="stroke-width:0.03527778" />
      <path
         id="path3407"
         d="m 330.23225,38.945975 c -0.21167,0.211667 -0.42334,0.599723 -0.42334,0.846667 0,0.599723 1.69334,1.975556 3.45723,2.751667 0.84667,0.388056 1.48167,0.917223 1.48167,1.234723 0,0.3175 -1.16417,1.23472 -2.7164,2.151943 -2.8575,1.693334 -3.70416,2.786944 -2.92803,3.704167 0.67026,0.77611 1.0936,0.670277 3.56303,-0.9525 2.61057,-1.693333 5.2564,-4.092223 5.2564,-4.797777 0,-1.199446 -1.19943,-2.54 -3.28083,-3.704167 -2.6811,-1.516946 -3.81,-1.834446 -4.40973,-1.234723 z"
         inkscape:connector-curvature="0"
         style="stroke-width:0.03527778" />
      <path
         id="path3409"
         d="m 133.13532,40.321809 c -4.62139,0.352776 -5.99723,0.740833 -6.27945,1.763889 -0.28222,1.093611 0.77611,1.411111 3.70417,1.058334 1.41111,-0.17639 5.36222,-0.423334 8.74889,-0.564447 7.76111,-0.28222 7.83166,-0.28222 7.69055,-1.516943 l -0.10583,-0.9525 -4.7625,-0.03528 c -2.61056,-0.03528 -6.6675,0.07055 -8.99583,0.246944 z"
         inkscape:connector-curvature="0"
         style="stroke-width:0.03527778" />
      <path
         id="path3411"
         d="m 313.68698,42.403198 c -0.4586,0.176387 -0.8114,0.635 -0.8114,0.987777 0,1.481667 0.70556,1.5875 9.66613,1.658057 l 8.60777,0.105833 0.38806,-0.917223 c 0.81137,-1.76389 0.24694,-1.905 -8.81946,-2.04611 -4.93887,-0.105834 -8.5725,0 -9.0311,0.211666 z"
         inkscape:connector-curvature="0"
         style="stroke-width:0.03527778" />
      <path
         id="path3413"
         d="m 506.19781,44.696252 c -0.7761,0.9525 -0.21167,1.728613 2.0461,2.8575 1.23473,0.599723 2.2578,1.234723 2.29307,1.411113 0.0353,0.3175 -2.11667,1.905 -2.61057,1.905 -0.17637,0 -0.17637,-0.388056 0,-0.81139 0.6703,-1.72861 0.21167,-1.834443 -6.38527,-1.72861 -8.7136,0.105833 -17.35666,0.846667 -18.16806,1.552221 -0.70554,0.564446 -0.52917,1.622779 0.28223,2.046112 0.4939,0.282221 2.01083,0.282221 5.36223,0.03528 2.57527,-0.211666 7.69054,-0.423333 11.35944,-0.529166 l 6.70277,-0.141111 -1.62277,1.446388 c -1.86973,1.693333 -2.25777,2.469446 -1.51694,3.104446 0.7761,0.635 1.83444,0.14111 5.46804,-2.469446 3.28083,-2.328334 4.09223,-3.104444 4.19806,-3.915834 0.3175,-2.18722 -0.38806,-2.99861 -3.84526,-4.339166 -2.82224,-1.093611 -2.96334,-1.128888 -3.56307,-0.423334 z"
         inkscape:connector-curvature="0"
         style="stroke-width:0.03527778" />
      <path
         id="path3415"
         d="m 666.95864,47.589032 c -0.14112,0.105833 -0.24696,0.740833 -0.24696,1.41111 v 1.164167 h -6.42054 c -5.85612,0.03528 -10.65389,0.352776 -12.3825,0.917223 -0.45862,0.14111 -0.59973,0.45861 -0.52916,1.128887 0.10583,1.093613 -1.41113,1.023056 12.62943,0.599723 4.55084,-0.14111 8.5725,-0.388057 8.89,-0.564444 0.635,-0.3175 1.69334,-0.07056 1.69334,0.388054 0,0.17639 -0.59973,0.635 -1.30527,1.093613 -2.78696,1.658054 -3.56307,2.892777 -2.3989,3.845277 0.42333,0.352777 0.84667,0.211667 2.3636,-0.81139 1.02307,-0.670277 2.3989,-1.481667 2.99863,-1.799167 0.635,-0.3175 1.4111,-1.058333 1.69333,-1.658053 0.52917,-0.9525 0.52917,-1.164167 0.0353,-1.869723 -0.28223,-0.458611 -1.27,-1.27 -2.2225,-1.799167 -0.91723,-0.564444 -2.08139,-1.27 -2.54,-1.658057 -0.84666,-0.635 -1.83443,-0.811387 -2.25777,-0.388053 z"
         inkscape:connector-curvature="0"
         style="stroke-width:0.03527778" />
    </g>
  </g>
</svg>
