<?xml version="1.0" encoding="UTF-8" standalone="no"?>
<!-- Created with Inkscape (http://www.inkscape.org/) -->

<svg
   xmlns:dc="http://purl.org/dc/elements/1.1/"
   xmlns:cc="http://creativecommons.org/ns#"
   xmlns:rdf="http://www.w3.org/1999/02/22-rdf-syntax-ns#"
   xmlns:svg="http://www.w3.org/2000/svg"
   xmlns="http://www.w3.org/2000/svg"
   xmlns:sodipodi="http://sodipodi.sourceforge.net/DTD/sodipodi-0.dtd"
   xmlns:inkscape="http://www.inkscape.org/namespaces/inkscape"
   width="247.95238mm"
   height="113.00694mm"
   viewBox="0 0 247.95238 113.00694"
   version="1.1"
   id="svg8819"
   inkscape:version="0.92.5 (2060ec1f9f, 2020-04-08)"
   sodipodi:docname="priority_6.svg">
  <defs
     id="defs8813" />
  <sodipodi:namedview
     id="base"
     pagecolor="#ffffff"
     bordercolor="#666666"
     borderopacity="1.0"
     inkscape:pageopacity="0.0"
     inkscape:pageshadow="2"
     inkscape:zoom="0.35"
     inkscape:cx="-240.95954"
     inkscape:cy="-24.336805"
     inkscape:document-units="mm"
     inkscape:current-layer="layer1"
     showgrid="false"
     fit-margin-top="0"
     fit-margin-left="0"
     fit-margin-right="0"
     fit-margin-bottom="0"
     inkscape:window-width="1920"
     inkscape:window-height="1080"
     inkscape:window-x="1920"
     inkscape:window-y="0"
     inkscape:window-maximized="0" />
  <metadata
     id="metadata8816">
    <rdf:RDF>
      <cc:Work
         rdf:about="">
        <dc:format>image/svg+xml</dc:format>
        <dc:type
           rdf:resource="http://purl.org/dc/dcmitype/StillImage" />
        <dc:title></dc:title>
      </cc:Work>
    </rdf:RDF>
  </metadata>
  <g
     inkscape:label="Layer 1"
     inkscape:groupmode="layer"
     id="layer1"
     transform="translate(-61.364289,-29.387276)">
    <g
       id="g9526">
      <g
         id="g9492"
         transform="matrix(0.03527778,0,0,-0.03527778,-549.04426,560.40778)">
        <path
           d="m 18725,14750 c -156,-23 -469,-59 -550,-64 -49,-4 -151,-11 -225,-16 -74,-5 -218,-14 -320,-21 -232,-13 -267,-21 -285,-63 -37,-90 -47,-137 -40,-194 4,-31 9,-325 11,-652 3,-529 16,-1052 30,-1271 l 5,-76 312,-7 c 555,-12 907,-8 1290,16 103,6 194,16 202,22 34,25 37,477 6,846 -5,63 -14,203 -20,310 -6,107 -16,283 -22,390 -6,107 -14,276 -19,375 -11,235 -35,340 -90,390 -18,16 -38,20 -123,22 -56,1 -129,-2 -162,-7 z m 259,-76 c 30,-52 47,-147 55,-314 22,-417 33,-614 54,-910 26,-371 31,-936 9,-962 -34,-41 -733,-66 -1302,-47 l -394,14 -13,75 c -18,113 -33,677 -33,1304 -1,507 1,560 16,577 10,11 19,45 23,84 4,37 13,70 20,74 7,4 101,13 209,20 411,25 734,53 942,81 253,34 395,35 414,4 z"
           id="path1442"
           inkscape:connector-curvature="0" />
        <path
           d="m 18015,14504 c -5,-1 -22,-5 -37,-8 -58,-13 -109,-82 -80,-110 4,-4 7,-48 7,-96 0,-92 10,-118 39,-107 12,5 16,22 16,76 0,43 5,73 12,77 6,4 14,2 16,-4 11,-34 98,7 132,62 34,56 7,96 -73,109 -12,3 -26,3 -32,1 z m 52,-69 c 8,-23 -26,-55 -59,-55 -23,0 -28,4 -28,23 0,13 5,28 12,35 17,17 67,15 75,-3 z"
           id="path1444"
           inkscape:connector-curvature="0" />
        <path
           d="m 17732,14480 c -61,-14 -96,-62 -108,-148 -5,-41 -2,-59 15,-96 28,-57 42,-68 97,-76 32,-5 47,-3 56,7 14,17 4,27 -43,42 -42,14 -59,43 -59,106 0,59 16,91 56,110 41,19 50,33 33,49 -9,9 -25,11 -47,6 z"
           id="path1446"
           inkscape:connector-curvature="0" />
        <path
           d="m 18363,14473 c -9,-3 -13,-27 -13,-72 0,-57 -4,-74 -30,-114 -23,-36 -36,-47 -55,-47 -37,0 -48,38 -41,133 6,77 6,77 -18,77 -31,0 -46,-40 -46,-125 0,-48 5,-70 23,-96 22,-32 27,-34 79,-34 67,0 90,17 124,90 17,35 24,68 24,111 0,70 -13,91 -47,77 z"
           id="path1448"
           inkscape:connector-curvature="0" />
      </g>
    </g>
    <g
       id="g9663"
       transform="matrix(0.58667237,0,0,0.73181714,128.96374,-11.801175)">
      <path
         id="path1438"
         d="m 304.82127,-54.283752 c -0.77611,0.52916 -1.69334,1.41111 -2.01084,1.94027 -0.77611,1.16418 -1.30527,1.12889 -4.30389,-0.3175 -1.83444,-0.88194 -2.61055,-1.09361 -3.06916,-0.84666 -1.41111,0.74083 -0.21167,2.2225 2.54,3.13972 0.81139,0.28223 1.55222,0.70556 1.65805,0.98778 0.10584,0.24695 -0.38805,1.34056 -1.12889,2.39889 -1.27,1.83445 -2.01083,2.29306 -2.46944,1.5875 -0.10583,-0.21167 -0.91722,-0.45861 -1.83444,-0.59972 -1.34056,-0.17639 -1.72862,-0.14111 -2.08139,0.38805 -0.67028,0.91723 -0.24695,1.51695 1.27,1.76389 2.50472,0.42334 2.46944,0.77611 -0.70556,5.64445 -2.89278,4.37444 -3.24555,5.46805 -1.76389,5.46805 0.74084,0 2.71639,-2.50472 5.3975,-6.80861 0.81139,-1.30528 1.62278,-2.36361 1.79917,-2.36361 1.05833,0 4.445,1.27 4.445,1.69333 0,0.24695 -0.635,1.51695 -1.41111,2.82223 -1.51695,2.46944 -1.5875,2.99861 -0.49389,3.175 0.9525,0.10583 1.23472,-0.14111 3.06917,-2.99861 l 1.62277,-2.57528 2.64584,0.0353 c 2.82222,0.0353 3.38666,-0.14111 3.38666,-0.91723 0,-0.52916 -0.49389,-0.70555 -2.96333,-1.02305 -0.74083,-0.10583 -1.44639,-0.28222 -1.55222,-0.38806 -0.28222,-0.28222 1.37583,-3.38666 1.905,-3.59833 0.21166,-0.0706 0.98778,0.10583 1.72861,0.38806 1.76389,0.74083 2.29305,0.70555 2.29305,-0.14112 0,-0.45861 -0.45861,-0.98777 -1.23472,-1.44638 -0.67028,-0.42334 -1.23472,-0.9525 -1.23472,-1.19945 0,-0.24694 0.88194,-1.41111 1.94028,-2.61055 2.01083,-2.25779 2.46944,-3.56306 1.23472,-3.56306 -0.59972,0 -4.33917,3.4925 -5.04472,4.7625 -0.35278,0.67028 -1.23472,0.67028 -2.8575,0 -1.69334,-0.70556 -1.62278,-1.48167 0.3175,-3.10445 2.71639,-2.29305 1.72861,-3.77472 -1.09361,-1.69333 z m -0.38806,6.63222 c 0.91722,0.3175 1.65806,0.81139 1.65806,1.05834 0,0.67027 -1.23473,3.06916 -1.83445,3.52777 -0.67028,0.56445 -4.30389,-0.59972 -4.445,-1.41111 -0.10583,-0.56444 2.18722,-3.77472 2.71639,-3.77472 0.10583,0 0.9525,0.28222 1.905,0.59972 z"
         inkscape:connector-curvature="0"
         style="stroke-width:0.03527778" />
      <path
         id="path1440"
         d="m 326.90515,-52.696252 c -4.26861,0.45861 -4.40972,0.56444 -4.79777,4.33917 -0.3175,2.78694 0.14111,3.63361 1.905,3.63361 1.5875,0 2.18722,0.49389 2.18722,1.79917 0,1.27 -1.19945,2.68111 -2.54,2.96333 -0.9525,0.21167 -1.19944,0.10583 -1.79917,-0.67028 -0.88194,-1.23472 -1.65805,-1.19944 -1.65805,0.10583 0,1.44639 1.23472,2.8575 2.50472,2.8575 1.34055,0 3.38667,-1.05833 4.69194,-2.43416 0.74084,-0.77611 1.05834,-1.51695 1.16417,-2.75167 0.14111,-1.48167 0.0706,-1.79917 -0.70556,-2.54 -0.49388,-0.45861 -1.44638,-0.91722 -2.08138,-1.05833 -0.9525,-0.17639 -1.19945,-0.42334 -1.27,-1.23472 -0.0706,-0.56445 -0.0353,-1.37584 0.0705,-1.83445 0.21167,-0.74083 0.42333,-0.84667 1.905,-0.84667 1.94028,-0.0353 5.53861,-0.74083 6.70278,-1.37583 0.42333,-0.21167 0.77611,-0.635 0.77611,-0.91723 0,-0.635 -1.37583,-0.635 -7.05556,-0.0353 z"
         inkscape:connector-curvature="0"
         style="stroke-width:0.03527778" />
    </g>
    <g
       id="g9573"
       transform="translate(120.19643,-36.285717)">
      <g
         id="g9616">
        <path
           style="stroke-width:0.03527778"
           inkscape:connector-curvature="0"
           d="m 107.38667,77.2318 c -0.14111,0.14111 -2.68111,0.21166 -5.60917,0.17639 -4.762499,-0.10584 -6.244159,0.0353 -13.123329,1.16416 -4.26861,0.67028 -8.74889,1.44639 -9.98361,1.65806 l -2.18722,0.42333 0.10583,13.40555 0.14111,13.40556 1.12889,0.98778 c 1.34056,1.19944 2.46944,1.23472 9.56028,0.45861 2.61055,-0.3175 8.74889,-0.635 13.581939,-0.74084 5.3975,-0.14111 9.41917,-0.38805 10.40695,-0.67027 l 1.5875,-0.42334 V 95.4704 c -0.0353,-13.61721 -0.21167,-15.94555 -1.48167,-17.42721 -0.70556,-0.88195 -1.12889,-1.05834 -2.36361,-1.05834 -0.84667,0 -1.62278,0.10584 -1.76389,0.24695 z m -4.09222,2.11666 c 0.91722,0.52917 1.27,0.52917 3.45722,0.10584 1.37583,-0.24695 2.71639,-0.35278 2.99861,-0.24695 0.81139,0.3175 0.98778,2.75167 1.05833,14.95778 0.0706,8.60777 -0.0353,11.1125 -0.38805,11.46527 -0.35278,0.35278 -2.89278,0.52917 -10.23056,0.67028 -5.362219,0.14111 -10.230549,0.35278 -10.830279,0.45861 -2.18722,0.45861 -9.52499,0.81139 -10.15999,0.49389 -0.59973,-0.3175 -0.635,-0.77611 -0.52917,-5.15055 0.0353,-2.64584 -0.0353,-8.18445 -0.21167,-12.27667 -0.17639,-4.83305 -0.17639,-7.54944 0.0706,-7.69055 0.3175,-0.17639 3.4925,-0.74083 13.12334,-2.32833 7.44361,-1.19945 10.195269,-1.34056 11.641659,-0.45862 z"
           id="path1450" />
        <path
           style="stroke-width:0.03527778"
           inkscape:connector-curvature="0"
           d="m 92.534721,83.08791 c -2.43416,0.91722 -7.90222,3.38667 -8.57249,3.91583 -0.59973,0.42334 -0.38806,1.79917 0.28222,1.83445 0.28222,0 1.19944,-0.35278 2.01083,-0.81139 0.81139,-0.42334 1.62278,-0.81139 1.83445,-0.81139 0.24694,0 0.38805,1.905 0.38805,5.78555 0,4.7625 0.10583,5.85611 0.52917,6.20889 1.16416,0.9525 1.41111,-0.14111 1.5875,-6.63222 0.21166,-7.09083 -0.28223,-6.13833 3.98639,-7.97278 1.97555,-0.88194 2.54,-1.69333 1.44638,-2.11666 -0.81138,-0.3175 -1.16416,-0.24695 -3.4925,0.59972 z"
           id="path1452" />
        <path
           style="stroke-width:0.03527778"
           inkscape:connector-curvature="0"
           d="m 95.498061,95.01179 c -0.81139,1.55223 0.52916,6.13834 1.72861,5.89139 0.67028,-0.14111 0.70555,-0.77611 0.24694,-4.445 -0.21166,-1.76389 -0.38805,-2.18722 -0.91722,-2.18722 -0.35278,0 -0.81139,0.35278 -1.05833,0.74083 z"
           id="path1454" />
      </g>
    </g>
    <g
       id="g9667"
       transform="matrix(0.53572686,0,0,0.6524559,161.21039,41.453603)">
      <path
         id="path1472"
         d="m 275.75238,-98.789194 c -1.16417,0.91722 -2.82222,2.39889 -3.63361,3.35139 -0.81139,0.9525 -1.62278,1.72861 -1.83445,1.72861 -0.17638,0 -1.37583,-0.635 -2.61055,-1.44639 -2.43417,-1.55222 -3.38667,-1.65805 -3.38667,-0.35278 0,0.635 0.49389,1.09361 2.18722,2.11667 1.19945,0.70556 2.18723,1.44639 2.2225,1.69333 0,0.56445 -2.08138,3.63361 -2.46944,3.63361 -0.17639,0 -1.19944,-0.42333 -2.25778,-0.9525 -2.01083,-0.98777 -3.03389,-0.91722 -3.03389,0.21167 0,0.49389 0.49389,0.9525 1.51695,1.48167 2.32833,1.16416 2.43416,1.30528 1.86972,2.39889 -0.28222,0.49389 -1.16417,1.76389 -1.94028,2.82222 -1.86972,2.50472 -1.94027,3.81 -0.14111,3.35139 0.38806,-0.10584 1.48167,-1.37584 2.39889,-2.82222 0.91722,-1.44639 1.86972,-2.75167 2.11667,-2.96334 0.49389,-0.42333 4.05694,0.67028 4.05694,1.23472 0,0.21167 -0.38805,0.77612 -0.88194,1.23473 -1.09361,1.02305 -1.05834,2.25777 0.0353,2.39889 0.52917,0.0705 1.23473,-0.38806 2.29306,-1.55223 l 1.55222,-1.62277 2.54,0.17638 c 2.01084,0.14112 2.64584,0.0706 2.99861,-0.35277 0.35278,-0.45861 0.3175,-0.635 -0.24694,-1.02306 -0.35278,-0.28222 -0.9525,-0.49389 -1.27,-0.49389 -1.79917,0 -2.18722,-0.9525 -1.05833,-2.46944 0.635,-0.81139 0.74083,-0.84667 1.97555,-0.38806 1.5875,0.56445 1.83445,0.35278 1.30528,-1.12889 -0.24695,-0.67027 -0.42333,-1.34055 -0.42333,-1.55222 0,-0.17639 1.44638,-1.76389 3.175,-3.4925 2.18722,-2.15194 3.175,-3.35139 3.10444,-3.84528 -0.21167,-1.51694 -1.30528,-0.88194 -5.15056,2.82223 l -3.88055,3.73944 -1.97556,-0.88194 c -1.34055,-0.59973 -1.97555,-1.09362 -1.97555,-1.51695 0,-0.56444 2.39889,-2.8575 5.78555,-5.53861 1.09361,-0.84667 1.02306,-1.622776 -0.14111,-1.622776 -0.35278,0 -1.62278,0.740836 -2.82222,1.622776 z m -2.46944,8.74889 c 2.01083,0.59972 2.18722,1.37583 0.635,3.13972 -1.16417,1.30528 -1.16417,1.30528 -2.75167,0.91722 -1.905,-0.45861 -3.03389,-1.55222 -2.36361,-2.25777 0.21166,-0.24695 0.77611,-0.84667 1.19944,-1.37584 0.91722,-1.05833 1.12889,-1.09361 3.28084,-0.42333 z"
         inkscape:connector-curvature="0"
         style="stroke-width:0.03527778" />
      <path
         id="path1474"
         d="m 296.91905,-94.696974 c -0.91723,0.49389 -2.01084,1.44639 -2.64584,2.32834 -0.88194,1.27 -1.05833,1.94027 -1.16416,4.09222 -0.14111,2.29305 -0.0353,2.75166 0.77611,4.02166 1.5875,2.54 3.84528,3.175 6.38527,1.72862 2.01084,-1.12889 2.99862,-3.03389 2.99862,-5.89139 0,-2.99861 -0.52917,-4.83306 -1.76389,-6.06778 -1.23473,-1.19945 -2.46945,-1.27 -4.58611,-0.21167 z m 3.66888,2.75167 c 1.16417,2.92805 0.45862,6.56167 -1.51694,7.54944 -1.62278,0.84667 -2.43417,0.70556 -3.21028,-0.59972 -1.5875,-2.57528 -0.56444,-6.38528 2.11667,-7.72583 1.72861,-0.88195 1.97555,-0.81139 2.61055,0.77611 z"
         inkscape:connector-curvature="0"
         style="stroke-width:0.03527778" />
    </g>
    <g
       transform="translate(204.10714,37.041668)"
       id="g9611">
      <path
         style="stroke-width:0.03527778"
         inkscape:connector-curvature="0"
         d="m -98.345777,37.969954 c -0.14111,0.14111 -2.681113,0.21166 -5.609173,0.17639 -4.7625,-0.10584 -6.24416,0.0353 -13.12333,1.16416 -4.26861,0.67028 -8.74889,1.44639 -9.98361,1.65806 l -2.18722,0.42333 0.10583,13.40555 0.14111,13.40556 1.12889,0.98778 c 1.34056,1.19944 2.46944,1.23472 9.56028,0.45861 2.61055,-0.3175 8.74889,-0.635 13.58194,-0.74084 5.397503,-0.14111 9.419173,-0.38805 10.406953,-0.67027 l 1.5875,-0.42334 v -11.60639 c -0.0353,-13.61721 -0.21167,-15.94555 -1.48167,-17.42721 -0.70556,-0.88195 -1.12889,-1.05834 -2.36361,-1.05834 -0.84667,0 -1.62278,0.10584 -1.76389,0.24695 z m -4.092223,2.11666 c 0.91722,0.52917 1.27,0.52917 3.457223,0.10584 1.37583,-0.24695 2.71639,-0.35278 2.99861,-0.24695 0.81139,0.3175 0.98778,2.75167 1.05833,14.95778 0.0706,8.60777 -0.0353,11.1125 -0.38805,11.46527 -0.35278,0.35278 -2.89278,0.52917 -10.230563,0.67028 -5.36222,0.14111 -10.23055,0.35278 -10.83028,0.45861 -2.18722,0.45861 -9.52499,0.81139 -10.15999,0.49389 -0.59973,-0.3175 -0.635,-0.77611 -0.52917,-5.15055 0.0353,-2.64584 -0.0353,-8.18445 -0.21167,-12.27667 -0.17639,-4.83305 -0.17639,-7.54944 0.0706,-7.69055 0.3175,-0.17639 3.4925,-0.74083 13.12334,-2.32833 7.44361,-1.19945 10.19527,-1.34056 11.64166,-0.45862 z"
         id="path1450-4" />
      <path
         style="stroke-width:0.03527778"
         inkscape:connector-curvature="0"
         d="m -113.19773,43.826064 c -2.43416,0.91722 -7.90222,3.38667 -8.57249,3.91583 -0.59973,0.42334 -0.38806,1.79917 0.28222,1.83445 0.28222,0 1.19944,-0.35278 2.01083,-0.81139 0.81139,-0.42334 1.62278,-0.81139 1.83445,-0.81139 0.24694,0 0.38805,1.905 0.38805,5.78555 0,4.7625 0.10583,5.85611 0.52917,6.20889 1.16416,0.9525 1.41111,-0.14111 1.5875,-6.63222 0.21166,-7.09083 -0.28223,-6.13833 3.98639,-7.97278 1.97555,-0.88194 2.54,-1.69333 1.44638,-2.11666 -0.81138,-0.3175 -1.16416,-0.24695 -3.4925,0.59972 z"
         id="path1452-7" />
      <path
         id="path1480"
         d="m -110.8348,51.536019 c -1.51695,0.52917 -1.94028,0.9525 -1.94028,1.94028 0,1.16416 0.74083,1.34055 2.39889,0.49389 1.76389,-0.88195 2.25778,-0.42334 1.16416,1.05833 -2.82222,3.81 -2.99861,4.445 -1.5875,5.57389 2.04612,1.62278 7.09084,0.10583 5.96195,-1.76389 -0.17639,-0.24694 -0.88195,-0.28222 -1.97556,-0.14111 -1.94027,0.28222 -2.2225,-0.14111 -1.05833,-1.62278 1.02306,-1.34055 1.79917,-3.03389 1.79917,-3.95111 0,-1.76389 -2.18723,-2.50472 -4.7625,-1.5875 z"
         inkscape:connector-curvature="0"
         style="stroke-width:0.03527778" />
    </g>
    <path
       style="stroke-width:0.03960861"
       inkscape:connector-curvature="0"
       d="m 49.794417,-78.983244 c 12.63794,-1.160354 20.0395,-0.627739 29.19348,2.204013 3.2797,1.008397 4.63039,1.744664 4.88884,2.660282 0.34835,1.234092 -0.63717,1.512275 -2.62804,0.741817 -7.74728,-3.013925 -15.78911,-4.139487 -24.92014,-3.539214 -7.08412,0.452322 -7.41264,0.545051 -17.79001,3.43129 -11.94693,3.329255 -15.1196,4.654644 -20.6084,8.52496 -2.03828,1.434967 -2.06354,1.485094 -1.5327,2.66766 0.33702,0.635548 1.07007,1.975959 1.65425,2.928585 1.0644,1.676684 1.06161,1.806424 0.55633,2.808668 -0.45474,0.902024 -0.79726,1.084687 -2.64197,1.390488 -3.09418,0.486563 -8.2325499,0.432615 -9.5382699,-0.144407 -0.62337,-0.253845 -1.25243,-0.806973 -1.40129,-1.194757 -0.40445,-0.874409 0.29145,-3.993573 1.7341,-8.097183 1.10586,-3.062962 1.10586,-3.062962 2.89439,-3.567809 1.7632699,-0.454712 1.8110099,-0.42518 2.9764599,1.05101 0.63471,0.852396 1.39571,1.454237 1.68772,1.371811 0.292,-0.08242 1.28588,-0.749797 2.22079,-1.486494 0.9349,-0.736684 3.57969,-2.256892 5.86511,-3.374798 5.52545,-2.76315 22.32406,-7.891729 27.38935,-8.375922 z"
       id="path1470-6" />
  </g>
</svg>
