<?xml version="1.0" encoding="UTF-8" standalone="no"?>
<!-- Created with Inkscape (http://www.inkscape.org/) -->

<svg
   xmlns:dc="http://purl.org/dc/elements/1.1/"
   xmlns:cc="http://creativecommons.org/ns#"
   xmlns:rdf="http://www.w3.org/1999/02/22-rdf-syntax-ns#"
   xmlns:svg="http://www.w3.org/2000/svg"
   xmlns="http://www.w3.org/2000/svg"
   xmlns:sodipodi="http://sodipodi.sourceforge.net/DTD/sodipodi-0.dtd"
   xmlns:inkscape="http://www.inkscape.org/namespaces/inkscape"
   width="145.31189mm"
   height="90.747963mm"
   viewBox="0 0 145.31189 90.747963"
   version="1.1"
   id="svg1578"
   inkscape:version="0.92.5 (2060ec1f9f, 2020-04-08)"
   sodipodi:docname="stack.svg">
  <defs
     id="defs1572" />
  <sodipodi:namedview
     id="base"
     pagecolor="#ffffff"
     bordercolor="#666666"
     borderopacity="1.0"
     inkscape:pageopacity="0.0"
     inkscape:pageshadow="2"
     inkscape:zoom="0.35"
     inkscape:cx="164.03704"
     inkscape:cy="149.77277"
     inkscape:document-units="mm"
     inkscape:current-layer="layer1"
     showgrid="false"
     fit-margin-top="0"
     fit-margin-left="0"
     fit-margin-right="0"
     fit-margin-bottom="0"
     inkscape:window-width="1920"
     inkscape:window-height="1080"
     inkscape:window-x="1920"
     inkscape:window-y="0"
     inkscape:window-maximized="0" />
  <metadata
     id="metadata1575">
    <rdf:RDF>
      <cc:Work
         rdf:about="">
        <dc:format>image/svg+xml</dc:format>
        <dc:type
           rdf:resource="http://purl.org/dc/dcmitype/StillImage" />
        <dc:title></dc:title>
      </cc:Work>
    </rdf:RDF>
  </metadata>
  <g
     inkscape:label="Layer 1"
     inkscape:groupmode="layer"
     id="layer1"
     transform="translate(58.826741,-97.71275)">
    <g
       id="g4490"
       transform="matrix(0.24994161,-0.00540296,0.00540296,0.24994161,9.5562279,131.77686)">
      <g
         id="g3976"
         transform="matrix(0.03527778,0,0,-0.03527778,-542.08356,463.70361)">
        <path
           d="m 20314,16887 c -3,-8 4,-67 16,-132 11,-65 20,-128 20,-141 0,-49 41,-135 74,-155 38,-24 84,-19 109,13 11,12 30,22 45,23 24,0 27,4 26,30 -2,46 -22,111 -42,135 -15,18 -19,19 -36,7 -19,-14 -19,-16 -2,-77 10,-34 15,-64 12,-67 -2,-3 -19,-6 -36,-6 -53,-3 -67,28 -89,188 -23,170 -32,195 -66,195 -14,0 -28,-6 -31,-13 z"
           id="path2895"
           inkscape:connector-curvature="0" />
        <path
           d="m 20480,16790 c -9,-16 -8,-25 1,-36 26,-32 84,0 62,34 -16,26 -50,27 -63,2 z"
           id="path2897"
           inkscape:connector-curvature="0" />
        <path
           d="m 19940,16785 c -12,-15 -11,-50 6,-162 5,-35 4,-43 -9,-43 -26,0 -85,-58 -98,-97 -6,-19 -9,-56 -6,-81 11,-98 128,-151 179,-82 13,19 31,30 46,30 58,0 86,51 38,70 -14,5 -29,17 -34,27 -9,18 -37,158 -52,266 -12,81 -39,109 -70,72 z m 34,-291 c 12,-32 6,-92 -13,-115 -19,-23 -19,-24 -40,-5 -31,28 -25,70 17,119 19,21 28,22 36,1 z"
           id="path2899"
           inkscape:connector-curvature="0" />
        <path
           d="m 20960,16781 c -8,-6 -27,-7 -42,-4 -40,8 -64,-18 -72,-76 l -6,-49 -34,34 c -36,36 -66,43 -86,19 -9,-11 -23,-13 -51,-9 -47,8 -48,5 -19,-98 11,-40 20,-83 20,-96 0,-26 24,-39 44,-23 7,6 17,42 20,81 8,77 24,91 50,42 23,-45 42,-57 70,-44 19,8 34,7 70,-7 l 46,-17 -26,-35 c -41,-54 -74,-126 -86,-184 -9,-49 -8,-56 11,-84 27,-37 55,-40 111,-11 56,29 69,62 77,190 l 6,111 59,66 c 32,36 58,74 58,84 0,30 -39,23 -81,-16 -22,-19 -43,-35 -48,-35 -10,0 -21,35 -21,69 0,13 -5,41 -12,62 -11,39 -28,48 -58,30 z m 1,-110 c 10,-45 6,-61 -16,-61 -31,0 -48,83 -23,108 16,16 28,3 39,-47 z m 33,-326 c -8,-57 -13,-69 -36,-83 -42,-25 -53,-6 -33,55 9,27 25,65 36,83 30,49 44,27 33,-55 z"
           id="path2901"
           inkscape:connector-curvature="0" />
        <path
           d="m 19351,16671 c -13,-8 -12,-28 2,-150 18,-147 49,-284 69,-308 6,-8 21,-13 32,-11 19,3 21,11 24,81 2,68 5,77 22,77 13,0 25,-17 42,-62 18,-48 29,-64 46,-66 32,-5 38,22 17,87 -24,77 -81,133 -133,129 l -37,-3 -11,86 c -11,79 -35,149 -52,149 -4,0 -13,-4 -21,-9 z"
           id="path2903"
           inkscape:connector-curvature="0" />
        <path
           d="m 20259,16653 c -1,-4 -1,-43 0,-85 3,-90 -10,-124 -39,-108 -13,7 -21,25 -25,58 -11,81 -14,92 -34,92 -32,0 -44,-26 -38,-84 5,-55 24,-102 52,-130 23,-22 97,-21 118,2 31,34 40,100 25,182 -12,64 -17,75 -36,78 -12,2 -23,0 -23,-5 z"
           id="path2905"
           inkscape:connector-curvature="0" />
        <path
           d="m 18888,16560 c -55,-48 -72,-86 -65,-143 7,-52 51,-96 123,-122 62,-23 84,-42 84,-71 0,-32 -40,-56 -101,-62 -46,-4 -49,-6 -49,-33 0,-43 30,-55 92,-34 107,35 151,90 128,160 -14,42 -66,89 -117,105 -96,31 -107,81 -32,151 44,42 49,51 39,69 -17,31 -52,24 -102,-20 z"
           id="path2907"
           inkscape:connector-curvature="0" />
        <path
           d="m 19693,16525 c -66,-28 -91,-115 -53,-183 12,-22 33,-45 47,-51 58,-26 143,-3 143,40 0,16 -7,19 -49,19 -64,0 -85,22 -43,44 36,18 72,62 72,85 0,25 -37,61 -63,61 -12,-1 -36,-7 -54,-15 z"
           id="path2909"
           inkscape:connector-curvature="0" />
        <path
           d="m 17550,16370 c -102,-55 -211,-112 -242,-127 -46,-20 -58,-30 -58,-48 0,-41 64,-47 135,-13 24,12 47,19 50,16 3,-3 17,-83 31,-178 30,-206 70,-345 99,-345 27,0 31,40 11,108 -8,28 -22,108 -31,177 -9,69 -22,157 -30,197 -8,40 -15,76 -15,81 0,4 30,25 68,47 103,59 190,124 197,145 7,23 -1,40 -18,40 -7,0 -95,-45 -197,-100 z"
           id="path2911"
           inkscape:connector-curvature="0" />
        <path
           d="m 19270,16443 c -76,-28 -117,-167 -69,-234 17,-24 27,-29 63,-29 49,0 96,30 96,61 0,16 -6,19 -47,16 -46,-2 -48,-1 -51,27 -4,34 13,78 39,102 23,21 25,50 3,58 -9,3 -16,6 -17,5 -1,0 -9,-3 -17,-6 z"
           id="path2913"
           inkscape:connector-curvature="0" />
        <path
           d="m 18310,16405 c -8,-10 -8,-38 0,-102 6,-48 15,-123 20,-165 15,-121 89,-250 106,-184 3,13 -2,40 -10,61 -27,64 -22,68 42,35 31,-17 71,-32 87,-33 26,-2 30,2 33,25 3,24 -3,30 -55,57 -32,16 -69,40 -81,54 l -24,25 37,41 c 38,42 43,73 11,79 -10,2 -31,-8 -46,-23 -35,-33 -50,-26 -50,23 0,85 -39,144 -70,107 z"
           id="path2915"
           inkscape:connector-curvature="0" />
        <path
           d="m 18135,16125 c -18,-17 -25,-35 -25,-64 0,-56 7,-69 51,-92 51,-25 49,-40 -3,-37 -40,3 -43,1 -43,-22 0,-29 34,-50 82,-50 84,0 101,143 19,167 -40,11 -44,34 -11,67 22,22 24,30 15,41 -19,23 -58,18 -85,-10 z"
           id="path2917"
           inkscape:connector-curvature="0" />
        <path
           d="m 17839,16088 c -68,-39 -103,-138 -79,-223 14,-49 58,-95 91,-95 31,0 69,30 90,72 l 20,39 29,-25 c 33,-27 59,-28 74,-2 9,13 7,20 -8,31 -10,8 -23,16 -28,17 -5,2 -18,35 -29,73 -15,56 -26,76 -57,102 -44,38 -55,39 -103,11 z m 74,-111 c -2,-66 -35,-140 -61,-135 -56,11 -47,143 12,179 17,10 36,17 41,15 6,-2 9,-28 8,-59 z"
           id="path2919"
           inkscape:connector-curvature="0" />
        <path
           d="m 21046,15964 c -3,-9 -6,-42 -6,-75 0,-69 -22,-122 -48,-117 -14,3 -17,16 -17,75 0,86 -15,111 -45,75 -46,-56 -33,-174 23,-216 24,-18 31,-19 59,-8 21,8 36,8 42,2 5,-5 10,-47 10,-92 1,-71 -3,-90 -25,-133 -15,-27 -33,-50 -40,-50 -21,0 -49,64 -49,111 0,80 -54,81 -66,2 -11,-64 63,-198 109,-198 27,0 88,66 116,126 22,46 23,57 17,174 -12,240 -18,315 -28,328 -14,17 -45,15 -52,-4 z"
           id="path2921"
           inkscape:connector-curvature="0" />
        <path
           d="m 16970,15941 c -125,-36 -196,-70 -370,-176 -131,-80 -158,-102 -285,-229 -145,-145 -213,-237 -323,-431 -84,-148 -233,-523 -263,-663 -6,-29 -15,-55 -21,-58 -5,-3 -64,-7 -130,-8 -100,-1 -123,-4 -131,-17 -18,-28 26,-268 62,-346 51,-108 66,-125 114,-121 47,3 48,4 178,207 92,142 119,192 119,219 0,20 -25,34 -90,50 -20,5 -36,15 -38,25 -9,44 171,505 260,667 105,191 236,362 376,491 137,125 382,267 586,338 119,42 122,44 101,64 -21,22 -32,21 -145,-12 z"
           id="path2923"
           inkscape:connector-curvature="0" />
        <path
           d="m 20757,15893 c -80,-30 -82,-35 -70,-154 8,-82 9,-84 35,-87 33,-4 39,15 36,100 -2,33 1,58 7,59 20,3 82,38 95,54 10,12 11,21 3,33 -14,24 -29,23 -106,-5 z"
           id="path2925"
           inkscape:connector-curvature="0" />
        <path
           d="m 20496,15847 c -40,-38 -51,-70 -43,-135 3,-31 12,-52 27,-64 30,-24 91,-23 123,2 55,44 61,149 11,201 -37,39 -73,38 -118,-4 z m 87,-91 c -5,-64 -63,-76 -63,-13 0,41 7,49 40,45 21,-3 25,-8 23,-32 z"
           id="path2927"
           inkscape:connector-curvature="0" />
        <path
           d="m 19650,15855 c -7,-8 -18,-54 -24,-102 -6,-49 -16,-88 -21,-88 -5,0 -22,32 -38,70 -15,39 -34,76 -41,83 -31,32 -58,-13 -89,-153 -19,-83 -50,-268 -51,-309 -1,-35 26,-56 51,-40 14,9 23,45 39,168 23,166 35,200 54,150 6,-16 25,-57 41,-91 24,-51 34,-63 54,-63 32,0 38,12 50,103 6,43 15,78 20,78 6,0 28,-41 50,-93 31,-70 45,-94 61,-96 43,-6 43,18 3,123 -22,55 -51,132 -66,170 -24,63 -53,105 -73,105 -4,0 -13,-7 -20,-15 z"
           id="path2929"
           inkscape:connector-curvature="0" />
        <path
           d="m 20304,15771 c -30,-46 -43,-50 -62,-21 -7,11 -20,20 -31,20 -10,0 -26,-9 -36,-20 -10,-11 -26,-20 -35,-20 -33,0 -39,-20 -33,-114 6,-95 14,-116 43,-116 20,0 36,34 45,98 8,51 21,54 41,7 22,-53 52,-42 83,30 l 13,30 21,-26 c 55,-65 82,-40 55,51 -38,129 -60,146 -104,81 z"
           id="path2931"
           inkscape:connector-curvature="0" />
        <path
           d="m 19939,15717 c -41,-28 -59,-60 -59,-110 0,-108 94,-183 161,-127 l 24,19 -42,17 c -24,9 -43,23 -43,31 0,8 18,31 39,51 46,43 59,83 41,118 -18,32 -74,33 -121,1 z"
           id="path2933"
           inkscape:connector-curvature="0" />
        <path
           d="m 18970,15675 c -30,-36 -16,-238 22,-326 35,-82 96,-121 147,-94 28,14 61,49 61,64 0,17 -41,23 -72,10 -28,-11 -33,-11 -49,10 -29,36 -41,88 -46,211 -3,63 -10,121 -15,128 -14,16 -33,15 -48,-3 z"
           id="path2935"
           inkscape:connector-curvature="0" />
        <path
           d="m 18320,15465 c -9,-11 -10,-36 -5,-90 8,-84 -1,-105 -42,-105 -13,0 -50,-14 -83,-30 -68,-34 -69,-38 -46,-148 16,-74 29,-92 54,-75 14,9 16,23 14,77 -2,36 1,66 6,66 4,0 27,16 50,36 42,35 62,37 62,6 1,-26 38,-103 58,-118 27,-21 67,-16 96,11 49,45 22,95 -34,62 -26,-16 -27,-16 -39,9 -24,54 -5,82 80,122 4,2 10,-14 14,-35 11,-58 41,-109 73,-122 43,-18 96,6 119,54 15,31 16,44 5,108 -7,40 -19,78 -27,86 -33,34 -63,-26 -45,-91 14,-49 12,-78 -6,-85 -23,-9 -41,19 -49,77 -8,57 -27,79 -50,60 -8,-7 -15,-19 -15,-26 0,-19 -20,-18 -42,3 -11,9 -32,16 -47,15 -27,-2 -28,0 -35,59 -8,83 -35,112 -66,74 z"
           id="path2937"
           inkscape:connector-curvature="0" />
        <path
           d="m 18845,15423 c -65,-14 -105,-70 -105,-147 0,-33 6,-52 26,-75 30,-36 55,-39 109,-11 22,11 52,20 67,20 45,0 57,34 22,62 -13,11 -27,40 -35,70 -20,85 -29,93 -84,81 z m 15,-112 c 0,-42 -10,-61 -31,-61 -22,0 -26,38 -9,71 16,30 40,24 40,-10 z"
           id="path2939"
           inkscape:connector-curvature="0" />
        <path
           d="m 17869,15363 c -1,-5 -2,-82 -3,-173 -3,-176 -8,-209 -33,-188 -22,18 -68,115 -88,183 -34,119 -52,144 -83,113 -17,-17 -15,-64 8,-135 41,-131 108,-235 172,-269 57,-30 67,-15 89,129 14,89 7,293 -10,326 -11,20 -50,30 -52,14 z"
           id="path2941"
           inkscape:connector-curvature="0" />
        <path
           d="m 17992,15268 c -16,-16 -15,-43 3,-58 10,-8 15,-31 16,-64 1,-100 48,-201 80,-169 15,15 -8,167 -30,202 -9,14 -15,33 -13,43 4,22 -15,58 -31,58 -7,0 -18,-5 -25,-12 z"
           id="path2943"
           inkscape:connector-curvature="0" />
        <path
           d="m 12875,13770 c -170,-5 -438,-13 -595,-19 -157,-6 -402,-15 -545,-21 -285,-10 -331,-18 -380,-70 -25,-26 -27,-32 -16,-57 8,-21 9,-54 1,-128 -7,-71 -7,-167 1,-330 6,-126 8,-285 4,-352 -7,-139 -3,-153 55,-183 31,-16 73,-22 197,-31 87,-5 183,-14 213,-20 30,-5 242,-14 470,-19 228,-5 505,-14 615,-20 110,-6 421,-10 690,-10 270,0 591,-5 715,-10 390,-16 828,-40 1035,-55 383,-28 1054,-54 1640,-65 508,-9 908,-20 1590,-45 83,-3 326,-10 540,-15 215,-6 561,-17 770,-25 209,-8 486,-17 615,-20 527,-14 1088,-36 1242,-50 90,-8 291,-26 448,-40 461,-42 851,-73 1060,-85 107,-6 267,-15 355,-20 88,-6 208,-10 266,-10 92,0 110,3 132,21 37,29 55,97 74,289 14,143 14,191 3,365 -6,110 -15,297 -20,415 -12,325 -23,344 -206,369 -43,6 -196,18 -339,26 -143,9 -316,20 -385,25 -569,44 -989,64 -1675,80 -397,9 -1139,33 -1380,45 -60,3 -933,9 -1940,14 -1713,8 -2081,14 -2970,43 -418,13 -1843,18 -2280,8 z m 2230,-59 c 220,-6 571,-16 780,-22 209,-6 1192,-15 2185,-19 1527,-7 1893,-11 2375,-29 314,-11 757,-25 985,-31 440,-11 1178,-43 1382,-60 131,-11 573,-43 828,-60 266,-17 302,-28 321,-89 6,-20 15,-135 19,-256 5,-121 14,-285 20,-365 18,-252 -8,-592 -49,-633 -16,-17 -34,-17 -392,-2 -464,19 -746,39 -1554,115 -436,41 -518,45 -1615,75 -294,9 -728,22 -965,30 -236,8 -601,19 -810,25 -209,6 -483,15 -610,20 -126,5 -457,14 -735,20 -948,18 -1194,28 -1820,70 -157,11 -388,24 -515,30 -126,6 -309,15 -405,21 -96,6 -497,14 -891,18 -394,4 -720,11 -725,14 -6,3 -185,8 -399,11 -425,7 -482,9 -690,31 -77,8 -200,19 -273,23 -73,5 -137,13 -143,19 -7,7 -7,40 1,109 8,74 8,157 -1,324 -14,288 -14,265 -4,407 l 8,122 31,11 c 48,18 734,45 2041,80 362,10 1052,6 1620,-9 z"
           id="path2947"
           inkscape:connector-curvature="0" />
        <path
           d="m 13460,13526 c -98,-26 -183,-106 -243,-228 -78,-158 -66,-294 36,-405 57,-62 105,-83 193,-83 60,0 76,4 115,28 61,39 101,88 143,174 87,176 69,371 -42,468 -65,58 -116,70 -202,46 z m 109,-70 c 42,-3 92,-55 109,-114 19,-62 15,-184 -7,-248 -23,-65 -72,-136 -122,-176 -101,-82 -232,-42 -299,92 -42,82 -13,225 70,344 48,70 136,121 190,110 14,-3 40,-7 59,-8 z"
           id="path2949"
           inkscape:connector-curvature="0" />
        <path
           d="m 16505,13375 c -131,-46 -187,-105 -187,-195 0,-72 25,-100 135,-153 96,-46 157,-89 157,-112 0,-8 -14,-24 -32,-37 -26,-18 -46,-22 -98,-23 -36,0 -79,7 -97,15 -18,8 -35,11 -39,8 -15,-16 8,-55 45,-76 72,-41 193,-24 247,34 45,47 49,89 16,139 -22,33 -49,51 -147,100 -118,59 -120,60 -123,97 -4,50 46,105 129,142 51,23 68,27 110,21 67,-9 90,7 58,42 -30,31 -83,30 -174,-2 z"
           id="path2951"
           inkscape:connector-curvature="0" />
        <path
           d="m 14965,13299 c -9,-17 -23,-60 -30,-96 -8,-36 -16,-68 -20,-71 -3,-4 -22,-5 -41,-3 -23,2 -36,-2 -40,-12 -8,-21 12,-54 37,-62 20,-7 21,-12 14,-70 -11,-102 29,-175 96,-175 43,0 99,40 99,71 0,22 -19,24 -66,7 -49,-17 -64,0 -64,73 0,63 5,70 59,75 99,11 120,16 135,33 27,30 -3,45 -88,46 -70,0 -71,0 -68,25 1,14 12,55 23,92 12,37 19,74 16,83 -11,26 -45,17 -62,-16 z"
           id="path2953"
           inkscape:connector-curvature="0" />
        <path
           d="m 15203,13204 c -14,-38 41,-70 67,-39 11,13 10,19 -5,35 -22,24 -53,26 -62,4 z"
           id="path2955"
           inkscape:connector-curvature="0" />
        <path
           d="m 17385,13210 c -3,-5 -11,-51 -16,-101 -13,-118 -21,-137 -56,-141 -23,-2 -28,-7 -25,-27 1,-14 10,-33 18,-42 10,-12 15,-33 14,-61 -4,-76 0,-96 26,-127 20,-25 34,-31 64,-31 45,0 86,29 77,53 -4,12 -18,17 -46,17 -31,0 -43,5 -52,21 -17,32 -6,121 16,134 10,5 30,20 44,33 25,21 25,23 7,37 -10,8 -23,16 -28,17 -6,2 -5,40 2,101 10,77 10,100 0,112 -14,17 -36,20 -45,5 z"
           id="path2957"
           inkscape:connector-curvature="0" />
        <path
           d="m 13887,13177 c -79,-45 -99,-80 -92,-160 3,-34 2,-115 -2,-180 -9,-126 -4,-160 24,-155 15,3 20,22 29,123 7,66 12,154 13,195 l 1,75 49,34 c 42,28 54,32 78,24 15,-5 29,-17 31,-26 6,-28 -18,-95 -45,-127 -21,-25 -32,-31 -56,-27 -33,4 -43,-10 -33,-48 5,-21 12,-25 43,-25 29,0 44,8 81,45 24,25 46,45 48,45 1,0 8,-16 14,-35 24,-74 109,-108 161,-66 l 24,19 -25,10 c -14,5 -38,14 -55,19 -16,4 -30,15 -30,23 0,8 14,17 30,20 67,14 125,63 125,105 0,27 -27,70 -53,84 -36,19 -71,7 -117,-39 -22,-22 -42,-40 -45,-40 -3,0 -5,17 -5,38 0,40 -20,67 -67,91 -35,18 -64,13 -126,-22 z m 343,-107 c 0,-18 -44,-50 -70,-50 -19,0 -10,29 16,49 34,26 54,27 54,1 z"
           id="path2959"
           inkscape:connector-curvature="0" />
        <path
           d="m 14443,13153 c -23,-2 -46,-9 -51,-16 -5,-7 -11,-66 -13,-132 l -4,-120 h 25 c 23,0 25,4 36,83 16,109 17,112 56,112 43,0 99,16 123,35 20,15 20,15 1,30 -19,15 -71,17 -173,8 z"
           id="path2961"
           inkscape:connector-curvature="0" />
        <path
           d="m 14648,13074 c -35,-19 -58,-63 -58,-111 0,-46 16,-80 51,-105 24,-18 29,-18 60,-5 32,13 37,13 58,-4 29,-24 62,-24 91,-1 l 23,19 -24,16 c -13,10 -29,17 -35,17 -17,0 -24,24 -24,80 0,46 -2,50 -46,79 -51,35 -58,36 -96,15 z m 72,-87 c 0,-27 -26,-67 -44,-67 -17,0 -27,49 -15,72 5,10 21,18 34,18 19,0 25,-5 25,-23 z"
           id="path2963"
           inkscape:connector-curvature="0" />
        <path
           d="m 15749,13079 c -8,-5 -25,-9 -39,-9 -17,0 -39,-14 -62,-37 -61,-63 -73,-123 -38,-180 22,-37 58,-50 89,-33 18,9 21,8 21,-12 -1,-30 -36,-107 -62,-135 -38,-41 -64,-29 -89,40 -17,47 -43,46 -47,-2 -10,-104 92,-168 168,-105 65,55 119,211 125,361 3,73 1,94 -12,104 -19,17 -37,19 -54,8 z m -19,-106 c 0,-30 -38,-83 -60,-83 -25,0 -27,28 -5,70 18,35 65,43 65,13 z"
           id="path2965"
           inkscape:connector-curvature="0" />
        <path
           d="m 15396,13038 c -25,-32 -25,-32 -46,-13 -19,17 -22,17 -37,3 -13,-13 -14,-22 -4,-49 6,-17 11,-49 11,-71 0,-25 5,-41 15,-44 23,-9 42,12 60,66 32,96 66,89 88,-18 15,-72 29,-91 52,-72 34,28 4,162 -46,204 -40,34 -62,33 -93,-6 z"
           id="path2967"
           inkscape:connector-curvature="0" />
        <path
           d="m 15213,13038 c -5,-7 -10,-50 -12,-96 -2,-67 0,-83 13,-88 30,-11 44,15 51,92 5,53 4,78 -5,89 -15,18 -34,19 -47,3 z"
           id="path2969"
           inkscape:connector-curvature="0" />
        <path
           d="m 16826,12999 c -57,-45 -74,-147 -32,-196 23,-27 26,-27 67,-16 24,6 46,10 48,7 3,-2 -3,-21 -13,-42 -48,-101 -118,-163 -162,-143 -13,6 -33,30 -45,53 -27,54 -28,55 -39,38 -24,-37 -1,-114 42,-144 78,-55 214,36 266,176 33,88 56,217 42,234 -22,25 -46,16 -65,-25 -34,-76 -105,-118 -105,-62 0,24 19,70 37,92 13,16 8,49 -7,49 -4,0 -19,-9 -34,-21 z"
           id="path2971"
           inkscape:connector-curvature="0" />
        <path
           d="m 17139,12945 c -100,-51 -100,-105 2,-147 43,-18 48,-23 36,-35 -7,-7 -31,-16 -53,-19 -66,-9 -69,-12 -49,-34 21,-23 92,-28 128,-9 35,18 67,51 67,69 0,29 -37,66 -79,79 -52,15 -52,37 -1,57 46,18 65,45 48,62 -17,17 -25,15 -99,-23 z"
           id="path2973"
           inkscape:connector-curvature="0" />
        <path
           d="m 17632,12940 c -49,-12 -101,-51 -113,-87 -14,-42 3,-104 41,-146 25,-28 35,-32 78,-32 53,0 91,20 72,39 -6,6 -32,18 -58,26 -58,18 -62,41 -9,52 47,10 114,43 120,60 7,21 -21,67 -53,83 -32,16 -31,16 -78,5 z"
           id="path2975"
           inkscape:connector-curvature="0" />
        <path
           d="m 17913,12925 c -15,-6 -34,-10 -41,-7 -18,6 -44,-19 -37,-36 3,-8 -2,-37 -10,-63 -22,-66 -17,-113 12,-117 17,-3 26,4 34,25 44,105 59,133 73,133 13,0 16,-14 16,-72 0,-86 7,-101 46,-96 21,2 43,21 87,76 55,68 86,87 102,62 3,-5 11,-48 17,-95 12,-98 34,-139 62,-116 14,11 15,27 10,95 -11,130 -48,206 -101,206 -26,0 -88,-36 -117,-69 -26,-29 -33,-27 -47,17 -6,20 -16,42 -21,48 -14,18 -53,22 -85,9 z"
           id="path2977"
           inkscape:connector-curvature="0" />
        <path
           d="m 11384,12216 c -15,-61 -19,-137 -11,-236 13,-165 -3,-440 -38,-695 -8,-55 -15,-157 -17,-227 -3,-128 -3,-128 25,-155 32,-32 -20,-31 582,-19 396,8 853,1 1480,-24 138,-5 369,-14 515,-20 533,-21 840,-47 1285,-111 385,-56 419,-60 507,-66 105,-7 131,-1 146,32 24,53 32,294 23,700 -9,449 -13,476 -79,546 l -37,39 -215,40 c -118,22 -235,46 -260,54 -50,16 -335,32 -740,41 -140,3 -430,12 -645,20 -214,8 -532,19 -705,25 -476,16 -808,28 -1085,40 -137,6 -347,15 -465,19 -118,5 -225,12 -237,16 -18,6 -23,3 -29,-19 z m 741,-86 c 127,-6 379,-15 560,-20 182,-6 530,-17 775,-25 245,-8 670,-19 945,-25 352,-7 525,-15 585,-25 47,-9 132,-20 189,-25 57,-6 161,-22 230,-36 69,-14 173,-36 231,-48 58,-12 111,-25 119,-30 7,-5 23,-29 34,-55 19,-43 21,-73 29,-411 7,-337 -1,-629 -17,-672 -12,-32 -161,-24 -515,28 -530,77 -1044,118 -1790,144 -769,26 -1125,32 -1604,28 l -519,-5 7,116 c 3,64 13,161 21,215 31,203 47,483 40,668 -4,98 -4,182 0,188 7,12 235,8 680,-10 z"
           id="path2981"
           inkscape:connector-curvature="0" />
        <path
           d="m 12769,11822 c -59,-38 -113,-102 -151,-180 -26,-52 -33,-80 -36,-147 -3,-48 0,-97 7,-118 19,-57 69,-117 114,-138 99,-45 271,-2 238,59 -9,17 -16,19 -48,11 -57,-13 -108,-11 -153,7 -54,22 -95,101 -88,172 7,67 48,153 104,212 50,54 64,61 64,31 0,-37 28,-31 64,14 42,51 43,54 16,83 -29,31 -76,28 -131,-6 z"
           id="path2983"
           inkscape:connector-curvature="0" />
        <path
           d="m 13225,11805 c -5,-2 -22,-6 -36,-9 -18,-4 -29,-14 -33,-31 -3,-13 -15,-29 -26,-35 -18,-10 -20,-21 -20,-133 0,-76 -6,-143 -15,-177 -19,-71 -19,-124 0,-140 23,-19 34,-3 57,86 15,58 21,113 22,209 l 1,130 45,12 c 25,6 73,12 106,12 73,1 89,-12 80,-64 -10,-49 -75,-87 -143,-83 -43,3 -48,1 -51,-19 -9,-61 109,-88 178,-40 54,36 73,70 78,137 8,116 -29,151 -160,149 -40,0 -77,-2 -83,-4 z"
           id="path2985"
           inkscape:connector-curvature="0" />
        <path
           d="m 13606,11712 c -12,-20 -26,-146 -26,-242 0,-127 21,-183 94,-247 90,-79 149,-58 220,76 41,79 66,183 66,280 0,81 -15,110 -48,92 -19,-10 -22,-21 -22,-69 -1,-31 -7,-85 -14,-118 -17,-79 -85,-208 -112,-212 -28,-4 -71,32 -96,81 -19,38 -20,53 -16,194 5,151 2,173 -28,173 -7,0 -15,-4 -18,-8 z"
           id="path2987"
           inkscape:connector-curvature="0" />
        <path
           d="m 17082,11986 c -301,-10 -334,-13 -343,-28 -6,-10 -21,-18 -34,-18 -15,0 -31,-10 -41,-25 -15,-23 -16,-58 -6,-393 5,-202 9,-464 7,-582 -1,-118 1,-225 6,-237 4,-12 26,-31 49,-43 37,-19 68,-21 383,-30 188,-6 470,-20 627,-31 218,-16 444,-23 965,-29 374,-5 736,-14 805,-20 235,-21 502,-28 538,-14 30,12 32,16 32,61 0,26 -7,86 -14,133 -23,134 -34,286 -41,545 -5,189 -11,264 -28,355 -29,148 -56,198 -117,221 -81,31 -487,78 -672,79 -59,0 -119,5 -135,11 -17,7 -185,17 -413,25 -212,7 -479,18 -595,23 -249,12 -520,11 -973,-3 z m 1093,-80 c 165,-8 381,-18 480,-21 99,-3 203,-10 230,-16 28,-5 163,-13 302,-19 269,-11 636,-57 678,-84 49,-32 74,-194 85,-556 6,-162 14,-329 20,-370 22,-175 24,-219 7,-226 -15,-5 -227,4 -582,27 -88,5 -423,12 -745,14 -322,2 -646,9 -720,14 -226,17 -695,42 -937,49 l -228,7 -2,445 c -1,245 -5,509 -9,588 l -7,142 209,1 c 115,1 268,5 339,8 227,13 571,11 880,-3 z"
           id="path2989"
           inkscape:connector-curvature="0" />
        <path
           d="m 17832,11782 c -11,-11 -27,-35 -36,-54 -9,-18 -30,-41 -46,-50 -27,-15 -29,-20 -20,-43 6,-15 10,-53 10,-85 0,-86 18,-103 113,-108 77,-4 117,7 117,33 0,21 -18,28 -89,34 -73,7 -83,18 -61,72 11,25 18,29 50,29 47,0 75,27 47,44 -51,30 -51,31 -38,64 26,63 -6,105 -47,64 z"
           id="path2991"
           inkscape:connector-curvature="0" />
        <path
           d="m 17091,11759 c -13,-5 -41,-23 -62,-40 -32,-25 -39,-37 -39,-65 0,-28 6,-38 32,-54 17,-10 49,-22 70,-25 45,-8 51,-15 42,-50 -8,-34 -53,-56 -105,-53 -53,4 -73,-20 -45,-51 33,-37 133,-21 189,29 29,26 32,34 32,85 0,66 -21,91 -87,101 -22,4 -42,14 -46,22 -8,21 34,52 69,52 22,0 29,5 29,20 0,10 -9,24 -19,30 -23,12 -28,12 -60,-1 z"
           id="path2993"
           inkscape:connector-curvature="0" />
        <path
           d="m 17270,11618 c -19,-32 -19,-52 2,-136 12,-47 48,-82 84,-82 14,0 24,-6 24,-14 0,-22 -22,-80 -36,-95 -12,-13 -15,-10 -25,17 -13,39 -34,41 -53,5 -20,-40 6,-94 52,-107 43,-12 78,12 109,75 29,57 75,266 71,321 -3,38 -6,43 -27,43 -27,0 -36,-13 -51,-70 -5,-22 -19,-55 -31,-74 l -20,-34 -21,21 c -22,22 -29,85 -15,135 7,24 5,27 -18,27 -18,0 -31,-10 -45,-32 z"
           id="path2995"
           inkscape:connector-curvature="0" />
        <path
           d="m 17588,11632 c -19,-10 -37,-29 -43,-46 -9,-26 -6,-31 29,-62 46,-40 43,-64 -8,-64 -44,0 -52,-14 -31,-47 15,-23 22,-25 62,-20 57,6 96,42 96,88 0,25 -8,39 -37,64 l -38,32 26,17 c 20,13 24,21 17,33 -12,23 -34,24 -73,5 z"
           id="path2997"
           inkscape:connector-curvature="0" />
        <path
           d="m 18053,11631 c -57,-26 -77,-59 -71,-116 3,-25 13,-56 23,-71 34,-52 165,-85 173,-43 2,11 -15,25 -53,42 -41,20 -55,32 -55,47 0,19 4,21 44,15 63,-10 96,13 96,66 0,34 -5,42 -32,59 -41,25 -71,25 -125,1 z"
           id="path2999"
           inkscape:connector-curvature="0" />
        <path
           d="m 18345,11593 c -89,-27 -97,-33 -120,-103 -17,-49 -20,-72 -13,-92 19,-54 69,-25 121,67 12,21 27,40 32,42 6,2 17,-23 25,-54 20,-76 41,-81 104,-23 48,45 66,46 58,5 -2,-14 3,-46 13,-71 15,-39 20,-45 44,-42 25,3 26,7 33,73 3,39 9,93 13,120 6,41 4,53 -9,64 -14,12 -27,9 -88,-18 -39,-17 -73,-29 -75,-27 -3,2 -12,19 -21,38 -20,39 -44,44 -117,21 z"
           id="path3001"
           inkscape:connector-curvature="0" />
        <path
           d="m 17889,11195 c -54,-29 -70,-76 -76,-222 -7,-168 0,-192 60,-191 23,0 62,-3 87,-6 54,-8 85,6 117,53 30,44 31,118 3,154 -11,14 -20,30 -20,37 0,7 9,23 20,37 25,32 27,94 3,115 -40,36 -148,48 -194,23 z m 118,-72 c 7,-17 -37,-63 -61,-63 -21,0 -36,-24 -30,-46 3,-11 24,-29 47,-40 40,-18 42,-21 41,-61 0,-23 -6,-49 -14,-57 -17,-22 -47,-20 -55,3 -3,11 -16,21 -28,23 -25,3 -24,0 -12,153 5,50 13,93 19,97 22,15 86,9 93,-9 z"
           id="path3003"
           inkscape:connector-curvature="0" />
        <path
           d="m 18205,11026 c -22,-34 -31,-156 -15,-197 23,-55 100,-74 157,-39 78,47 114,240 44,240 -27,0 -44,-26 -37,-54 3,-13 2,-26 -3,-28 -5,-2 -17,-21 -27,-42 -11,-22 -27,-44 -36,-50 -31,-19 -38,3 -27,88 6,44 8,85 5,93 -9,21 -44,15 -61,-11 z"
           id="path3005"
           inkscape:connector-curvature="0" />
        <path
           d="m 18511,11010 c -41,-19 -43,-22 -37,-53 3,-17 20,-45 37,-60 40,-37 36,-68 -11,-83 -44,-14 -49,-36 -14,-59 25,-16 28,-16 66,1 46,21 88,70 88,104 0,13 -15,36 -37,56 l -37,34 22,23 c 22,23 22,24 4,40 -23,21 -27,21 -81,-3 z"
           id="path3007"
           inkscape:connector-curvature="0" />
        <path
           d="m 21285,11850 c -176,-5 -363,-13 -415,-20 -52,-6 -133,-15 -180,-19 -103,-11 -119,-17 -124,-45 -2,-11 -9,-46 -15,-76 -6,-30 -16,-100 -22,-155 -6,-55 -15,-131 -19,-170 -5,-38 -13,-158 -20,-265 -6,-107 -18,-242 -26,-300 -27,-201 -20,-240 53,-262 129,-41 230,-48 823,-58 532,-9 1043,-27 1560,-56 157,-8 455,-16 662,-17 458,-2 418,-17 408,153 -4,63 -12,178 -18,255 -6,77 -16,212 -22,300 -7,88 -18,200 -26,250 -8,49 -21,140 -29,202 -15,121 -31,168 -62,196 -26,23 -116,33 -463,51 -146,8 -283,19 -305,25 -52,14 -1315,22 -1760,11 z m 1430,-76 c 19,-12 63,-17 212,-20 103,-3 269,-9 368,-15 99,-5 240,-12 313,-16 100,-5 138,-10 153,-22 15,-13 22,-41 34,-136 8,-66 21,-168 29,-228 8,-59 20,-183 26,-275 6,-92 16,-223 22,-292 24,-276 24,-268 -8,-281 -46,-17 -600,-12 -1079,11 -687,32 -1169,50 -1630,60 -236,6 -470,16 -520,23 l -90,12 -3,39 c -2,22 4,82 13,133 8,52 20,176 26,276 5,100 14,225 19,277 6,52 14,149 20,215 5,66 13,136 18,155 l 8,35 104,17 c 190,30 571,43 1398,46 481,2 545,0 567,-14 z"
           id="path3009"
           inkscape:connector-curvature="0" />
        <path
           d="m 20919,11495 c -55,-29 -82,-76 -57,-101 12,-12 13,-26 6,-72 -5,-31 -8,-114 -6,-184 2,-102 6,-131 20,-144 30,-31 38,-8 38,115 v 117 h 48 c 55,0 104,24 135,67 22,28 35,133 23,180 -13,52 -127,64 -207,22 z m 146,-55 c 10,-17 -5,-88 -23,-110 -18,-22 -101,-46 -112,-33 -3,4 -4,34 -2,65 4,54 5,57 40,72 43,18 88,20 97,6 z"
           id="path3011"
           inkscape:connector-curvature="0" />
        <path
           d="m 21998,11367 c -8,-9 -15,-38 -16,-68 -2,-30 -10,-109 -18,-176 -12,-91 -13,-127 -4,-142 19,-37 46,-25 77,31 37,70 56,73 73,11 7,-26 17,-54 23,-60 13,-18 46,-16 53,2 5,12 14,8 44,-19 43,-39 85,-51 124,-36 40,15 30,41 -26,68 -58,27 -62,47 -9,56 49,8 90,47 83,81 -5,29 -55,75 -81,75 -30,0 -98,-67 -116,-115 -20,-50 -30,-51 -39,-1 -10,53 -41,86 -82,86 h -34 v 93 c 0,79 -3,97 -19,111 -16,15 -21,15 -33,3 z"
           id="path3013"
           inkscape:connector-curvature="0" />
        <path
           d="m 23101,11366 c -6,-7 -16,-40 -22,-72 -6,-33 -26,-104 -44,-160 -44,-132 -35,-171 46,-196 29,-8 45,-8 69,2 63,26 55,74 -13,76 -61,1 -65,13 -35,102 32,93 52,203 44,237 -7,27 -27,33 -45,11 z"
           id="path3015"
           inkscape:connector-curvature="0" />
        <path
           d="m 21180,11260 c -67,-16 -112,-101 -91,-175 16,-58 54,-96 101,-102 43,-6 70,8 70,37 0,11 -17,24 -50,38 -36,15 -50,26 -50,41 0,14 5,18 19,14 30,-8 90,16 107,43 22,33 11,70 -29,94 -17,11 -34,19 -37,19 -3,-1 -21,-5 -40,-9 z"
           id="path3017"
           inkscape:connector-curvature="0" />
        <path
           d="m 21573,11263 c -22,-8 -15,-51 8,-58 28,-9 43,8 35,39 -6,25 -17,30 -43,19 z"
           id="path3019"
           inkscape:connector-curvature="0" />
        <path
           d="m 21352,11168 c -23,-48 -38,-134 -28,-172 5,-19 13,-26 30,-26 26,0 48,41 61,114 4,21 13,39 19,41 6,2 24,6 39,9 70,16 29,76 -52,76 -46,0 -48,-2 -69,-42 z"
           id="path3021"
           inkscape:connector-curvature="0" />
        <path
           d="m 21770,11182 c -48,-23 -51,-29 -43,-92 3,-30 7,-104 7,-165 1,-105 2,-110 23,-113 24,-4 28,6 38,86 7,51 9,54 56,77 90,46 105,127 36,203 -25,26 -67,28 -117,4 z m 77,-78 c 23,-22 2,-67 -30,-62 -25,3 -35,41 -17,64 16,18 28,18 47,-2 z"
           id="path3023"
           inkscape:connector-curvature="0" />
        <path
           d="m 22486,11137 c -35,-46 -49,-173 -21,-193 28,-21 33,-18 46,29 23,86 30,97 58,97 32,0 91,35 91,54 0,23 -22,33 -87,39 -62,7 -63,6 -87,-26 z"
           id="path3025"
           inkscape:connector-curvature="0" />
        <path
           d="m 22728,11145 c -106,-72 -58,-260 60,-230 15,3 44,7 64,8 21,2 46,10 55,20 16,16 16,18 -3,37 -18,19 -19,26 -10,71 9,42 8,52 -7,66 -26,26 -47,7 -70,-60 -18,-54 -42,-77 -67,-62 -27,17 11,105 46,105 16,0 18,23 4,51 -14,25 -28,24 -72,-6 z"
           id="path3027"
           inkscape:connector-curvature="0" />
        <path
           d="m 21572,11138 c -14,-19 -44,-172 -36,-191 3,-10 16,-17 28,-17 20,0 25,9 39,78 20,92 21,114 5,130 -15,15 -23,15 -36,0 z"
           id="path3029"
           inkscape:connector-curvature="0" />
        <path
           d="m 23289,11109 c -35,-38 -36,-53 -4,-104 13,-22 25,-47 25,-56 0,-20 -31,-49 -52,-49 -28,0 -42,-27 -30,-55 9,-19 19,-25 44,-25 39,0 66,21 102,74 32,47 33,84 4,121 -18,24 -20,32 -10,58 25,65 -29,90 -79,36 z"
           id="path3031"
           inkscape:connector-curvature="0" />
        <path
           d="m 10875,10749 c -11,-20 -15,-43 -11,-64 6,-32 6,-33 -61,-61 -86,-36 -336,-163 -425,-216 -73,-43 -211,-159 -353,-297 -49,-48 -128,-119 -175,-158 -153,-126 -500,-465 -622,-607 -96,-112 -119,-143 -116,-165 6,-51 38,-31 143,89 151,174 497,508 670,647 44,36 116,99 160,139 126,116 265,234 309,262 128,81 509,264 520,250 2,-1 11,-32 20,-68 10,-36 27,-82 39,-102 33,-60 53,-53 140,50 35,42 88,108 117,146 46,62 51,73 43,99 -13,45 -57,65 -160,72 -48,3 -118,8 -155,11 l -67,5 z"
           id="path3037"
           inkscape:connector-curvature="0" />
        <path
           d="m 17890,10463 c -11,-4 -151,-90 -179,-110 -3,-2 -4,-27 -3,-56 2,-47 7,-56 43,-91 47,-45 51,-14 -31,-280 -28,-93 -89,-264 -134,-380 -96,-244 -139,-376 -130,-400 10,-27 48,-19 67,14 10,16 35,76 57,132 85,225 129,337 165,423 48,116 103,274 116,337 l 11,50 42,-6 c 79,-13 146,-14 163,-1 18,13 18,13 -39,119 -9,17 -17,38 -18,47 0,24 -48,160 -65,186 -15,22 -34,27 -65,16 z"
           id="path3041"
           inkscape:connector-curvature="0" />
        <path
           d="m 21918,10255 c -54,-51 -98,-98 -98,-104 0,-5 9,-26 21,-45 19,-33 78,-65 144,-78 24,-4 23,-25 -5,-173 -29,-148 -40,-263 -50,-530 -5,-132 -16,-305 -25,-385 -9,-80 -15,-170 -13,-200 3,-54 4,-55 33,-55 27,0 31,4 37,40 16,92 41,395 49,605 9,247 27,425 58,569 11,51 21,95 23,97 2,1 31,-4 64,-13 58,-16 63,-15 107,3 26,10 47,24 47,31 0,13 -111,180 -164,247 -92,115 -100,115 -228,-9 z"
           id="path3043"
           inkscape:connector-curvature="0" />
        <path
           d="m 7700,8981 c -39,-12 -93,-41 -117,-64 -22,-19 -31,-66 -16,-80 13,-13 2,-429 -13,-508 -19,-103 -1,-155 43,-124 21,14 41,119 46,235 l 2,55 47,1 c 63,2 148,44 192,96 37,43 66,113 66,160 0,47 -49,135 -106,188 -55,52 -82,60 -144,41 z m 107,-113 c 59,-65 69,-98 49,-153 -10,-24 -26,-55 -37,-69 -30,-38 -103,-78 -136,-74 l -28,3 -5,147 -5,147 35,15 c 80,34 81,34 127,-16 z"
           id="path3045"
           inkscape:connector-curvature="0" />
        <path
           d="m 16733,8798 c -39,-47 -213,-480 -213,-530 0,-8 11,-20 25,-26 29,-13 31,-11 61,68 17,43 26,54 40,52 11,-2 52,-6 92,-9 l 72,-5 v -67 c 1,-83 24,-136 60,-136 28,0 28,-14 11,180 -22,266 -44,406 -69,448 -20,35 -61,47 -79,25 z m 42,-185 c 4,-32 11,-82 16,-112 5,-30 9,-59 9,-64 0,-12 -127,-4 -140,9 -11,11 80,224 97,224 7,0 14,-24 18,-57 z"
           id="path3047"
           inkscape:connector-curvature="0" />
        <path
           d="m 17732,8691 c -19,-11 -40,-91 -53,-195 -6,-50 -17,-106 -25,-125 -8,-20 -14,-68 -14,-118 0,-99 21,-150 75,-179 27,-14 37,-15 68,-5 37,13 87,62 87,86 0,24 -12,45 -25,45 -8,0 -27,-11 -43,-25 -56,-47 -92,-25 -92,53 0,47 11,58 68,65 52,6 72,21 72,53 0,23 -3,24 -60,24 h -61 l 5,33 c 3,17 12,74 21,125 8,50 15,105 15,121 0,32 -19,54 -38,42 z"
           id="path3049"
           inkscape:connector-curvature="0" />
        <path
           d="m 8836,8672 c -36,-58 -106,-316 -106,-389 0,-53 24,-117 58,-155 19,-22 65,-23 83,-2 14,17 4,30 -47,60 -16,9 -19,24 -19,90 0,66 7,102 44,216 45,145 48,188 11,188 -10,0 -21,-4 -24,-8 z"
           id="path3051"
           inkscape:connector-curvature="0" />
        <path
           d="m 10065,8649 c -22,-5 -63,-21 -91,-35 l -51,-26 -6,-111 c -4,-67 -16,-154 -32,-215 -28,-115 -31,-160 -12,-186 10,-14 18,-15 40,-7 27,11 33,27 28,80 -1,14 5,55 14,92 17,67 18,69 54,74 55,9 135,33 155,48 13,9 17,20 12,32 -6,16 -16,17 -96,11 l -90,-7 v 39 c 0,80 9,99 54,117 22,10 67,20 99,22 74,7 92,31 48,62 -31,22 -62,25 -126,10 z"
           id="path3053"
           inkscape:connector-curvature="0" />
        <path
           d="m 17263,8638 c -6,-7 -23,-56 -38,-108 -23,-77 -29,-120 -33,-228 l -4,-133 38,-35 c 32,-31 42,-35 72,-30 74,12 122,70 122,149 0,54 -16,90 -54,126 -23,22 -39,27 -85,30 -15,1 -14,8 13,130 9,40 14,82 11,92 -7,22 -28,25 -42,7 z m 70,-336 c 39,-34 9,-112 -44,-112 h -29 v 63 c 0,35 3,67 7,70 9,10 44,-2 66,-21 z"
           id="path3055"
           inkscape:connector-curvature="0" />
        <path
           d="m 10259,8593 c -30,-8 -63,-153 -66,-298 -3,-117 -1,-136 19,-185 25,-60 61,-86 103,-76 13,3 48,27 80,52 41,34 55,52 53,68 -5,33 -59,26 -104,-13 -40,-36 -53,-36 -72,0 -19,36 -9,223 18,336 18,75 20,96 10,108 -7,8 -15,14 -19,14 -3,-1 -13,-3 -22,-6 z"
           id="path3057"
           inkscape:connector-curvature="0" />
        <path
           d="m 7972,8578 c -6,-8 -6,-22 -1,-36 11,-30 62,-28 68,2 6,34 -46,59 -67,34 z"
           id="path3059"
           inkscape:connector-curvature="0" />
        <path
           d="m 18533,8538 c -4,-7 -17,-60 -28,-117 -21,-106 -21,-106 -75,-131 -24,-12 -17,-44 13,-58 23,-11 27,-19 27,-55 0,-51 31,-121 58,-136 12,-6 34,-11 50,-11 55,0 110,98 61,108 -9,2 -24,-4 -32,-13 -34,-33 -67,-10 -67,47 0,35 2,38 41,49 45,14 73,47 63,74 -6,14 -15,16 -45,12 -46,-6 -46,-7 -23,111 13,64 14,88 6,107 -12,27 -36,33 -49,13 z"
           id="path3061"
           inkscape:connector-curvature="0" />
        <path
           d="m 21235,8510 c -40,-10 -124,-44 -185,-75 -40,-20 -50,-30 -50,-50 0,-42 41,-50 100,-20 61,31 68,31 63,3 -2,-13 -10,-106 -16,-208 l -12,-185 -42,-3 c -25,-2 -43,-9 -47,-18 -7,-19 36,-64 61,-64 10,0 31,-7 46,-15 18,-9 35,-12 45,-6 10,5 35,12 57,16 58,10 115,42 115,65 0,23 -29,28 -93,16 -31,-6 -52,-5 -58,1 -10,10 1,243 17,397 6,55 9,59 41,73 20,8 45,13 57,12 38,-3 46,1 46,20 0,42 -67,61 -145,41 z"
           id="path3063"
           inkscape:connector-curvature="0" />
        <path
           d="m 8962,8473 c 2,-20 9,-29 26,-31 30,-5 42,26 17,44 -31,23 -47,17 -43,-13 z"
           id="path3065"
           inkscape:connector-curvature="0" />
        <path
           d="m 11033,8478 c -28,-36 -75,-289 -71,-385 3,-61 5,-68 24,-71 16,-2 31,10 58,47 20,28 40,51 45,51 11,0 21,-25 21,-55 0,-31 19,-72 35,-79 7,-2 20,1 28,7 21,17 7,139 -20,176 -25,32 -58,38 -84,15 -38,-34 -41,-4 -13,127 34,159 35,173 8,177 -11,2 -25,-3 -31,-10 z"
           id="path3069"
           inkscape:connector-curvature="0" />
        <path
           d="m 8205,8468 c -33,-18 -65,-51 -65,-66 0,-9 -7,-23 -15,-32 -22,-24 -52,-341 -37,-376 11,-23 45,-33 56,-16 3,5 10,50 17,101 6,51 17,94 23,96 6,2 24,6 41,10 16,4 53,30 82,59 44,44 53,59 53,88 0,39 -23,103 -48,131 -17,19 -76,23 -107,5 z m 78,-79 c 5,-9 7,-29 3,-44 -8,-30 -75,-105 -95,-105 -7,0 -11,21 -11,54 0,44 5,60 26,86 29,33 59,37 77,9 z"
           id="path3071"
           inkscape:connector-curvature="0" />
        <path
           d="m 17505,8466 c -25,-18 -11,-58 18,-54 15,2 23,11 25,29 4,31 -18,44 -43,25 z"
           id="path3073"
           inkscape:connector-curvature="0" />
        <path
           d="m 7943,8448 c -6,-7 -16,-62 -22,-121 -11,-96 -10,-112 4,-133 17,-26 37,-31 52,-11 17,21 36,247 22,263 -14,17 -43,18 -56,2 z"
           id="path3075"
           inkscape:connector-curvature="0" />
        <path
           d="m 8469,8413 c -37,-31 -69,-95 -69,-138 0,-40 33,-111 58,-124 54,-29 154,2 139,43 -5,13 -16,17 -44,15 -86,-6 -100,46 -18,66 87,23 109,78 52,133 -41,40 -75,41 -118,5 z m 71,-57 c 0,-2 -7,-6 -15,-10 -8,-3 -15,-1 -15,4 0,6 7,10 15,10 8,0 15,-2 15,-4 z"
           id="path3077"
           inkscape:connector-curvature="0" />
        <path
           d="m 9176,8375 c -34,-25 -53,-34 -69,-29 -32,7 -44,-10 -61,-91 -13,-61 -13,-73 0,-98 23,-43 44,-30 89,52 52,95 65,100 65,26 0,-64 20,-110 51,-120 25,-8 43,12 31,35 -4,8 -7,58 -7,110 -1,99 -14,150 -39,150 -8,0 -35,-16 -60,-35 z"
           id="path3079"
           inkscape:connector-curvature="0" />
        <path
           d="m 16994,8396 c -20,-14 -22,-24 -20,-122 1,-91 4,-108 19,-118 30,-18 49,18 46,89 -2,90 -4,86 41,79 44,-7 70,6 70,36 0,27 -19,37 -80,45 -42,5 -60,2 -76,-9 z"
           id="path3081"
           inkscape:connector-curvature="0" />
        <path
           d="m 18742,8378 c -15,-15 3,-48 27,-48 21,0 33,22 25,45 -7,18 -35,20 -52,3 z"
           id="path3085"
           inkscape:connector-curvature="0" />
        <path
           d="m 8950,8365 c -19,-22 -37,-182 -24,-203 18,-27 52,-27 58,0 21,100 28,189 16,203 -16,19 -34,19 -50,0 z"
           id="path3087"
           inkscape:connector-curvature="0" />
        <path
           d="m 9393,8331 c -62,-45 -83,-77 -83,-128 0,-78 46,-136 119,-148 45,-7 117,9 124,29 9,24 -8,33 -70,38 -66,4 -103,26 -103,58 0,19 19,30 54,30 12,0 41,12 64,27 48,31 53,56 21,97 -28,36 -74,35 -126,-3 z"
           id="path3089"
           inkscape:connector-curvature="0" />
        <path
           d="m 21756,8348 c -2,-7 -11,-56 -20,-108 -11,-70 -21,-99 -36,-112 -24,-19 -26,-51 -5,-68 11,-9 14,-22 9,-47 -14,-74 35,-163 90,-163 33,0 81,35 96,69 19,48 2,59 -48,31 -51,-29 -72,-22 -72,23 0,83 9,98 72,125 32,14 58,31 58,38 0,18 -33,34 -71,34 -29,0 -31,2 -25,28 19,84 19,122 1,142 -20,23 -44,26 -49,8 z"
           id="path3091"
           inkscape:connector-curvature="0" />
        <path
           d="m 17502,8325 c -15,-32 -16,-154 -2,-190 7,-20 16,-26 33,-23 21,3 22,8 25,100 3,98 -6,138 -32,138 -7,0 -18,-11 -24,-25 z"
           id="path3093"
           inkscape:connector-curvature="0" />
        <path
           d="m 17989,8340 c -31,-4 -61,-10 -68,-14 -7,-5 -11,-45 -11,-115 0,-86 3,-111 16,-121 27,-23 45,9 52,91 l 7,73 35,7 c 19,4 52,10 72,13 l 37,7 -11,-38 c -22,-79 6,-159 66,-184 22,-10 32,-10 48,0 16,10 28,9 64,-5 35,-13 47,-14 59,-4 25,20 18,46 -16,60 -31,13 -31,14 -27,72 3,46 9,62 26,74 32,22 27,49 -13,74 -38,24 -93,23 -144,-3 -27,-14 -31,-13 -47,4 -18,20 -45,22 -145,9 z m 256,-112 c -9,-66 -21,-90 -43,-86 -24,5 -22,90 3,118 34,37 48,26 40,-32 z"
           id="path3095"
           inkscape:connector-curvature="0" />
        <path
           d="m 23341,8292 c -6,-11 -18,-52 -27,-93 -19,-88 -22,-92 -72,-108 -34,-12 -42,-11 -73,8 -48,30 -118,29 -147,-2 -32,-34 -43,-83 -36,-152 3,-33 1,-131 -6,-217 -12,-168 -7,-198 30,-198 16,0 20,7 20,31 0,18 4,59 10,93 5,33 12,87 16,119 l 5,57 h 38 c 67,0 131,76 131,155 0,32 3,36 23,33 20,-3 22,-10 27,-79 6,-84 25,-124 67,-140 35,-13 56,-5 92,37 33,37 38,53 20,71 -12,12 -59,-2 -59,-18 0,-13 -33,-19 -46,-8 -18,15 -19,123 -1,136 6,6 30,14 52,18 51,9 75,22 75,40 0,20 -32,35 -75,35 -36,0 -37,1 -32,33 2,17 11,58 18,90 12,50 11,59 -1,67 -23,15 -38,12 -49,-8 z m -180,-266 c 14,-31 5,-67 -24,-102 -19,-22 -29,-26 -50,-20 -21,5 -27,12 -27,35 0,16 -3,43 -6,60 -5,26 -3,32 17,40 45,18 79,13 90,-13 z"
           id="path3097"
           inkscape:connector-curvature="0" />
        <path
           d="m 10813,8271 c -66,-48 -66,-86 1,-150 46,-44 47,-62 3,-54 -23,3 -37,0 -46,-11 -11,-13 -8,-19 16,-42 22,-21 35,-25 62,-20 54,8 81,32 81,69 0,37 -30,91 -59,107 -30,15 -26,46 7,62 19,9 27,21 27,38 0,38 -41,38 -92,1 z"
           id="path3099"
           inkscape:connector-curvature="0" />
        <path
           d="m 10685,8279 c -4,-5 -9,-29 -12,-52 -6,-56 -50,-137 -70,-130 -13,5 -15,20 -11,80 6,84 -7,116 -39,97 -36,-22 -45,-170 -13,-221 54,-89 147,-21 180,132 25,111 25,105 -3,105 -14,0 -29,-5 -32,-11 z"
           id="path3101"
           inkscape:connector-curvature="0" />
        <path
           d="m 18736,8258 c -3,-13 -7,-57 -11,-99 -7,-92 5,-132 38,-127 20,3 23,10 30,103 5,65 5,107 -2,122 -14,30 -49,30 -55,1 z"
           id="path3103"
           inkscape:connector-curvature="0" />
        <path
           d="m 18955,8271 c -53,-9 -62,-15 -85,-61 -22,-43 -26,-113 -9,-157 16,-44 59,-83 91,-83 36,0 91,49 120,108 l 23,47 3,-52 c 2,-39 8,-55 21,-63 24,-12 43,9 65,74 17,52 50,96 73,96 10,0 13,-24 14,-97 1,-111 7,-142 32,-157 12,-8 20,-7 30,4 11,12 12,45 8,153 -6,130 -7,140 -30,158 -29,23 -62,24 -104,2 -18,-9 -45,-19 -61,-22 -24,-5 -32,-14 -39,-41 l -9,-35 -19,50 c -18,47 -52,86 -74,84 -5,-1 -28,-4 -50,-8 z m 65,-113 c 0,-37 -32,-95 -57,-105 -22,-9 -43,23 -43,65 0,54 15,72 60,72 38,0 40,-1 40,-32 z"
           id="path3105"
           inkscape:connector-curvature="0" />
        <path
           d="m 11555,8239 c -45,-40 -46,-75 -5,-122 17,-19 30,-41 30,-49 0,-8 -22,-25 -50,-38 -53,-25 -57,-29 -38,-48 18,-18 74,-14 118,8 70,36 80,90 25,141 -40,38 -43,51 -15,79 16,16 18,25 10,40 -15,28 -34,25 -75,-11 z"
           id="path3107"
           inkscape:connector-curvature="0" />
        <path
           d="m 11288,8230 c -81,-48 -74,-226 9,-243 35,-7 109,8 141,29 26,17 27,61 2,56 -108,-25 -123,-25 -136,-7 -17,23 -9,35 22,35 57,0 112,50 99,90 -13,39 -96,63 -137,40 z"
           id="path3109"
           inkscape:connector-curvature="0" />
        <path
           d="m 21485,8136 c -65,-18 -65,-17 -65,-131 0,-121 4,-135 36,-135 29,0 44,31 44,91 0,40 23,99 39,99 5,0 12,-28 15,-62 4,-35 16,-82 26,-105 15,-35 24,-43 45,-43 34,0 42,25 21,62 -11,18 -20,60 -24,111 -4,67 -9,85 -28,104 -25,25 -47,27 -109,9 z"
           id="path3111"
           inkscape:connector-curvature="0" />
        <path
           d="m 22029,8117 c -75,-50 -103,-162 -62,-242 38,-73 106,-93 177,-52 48,27 65,52 49,68 -10,10 -21,10 -51,1 -82,-25 -122,-12 -122,40 0,25 4,28 30,28 95,0 154,97 95,155 -31,31 -72,32 -116,2 z"
           id="path3113"
           inkscape:connector-curvature="0" />
        <path
           d="m 22275,8100 c -16,-18 -21,-41 -25,-129 -6,-125 -4,-138 22,-147 37,-11 52,19 58,113 l 5,87 45,11 c 25,7 59,19 77,28 18,10 35,17 38,17 4,0 3,-51 -1,-113 -7,-121 1,-157 35,-157 31,0 40,22 53,124 l 12,96 38,12 c 45,13 61,29 52,52 -9,22 -45,30 -107,22 -29,-4 -59,-6 -67,-6 -8,1 -60,4 -115,6 -94,5 -102,4 -120,-16 z"
           id="path3115"
           inkscape:connector-curvature="0" />
        <path
           d="m 22718,8073 c -6,-16 -12,-67 -12,-115 -1,-105 18,-141 77,-146 51,-4 73,11 103,71 34,66 40,182 11,201 -23,14 -33,-1 -42,-63 -15,-98 -61,-166 -84,-123 -6,10 -8,27 -6,38 13,66 13,135 -1,149 -22,22 -33,19 -46,-12 z"
           id="path3117"
           inkscape:connector-curvature="0" />
        <path
           d="m 23560,8042 c -52,-50 -53,-82 -5,-126 19,-18 35,-38 35,-44 0,-6 -18,-21 -39,-32 -48,-24 -57,-36 -41,-55 24,-29 93,-12 133,33 11,11 22,37 27,57 9,38 2,50 -47,82 -19,13 -21,18 -11,30 7,8 22,19 35,24 25,9 30,38 11,57 -22,22 -57,13 -98,-26 z"
           id="path3119"
           inkscape:connector-curvature="0" />
        <path
           d="m 7564,7681 c -80,-49 -95,-119 -45,-206 17,-30 47,-63 73,-80 69,-46 88,-70 88,-109 0,-64 -79,-74 -123,-15 -29,40 -61,36 -65,-9 -4,-42 38,-86 98,-102 36,-10 50,-9 87,5 108,41 112,165 8,251 -77,63 -112,101 -119,129 -10,39 16,73 61,80 58,10 63,13 63,34 0,42 -73,54 -126,22 z"
           id="path3121"
           inkscape:connector-curvature="0" />
        <path
           d="m 9005,7566 c -22,-34 -94,-245 -101,-299 -8,-60 0,-89 37,-131 46,-53 126,-60 150,-14 14,25 -2,38 -48,38 -22,0 -38,8 -53,28 -29,36 -23,78 36,243 39,106 45,131 34,144 -18,22 -37,19 -55,-9 z"
           id="path3123"
           inkscape:connector-curvature="0" />
        <path
           d="m 9454,7495 c -7,-19 -14,-43 -14,-53 0,-11 -10,-35 -23,-54 -21,-30 -23,-43 -20,-121 3,-78 1,-87 -15,-87 -30,0 -42,21 -42,75 0,48 -9,77 -24,76 -11,0 -46,-47 -46,-60 0,-18 -37,-86 -54,-100 -25,-21 -48,4 -44,48 3,35 12,45 83,86 15,9 16,15 6,33 -16,30 -50,28 -104,-4 -75,-46 -86,-142 -22,-210 38,-39 62,-42 115,-13 32,18 44,20 82,12 24,-5 53,-6 63,-2 11,4 45,5 76,2 44,-4 64,-1 87,12 34,20 55,57 46,80 -8,19 -8,19 -54,-7 -50,-29 -75,-18 -75,33 0,34 0,34 55,40 75,9 92,17 88,43 -3,18 -11,21 -58,24 -30,2 -58,7 -63,11 -4,4 -1,27 8,50 18,52 19,93 3,109 -21,21 -39,13 -54,-23 z"
           id="path3125"
           inkscape:connector-curvature="0" />
        <path
           d="m 7891,7466 c -37,-13 -61,-40 -61,-69 0,-16 4,-18 28,-12 15,4 52,8 82,9 50,1 56,-1 68,-26 10,-22 10,-33 -1,-60 -20,-48 -39,-60 -89,-56 -43,3 -43,3 -48,47 -6,51 -31,75 -54,51 -11,-11 -17,-54 -22,-170 -6,-151 -6,-156 15,-175 17,-15 26,-17 39,-9 13,9 18,29 20,98 l 3,87 34,-7 c 68,-12 137,31 169,108 32,75 8,141 -63,178 -45,23 -71,24 -120,6 z"
           id="path3127"
           inkscape:connector-curvature="0" />
        <path
           d="m 10708,7456 c -37,-6 -71,-15 -77,-21 -14,-15 -41,-235 -41,-335 0,-58 4,-91 13,-98 6,-5 35,-13 63,-17 45,-6 62,-2 128,25 71,30 78,31 95,16 26,-23 52,-20 91,13 l 35,29 52,-30 c 59,-33 96,-34 101,-2 2,16 -8,28 -42,48 -25,14 -48,31 -51,36 -3,5 10,33 30,61 19,28 35,57 35,65 0,24 -38,15 -73,-16 -35,-30 -57,-38 -57,-20 0,15 -36,12 -49,-3 -7,-9 -8,-24 -1,-48 6,-18 10,-35 10,-36 0,-1 -19,-16 -41,-34 -37,-29 -42,-31 -51,-16 -12,22 -38,21 -119,-5 -67,-21 -69,-21 -89,-3 -17,15 -20,29 -18,68 l 3,49 70,23 c 101,32 145,56 145,77 0,32 -31,33 -113,4 -43,-15 -81,-25 -84,-22 -3,3 -2,29 3,57 l 9,52 68,22 c 75,24 92,36 84,59 -7,18 -31,19 -129,2 z"
           id="path3129"
           inkscape:connector-curvature="0" />
        <path
           d="m 9722,7427 c -9,-11 -8,-18 8,-32 25,-22 52,-13 48,17 -4,27 -39,36 -56,15 z"
           id="path3131"
           inkscape:connector-curvature="0" />
        <path
           d="m 8213,7393 c -47,-41 -83,-101 -83,-139 0,-25 10,-43 40,-75 37,-39 42,-41 81,-35 59,9 81,23 77,49 -3,19 -8,22 -41,19 -76,-6 -94,47 -23,66 125,33 146,142 27,142 -37,0 -53,-6 -78,-27 z"
           id="path3133"
           inkscape:connector-curvature="0" />
        <path
           d="m 8462,7375 c -12,-9 -34,-36 -48,-61 -53,-90 -7,-194 85,-194 41,0 67,20 57,45 -3,8 -15,15 -26,15 -12,0 -30,5 -41,10 -39,22 -13,122 36,134 43,11 27,66 -20,66 -11,0 -30,-7 -43,-15 z"
           id="path3135"
           inkscape:connector-curvature="0" />
        <path
           d="m 8787,7342 c -9,-10 -17,-32 -17,-48 0,-16 -9,-48 -20,-72 -16,-35 -24,-43 -42,-40 -22,3 -23,6 -20,86 2,74 1,82 -16,82 -27,0 -49,-28 -63,-81 -16,-59 -6,-95 37,-136 41,-38 66,-41 111,-13 48,29 76,92 77,170 1,71 -15,88 -47,52 z"
           id="path3137"
           inkscape:connector-curvature="0" />
        <path
           d="m 9977,7321 c -14,-17 -33,-51 -42,-76 -23,-60 -43,-59 -47,3 -3,45 -4,47 -33,47 -29,0 -30,-2 -33,-47 -4,-64 13,-122 48,-161 24,-26 32,-30 47,-21 23,14 69,92 78,132 3,17 18,48 31,68 47,69 4,117 -49,55 z"
           id="path3139"
           inkscape:connector-curvature="0" />
        <path
           d="m 10109,7302 c -93,-60 -132,-145 -99,-219 24,-55 65,-77 137,-71 99,8 117,68 20,68 -66,0 -90,16 -85,55 3,29 5,30 66,35 55,4 67,9 89,34 19,23 23,36 19,59 -14,71 -72,86 -147,39 z"
           id="path3141"
           inkscape:connector-curvature="0" />
        <path
           d="m 9696,7297 c -9,-12 -18,-47 -21,-77 -7,-66 9,-105 44,-105 22,0 23,4 26,90 4,110 -15,145 -49,92 z"
           id="path3143"
           inkscape:connector-curvature="0" />
        <path
           d="m 12067,7302 c -9,-9 -30,-48 -48,-85 -33,-72 -51,-88 -78,-69 -31,23 -42,24 -61,7 -10,-9 -22,-31 -25,-49 -14,-70 -27,-96 -45,-96 -17,0 -20,9 -22,78 -3,69 -5,77 -24,80 -32,5 -44,-20 -51,-98 l -6,-72 -50,5 c -27,2 -53,10 -57,17 -12,20 7,73 37,100 39,34 38,74 -1,78 -36,4 -71,-27 -102,-93 -28,-59 -29,-76 -9,-115 30,-59 100,-75 165,-39 l 38,21 21,-21 c 63,-63 141,-18 166,97 7,32 19,39 44,23 10,-6 12,-20 8,-44 -10,-61 43,-122 115,-133 49,-8 120,28 116,59 -2,18 -9,22 -33,20 -95,-8 -125,2 -125,42 0,47 9,55 64,55 63,0 97,19 77,44 -7,8 -29,18 -50,22 -59,11 -63,19 -35,77 27,59 29,78 12,95 -16,16 -22,15 -41,-6 z"
           id="path3145"
           inkscape:connector-curvature="0" />
        <path
           d="m 11339,7173 c -55,-47 -79,-92 -79,-145 0,-36 36,-87 75,-105 30,-14 40,-15 77,-4 52,16 68,28 68,52 0,21 -6,23 -68,19 -48,-2 -72,12 -72,44 0,31 19,46 60,46 39,0 100,32 100,53 0,8 -10,29 -23,48 -35,53 -70,51 -138,-8 z"
           id="path3147"
           inkscape:connector-curvature="0" />
        <path
           d="m 12281,7196 c -11,-13 -10,-19 4,-32 21,-21 50,-8 50,22 0,24 -37,31 -54,10 z"
           id="path3149"
           inkscape:connector-curvature="0" />
        <path
           d="m 12247,7078 c -9,-13 -18,-55 -22,-93 -6,-64 -5,-72 15,-90 15,-14 25,-16 37,-9 12,7 16,31 17,109 1,86 -1,100 -16,103 -9,2 -23,-7 -31,-20 z"
           id="path3151"
           inkscape:connector-curvature="0" />
        <path
           d="m 12432,7084 c -49,-21 -74,-68 -69,-128 6,-64 39,-96 99,-96 90,0 140,68 129,177 -1,15 -85,63 -108,62 -10,0 -33,-7 -51,-15 z m 83,-74 c 21,-23 15,-43 -19,-66 -35,-22 -56,-12 -56,29 0,56 40,76 75,37 z"
           id="path3153"
           inkscape:connector-curvature="0" />
        <path
           d="m 12742,7050 c -39,-24 -58,-25 -66,-5 -3,8 -14,15 -24,15 -30,0 -42,-20 -36,-64 4,-23 1,-60 -5,-81 -10,-36 -9,-42 10,-58 27,-21 39,-13 85,58 36,57 60,80 68,67 3,-5 11,-42 17,-83 14,-94 32,-129 64,-129 32,0 39,15 27,59 -6,20 -16,68 -22,107 -12,78 -40,134 -67,134 -10,0 -33,-9 -51,-20 z"
           id="path3155"
           inkscape:connector-curvature="0" />
      </g>
    </g>
  </g>
</svg>
