<?xml version="1.0" encoding="UTF-8" standalone="no"?>
<!-- Created with Inkscape (http://www.inkscape.org/) -->

<svg
   xmlns:dc="http://purl.org/dc/elements/1.1/"
   xmlns:cc="http://creativecommons.org/ns#"
   xmlns:rdf="http://www.w3.org/1999/02/22-rdf-syntax-ns#"
   xmlns:svg="http://www.w3.org/2000/svg"
   xmlns="http://www.w3.org/2000/svg"
   xmlns:sodipodi="http://sodipodi.sourceforge.net/DTD/sodipodi-0.dtd"
   xmlns:inkscape="http://www.inkscape.org/namespaces/inkscape"
   width="253.31976mm"
   height="110.33134mm"
   viewBox="0 0 253.31976 110.33134"
   version="1.1"
   id="svg12238"
   inkscape:version="0.92.5 (2060ec1f9f, 2020-04-08)"
   sodipodi:docname="starving.svg">
  <defs
     id="defs12232" />
  <sodipodi:namedview
     id="base"
     pagecolor="#ffffff"
     bordercolor="#666666"
     borderopacity="1.0"
     inkscape:pageopacity="0.0"
     inkscape:pageshadow="2"
     inkscape:zoom="0.35"
     inkscape:cx="33.000231"
     inkscape:cy="48.500174"
     inkscape:document-units="mm"
     inkscape:current-layer="layer1"
     showgrid="false"
     fit-margin-top="0"
     fit-margin-left="0"
     fit-margin-right="0"
     fit-margin-bottom="0"
     inkscape:window-width="1920"
     inkscape:window-height="1080"
     inkscape:window-x="1920"
     inkscape:window-y="0"
     inkscape:window-maximized="0" />
  <metadata
     id="metadata12235">
    <rdf:RDF>
      <cc:Work
         rdf:about="">
        <dc:format>image/svg+xml</dc:format>
        <dc:type
           rdf:resource="http://purl.org/dc/dcmitype/StillImage" />
        <dc:title></dc:title>
      </cc:Work>
    </rdf:RDF>
  </metadata>
  <g
     inkscape:label="Layer 1"
     inkscape:groupmode="layer"
     id="layer1"
     transform="translate(-9.411546,-51.334334)">
    <g
       id="g12904"
       transform="matrix(0.5,0,0,0.5,-45.357144,18.098216)">
      <path
         id="path11494"
         d="m 318.30408,66.648799 c -2.04611,0.141111 -10.12472,0.458611 -17.99167,0.670277 -7.86694,0.211667 -16.75694,0.458611 -19.75555,0.564445 -10.30111,0.3175 -27.37556,0.564444 -63.14722,0.917222 -19.68501,0.176389 -40.88695,0.493889 -47.09584,0.670278 -6.20889,0.211666 -19.22639,0.423333 -28.92778,0.529166 -22.40138,0.176389 -22.75416,0.246945 -26.84638,4.339167 -1.65806,1.693333 -3.38667,5.503333 -4.23334,9.454444 -0.77611,3.633611 -0.98777,10.583333 -0.52916,16.933332 0.21166,3.06917 0.49389,6.80861 0.56444,8.255 0.10583,1.44639 0.38806,3.52778 0.70556,4.58611 0.28222,1.05834 0.52916,2.64584 0.52916,3.52778 0,0.88194 0.14111,2.46944 0.3175,3.52778 0.17639,1.09361 0.42334,6.17361 0.56445,11.28889 0.10583,5.15055 0.28222,10.30111 0.38805,11.46527 0.91723,12.80584 1.55223,36.23028 1.76389,63.32362 0.0706,9.98361 0.38806,22.40139 0.70556,28.22222 0.28222,5.715 0.67028,13.19389 0.84666,16.58055 0.14112,3.38667 0.35278,6.42056 0.49389,6.70278 0.10584,0.28222 0.24695,1.23472 0.35278,2.11667 0.35278,3.03389 0.9525,6.0325 1.44639,7.33778 0.88194,2.15194 5.11528,4.65666 7.86694,4.65666 0.77611,0 2.25778,0.17639 3.28084,0.35278 7.02027,1.37583 7.9375,1.48167 12.3825,1.23472 2.46944,-0.14111 6.80861,-0.0705 9.70138,0.14111 2.8575,0.21167 9.27806,0.635 14.21695,0.91723 9.66611,0.56444 22.40139,1.41111 29.80972,1.94027 2.54,0.17639 8.07861,0.56445 12.34722,0.84667 10.4775,0.74083 16.43945,1.19944 23.98889,1.79917 9.77195,0.81138 24.23584,1.86972 28.75139,2.11666 2.2225,0.10584 6.45583,0.35278 9.34861,0.52917 16.96861,1.09361 27.05806,1.48167 38.98195,1.48167 8.60777,0 13.54666,-0.10584 14.18166,-0.35278 2.50473,-1.02306 2.8575,-4.7625 3.28084,-36.05389 0.10583,-8.04333 0.35277,-19.26167 0.52916,-24.87083 0.21167,-5.64445 0.52917,-16.01611 0.70556,-23.10695 0.52917,-19.22638 2.64583,-63.21778 3.70417,-76.72916 0.74083,-9.45445 1.16416,-16.8275 1.44638,-25.400005 0.14112,-4.7625 0.38806,-7.725833 0.67028,-8.290278 1.34056,-2.716388 0.84667,-11.641666 -0.88194,-15.874999 -2.32834,-5.785555 -5.25639,-7.055555 -14.46389,-6.349999 z m 8.71361,2.99861 c 2.29306,1.164167 2.61056,1.552223 3.84528,4.7625 1.02305,2.645833 1.02305,2.681111 0.98778,10.054166 -0.0706,9.348613 -0.70556,24.906115 -1.37584,33.161115 -0.59972,7.69055 -1.44639,21.37833 -1.94028,31.39722 -0.21166,4.05694 -0.59972,12.17083 -0.88194,17.99167 -0.635,13.0175 -1.12889,26.31722 -1.5875,43.39166 -0.21167,7.16139 -0.42333,13.68778 -0.52917,14.46389 -0.0705,0.77611 -0.24694,7.58472 -0.35277,15.16945 -0.21167,14.9225 -0.74084,30.05666 -1.23473,36.51249 -0.24694,2.92806 -0.49389,4.16278 -0.84666,4.445 -1.51695,1.09362 -22.5425,0.84667 -46.95473,-0.56444 -3.10444,-0.17639 -8.74888,-0.49389 -12.52361,-0.70556 -7.16139,-0.42333 -25.75277,-1.76388 -36.15972,-2.64583 -3.28083,-0.28222 -9.63083,-0.74083 -14.11111,-1.05833 -4.445,-0.3175 -11.04194,-0.77611 -14.64028,-1.05833 -3.59833,-0.28223 -13.75833,-0.98778 -22.57778,-1.55223 -22.68361,-1.51694 -26.28194,-1.76389 -32.52611,-2.2225 -4.40972,-0.3175 -5.64444,-0.3175 -6.06777,0.0353 -0.52917,0.45861 -2.54,0.3175 -5.18584,-0.35278 -0.67027,-0.17639 -2.71639,-0.45861 -4.51555,-0.635 -2.75167,-0.28222 -3.63361,-0.56444 -5.29167,-1.51694 -1.62278,-0.98778 -2.04611,-1.44639 -2.36361,-2.57528 -0.84667,-2.82222 -1.905,-11.7475 -1.905,-15.52222 0,-2.15195 -0.14111,-5.15056 -0.3175,-6.70278 -0.3175,-2.71641 -0.45861,-5.57391 -0.91722,-17.28613 -0.14111,-2.92805 -0.28222,-12.66472 -0.35278,-21.69583 -0.14111,-20.88445 -0.70555,-43.85028 -1.37583,-57.15 -0.28222,-5.715 -0.635,-12.87639 -0.74084,-15.875 -0.45861,-13.29973 -0.59972,-15.69861 -1.05833,-16.22778 -0.81139,-1.02306 -1.55222,-6.24417 -1.97555,-14.11111 -0.74084,-14.040558 0.38805,-21.201947 4.05694,-25.858613 1.19944,-1.516944 2.01083,-1.799166 0.88194,-0.282222 -1.37583,1.904999 -0.49388,1.940277 1.27,0.07055 0.91723,-0.987778 1.905,-1.799167 2.18723,-1.799167 0.28222,0 0.91722,-0.282222 1.41111,-0.635 0.84666,-0.529166 2.25778,-0.599722 14.04055,-0.670277 7.16139,-0.03528 18.52083,-0.246945 25.22361,-0.423334 28.71611,-0.881944 40.71056,-1.093611 70.02639,-1.27 30.51528,-0.176388 78.98695,-1.058333 86.95972,-1.552222 7.26723,-0.458611 7.47889,-0.458611 9.41917,0.493889 z m -205.21083,2.293056 c 0,0.388056 -1.16417,1.058333 -1.83445,1.058333 -0.24694,-0.03528 -0.10583,-0.3175 0.38806,-0.705555 0.88194,-0.776111 1.44639,-0.917222 1.44639,-0.352778 z"
         inkscape:connector-curvature="0"
         style="stroke-width:0.03527778" />
      <path
         id="path11496"
         d="m 147.20686,79.384076 c -3.84528,2.398888 -7.16139,6.632222 -8.78417,11.218333 -1.76389,4.903612 -0.3175,12.206111 2.89278,14.640281 2.75166,2.08139 5.82083,2.82222 8.32555,1.94027 1.69334,-0.59972 1.12889,-1.16416 -1.41111,-1.44638 -2.71639,-0.28223 -4.445,-0.9525 -6.10305,-2.39889 -1.79917,-1.62278 -2.50473,-3.739449 -2.50473,-7.796392 0,-3.245556 0.0353,-3.492501 1.48167,-6.350001 2.43417,-4.938888 6.80861,-8.784166 9.31333,-8.254999 0.84667,0.176389 1.02306,0.105833 1.02306,-0.423334 -0.0353,-1.763888 -2.25778,-2.363611 -4.23333,-1.128888 z"
         inkscape:connector-curvature="0"
         style="stroke-width:0.03527778" />
      <path
         id="path11498"
         d="m 161.7413,80.795187 c -1.02305,0.388055 -2.08139,1.093611 -2.36361,1.516944 -0.88194,1.340555 -1.30528,6.526389 -1.16417,14.851944 0.10584,6.773335 0.17639,8.008055 0.70556,8.501945 0.9525,0.98778 1.37583,0.28222 1.16417,-1.905 -0.10584,-1.12889 -0.24695,-3.70417 -0.3175,-5.750279 l -0.14112,-3.704166 h 2.15195 c 2.71639,0 4.40972,-0.811387 6.63222,-3.210278 1.62278,-1.728611 3.13972,-4.938888 3.13972,-6.667499 0,-0.458612 -0.21166,-1.411112 -0.49389,-2.046111 -0.9525,-2.257778 -5.50333,-3.033889 -9.31333,-1.5875 z m 7.54945,2.257777 c 2.32833,3.175 -4.55084,10.4775 -8.50195,8.995833 l -0.91722,-0.352777 0.10583,-3.951111 0.10584,-3.986389 1.5875,-0.811389 c 1.34055,-0.705556 2.01083,-0.811389 4.33916,-0.705556 2.25778,0.105834 2.8575,0.246945 3.28084,0.811389 z"
         inkscape:connector-curvature="0"
         style="stroke-width:0.03527778" />
      <path
         id="path11500"
         d="m 187.42352,83.546853 c 0,0.705556 0.21167,1.058333 0.70556,1.199445 1.09361,0.282222 1.19944,1.128888 0.70555,4.797777 -1.02305,7.761113 -3.24555,14.075835 -5.53861,15.910275 -2.46944,1.94028 -5.46805,-0.3175 -6.70277,-5.04472 -0.67028,-2.645832 -0.45862,-9.207499 0.45861,-13.123333 0.77611,-3.386666 0.81139,-4.198055 0.0705,-4.339166 -0.9525,-0.176389 -1.51694,1.728611 -2.2225,7.196666 -1.16417,9.383888 0.42333,15.592783 4.55083,17.568333 3.88056,1.83445 6.91445,-0.70555 9.03111,-7.54944 1.41112,-4.586115 1.83445,-7.231949 1.86973,-12.029726 0.0706,-3.598333 0,-4.198055 -0.59973,-4.868333 -0.38805,-0.388056 -1.05833,-0.740833 -1.51694,-0.740833 -0.67028,0 -0.81139,0.176389 -0.81139,1.023055 z"
         inkscape:connector-curvature="0"
         style="stroke-width:0.03527778" />
      <path
         id="path11502"
         d="m 244.74991,104.7488 c -1.34055,0.17639 -4.26861,0.59972 -6.45583,0.91722 -2.18722,0.3175 -4.48028,0.45861 -5.11528,0.35278 -1.5875,-0.28222 -9.10167,1.05833 -11.64167,2.08139 -6.70277,2.68111 -10.90083,7.12611 -12.87638,13.58194 -2.04612,6.70278 -2.18723,8.04333 -1.34056,12.41778 0.91722,4.86833 4.65667,8.46667 11.07722,10.72444 l 2.36361,0.81139 0.24695,2.39889 c 0.45861,4.30389 1.37583,8.89 1.86972,9.27806 0.38806,0.3175 1.41111,-0.45861 4.93889,-3.70417 2.43417,-2.29306 4.58611,-4.445 4.79778,-4.79778 0.35277,-0.70555 1.55222,-0.91722 1.905,-0.3175 0.14111,0.21167 2.39889,0.35278 5.57389,0.35278 2.96333,0 6.49111,0.17639 7.83166,0.38806 5.00945,0.81138 40.28722,0.14111 48.50695,-0.91723 13.26444,-1.65805 18.20333,-5.00944 20.35527,-13.72305 0.49389,-2.08139 0.52917,-2.92806 0.17639,-6.20889 -0.45861,-4.48028 -1.19944,-6.59695 -3.38666,-9.63083 -2.39889,-3.38667 -4.72723,-5.29167 -9.13695,-7.44362 -6.77333,-3.35138 -14.46389,-5.15055 -25.47055,-6.06777 -7.69056,-0.635 -30.51528,-0.9525 -34.21945,-0.49389 z m 29.42167,2.46944 c 5.89139,0.38806 12.10028,1.02306 14.2875,1.44639 7.90222,1.48167 16.22778,4.58611 20.0025,7.51417 1.94028,1.44639 3.73944,3.81 5.32694,6.94972 1.12889,2.2225 1.16417,2.32833 1.16417,7.02028 -0.0353,4.19805 -0.10583,5.00944 -0.84667,6.84389 -2.2225,5.60916 -6.77333,7.79639 -19.26166,9.24277 -6.91445,0.81139 -36.68889,1.41112 -44.37945,0.91723 -6.985,-0.45861 -15.48694,-0.56445 -16.68639,-0.24695 -0.42333,0.14111 -0.88194,0.0705 -1.02305,-0.17639 -0.14111,-0.24694 -1.02306,0.3175 -2.43417,1.65806 -4.19805,3.95111 -5.89139,5.3975 -6.35,5.3975 -0.49389,0 -0.70555,-1.37583 -1.12889,-7.16139 -0.24694,-2.96333 -0.28222,-3.10444 -1.16416,-3.28083 -2.04612,-0.42334 -5.25639,-1.69334 -7.09084,-2.82223 -2.89277,-1.72861 -4.62139,-4.05694 -5.50333,-7.37305 -0.70556,-2.54 -0.59972,-4.23333 0.38805,-8.14917 1.27001,-4.86833 2.54001,-7.37305 5.08001,-10.12472 1.79916,-1.905 2.82222,-2.64583 5.78555,-4.09222 4.33917,-2.08139 9.41917,-3.24556 11.14778,-2.50472 0.84666,0.35277 1.97555,0.28222 6.27944,-0.3175 11.35945,-1.62278 20.60222,-1.79917 36.40667,-0.74084 z"
         inkscape:connector-curvature="0"
         style="stroke-width:0.03527778" />
      <path
         id="path11504"
         d="m 231.30908,115.12046 c -0.10583,0.28223 0.14111,1.44639 0.56444,2.57528 0.56445,1.5875 0.70556,2.68111 0.635,4.86834 l -0.10583,2.82222 -1.5875,0.0353 c -0.88194,0.0353 -2.99861,0.38805 -4.69194,0.81139 -1.72862,0.42333 -3.24556,0.67027 -3.42195,0.56444 -0.14111,-0.10583 -0.3175,-2.11667 -0.3175,-4.48028 -0.0353,-2.36361 -0.14111,-4.37444 -0.21167,-4.445 -0.0705,-0.10583 -0.42333,-0.0706 -0.74083,0.0705 -0.52917,0.21167 -0.56444,0.84667 -0.35278,6.84389 0.10584,3.63361 0.24695,7.83167 0.28223,9.34861 0.0705,2.25778 0.17638,2.71639 0.635,2.64584 0.42333,-0.10584 0.56444,-0.84667 0.70555,-3.81 l 0.17639,-3.70417 4.23333,-1.16417 c 2.32834,-0.635 4.55084,-1.23472 4.90361,-1.37583 0.56445,-0.17639 0.635,-0.10583 0.42334,0.45861 -0.38806,0.91722 -0.70556,7.97278 -0.42334,9.10167 0.10584,0.49389 0.42334,0.91722 0.70556,0.91722 0.49389,0 0.52917,-0.3175 1.12889,-13.29972 0.17639,-3.175 0.10583,-5.22111 -0.17639,-6.35 -0.59972,-2.36361 -1.86972,-3.66889 -2.36361,-2.43417 z"
         inkscape:connector-curvature="0"
         style="stroke-width:0.03527778" />
      <path
         id="path11506"
         d="m 268.4213,120.87074 c -0.10583,1.12889 -0.38805,4.19806 -0.56444,6.80861 -0.21167,2.61056 -0.45861,5.08 -0.52917,5.50334 -0.0706,0.38805 0.0353,0.9525 0.17639,1.19944 0.49389,0.77611 2.08139,-0.17639 2.68111,-1.5875 0.70556,-1.69333 1.41111,-1.5875 1.65806,0.21167 0.21166,1.65805 1.30527,2.99861 2.15194,2.68111 0.74083,-0.28222 1.16417,-1.41111 0.635,-1.5875 -1.23472,-0.38806 -1.55222,-1.27 -1.34056,-3.28083 0.14112,-1.65806 0.0706,-2.15195 -0.45861,-2.8575 l -0.67027,-0.81139 -1.02306,0.9525 c -0.56444,0.56444 -1.23472,0.98777 -1.48167,0.98777 -0.28222,0 -0.38805,-0.3175 -0.24694,-0.98777 0.10583,-0.52917 0.21167,-2.78695 0.28222,-5.00945 0.10583,-3.52778 0.0353,-4.05694 -0.45861,-4.16278 -0.49389,-0.0706 -0.635,0.28223 -0.81139,1.94028 z"
         inkscape:connector-curvature="0"
         style="stroke-width:0.03527778" />
      <path
         id="path11508"
         d="m 247.71325,119.45963 c 0,0.17639 -0.0353,3.91583 0,8.39611 0,7.54945 0.0353,8.11389 0.635,8.11389 0.42333,0 1.05833,-0.77611 1.86972,-2.39889 1.69333,-3.24555 2.82222,-3.88055 2.82222,-1.62278 0,1.69334 0.91722,3.4925 1.76389,3.4925 0.9525,0 1.30528,-0.9525 0.56444,-1.51694 -0.35277,-0.24694 -0.67027,-1.16417 -0.77611,-2.36361 -0.21166,-1.94028 -0.91722,-3.52778 -1.55222,-3.52778 -0.21167,0 -0.9525,0.56445 -1.72861,1.23472 -0.74083,0.67028 -1.44639,1.23473 -1.51695,1.23473 -0.10583,0 -0.28222,-2.18723 -0.38805,-4.90362 -0.17639,-4.62138 -0.52917,-6.38527 -1.30528,-6.38527 -0.21167,0 -0.35278,0.10583 -0.38805,0.24694 z"
         inkscape:connector-curvature="0"
         style="stroke-width:0.03527778" />
      <path
         id="path11510"
         d="m 286.34241,119.63602 c -0.38805,0.635 -0.635,10.58333 -0.3175,14.21694 0.21167,2.61056 0.3175,2.99862 0.91722,2.99862 0.81139,0 1.55223,-1.09362 2.08139,-3.175 0.42334,-1.5875 0.91723,-2.46945 1.41111,-2.46945 0.14112,0 0.45862,1.19945 0.74084,2.64583 0.45861,2.57528 1.09361,3.42195 1.62278,2.08139 0.28222,-0.77611 -0.52917,-5.04472 -1.16417,-6.06777 -0.74083,-1.16417 -1.72861,-0.98778 -2.39889,0.45861 -0.635,1.30527 -1.16417,1.79916 -1.55222,1.41111 -0.14111,-0.14111 -0.24695,-2.96334 -0.24695,-6.24417 0,-4.26861 -0.10583,-6.06778 -0.42333,-6.17361 -0.21167,-0.0706 -0.52917,0.0706 -0.67028,0.3175 z"
         inkscape:connector-curvature="0"
         style="stroke-width:0.03527778" />
      <path
         id="path11512"
         d="m 240.62241,127.00908 c -0.35278,0.17638 -1.05833,1.09361 -1.5875,2.01083 -0.81139,1.37583 -0.98778,2.08139 -0.98778,3.98639 0,2.64583 0.67028,3.84528 2.18723,3.84528 1.09361,0 2.78694,-0.88195 3.03389,-1.5875 0.14111,-0.3175 0.67027,-0.52917 1.44638,-0.52917 1.51695,0 1.86973,-0.81139 0.70556,-1.5875 -0.77611,-0.49389 -0.84667,-0.70556 -0.635,-2.29306 0.21167,-1.72861 -0.17639,-2.82222 -0.98778,-2.82222 -0.635,0 -1.41111,2.54 -1.16416,3.81 0.17638,0.9525 0.0705,1.37583 -0.56445,2.04611 -0.42333,0.45861 -1.16417,0.84667 -1.62278,0.84667 -0.70555,0 -0.81139,-0.17639 -0.81139,-1.41111 0,-1.86972 0.74084,-3.56306 1.97556,-4.55084 0.77611,-0.59972 0.91722,-0.91722 0.635,-1.34055 -0.49389,-0.77611 -0.88194,-0.88195 -1.62278,-0.42333 z"
         inkscape:connector-curvature="0"
         style="stroke-width:0.03527778" />
      <path
         id="path11514"
         d="m 258.79047,128.10269 c -0.9525,0.45861 -1.12889,0.91722 -1.41111,3.4925 -0.35278,3.56305 0.52916,4.86833 2.89277,4.09222 0.56445,-0.17639 1.83445,-0.42333 2.82223,-0.56445 2.08139,-0.24694 2.61055,-1.19944 1.05833,-1.79916 -0.84667,-0.3175 -0.91722,-0.49389 -0.74083,-1.55222 0.17639,-0.84667 0.0705,-1.30528 -0.3175,-1.62278 -0.70556,-0.59972 -1.44639,0 -1.72861,1.48166 -0.28223,1.37584 -0.81139,2.04612 -1.65806,2.04612 -1.48167,0 -1.23472,-2.01084 0.49389,-3.59834 0.88194,-0.84666 1.02305,-1.16416 0.70555,-1.62278 -0.45861,-0.74083 -1.09361,-0.84666 -2.11666,-0.35277 z"
         inkscape:connector-curvature="0"
         style="stroke-width:0.03527778" />
      <path
         id="path11516"
         d="m 277.48769,128.80824 c -1.19944,1.30528 -1.51694,2.25778 -1.51694,4.30389 0,2.8575 1.19944,3.70417 3.52777,2.50472 0.635,-0.3175 1.41111,-0.45861 1.94028,-0.3175 1.12889,0.28223 2.64583,-0.67027 2.64583,-1.65805 0,-0.67028 -0.14111,-0.70556 -1.27,-0.49389 l -1.27,0.21167 0.21167,-1.19945 c 0.49389,-2.64583 -0.84667,-3.24555 -1.69333,-0.74083 -0.3175,0.91722 -0.84667,1.86972 -1.16417,2.11666 -2.2225,1.69334 -1.905,-1.5875 0.35278,-3.70416 0.49389,-0.45861 0.81139,-1.02306 0.70555,-1.30528 -0.28222,-0.74083 -1.65805,-0.59972 -2.46944,0.28222 z"
         inkscape:connector-curvature="0"
         style="stroke-width:0.03527778" />
      <path
         id="path11518"
         d="m 295.97325,129.12574 c -0.91723,0.52917 -1.65806,2.46945 -1.65806,4.33917 0,3.06917 1.51694,4.65667 3.38667,3.63361 0.56444,-0.3175 1.41111,-0.77611 1.905,-1.02306 1.19944,-0.59972 1.41111,-1.02305 1.02305,-1.72861 -0.17639,-0.35277 -0.3175,-1.23472 -0.3175,-1.97555 0,-1.55222 -0.14111,-1.76389 -1.65805,-2.8575 -1.27,-0.84667 -1.72861,-0.91722 -2.68111,-0.38806 z m 2.25777,3.4925 c -0.10583,1.76389 -0.52916,2.46945 -1.44639,2.46945 -0.81138,0 -1.05833,-0.67028 -0.81138,-2.15195 0.21166,-1.51694 0.74083,-2.15194 1.65805,-2.01083 0.635,0.10583 0.70556,0.3175 0.59972,1.69333 z"
         inkscape:connector-curvature="0"
         style="stroke-width:0.03527778" />
      <path
         id="path11520"
         d="m 309.73158,133.53546 c -0.56445,0.56445 -0.24695,1.55223 0.49389,1.55223 0.52916,0 0.70555,-0.17639 0.59972,-0.77611 -0.10583,-0.77612 -0.67028,-1.16417 -1.09361,-0.77612 z"
         inkscape:connector-curvature="0"
         style="stroke-width:0.03527778" />
      <path
         id="path11522"
         d="m 303.38158,134.2763 c -0.49389,0.49389 -0.24695,1.51694 0.38805,1.51694 0.91723,0 1.16417,-0.35278 0.74084,-1.09361 -0.35278,-0.70555 -0.74084,-0.84667 -1.12889,-0.42333 z"
         inkscape:connector-curvature="0"
         style="stroke-width:0.03527778" />
      <path
         id="path11524"
         d="m 305.74519,134.9113 c -0.14111,0.3175 -0.0706,0.74083 0.14111,0.9525 0.52917,0.52916 1.55222,0.0353 1.41111,-0.67028 -0.14111,-0.81139 -1.27,-1.02306 -1.55222,-0.28222 z"
         inkscape:connector-curvature="0"
         style="stroke-width:0.03527778" />
      <path
         id="path11526"
         d="m 163.92852,168.2488 c -0.14111,0.28222 -0.35277,3.52778 -0.49389,7.23194 -0.17638,3.66889 -0.38805,6.94973 -0.49388,7.23195 -0.67028,1.83444 -2.01084,13.26444 -2.32834,19.75555 -0.45861,9.73667 -0.9525,16.89806 -1.5875,23.10695 -0.91722,9.24278 -0.98778,11.64166 -0.3175,12.20611 0.45861,0.38805 1.76389,0.45861 5.75028,0.42333 5.64444,-0.10583 12.55889,0.3175 18.55611,1.12889 4.40972,0.59972 20.6375,2.61056 24.34167,2.99861 1.37583,0.14111 5.99722,0.49389 10.30111,0.74083 8.14917,0.45862 11.07722,0.24695 12.20611,-0.91722 0.88194,-0.84666 1.44639,-12.24139 1.16417,-23.45972 -0.14111,-5.53861 -0.38806,-11.50055 -0.56445,-13.22917 -0.17639,-1.76388 -0.56444,-9.06638 -0.88194,-16.22777 -0.3175,-7.19667 -0.70556,-13.86417 -0.91722,-14.81667 -0.45862,-2.36361 -1.65806,-4.40972 -3.03389,-5.22111 -2.75167,-1.5875 -3.13973,-1.62278 -33.12584,-1.55222 -24.83555,0.0705 -28.39861,0.14111 -28.575,0.59972 z m 60.28973,2.36361 c 3.10444,1.44639 3.28083,2.29306 3.95111,21.80167 0.14111,3.66889 0.38805,7.90222 0.56444,9.34861 0.49389,3.63361 0.81139,27.26972 0.49389,33.61972 -0.28222,6.17361 -0.17639,6.0325 -4.7625,6.0325 -4.16278,0.0353 -15.06361,-0.74083 -19.64972,-1.37583 -15.76917,-2.2225 -30.30361,-3.77473 -37.1475,-3.91584 -3.98639,-0.10583 -7.44361,-0.24694 -7.69056,-0.3175 -0.3175,-0.10583 -0.38805,-0.70555 -0.24694,-2.01083 0.67028,-6.70278 1.62278,-19.22639 1.94028,-25.50583 0.59972,-12.59417 0.70555,-13.93472 1.83444,-20.28472 0.81139,-4.48028 1.16417,-7.76112 1.30528,-11.99445 l 0.21166,-5.82083 2.82223,-0.17639 c 1.55222,-0.10583 14.49916,-0.17639 28.75139,-0.17639 h 25.92916 z"
         inkscape:connector-curvature="0"
         style="stroke-width:0.03527778" />
      <path
         id="path11528"
         d="m 185.83602,195.41269 c -0.10583,0.17639 -0.14111,0.49389 -0.0353,0.67028 0.35278,0.56444 -0.635,1.05833 -3.28083,1.5875 -2.82222,0.59972 -3.56305,1.02305 -3.56305,2.01083 0,0.81139 0.56444,0.84667 3.84527,0.10583 1.41111,-0.3175 2.64584,-0.45861 2.75167,-0.35277 0.14111,0.14111 -0.17639,2.64583 -0.70556,5.60916 -1.48166,8.39611 -1.5875,12.17083 -0.28222,11.39472 0.21167,-0.14111 0.38806,-1.05833 0.38806,-2.04611 0,-0.98778 0.38805,-4.05694 0.84666,-6.77333 0.49389,-2.75167 0.9525,-5.64444 1.05834,-6.49111 0.24694,-2.01083 0.35277,-2.11667 2.08139,-2.54 2.46944,-0.635 6.0325,-1.83445 6.52638,-2.18722 0.21167,-0.21167 0.42334,-0.59973 0.42334,-0.84667 0,-0.67028 -1.44639,-0.59972 -4.58611,0.21167 -3.31611,0.88194 -3.77473,0.88194 -4.05695,0 -0.24694,-0.74084 -1.05833,-0.9525 -1.41111,-0.35278 z"
         inkscape:connector-curvature="0"
         style="stroke-width:0.03527778" />
      <path
         id="path11530"
         d="m 195.89019,218.66074 c -0.49389,0.9525 -0.45861,8.60778 0.0706,9.73667 0.28222,0.635 0.67028,0.88194 1.44639,0.88194 0.98777,0 1.02305,-0.0353 0.74083,-1.16416 -0.17639,-0.59972 -0.28222,-2.78695 -0.21167,-4.83306 0.0705,-2.04611 0,-4.05694 -0.10583,-4.51555 -0.24694,-0.98778 -1.41111,-1.02306 -1.94028,-0.10584 z"
         inkscape:connector-curvature="0"
         style="stroke-width:0.03527778" />
      <path
         id="path11532"
         d="m 240.90463,172.12936 c -0.49388,0.77611 -1.09361,1.41111 -1.27,1.41111 -0.21166,0 -0.98777,-0.42334 -1.76388,-0.91723 -0.77612,-0.52916 -1.62278,-0.84666 -1.94028,-0.70555 -0.98778,0.35278 -0.52917,1.44639 1.05833,2.50472 1.72861,1.16417 1.83445,1.41111 1.05833,2.54 -0.45861,0.67028 -0.67027,0.74083 -1.41111,0.38806 -0.49389,-0.21167 -0.88194,-0.52917 -0.88194,-0.70556 0,-0.14111 -0.3175,-0.28222 -0.70556,-0.28222 -1.19944,0 -0.88194,1.5875 0.52917,2.71639 0.67028,0.52916 1.23472,1.19944 1.23472,1.48166 0,0.28223 0.28222,0.42334 0.81139,0.3175 1.12889,-0.21166 2.89278,0.84667 2.89278,1.72862 0,1.12888 0.45861,1.34055 1.19944,0.67027 0.38806,-0.35277 0.98778,-0.56444 1.34056,-0.52916 0.35278,0.0705 0.84667,0 1.09361,-0.17639 0.38806,-0.21167 0.3175,-0.45861 -0.3175,-1.12889 -0.77611,-0.81139 -0.77611,-0.84667 -0.14111,-2.25778 0.49389,-1.12889 0.81139,-1.41111 1.55222,-1.41111 0.49389,0 1.16417,-0.17639 1.44639,-0.35278 0.45861,-0.3175 0.42333,-0.42333 -0.14111,-0.88194 -0.35278,-0.28222 -0.84667,-0.56445 -1.02306,-0.635 -0.21166,-0.0706 0.10584,-1.02306 0.74084,-2.18722 1.23472,-2.25778 1.37583,-2.99862 0.67027,-2.99862 -0.635,0 -1.41111,0.91723 -2.32833,2.75167 -0.88194,1.76389 -1.30528,2.01083 -2.64583,1.48167 l -0.9525,-0.35278 0.91722,-1.30528 c 0.49389,-0.74083 0.88194,-1.62278 0.88194,-1.94028 0,-1.09361 -0.91722,-0.70555 -1.905,0.77612 z m 0.77612,4.79777 c 0.67027,0.21167 0.77611,0.38806 0.59972,1.16417 -0.3175,1.27 -0.70556,1.5875 -1.65806,1.30528 -1.5875,-0.42334 -1.86972,-0.77611 -1.41111,-1.76389 0.42333,-0.91722 0.98778,-1.09361 2.46945,-0.70556 z"
         inkscape:connector-curvature="0"
         style="stroke-width:0.03527778" />
      <path
         id="path11534"
         d="m 252.01713,174.03436 c -0.42333,0.52916 -0.74083,2.36361 -0.98777,5.3975 l -0.17639,2.57527 h 1.79916 c 2.08139,0 2.36362,0.56445 0.88195,1.72861 -1.12889,0.88195 -2.50472,0.9525 -3.35139,0.17639 -0.98778,-0.88194 -1.48167,-0.28222 -0.81139,1.02306 0.74083,1.41111 1.09361,1.65805 2.57528,1.65805 0.91722,0 1.48167,-0.3175 2.54,-1.37583 1.19944,-1.19944 1.37583,-1.5875 1.37583,-2.96333 0,-1.83445 -0.56444,-2.36361 -2.50472,-2.36361 -1.09361,0 -1.12889,0 -0.91722,-1.41111 0.28222,-2.04612 0.74083,-2.46945 2.8575,-2.46945 2.25778,0 4.30389,-0.56444 4.58611,-1.23472 0.24694,-0.67028 -0.45861,-0.81139 -4.48028,-0.98778 -1.94028,-0.0705 -3.21028,0.0353 -3.38667,0.24695 z"
         inkscape:connector-curvature="0"
         style="stroke-width:0.03527778" />
      <path
         id="path11546"
         d="m 469.04602,183.8063 c -4.83307,0.56444 -13.05277,5.64444 -16.61584,10.30111 -3.45723,4.55083 -4.62139,7.23195 -4.72723,11.21833 -0.0705,2.39889 0.0353,2.8575 1.3053,5.60917 1.44637,3.03389 4.33916,7.23194 5.8561,8.43139 1.83444,1.41111 3.81,2.15194 5.78556,2.15194 2.29304,0 2.43417,0.21167 2.8575,3.95111 0.3175,3.03389 2.08138,7.33778 3.03388,7.33778 1.02306,0 2.04612,-0.635 3.52779,-2.15194 0.74083,-0.74084 2.46944,-2.25778 3.88054,-3.35139 1.41113,-1.12889 2.89279,-2.43417 3.31613,-2.89278 l 0.74083,-0.88194 2.61054,0.91722 c 2.2225,0.81139 3.95113,1.05833 11.43,1.65805 4.86833,0.38806 9.0664,0.81139 9.34863,0.88195 0.2822,0.0705 3.3161,0.45861 6.70277,0.88194 6.87916,0.81139 10.23056,1.27 22.225,2.99861 4.55083,0.635 10.68916,1.51695 13.58193,1.94028 2.92807,0.42334 7.7964,0.98778 10.8303,1.23472 3.03387,0.24695 5.9972,0.56445 6.52637,0.67028 0.52917,0.10584 4.33917,0.52917 8.39613,0.9525 14.85193,1.48167 24.37693,0.45861 32.31443,-3.56305 5.96194,-3.03389 11.50057,-8.67834 13.22917,-13.47611 0.9525,-2.71639 1.27,-7.51417 0.67027,-9.94834 -1.05833,-4.1275 -2.54,-6.77333 -5.32694,-9.34861 -4.19806,-3.91583 -7.79639,-5.46805 -20.4611,-8.67833 -22.29556,-5.67972 -30.44473,-6.27945 -81.63279,-6.35 -17.95638,0 -33.26694,-0.14111 -34.04304,-0.28222 -2.3989,-0.49389 -2.75167,-0.49389 -5.36223,-0.21167 z m 0.7761,2.04611 c -0.17637,0.635 0.56446,0.635 25.04723,0.52917 13.86417,-0.0353 25.36473,-0.17639 25.5764,-0.3175 0.42333,-0.24695 27.34027,0.42333 35.0661,0.91722 5.15056,0.3175 10.795,0.9525 18.5561,2.08139 3.6689,0.52917 9.8425,1.97555 19.82613,4.55083 11.18304,2.89278 16.47471,6.42056 19.22637,12.73528 1.16417,2.68111 1.27,3.28083 1.23473,5.78555 -0.0706,4.33917 -0.59973,6.24417 -2.57527,9.2075 -2.39889,3.56306 -3.88056,5.08 -6.94973,7.05556 -5.50333,3.52778 -10.9361,5.25639 -18.48556,5.89139 -4.97417,0.42333 -7.83167,0.28222 -19.86137,-0.9525 -2.50473,-0.24695 -6.63223,-0.635 -9.17223,-0.88195 -2.50473,-0.21166 -6.73807,-0.70555 -9.34861,-1.09361 -2.61056,-0.38805 -7.05556,-0.98777 -9.87779,-1.37583 -2.82221,-0.38806 -9.38387,-1.30528 -14.64027,-2.08139 -5.2211,-0.74083 -11.18306,-1.55222 -13.22917,-1.76389 -2.0461,-0.21166 -5.11527,-0.635 -6.87916,-0.91722 -1.72861,-0.28222 -5.46807,-0.67028 -8.29027,-0.88194 -6.94973,-0.52917 -13.6878,-1.34056 -14.4639,-1.76389 -1.27,-0.67028 -3.10444,-0.38806 -4.3039,0.635 -0.635,0.52916 -2.11666,1.65805 -3.28083,2.50472 -1.16417,0.84667 -2.96333,2.43417 -4.02167,3.4925 l -1.94027,1.94028 -0.81139,-2.15195 c -0.42334,-1.19944 -0.98777,-3.59833 -1.19944,-5.36222 -0.4586,-3.66889 -0.35277,-3.56306 -4.23333,-4.16278 -1.48167,-0.21166 -2.8575,-0.67028 -3.77473,-1.30528 -1.76388,-1.16416 -4.48027,-4.7625 -6.24417,-8.29027 -1.27,-2.54 -1.30527,-2.71639 -1.12887,-5.3975 0.24693,-3.06917 0.9172,-4.86834 2.9986,-7.90222 2.6811,-3.88056 6.1736,-6.84389 11.00667,-9.27806 2.54,-1.30528 3.73943,-1.72861 6.10306,-2.08139 0.17637,0 0.21167,0.24695 0.0705,0.635 z"
         inkscape:connector-curvature="0"
         style="stroke-width:0.03527778" />
      <path
         id="path11548"
         d="m 466.89408,197.70574 c -2.89279,1.27 -6.77333,6.87917 -6.77333,9.80723 0,4.02166 4.5861,6.84388 8.11387,5.00944 1.5875,-0.81139 1.27,-1.23472 -0.88194,-1.23472 -1.0936,0 -2.50473,-0.21167 -3.175,-0.49389 -2.18723,-0.91722 -2.89277,-3.66889 -1.5875,-6.13833 2.15194,-4.02167 4.23334,-5.715 7.12611,-5.715 1.83446,0 2.50473,-0.56445 1.51696,-1.30528 -0.84667,-0.59972 -2.8575,-0.56445 -4.33917,0.0705 z"
         inkscape:connector-curvature="0"
         style="stroke-width:0.03527778" />
      <path
         id="path11550"
         d="m 501.11352,197.95269 c -1.16417,0.56444 -0.84667,1.48167 0.56443,1.62278 1.05834,0.10583 1.16417,0.21166 0.9525,1.05833 -0.4586,2.18722 -1.2347,7.37305 -1.2347,8.43139 0,0.9525 -0.14113,1.19944 -0.9525,1.37583 -1.72863,0.35278 -1.9403,0.49389 -1.79917,1.09361 0.10583,0.56445 0.59971,0.635 4.09221,0.635 3.10446,0 4.05696,-0.10583 4.30389,-0.52916 0.4939,-0.81139 0.0706,-1.05834 -1.97556,-1.05834 -1.23471,0 -1.97554,-0.17639 -2.11667,-0.45861 -0.0705,-0.24694 0,-1.55222 0.21167,-2.89278 0.24696,-1.37583 0.4939,-3.28083 0.59973,-4.23333 0.35277,-3.175 0.52917,-3.42194 2.57527,-3.13972 1.48167,0.21167 1.7639,0.14111 1.7639,-0.3175 0,-1.34056 -5.18584,-2.50472 -6.985,-1.5875 z"
         inkscape:connector-curvature="0"
         style="stroke-width:0.03527778" />
      <path
         id="path11552"
         d="m 517.94102,199.3638 c -0.24694,0.45861 -0.45861,2.29306 -0.4939,4.16278 -0.0705,2.71639 -0.28221,3.81 -1.02304,5.60916 -0.52917,1.34056 -0.77613,2.43417 -0.59973,2.61056 0.4586,0.45861 1.7286,-0.3175 2.32833,-1.51695 0.91723,-1.79916 2.64584,-3.52777 3.52777,-3.52777 0.88196,0 1.5875,1.41111 1.5875,3.21027 0,0.74084 0.1764,1.02306 0.635,1.02306 0.3528,0 0.9878,0.24694 1.41113,0.56444 0.59971,0.38806 1.19944,0.49389 2.11667,0.3175 0.70554,-0.10583 1.97554,-0.24694 2.78693,-0.28222 1.83444,-0.0705 2.15194,-0.38805 1.34057,-1.30528 -0.59973,-0.67027 -0.59973,-1.65805 0,-3.28083 0.17637,-0.45861 0.0705,-0.59972 -0.42334,-0.59972 -0.49389,0 -0.91723,0.45861 -1.34056,1.41111 -0.8114,1.79917 -1.65806,2.54 -2.7164,2.39889 -0.67027,-0.0706 -0.81137,-0.28222 -0.74083,-1.16417 0.0353,-0.59972 0.35279,-1.23472 0.67029,-1.41111 1.83444,-1.12889 2.75167,-1.83444 2.89277,-2.25778 0.3175,-0.91722 -2.39889,-0.17639 -3.6336,1.02306 -0.59973,0.56444 -1.27,1.05833 -1.4464,1.05833 -0.21166,0 -0.635,-0.56444 -0.9525,-1.23472 -0.4586,-0.98778 -0.7761,-1.23472 -1.55223,-1.23472 -0.56443,0.0353 -1.37583,0.24694 -1.8697,0.52916 -0.4939,0.28223 -0.9878,0.49389 -1.16417,0.52917 -0.14113,0 -0.21167,-1.62278 -0.1764,-3.56305 0.10584,-3.73945 -0.28223,-4.72723 -1.16416,-3.06917 z"
         inkscape:connector-curvature="0"
         style="stroke-width:0.03527778" />
      <path
         id="path11554"
         d="m 595.97545,201.65686 c -0.98777,0.67027 -0.635,1.16416 0.88196,1.16416 2.89277,0 3.28084,1.30528 1.37584,4.48028 -1.37584,2.25778 -1.55223,3.28083 -0.59973,3.28083 0.35277,0 0.84666,-0.52916 1.23473,-1.34055 0.3175,-0.70556 0.98777,-1.94028 1.48166,-2.71639 1.12888,-1.83445 1.16417,-3.77472 0.10584,-4.48028 -1.23473,-0.81139 -3.63363,-1.02305 -4.4803,-0.38805 z"
         inkscape:connector-curvature="0"
         style="stroke-width:0.03527778" />
      <path
         id="path11556"
         d="m 475.29018,204.62019 c -2.64583,1.05833 -4.86833,5.53861 -3.45723,6.94972 0.52917,0.52917 2.64584,0.52917 4.1275,0.0353 0.9525,-0.35278 1.34057,-0.28222 2.36363,0.24694 1.23471,0.67028 1.27,0.67028 1.76387,-0.0353 0.45863,-0.59972 0.42334,-0.74083 -0.42333,-1.23472 -0.84667,-0.49389 -0.91721,-0.67028 -0.74083,-2.57528 0.21166,-2.50472 -0.49388,-2.78694 -1.48167,-0.49388 -0.81137,1.86972 -1.4111,2.36361 -3.21027,2.61055 -1.16417,0.17639 -1.4111,0.10583 -1.4111,-0.42333 0,-1.05834 1.4111,-2.64584 3.21027,-3.52778 2.61056,-1.34056 1.97556,-2.64583 -0.74084,-1.55222 z"
         inkscape:connector-curvature="0"
         style="stroke-width:0.03527778" />
      <path
         id="path11558"
         d="m 538.01408,205.53741 c -0.3175,0.35278 -0.9525,1.30528 -1.48167,2.11667 -1.09362,1.79916 -1.55223,1.905 -1.86973,0.45861 -0.35277,-1.94028 -0.98777,-0.9525 -0.9525,1.55222 0.0353,4.02167 1.19944,4.05694 3.3514,0.14111 0.70554,-1.27 1.62277,-2.68111 2.0461,-3.13972 0.38807,-0.42333 0.74084,-1.02306 0.74084,-1.27 0,-0.67028 -1.19944,-0.56445 -1.83444,0.14111 z"
         inkscape:connector-curvature="0"
         style="stroke-width:0.03527778" />
      <path
         id="path11560"
         d="m 483.22768,206.41935 c -0.0706,0.24695 -0.28223,1.34056 -0.49389,2.39889 -0.17638,1.09361 -0.45861,2.39889 -0.56444,2.92806 -0.35277,1.41111 0.70556,1.27 1.4464,-0.21167 1.02304,-1.97555 2.25777,-3.42194 2.9986,-3.42194 0.67027,0 0.74083,0.17639 0.59973,2.36361 -0.10583,2.18722 -0.0353,2.39889 0.59971,2.39889 0.635,0 0.70556,-0.28222 0.81139,-2.71639 0.0706,-1.51695 -0.0706,-3.06917 -0.28223,-3.45722 -0.4586,-0.84667 -1.65804,-0.91723 -2.78693,-0.14111 -0.77611,0.56444 -0.84667,0.56444 -1.16417,0 -0.38806,-0.67028 -0.9525,-0.74084 -1.16417,-0.14112 z"
         inkscape:connector-curvature="0"
         style="stroke-width:0.03527778" />
      <path
         id="path11562"
         d="m 575.97295,207.47769 c -2.64583,2.43416 -3.42193,6.10305 -1.51693,7.23194 0.88193,0.52917 1.02306,0.52917 2.43416,-0.21166 0.8114,-0.42334 1.5875,-0.67028 1.72861,-0.56445 0.10583,0.14111 -0.52917,1.69333 -1.44638,3.45722 -1.72862,3.38667 -4.83306,7.16139 -5.64446,6.87917 -0.3175,-0.10583 -0.4586,-0.84667 -0.4586,-2.32833 0,-1.16417 -0.10583,-2.2225 -0.24694,-2.36361 -0.49389,-0.49389 -0.84666,0.17638 -0.9525,1.65805 -0.0706,0.84667 -0.14112,1.905 -0.17639,2.39889 -0.14111,1.23472 0.4586,2.82222 1.05833,2.82222 1.79917,0 5.36223,-3.59833 7.37306,-7.47889 1.19944,-2.29305 4.05694,-10.08944 4.05694,-11.1125 0,-0.67027 -1.4111,-1.41111 -3.13973,-1.62277 -1.4111,-0.17639 -1.65804,-0.0706 -3.06917,1.23472 z m 3.73946,0.91722 c 0,0.45861 -1.94029,3.38667 -2.75166,4.05694 -0.38807,0.35278 -1.02307,0.59973 -1.37584,0.52917 -0.81139,-0.14111 -0.70556,-1.83444 0.21167,-3.10444 0.81137,-1.12889 3.91583,-2.29306 3.91583,-1.48167 z"
         inkscape:connector-curvature="0"
         style="stroke-width:0.03527778" />
      <path
         id="path11564"
         d="m 557.59325,206.59574 c -0.9525,0.17639 -1.55223,0.88195 -2.11667,2.54 -0.59973,1.65806 -0.56446,2.68111 0.0705,3.88056 0.84667,1.69333 2.7164,1.94028 5.29167,0.67028 l 1.5875,-0.77611 0.81139,0.77611 c 0.91723,0.84666 2.32834,1.02305 2.99861,0.35277 0.74083,-0.74083 0.45862,-1.34055 -0.635,-1.34055 -1.44638,0 -1.79917,-0.81139 -1.19944,-2.78695 0.8114,-2.71638 -0.38806,-2.89277 -1.65806,-0.24694 -1.16417,2.50472 -4.40971,3.84528 -5.715,2.39889 -0.81138,-0.88195 -0.74084,-1.51695 0.28223,-2.61056 0.81139,-0.88194 1.62277,-1.16416 4.05693,-1.41111 0.59973,-0.0705 0.91723,-0.35278 0.9878,-0.91722 0.10583,-0.74083 0,-0.77611 -1.9403,-0.74083 -1.12887,0.0353 -2.39887,0.14111 -2.8222,0.21166 z"
         inkscape:connector-curvature="0"
         style="stroke-width:0.03527778" />
      <path
         id="path11566"
         d="m 540.51879,207.51297 c -1.44638,0.98777 -2.08138,2.11666 -2.08138,3.84527 0,1.34056 0.91721,2.71639 1.86971,2.78695 0.21167,0 0.74083,0.0706 1.09363,0.14111 0.81137,0.14111 3.03387,-0.70556 3.03387,-1.16417 0,-0.17639 -0.81137,-0.42333 -1.79917,-0.52916 -2.08137,-0.24695 -2.8575,-0.77612 -2.71637,-1.79917 0.10583,-0.67028 0.3175,-0.74083 1.905,-0.635 2.11667,0.14111 4.02167,-0.635 4.02167,-1.65806 0,-1.83444 -3.2103,-2.43416 -5.32696,-0.98777 z"
         inkscape:connector-curvature="0"
         style="stroke-width:0.03527778" />
      <path
         id="path11568"
         d="m 587.05018,208.5713 c -1.30527,0.88194 -3.10443,4.09222 -3.10443,5.57389 0,2.08139 2.15193,2.71639 4.62137,1.30528 2.2225,-1.23473 3.9864,-5.50334 2.7164,-6.56167 -0.24694,-0.17639 -1.05834,-0.52917 -1.7639,-0.70556 -1.12887,-0.3175 -1.48167,-0.24694 -2.46944,0.38806 z m 2.96334,1.94028 c 0.1411,0.14111 0,0.81139 -0.35277,1.48166 -0.70557,1.48167 -2.99863,2.8575 -3.63363,2.2225 -0.52917,-0.52916 -0.10583,-2.29305 0.8114,-3.45722 0.59973,-0.77611 0.91723,-0.91722 1.83443,-0.74083 0.59973,0.14111 1.19946,0.35278 1.34057,0.49389 z"
         inkscape:connector-curvature="0"
         style="stroke-width:0.03527778" />
      <path
         id="path11570"
         d="m 597.42185,214.53324 c -0.70556,0.70556 -0.4939,1.41111 0.38806,1.27 0.49388,-0.0705 0.81138,-0.38805 0.88194,-0.91722 0.1411,-0.84667 -0.56444,-1.05833 -1.27,-0.35278 z"
         inkscape:connector-curvature="0"
         style="stroke-width:0.03527778" />
      <path
         id="path11578"
         d="m 414.47129,242.33213 c -2.50471,0.45861 -3.59834,0.98778 -4.09221,2.04611 -0.42333,0.91722 -0.77613,11.00667 -1.1289,31.46778 -0.10583,6.87917 -0.0353,7.58472 0.4939,7.69055 0.42333,0.0706 0.635,-0.21166 0.7761,-1.05833 0.14111,-0.9525 0.9525,-32.31444 0.91723,-36.12444 0,-2.15195 2.15194,-2.39889 17.63888,-1.905 6.49112,0.21166 15.5575,0.45861 20.10833,0.56444 4.55083,0.10584 8.32556,0.24695 8.4314,0.3175 0.0706,0.10584 1.19943,0.17639 2.46943,0.17639 2.32834,0.0353 6.91446,0.74083 7.3025,1.16417 0.14113,0.14111 0.45863,5.08 0.70557,11.00666 0.24693,5.92667 0.52916,10.90084 0.635,11.04195 0.10583,0.14111 0.28223,3.88055 0.42333,8.29028 l 0.24694,8.00805 h -1.55221 c -0.88196,0 -3.52779,-0.24694 -5.92667,-0.52917 -2.36362,-0.3175 -7.9375,-0.70555 -12.31196,-0.88194 -25.8586,-1.05833 -28.82193,-1.12889 -32.3497,-0.70556 -4.9389,0.56445 -6.42057,0.98778 -6.63223,1.83445 -0.28223,1.02305 0.42333,1.12889 4.33916,0.49389 4.09223,-0.635 12.59417,-0.74084 21.51944,-0.21167 3.21029,0.17639 9.7014,0.49389 14.4639,0.70556 4.7625,0.21166 10.4775,0.635 12.7,0.91722 2.2225,0.24694 4.83306,0.49389 5.78556,0.49389 h 1.7286 l -0.24693,-8.39611 c -0.14113,-4.58611 -0.38807,-9.80722 -0.56446,-11.53584 -0.17638,-1.76388 -0.42334,-6.52638 -0.56444,-10.58333 -0.1411,-4.09222 -0.38806,-7.76111 -0.52917,-8.21972 -0.17639,-0.45861 -0.3175,-1.34056 -0.3175,-1.97556 0,-1.48166 -0.42333,-1.83444 -2.64583,-2.15194 -0.9525,-0.14111 -2.29306,-0.45861 -2.96333,-0.74083 -0.88194,-0.38806 -3.0339,-0.49389 -8.67834,-0.49389 -4.16277,0 -11.07723,-0.14111 -15.41639,-0.3175 -12.59417,-0.56445 -22.89527,-0.70556 -24.765,-0.38806 z"
         inkscape:connector-curvature="0"
         style="stroke-width:0.03527778" />
      <path
         id="path11580"
         d="m 482.62795,247.27102 c -1.4111,1.30528 -1.905,1.30528 -3.1397,0.14111 -1.09363,-1.05833 -2.0814,-0.9525 -2.0814,0.21167 0,0.42333 0.42333,1.12889 0.98777,1.5875 l 0.9525,0.84666 -0.9525,0.9525 c -0.81137,0.81139 -1.05833,0.88195 -1.97554,0.56445 -0.74083,-0.24695 -1.16417,-0.24695 -1.4464,0.0353 -0.52916,0.52916 -0.49389,1.19944 0.0706,1.41111 0.3175,0.10583 0.3175,0.38805 0,1.23472 -0.45863,1.34056 -0.1764,1.62278 1.16416,1.12889 0.84667,-0.3175 1.09361,-0.24695 2.04611,0.59972 0.59973,0.52917 1.16416,1.02306 1.23473,1.05833 0.0705,0.0706 -0.0353,0.52917 -0.28223,1.02306 -0.56444,1.30528 -0.0353,1.79917 1.16416,1.02306 0.67027,-0.42334 1.27,-0.52917 2.29307,-0.35278 2.46943,0.42333 3.7747,-0.45861 1.97554,-1.30528 -1.05834,-0.49389 -1.12888,-1.02306 -0.17638,-1.86972 0.70554,-0.635 0.81138,-0.635 2.29304,-0.10584 1.27,0.49389 1.6228,0.49389 1.9403,0.10584 0.2822,-0.35278 0.10583,-0.67028 -0.77613,-1.41111 l -1.12887,-0.9525 2.46943,-2.2225 c 1.94027,-1.76389 2.36361,-2.32834 2.01084,-2.68111 -0.59973,-0.59973 -1.55223,-0.0706 -3.77473,2.01083 -1.97554,1.79917 -2.89277,1.94028 -4.19804,0.56444 l -0.9525,-1.02305 0.74083,-0.67028 c 0.38804,-0.35278 0.9525,-1.09361 1.23471,-1.62278 0.74083,-1.41111 -0.28221,-1.5875 -1.69334,-0.28222 z m -0.10583,5.53861 1.19946,0.98778 -0.91723,0.9525 c -1.16417,1.23472 -1.51694,1.23472 -2.89277,0.0705 -1.23473,-1.02305 -1.34056,-1.41111 -0.4939,-2.32833 0.8114,-0.88194 1.69334,-0.81139 3.10444,0.3175 z"
         inkscape:connector-curvature="0"
         style="stroke-width:0.03527778" />
      <path
         id="path11582"
         d="m 496.38629,250.34019 c -2.08138,2.18722 -2.8575,4.1275 -2.89277,7.09083 -0.0353,2.43417 0.0353,2.64583 0.9525,3.45722 2.2225,1.905 6.8086,0.24695 8.5725,-3.10444 0.67027,-1.27 0.59973,-3.63361 -0.14111,-5.57389 -0.45862,-1.16417 -0.98779,-1.76389 -2.01083,-2.36361 -2.04613,-1.16417 -2.99863,-1.05834 -4.48029,0.49389 z m 4.30389,1.69333 c 1.23473,1.30528 1.41111,4.23333 0.3175,5.60917 -1.51693,1.94027 -4.7625,2.61055 -5.75027,1.19944 -1.44639,-2.01083 1.27,-7.69055 3.66888,-7.69055 0.52916,0 1.27,0.38805 1.76389,0.88194 z"
         inkscape:connector-curvature="0"
         style="stroke-width:0.03527778" />
      <path
         id="path11584"
         d="m 436.34352,252.95074 c -1.34057,0.38806 -3.95111,1.30528 -5.82084,2.04611 -1.86973,0.77611 -3.88056,1.55223 -4.51556,1.79917 -1.27,0.45861 -1.86971,1.65806 -1.12887,2.15194 0.56443,0.35278 2.2225,0.0706 3.56304,-0.59972 1.905,-0.98778 2.04612,-0.77611 1.76389,2.39889 -0.1411,1.62278 -0.24693,5.29167 -0.24693,8.21972 0,5.04473 0.0353,5.29167 0.70554,5.29167 0.67029,0 0.70556,-0.3175 0.91723,-5.11528 0.21166,-4.79778 0.91723,-11.88861 1.23473,-12.41778 0.2822,-0.45861 4.16277,-1.76388 6.4911,-2.15194 2.0814,-0.38806 2.29306,-0.49389 2.29306,-1.30528 0,-0.77611 -0.17639,-0.88194 -1.41112,-0.9525 -0.77611,-0.0353 -2.50471,0.24695 -3.84527,0.635 z"
         inkscape:connector-curvature="0"
         style="stroke-width:0.03527778" />
      <path
         id="path11588"
         d="m 439.30685,270.66019 c -0.59973,0.28222 -0.88194,0.74083 -0.88194,1.30527 0,0.77612 0.14111,0.88195 1.19944,0.77612 l 1.19944,-0.14112 -1.30527,1.51695 c -0.88194,1.02305 -1.27,1.83444 -1.19944,2.39889 0.24694,1.94027 4.23333,3.175 5.92667,1.83444 1.12887,-0.88194 0.67027,-1.44639 -1.4464,-1.69333 -2.57527,-0.28222 -2.61056,-0.3175 -1.05833,-2.11667 1.51693,-1.69333 2.01083,-2.89278 1.65806,-3.81 -0.24696,-0.67028 -2.82223,-0.70555 -4.09223,-0.0705 z"
         inkscape:connector-curvature="0"
         style="stroke-width:0.03527778" />
    </g>
  </g>
</svg>
