<?xml version="1.0" encoding="UTF-8" standalone="no"?>
<!-- Created with Inkscape (http://www.inkscape.org/) -->

<svg
   xmlns:dc="http://purl.org/dc/elements/1.1/"
   xmlns:cc="http://creativecommons.org/ns#"
   xmlns:rdf="http://www.w3.org/1999/02/22-rdf-syntax-ns#"
   xmlns:svg="http://www.w3.org/2000/svg"
   xmlns="http://www.w3.org/2000/svg"
   xmlns:sodipodi="http://sodipodi.sourceforge.net/DTD/sodipodi-0.dtd"
   xmlns:inkscape="http://www.inkscape.org/namespaces/inkscape"
   width="53.295902mm"
   height="42.930672mm"
   viewBox="0 0 53.295902 42.930672"
   version="1.1"
   id="svg1746"
   inkscape:version="0.92.5 (2060ec1f9f, 2020-04-08)"
   sodipodi:docname="tasks_2.svg">
  <defs
     id="defs1740" />
  <sodipodi:namedview
     id="base"
     pagecolor="#ffffff"
     bordercolor="#666666"
     borderopacity="1.0"
     inkscape:pageopacity="0.0"
     inkscape:pageshadow="2"
     inkscape:zoom="1.4"
     inkscape:cx="-31.367118"
     inkscape:cy="33.156768"
     inkscape:document-units="mm"
     inkscape:current-layer="g2391"
     showgrid="false"
     fit-margin-top="0"
     fit-margin-left="0"
     fit-margin-right="0"
     fit-margin-bottom="0"
     inkscape:window-width="1920"
     inkscape:window-height="1080"
     inkscape:window-x="1920"
     inkscape:window-y="0"
     inkscape:window-maximized="0"
     showguides="false" />
  <metadata
     id="metadata1743">
    <rdf:RDF>
      <cc:Work
         rdf:about="">
        <dc:format>image/svg+xml</dc:format>
        <dc:type
           rdf:resource="http://purl.org/dc/dcmitype/StillImage" />
        <dc:title></dc:title>
      </cc:Work>
    </rdf:RDF>
  </metadata>
  <g
     inkscape:label="Layer 1"
     inkscape:groupmode="layer"
     id="layer1"
     transform="translate(-82.965147,-81.2549)">
    <g
       id="g2391"
       transform="matrix(0.25,0,0,0.25,74.839287,79.874999)">
      <path
         id="path1296"
         d="m 51.83566,6.5321171 c -6.702778,1.6227778 -10.018889,2.3636111 -13.299722,2.9986111 -2.469445,0.4938888 -3.104445,0.7408338 -3.104445,1.1994448 0,1.481666 1.023056,1.516944 5.926667,0.211666 1.199444,-0.3175 2.328333,-0.493889 2.504722,-0.423333 0.141111,0.105833 0.388056,5.291667 0.529167,11.535833 0.141111,6.244167 0.423333,11.747501 0.635,12.276668 l 0.352777,0.91722 0.705556,-0.881944 c 0.705556,-0.846666 0.705556,-1.164166 0.458611,-12.347221 -0.211667,-9.525 -0.176389,-11.535834 0.211667,-11.853334 0.282222,-0.2116665 2.010833,-0.8113888 3.845277,-1.3405554 4.233334,-1.1994444 6.35,-2.1519444 6.35,-2.8574999 0,-0.6702777 -0.07055,-0.6702777 -5.115277,0.5644444 z"
         inkscape:connector-curvature="0"
         style="stroke-width:0.03527778" />
      <path
         id="path1298"
         d="m 74.413438,14.152117 c -0.141113,0.352778 -0.388056,3.774722 -0.564446,7.62 -0.3175,7.655278 -0.07055,9.595555 1.27,9.595555 0.635,0 0.705556,-0.211666 0.599723,-1.693333 -0.14111,-1.869722 0.03528,-1.975555 1.975556,-0.987778 1.799167,0.917223 4.409721,1.128889 4.586111,0.352778 0.07056,-0.388055 -0.564444,-0.846667 -2.187224,-1.516944 -1.27,-0.529167 -2.469443,-1.199445 -2.68111,-1.446389 -0.635,-0.776111 -0.105833,-1.728611 1.5875,-2.786944 2.257777,-1.446389 2.610557,-1.940278 1.799167,-2.54 -0.564444,-0.388056 -0.881944,-0.3175 -2.469444,0.493888 -0.987779,0.529167 -1.905,0.987778 -2.081389,1.058334 -0.141111,0.07055 -0.141111,-1.622778 -0.03528,-3.774722 0.17639,-2.928056 0.141113,-4.021667 -0.211664,-4.445001 -0.599723,-0.705555 -1.27,-0.670277 -1.5875,0.07056 z"
         inkscape:connector-curvature="0"
         style="stroke-width:0.03527778" />
      <path
         id="path1302"
         d="m 54.410937,21.842673 c -1.199444,0.670277 -3.457222,4.268611 -3.457222,5.538611 0,0.493888 0.141111,1.305277 0.3175,1.763888 0.458611,1.199445 2.2225,2.998611 3.175,3.210278 0.987778,0.246944 2.504722,-0.282223 3.104445,-1.058333 0.423333,-0.529167 0.493888,-0.529167 1.128888,0.03528 0.881944,0.811388 2.963334,0.635 3.139723,-0.246945 0.07055,-0.352778 -0.105833,-0.599722 -0.423333,-0.599722 -1.199446,0 -1.62278,-1.023056 -1.62278,-4.092222 0,-2.716389 -0.07055,-2.963333 -0.705553,-2.963333 -0.49389,0 -0.776112,0.352777 -1.058334,1.411111 -0.176389,0.776111 -0.529167,2.046111 -0.705556,2.822222 -0.458611,1.728611 -1.728611,3.280833 -2.504722,2.998611 -0.635,-0.246945 -1.728611,-2.010833 -1.728611,-2.786945 0,-1.622777 2.116666,-4.198055 3.986389,-4.90361 0.388055,-0.141112 0.599722,-0.493889 0.529166,-0.846667 -0.141111,-0.811389 -1.905,-0.987778 -3.175,-0.282222 z"
         inkscape:connector-curvature="0"
         style="stroke-width:0.03527778" />
      <path
         id="path1306"
         d="m 65.911492,23.571284 c -1.940277,1.940277 -1.375834,4.797777 0.9525,4.797777 0.776113,0 1.023056,0.176389 1.023056,0.670278 0,0.917222 -1.340556,2.504722 -2.116666,2.504722 -0.881944,0 -1.164167,0.529166 -0.705557,1.411112 0.529167,1.023054 1.905,0.881944 3.104446,-0.3175 1.058334,-1.093612 2.187221,-3.139723 2.187221,-3.986389 0,-0.776112 -1.09361,-1.622778 -2.293054,-1.763889 -1.5875,-0.176389 -1.658056,-1.446389 -0.105833,-2.398889 0.635,-0.388056 1.340553,-0.740833 1.516943,-0.811389 0.211667,-0.07056 0.14111,-0.388055 -0.14111,-0.705555 -0.776113,-0.9525 -2.116667,-0.705556 -3.421946,0.599722 z"
         inkscape:connector-curvature="0"
         style="stroke-width:0.03527778" />
      <path
         id="path1310"
         d="m 85.984548,23.430173 c -1.5875,0.9525 -1.552223,2.116666 0.14111,3.4925 0.705557,0.564444 1.44639,0.952499 1.622777,0.846666 0.211667,-0.105833 0.282223,-0.07056 0.211667,0.105833 -0.105833,0.176389 -0.493887,0.917223 -0.881944,1.658056 -0.564443,1.164167 -0.599723,1.375833 -0.14111,1.658055 0.811387,0.529167 1.058334,0.423334 2.328334,-0.846666 1.516943,-1.516945 1.5875,-2.716389 0.176387,-3.704167 -0.564444,-0.423333 -1.199444,-0.740833 -1.411111,-0.740833 -0.740833,0 -0.388056,-1.093611 0.49389,-1.481667 0.529167,-0.246944 0.846667,-0.635 0.811387,-0.9525 -0.176387,-0.846666 -2.04611,-0.881944 -3.351387,-0.03528 z"
         inkscape:connector-curvature="0"
         style="stroke-width:0.03527778" />
      <path
         id="path1372"
         d="m 80.057882,39.34045 c -2.328334,0.17639 -7.972777,0.635 -12.523611,1.023057 -20.037778,1.763887 -24.659167,2.116666 -26.705278,2.116666 -2.293055,0 -2.928055,0.388054 -2.187222,1.305277 0.388056,0.423333 0.917222,0.49389 2.786944,0.3175 4.833056,-0.49389 13.052778,-1.27 17.109722,-1.622777 2.328334,-0.17639 7.655278,-0.670279 11.818055,-1.023056 7.584723,-0.705557 19.085277,-1.41111 25.364723,-1.552223 2.18722,-0.03528 3.386667,-0.211667 3.45722,-0.493887 0.17639,-0.49389 -12.52361,-0.529167 -19.120553,-0.07056 z"
         inkscape:connector-curvature="0"
         style="stroke-width:0.03527778" />
      <path
         id="path1374"
         d="m 171.78514,51.914458 c -1.34055,0.70555 -2.15194,2.32833 -1.69333,3.38667 0.49389,1.23472 1.41111,9.13694 1.41111,12.48833 0,2.39889 0.10583,3.03389 0.56445,3.210277 0.28222,0.105834 0.81138,-0.07056 1.12888,-0.352777 0.49389,-0.52917 0.52917,-1.23472 0.17639,-7.12611 -0.28222,-4.58611 -0.56444,-6.87917 -0.98777,-7.65528 -0.49389,-1.05833 -0.49389,-1.16417 0.14111,-1.79917 0.9525,-0.9525 3.63361,-1.19944 4.79777,-0.45861 1.37584,0.91722 1.16417,2.2225 -0.74083,4.445 -1.51694,1.76389 -1.62278,2.01084 -1.48167,3.52778 0.17639,1.79917 1.62278,5.18583 2.96334,6.94972 0.635,0.84667 1.16416,1.16417 1.94028,1.16417 1.44638,0 1.72861,-0.91722 0.56444,-1.86972 -1.905,-1.5875 -3.81,-7.16139 -2.68111,-7.86695 0.21167,-0.10583 0.84667,-0.9525 1.41111,-1.83444 1.44639,-2.29306 1.41111,-3.98639 -0.17639,-5.57389 -1.16417,-1.16417 -1.30528,-1.19945 -3.77472,-1.19945 -1.62278,0.0353 -2.96333,0.21167 -3.56306,0.56445 z"
         inkscape:connector-curvature="0"
         style="stroke-width:0.03527778" />
      <path
         id="path1376"
         d="m 209.84986,59.710848 c -0.56444,0.52916 -0.21166,1.51694 0.59973,1.72861 1.05833,0.24694 1.62277,-0.0353 1.62277,-0.91722 0,-0.84667 -1.62277,-1.44639 -2.2225,-0.81139 z"
         inkscape:connector-curvature="0"
         style="stroke-width:0.03527778" />
      <path
         id="path1378"
         d="m 189.70625,61.298348 c -0.0705,0.24694 -0.3175,1.41111 -0.56444,2.57528 -0.21167,1.16416 -0.635,2.46944 -0.91722,2.89277 -1.05834,1.65806 -2.32834,0.635 -2.61056,-2.15194 -0.14111,-1.37583 -0.3175,-1.83445 -0.84667,-1.905 -0.91722,-0.17639 -1.26999,0.52917 -1.26999,2.64583 0,1.5875 0.14111,1.97556 1.19944,3.06917 2.96333,3.174998 6.45583,0.38805 6.6675,-5.25639 0.0705,-1.94028 0,-2.11667 -0.74083,-2.2225 -0.42334,-0.0706 -0.84667,0.10583 -0.91723,0.35278 z"
         inkscape:connector-curvature="0"
         style="stroke-width:0.03527778" />
      <path
         id="path1380"
         d="m 195.84459,62.109738 c -0.24695,0.28222 -0.88195,0.49389 -1.51695,0.42333 -1.05833,-0.0706 -1.09361,-0.0353 -1.51694,2.2225 -0.67028,3.45722 -0.635,4.48028 0.21166,4.69194 0.81139,0.21167 1.48167,-0.59972 2.15195,-2.57527 0.84667,-2.43417 1.5875,-2.75167 1.94028,-0.81139 0.42333,2.43416 1.27,3.21028 2.2225,2.08139 0.49389,-0.56445 -0.35278,-4.37445 -1.23473,-5.78556 -0.59972,-0.88194 -1.62277,-1.02305 -2.25777,-0.24694 z"
         inkscape:connector-curvature="0"
         style="stroke-width:0.03527778" />
      <path
         id="path1382"
         d="m 202.75903,62.356678 c -0.38805,0.21167 -1.02305,0.38806 -1.41111,0.42333 -0.67028,0.0353 -0.74083,0.28223 -0.84667,2.99862 -0.0705,1.62277 0.0353,3.06916 0.17639,3.24555 0.67028,0.59972 1.83445,-0.35278 2.08139,-1.69333 0.28222,-1.51695 1.05833,-3.28084 1.48167,-3.28084 0.70555,0 1.12889,0.98778 1.12889,2.50473 0,1.905 0.70555,2.82222 1.5875,2.08139 0.35277,-0.3175 0.52916,-1.09362 0.52916,-2.54 0,-1.905 -0.10583,-2.2225 -1.09361,-3.13973 -1.16416,-1.09361 -2.46944,-1.30527 -3.63361,-0.59972 z"
         inkscape:connector-curvature="0"
         style="stroke-width:0.03527778" />
      <path
         id="path1384"
         d="m 223.46709,63.873628 c -2.08139,2.18722 -1.34056,5.46805 1.16416,5.46805 1.12889,0 1.23472,0.0706 1.12889,0.9525 -0.0705,0.705557 -0.70555,1.375834 -2.39889,2.575278 -3.73944,2.681113 -4.58611,4.586113 -3.31611,7.761113 0.45861,1.128887 0.74083,1.41111 1.48167,1.41111 1.30528,0 3.175,-2.187223 4.93889,-5.785556 1.72861,-3.4925 1.79916,-3.563054 6.985,-4.833054 3.38666,-0.811391 4.23333,-1.340561 3.88055,-2.257781 -0.17639,-0.49389 -0.52916,-0.56444 -2.08139,-0.35278 -0.98777,0.14112 -2.71639,0.45862 -3.77472,0.74084 -3.24555,0.88194 -2.99861,1.09361 -2.8575,-2.61056 l 0.10583,-3.24555 h -1.05833 c -0.56444,0 -1.23472,-0.24695 -1.48167,-0.52917 -0.67027,-0.81139 -1.48166,-0.635 -2.71638,0.70556 z m 2.64583,2.15194 c -0.56445,1.65806 -1.69333,2.11667 -1.69333,0.67028 0,-0.9525 1.79916,-3.10445 2.01083,-2.43417 0.0705,0.21167 -0.0706,0.98778 -0.3175,1.76389 z m -2.04611,9.489721 c 0,0.529167 -1.83445,3.704167 -2.11667,3.704167 -0.67028,0 -0.35278,-1.72861 0.56445,-2.786944 0.81138,-0.987777 1.55222,-1.41111 1.55222,-0.917223 z"
         inkscape:connector-curvature="0"
         style="stroke-width:0.03527778" />
      <path
         id="path1386"
         d="m 217.2582,63.873628 c -1.12889,0.74083 -1.34056,0.77611 -1.5875,0.3175 -0.17639,-0.3175 -0.635,-0.49389 -0.98778,-0.42334 -0.59972,0.10584 -0.67028,0.42334 -0.67028,2.75167 0,2.46944 0.0706,2.64583 0.77611,2.75167 0.635,0.10583 1.02306,-0.28223 1.905,-1.65806 0.59973,-0.98778 1.19945,-1.79917 1.37584,-1.79917 0.14111,0 0.59972,0.56445 1.02305,1.23473 0.70556,1.19944 1.55222,1.5875 1.94028,0.91722 0.21167,-0.3175 -0.59972,-3.95111 -1.02306,-4.62139 -0.35277,-0.59972 -1.41111,-0.38806 -2.75166,0.52917 z"
         inkscape:connector-curvature="0"
         style="stroke-width:0.03527778" />
      <path
         id="path1388"
         d="m 209.60292,64.720288 c -0.17639,0.38806 -0.35278,1.5875 -0.35278,2.64584 0,1.72861 0.10584,1.97555 0.67028,1.97555 0.88194,0 1.16417,-0.45861 1.48167,-2.43417 0.35277,-2.36361 -0.88195,-3.84527 -1.79917,-2.18722 z"
         inkscape:connector-curvature="0"
         style="stroke-width:0.03527778" />
      <path
         id="path1392"
         d="m 155.48681,70.364738 c -0.10583,0.14111 -1.83444,1.446385 -3.81,2.857497 -3.45722,2.469444 -9.24278,6.738054 -18.27389,13.476111 -2.2225,1.658056 -5.08,3.915833 -6.35,5.04472 -1.27,1.093613 -3.45722,2.89278 -4.90361,3.98639 l -2.57528,2.010833 -0.77611,-0.987777 c -0.84666,-1.023056 -1.69333,-1.199446 -2.99861,-0.493889 -0.635,0.3175 -0.98778,1.023056 -1.48167,2.892776 -0.84666,3.210281 -0.84666,4.162781 0.0353,4.938891 0.67028,0.59972 0.91722,0.635 3.10445,0.21166 1.30527,-0.24694 2.89277,-0.52916 3.52777,-0.635 0.81139,-0.14111 1.30528,-0.45861 1.55223,-1.02305 0.35277,-0.74084 0.28222,-0.98778 -0.52917,-1.83445 -0.52917,-0.56444 -0.9525,-1.164161 -0.9525,-1.375827 0,-0.211667 0.59972,-0.81139 1.34056,-1.375834 0.70555,-0.529166 2.57527,-2.04611 4.1275,-3.31611 1.55222,-1.30528 4.26861,-3.457223 5.99722,-4.79778 7.37305,-5.573887 14.42861,-10.830276 18.94416,-14.040553 5.32695,-3.81 6.10306,-4.515557 5.82084,-5.326948 -0.24695,-0.56444 -1.48167,-0.74083 -1.79917,-0.21166 z"
         inkscape:connector-curvature="0"
         style="stroke-width:0.03527778" />
      <path
         id="path1394"
         d="m 55.363437,90.316837 c -4.833055,0.246944 -11.183055,0.705557 -14.075833,0.987777 -3.527777,0.35278 -5.538611,0.423333 -6.138333,0.17639 -1.975555,-0.740833 -1.975555,-0.670277 -2.328333,15.486936 -0.423333,18.76778 -0.423333,23.38917 0,37.81778 0.282222,10.4775 0.388056,11.81806 0.881944,11.92389 0.917223,0.17639 1.164167,-7.02028 0.670278,-17.78 -0.282222,-5.82083 -0.352778,-11.60639 -0.176389,-16.15722 0.141111,-3.91583 0.3175,-11.95917 0.388056,-17.95639 0.07056,-5.96194 0.211667,-11.006663 0.3175,-11.183053 0.105833,-0.211666 0.9525,-0.352776 1.834444,-0.352776 0.881945,0 3.986389,-0.246944 6.949722,-0.49389 12.911667,-1.234721 24.800278,-1.72861 36.371389,-1.481667 11.853333,0.211667 13.511387,0.3175 18.767776,1.093613 3.951112,0.564444 5.644442,1.446387 5.891392,3.104444 0.0705,0.635 0.35278,5.009439 0.56444,9.771939 0.21167,4.7625 0.52917,9.66611 0.74084,10.93611 0.17639,1.27 0.49389,7.09084 0.635,12.94695 0.17639,5.85611 0.42333,10.795 0.52916,10.97138 0.17639,0.3175 1.02306,15.16945 0.9525,17.145 -0.0353,1.55223 -0.91722,2.61056 -2.57527,3.06917 -1.51695,0.38806 -15.628062,0.0353 -29.386395,-0.74083 -3.280833,-0.17639 -13.370277,-0.59972 -22.401388,-0.91722 -9.03111,-0.28223 -17.003888,-0.67028 -17.709444,-0.84667 -1.375833,-0.28222 -1.693333,-0.17639 -1.693333,0.56444 0,1.12889 1.869722,1.44639 9.701389,1.69334 4.268611,0.10583 10.159999,0.28222 13.052777,0.38805 2.928056,0.10583 8.325556,0.24695 11.994445,0.35278 3.704167,0.14111 8.678334,0.35278 11.1125,0.52917 2.434167,0.17638 8.078611,0.42333 12.523611,0.52916 4.480276,0.14111 8.537218,0.38806 9.066388,0.59972 0.635,0.21167 1.94028,0.21167 4.05695,-0.0353 4.83305,-0.59973 5.11527,-1.37584 4.19805,-11.43 -1.27,-14.07584 -1.62278,-19.3675 -1.65805,-25.01195 0,-3.24555 -0.24695,-7.51416 -0.49389,-9.525 -0.28223,-2.01083 -0.59973,-6.6675 -0.70556,-10.33638 -0.10583,-3.70414 -0.28222,-8.184416 -0.38805,-9.983583 -0.21167,-3.104443 -0.24695,-3.280833 -1.12889,-3.739443 -0.52917,-0.246944 -1.5875,-0.564444 -2.36361,-0.670277 -0.77612,-0.141113 -2.11667,-0.388056 -2.99862,-0.599723 -5.891385,-1.305277 -28.116385,-1.72861 -44.979163,-0.846667 z"
         inkscape:connector-curvature="0"
         style="stroke-width:0.03527778" />
      <path
         id="path1398"
         d="m 64.006492,105.09823 c -6.914444,3.21027 -8.113888,3.9511 -8.113888,5.00944 0,0.98777 1.128889,0.84666 3.492501,-0.38806 1.340553,-0.70555 2.68111,-1.27 2.963333,-1.27 0.423333,0 0.564444,1.55222 0.811387,9.59556 0.282223,8.53722 0.388057,9.63083 0.917223,9.73666 0.352777,0.0706 0.670277,-0.21166 0.846667,-0.70555 0.14111,-0.45861 0.246943,-5.15056 0.211667,-10.40695 l -0.07056,-9.63083 3.880557,-1.94027 c 2.963333,-1.48167 3.915833,-2.11667 3.81,-2.57528 -0.07056,-0.3175 -0.423334,-0.635 -0.81139,-0.70556 -0.388054,-0.0353 -3.95111,1.41111 -7.9375,3.28084 z"
         inkscape:connector-curvature="0"
         style="stroke-width:0.03527778" />
      <g
         id="g2437"
         transform="translate(309.94048,170.84524)">
        <path
           style="stroke-width:0.03527778"
           inkscape:connector-curvature="0"
           d="m -130.12208,-62.274676 c -2.18722,0.59972 -2.18722,0.49389 -2.11667,8.96056 0.0353,8.53722 0.3175,10.4775 1.48167,10.30111 0.74083,-0.10584 0.74083,-0.24695 0.67028,-7.54945 -0.0353,-4.09222 0.0353,-7.83166 0.14111,-8.36083 0.3175,-1.12889 1.94027,-1.72861 3.45722,-1.19944 0.81139,0.24694 0.9525,0.52916 0.9525,1.55222 0,1.02305 -0.3175,1.55222 -1.79917,2.99861 -2.01083,1.94028 -2.01083,1.72861 0.0353,6.13833 1.41111,3.06917 2.68111,4.37445 4.26861,4.37445 1.34056,0 1.44639,-1.27 0.14111,-1.76389 -0.635,-0.24695 -1.27,-1.09361 -2.11666,-2.89278 -1.44639,-3.03389 -1.51695,-3.56306 -0.38806,-4.40972 1.905,-1.51695 2.61056,-5.08 1.34056,-6.70278 -0.59973,-0.77611 -3.175,-1.905 -4.26862,-1.83444 -0.3175,0 -1.12888,0.17638 -1.79916,0.38805 z"
           id="path1400" />
        <path
           style="stroke-width:0.03527778"
           inkscape:connector-curvature="0"
           d="m -96.290688,-57.723846 c -0.24695,0.49389 -0.3175,1.51695 -0.21167,2.78695 0.3175,2.75167 0.0353,3.52778 -1.16417,3.52778 -1.05833,0 -2.963332,0.74083 -3.951112,1.51694 -0.84667,0.67028 -0.84667,3.63361 -0.0706,4.79778 0.74083,1.02305 2.786942,1.905 3.774722,1.5875 0.42333,-0.10584 1.19944,-0.635 1.72861,-1.12889 0.84667,-0.77611 1.09361,-0.84667 1.905,-0.49389 1.5875,0.74083 2.01083,-0.0706 0.84667,-1.69333 -0.59973,-0.84667 -0.70556,-1.65806 -0.77612,-6.20889 -0.10583,-5.11528 -0.14111,-5.25639 -0.88194,-5.36222 -0.49389,-0.0706 -0.91722,0.14111 -1.19944,0.67027 z m -0.17639,8.67834 c -0.45861,1.86972 -1.55223,3.63361 -2.25778,3.63361 -0.81139,0 -1.340562,-0.84667 -1.16417,-1.86972 0.17639,-0.84667 2.36361,-2.71639 3.175,-2.71639 0.35278,0 0.42334,0.28222 0.24695,0.9525 z"
           id="path1406" />
        <path
           style="stroke-width:0.03527778"
           inkscape:connector-curvature="0"
           d="m -119.04486,-52.643846 c -2.54,1.76389 -2.46945,7.33778 0.0705,8.29028 1.44639,0.56445 3.13973,0.42333 3.81,-0.3175 0.49389,-0.56444 0.52917,-0.70555 0.0706,-1.05833 -0.3175,-0.28222 -0.9525,-0.35278 -1.55222,-0.21167 -1.19945,0.24695 -1.94028,-0.42333 -1.76389,-1.65805 0.0705,-0.67028 0.38805,-0.84667 1.62278,-1.02306 1.905,-0.24694 2.71639,-0.98778 2.39889,-2.2225 -0.52917,-2.08139 -2.92806,-3.03389 -4.65667,-1.79917 z"
           id="path1418" />
        <path
           style="stroke-width:0.03527778"
           inkscape:connector-curvature="0"
           d="m -191.43486,-50.597726 c -2.68111,2.71638 -2.78694,3.4925 -0.77611,5.67972 1.62278,1.76389 4.19806,3.24555 5.04472,2.92805 0.45861,-0.17639 0.59972,-0.67028 0.59972,-2.15194 0,-1.51695 0.14112,-1.97556 0.635,-2.11667 1.23473,-0.38805 12.48834,-0.88194 20.17889,-0.88194 6.87917,0 18.34445,-0.56445 19.685,-0.9525 0.59972,-0.17639 0.52917,-1.44639 -0.14111,-1.69334 -0.81139,-0.3175 -3.45722,-0.24694 -6.6675,0.10584 -1.55222,0.21166 -9.10166,0.45861 -16.75694,0.59972 -7.65528,0.14111 -14.56972,0.24694 -15.34584,0.28222 -1.34055,0.0353 -1.41111,-0.0353 -1.5875,-1.19944 -0.28222,-1.69334 -1.09361,-2.82222 -1.94027,-2.82222 -0.42334,0 -1.65806,0.9525 -2.92806,2.2225 z"
           id="path1422" />
        <path
           style="stroke-width:0.03527778"
           inkscape:connector-curvature="0"
           d="m -110.78986,-51.021066 c -2.50472,1.30528 -3.175,4.19806 -1.37583,5.99722 1.16416,1.16417 3.06916,1.37584 4.58611,0.52917 0.49389,-0.28222 1.41111,-0.42333 2.15194,-0.3175 1.76389,0.24694 2.18722,-0.45861 0.91722,-1.48167 -0.81139,-0.635 -0.91722,-0.98777 -0.84666,-2.29305 0.10583,-1.30528 0,-1.5875 -0.59973,-1.69333 -0.38805,-0.10584 -0.91722,-0.45862 -1.16416,-0.81139 -0.59972,-0.84667 -2.01084,-0.84667 -3.66889,0.0705 z m 3.24555,1.97556 c 0,0.84666 -1.27,2.89278 -1.94027,3.13972 -0.67028,0.28222 -1.5875,-0.45861 -1.5875,-1.27 0,-0.81139 1.94027,-2.46944 2.8575,-2.46944 0.38805,0 0.67027,0.24694 0.67027,0.59972 z"
           id="path1424" />
        <path
           style="stroke-width:0.03527778"
           inkscape:connector-curvature="0"
           d="m -86.730418,-49.786346 c -0.21166,0.49389 -0.35278,1.19945 -0.35278,1.5875 0,0.81139 -1.30527,2.18723 -1.76388,1.905 -0.21167,-0.14111 -0.35278,-0.74083 -0.35278,-1.34055 0,-1.44639 -0.45861,-2.11667 -1.27,-1.94028 -0.52917,0.0706 -0.70556,0.49389 -0.77611,1.83445 -0.14111,2.22249 0.88194,3.49249 2.71639,3.31611 1.30527,-0.10584 1.76388,0.42333 0.98777,1.16416 -0.28222,0.28222 -1.51694,1.19945 -2.71638,2.08139 -2.43417,1.72861 -3.13973,2.82222 -3.24556,4.93889 -0.0353,1.55222 0.77611,2.82222 1.905,2.82222 1.86972,0 4.48028,-2.89278 5.60917,-6.17361 0.635,-1.97555 0.70555,-2.01083 3.81,-3.81 2.78694,-1.62278 3.70416,-2.71639 2.89277,-3.52778 -0.3175,-0.3175 -1.02305,-0.10583 -2.75166,0.81139 -1.30528,0.67028 -2.50473,1.30528 -2.68111,1.37584 -0.24695,0.0705 -0.28223,-0.77612 -0.14112,-2.25778 0.24695,-2.46945 -0.10583,-3.70417 -1.02305,-3.70417 -0.28222,0 -0.67028,0.42334 -0.84667,0.91722 z m -2.25777,12.02973 c -0.59973,1.19944 -1.86973,2.57527 -2.32834,2.57527 -0.21166,0 -0.35278,-0.42333 -0.35278,-0.91722 0,-1.16417 2.89278,-4.19805 3.10445,-3.24555 0.0705,0.3175 -0.10583,1.02305 -0.42333,1.5875 z"
           id="path1428" />
      </g>
      <path
         id="path1430"
         d="m 74.483992,122.10211 c -0.388054,0.35278 -0.282221,4.48028 0.141113,6.42056 0.352777,1.62277 1.023053,2.39888 1.763887,1.94027 0.388056,-0.21166 0,-7.12611 -0.45861,-8.00805 -0.3175,-0.59972 -1.023057,-0.81139 -1.44639,-0.35278 z"
         inkscape:connector-curvature="0"
         style="stroke-width:0.03527778" />
      <path
         id="path1436"
         d="m -189.28291,-29.536896 c -3.95111,1.905 -4.51556,3.10444 -2.61056,6.0325 1.27,1.905 3.70417,4.55083 4.23333,4.55083 0.74084,0 1.69334,-1.30528 1.97556,-2.68111 0.35278,-2.01083 0.67028,-2.25778 2.2225,-1.83444 0.70555,0.21166 3.88055,1.51694 7.02028,2.96333 3.13972,1.41111 7.02027,3.10444 8.64305,3.77472 1.5875,0.67028 5.15056,2.29306 7.86695,3.59833 2.71638,1.30528 5.96194,2.75167 7.23194,3.2455601 5.92667,2.2225 9.73667,3.77472 10.12472,4.09222 0.67028,0.49389 1.51695,0 1.51695,-0.91722 0,-0.98778 -0.49389,-1.23472 -7.69056,-3.9863901 -2.8575,-1.09361 -7.51417,-3.06917 -10.37166,-4.40972 -2.82223,-1.34056 -6.70278,-3.03389 -8.64306,-3.81 -1.905,-0.77611 -4.86833,-2.04611 -6.63222,-2.89278 -1.72861,-0.81139 -4.7625,-2.08139 -6.70278,-2.82222 -1.94028,-0.74083 -3.52778,-1.44639 -3.52778,-1.62278 0.0353,-0.14111 0.14111,-0.9525 0.3175,-1.76389 0.3175,-1.79916 -0.17639,-2.92805 -1.30528,-2.89278 -0.42333,0 -2.08138,0.635 -3.66888,1.37584 z"
         inkscape:connector-curvature="0"
         style="stroke-width:0.03527778" />
      <path
         id="path1456"
         d="m -130.12208,-12.321346 c -1.12889,0.35278 -1.27,1.19945 -1.55222,9.6308401 -0.17639,5.60916 -0.14112,6.63222 0.3175,7.02027 0.74083,0.635 1.51694,0.21167 1.65805,-0.91722 0.10583,-0.9525 0.10583,-0.9525 2.75167,-0.88194 1.94028,0.0353 2.96333,-0.10584 3.88055,-0.56445 2.32834,-1.19943999 2.54,-2.92804999 0.84667,-6.35 l -0.9525,-1.79916 0.81139,-1.65806 c 0.67028,-1.37583 0.70555,-1.76389 0.35278,-2.6105601 -0.21167,-0.56444 -0.81139,-1.19944 -1.34056,-1.44638 -1.12889,-0.52917 -5.50333,-0.77611 -6.77333,-0.42334 z m 5.89139,2.4341701 c 0.14111,0.38805 -0.10584,0.81139 -0.70556,1.30528 -1.27,1.02305 -1.19944,2.08139 0.28222,4.445 2.11667,3.31611001 1.41111,4.58611001 -2.61055,4.58611001 h -2.25778 l 0.24694,-5.18584001 c 0.14112,-2.82222 0.3175,-5.2916601 0.42334,-5.4680501 0.10583,-0.14111 1.12889,-0.28222 2.29305,-0.28222 1.62278,0 2.15195,0.14111 2.32834,0.5997201 z"
         inkscape:connector-curvature="0"
         style="stroke-width:0.03527778" />
      <path
         id="path1458"
         d="m -117.70431,-10.063566 c -0.59972,0.7761101 -2.18722,7.3377801 -2.18722,9.17222011 0,2.08138999 0.42334,3.03388999 1.65806,3.49249999 1.83444,0.70556 3.10444,-0.59972 1.34055,-1.37583 -1.12889,-0.52916999 -1.16416,-2.01082999 -0.10583,-5.715 1.02306,-3.63361 1.19944,-5.29167 0.59972,-5.6797201 -0.67028,-0.42334 -0.88194,-0.38806 -1.30528,0.10583 z"
         inkscape:connector-curvature="0"
         style="stroke-width:0.03527778" />
      <path
         id="path1460"
         d="m -73.183748,-8.3349559 c -0.28222,0.59972 -0.635,2.01083 -0.74083,3.10445 -0.10584,1.09361 -0.3175,2.2225 -0.49389,2.54 -0.14111,0.3175 -1.55223,0.9525 -3.10445,1.41111 l -2.78694,0.84666001 -0.24695,2.75166999 c -0.24694,2.57528 -0.21166,2.82222 0.56445,3.63361 1.05833,1.12889 2.64583,1.09361 4.40972,-0.0705 1.05833,-0.74084 1.48167,-0.84667 1.905,-0.52917 0.28222,0.21167 1.02306,0.70555 1.5875,1.09361 1.65806,1.09361 4.05694,0.88194 4.05694,-0.38806 0,-0.635 -0.14111,-0.70555 -2.75166,-1.23472 -1.30528,-0.28222 -1.72861,-1.65805 -1.02306,-3.59833 0.3175,-0.91721999 0.74084,-3.175 0.98778,-5.04472 0.35278,-2.96334 0.3175,-3.52778 -0.17639,-4.48028 -0.74083,-1.41111 -1.44639,-1.44639 -2.18722,-0.0353 z m -1.55222,9.17222001 c 0,1.12888999 -1.34056,3.06916999 -2.46945,3.66888999 -1.37583,0.70556 -1.41111,0.67028 -1.41111,-0.49389 0,-1.30527 1.37583,-3.28082999 2.46945,-3.59832999 1.37583,-0.38806 1.41111,-0.35278 1.41111,0.42333 z"
         inkscape:connector-curvature="0"
         style="stroke-width:0.03527778" />
      <path
         id="path1462"
         d="m -97.842918,-8.3702359 c -0.14111,0.21167 -0.38805,2.50473 -0.59972,5.08 -0.3175,4.12750001 -0.28222,4.83306 0.24695,5.82084 0.81138,1.5875 1.79916,1.34055 1.65805,-0.38806 -0.10583,-1.58749999 0.45861,-1.97554999 1.48167,-1.02305 1.23472,1.16416 3.06916,1.5875 3.73944,0.88194 0.28222,-0.3175 0.38806,-0.635 0.17639,-0.70556 -1.37583,-0.56443999 -3.175,-1.83443999 -3.28083,-2.32833 -0.0706,-0.38805 0.45861,-1.02305 1.48166,-1.76389 1.86973,-1.30528 2.15195,-2.39889 0.635,-2.39889 -0.52916,0 -1.55222,0.38806 -2.25777,0.88195 -0.70556,0.49389 -1.41111,0.88194 -1.51695,0.88194 -0.10583,0 -0.17639,-1.02305 -0.14111,-2.2225 0.0353,-1.23472 -0.0353,-2.43416 -0.17639,-2.64583 -0.3175,-0.52917 -1.16416,-0.52917 -1.44639,-0.0706 z"
         inkscape:connector-curvature="0"
         style="stroke-width:0.03527778" />
      <path
         id="path1464"
         d="m -113.75319,-1.8791259 c -1.30528,1.30528001 -1.51695,2.57528001 -0.77612,4.33917 0.77612,1.72861 1.69334,2.29306 3.38667,2.11667 1.86972,-0.21167 2.64583,-0.88195 3.21028,-2.75167 0.59972,-1.94027999 0.21167,-3.45722 -0.9525,-3.88055 -0.52917,-0.17639 -1.23472,-0.49389 -1.55222,-0.67028 -1.09361,-0.635 -2.08139,-0.38806 -3.31611,0.84666 z m 3.84527,1.23473001 c 0.88195,0.10583 -0.635,3.28082999 -1.65805,3.42193999 -0.74084,0.10583 -1.02306,-0.42333 -0.98778,-1.69333 0.0353,-1.34055999 0.67028,-2.08138999 1.62278,-1.90499999 0.38805,0.10583 0.84666,0.17639 1.02305,0.17639 z"
         inkscape:connector-curvature="0"
         style="stroke-width:0.03527778" />
      <path
         id="path1466"
         d="m -105.74514,-1.4910659 c -0.91722,1.05833001 -1.09361,1.55222001 -1.09361,2.96333 0,2.43417 0.81139,3.31611 3.03389,3.35139 2.11667,0.0353 2.36361,-0.74083 0.49389,-1.37583 -1.62278,-0.52917 -1.83445,-1.94028 -0.52917,-3.84527999 1.62278,-2.39889001 0.0353,-3.31611001 -1.905,-1.09361001 z"
         inkscape:connector-curvature="0"
         style="stroke-width:0.03527778" />
      <path
         id="path1468"
         d="m -85.848468,-2.0202359 c -1.72861,0.28223 -3.52778,1.19945001 -3.84528,1.94028001 -0.10583,0.3175 -0.21167,1.12888999 -0.21167,1.83444999 0,1.65805 2.04611,3.81 3.24556,3.45722 1.94028,-0.59972 2.18722,-1.44639 0.56444,-1.86972 -0.77611,-0.17639 -1.19944,-0.52917 -1.27,-1.02306 -0.10583,-0.77611 0.10584,-0.88194 2.29306,-1.34055999 1.41111,-0.28222 2.32833,-1.44638 1.86972,-2.29305001 -0.45861,-0.81139 -0.9525,-0.9525 -2.64583,-0.70556 z"
         inkscape:connector-curvature="0"
         style="stroke-width:0.03527778" />
    </g>
  </g>
</svg>
