<?xml version="1.0" encoding="UTF-8" standalone="no"?>
<!-- Created with Inkscape (http://www.inkscape.org/) -->

<svg
   xmlns:dc="http://purl.org/dc/elements/1.1/"
   xmlns:cc="http://creativecommons.org/ns#"
   xmlns:rdf="http://www.w3.org/1999/02/22-rdf-syntax-ns#"
   xmlns:svg="http://www.w3.org/2000/svg"
   xmlns="http://www.w3.org/2000/svg"
   xmlns:sodipodi="http://sodipodi.sourceforge.net/DTD/sodipodi-0.dtd"
   xmlns:inkscape="http://www.inkscape.org/namespaces/inkscape"
   width="108.0255mm"
   height="37.993752mm"
   viewBox="0 0 108.0255 37.993752"
   version="1.1"
   id="svg1578"
   inkscape:version="0.92.5 (2060ec1f9f, 2020-04-08)"
   sodipodi:docname="Tasks_and_cores.svg">
  <defs
     id="defs1572" />
  <sodipodi:namedview
     id="base"
     pagecolor="#ffffff"
     bordercolor="#666666"
     borderopacity="1.0"
     inkscape:pageopacity="0.0"
     inkscape:pageshadow="2"
     inkscape:zoom="0.35"
     inkscape:cx="85.261032"
     inkscape:cy="20.195252"
     inkscape:document-units="mm"
     inkscape:current-layer="layer1"
     showgrid="false"
     fit-margin-top="0"
     fit-margin-left="0"
     fit-margin-right="0"
     fit-margin-bottom="0"
     inkscape:window-width="1920"
     inkscape:window-height="1080"
     inkscape:window-x="1920"
     inkscape:window-y="0"
     inkscape:window-maximized="0" />
  <metadata
     id="metadata1575">
    <rdf:RDF>
      <cc:Work
         rdf:about="">
        <dc:format>image/svg+xml</dc:format>
        <dc:type
           rdf:resource="http://purl.org/dc/dcmitype/StillImage" />
        <dc:title></dc:title>
      </cc:Work>
    </rdf:RDF>
  </metadata>
  <g
     inkscape:label="Layer 1"
     inkscape:groupmode="layer"
     id="layer1"
     transform="translate(37.983921,-116.18291)">
    <g
       transform="matrix(0.00881655,-2.261649e-4,-2.2616489e-4,-0.00881655,-133.33523,247.19817)"
       id="g5587">
      <path
         inkscape:connector-curvature="0"
         id="path4758"
         d="m 11736,14553 c -12,-12 -6,-36 12,-49 13,-10 79,-14 287,-14 296,-1 660,-15 743,-28 29,-5 58,-14 64,-20 18,-18 16,-530 -1,-659 -11,-77 -18,-102 -30,-105 -9,-2 -52,-1 -96,3 -261,23 -481,31 -711,25 -206,-5 -253,-4 -262,7 -8,9 -13,133 -17,397 -4,337 -7,385 -21,393 -32,18 -32,13 -32,-258 0,-414 9,-578 32,-593 6,-4 173,-8 371,-9 198,-1 376,-4 395,-7 19,-3 109,-11 198,-18 214,-16 212,-17 229,107 7,50 15,228 19,397 8,334 5,357 -45,382 -45,23 -242,36 -651,41 -217,3 -414,8 -436,10 -23,2 -44,1 -48,-2 z" />
      <path
         inkscape:connector-curvature="0"
         id="path4760"
         d="m 13859,14452 c -25,-26 -26,-32 -27,-147 -1,-66 -11,-185 -22,-264 -11,-80 -20,-169 -20,-199 0,-30 -12,-97 -26,-148 -30,-113 -29,-139 6,-140 14,0 41,-5 60,-9 19,-5 53,-10 75,-10 22,-1 148,-5 280,-9 132,-4 290,-14 350,-22 347,-45 341,-45 350,19 3,23 12,221 18,440 11,379 11,399 -6,415 -32,29 -227,60 -382,61 -156,1 -408,17 -500,31 -99,16 -127,13 -156,-18 z m 276,-65 c 88,-8 248,-18 355,-22 192,-6 333,-25 347,-48 13,-21 -8,-762 -23,-776 -2,-2 -75,6 -162,18 -141,20 -408,36 -732,44 l -105,2 2,25 c 1,14 9,50 18,80 9,30 20,116 25,190 6,74 15,160 21,190 7,30 12,115 13,188 l 1,134 40,-5 c 22,-3 112,-12 200,-20 z" />
      <path
         inkscape:connector-curvature="0"
         id="path4762"
         d="m 14330,14230 c -47,-17 -106,-38 -132,-47 -32,-11 -48,-23 -48,-34 0,-26 26,-42 56,-35 14,4 34,4 45,1 18,-6 19,-16 18,-118 -1,-82 -6,-117 -16,-129 -19,-21 -9,-38 22,-38 46,0 55,31 55,191 v 146 l 63,18 c 34,9 68,19 75,21 7,2 12,14 10,26 -5,34 -48,33 -148,-2 z" />
      <path
         inkscape:connector-curvature="0"
         id="path4764"
         d="m 14470,13946 c -47,-17 -52,-49 -11,-67 32,-14 38,-24 21,-34 -20,-12 -11,-65 16,-92 22,-22 31,-24 67,-19 48,8 67,21 67,47 0,19 -8,23 -46,20 -11,-1 -26,5 -33,13 -10,11 -7,19 14,41 14,16 26,34 26,41 1,8 2,20 3,27 6,37 -54,48 -124,23 z" />
      <path
         inkscape:connector-curvature="0"
         id="path4766"
         d="m 16605,14409 c -33,-5 -222,-8 -420,-7 l -360,3 4,-60 c 1,-33 4,-208 5,-390 1,-181 6,-347 10,-368 13,-57 38,-68 189,-84 73,-7 195,-22 272,-32 77,-11 178,-23 225,-26 47,-4 123,-13 170,-21 123,-20 149,-19 154,9 3,12 9,45 15,72 6,28 12,235 15,462 5,469 16,419 -94,434 -36,5 -78,11 -95,13 -16,2 -57,0 -90,-5 z m -231,-73 c 231,-1 427,-5 434,-10 18,-11 13,-819 -5,-837 -10,-10 -26,-10 -75,-1 -35,6 -119,16 -188,22 -69,6 -181,19 -250,30 -69,10 -182,24 -252,31 -83,7 -132,17 -139,25 -12,14 -14,178 -3,196 10,15 5,481 -5,515 -11,39 -5,46 32,37 16,-3 219,-7 451,-8 z" />
      <path
         inkscape:connector-curvature="0"
         id="path4768"
         d="m 16315,14150 c -104,-30 -190,-64 -200,-79 -3,-5 -2,-17 1,-26 5,-13 15,-16 43,-11 20,4 47,8 61,9 l 25,2 2,-130 c 1,-148 11,-188 45,-183 22,3 23,5 23,178 v 174 l 75,23 c 78,25 96,39 78,60 -15,18 -40,16 -153,-17 z" />
      <path
         inkscape:connector-curvature="0"
         id="path4770"
         d="m 16438,13869 c -25,-14 -22,-34 7,-53 16,-10 25,-26 25,-42 0,-17 9,-30 30,-42 38,-22 38,-36 0,-59 -37,-21 -38,-56 -2,-61 15,-2 35,10 67,42 25,24 46,50 46,58 2,26 -3,43 -19,61 -13,15 -14,22 -4,37 17,28 15,48 -7,60 -25,13 -121,13 -143,-1 z" />
      <path
         inkscape:connector-curvature="0"
         id="path4772"
         d="m 12440,14390 c -14,-4 -105,-27 -203,-51 -98,-24 -192,-51 -209,-61 -30,-19 -30,-19 -12,-39 14,-15 26,-19 46,-15 16,3 41,9 56,12 18,4 32,1 39,-8 20,-26 35,-144 32,-257 -4,-101 -2,-115 14,-125 15,-9 21,-7 33,8 24,33 16,305 -12,397 -4,13 13,20 93,38 179,40 218,62 181,99 -14,14 -22,14 -58,2 z" />
      <path
         inkscape:connector-curvature="0"
         id="path4774"
         d="m 20425,14279 c -33,-4 -143,-4 -245,-2 -163,5 -522,-7 -697,-23 -33,-3 -69,-12 -80,-19 -17,-13 -17,-15 1,-48 10,-20 16,-39 13,-44 -12,-18 -27,-177 -37,-383 -6,-118 -12,-238 -14,-267 -3,-40 1,-57 18,-77 21,-26 22,-26 201,-30 100,-3 251,-14 340,-26 330,-43 532,-46 562,-7 14,16 21,101 39,437 8,157 17,319 20,360 8,119 -13,141 -121,129 z m 54,-88 c 4,-6 4,-42 0,-79 -4,-37 -15,-193 -24,-347 -20,-353 -19,-350 -55,-365 -29,-12 -241,-1 -404,20 -174,23 -270,32 -415,38 l -156,7 -3,35 c -2,19 1,69 7,110 6,41 13,134 16,205 4,118 11,184 31,328 l 7,47 41,1 c 22,1 106,5 186,9 230,11 761,5 769,-9 z" />
      <path
         inkscape:connector-curvature="0"
         id="path4776"
         d="m 19844,14110 c -164,-35 -227,-60 -222,-92 2,-18 9,-23 33,-22 17,1 45,7 62,15 29,12 35,11 49,-3 15,-15 16,-27 5,-118 -6,-55 -11,-132 -11,-170 0,-59 3,-71 20,-80 11,-6 24,-9 29,-6 7,5 21,183 27,346 l 2,55 38,8 c 99,21 158,37 167,46 5,5 4,17 -2,30 -15,27 -31,26 -197,-9 z" />
      <path
         inkscape:connector-curvature="0"
         id="path4778"
         d="m 19980,13760 c -4,-8 -9,-53 -11,-100 l -4,-85 26,-3 c 24,-3 27,1 40,65 13,62 16,68 39,68 24,0 25,-2 23,-64 -2,-51 1,-66 14,-76 30,-22 41,-6 48,70 8,89 2,111 -35,130 -37,19 -129,16 -140,-5 z" />
      <path
         inkscape:connector-curvature="0"
         id="path4780"
         d="m 12464,13966 c -3,-8 0,-41 6,-73 7,-32 13,-65 15,-72 3,-21 29,-35 50,-27 14,5 16,13 10,39 -4,17 -10,52 -14,77 -4,25 -10,51 -14,58 -11,17 -46,15 -53,-2 z" />
      <path
         inkscape:connector-curvature="0"
         id="path4782"
         d="m 17557,13513 c -53,-59 29,-120 114,-86 41,16 73,60 60,81 -4,7 -25,12 -47,11 -21,0 -55,3 -74,6 -28,5 -39,2 -53,-12 z" />
      <path
         inkscape:connector-curvature="0"
         id="path4784"
         d="m 18115,13500 c -4,-6 -21,-8 -39,-4 -36,6 -66,-14 -66,-45 0,-24 40,-59 79,-71 30,-8 36,-6 62,23 35,38 46,72 29,92 -14,17 -56,20 -65,5 z" />
      <path
         inkscape:connector-curvature="0"
         id="path4786"
         d="m 18529,13477 c -63,-42 -41,-107 37,-107 40,0 64,27 64,71 0,62 -41,77 -101,36 z" />
      <path
         inkscape:connector-curvature="0"
         id="path4788"
         d="m 12660,12900 c -336,-7 -734,-20 -1191,-39 -218,-9 -269,-20 -313,-69 -16,-18 -17,-26 -7,-50 9,-20 9,-52 1,-120 -7,-64 -7,-155 1,-304 6,-117 8,-267 4,-333 -7,-117 -6,-121 17,-142 37,-35 71,-43 227,-53 80,-6 171,-15 201,-20 30,-5 258,-14 505,-20 248,-6 533,-15 635,-19 102,-5 433,-9 737,-10 304,-1 558,-3 565,-6 7,-2 132,-9 278,-15 146,-6 398,-20 560,-30 489,-33 1102,-59 1510,-65 485,-7 801,-15 1665,-45 160,-5 461,-14 670,-20 209,-6 427,-12 485,-15 199,-9 406,-16 940,-30 631,-18 852,-28 1135,-55 116,-10 298,-26 405,-35 107,-9 242,-21 300,-25 378,-32 734,-54 1070,-66 162,-6 189,-5 217,10 45,23 52,40 74,179 21,137 26,418 8,547 -5,41 -10,145 -10,230 1,151 -14,266 -40,324 -13,27 -60,50 -124,60 -22,3 -213,17 -425,31 -212,14 -477,32 -590,40 -263,19 -831,42 -1365,55 -231,6 -541,15 -690,21 -148,5 -362,12 -475,14 -113,3 -394,9 -625,14 -231,6 -1032,12 -1780,15 -1270,4 -1570,8 -2450,37 -416,14 -1642,19 -2125,9 z m 1870,-50 c 1069,-32 1713,-42 2985,-46 1338,-4 1696,-9 2585,-39 239,-8 611,-19 825,-25 518,-13 1010,-35 1340,-60 149,-11 369,-27 490,-35 353,-25 433,-34 464,-50 63,-32 62,-28 87,-733 5,-139 3,-232 -5,-290 -6,-48 -14,-106 -17,-129 -3,-23 -13,-51 -22,-61 -16,-18 -29,-18 -357,-6 -187,7 -410,17 -495,24 -205,14 -718,57 -850,70 -449,44 -659,57 -1170,70 -223,6 -542,15 -710,20 -833,27 -1234,39 -1430,45 -118,3 -339,10 -490,15 -670,23 -911,30 -1300,35 -398,6 -926,28 -1395,60 -121,8 -314,19 -430,25 -115,5 -307,15 -425,21 -118,6 -507,15 -865,20 -754,9 -1667,33 -1684,43 -6,4 -104,13 -218,21 -193,12 -209,15 -225,35 -11,14 -16,32 -13,49 14,76 16,178 6,381 -6,124 -8,278 -5,343 7,116 8,119 33,129 38,15 713,42 1446,58 264,6 489,12 500,14 48,8 1031,5 1345,-4 z" />
      <path
         inkscape:connector-curvature="0"
         id="path4790"
         d="m 13143,12649 c -99,-48 -175,-148 -219,-287 -33,-104 2,-219 89,-299 69,-64 171,-82 252,-44 55,25 130,109 166,184 138,296 -38,568 -288,446 z m 138,-39 c 102,-20 145,-94 137,-239 -4,-67 -11,-98 -32,-139 -58,-115 -148,-180 -231,-168 -69,11 -128,55 -160,120 -38,79 -33,161 18,261 44,88 117,156 177,168 14,2 28,5 31,6 4,0 30,-4 60,-9 z" />
      <path
         inkscape:connector-curvature="0"
         id="path4792"
         d="m 16129,12527 c -125,-43 -179,-98 -179,-183 0,-28 7,-59 15,-71 8,-11 61,-44 117,-71 152,-75 181,-115 103,-147 -45,-20 -115,-19 -165,1 -47,19 -55,15 -46,-20 9,-37 54,-56 133,-56 103,0 164,39 179,116 9,49 -41,98 -156,152 -52,24 -103,51 -112,60 -43,37 -2,111 84,156 46,23 69,28 120,27 35,0 70,4 78,9 13,9 12,13 -9,30 -31,26 -79,25 -162,-3 z" />
      <path
         inkscape:connector-curvature="0"
         id="path4794"
         d="m 14648,12463 c -6,-16 -18,-59 -28,-98 l -17,-69 -41,3 c -37,2 -42,0 -42,-19 0,-11 12,-32 27,-46 25,-23 28,-31 25,-83 -7,-109 46,-170 121,-140 36,15 69,47 64,63 -4,11 -24,12 -69,1 -43,-11 -70,24 -63,82 3,26 7,49 10,51 3,3 35,6 71,8 42,2 73,9 84,19 9,8 23,15 30,15 9,0 7,6 -6,21 -16,18 -26,20 -72,14 -55,-7 -82,4 -82,32 0,8 12,44 26,79 20,52 23,68 14,79 -19,23 -39,18 -52,-12 z" />
      <path
         inkscape:connector-curvature="0"
         id="path4796"
         d="m 14883,12383 c -16,-6 -17,-35 -1,-51 32,-32 72,5 42,39 -18,20 -21,21 -41,12 z" />
      <path
         inkscape:connector-curvature="0"
         id="path4798"
         d="m 16966,12364 c -3,-9 -6,-32 -6,-51 0,-20 -5,-64 -12,-99 -11,-60 -13,-63 -42,-66 -39,-4 -46,-31 -17,-62 17,-18 20,-30 15,-67 -8,-55 15,-114 50,-130 45,-21 130,10 111,41 -3,5 -17,10 -31,10 -14,0 -36,7 -49,16 -20,13 -25,25 -25,61 0,56 12,78 50,91 35,13 39,37 9,61 -20,16 -20,20 -9,100 8,63 8,86 -1,97 -15,19 -35,18 -43,-2 z" />
      <path
         inkscape:connector-curvature="0"
         id="path4800"
         d="m 13607,12341 c -27,-16 -59,-44 -72,-62 -19,-29 -22,-42 -16,-84 3,-27 2,-104 -3,-169 -8,-110 -8,-120 9,-133 28,-19 34,-5 36,73 1,38 4,87 8,108 l 6,38 24,-21 c 34,-30 65,-26 110,14 21,19 43,35 49,35 7,0 18,-13 27,-29 31,-62 85,-84 140,-59 34,15 28,28 -21,45 -21,8 -45,20 -52,27 -12,11 -7,15 24,21 112,21 156,94 95,156 -38,38 -62,37 -110,-6 -47,-43 -60,-44 -67,-5 -17,82 -97,104 -187,51 z m 114,-46 c 24,-22 14,-81 -20,-125 -24,-30 -34,-35 -71,-35 -23,0 -44,4 -47,8 -3,5 -6,31 -8,58 -2,41 1,52 17,60 11,6 28,19 39,30 23,23 66,25 90,4 z m 217,-53 c -2,-9 -15,-23 -30,-32 -22,-12 -30,-12 -40,-2 -11,11 -8,18 15,37 29,26 60,24 55,-3 z" />
      <path
         inkscape:connector-curvature="0"
         id="path4802"
         d="m 14153,12323 c -23,-2 -46,-10 -52,-17 -13,-15 -33,-200 -24,-222 3,-8 15,-14 27,-12 19,3 22,12 29,88 4,48 13,87 20,92 6,4 28,8 48,8 38,0 98,17 114,32 7,6 3,14 -9,24 -19,13 -58,15 -153,7 z" />
      <path
         inkscape:connector-curvature="0"
         id="path4804"
         d="m 14341,12246 c -78,-43 -64,-206 18,-206 15,0 32,5 38,11 9,9 21,6 48,-10 44,-26 56,-26 86,-2 l 24,19 -38,22 c -39,23 -53,54 -43,95 5,21 0,29 -35,55 -46,33 -62,36 -98,16 z m 65,-71 c 4,-8 3,-27 0,-41 -5,-19 -12,-25 -29,-22 -28,4 -48,55 -27,68 23,14 50,12 56,-5 z" />
      <path
         inkscape:connector-curvature="0"
         id="path4806"
         d="m 15400,12250 c -8,-5 -28,-10 -43,-10 -46,0 -106,-80 -107,-141 0,-51 32,-89 75,-89 51,0 58,-18 31,-75 -32,-68 -59,-91 -90,-77 -14,6 -29,26 -36,46 -6,20 -16,36 -21,36 -5,0 -12,0 -16,0 -13,1 -14,-51 -3,-86 23,-68 102,-84 157,-32 95,89 158,439 79,438 -6,0 -18,-5 -26,-10 z m -29,-90 c 19,-11 19,-11 -1,-50 -22,-43 -40,-50 -60,-25 -11,13 -10,22 3,50 18,37 27,41 58,25 z" />
      <path
         inkscape:connector-curvature="0"
         id="path4808"
         d="m 15063,12214 c -17,-23 -23,-25 -41,-15 -11,6 -28,11 -38,11 -14,0 -15,-6 -9,-32 4,-18 10,-53 14,-78 5,-35 10,-45 25,-45 13,0 24,16 41,60 13,35 29,61 38,63 21,4 57,-53 57,-90 0,-39 10,-58 30,-58 24,0 30,18 23,71 -15,115 -93,178 -140,113 z" />
      <path
         inkscape:connector-curvature="0"
         id="path4810"
         d="m 14885,12219 c -2,-8 -6,-50 -7,-94 -3,-76 -2,-80 19,-83 19,-3 22,3 28,40 13,96 11,119 -12,135 -19,13 -24,13 -28,2 z" />
      <path
         inkscape:connector-curvature="0"
         id="path4812"
         d="m 16426,12171 c -10,-11 -24,-37 -32,-58 -31,-89 -7,-133 76,-133 28,0 50,-4 50,-8 0,-21 -75,-123 -104,-141 -51,-32 -72,-27 -108,24 -18,25 -35,45 -40,45 -4,0 -8,-21 -8,-46 0,-84 81,-130 158,-90 44,24 109,98 132,151 29,68 59,222 46,235 -20,20 -37,9 -56,-33 -37,-84 -92,-104 -98,-35 -2,29 2,41 24,61 14,14 23,30 20,36 -11,17 -41,13 -60,-8 z" />
      <path
         inkscape:connector-curvature="0"
         id="path4814"
         d="m 16739,12131 c -64,-36 -79,-50 -76,-71 5,-28 29,-52 74,-72 23,-10 44,-22 47,-27 8,-12 -65,-31 -96,-24 -21,4 -28,1 -28,-10 0,-42 107,-48 159,-10 19,15 26,29 26,54 0,31 -5,37 -52,62 -29,16 -53,32 -53,37 0,5 22,19 50,31 43,19 48,24 39,40 -13,25 -34,23 -90,-10 z" />
      <path
         inkscape:connector-curvature="0"
         id="path4816"
         d="m 17189,12115 c -56,-18 -78,-41 -90,-94 -19,-85 58,-165 138,-145 54,13 56,40 4,54 -38,10 -83,42 -65,46 47,10 122,39 137,51 23,21 22,37 -5,67 -30,33 -62,38 -119,21 z" />
      <path
         inkscape:connector-curvature="0"
         id="path4818"
         d="m 17496,12113 c -3,-4 -25,-9 -49,-12 -40,-6 -42,-8 -48,-46 -4,-22 -11,-62 -17,-90 -12,-56 -9,-65 19,-65 14,0 25,12 35,38 45,112 45,113 68,98 18,-11 21,-24 21,-77 0,-62 1,-64 27,-67 17,-2 33,4 45,17 19,20 20,23 66,84 52,70 92,36 104,-88 6,-67 21,-92 49,-81 14,5 15,17 9,79 -13,138 -41,197 -93,197 -30,0 -89,-35 -102,-61 -15,-27 -28,-24 -49,14 -34,57 -65,79 -85,60 z" />
      <path
         inkscape:connector-curvature="0"
         id="path4822"
         d="m 12475,11241 -200,-16 -32,-32 c -29,-27 -33,-37 -33,-85 0,-29 -4,-80 -9,-113 -29,-192 -35,-286 -22,-378 8,-61 18,-97 29,-108 18,-17 140,-24 817,-49 279,-11 459,-21 760,-44 105,-8 267,-20 360,-26 94,-6 222,-15 287,-21 64,-5 187,-12 275,-15 155,-6 158,-6 182,17 23,22 24,24 16,148 -4,69 -9,212 -11,316 -3,187 -14,286 -34,310 -13,16 -139,31 -408,51 -118,8 -235,19 -260,23 -26,5 -178,10 -338,10 -159,1 -391,8 -515,16 -278,19 -602,17 -864,-4 z m 810,-51 c 55,-6 244,-12 420,-16 176,-3 352,-10 390,-15 39,-6 99,-15 135,-20 36,-5 171,-16 301,-23 130,-8 245,-18 255,-24 13,-7 24,-30 32,-71 11,-52 31,-416 32,-569 v -54 l -107,7 c -60,3 -162,10 -228,16 -66,5 -221,16 -345,24 -124,8 -385,25 -580,39 -362,25 -781,45 -1130,53 -107,3 -200,9 -206,14 -27,22 -21,285 12,469 2,14 7,56 10,93 7,67 8,69 33,64 25,-5 176,4 376,23 103,10 451,4 600,-10 z" />
      <path
         inkscape:connector-curvature="0"
         id="path4824"
         d="m 12760,11041 c -101,-63 -170,-174 -170,-272 0,-71 27,-115 92,-147 40,-20 54,-22 105,-15 48,7 58,11 58,28 0,16 -10,22 -45,28 -25,5 -55,10 -67,13 -74,14 -104,105 -62,189 30,60 97,121 148,135 46,12 56,41 22,60 -27,14 -30,13 -81,-19 z" />
      <path
         inkscape:connector-curvature="0"
         id="path4826"
         d="m 14172,10914 c -47,-56 -93,-158 -99,-217 -13,-127 82,-188 220,-141 122,42 186,200 124,308 -29,52 -67,72 -148,81 l -66,6 z m 119,-39 c 84,-43 110,-115 70,-193 -19,-37 -38,-51 -95,-72 -59,-21 -136,30 -136,90 0,37 86,200 106,200 3,0 27,-11 55,-25 z" />
      <path
         inkscape:connector-curvature="0"
         id="path4828"
         d="m 13045,10857 c -82,-19 -129,-48 -155,-96 -15,-29 -15,-92 -1,-119 14,-26 58,-49 86,-46 31,3 89,31 106,51 22,26 49,98 49,133 0,34 -18,77 -34,82 -6,2 -29,0 -51,-5 z m -15,-82 c 43,-22 42,-68 -1,-94 -71,-43 -120,20 -63,80 33,34 27,33 64,14 z" />
      <path
         inkscape:connector-curvature="0"
         id="path4830"
         d="m 13244,10810 c -41,-19 -41,-20 -58,-102 -15,-77 -15,-84 0,-95 27,-20 51,1 64,59 18,75 27,88 58,88 42,0 70,24 56,47 -15,25 -70,26 -120,3 z" />
      <path
         inkscape:connector-curvature="0"
         id="path4832"
         d="m 13475,10813 c -40,-20 -93,-71 -111,-105 -53,-101 60,-190 185,-147 52,18 35,42 -39,53 -59,9 -92,31 -88,59 3,20 11,23 75,28 80,6 103,19 103,58 0,32 -8,44 -37,60 -29,15 -52,13 -88,-6 z" />
      <path
         inkscape:connector-curvature="0"
         id="path4834"
         d="m 17835,11028 c -3,-7 -9,-53 -14,-101 -6,-48 -13,-92 -17,-98 -3,-6 -10,-88 -15,-182 -21,-390 -25,-428 -38,-437 -8,-4 -11,-15 -8,-22 6,-16 47,-21 337,-38 249,-15 716,-48 915,-65 455,-40 1335,-63 1653,-43 l 192,12 v 120 c 0,67 -5,148 -10,181 -6,33 -11,170 -11,305 0,135 -3,255 -6,268 l -5,22 h -457 c -480,0 -943,18 -1611,64 -393,27 -897,35 -905,14 z m 648,-48 c 839,-58 1192,-73 1922,-85 229,-4 324,-9 337,-18 17,-11 19,-34 23,-252 2,-132 8,-303 14,-380 5,-76 9,-140 8,-142 -2,-1 -75,-6 -162,-11 -281,-17 -1153,5 -1540,38 -337,28 -754,59 -1089,80 -87,5 -164,14 -170,19 -8,6 -9,43 -5,118 13,230 30,421 45,500 8,45 14,85 13,90 -6,37 1,42 69,46 152,8 402,6 535,-3 z" />
      <path
         inkscape:connector-curvature="0"
         id="path4836"
         d="m 18235,10807 c -62,-36 -129,-102 -161,-160 -23,-43 -29,-64 -29,-119 0,-76 19,-111 76,-140 63,-33 198,-18 168,18 -6,8 -23,14 -38,14 -159,0 -199,150 -73,272 53,52 99,78 137,78 29,0 28,0 15,34 -12,33 -41,34 -95,3 z" />
      <path
         inkscape:connector-curvature="0"
         id="path4838"
         d="m 19777,10696 c -3,-8 -7,-61 -8,-118 0,-57 -5,-145 -11,-197 -8,-87 -8,-96 10,-114 11,-11 24,-17 29,-14 12,7 26,189 27,342 1,105 0,110 -20,113 -12,2 -24,-4 -27,-12 z" />
      <path
         inkscape:connector-curvature="0"
         id="path4840"
         d="m 18402,10563 c -68,-45 -93,-130 -55,-194 33,-55 108,-52 174,8 86,78 101,183 25,183 -12,0 -31,7 -42,15 -28,21 -55,18 -102,-12 z m 110,-62 33,-30 -35,-36 c -43,-44 -74,-54 -100,-30 -30,27 -25,69 11,99 39,33 51,33 91,-3 z" />
      <path
         inkscape:connector-curvature="0"
         id="path4842"
         d="m 18695,10545 c -39,-23 -41,-28 -53,-97 -11,-62 -10,-74 2,-87 32,-31 78,20 81,89 0,8 4,25 8,38 7,19 13,21 47,16 32,-5 40,-3 49,14 9,17 7,23 -11,36 -32,23 -77,19 -123,-9 z" />
      <path
         inkscape:connector-curvature="0"
         id="path4844"
         d="m 18983,10546 c -94,-30 -133,-74 -133,-152 0,-53 68,-97 140,-92 62,4 61,24 -3,52 -31,13 -60,34 -67,45 -13,25 -8,28 65,34 28,2 64,10 80,18 25,12 29,20 27,44 -3,30 -34,66 -56,64 -6,0 -30,-6 -53,-13 z" />
    </g>
  </g>
</svg>
