<?xml version="1.0" encoding="UTF-8" standalone="no"?>
<!-- Created with Inkscape (http://www.inkscape.org/) -->

<svg
   xmlns:dc="http://purl.org/dc/elements/1.1/"
   xmlns:cc="http://creativecommons.org/ns#"
   xmlns:rdf="http://www.w3.org/1999/02/22-rdf-syntax-ns#"
   xmlns:svg="http://www.w3.org/2000/svg"
   xmlns="http://www.w3.org/2000/svg"
   xmlns:sodipodi="http://sodipodi.sourceforge.net/DTD/sodipodi-0.dtd"
   xmlns:inkscape="http://www.inkscape.org/namespaces/inkscape"
   width="361.35529mm"
   height="161.17787mm"
   viewBox="0 0 361.35529 161.17787"
   version="1.1"
   id="svg5484"
   inkscape:version="0.92.5 (2060ec1f9f, 2020-04-08)"
   sodipodi:docname="ticks_1.svg">
  <defs
     id="defs5478" />
  <sodipodi:namedview
     id="base"
     pagecolor="#ffffff"
     bordercolor="#666666"
     borderopacity="1.0"
     inkscape:pageopacity="0.0"
     inkscape:pageshadow="2"
     inkscape:zoom="0.35"
     inkscape:cx="392.56149"
     inkscape:cy="152.82129"
     inkscape:document-units="mm"
     inkscape:current-layer="g6399"
     showgrid="false"
     fit-margin-top="0"
     fit-margin-left="0"
     fit-margin-right="0"
     fit-margin-bottom="0"
     inkscape:window-width="1920"
     inkscape:window-height="1080"
     inkscape:window-x="1920"
     inkscape:window-y="0"
     inkscape:window-maximized="0" />
  <metadata
     id="metadata5481">
    <rdf:RDF>
      <cc:Work
         rdf:about="">
        <dc:format>image/svg+xml</dc:format>
        <dc:type
           rdf:resource="http://purl.org/dc/dcmitype/StillImage" />
        <dc:title></dc:title>
      </cc:Work>
    </rdf:RDF>
  </metadata>
  <g
     inkscape:label="Layer 1"
     inkscape:groupmode="layer"
     id="layer1"
     transform="translate(-148.16164,1.3032234)">
    <g
       id="g6399"
       transform="matrix(0.5,0,0,0.5,164.41964,39.642858)">
      <path
         id="path4435"
         d="m 366.02156,-309.41422 c -0.81138,0.24695 -11.39472,5.3975 -13.40555,6.52639 -1.02306,0.56445 -1.12889,1.16417 -0.3175,1.69334 0.45861,0.28222 1.12889,0.14111 2.75167,-0.56445 1.16416,-0.49389 2.2225,-0.77611 2.32833,-0.59972 0.10583,0.17639 0.35278,2.18722 0.56444,4.48028 0.70556,8.50194 1.44639,11.57111 2.71639,11.32416 0.74084,-0.14111 0.74084,-0.24694 -0.38805,-9.45444 -0.49389,-3.98639 -0.81139,-7.33778 -0.70556,-7.47889 0.0706,-0.14111 1.19945,-0.84667 2.50472,-1.5875 3.45723,-1.905 5.36223,-3.24555 5.36223,-3.81 0,-0.67028 -0.38806,-0.81139 -1.41112,-0.52917 z"
         inkscape:connector-curvature="0"
         style="stroke-width:0.03527778" />
      <path
         id="path4437"
         d="m 382.0024,-304.58116 c -1.72861,4.09222 -0.45861,15.875 1.76389,16.26306 0.74083,0.14111 0.77611,-0.635 0.17639,-2.92806 -0.49389,-1.86972 -0.21167,-2.32833 0.88194,-1.30528 1.05833,0.98778 5.50333,3.31611 5.92667,3.03389 1.12888,-0.70555 -0.35278,-2.39889 -3.45723,-3.98639 -0.84666,-0.42333 -1.51694,-0.88194 -1.51694,-1.02305 0,-0.17639 0.42333,-0.67028 0.91722,-1.16417 1.65806,-1.55222 2.29306,-3.4925 1.12889,-3.4925 -0.21167,0 -0.98778,0.70556 -1.76389,1.5875 -1.55222,1.76389 -2.64583,2.04611 -2.82222,0.77611 -0.10583,-0.67028 0.21167,-5.43278 0.49389,-8.00805 0.0705,-0.59973 -0.10583,-0.88195 -0.52917,-0.98778 -0.42333,-0.0706 -0.77611,0.24694 -1.19944,1.23472 z"
         inkscape:connector-curvature="0"
         style="stroke-width:0.03527778" />
      <path
         id="path4439"
         d="m 483.21434,-303.34644 c -3.38667,2.01084 -3.66889,2.08139 -4.26861,1.55222 -0.88195,-0.77611 -1.41111,-0.70555 -1.79917,0.28223 -0.24694,0.70555 -0.59972,0.88194 -1.79917,0.98777 -1.72861,0.10584 -2.50472,0.9525 -1.76388,1.83445 0.3175,0.38805 1.05833,0.56444 2.36361,0.56444 1.65805,0 1.905,0.10584 2.08139,0.77611 1.76388,8.18445 3.24555,12.80584 4.05694,12.80584 0.88194,0 0.77611,-1.27 -0.49389,-6.20889 -0.67028,-2.61056 -1.30528,-5.46806 -1.44639,-6.35 l -0.24694,-1.62278 2.32833,-1.30528 c 2.8575,-1.5875 5.15056,-3.70416 5.15056,-4.72722 0,-0.42333 -0.10584,-0.77611 -0.24695,-0.74083 -0.17639,0 -1.905,0.9525 -3.91583,2.15194 z"
         inkscape:connector-curvature="0"
         style="stroke-width:0.03527778" />
      <path
         id="path4443"
         d="m 604.14656,-300.20672 c -2.82223,1.69334 -6.35,3.77473 -7.83167,4.55084 -1.94027,0.98778 -2.75166,1.62278 -2.75166,2.08139 0,0.35277 0.24693,0.74083 0.52916,0.84666 0.56444,0.24695 3.59834,-0.70555 3.91584,-1.19944 0.10583,-0.17639 0.42333,-0.3175 0.70556,-0.3175 0.38804,0 0.49387,0.59972 0.49387,2.96333 0,3.35139 0.70557,7.9375 1.69333,10.795 0.4939,1.44639 0.84667,1.97556 1.41113,2.04611 1.02304,0.14111 1.02304,-0.81139 0.0353,-4.40972 -0.56443,-2.08139 -0.74083,-3.81 -0.8114,-7.83167 l -0.0353,-5.15055 4.40973,-2.99861 c 3.1397,-2.15195 4.445,-3.21028 4.51553,-3.81 0.21167,-1.30528 -0.84666,-0.91722 -6.27943,2.43416 z"
         inkscape:connector-curvature="0"
         style="stroke-width:0.03527778" />
      <path
         id="path4445"
         d="m 503.74599,-301.86477 c -0.35276,0.88194 0.42334,13.79361 0.88197,14.64028 0.635,1.16416 1.27,0.74083 1.37583,-0.9525 0.10583,-1.62278 0.49387,-1.83445 1.2347,-0.81139 1.05834,1.55222 5.15057,3.13972 5.96197,2.29305 0.56443,-0.52916 -0.28223,-1.48166 -1.83447,-2.04611 -0.9172,-0.35278 -2.32833,-1.16416 -3.06916,-1.83444 l -1.34054,-1.19945 1.05833,-0.77611 c 3.21027,-2.43416 4.37444,-4.05694 3.38667,-4.65666 -0.3175,-0.21167 -4.33917,2.57527 -4.7978,3.28083 -0.52916,0.88194 -0.81137,-0.14111 -0.84666,-3.31611 -0.0353,-1.86972 -0.21167,-3.77472 -0.38804,-4.26861 -0.3528,-0.91723 -1.3053,-1.12889 -1.6228,-0.35278 z"
         inkscape:connector-curvature="0"
         style="stroke-width:0.03527778" />
      <path
         id="path4447"
         d="m 749.84379,-299.99505 c -3.28083,1.62278 -4.1628,1.905 -8.1139,2.61056 -1.05833,0.21166 -2.29306,0.45861 -2.7164,0.52916 -0.5997,0.10584 -0.81137,0.38806 -0.81137,1.02306 0,0.84667 0.0705,0.88194 2.46944,0.88194 h 2.46943 v 2.01084 c 0,3.28083 0.70557,10.26583 1.16417,11.67694 0.28223,0.91722 0.6703,1.34056 1.23473,1.41111 0.70557,0.10584 0.7761,-0.0353 0.7761,-1.27 0,-0.77611 -0.1411,-2.15194 -0.3175,-3.10444 -0.17637,-0.9525 -0.38803,-3.84528 -0.4586,-6.45584 -0.0706,-3.91583 0,-4.7625 0.42334,-4.97416 0.28223,-0.14111 1.86973,-0.91722 3.52776,-1.72861 3.3514,-1.62278 4.4803,-2.43417 4.65667,-3.42195 0.1764,-1.09361 -0.7761,-0.91722 -4.30387,0.81139 z"
         inkscape:connector-curvature="0"
         style="stroke-width:0.03527778" />
      <path
         id="path4453"
         d="m 366.79768,-299.21894 c -0.70556,0.42334 -0.35278,1.62278 0.45861,1.62278 0.49389,0 0.70555,-0.24694 0.70555,-0.84667 0,-0.9525 -0.45861,-1.23472 -1.16416,-0.77611 z"
         inkscape:connector-curvature="0"
         style="stroke-width:0.03527778" />
      <path
         id="path4455"
         d="m 629.33489,-297.5256 c -0.88193,1.905 -0.91723,2.29305 -0.74083,5.92666 0.24693,4.7625 1.97556,10.75972 3.10443,10.75972 0.8114,0 1.23474,-1.41111 0.70557,-2.39888 -0.4586,-0.84667 -0.52917,-2.54 -0.10583,-2.54 0.1411,0 1.34056,0.56444 2.64583,1.27 1.83443,0.9525 2.6811,1.19944 3.84527,1.12888 1.27,-0.0706 1.55223,-0.24694 1.62279,-0.91722 0.0705,-0.56444 -0.0706,-0.77611 -0.52916,-0.81139 -0.9525,-0.0353 -6.2089,-2.25777 -6.35,-2.68111 -0.0706,-0.17639 0.74083,-1.19944 1.76387,-2.25778 2.18723,-2.18722 2.82223,-3.4925 1.72863,-3.4925 -0.74084,0 -4.1275,3.06917 -5.08,4.58612 -0.3175,0.49388 -0.70557,0.74083 -0.84667,0.59972 -0.3528,-0.3175 -0.42333,-7.3025 -0.14113,-9.56028 0.28223,-2.18722 -0.56443,-2.01083 -1.62277,0.38806 z"
         inkscape:connector-curvature="0"
         style="stroke-width:0.03527778" />
      <path
         id="path4457"
         d="m 768.99962,-298.97199 c -0.10583,0.3175 -0.10583,1.86972 0.0353,3.42194 0.1411,1.5875 0.38807,5.04472 0.56444,7.65528 0.35279,5.67972 0.91723,7.58472 2.15196,7.58472 0.9172,0 0.98777,-0.3175 0.49387,-3.28083 -0.2822,-1.55222 0.0706,-1.94028 0.91723,-0.91722 0.24694,0.3175 1.37584,1.02305 2.54,1.5875 1.69334,0.88194 2.3989,1.02305 4.05694,0.9525 1.55223,-0.0706 2.04613,-0.24695 2.11666,-0.70556 0.0706,-0.42333 -0.38803,-0.70556 -1.94026,-1.12889 -2.36361,-0.635 -6.45584,-2.68111 -6.45584,-3.21028 0,-0.21166 0.70557,-0.81139 1.5875,-1.34055 2.6811,-1.69334 4.445,-4.33917 3.3514,-5.00945 -0.1764,-0.10583 -1.09363,0.49389 -2.01083,1.34056 -1.905,1.72861 -3.73947,3.06917 -4.26863,3.06917 -0.17637,0 -0.52917,-2.18723 -0.7761,-4.86834 -0.24694,-2.64583 -0.59974,-5.04472 -0.77611,-5.29166 -0.49389,-0.59973 -1.30529,-0.52917 -1.5875,0.14111 z"
         inkscape:connector-curvature="0"
         style="stroke-width:0.03527778" />
      <path
         id="path4459"
         d="m 488.78823,-296.22033 c 0,0.9525 0.77611,1.41111 1.37583,0.81139 0.74083,-0.74083 0.45861,-1.65805 -0.49389,-1.65805 -0.70555,0 -0.88194,0.17639 -0.88194,0.84666 z"
         inkscape:connector-curvature="0"
         style="stroke-width:0.03527778" />
      <path
         id="path4461"
         d="m 373.39462,-295.83227 c -2.04611,1.12889 -2.68111,4.93889 -1.16417,6.985 0.84667,1.16417 2.50473,1.83444 3.175,1.27 0.56445,-0.45861 0.635,-1.37583 0.14111,-1.37583 -0.77611,0 -2.11666,-1.76389 -2.11666,-2.71639 0,-1.55223 0.91722,-2.54 2.50472,-2.78695 1.16417,-0.21166 1.41111,-0.35278 1.30528,-0.98778 -0.0706,-0.59972 -0.38806,-0.74083 -1.51695,-0.81138 -0.77611,-0.0705 -1.83444,0.14111 -2.32833,0.42333 z"
         inkscape:connector-curvature="0"
         style="stroke-width:0.03527778" />
      <path
         id="path4463"
         d="m 367.04462,-295.09144 c -0.35278,0.42334 -0.45861,1.41111 -0.38806,3.45722 0.10584,3.06917 0.42334,3.77473 1.30528,3.03389 0.45861,-0.35277 0.52917,-1.09361 0.45861,-3.63361 -0.10583,-3.28083 -0.45861,-3.98639 -1.37583,-2.8575 z"
         inkscape:connector-curvature="0"
         style="stroke-width:0.03527778" />
      <path
         id="path4465"
         d="m 752.70129,-294.80922 c -0.635,0.77612 0.10583,1.97556 1.02304,1.72862 0.84666,-0.21167 0.9525,-1.69334 0.14113,-2.01084 -0.74084,-0.28222 -0.70557,-0.28222 -1.16417,0.28222 z"
         inkscape:connector-curvature="0"
         style="stroke-width:0.03527778" />
      <path
         id="path4467"
         d="m 495.77323,-292.93949 c -2.08139,2.18722 -2.11667,5.78555 -0.0353,8.21972 0.74083,0.91722 1.12888,1.09361 2.18721,0.98778 1.02307,-0.0706 1.3053,-0.28223 1.37583,-0.91723 0.10584,-0.56444 -0.0705,-0.77611 -0.5997,-0.77611 -1.09363,0 -2.15195,-1.62277 -2.15195,-3.31611 0.0353,-1.62278 0.74082,-3.21028 1.48165,-3.21028 0.24697,0 0.45863,-0.38805 0.45863,-0.88194 0,-1.30528 -1.51696,-1.37583 -2.71639,-0.10583 z"
         inkscape:connector-curvature="0"
         style="stroke-width:0.03527778" />
      <path
         id="path4469"
         d="m 609.47349,-292.90422 c -0.42333,0.81139 0.0353,1.5875 0.88197,1.41112 0.42333,-0.0706 0.70553,-0.45862 0.7761,-1.09362 0.10583,-0.77611 -0.0353,-0.9525 -0.59973,-0.9525 -0.38804,0 -0.88194,0.28223 -1.05834,0.635 z"
         inkscape:connector-curvature="0"
         style="stroke-width:0.03527778" />
      <path
         id="path4471"
         d="m 489.81128,-292.26922 c -0.35277,0.42334 -0.49389,1.5875 -0.49389,3.98639 0,2.89278 0.0706,3.38667 0.59973,3.4925 0.77611,0.14111 1.27,-1.65805 1.41111,-5.22111 0.0706,-2.18722 0,-2.64583 -0.45861,-2.75166 -0.3175,-0.0353 -0.77611,0.17638 -1.05834,0.49388 z"
         inkscape:connector-curvature="0"
         style="stroke-width:0.03527778" />
      <path
         id="path4475"
         d="m 618.64573,-289.34116 c -3.52777,4.97417 -2.46944,10.26583 2.0461,10.26583 0.98779,0 2.15196,-0.91722 2.15196,-1.69333 0,-0.28222 -0.59973,-0.42333 -1.5875,-0.42333 -1.48167,0 -1.65806,-0.10584 -2.18723,-1.23473 -0.4939,-1.02305 -0.52917,-1.41111 -0.1411,-2.68111 0.42333,-1.44639 1.65803,-2.92805 3.03387,-3.70416 1.1289,-0.635 0.42333,-1.55223 -1.19944,-1.55223 -1.1289,0 -1.51693,0.17639 -2.11666,1.02306 z"
         inkscape:connector-curvature="0"
         style="stroke-width:0.03527778" />
      <path
         id="path4477"
         d="m 761.83823,-290.08199 c -1.19944,0.17639 -2.29307,1.27 -3.13974,3.10444 -1.30526,2.75167 -0.67026,5.96195 1.41113,7.02028 0.98777,0.52917 1.16417,0.52917 2.64584,-0.17639 1.05833,-0.52917 1.5522,-0.98778 1.5522,-1.48167 0,-0.635 -0.1411,-0.70555 -1.5522,-0.49389 -1.34057,0.21167 -1.6228,0.14112 -1.9403,-0.45861 -0.88193,-1.62277 -0.24693,-3.98639 1.51696,-5.64444 1.41111,-1.34056 1.19944,-2.15195 -0.49389,-1.86972 z"
         inkscape:connector-curvature="0"
         style="stroke-width:0.03527778" />
      <path
         id="path4479"
         d="m 753.79489,-288.98838 c -0.42333,0.24694 -1.1289,3.4925 -1.1289,5.15055 0,1.05834 0.10584,1.23473 0.88197,1.23473 0.9525,0 1.4111,-1.12889 1.79916,-4.445 0.21167,-1.5875 0.14111,-1.83445 -0.49389,-1.97556 -0.38807,-0.10583 -0.84667,-0.10583 -1.05834,0.0353 z"
         inkscape:connector-curvature="0"
         style="stroke-width:0.03527778" />
      <path
         id="path4481"
         d="m 610.49656,-287.93005 c -0.1764,0.38806 -0.35277,2.25778 -0.35277,4.16278 0,3.70417 0.42333,5.00944 1.5522,4.58611 0.4939,-0.17639 0.56447,-0.88194 0.56447,-4.83306 0,-4.33916 -0.0353,-4.58611 -0.70557,-4.58611 -0.35277,0 -0.84666,0.3175 -1.05833,0.67028 z"
         inkscape:connector-curvature="0"
         style="stroke-width:0.03527778" />
      <path
         id="path4483"
         d="m 684.50933,-45.33989 c 0.21167,0.07055 0.635,0.07055 0.88194,0 0.21166,-0.105833 0.0353,-0.17639 -0.45861,-0.17639 -0.49389,0 -0.67026,0.07056 -0.42333,0.17639 z"
         inkscape:connector-curvature="0"
         style="stroke-width:0.03527778" />
      <g
         id="g6561"
         transform="translate(-252.4881,269.11905)">
        <path
           style="stroke-width:0.03527778"
           inkscape:connector-curvature="0"
           d="m 264.90538,-318.76283 c -0.49389,0.28223 -3.91584,2.61056 -7.58472,5.18584 -3.63362,2.54 -7.26723,5.08 -8.07862,5.64444 -1.83444,1.23472 -2.39888,1.905 -2.11666,2.57528 0.42333,1.16417 2.29305,0.42333 6.06778,-2.50472 2.32833,-1.76389 2.82222,-1.97556 2.82222,-1.27 0.0706,1.12889 1.5875,9.06639 2.04611,10.68916 1.02305,3.38667 3.70417,7.72584 4.79778,7.72584 1.02305,0 0.88194,-0.56445 -1.02306,-4.62139 -1.27,-2.64584 -1.94028,-4.72722 -2.50472,-7.51417 -0.42333,-2.11667 -0.98778,-4.58611 -1.27,-5.46805 -0.28222,-0.88195 -0.49389,-1.79917 -0.49389,-2.01084 0,-0.21166 1.48167,-1.51694 3.28083,-2.92805 4.445,-3.42195 5.89139,-4.7625 5.89139,-5.46806 0,-0.70555 -0.56444,-0.70555 -1.83444,-0.0353 z"
           id="path4431" />
        <path
           style="stroke-width:0.03527778"
           inkscape:connector-curvature="0"
           d="m 281.30954,-311.35449 c -0.10583,0.3175 -0.10583,1.16416 0.0353,1.86972 0.10584,0.70555 0.52917,3.35139 0.91722,5.89139 0.70556,4.72722 1.02306,6.0325 1.76389,7.65528 0.91723,1.94027 1.94028,0.91722 1.55223,-1.51695 -0.21167,-1.27 0.21166,-1.905 0.70555,-1.05833 0.3175,0.49389 4.51556,1.51694 5.67972,1.37583 0.84667,-0.0706 1.05834,-0.28222 1.05834,-0.9525 0,-0.74083 -0.35278,-0.91722 -3.31611,-1.79917 -1.79917,-0.52916 -3.42195,-1.19944 -3.59834,-1.44638 -0.14111,-0.28223 0.0353,-0.84667 0.45861,-1.48167 0.9525,-1.30528 1.05834,-3.52778 0.21167,-3.70417 -0.45861,-0.0706 -0.77611,0.28222 -1.19944,1.34056 -0.3175,0.77611 -0.77612,1.37583 -0.98778,1.30528 -0.21167,-0.0705 -0.56445,-1.48167 -0.81139,-3.10445 -0.24695,-1.65805 -0.59972,-3.42194 -0.77611,-3.95111 -0.38806,-1.05833 -1.34056,-1.27 -1.69334,-0.42333 z"
           id="path4433" />
        <path
           style="stroke-width:0.03527778"
           inkscape:connector-curvature="0"
           d="m 266.98677,-303.17005 c -0.14111,0.10583 -0.24695,0.52917 -0.24695,0.88195 0,0.45861 0.24695,0.635 0.88195,0.635 0.70555,0 0.88194,-0.17639 0.88194,-0.88195 0,-0.635 -0.17639,-0.88194 -0.635,-0.88194 -0.35278,0 -0.77611,0.10583 -0.88194,0.24694 z"
           id="path4441" />
        <path
           style="stroke-width:0.03527778"
           inkscape:connector-curvature="0"
           d="m 274.57149,-300.48894 c -0.81139,0.9525 -1.48167,3.06917 -1.48167,4.62139 0,1.30528 0.21167,1.79917 1.19945,2.82222 1.02305,1.09361 1.41111,1.27 2.82222,1.27 1.69333,0 3.03389,-0.84666 3.03389,-1.905 0,-0.42333 -0.38806,-0.45861 -1.905,-0.3175 -1.69334,0.17639 -1.94028,0.10584 -2.46945,-0.635 -0.98777,-1.41111 -0.42333,-4.30389 0.88195,-4.65666 0.45861,-0.14111 0.67028,-0.42334 0.59972,-0.84667 -0.14111,-0.81139 -2.11667,-1.05833 -2.68111,-0.35278 z"
           id="path4449" />
        <path
           style="stroke-width:0.03527778"
           inkscape:connector-curvature="0"
           d="m 267.51593,-300.17144 c -0.59972,0.59972 -0.49389,3.70417 0.21167,5.53861 0.70556,1.79917 1.5875,2.54 2.25778,1.86973 0.3175,-0.3175 0.28222,-0.81139 -0.21167,-2.18723 -0.35278,-0.98777 -0.74083,-2.61055 -0.88194,-3.59833 -0.21167,-1.86972 -0.635,-2.36361 -1.37584,-1.62278 z"
           id="path4451" />
        <path
           style="stroke-width:0.03527778"
           inkscape:connector-curvature="0"
           d="m 286.10732,-280.27477 c -0.84666,1.02305 -1.09361,6.985 -0.49389,11.57111 0.3175,2.36361 0.70556,7.19667 0.84667,10.75972 0.24694,6.45583 -0.0353,25.25889 -0.49389,32.66722 -0.21167,3.21028 -0.14111,3.98639 0.28222,4.58611 0.45861,0.56445 0.67028,0.635 1.19945,0.3175 0.56444,-0.35277 0.67028,-1.16416 0.91722,-5.99722 0.49389,-9.73666 0.42333,-35.52472 -0.14111,-39.12305 -0.24695,-1.76389 -0.49389,-5.64445 -0.52917,-8.64306 -0.0353,-2.99861 -0.10583,-5.64444 -0.10583,-5.85611 -0.0353,-0.67028 -1.02306,-0.84667 -1.48167,-0.28222 z"
           id="path4485" />
      </g>
      <path
         id="path4487"
         d="m 369.51406,-278.51088 c -0.28222,0.35278 -0.52916,2.18722 -0.635,5.53861 -0.21166,4.97417 -0.10583,7.58472 0.635,17.18028 0.59973,8.11388 1.09362,20.17888 1.09362,27.6225 0,7.23194 0.14111,7.86694 1.65805,7.58472 0.56445,-0.10584 0.59972,-0.74084 0.52917,-8.21972 -0.10584,-10.19528 -0.67028,-23.35389 -1.34056,-30.69167 -0.52916,-6.10306 -0.59972,-12.66472 -0.17639,-16.47472 0.24695,-2.36361 0.0353,-3.10445 -0.88194,-3.10445 -0.21167,0 -0.59972,0.24695 -0.88195,0.56445 z"
         inkscape:connector-curvature="0"
         style="stroke-width:0.03527778" />
      <path
         id="path4489"
         d="m 494.15045,-276.14727 c -0.635,0.74083 -0.74083,2.57528 -1.12889,16.8275 -0.45861,18.02694 -0.59972,39.12305 -0.24694,40.11083 0.3175,0.84667 1.44639,1.09361 1.83444,0.45861 0.14111,-0.21167 0.21167,-6.13833 0.17639,-13.19389 0,-7.05555 0.24694,-19.75555 0.56444,-28.22222 0.3175,-8.46666 0.45862,-15.62805 0.35278,-15.91028 -0.24694,-0.635 -1.05833,-0.67027 -1.55222,-0.0705 z"
         inkscape:connector-curvature="0"
         style="stroke-width:0.03527778" />
      <path
         id="path4491"
         d="m 613.38933,-273.88949 c -1.12887,1.02305 -1.76387,9.13694 -2.01084,25.57638 -0.21166,13.47612 -0.42333,19.3675 -1.2347,30.23306 -0.28223,4.16278 -0.28223,5.18583 0.10583,5.57389 0.635,0.635 1.62277,0.21166 1.79917,-0.74084 0.56444,-2.82222 1.51694,-23.95361 1.79917,-38.94666 0.10583,-6.27945 0.35277,-12.73528 0.56443,-14.2875 0.7761,-6.52639 0.7761,-7.12611 0.24694,-7.58472 -0.4586,-0.35278 -0.67027,-0.3175 -1.27,0.17639 z"
         inkscape:connector-curvature="0"
         style="stroke-width:0.03527778" />
      <path
         id="path4493"
         d="m 761.30906,-273.0781 c -0.56444,0.635 -0.59973,1.30527 -0.38807,8.71361 0.10584,4.40972 0.3175,11.53583 0.45863,15.80444 0.10584,4.26861 0.0353,12.34722 -0.21166,17.99167 -0.3175,8.11388 -0.3175,11.32416 0.0353,15.52222 l 0.4586,5.29166 0.9525,0.10584 c 1.37583,0.17639 1.51696,-0.74084 1.02306,-7.62 -0.3175,-4.48028 -0.3175,-7.9375 0,-14.35806 0.28223,-5.75027 0.3175,-12.17083 0.10584,-19.93194 -0.14111,-6.31472 -0.24694,-13.6525 -0.1764,-16.33361 0.0706,-4.86833 -0.1411,-5.89139 -1.19944,-5.89139 -0.21166,0 -0.70556,0.3175 -1.05833,0.70556 z"
         inkscape:connector-curvature="0"
         style="stroke-width:0.03527778" />
      <g
         id="g6494"
         transform="translate(18.142857,39.309524)">
        <path
           style="stroke-width:0.03527778"
           inkscape:connector-curvature="0"
           d="m -31.417877,79.860938 c -0.352777,0.52917 -0.564444,2.01084 -0.670277,4.445 -0.564445,16.686392 -0.564445,18.238612 -0.03528,24.623892 0.740833,8.50194 1.340555,32.17333 1.058333,40.74583 l -0.211667,6.70278 1.164167,1.12889 c 1.940278,1.79916 2.822222,1.905 22.0133329,2.96333 7.65527795,0.42333 17.356666,1.37583 24.8708321,2.43417 2.610557,0.38805 7.655277,0.84666 11.183057,1.05833 3.563053,0.17639 6.80861,0.42333 7.231943,0.52917 1.41111,0.35278 2.04611,-0.52917 2.645834,-3.52778 0.670276,-3.59833 1.058333,-19.79083 0.740833,-30.33889 -0.388057,-13.58194 -0.45861,-28.99833 -0.14111,-38.100002 0.352777,-10.72444 0.740833,-9.94833 -5.150557,-10.65388 -3.210277,-0.38806 -4.1275,-0.635 -4.797777,-1.27 l -0.846666,-0.77612 -27.02277715,-0.0705 C -14.272877,79.719858 -27.466766,79.578768 -28.66621,79.402378 c -2.116667,-0.3175 -2.293056,-0.28222 -2.751667,0.45861 z m 16.615834,2.64584 c 8.9252759,0.24694 15.73388885,0.24694 21.5547219,0 11.7475001,-0.52917 14.2522211,-0.49389 14.9577771,0.14111 0.529167,0.45861 2.328333,0.81138 10.583333,1.97555 1.658054,0.21167 3.210277,0.45861 3.4925,0.52917 0.388054,0.14111 0.423334,1.16416 0.176387,6.24416 -0.176387,3.31612 -0.246943,13.052782 -0.14111,21.590002 0.3175,28.04584 0.211667,42.40389 -0.3175,45.57889 l -0.45861,2.92806 -5.362223,-0.21167 c -2.928057,-0.10583 -7.690557,-0.52917 -10.61861,-0.91722 -11.2888901,-1.44639 -17.1802771,-2.04611 -23.2833341,-2.39889 -17.0038879,-0.91722 -23.6713879,-1.48167 -24.2358319,-2.04611 -0.176389,-0.17639 -0.352778,-8.99583 -0.423334,-19.685 -0.105833,-14.39333 -0.3175,-21.06083 -0.740833,-25.89389 -0.493889,-5.29167 -0.564444,-8.53722 -0.352778,-17.286112 0.105834,-5.89139 0.3175,-10.86555 0.423334,-11.04194 0.105833,-0.17639 0.529166,-0.21167 0.9525,-0.0706 0.388055,0.14111 6.632222,0.38806 13.793611,0.56445 z"
           id="path4511" />
        <path
           style="stroke-width:0.03527778"
           inkscape:connector-curvature="0"
           d="m -18.153432,88.715658 c -5.256389,1.05834 -6.702778,1.62278 -6.702778,2.54 0,0.88195 0.670278,1.09361 2.328333,0.74084 0.776111,-0.17639 1.481667,-0.21167 1.658056,-0.0353 0.141111,0.14111 0.352778,2.61055 0.493889,5.43278 0.211666,5.291662 0.458611,6.138332 1.658055,5.679722 0.493889,-0.17639 0.564445,-0.56445 0.388056,-2.2225 -0.105833,-1.093612 -0.246945,-3.704172 -0.282222,-5.820832 l -0.07056,-3.84528 1.940278,-0.49389 c 4.7625,-1.23472 5.185833,-1.48167 4.162777,-2.50472 -0.529166,-0.52917 -0.211666,-0.52917 -5.573888,0.52916 z"
           id="path4513" />
        <path
           style="stroke-width:0.03527778"
           inkscape:connector-curvature="0"
           d="m 20.334623,92.208158 c -0.881944,1.09361 -1.728611,3.81 -2.046111,6.38528 -0.635,5.432782 3.386664,9.031112 6.773331,6.067782 2.89278,-2.57528 4.1275,-7.549452 2.645833,-10.795002 -0.740833,-1.62278 -1.658053,-2.08139 -3.63361,-1.72861 -0.705556,0.10583 -1.375833,0 -1.799166,-0.3175 -0.9525,-0.70556 -1.093611,-0.67028 -1.940277,0.38805 z m 5.256387,2.57528 c 0.670279,1.30528 0.388056,3.70417 -0.740834,5.961952 -1.305276,2.61055 -2.18722,3.06916 -3.386666,1.69333 -0.670277,-0.77611 -0.811387,-1.34056 -0.77611,-3.139722 0.03528,-3.13973 0.282223,-3.73945 1.905,-4.48028 1.834443,-0.84667 2.54,-0.84667 2.99861,-0.0353 z"
           id="path4515" />
        <path
           style="stroke-width:0.03527778"
           inkscape:connector-curvature="0"
           d="m -13.179266,93.372328 c -0.740833,0.45861 -0.176389,1.44639 0.846667,1.44639 0.705555,0 0.881944,-0.17639 0.881944,-0.88195 0,-0.91722 -0.776111,-1.16416 -1.728611,-0.56444 z"
           id="path4517" />
        <path
           style="stroke-width:0.03527778"
           inkscape:connector-curvature="0"
           d="m -5.4534341,95.806498 c -0.28222,0.0705 -0.811388,0.38805 -1.128887,0.67027 -0.3175,0.28223 -0.881945,0.42334 -1.234723,0.3175 -1.164166,-0.35277 -1.411111,0.24695 -1.552222,3.492502 -0.141111,3.175 -0.141111,3.175 0.740833,3.175 0.705556,0 0.9525,-0.3175 1.5875,-1.905 0.811389,-2.187222 1.587499,-2.751662 1.587499,-1.19944 0,1.34056 0.776113,2.39889 1.516946,2.11667 0.352777,-0.10584 0.917221,-0.74084 1.305277,-1.37584 0.388057,-0.635 0.81139,-1.128892 0.9525,-1.09361 0.141111,0.0353 0.423334,0.74084 0.635,1.5875 0.31749995,1.30528 0.49388995,1.51695 1.48166695,1.72861 0.63500005,0.10584 1.55222305,0.49389 2.01083305,0.81139 1.164167,0.74084 2.504723,0.70556 4.374444,-0.14111 1.093613,-0.49389 1.516946,-0.88194 1.411113,-1.30528 -0.105834,-0.52916 -0.423334,-0.635 -2.25778,-0.52916 -1.622777,0.10583 -2.2225,0 -2.610554,-0.42334 -0.635,-0.81139 -0.211666,-1.09361 1.375834,-0.9525 2.398887,0.14111 3.527777,-1.270002 2.50472,-3.175002 -0.705554,-1.30527 -4.480277,-0.35277 -5.573887,1.41111 -0.529167,0.91723 -1.12889005,0.9525 -1.12889005,0.10584 0,-1.72861 -2.18722295,-2.8575 -3.17499995,-1.65806 -0.599723,0.70556 -1.058333,0.67028 -1.058333,-0.10583 0,-0.84667 -1.09361,-1.79917 -1.76389,-1.55222 z"
           id="path4519" />
        <path
           style="stroke-width:0.03527778"
           inkscape:connector-curvature="0"
           d="m -13.532043,98.099548 c -0.176389,0.42334 -0.352778,1.79917 -0.423334,3.069172 l -0.141111,2.29305 h 1.023056 1.023055 l 0.105833,-3.10444 c 0.105834,-2.857502 0.07056,-3.069172 -0.564444,-3.069172 -0.423333,0 -0.846667,0.35278 -1.023055,0.81139 z"
           id="path4521" />
        <path
           style="stroke-width:0.03527778"
           inkscape:connector-curvature="0"
           d="m 10.351012,97.993718 c -1.2347231,0.74083 -1.9755561,5.820832 -0.9172231,6.491112 0.8113901,0.49389 1.5522231,-0.24694 1.8344441,-1.83444 0.388056,-2.11667 0.564446,-2.54 1.12889,-2.54 1.023056,0 2.610556,-1.058342 2.610556,-1.763892 0,-0.635 -0.246946,-0.70556 -2.010833,-0.70556 -1.12889,0 -2.328334,0.17639 -2.645834,0.35278 z"
           id="path4523" />
        <path
           style="stroke-width:0.03527778"
           inkscape:connector-curvature="0"
           d="m 79.636566,127.73288 c -0.21167,0.24695 -0.56445,1.65806 -0.77611,3.10445 -0.21167,1.41111 -0.56445,2.89278 -0.74084,3.21028 -0.70555,1.34055 0.77612,5.89139 2.11667,6.63222 1.09361,0.56444 3.10445,0.42333 3.35139,-0.21167 0.45861,-1.19944 0.21167,-1.55222 -0.98778,-1.55222 -1.30528,0 -1.905,-0.52917 -2.04611,-1.79917 -0.10583,-0.74083 0.0706,-0.84666 1.48167,-1.02305 1.83444,-0.21167 2.46944,-0.52917 2.46944,-1.23472 0,-0.81139 -1.37583,-1.34056 -2.71639,-1.05834 l -1.27,0.21167 0.28223,-2.2225 c 0.45861,-3.52778 0.42333,-4.30389 -0.21167,-4.445 -0.3175,-0.0353 -0.74083,0.10583 -0.9525,0.38805 z"
           id="path4567" />
        <path
           style="stroke-width:0.03527778"
           inkscape:connector-curvature="0"
           d="m 65.207953,128.22677 c -0.635,0.24695 -0.564443,1.05834 0.105834,1.30528 1.093613,0.42333 1.552223,0.21167 1.552223,-0.67028 0,-0.88194 -0.564444,-1.09361 -1.658057,-0.635 z"
           id="path4569" />
        <path
           style="stroke-width:0.03527778"
           inkscape:connector-curvature="0"
           d="m 125.7799,130.16705 c -0.38805,0.635 -0.88194,1.76389 -1.05833,2.46945 -0.45861,1.65805 -1.51695,2.29305 -2.68111,1.65805 -0.91723,-0.45861 -3.03389,-0.0353 -4.58611,0.9525 -2.2225,1.48167 -3.70417,12.45306 -1.62278,12.065 0.70555,-0.14111 1.05833,-1.34055 1.09361,-3.88055 0.0353,-2.18723 0.45861,-2.75167 1.41111,-1.905 0.35278,0.3175 0.88194,0.56444 1.19944,0.56444 0.91723,0 2.36362,-2.25778 2.68112,-4.19806 0.52916,-3.38666 1.30527,-2.82222 1.51694,1.09362 0.14111,3.42194 0.84667,4.40972 2.92805,4.02166 1.48167,-0.28222 2.64584,-1.30528 2.64584,-2.36361 0,-0.635 -0.14111,-0.70555 -0.9525,-0.52917 -2.29306,0.56445 -2.39889,0.52917 -2.50472,-1.30527 -0.0706,-0.91723 -0.0706,-1.65806 0,-1.65806 0.0705,-0.0353 1.05833,-0.10583 2.2225,-0.24694 2.18722,-0.21167 2.99861,-0.56445 2.99861,-1.34056 0,-0.59972 -0.81139,-0.88194 -2.64584,-0.88194 -0.84666,0 -1.65805,-0.14111 -1.76389,-0.35278 -0.10583,-0.17639 0.21167,-1.19945 0.70556,-2.25778 0.49389,-1.02305 0.81139,-2.15194 0.67028,-2.46944 -0.35278,-0.9525 -1.51695,-0.635 -2.25778,0.56444 z m -5.43278,7.40833 c -0.28222,1.34056 -1.16416,2.39889 -2.04611,2.39889 -0.49389,0 -0.635,-0.28222 -0.635,-1.19944 0,-1.30528 0.98778,-2.32833 2.2225,-2.32833 0.59972,0 0.67028,0.17638 0.45861,1.12888 z"
           id="path4573" />
        <path
           style="stroke-width:0.03527778"
           inkscape:connector-curvature="0"
           d="m 66.513233,132.56594 c -0.423333,0.24694 -0.529167,1.05833 -0.49389,3.59833 0,4.69195 0.352777,6.52639 1.27,6.84389 1.023053,0.3175 1.305273,-0.35278 0.917223,-2.25778 -0.17639,-0.91722 -0.35278,-3.03388 -0.38806,-4.72722 -0.10583,-3.24555 -0.388053,-4.02166 -1.305273,-3.45722 z"
           id="path4577" />
        <path
           style="stroke-width:0.03527778"
           inkscape:connector-curvature="0"
           d="m 73.039616,133.05983 c -0.56444,0.24694 -1.23472,0.38805 -1.48166,0.3175 -0.67028,-0.24695 -1.05834,0.91722 -1.34056,3.84528 l -0.24694,2.75166 h 0.88194 c 0.67028,0 0.98778,-0.28222 1.30528,-1.16416 0.91722,-2.46945 1.05833,-2.75167 1.41111,-2.54 0.21167,0.10583 0.35278,0.635 0.35278,1.16416 0,1.48167 1.27,3.31611 2.2225,3.175 0.84667,-0.10583 0.91722,-0.77611 0.3175,-2.57527 -0.21167,-0.59973 -0.56445,-1.76389 -0.81139,-2.61056 -0.24694,-0.84667 -0.70556,-1.83444 -1.02306,-2.18722 -0.45861,-0.56445 -0.67027,-0.59972 -1.5875,-0.17639 z"
           id="path4579" />
        <path
           style="stroke-width:0.03527778"
           inkscape:connector-curvature="0"
           d="m 89.690736,132.91872 c -2.25778,0.38805 -4.1275,2.71639 -4.1275,5.08 0,0.91722 0.3175,1.55222 1.19944,2.46944 1.02306,1.12889 1.37583,1.27 2.89278,1.27 1.83444,0 3.31611,-0.70555 3.31611,-1.62278 0,-0.35277 -0.45861,-0.49388 -1.83445,-0.49388 -1.37583,0 -2.01083,-0.17639 -2.61055,-0.74084 -1.12889,-1.05833 -0.70556,-1.72861 1.05833,-1.72861 1.65806,0 2.89278,-0.84667 3.24556,-2.29305 0.38805,-1.5875 -0.77611,-2.32834 -3.13972,-1.94028 z"
           id="path4581" />
        <path
           style="stroke-width:0.03527778"
           inkscape:connector-curvature="0"
           d="m 97.592956,133.73011 c -1.05834,0.35277 -1.27,0.67027 -1.65806,2.15194 -0.52917,2.08139 -0.70555,4.86833 -0.35278,5.43278 0.88195,1.44639 2.68111,-0.9525 2.68111,-3.52778 0,-1.5875 0.0706,-1.72861 1.23473,-2.18722 1.375834,-0.59972 1.587504,-1.41111 0.564444,-1.97556 -0.846674,-0.42333 -0.952504,-0.42333 -2.469444,0.10584 z"
           id="path4585" />
        <path
           style="stroke-width:0.03527778"
           inkscape:connector-curvature="0"
           d="m 103.16685,133.62427 c -0.49389,0.28223 -0.74084,1.09361 -1.55223,5.36223 -0.14111,0.88194 0.635,1.79916 1.44639,1.65805 0.49389,-0.10583 0.81139,-0.67028 1.19945,-2.29305 l 0.49389,-2.18723 1.62277,-0.17639 c 0.88195,-0.10583 1.62278,-0.14111 1.65806,-0.10583 0.0353,0.0353 -0.10583,0.70556 -0.28222,1.44639 -0.56445,2.29306 1.02305,5.11528 2.89277,5.11528 0.88195,0 1.83445,-1.37584 2.75167,-3.88056 0.91722,-2.50472 0.88195,-3.66889 -0.17639,-3.81 -0.635,-0.10583 -0.84666,0.24695 -1.55222,2.39889 -0.91722,2.89278 -1.5875,3.06917 -1.5875,0.35278 0,-1.55222 -0.10583,-1.905 -0.74083,-2.11667 -0.42334,-0.17639 -0.84667,-0.52916 -0.9525,-0.81139 -0.10584,-0.28222 -0.88195,-0.59972 -1.72861,-0.74083 -0.81139,-0.14111 -1.83445,-0.3175 -2.2225,-0.38806 -0.38806,-0.10583 -0.9525,-0.0353 -1.27,0.17639 z"
           id="path4587" />
        <path
           style="stroke-width:0.03527778"
           inkscape:connector-curvature="0"
           d="m 44.993789,152.3215 c -4.974166,0.17638 -5.115279,0.21166 -5.221113,0.95249 -0.07055,0.56445 0.105834,0.91723 0.705557,1.12889 0.45861,0.17639 8.008056,0.21167 17.215554,0.0706 l 16.404169,-0.21167 -0.0706,-0.81139 c -0.0706,-0.42333 0.0706,-0.77611 0.24695,-0.77611 0.21166,0 0.35277,-0.14111 0.35277,-0.3175 0,-0.35277 -21.02555,-0.38805 -29.633327,-0.0353 z"
           id="path4643" />
      </g>
      <g
         id="g6476"
         transform="translate(-501.95238,-482.29762)">
        <path
           style="stroke-width:0.03527778"
           inkscape:connector-curvature="0"
           d="m 602.55906,41.020108 c -3.73946,0.81139 -5.92666,2.11667 -8.96056,5.29167 -3.175,3.38666 -6.73807,8.78416 -7.09084,10.83027 -0.1411,0.77611 -0.0706,2.50473 0.1764,4.02167 0.88194,5.04472 3.10444,7.79639 6.94971,8.74889 l 0.98779,0.21167 -0.0353,3.45722 c -0.0705,7.86694 0.81139,8.99583 4.58613,5.78555 1.0936,-0.9525 3.38666,-2.68111 5.08,-3.84527 1.79916,-1.27 2.92803,-2.25778 2.71637,-2.39889 -0.21167,-0.14111 -0.3175,-0.45861 -0.21167,-0.74084 0.10583,-0.28222 0,-0.49389 -0.21167,-0.49389 -0.52916,0 -4.69193,2.78695 -7.40833,4.97417 -1.19944,0.9525 -2.25777,1.72861 -2.39887,1.72861 -0.3528,0 -0.70557,-3.73944 -0.70557,-7.12611 v -2.75167 l -2.46943,-1.09361 c -1.51696,-0.70555 -2.78696,-1.55222 -3.31613,-2.25777 -1.27,-1.65806 -2.08137,-4.79778 -1.905,-7.40834 0.10583,-1.94028 0.3528,-2.54 1.83446,-4.83305 2.25777,-3.38667 6.6675,-7.90222 8.74887,-8.96056 2.18723,-1.09361 5.29167,-1.905 7.40834,-1.905 1.41113,0 1.69333,0.10584 1.69333,0.67028 0,1.12889 0.8114,1.12889 10.05417,0.0706 8.53723,-0.98778 23.77723,-0.10584 32.49083,1.94027 5.15056,1.16417 10.26583,3.63361 12.62946,6.06778 3.84527,3.91583 4.40971,5.67972 2.9986,9.41917 -0.98776,2.61055 -2.25776,4.02166 -5.75026,6.27944 -4.1275,2.71639 -8.1139,4.30389 -12.62947,5.15056 -1.12887,0.21166 -2.89277,0.52916 -3.88053,0.74083 -5.99724,1.09361 -21.09613,1.09361 -29.21,0 -5.60917,-0.77611 -6.13834,-0.77611 -6.87917,-0.24694 -1.3053,0.98777 -0.14113,1.51694 4.69193,2.11666 6.35,0.81139 9.17224,0.9525 17.18027,0.98778 21.20197,0.0706 34.925,-5.32694 37.92363,-14.85194 1.5875,-5.04473 1.27,-6.27945 -2.7164,-10.54806 -2.46943,-2.68111 -5.50333,-4.445 -10.795,-6.24417 -9.3486,-3.175 -28.92776,-4.19805 -41.83943,-2.18722 -2.50473,0.38806 -2.64583,0.35278 -3.24557,-0.35278 -0.70556,-0.91722 -3.06916,-1.02305 -6.4911,-0.24694 z"
           id="path4495" />
        <path
           style="stroke-width:0.03527778"
           inkscape:connector-curvature="0"
           d="m 602.24156,48.357888 c -0.52916,0.38805 -0.635,1.27 -0.77613,6.59694 -0.21166,6.45583 0,7.62 1.05834,6.73806 0.42333,-0.35278 0.56446,-1.16417 0.56446,-3.38667 0,-1.5875 0.10583,-4.09222 0.21167,-5.57389 l 0.24693,-2.71639 h 1.16417 c 1.4111,0 2.8575,0.59972 3.10443,1.30528 0.14113,0.28222 -0.3175,0.98778 -0.98777,1.62278 -1.51693,1.44639 -1.97556,2.36361 -1.97556,3.95111 0,1.72861 1.86973,3.70417 3.4925,3.70417 1.55223,0 1.51696,-1.37584 -0.0705,-2.15195 -1.69333,-0.84667 -1.7639,-2.46944 -0.14113,-4.16278 2.2578,-2.32833 2.01084,-4.58611 -0.56443,-5.82083 -1.48167,-0.67028 -4.445,-0.74083 -5.32694,-0.10583 z"
           id="path4497" />
        <path
           style="stroke-width:0.03527778"
           inkscape:connector-curvature="0"
           d="m 634.83823,50.545108 c -0.42333,0.67028 -0.88196,1.97555 -0.9878,2.8575 -0.24693,1.69333 -0.5997,2.08139 -2.25777,2.39889 -2.32833,0.49389 -4.19806,3.42194 -3.42193,5.43278 0.9525,2.50472 2.5047,2.78694 4.7625,0.9525 l 1.51693,-1.23473 0.88194,0.88195 c 0.9878,0.98778 2.32833,1.19944 2.32833,0.3175 0,-0.3175 -0.38803,-1.02306 -0.88193,-1.62278 -1.02307,-1.19944 -1.05834,-1.72861 -0.35277,-6.42056 0.2822,-1.94027 0.52917,-3.81 0.52917,-4.16277 0,-1.09361 -1.3053,-0.74084 -2.11667,0.59972 z m -1.05833,7.54944 c 0,0.77611 -2.68113,3.31611 -3.28084,3.10445 -0.88196,-0.28222 -0.67029,-1.65806 0.42334,-2.71639 1.19943,-1.23472 2.8575,-1.44639 2.8575,-0.38806 z"
           id="path4499" />
        <path
           style="stroke-width:0.03527778"
           inkscape:connector-curvature="0"
           d="m 650.39573,53.578998 c -0.42333,1.19944 -0.52917,4.48028 -0.1764,5.3975 0.24694,0.67028 0.98777,0.74083 1.48167,0.10583 0.1764,-0.21167 0.42333,-1.76389 0.4586,-3.42194 0.14113,-2.82223 0.10583,-2.99861 -0.5997,-3.10445 -0.59974,-0.0705 -0.84667,0.17639 -1.16417,1.02306 z"
           id="path4501" />
        <path
           style="stroke-width:0.03527778"
           inkscape:connector-curvature="0"
           d="m 612.93073,54.355108 c -1.48167,0.9525 -2.46946,2.89278 -2.18723,4.23333 0.10583,0.52917 0.67027,1.44639 1.27,2.04611 0.88193,0.88195 1.27,1.05834 2.50473,0.9525 1.16417,-0.0705 1.48167,-0.24694 1.5522,-0.84666 0.0706,-0.59973 -0.1411,-0.81139 -1.02303,-0.98778 -2.3989,-0.45861 -2.8928,-1.83445 -0.56447,-1.48167 2.82223,0.42334 4.33917,-1.72861 2.68113,-3.81 -0.91723,-1.16416 -2.57529,-1.23472 -4.23333,-0.10583 z m 2.8575,1.65805 c 0,0.17639 -0.1764,0.35278 -0.38807,0.35278 -0.17639,0 -0.24693,-0.17639 -0.1411,-0.35278 0.10584,-0.21166 0.28221,-0.35277 0.38804,-0.35277 0.0706,0 0.14113,0.14111 0.14113,0.35277 z"
           id="path4503" />
        <path
           style="stroke-width:0.03527778"
           inkscape:connector-curvature="0"
           d="m 621.43266,55.237048 c -1.62276,0.81139 -2.82223,2.64584 -2.82223,4.33917 0,2.43417 3.13973,4.02167 5.18584,2.61056 0.45863,-0.3175 1.12889,-0.45862 1.62279,-0.35278 0.52917,0.14111 0.98777,0.0353 1.30527,-0.35278 0.38807,-0.45861 0.35277,-0.67028 -0.1764,-1.23472 -0.49387,-0.52917 -0.56443,-1.02306 -0.38803,-2.29306 0.17637,-1.55222 0.17637,-1.62278 -0.59974,-1.51694 -0.56443,0.0705 -0.91723,0.49389 -1.27,1.69333 -0.59973,1.83445 -1.27,2.50472 -2.50473,2.36361 -0.74083,-0.0705 -0.88193,-0.24694 -0.88193,-1.30528 0,-1.09361 0.1764,-1.30527 1.4111,-1.94027 1.69333,-0.84667 1.905,-1.09361 1.69333,-1.97556 -0.24693,-0.84667 -0.98777,-0.84667 -2.57527,-0.0353 z"
           id="path4505" />
        <path
           style="stroke-width:0.03527778"
           inkscape:connector-curvature="0"
           d="m 640.16516,56.118998 c -0.635,0.77611 -1.44639,2.99861 -1.44639,3.95111 0,1.16417 1.48166,2.64583 2.64583,2.64583 1.05833,0 1.1289,0.49389 0.1764,2.01084 -0.88194,1.44638 -2.6811,2.43416 -3.3514,1.86972 -0.70554,-0.59972 -1.2347,-0.14111 -1.2347,1.02305 0,1.905 1.5522,2.11667 4.16276,0.56445 1.69334,-1.02306 5.715,-8.07861 5.715,-10.05417 0,-1.44639 -0.52916,-1.34055 -1.5875,0.35278 -1.02306,1.5875 -1.83443,2.11667 -3.35139,2.11667 -1.37584,0 -1.5875,-0.59973 -0.91721,-2.64584 0.56444,-1.55222 0.49387,-2.29305 -0.10583,-2.29305 -0.1764,0 -0.4939,0.21166 -0.70557,0.45861 z"
           id="path4507" />
        <path
           style="stroke-width:0.03527778"
           inkscape:connector-curvature="0"
           d="m 649.90183,62.962888 c -0.38806,0.35277 -0.28223,1.44639 0.1411,1.72861 0.56447,0.3175 1.51697,-0.74084 1.27,-1.41111 -0.24693,-0.56445 -0.98777,-0.74084 -1.4111,-0.3175 z"
           id="path4509" />
        <path
           style="stroke-width:0.03527778"
           inkscape:connector-curvature="0"
           d="m 577.8646,90.444268 c -0.38804,0.0353 -3.38667,0.28223 -6.70277,0.49389 -8.46667,0.56445 -16.29833,1.30528 -16.75693,1.5875 -0.1764,0.10584 -0.3528,0.49389 -0.3528,0.88195 0,0.45861 -0.17637,0.59972 -0.67027,0.45861 -0.56443,-0.14111 -0.70556,0.0706 -0.88193,1.55222 -0.10584,0.91722 -0.24697,7.514172 -0.28224,14.640282 -0.10583,12.80583 -0.10583,12.98222 0.635,13.72305 0.70557,0.70556 0.88194,0.70556 3.45724,0.3175 1.97553,-0.28222 3.52776,-0.3175 5.92666,0 1.79917,0.21167 6.20887,0.52917 9.80721,0.70556 3.59833,0.17639 8.74889,0.635 11.46529,1.05833 2.71637,0.42334 6.27944,0.77611 7.9375,0.81139 l 2.96334,0.0706 0.38803,-1.94028 c 0.635,-3.56306 0.42334,-13.72306 -0.4586,-20.6375 -1.23473,-9.419172 -1.79917,-12.982222 -2.0814,-13.264442 -0.2822,-0.28223 -12.8411,-0.67028 -14.39333,-0.45862 z m 10.61863,2.2225 2.1872,0.0353 0.52917,3.77472 c 0.3175,2.11667 0.74083,5.538622 0.9525,7.690562 0.21167,2.11667 0.52917,4.51556 0.70556,5.29167 0.4939,2.04611 0.42334,11.46527 -0.0706,13.61722 l -0.42333,1.83444 -3.56304,-0.21166 c -1.9403,-0.14112 -4.83307,-0.45862 -6.42057,-0.74084 -1.5875,-0.3175 -6.20889,-0.70555 -10.3011,-0.91722 -4.09223,-0.17639 -8.67833,-0.52917 -10.16,-0.74083 -1.51696,-0.21167 -3.95113,-0.3175 -5.3975,-0.24695 l -2.64583,0.10584 v -3.70417 c -0.0353,-7.16139 0.38804,-23.600832 0.5997,-23.812502 0.3175,-0.3175 1.1289,-0.42333 9.98363,-1.23472 10.9361,-0.98778 10.37167,-0.9525 16.40417,-0.84667 2.9986,0.0353 6.45583,0.10583 7.62,0.10583 z"
           id="path4547" />
        <path
           style="stroke-width:0.03527778"
           inkscape:connector-curvature="0"
           d="m 572.39656,99.828158 c -1.34056,0.352782 -5.15056,0.881952 -8.89,1.199452 -2.43416,0.21166 -3.3514,0.74083 -2.96333,1.72861 0.1411,0.38805 0.74083,0.52917 2.32833,0.52917 1.16417,0 2.11667,0.10583 2.11667,0.24694 0,0.17639 -0.24696,1.65806 -0.52917,3.38667 -0.74083,4.16277 -0.84666,9.13694 -0.21166,9.91305 1.05833,1.27 1.44637,0.70556 1.44637,-2.36361 0,-3.06917 0.81139,-8.96055 1.44639,-10.58333 0.24694,-0.56445 0.67027,-0.9525 1.05834,-0.9525 0.88193,0 5.67973,-1.30528 7.23193,-1.94028 1.7639,-0.74083 1.5875,-1.587502 -0.2822,-1.552222 -0.84667,0.0353 -2.0814,0.17639 -2.75167,0.38805 z"
           id="path4549" />
        <path
           style="stroke-width:0.03527778"
           inkscape:connector-curvature="0"
           d="m 573.66656,113.55122 c -0.59973,3.13972 0.1411,6.13833 1.48167,5.89139 0.4586,-0.10584 0.56443,-0.70556 0.5997,-3.56306 l 0.0353,-3.42194 h -0.9525 c -0.77613,0 -0.9878,0.21166 -1.16417,1.09361 z"
           id="path4551" />
        <path
           style="stroke-width:0.03527778"
           inkscape:connector-curvature="0"
           d="m 631.13406,133.87122 c -3.31613,0.24694 -14.4639,1.86972 -18.87363,2.78694 -4.83303,0.98778 -7.79637,1.83445 -10.23053,2.89278 -1.79917,0.77611 -2.92807,1.86972 -2.18724,2.08139 0.21167,0.10583 0.35277,0.3175 0.21167,0.49389 -0.28223,0.49389 -1.1289,0.38805 -1.27,-0.17639 -0.21167,-0.9525 -3.56306,1.05833 -6.13833,3.66889 -2.9986,3.06916 -4.55084,5.46805 -5.50334,8.60777 -0.67026,2.18723 -0.70556,2.68112 -0.3175,5.25639 0.38807,2.78695 1.41111,5.18584 2.68111,6.24417 0.35279,0.28222 0.74083,0.84667 0.91723,1.30528 0.42333,1.12889 2.96333,2.32833 5.43277,2.57528 l 2.11666,0.17638 -0.17637,1.23473 c -0.10583,0.67027 -0.1764,3.06916 -0.1764,5.29166 v 4.05695 l 1.16417,0.10583 c 0.98777,0.10583 1.48167,-0.17639 3.3161,-1.86972 3.3514,-3.10445 8.14917,-6.56167 8.7489,-6.27945 0.28223,0.10584 1.65807,0.35278 2.9986,0.49389 3.28084,0.38806 9.7014,1.51695 16.40417,2.89278 l 5.46806,1.09361 11.1125,-0.0353 c 18.48557,-0.10583 27.58724,-1.62277 34.74861,-5.82083 3.81,-2.25778 6.38529,-4.72722 7.69056,-7.37305 1.05833,-2.18723 1.19944,-3.84528 0.4586,-6.49112 -0.7761,-2.96333 -1.83443,-4.62138 -5.00943,-7.76111 -4.23334,-4.23333 -6.91444,-6.13833 -12.2414,-8.81944 -8.81944,-4.37444 -18.34444,-6.24417 -34.1136,-6.63222 -2.9986,-0.0706 -6.24417,-0.0706 -7.23194,0 z m 19.05,2.57528 c 7.86694,0.88194 15.20471,2.92805 21.16667,5.82083 4.97417,2.43417 7.65527,4.30389 11.85333,8.21972 3.06917,2.8575 4.51554,5.53861 4.79777,8.85472 0.24694,2.82222 -1.0936,5.22111 -4.23333,7.62 -7.40834,5.67972 -14.71084,7.26722 -35.17194,7.79639 -9.525,0.24695 -12.45306,0 -20.10833,-1.5875 -5.60917,-1.16417 -13.6525,-2.50472 -15.06363,-2.50472 -0.74083,0 -1.8697,-0.14111 -2.54,-0.35278 -0.9172,-0.24694 -1.37583,-0.21167 -2.08137,0.28222 -1.9403,1.19945 -6.27946,4.62139 -7.44363,5.85611 -0.67027,0.70556 -1.34054,1.27 -1.48167,1.27 -0.2822,0 -0.0705,-3.24555 0.38807,-6.70277 0.42333,-2.8575 0.24693,-3.03389 -3.6689,-3.38667 -2.71637,-0.21167 -2.92804,-0.28222 -4.16277,-1.5875 -0.70556,-0.77611 -1.7639,-2.11667 -2.29306,-3.03389 -0.88194,-1.55222 -0.98777,-2.01083 -0.98777,-5.04472 0,-3.10445 0.10583,-3.56306 1.19943,-5.82083 1.72863,-3.56306 6.10307,-7.86695 9.03113,-8.92528 3.175,-1.12889 4.7625,-1.37583 6.27944,-1.02306 1.65806,0.42334 2.0814,0.0353 0.98777,-0.84666 -0.56444,-0.45861 -0.74084,-0.81139 -0.49387,-1.05834 0.70553,-0.70555 12.45303,-2.96333 21.97803,-4.16277 3.13973,-0.42334 17.56834,-0.21167 22.04863,0.3175 z"
           id="path4593" />
        <path
           style="stroke-width:0.03527778"
           inkscape:connector-curvature="0"
           d="m 610.2849,147.27677 c -2.50474,1.44639 -3.31613,2.46945 -3.31613,4.26861 0,1.72861 1.55223,3.13973 4.69196,4.30389 1.37583,0.49389 1.12887,1.37584 -0.635,2.36361 -1.65807,0.9525 -3.24557,1.02306 -4.33917,0.24695 -1.51696,-1.05834 -2.0814,0.56444 -0.67029,1.905 1.02306,0.9525 2.15196,0.98778 4.72723,0.0705 2.75166,-0.9525 4.05693,-2.25777 3.91583,-3.88055 -0.10583,-1.09361 -0.3175,-1.34056 -2.0814,-2.29306 -2.39887,-1.27 -3.4925,-2.18722 -3.4925,-2.99861 0,-0.77611 1.65807,-2.32833 3.28084,-2.99861 0.70556,-0.28222 1.30529,-0.77611 1.30529,-1.05833 0,-0.74084 -2.01083,-0.67028 -3.38666,0.0705 z"
           id="path4595" />
        <path
           style="stroke-width:0.03527778"
           inkscape:connector-curvature="0"
           d="m 618.11656,148.75844 c -0.9525,1.05833 -1.97556,4.7625 -2.04613,7.40833 -0.10583,3.84528 0.84667,5.25639 3.28084,4.90361 1.05833,-0.14111 1.09363,-1.12889 0.0353,-1.27 -0.42333,-0.0705 -0.9525,-0.45861 -1.16416,-0.84666 -0.52917,-0.98778 -0.10584,-5.25639 0.7761,-7.69056 1.16416,-3.24555 1.16416,-3.175 0.42333,-3.175 -0.38806,0 -0.98777,0.3175 -1.30527,0.67028 z"
           id="path4597" />
        <path
           style="stroke-width:0.03527778"
           inkscape:connector-curvature="0"
           d="m 649.72543,153.62677 c 0.0706,0.42334 0.42334,0.635 0.9878,0.635 0.56443,0 0.9172,-0.21166 0.98777,-0.635 0.10583,-0.45861 -0.10584,-0.59972 -0.98777,-0.59972 -0.88196,0 -1.09363,0.14111 -0.9878,0.59972 z"
           id="path4599" />
        <path
           style="stroke-width:0.03527778"
           inkscape:connector-curvature="0"
           d="m 623.51406,154.61455 c -2.18723,1.19944 -2.75166,3.91583 -1.16416,5.78556 0.7761,0.9525 1.16416,1.09361 2.57526,1.09361 1.55224,0 3.21027,-0.74084 3.21027,-1.41111 0,-0.17639 -0.84666,-0.35278 -1.83443,-0.42334 -1.55223,-0.0705 -1.86973,-0.21166 -1.86973,-0.77611 0,-0.49389 0.42333,-0.77611 1.55223,-1.12889 1.65806,-0.49389 2.15193,-0.9525 2.15193,-2.11666 0,-1.37584 -2.78693,-2.01084 -4.62137,-1.02306 z"
           id="path4601" />
        <path
           style="stroke-width:0.03527778"
           inkscape:connector-curvature="0"
           d="m 641.50573,154.79094 c -2.29307,0.67028 -2.7164,1.30528 -4.19807,5.89139 -1.37583,4.30389 -1.69333,6.24416 -1.12889,6.59694 0.59973,0.35278 1.16416,-0.45861 1.97556,-2.64583 0.8114,-2.25778 0.8114,-2.25778 2.3636,-2.46945 4.65667,-0.56444 7.26723,-4.86833 4.23334,-6.91444 -1.27,-0.84667 -1.76387,-0.91722 -3.24554,-0.45861 z m 2.5047,2.61055 c 0,1.09362 -0.9172,2.11667 -2.39887,2.68112 -1.5875,0.635 -2.01083,0.17638 -1.51696,-1.69334 0.42333,-1.48166 0.77613,-1.72861 2.78696,-1.79916 0.9525,-0.0353 1.12887,0.0705 1.12887,0.81138 z"
           id="path4603" />
        <path
           style="stroke-width:0.03527778"
           inkscape:connector-curvature="0"
           d="m 630.78127,155.39066 c -0.56444,0.3175 -1.23471,0.81139 -1.48167,1.12889 -1.02304,1.34056 -0.0353,4.40972 1.72863,5.36222 1.30527,0.70556 3.175,1.02306 3.88054,0.635 0.98779,-0.52916 0.74083,-1.27 -0.49387,-1.51694 -2.43417,-0.49389 -3.81,-2.32834 -1.72863,-2.32834 1.19946,0 2.8575,-1.19944 2.8575,-2.11666 0,-1.69334 -2.61054,-2.32834 -4.7625,-1.16417 z"
           id="path4605" />
        <path
           style="stroke-width:0.03527778"
           inkscape:connector-curvature="0"
           d="m 656.56933,156.73122 c -0.38806,0.28222 -1.1289,0.52916 -1.65806,0.52916 -0.84667,0 -1.09361,0.24695 -1.72861,1.62278 -0.38806,0.91722 -0.70556,2.01083 -0.70556,2.46945 0,0.70555 0.1764,0.84666 0.9878,0.84666 0.84666,0 1.16416,-0.28222 1.94026,-1.72861 1.69334,-3.06917 2.2225,-3.10444 2.43417,-0.21167 0.0706,1.05834 0.28223,1.44639 0.7761,1.51695 0.88197,0.17639 1.27,-0.49389 1.27,-2.39889 0,-2.71639 -1.5875,-3.95111 -3.3161,-2.64583 z"
           id="path4607" />
        <path
           style="stroke-width:0.03527778"
           inkscape:connector-curvature="0"
           d="m 663.69543,157.08399 c -1.5875,1.05834 -2.25777,2.04612 -2.57527,3.77473 -0.21166,1.09361 -0.10583,1.44639 0.67027,2.18722 0.4939,0.52917 1.1289,0.91722 1.4464,0.91722 0.74083,0 0.67027,0.28222 -0.38806,1.83445 -1.34054,1.905 -4.09221,3.175 -6.56167,3.06916 -1.65804,-0.10583 -1.8697,-0.0353 -1.8697,0.56445 0,0.42333 0.42333,0.88194 1.02303,1.16416 2.0814,1.02306 6.985,-0.77611 8.78417,-3.21027 1.3053,-1.69334 5.18583,-8.60778 5.18583,-9.13695 -0.0353,-1.02305 -1.02303,-1.72861 -2.6811,-1.86972 -1.4111,-0.14111 -1.97556,-0.0353 -3.0339,0.70555 z m 3.59834,1.41112 c 0,0.10583 -0.14111,0.38805 -0.35277,0.635 -2.32834,2.92805 -3.6336,3.59833 -3.81,1.94027 -0.1764,-1.37583 1.27,-2.75166 2.92806,-2.75166 0.67027,0 1.23471,0.0705 1.23471,0.17639 z"
           id="path4609" />
        <path
           style="stroke-width:0.03527778"
           inkscape:connector-curvature="0"
           d="m 648.7024,156.97816 c -0.6703,0.81139 -1.55224,3.91583 -1.37584,4.72722 0.1411,0.56445 0.38804,0.70556 1.02304,0.59973 0.635,-0.14112 0.88196,-0.56445 1.27,-1.97556 0.6703,-2.57528 0.6703,-3.56306 0,-3.70417 -0.3175,-0.0353 -0.74083,0.10584 -0.9172,0.35278 z"
           id="path4611" />
        <path
           style="stroke-width:0.03527778"
           inkscape:connector-curvature="0"
           d="m 552.4646,147.38261 c -0.74083,0.14111 -1.0936,0.42333 -1.16417,0.98777 -0.10583,0.70556 0.0353,0.77612 1.48167,0.77612 1.4464,0 2.18723,0.42333 1.3053,0.77611 -0.1764,0.0353 -1.1289,1.05833 -2.11667,2.2225 -2.68113,3.175 -2.36363,4.33916 1.27,4.65666 1.62277,0.14111 2.15193,0.0706 2.54,-0.38805 0.49387,-0.56445 0.21167,-0.77611 -2.5753,-1.76389 -0.56443,-0.17639 -0.38803,-0.49389 1.34057,-2.46945 2.32833,-2.64583 2.89277,-4.30388 1.5875,-4.58611 -1.7286,-0.35277 -2.64584,-0.42333 -3.6689,-0.21166 z"
           id="path4641" />
        <path
           style="stroke-width:0.03527778"
           inkscape:connector-curvature="0"
           d="m 552.28823,163.25761 c 0,0.38805 0.38804,0.9525 0.88193,1.27 0.84667,0.56444 0.88194,0.635 0.3175,1.23472 -0.635,0.70555 -0.4586,1.69333 0.56444,2.61055 1.3053,1.16417 0.56446,2.64584 -1.30527,2.64584 -0.38806,0 -0.98777,0.21166 -1.34056,0.49389 -0.635,0.45861 -0.59971,0.49388 0.28223,1.09361 0.91723,0.59972 1.05833,0.59972 2.54,0 2.57527,-0.9525 3.28083,-2.68111 2.0461,-4.79778 -0.56444,-0.9525 -0.56444,-1.09361 0,-2.04611 0.9525,-1.62278 0.77613,-1.97556 -1.27,-2.61056 -2.39887,-0.77611 -2.71637,-0.74083 -2.71637,0.10584 z"
           id="path4649" />
        <path
           style="stroke-width:0.03527778"
           inkscape:connector-curvature="0"
           d="m 551.61793,182.51927 c -0.38803,1.09361 -0.74083,2.43417 -0.74083,2.99861 0,1.48166 1.37583,2.78696 2.99863,2.78696 0.98777,0 1.2347,0.1411 1.2347,0.67027 0,1.02306 1.19947,2.29306 1.86973,2.0461 0.42334,-0.1411 0.59974,-0.635 0.59974,-1.65804 0,-0.9525 0.17637,-1.51696 0.52916,-1.62279 0.67027,-0.28221 0.67027,-0.98777 0.0353,-1.55221 -0.28223,-0.21167 -0.56443,-0.74083 -0.635,-1.16417 -0.1764,-1.16416 -1.7639,-1.05833 -2.0461,0.10584 -0.14113,0.635 -0.4939,0.9172 -1.16417,0.98777 -1.30529,0.1411 -1.48166,-0.4939 -0.74083,-2.7164 0.635,-2.01083 0.49387,-2.85749 -0.4939,-2.85749 -0.4939,0 -0.88193,0.52916 -1.4464,1.97555 z"
           id="path4669" />
        <g
           id="g6553"
           transform="translate(-48.380948,89.202379)">
          <path
             id="path4527"
             d="m 234.08266,83.600388 c -1.8697,0.98777 -2.43415,1.79916 -1.905,2.64583 0.24697,0.42333 0.28224,1.12889 0.0353,2.2225 -0.1764,0.88194 -0.31751,4.7625 -0.35278,8.64305 -0.0706,6.949732 -0.0706,7.055562 0.67028,7.161392 0.74083,0.10584 0.7761,0 0.98777,-6.173612 0.1411,-3.45722 0.4586,-7.72583 0.67027,-9.45444 l 0.42333,-3.175 1.51696,-0.52917 c 1.51694,-0.52917 1.55221,-0.52917 2.39887,0.45861 1.48167,1.72861 0.88197,3.95111 -1.48166,5.57389 -1.83444,1.27 -1.905,1.79917 -0.70554,4.97417 0.9525,2.54 2.8222,6.491112 3.38667,7.161392 0.42333,0.52916 1.4111,0.35277 1.4111,-0.24695 0,-0.17639 -0.70557,-1.97555 -1.5875,-3.986392 -2.25777,-5.15055 -2.29307,-5.46805 -0.74083,-6.6675 2.8575,-2.18722 3.13973,-6.985 0.49389,-8.81944 -1.12889,-0.81139 -3.42196,-0.70556 -5.22113,0.21167 z"
             inkscape:connector-curvature="0"
             style="stroke-width:0.03527778" />
          <path
             id="path4529"
             d="m 246.67683,85.646498 c -1.34054,0.17639 -2.64583,0.38805 -2.92804,0.49389 -0.81139,0.3175 -0.56446,1.5875 0.38804,2.04611 l 0.88196,0.38805 v 6.24417 c 0,6.526392 0.28221,7.796392 1.51694,7.302502 0.4939,-0.17639 0.59973,-1.12889 0.67027,-7.196672 l 0.10583,-6.985 1.86973,-0.24694 c 1.02307,-0.17639 2.2225,-0.45861 2.61057,-0.67028 0.635,-0.35278 0.635,-0.45861 0.21166,-0.88194 -0.67029,-0.70556 -2.43416,-0.84667 -5.32696,-0.49389 z"
             inkscape:connector-curvature="0"
             style="stroke-width:0.03527778" />
          <path
             id="path4531"
             d="m 256.06073,86.034548 c -0.635,0.17639 -1.16417,0.49389 -1.16417,0.67028 0,0.17639 -0.67027,1.05833 -1.48166,2.01083 -2.04611,2.39889 -2.75167,4.05695 -2.75167,6.84389 0,3.63361 1.65806,5.609172 4.7625,5.609172 4.16277,0 7.65527,-5.256392 7.02027,-10.583332 -0.42334,-3.59834 -3.13971,-5.53862 -6.38527,-4.55084 z m 4.48027,5.3975 c 0,2.75167 -0.635,4.48028 -2.15194,5.92667 -1.65806,1.5875 -3.0339,1.94028 -4.51556,1.16417 -1.02304,-0.49389 -1.0936,-0.67028 -1.0936,-2.46945 0,-3.52778 2.43416,-7.19667 4.48026,-6.77333 0.8114,0.14111 1.1289,0.0353 1.48167,-0.56445 l 0.4939,-0.74083 0.635,0.81139 c 0.4586,0.56444 0.67027,1.37583 0.67027,2.64583 z"
             inkscape:connector-curvature="0"
             style="stroke-width:0.03527778" />
          <path
             id="path4533"
             d="m 300.19323,86.246218 c -4.40973,0.10583 -5.04473,0.21167 -5.60917,0.81139 -1.19943,1.34055 -0.4939,1.76389 2.8575,1.76389 h 3.06917 l -0.24694,2.54 c -0.10583,1.41111 -0.3175,5.43277 -0.42333,8.925272 -0.14113,3.4925 -0.3175,6.45584 -0.45863,6.59695 -0.1411,0.14111 -1.0936,0.14111 -2.15193,-0.0353 -2.11667,-0.35278 -2.82224,-0.21167 -2.82224,0.49389 0,0.91722 1.05834,1.51694 3.28084,1.905 4.6214,0.81139 10.51279,0.28222 11.00666,-0.9525 0.3175,-0.88194 -0.49387,-1.12889 -3.7747,-1.12889 H 301.816 v -3.10444 c 0,-3.70417 0.59973,-13.123342 0.91723,-14.322782 0.1764,-0.77611 0.4586,-0.88195 3.52777,-1.27 3.52779,-0.45861 4.6214,-0.9525 4.26863,-1.905 -0.1764,-0.45861 -0.70557,-0.56445 -2.78697,-0.49389 -1.4111,0.0353 -4.83303,0.14111 -7.54943,0.17639 z"
             inkscape:connector-curvature="0"
             style="stroke-width:0.03527778" />
          <path
             id="path4535"
             d="m 265.58573,87.057608 c -1.69333,1.02305 -2.3636,2.2225 -2.11667,3.91583 0.24694,1.97556 0.98777,2.89278 3.24557,4.19806 1.05833,0.59972 1.94027,1.30527 1.94027,1.55222 0,0.49389 -2.32834,2.78694 -3.42194,3.351392 -0.42333,0.21166 -1.27,0.38805 -1.86973,0.38805 -0.635,0 -1.16417,0.21167 -1.30527,0.52917 -0.24696,0.70556 0.84667,1.94028 1.76387,1.94028 2.43417,0 6.94973,-4.056952 6.94973,-6.208892 0,-1.37583 -0.635,-2.11667 -3.3514,-3.81 -1.94026,-1.23472 -2.25776,-1.94028 -1.44637,-3.21028 0.77611,-1.19944 2.15194,-1.48167 3.03387,-0.70555 0.38807,0.35277 0.70557,0.49388 0.74084,0.3175 0,-0.17639 0.0706,-0.59973 0.14113,-0.91723 0.35277,-1.83444 -2.18723,-2.64583 -4.3039,-1.34055 z"
             inkscape:connector-curvature="0"
             style="stroke-width:0.03527778" />
          <path
             id="path4537"
             d="m 351.6635,88.010108 c -3.52777,3.52778 -4.86834,7.23194 -4.5861,12.629442 0.28223,5.85611 2.29306,9.06639 5.64443,9.13695 2.01083,0.0353 1.97557,-0.635 -0.0705,-1.76389 -2.50473,-1.34056 -3.31613,-3.10445 -3.4925,-7.54945 -0.10583,-2.786942 0,-3.704162 0.635,-5.397502 0.91721,-2.39889 3.13971,-5.32694 4.79777,-6.31472 1.62277,-0.9525 1.48167,-1.83444 -0.28223,-1.97555 -1.0936,-0.10584 -1.51693,0.10583 -2.64583,1.23472 z"
             inkscape:connector-curvature="0"
             style="stroke-width:0.03527778" />
          <path
             id="path4539"
             d="m 399.35906,87.198718 c -2.2225,0.98778 -3.3161,3.24555 -3.3514,6.80861 0,1.905 -0.10583,2.25778 -0.7761,2.61056 -1.30527,0.635 -2.75166,2.15194 -2.75166,2.82222 0,0.740832 1.55223,1.940282 2.96333,2.293052 0.84667,0.21167 0.9525,0.35278 0.7761,1.16417 -0.1411,0.49389 -0.3175,1.97556 -0.4586,3.24556 -0.24694,3.03388 0.35277,4.26861 2.54,5.08 1.86973,0.74083 4.86833,0.56444 5.75027,-0.3175 0.84666,-0.84667 0.10583,-1.34056 -2.29304,-1.51695 -1.1289,-0.0705 -2.43417,-0.38805 -2.8575,-0.67028 -0.74083,-0.49389 -0.8114,-0.77611 -0.6703,-2.18722 0.0706,-0.91722 0.3528,-2.57528 0.59974,-3.70417 0.52916,-2.32833 0.35276,-2.64583 -1.4464,-3.033882 -1.62277,-0.3175 -1.62277,-0.88195 0,-1.62278 1.62279,-0.70556 1.83446,-1.30528 1.16416,-2.96334 -0.56443,-1.37583 -0.35276,-3.63361 0.4939,-4.86833 0.28223,-0.42333 0.98777,-0.91722 1.62277,-1.09361 1.41113,-0.35278 2.01083,-1.19944 1.37583,-1.97556 -0.56443,-0.67027 -1.27,-0.70555 -2.6811,-0.0705 z"
             inkscape:connector-curvature="0"
             style="stroke-width:0.03527778" />
          <path
             id="path4541"
             d="m 364.8574,87.657328 c -0.52917,0.52917 -0.1764,1.37583 0.7761,1.94028 1.83446,1.02305 2.68113,3.175 2.68113,6.80861 0,3.915832 -0.4939,5.009442 -3.63363,8.360832 -2.25777,2.36361 -2.64584,3.45722 -1.23471,3.45722 1.02304,0 4.93887,-4.1275 6.10304,-6.45583 0.91723,-1.834442 1.05833,-2.504722 1.05833,-5.009442 0,-3.81 -0.7761,-6.31473 -2.46943,-8.00806 -1.23473,-1.23472 -2.6811,-1.72861 -3.28083,-1.09361 z"
             inkscape:connector-curvature="0"
             style="stroke-width:0.03527778" />
          <path
             id="path4543"
             d="m 319.20796,88.468718 c -2.64583,0.59972 -5.4328,3.24555 -5.46806,5.25639 -0.0353,1.51694 1.69333,3.28083 4.72723,4.83305 2.61053,1.30528 3.10443,1.940282 3.10443,3.845282 0,1.62278 -1.5875,3.35139 -3.06916,3.35139 -1.34057,0 -3.21027,-1.19944 -3.63361,-2.32833 -0.45863,-1.16417 -1.19946,-0.91723 -1.34056,0.42333 -0.21167,2.11667 2.29306,4.02167 5.2564,4.02167 3.10443,0 5.11527,-2.61056 4.83303,-6.20889 -0.21166,-2.363612 -0.9525,-3.245562 -4.23333,-4.974172 -3.03387,-1.5875 -3.59833,-2.18722 -3.1397,-3.42194 0.42333,-1.05834 3.3161,-3.03389 4.51553,-3.03389 0.56447,0 0.8114,-0.21167 0.8114,-0.70556 0,-0.91722 -0.98777,-1.34055 -2.3636,-1.05833 z"
             inkscape:connector-curvature="0"
             style="stroke-width:0.03527778" />
          <path
             id="path4545"
             d="m 329.79129,88.786218 c -0.59973,0.38805 -1.19946,0.98778 -1.30529,1.34055 -0.0705,0.35278 -0.35277,4.23334 -0.59971,8.67834 -0.45863,8.219722 -0.35279,9.066392 0.84667,8.607782 0.635,-0.24695 0.81137,-1.55223 1.37583,-9.736672 l 0.42334,-6.49111 1.16416,-0.45861 c 3.03387,-1.27 6.42054,0.3175 4.445,2.04611 -0.35279,0.3175 -1.30529,0.88194 -2.15196,1.30528 -2.08137,1.05833 -2.89277,1.97555 -2.89277,3.24555 0,1.44639 2.25777,6.244172 3.59834,7.620002 1.16416,1.19945 1.83443,1.41111 2.75166,0.81139 0.42334,-0.28222 0.3175,-0.52917 -0.59973,-1.48167 -1.19943,-1.23472 -3.28083,-5.432772 -3.28083,-6.596942 0,-0.45861 0.67029,-1.09361 2.04613,-1.94028 3.70416,-2.2225 4.19803,-5.36222 1.0936,-6.94972 -1.83444,-0.91722 -5.36223,-0.91722 -6.91444,0 z"
             inkscape:connector-curvature="0"
             style="stroke-width:0.03527778" />
          <path
             id="path4555"
             d="m 277.3685,101.06289 c -0.56444,0.52916 -0.17637,1.55222 0.8114,2.04611 1.19943,0.635 7.47889,0.74083 8.99583,0.17639 1.16417,-0.42334 1.05833,-1.44639 -0.1764,-1.76389 -1.30527,-0.35278 -9.38387,-0.74084 -9.63083,-0.45861 z"
             inkscape:connector-curvature="0"
             style="stroke-width:0.03527778" />
          <path
             id="path4563"
             d="m 292.1499,126.49816 c -4.7625,4.445 -8.29027,8.255 -10.54807,11.39472 -1.97554,2.78695 -2.39887,3.84528 -1.97554,4.65667 0.56444,0.9525 1.19944,0.70556 2.25777,-0.91722 2.0814,-3.13972 5.08,-6.59695 10.12473,-11.7475 5.08,-5.15056 5.96194,-6.49111 4.72721,-6.94972 -0.3175,-0.14111 -2.0461,1.23472 -4.5861,3.56305 z"
             inkscape:connector-curvature="0"
             style="stroke-width:0.03527778" />
          <path
             id="path4565"
             d="m 300.4049,125.6515 c -3.06917,2.2225 -7.69057,7.54944 -11.2889,12.94694 -2.96334,4.445 -3.4925,5.3975 -3.175,5.96194 0.21166,0.38806 0.4939,0.70556 0.635,0.70556 0.45863,0 2.01083,-1.79917 3.81,-4.445 4.51556,-6.56167 5.99723,-8.39611 9.27806,-11.46528 3.4925,-3.24555 4.1275,-4.26861 2.9986,-4.69194 -0.70553,-0.28222 -0.42333,-0.38806 -2.25776,0.98778 z"
             inkscape:connector-curvature="0"
             style="stroke-width:0.03527778" />
          <path
             id="path4571"
             d="m 314.3749,129.10872 c -0.24694,0.45861 -0.70557,1.5875 -1.02307,2.57528 -0.2822,0.9525 -0.88193,2.8575 -1.30527,4.23333 -0.42333,1.34055 -0.84666,3.81 -0.9525,5.46805 -0.21166,2.96334 -0.1764,2.99862 0.88194,4.16278 0.70556,0.74084 1.37583,1.12889 2.0814,1.12889 1.23473,0 3.28083,-1.19944 3.28083,-1.97555 0,-0.45862 -0.35277,-0.52917 -2.01083,-0.42334 l -2.04611,0.10584 0.0353,-2.46945 c 0.0353,-1.83444 0.42334,-3.73944 1.55223,-7.44361 0.84667,-2.75167 1.41111,-5.25639 1.30527,-5.57389 -0.3175,-0.81139 -1.19943,-0.70555 -1.79916,0.21167 z"
             inkscape:connector-curvature="0"
             style="stroke-width:0.03527778" />
          <path
             id="path4575"
             d="m 369.9374,134.224 c -0.38807,1.34055 -0.74084,2.71638 -0.8114,3.06916 -0.10584,0.67028 -0.59971,1.05834 -1.76387,1.41111 -0.91723,0.28223 -0.77613,1.44639 0.24693,1.905 0.7761,0.35278 0.88194,0.635 0.88194,2.25778 0,2.25778 0.56446,3.4925 1.905,4.1275 0.88196,0.42333 1.16416,0.38806 2.18723,-0.10583 0.7761,-0.35278 1.19943,-0.81139 1.19943,-1.23472 0,-0.56445 -0.2822,-0.70556 -1.48166,-0.81139 l -1.51694,-0.10584 -0.10583,-1.83444 c -0.10583,-1.76389 -0.0706,-1.86972 0.88193,-2.04611 2.2225,-0.45861 2.75167,-0.74084 2.75167,-1.41111 0,-0.56445 -0.2822,-0.74084 -1.48167,-0.81139 -0.84666,-0.0706 -1.51693,-0.28222 -1.51693,-0.49389 0,-0.17639 0.24693,-1.44639 0.56443,-2.75167 0.6703,-2.64583 0.52917,-3.52778 -0.52916,-3.52778 -0.56444,0 -0.84667,0.45862 -1.4111,2.36362 z"
             inkscape:connector-curvature="0"
             style="stroke-width:0.03527778" />
          <path
             id="path4583"
             d="m 338.92823,133.34205 c -0.38807,0.52917 -0.70557,3.175 -0.98777,8.5725 -0.1764,3.31611 -0.14113,3.98639 0.35277,4.37445 0.7761,0.67027 1.62277,0.21166 1.62277,-0.84667 0,-1.12889 0.35279,-1.12889 1.4464,0.0353 0.9525,1.05833 2.9986,2.04611 3.4925,1.72861 0.70556,-0.42334 0.3175,-1.12889 -1.7639,-3.175 -1.16417,-1.16417 -2.11667,-2.2225 -2.11667,-2.36361 0,-0.14111 0.77613,-0.59973 1.72863,-0.98778 0.9525,-0.42333 2.15194,-1.23472 2.6811,-1.76389 l 0.98777,-1.02306 -0.84667,-0.3175 c -0.635,-0.24694 -1.34053,-0.10583 -2.75166,0.49389 -1.02304,0.45861 -1.97554,0.84667 -2.11667,0.84667 -0.1411,0 -0.17637,-1.12889 -0.10583,-2.46944 0.1764,-2.96334 -0.56444,-4.37445 -1.62277,-3.10445 z"
             inkscape:connector-curvature="0"
             style="stroke-width:0.03527778" />
          <path
             id="path4589"
             d="m 444.90266,136.09372 c -0.70553,1.51694 -1.27,2.96333 -1.27,3.21028 0,0.21166 -0.35276,0.67027 -0.74083,0.98777 -0.635,0.49389 -0.70554,0.74084 -0.35277,1.37584 0.21167,0.38805 0.38807,1.41111 0.38807,2.25777 0.0353,2.89278 1.8697,5.57389 3.81,5.57389 1.30527,0 2.8575,-0.98777 3.10443,-1.97555 0.3175,-1.23472 -0.0706,-1.44639 -1.30527,-0.74084 -1.65806,0.91723 -2.39889,0.77612 -2.99863,-0.635 -0.24693,-0.67027 -0.49387,-1.83444 -0.49387,-2.57527 v -1.37584 l 2.18721,-0.24694 c 2.46946,-0.24695 3.10446,-0.635 2.54,-1.55222 -0.24694,-0.38806 -1.02304,-0.67028 -2.18721,-0.77611 l -1.79916,-0.17639 1.05833,-2.39889 c 1.12887,-2.50472 1.0936,-3.77472 0,-3.77472 -0.45863,0 -1.02306,0.81138 -1.9403,2.82222 z"
             inkscape:connector-curvature="0"
             style="stroke-width:0.03527778" />
          <path
             id="path4591"
             d="m 420.84323,134.04761 c -0.1764,0.24694 -0.52917,1.41111 -0.84667,2.57527 -0.52916,2.08139 -0.56443,2.11667 -1.94027,2.32834 -1.905,0.28222 -4.02166,1.34055 -4.86833,2.50472 -0.38806,0.52917 -0.70556,1.55222 -0.74083,2.39889 -0.0353,1.23472 0.1411,1.62278 1.12887,2.50472 1.62279,1.44639 3.28083,1.30528 5.22113,-0.45861 0.74083,-0.67028 0.7761,-0.67028 2.08137,0.21167 2.32833,1.5875 2.89279,1.12889 1.37583,-1.09361 -1.02304,-1.55223 -1.02304,-2.92806 0.0706,-7.54945 0.3175,-1.44639 0.52916,-2.92805 0.38806,-3.24555 -0.24696,-0.70556 -1.48167,-0.81139 -1.86973,-0.17639 z m -2.43417,8.43139 c -0.8114,1.55222 -1.83443,2.43416 -2.82223,2.43416 -0.9525,0 -1.12887,-0.635 -0.52917,-1.76389 0.45863,-0.84666 2.01084,-1.72861 3.10447,-1.76389 0.7761,0 0.7761,0.0353 0.24693,1.09362 z"
             inkscape:connector-curvature="0"
             style="stroke-width:0.03527778" />
          <path
             id="path4613"
             d="m 471.32573,136.19955 c -0.98777,1.51695 -2.64583,7.05556 -2.64583,8.78417 0,2.08139 0.81139,3.81 1.79916,3.81 0.88194,0 1.19944,-0.77611 0.67027,-1.76389 -0.635,-1.19945 -0.1411,-1.27 1.7639,-0.21167 2.01083,1.09361 3.3514,1.09361 3.3514,0.0706 0,-0.45861 -0.56447,-1.02306 -1.55223,-1.62278 -0.88194,-0.49389 -1.62277,-1.05833 -1.69334,-1.27 -0.0706,-0.17639 0.7761,-0.77611 1.86973,-1.30528 1.5875,-0.81139 1.94027,-1.09361 1.83444,-1.76389 -0.0706,-0.635 -0.28223,-0.74083 -1.16417,-0.67027 -0.56443,0.0705 -1.5875,0.42333 -2.2225,0.81138 -0.635,0.35278 -1.23473,0.67028 -1.34056,0.67028 -0.3175,0 -0.10584,-1.12889 0.59973,-3.175 0.38806,-1.19944 0.635,-2.36361 0.52917,-2.64583 -0.28224,-0.77611 -1.19944,-0.635 -1.79917,0.28222 z"
             inkscape:connector-curvature="0"
             style="stroke-width:0.03527778" />
          <path
             id="path4617"
             d="m 319.84296,138.42205 c -0.9878,0.70556 -2.0814,2.99861 -1.9403,4.09222 0.0353,0.45861 0.10584,0.98778 0.10584,1.23473 0.0353,0.21166 0.45863,0.88194 0.9525,1.48166 0.77613,0.9525 1.1289,1.09361 2.61056,1.09361 2.57527,0 4.5861,-2.01083 4.5861,-4.51555 0,-1.76389 -1.0936,-2.61056 -4.93887,-3.81 -0.28223,-0.10584 -0.91723,0.10583 -1.37583,0.42333 z m 2.54,2.43417 c 0.38804,0.24694 0.88194,0.38805 1.16417,0.28222 0.35277,-0.14111 0.49387,0.10583 0.49387,0.70556 0,0.91722 -1.55221,2.36361 -2.54,2.36361 -1.19944,0 -1.7286,-1.76389 -0.98777,-3.21028 0.42333,-0.77611 0.98777,-0.84667 1.86973,-0.14111 z"
             inkscape:connector-curvature="0"
             style="stroke-width:0.03527778" />
          <path
             id="path4621"
             d="m 328.41546,139.83316 c -1.6228,1.5875 -1.6228,1.62278 -1.48167,3.59834 0.14111,1.62277 0.35277,2.08138 1.19944,2.78694 1.27,0.98778 2.43417,1.02306 3.9511,0.10583 1.55223,-0.9525 2.54,-2.68111 2.54,-4.48027 0,-1.37584 -0.10583,-1.55223 -1.37583,-2.2225 -0.7761,-0.38806 -1.48167,-0.84667 -1.62277,-1.05834 -0.4586,-0.74083 -1.65807,-0.28222 -3.21027,1.27 z m 3.03387,1.16417 c 0,0.17639 0.3175,0.38805 0.70557,0.49389 0.9525,0.24694 0.88193,0.67028 -0.35277,2.01083 -1.97557,2.11667 -3.88057,0.38806 -2.11667,-1.86972 0.74083,-0.91722 1.76387,-1.30528 1.76387,-0.635 z"
             inkscape:connector-curvature="0"
             style="stroke-width:0.03527778" />
          <path
             id="path4623"
             d="m 359.31879,138.84538 c -2.78696,1.09362 -4.83306,5.32695 -3.42196,7.16139 1.27,1.65806 3.13973,1.76389 5.15057,0.3175 l 1.48166,-1.09361 0.91723,0.74084 c 1.02304,0.81138 2.99861,0.9525 3.59834,0.21166 0.4586,-0.52916 0.0353,-1.02305 -1.3053,-1.44639 -1.2347,-0.35277 -1.94027,-1.65805 -1.48167,-2.78694 0.59974,-1.65806 0.42334,-2.11667 -1.34053,-2.96333 -1.905,-0.91723 -1.5875,-0.91723 -3.59834,-0.14112 z m 2.68111,2.39889 c -0.10584,0.3175 -0.21167,0.67028 -0.21167,0.84667 0,0.67028 -2.57527,2.82222 -3.38667,2.82222 -1.23473,0 -1.0936,-1.05833 0.3175,-2.36361 1.86973,-1.76389 3.73944,-2.50472 3.28084,-1.30528 z"
             inkscape:connector-curvature="0"
             style="stroke-width:0.03527778" />
          <path
             id="path4625"
             d="m 387.29406,138.9865 c -0.91723,1.02305 -1.0936,1.62277 -1.51693,4.55083 -0.42334,2.92805 -0.0353,4.30389 1.12887,4.1275 0.84666,-0.10583 1.41113,-1.72861 1.86973,-5.25639 l 0.21167,-1.65806 1.905,-0.24694 c 2.0461,-0.24694 3.6336,-1.19944 3.21026,-1.86972 -0.17637,-0.28222 -1.34053,-0.42334 -3.175,-0.42334 -2.57526,0 -2.9986,0.10584 -3.6336,0.77612 z"
             inkscape:connector-curvature="0"
             style="stroke-width:0.03527778" />
          <path
             id="path4627"
             d="m 396.64266,139.26872 c -2.2225,0.67028 -4.16276,2.82222 -4.16276,4.58611 0,0.38805 0.3175,1.37583 0.74083,2.15194 0.7761,1.55223 2.29306,2.43417 4.19806,2.43417 1.51694,0 3.24554,-0.9525 3.10444,-1.69333 -0.10583,-0.49389 -0.59973,-0.635 -2.50473,-0.70556 -2.0461,-0.10583 -2.43417,-0.21167 -2.92804,-0.9525 -0.74083,-1.12889 -0.38806,-1.5875 1.2347,-1.5875 2.54,0 4.6214,-1.30528 4.6214,-2.92805 0,-1.34056 -2.0814,-1.97556 -4.3039,-1.30528 z"
             inkscape:connector-curvature="0"
             style="stroke-width:0.03527778" />
          <path
             id="path4629"
             d="m 404.051,140.50344 -1.62277,0.88194 -0.24694,2.29306 c -0.28223,2.57528 0.21167,3.81 1.79917,4.40972 1.4111,0.56445 2.11667,0.42334 3.28083,-0.56444 0.81137,-0.67028 1.34054,-0.84667 1.97554,-0.70556 0.9878,0.24695 2.64583,-0.42333 2.64583,-1.05833 0,-0.24695 -0.56443,-0.56445 -1.2347,-0.70556 -1.19946,-0.21166 -1.23473,-0.24694 -1.1289,-1.86972 0.0706,-1.44639 -0.0353,-1.62278 -0.70556,-1.72861 -0.49387,-0.0706 -0.81137,-0.38806 -0.88194,-0.88194 -0.1411,-1.12889 -1.83443,-1.12889 -3.88056,-0.0706 z m 3.42196,2.36361 c -0.3175,1.65806 -1.34056,2.89278 -2.3989,3.03389 -0.8114,0.10583 -0.9525,0 -0.9525,-0.81139 0,-1.09361 2.0461,-3.35139 2.9986,-3.35139 0.45863,0 0.52917,0.21167 0.3528,1.12889 z"
             inkscape:connector-curvature="0"
             style="stroke-width:0.03527778" />
          <path
             id="path4631"
             d="m 455.8035,140.15066 c -0.17637,0.0706 -0.91721,0.21167 -1.62277,0.3175 -1.05833,0.17639 -1.37583,0.49389 -2.18723,1.97556 -1.16417,2.15194 -1.23471,4.1275 -0.21167,5.43278 0.91723,1.12888 2.64583,1.23472 3.95113,0.17638 0.7761,-0.59972 1.12887,-0.635 2.15194,-0.38805 0.91723,0.28222 1.37583,0.21167 1.97556,-0.17639 0.9172,-0.635 0.7761,-1.23472 -0.38806,-1.51694 -0.70557,-0.17639 -0.8114,-0.42334 -0.74084,-1.27 0.28223,-3.13973 0.28223,-3.13973 -0.67027,-3.24556 -0.59973,-0.0706 -1.02306,-0.38806 -1.12889,-0.81139 -0.1764,-0.635 -0.38807,-0.74083 -1.1289,-0.49389 z m 0.70556,2.89278 c -0.1411,0.35278 -0.35277,0.9525 -0.4586,1.34056 -0.24696,1.02305 -1.51696,2.29305 -2.2578,2.29305 -0.4586,0 -0.635,-0.28222 -0.635,-1.02305 0,-0.77612 0.3528,-1.34056 1.3053,-2.11667 1.48167,-1.23472 2.43417,-1.44639 2.0461,-0.49389 z"
             inkscape:connector-curvature="0"
             style="stroke-width:0.03527778" />
          <path
             id="path4633"
             d="m 429.9449,141.80872 c -1.79917,3.35139 -3.59834,4.02166 -3.59834,1.34055 0,-1.65805 -0.84666,-2.29305 -1.62277,-1.23472 -1.30529,1.76389 -0.10583,4.48028 2.2225,5.18583 1.79917,0.52917 1.83444,0.67028 0.635,4.19806 -1.09363,3.13972 -2.29306,5.04472 -3.81,5.96194 -1.5875,0.98778 -2.18723,0.88195 -3.03389,-0.52916 -0.38807,-0.67028 -0.88194,-1.23473 -1.09361,-1.23473 -0.56446,0 -0.42333,2.08139 0.24694,3.21028 1.7286,2.89278 6.1736,0.88195 8.53723,-3.88055 1.97554,-3.88056 4.02167,-12.62945 3.21027,-13.61722 -0.635,-0.77612 -1.02307,-0.67028 -1.69333,0.59972 z"
             inkscape:connector-curvature="0"
             style="stroke-width:0.03527778" />
          <path
             id="path4635"
             d="m 463.14129,141.73816 c -0.98779,0.59972 -1.16416,0.88195 -1.16416,2.08139 0,1.05833 0.21166,1.62278 0.9172,2.29306 1.1289,1.02305 0.91723,1.48166 -0.9172,1.97555 -0.77613,0.21167 -1.41113,0.56445 -1.41113,0.81139 0,0.70556 0.77613,1.30528 1.65806,1.30528 2.92807,0 5.36223,-3.98639 3.10444,-5.00945 -0.49387,-0.21166 -0.91721,-0.52916 -0.91721,-0.70555 -0.17639,-0.91722 -0.0706,-1.16417 0.74084,-1.34056 0.635,-0.14111 0.88193,-0.45861 0.88193,-1.05833 0,-1.16417 -1.34056,-1.34056 -2.89277,-0.35278 z"
             inkscape:connector-curvature="0"
             style="stroke-width:0.03527778" />
          <path
             id="path4637"
             d="m 478.76933,143.07872 c -0.70554,1.37583 -0.52917,2.04611 0.84667,3.4925 l 1.19946,1.23472 -0.84667,0.67028 c -0.49389,0.35278 -1.41113,0.84666 -2.04613,1.05833 -1.2347,0.42333 -1.4111,1.19945 -0.38803,1.83445 0.7761,0.49388 2.57527,-0.28223 4.2686,-1.79917 1.05833,-0.9525 1.34056,-1.48167 1.34056,-2.39889 0,-1.02306 -0.17639,-1.27 -1.23473,-1.69333 -1.4111,-0.59973 -1.51693,-0.98778 -0.52916,-1.97556 0.91723,-0.91722 0.635,-1.41111 -0.88194,-1.41111 -0.9878,0 -1.3053,0.21167 -1.72863,0.98778 z"
             inkscape:connector-curvature="0"
             style="stroke-width:0.03527778" />
          <path
             id="path4645"
             d="m 278.60323,161.17622 c -1.86973,1.69333 -8.36083,8.96055 -10.3011,11.53583 -1.83447,2.43417 -2.18723,3.81 -1.16417,4.19806 0.42333,0.17638 0.9172,-0.17639 1.65804,-1.12889 2.32833,-2.92806 10.26583,-12.41778 11.43,-13.6525 1.94029,-2.08139 0.52916,-2.92806 -1.62277,-0.9525 z"
             inkscape:connector-curvature="0"
             style="stroke-width:0.03527778" />
          <path
             id="path4647"
             d="m 282.6249,165.09205 c -4.33917,4.40972 -9.3839,10.54806 -9.3839,11.43 0,0.21167 0.24696,0.635 0.56446,0.88194 0.67027,0.52917 0.9172,0.28223 6.3147,-6.17361 1.72863,-2.08139 4.4803,-5.04472 6.10307,-6.63222 2.9986,-2.89278 3.45723,-3.88055 1.86973,-4.09222 -0.6703,-0.10583 -1.72863,0.77611 -5.46806,4.58611 z"
             inkscape:connector-curvature="0"
             style="stroke-width:0.03527778" />
          <path
             id="path4651"
             d="m 348.94713,163.89261 c -0.28223,0.52916 -0.70557,1.94027 -0.91723,3.175 -0.42334,2.08138 -0.77611,2.61055 -1.23474,1.83444 -0.635,-1.02306 -5.2211,0.35278 -6.52637,1.94028 -0.74083,0.88194 -1.41113,2.99861 -1.41113,4.48028 0,0.98777 0.24697,1.48166 1.09363,2.18722 1.94027,1.62278 4.37444,1.65805 6.10304,0.0353 1.09363,-0.98778 1.48167,-1.09362 1.86973,-0.38806 0.4939,0.81139 1.905,1.37583 2.32834,0.9525 0.28223,-0.28222 0.24693,-0.70556 -0.1764,-1.55222 -1.0936,-2.08139 -1.0936,-2.8575 0.0353,-6.38528 0.59971,-1.86972 1.09361,-4.09222 1.09361,-4.90361 0,-2.36361 -1.30527,-3.175 -2.25777,-1.37583 z m -1.79917,7.37305 c -0.28223,1.65806 -1.72863,4.19806 -2.64583,4.69195 -1.16417,0.59972 -2.75167,0.42333 -3.175,-0.38806 -0.56447,-1.05833 1.02303,-3.38667 2.75166,-4.05694 0.70554,-0.28223 1.69334,-0.70556 2.18721,-0.98778 0.4939,-0.28222 0.9525,-0.52917 1.02306,-0.52917 0.0706,-0.0353 0,0.56445 -0.1411,1.27 z"
             inkscape:connector-curvature="0"
             style="stroke-width:0.03527778" />
          <path
             id="path4653"
             d="m 309.04796,164.98622 c -1.65806,1.02305 -2.64583,2.29305 -2.8928,3.66889 -0.3175,1.94027 0.10584,2.96333 1.65807,3.98638 0.7761,0.52917 1.4111,1.05834 1.4111,1.19945 0,0.14111 -0.635,0.52917 -1.4111,0.88194 -1.05833,0.49389 -1.62277,0.56445 -2.2225,0.28223 -1.02307,-0.45862 -1.65807,-0.21167 -1.65807,0.59972 0,0.81139 1.27,1.76389 2.3989,1.76389 1.16417,0 3.10444,-0.88195 4.69194,-2.11667 l 1.34056,-1.09361 0.24694,0.91722 c 0.45863,1.83445 2.78696,2.46945 5.29166,1.41111 0.88197,-0.35278 1.19947,-0.70555 1.1289,-1.12889 -0.10583,-0.52916 -0.42333,-0.59972 -2.15193,-0.52916 -1.72863,0.10583 -2.01084,0.0353 -2.01084,-0.49389 0,-0.77611 1.65804,-2.96334 2.25777,-2.96334 0.28223,0 0.67027,-0.24694 0.91723,-0.52916 0.59971,-0.74084 -0.14113,-1.5875 -1.41113,-1.5875 -1.27,0 -2.54,1.02305 -3.35137,2.78694 -0.74083,1.55222 -1.05833,1.72861 -1.34056,0.91722 -0.1411,-0.28222 -0.8114,-0.81138 -1.55223,-1.16416 -0.74084,-0.38806 -1.62277,-1.02306 -1.97554,-1.41111 -0.59973,-0.67028 -0.59973,-0.77611 -0.10583,-1.76389 0.635,-1.23472 1.83443,-2.18722 2.78693,-2.18722 0.70557,0 1.19944,-0.9525 0.74084,-1.41112 -0.70557,-0.635 -1.7639,-0.67027 -2.78694,-0.0353 z"
             inkscape:connector-curvature="0"
             style="stroke-width:0.03527778" />
          <path
             id="path4655"
             d="m 323.05323,164.73927 c -0.21167,0.24695 -0.635,1.48167 -0.9525,2.75167 -0.3175,1.27 -0.9525,3.52778 -1.4464,5.04472 -1.02304,3.35139 -1.02304,3.63361 -0.1411,4.1275 0.635,0.35278 0.98777,0.10583 2.78693,-1.5875 1.1289,-1.05833 2.2225,-1.94028 2.43417,-1.94028 0.21167,0 0.42333,0.67028 0.4939,1.44639 0.10583,1.69334 0.9525,2.50472 1.94027,1.86972 0.4939,-0.3175 0.8114,-0.21166 1.55223,0.59973 0.74083,0.81139 1.27,1.02305 2.43417,1.02305 1.79916,0 2.82223,-0.52916 2.82223,-1.41111 0,-0.59972 -0.24697,-0.70555 -1.7639,-0.70555 -1.51694,0 -1.7639,-0.10584 -1.7639,-0.70556 0,-0.59972 0.24696,-0.70556 1.55223,-0.70556 2.01084,0 3.88057,-1.19944 4.02167,-2.64583 0.24693,-1.905 -2.18723,-2.61055 -4.445,-1.23472 -0.635,0.38805 -1.48167,0.70555 -1.86973,0.70555 -0.38804,0 -0.74084,0.21167 -0.81137,0.42334 -0.0706,0.24694 -0.3528,1.23472 -0.59973,2.15194 -0.45861,1.83445 -1.02307,1.65806 -1.02307,-0.35278 0,-1.94027 -0.56443,-2.92805 -1.65804,-2.92805 -0.56446,0.0353 -1.37583,0.24694 -1.86973,0.52917 -1.65806,0.9525 -1.69333,0.91722 -0.59973,-3.10445 0.74083,-2.68111 0.0706,-4.72722 -1.0936,-3.35139 z"
             inkscape:connector-curvature="0"
             style="stroke-width:0.03527778" />
          <path
             id="path4657"
             d="m 365.73933,164.73927 c -0.21167,0.21167 -0.42333,0.59972 -0.42333,0.84667 0,0.24694 -0.67027,2.04611 -1.48167,4.05694 -0.81137,2.01084 -1.5875,4.30389 -1.7286,5.04473 -0.28223,1.51694 0.21167,3.31611 1.05833,3.98638 0.88194,0.67028 2.6811,0.56445 3.3514,-0.21166 0.9525,-1.02306 0.56444,-1.62278 -0.9525,-1.51695 -1.27,0.10584 -1.3053,0.10584 -1.3053,-1.09361 0,-0.70555 0.74084,-3.10444 1.6228,-5.36222 0.88194,-2.25778 1.5522,-4.51556 1.48167,-5.04472 -0.10584,-1.02306 -0.91723,-1.41111 -1.6228,-0.70556 z"
             inkscape:connector-curvature="0"
             style="stroke-width:0.03527778" />
          <path
             id="path4659"
             d="m 359.03656,170.73649 c -0.1764,0.24695 -0.635,1.30528 -0.9525,2.32834 -0.35277,1.02305 -0.91723,2.25778 -1.34056,2.75166 -0.9525,1.23473 -1.48167,0.635 -0.98777,-1.12888 0.52917,-1.94028 0.4939,-3.31612 -0.1411,-3.52778 -0.8114,-0.3175 -1.41113,0.35278 -1.86973,2.2225 -0.59974,2.32833 -0.635,4.55083 -0.0706,5.22111 1.16417,1.37583 4.23333,0.0705 5.50333,-2.36361 0.88197,-1.69334 1.6228,-4.48028 1.37584,-5.22111 -0.24694,-0.81139 -0.98777,-0.91723 -1.51694,-0.28223 z"
             inkscape:connector-curvature="0"
             style="stroke-width:0.03527778" />
          <path
             id="path4661"
             d="m 372.01879,171.61844 c -0.49389,0.3175 -1.37583,1.05833 -2.01083,1.62278 -2.15196,2.01083 -1.83446,5.50333 0.5997,6.77333 1.9403,0.98778 4.58613,0.49389 4.58613,-0.88194 0,-0.59973 -0.24696,-0.70556 -1.37583,-0.70556 -0.8114,0 -1.69333,-0.28222 -2.15196,-0.635 -0.84667,-0.67028 -0.70554,-1.48167 0.21166,-1.48167 0.6703,0 3.28084,-1.30527 4.1628,-2.08139 1.0936,-0.9525 1.37583,-2.15194 0.67027,-2.71638 -0.88194,-0.67028 -3.6336,-0.59973 -4.69194,0.10583 z"
             inkscape:connector-curvature="0"
             style="stroke-width:0.03527778" />
          <path
             id="path4671"
             d="m 232.4599,182.8015 c -0.42334,1.12888 0.0706,1.76388 1.76389,2.39888 2.71637,0.9525 2.89277,1.27 2.39887,3.88056 -0.24693,1.23473 -0.7761,3.21027 -1.16416,4.445 -0.84667,2.54 -0.67027,3.0339 1.27,3.38667 0.67029,0.1411 1.23473,0.38806 1.23473,0.56443 0,0.14113 -0.70557,0.70557 -1.62277,1.23473 -0.88196,0.4939 -1.7639,1.30527 -1.97556,1.7639 -0.3175,0.74083 -0.24694,1.05833 0.59973,2.15194 1.44637,1.86973 1.51693,3.73943 0.2822,6.13833 -0.70554,1.37583 -1.34054,2.0814 -2.11667,2.43417 -1.37582,0.59973 -1.51693,1.55223 -0.3175,2.32833 0.77613,0.52917 0.9525,0.52917 1.905,0.0353 1.4464,-0.74083 3.175,-3.21027 3.81,-5.43277 0.59974,-2.0461 0.45863,-4.445 -0.38803,-6.06777 -0.45863,-0.88196 -0.42334,-0.9525 1.34053,-2.01083 1.02307,-0.59973 2.2225,-1.51696 2.68113,-2.01084 1.19944,-1.30529 0.635,-2.50473 -1.44639,-3.03389 -2.46944,-0.635 -2.75167,-0.74084 -2.75167,-0.98777 0,-0.14113 0.24693,-1.37584 0.52917,-2.7164 1.05833,-5.00944 0.52916,-6.77333 -2.3989,-8.14917 -2.08137,-0.9525 -3.35137,-1.09361 -3.6336,-0.35277 z"
             inkscape:connector-curvature="0"
             style="stroke-width:0.03527778" />
        </g>
        <path
           style="stroke-width:0.03527778"
           inkscape:connector-curvature="0"
           d="m 625.27793,190.4215 c -1.8697,0.17638 -4.02166,0.56444 -4.7625,0.88194 -1.34053,0.56444 -1.34053,0.59973 -0.67027,1.1289 0.52917,0.38804 1.23474,0.4586 2.82224,0.3175 5.15053,-0.4939 20.88443,-0.6703 23.8125,-0.24696 6.27943,0.88196 9.56026,1.79916 14.07583,3.95112 3.98637,1.905 4.65667,2.36361 7.69054,5.32694 3.77473,3.70417 4.97416,5.5386 5.60916,8.5725 1.02307,4.65667 0.38807,6.35 -3.6336,10.08944 -3.81,3.4925 -9.94833,5.96196 -18.97943,7.62 -4.7978,0.88196 -6.0678,0.9525 -13.40557,0.9525 -4.445,0 -9.3839,-0.21167 -10.9361,-0.42334 -1.55223,-0.24693 -4.97417,-0.67027 -7.58473,-0.9525 -2.61057,-0.2822 -5.32694,-0.67027 -5.99723,-0.88193 -0.67027,-0.1764 -2.29304,-0.35277 -3.59834,-0.35277 -2.25777,0 -2.39887,0.0353 -3.21027,1.12887 -0.49389,0.635 -1.30526,2.01083 -1.79916,2.99863 -1.4464,2.89277 -1.5875,2.6811 -2.15194,-3.2103 -0.10583,-1.12887 -0.35279,-2.3636 -0.52916,-2.71637 -0.24697,-0.42333 -1.48167,-0.98779 -3.45724,-1.5875 -4.7625,-1.4464 -6.45583,-2.32833 -8.11389,-4.19806 -2.39887,-2.7164 -2.43417,-5.43277 -0.10584,-10.30111 2.68113,-5.60916 8.14917,-12.17083 11.32417,-13.6525 2.64583,-1.19946 11.99446,-1.23473 17.92113,0 0.88193,0.17638 1.12887,0.10584 1.12887,-0.35279 0,-1.51694 -4.19804,-2.39887 -11.60637,-2.3636 -7.86696,0.0353 -8.85473,0.35277 -12.66473,4.05693 -3.13973,2.99863 -5.75027,6.63223 -8.04334,11.1125 -1.55223,3.10446 -1.69333,3.56307 -1.83443,6.42057 -0.14113,2.8575 -0.0706,3.24556 0.74083,4.65666 1.79917,3.0339 4.79777,4.9389 10.12471,6.42057 l 2.64583,0.74083 0.45863,3.6336 c 0.49387,3.95111 1.12887,5.92667 2.01083,6.24417 1.02304,0.38806 2.25777,-0.4939 3.24554,-2.32833 0.56446,-1.02307 1.41113,-2.50473 1.9403,-3.38667 l 0.9525,-1.55223 1.69333,0.21167 c 0.9172,0.10583 2.25777,0.35279 2.92804,0.52916 2.50473,0.6703 16.22779,2.11667 22.225,2.32834 6.87916,0.21166 11.04196,-0.14111 17.99166,-1.55221 8.53723,-1.72863 14.7814,-4.40973 18.55613,-7.9375 3.03387,-2.8575 4.02167,-4.83306 4.02167,-8.21973 0,-5.08 -1.3053,-7.72583 -6.24417,-12.59417 -3.88056,-3.84527 -4.23333,-4.09223 -7.7964,-5.89139 -4.33916,-2.18721 -6.13833,-2.82221 -10.83026,-3.81 -3.81,-0.81138 -5.18584,-0.91721 -13.40557,-0.98777 -5.04473,-0.0706 -10.68917,0 -12.5589,0.17639 z"
           id="path4673" />
        <path
           style="stroke-width:0.03527778"
           inkscape:connector-curvature="0"
           d="m 554.93406,198.50011 c -1.34056,0.56443 -2.01083,1.65806 -2.04613,3.45723 -0.0705,1.69333 -0.0705,1.69333 1.51697,2.46943 1.02303,0.4939 1.5875,0.98777 1.5875,1.41111 0,0.70556 -0.9525,0.81139 -2.78697,0.28223 -0.9172,-0.24694 -0.98777,-0.21167 -0.74083,0.56443 0.3175,1.1289 1.55223,2.0814 2.64583,2.0814 1.41113,0 3.06917,-1.19944 3.3514,-2.46944 0.28223,-1.30529 -0.35277,-2.18723 -2.3636,-3.21029 -1.37583,-0.70554 -1.72863,-1.65804 -0.88196,-2.3636 0.24696,-0.21167 1.62279,-0.42334 3.06916,-0.4939 2.0814,-0.0705 2.64584,-0.21167 2.64584,-0.635 0,-1.05833 -4.23334,-1.79917 -5.99721,-1.0936 z"
           id="path4675" />
        <path
           style="stroke-width:0.03527778"
           inkscape:connector-curvature="0"
           d="m 602.38266,200.72261 c -0.88193,0.17639 -1.76389,0.52916 -2.01083,0.74083 -0.4586,0.4939 -0.8114,13.89944 -0.35277,14.605 0.17637,0.28223 1.02304,0.35277 2.82221,0.21167 4.19806,-0.3175 6.49113,-2.04611 6.84389,-5.11527 0.1764,-1.37584 0.0706,-1.72863 -0.91723,-2.82223 -1.2347,-1.41111 -1.30527,-1.7639 -0.56443,-2.3989 0.70556,-0.59971 0.67027,-2.82221 -0.0353,-3.84527 -0.635,-0.88194 -2.54,-1.83444 -3.56307,-1.7639 -0.35276,0.0353 -1.34056,0.21167 -2.2225,0.38807 z m 3.81,2.25777 0.8114,0.56446 -0.74083,1.12887 c -0.9878,1.62279 -0.88196,2.78696 0.35277,4.16279 1.19943,1.30527 1.27,1.65804 0.4939,3.13971 -0.635,1.23473 -3.31613,2.61056 -4.4803,2.29306 -0.74083,-0.17639 -0.7761,-0.3175 -0.74083,-5.67973 0,-4.37443 0.14113,-5.60916 0.52916,-5.8561 0.77613,-0.4939 2.92807,-0.35277 3.77473,0.24694 z"
           id="path4677" />
        <path
           style="stroke-width:0.03527778"
           inkscape:connector-curvature="0"
           d="m 613.84793,203.19204 c -0.70553,1.7639 -1.48166,5.3975 -1.76387,8.21973 -0.21166,2.15194 -0.10583,2.68111 0.59971,4.05694 0.84666,1.62279 1.48166,1.97556 2.96333,1.62279 1.1289,-0.28223 1.09363,-1.19946 -0.0705,-1.48166 -1.79916,-0.45863 -1.97556,-2.8928 -0.635,-8.21973 0.98777,-3.91584 0.98777,-5.08 0.0353,-5.2564 -0.42333,-0.0705 -0.7761,0.24696 -1.1289,1.05833 z"
           id="path4679" />
        <path
           style="stroke-width:0.03527778"
           inkscape:connector-curvature="0"
           d="m 657.31016,204.77954 c -0.10583,0.3528 -0.28223,1.27 -0.42333,2.04613 -0.1411,0.7761 -0.4586,1.905 -0.7761,2.54 -0.45863,0.98777 -0.6703,1.0936 -1.51696,0.9525 -1.48167,-0.3175 -3.10444,0.70554 -3.91584,2.43417 -0.81137,1.79916 -0.84666,3.10443 -0.1411,4.48027 0.9525,1.79916 2.50473,2.2225 4.37444,1.16416 1.02306,-0.59973 1.09363,-0.59973 1.86973,0.10584 0.88193,0.81139 2.3989,1.30527 2.3989,0.81139 0,-0.21166 -0.3175,-0.9525 -0.70557,-1.72862 -0.84667,-1.65804 -0.88193,-3.28084 -0.1764,-5.75027 0.28223,-1.02307 0.56447,-3.10444 0.59973,-4.65667 0.10584,-2.64583 0.0706,-2.82223 -0.67026,-2.92806 -0.4939,-0.0705 -0.8114,0.10583 -0.91724,0.52916 z m -1.97556,7.40834 c 0,0.17639 0.0706,0.56446 0.14113,0.88196 0.1411,0.7761 -1.7639,3.81 -2.43417,3.81 -1.83446,0 -0.0706,-4.86834 1.83444,-4.9389 0.21166,0 0.42333,0.10583 0.4586,0.24694 z"
           id="path4681" />
        <path
           style="stroke-width:0.03527778"
           inkscape:connector-curvature="0"
           d="m 633.03906,207.249 c 0,0.91721 -0.21166,2.8575 -0.45863,4.26861 -0.7761,4.23333 -0.3175,6.06777 1.4464,6.06777 0.8114,0 0.84667,-0.0705 0.635,-1.41111 -0.21167,-1.23473 -0.1411,-1.4111 0.4586,-1.4111 0.38807,0 1.27,0.24694 1.97557,0.52917 1.37583,0.5997 3.0339,0.38804 3.0339,-0.3528 0,-0.24693 -0.635,-0.70554 -1.41113,-1.02304 -1.65804,-0.67029 -1.72861,-1.05833 -0.49387,-2.36362 0.56443,-0.59971 0.84666,-1.19944 0.74083,-1.51694 -0.3175,-0.84667 -1.79917,-0.67027 -2.7164,0.3175 -0.4586,0.4939 -0.91723,0.8114 -1.02306,0.70556 -0.10584,-0.10583 -0.17637,-1.34056 -0.17637,-2.75166 -0.0353,-2.50473 -0.0353,-2.54 -0.9878,-2.64584 -0.9525,-0.10583 -0.98777,-0.0706 -1.02304,1.5875 z"
           id="path4685" />
        <path
           style="stroke-width:0.03527778"
           inkscape:connector-curvature="0"
           d="m 644.2221,210.88261 c -1.34054,0.84666 -1.62277,1.34056 -1.62277,2.75166 0,1.55223 0.4939,2.3989 1.7639,3.06917 1.37583,0.70556 2.57527,0.67027 3.56304,-0.1411 0.91723,-0.74084 0.91723,-0.77613 -1.62277,-1.3053 -0.88194,-0.21166 -1.4111,-0.52916 -1.4111,-0.84666 0,-0.35277 0.42333,-0.56444 1.4111,-0.635 1.94027,-0.14111 2.9986,-0.74084 2.9986,-1.69334 0,-1.76387 -3.06917,-2.5047 -5.08,-1.19943 z"
           id="path4687" />
        <path
           style="stroke-width:0.03527778"
           inkscape:connector-curvature="0"
           d="m 618.43406,211.76454 c -0.67029,0.70557 -1.27,1.51696 -1.27,1.86973 -0.14113,1.62277 -0.14113,2.04611 0.1411,2.61057 0.74084,1.65804 4.40974,2.15193 5.8914,0.81137 1.76387,-1.5875 1.79917,-4.83304 0.0705,-5.5386 -0.52917,-0.1764 -1.2347,-0.4939 -1.5522,-0.67027 -1.1289,-0.56446 -2.01084,-0.3175 -3.28084,0.9172 z m 4.05694,2.0814 c 0,0.9525 -1.1289,1.97556 -2.15194,1.97556 -0.8114,0 -1.02306,-0.14112 -1.02306,-0.77612 0,-1.19944 0.91723,-1.94027 2.11666,-1.76388 0.56444,0.0705 1.05834,0.35277 1.05834,0.56444 z"
           id="path4689" />
        <path
           style="stroke-width:0.03527778"
           inkscape:connector-curvature="0"
           d="m 626.7949,211.55288 c -0.91724,1.27 -1.48167,3.4925 -1.09363,4.51556 0.635,1.7639 3.38666,2.46944 4.90363,1.23473 0.9525,-0.77613 0.67026,-1.55223 -0.45863,-1.4464 -1.905,0.14111 -2.36361,-0.0353 -2.36361,-0.84666 0,-1.09361 0.91724,-2.32834 2.0814,-2.75167 l 0.91721,-0.38806 -0.84667,-0.67027 c -1.16417,-0.9525 -2.25777,-0.84667 -3.1397,0.35277 z"
           id="path4691" />
        <path
           style="stroke-width:0.03527778"
           inkscape:connector-curvature="0"
           d="m 555.21627,215.32761 c -0.28221,0.7761 0.38806,1.30527 1.27,1.02306 0.88196,-0.28223 0.98779,-1.05833 0.17639,-1.37583 -0.88193,-0.3175 -1.19943,-0.24696 -1.44639,0.35277 z"
           id="path4693" />
        <path
           style="stroke-width:0.03527778"
           inkscape:connector-curvature="0"
           d="m 555.60433,219.17288 c -0.1411,0.3175 -0.0706,0.74083 0.1411,0.9525 0.52917,0.52916 1.55223,0.0353 1.41113,-0.67027 -0.14113,-0.8114 -1.27,-1.02307 -1.55223,-0.28223 z"
           id="path4695" />
        <path
           style="stroke-width:0.03527778"
           inkscape:connector-curvature="0"
           d="m 555.9571,221.99511 c -0.3175,0.74083 0.10583,1.5875 0.74083,1.5875 0.74084,0 1.05834,-0.9525 0.52917,-1.5875 -0.56444,-0.67027 -1.02304,-0.67027 -1.27,0 z"
           id="path4697" />
        <path
           style="stroke-width:0.03527778"
           inkscape:connector-curvature="0"
           d="m 559.41433,231.09677 c -0.21167,0.24694 -0.56443,1.55223 -0.8114,2.89277 -0.24693,1.37584 -0.56443,2.61057 -0.70553,2.75167 -0.24697,0.3175 -1.72863,-3.24554 -1.72863,-4.16277 0,-0.24694 -0.35277,-0.59973 -0.77611,-0.70556 -0.52916,-0.21167 -0.91723,-0.0353 -1.37583,0.56446 -0.7761,1.02304 -1.48167,4.2686 -1.30527,6.13833 0.0705,1.12887 0.24694,1.4111 0.81137,1.4111 0.59973,0 0.74084,-0.3175 0.91723,-1.86973 0.24694,-1.905 0.635,-2.71637 0.91724,-1.94027 0.74083,2.04611 2.15193,4.16277 2.8222,4.26861 0.9525,0.14112 1.27,-0.49388 1.83446,-3.45721 0.24694,-1.27 0.59971,-2.96333 0.81137,-3.77473 0.28223,-1.16417 0.28223,-1.62277 -0.0705,-2.0461 -0.52917,-0.635 -0.84667,-0.6703 -1.34057,-0.0706 z"
           id="path4699" />
      </g>
    </g>
  </g>
</svg>
