<?xml version="1.0" encoding="UTF-8" standalone="no"?>
<!-- Created with Inkscape (http://www.inkscape.org/) -->

<svg
   xmlns:dc="http://purl.org/dc/elements/1.1/"
   xmlns:cc="http://creativecommons.org/ns#"
   xmlns:rdf="http://www.w3.org/1999/02/22-rdf-syntax-ns#"
   xmlns:svg="http://www.w3.org/2000/svg"
   xmlns="http://www.w3.org/2000/svg"
   xmlns:sodipodi="http://sodipodi.sourceforge.net/DTD/sodipodi-0.dtd"
   xmlns:inkscape="http://www.inkscape.org/namespaces/inkscape"
   width="93.189713mm"
   height="45.344688mm"
   viewBox="0 0 93.189715 45.344689"
   version="1.1"
   id="svg1578"
   inkscape:version="0.92.5 (2060ec1f9f, 2020-04-08)"
   sodipodi:docname="TimeAllocation_Scheduler.svg">
  <defs
     id="defs1572" />
  <sodipodi:namedview
     id="base"
     pagecolor="#ffffff"
     bordercolor="#666666"
     borderopacity="1.0"
     inkscape:pageopacity="0.0"
     inkscape:pageshadow="2"
     inkscape:zoom="0.35"
     inkscape:cx="64.448929"
     inkscape:cy="37.105071"
     inkscape:document-units="mm"
     inkscape:current-layer="layer1"
     showgrid="false"
     fit-margin-top="0"
     fit-margin-left="0"
     fit-margin-right="0"
     fit-margin-bottom="0"
     inkscape:window-width="1920"
     inkscape:window-height="1080"
     inkscape:window-x="1920"
     inkscape:window-y="0"
     inkscape:window-maximized="0" />
  <metadata
     id="metadata1575">
    <rdf:RDF>
      <cc:Work
         rdf:about="">
        <dc:format>image/svg+xml</dc:format>
        <dc:type
           rdf:resource="http://purl.org/dc/dcmitype/StillImage" />
        <dc:title></dc:title>
      </cc:Work>
    </rdf:RDF>
  </metadata>
  <g
     inkscape:label="Layer 1"
     inkscape:groupmode="layer"
     id="layer1"
     transform="translate(32.477386,-113.30603)">
    <g
       id="g5923"
       transform="matrix(0.24999964,4.2362419e-4,-4.2362419e-4,0.24999964,-52.997363,74.844644)">
      <path
         id="path4854"
         d="m 169.35615,153.87702 c -0.28222,0.21167 -0.45861,0.70556 -0.38806,1.09361 0.0706,0.42334 -0.14111,0.81139 -0.59972,1.05834 -0.67028,0.3175 -0.70555,0.59972 -0.52916,4.05694 0.17638,4.05694 0.21166,9.38389 0.0705,13.19389 -0.17639,3.98639 0.52916,12.10028 1.30528,15.27528 0.42333,1.5875 0.70555,3.03388 0.67027,3.175 -0.0353,0.14111 0.0353,0.74083 0.17639,1.37583 0.21167,0.98778 0.38806,1.12889 1.72861,1.34055 0.84667,0.10584 4.86834,0.17639 8.92528,0.10584 4.09222,-0.0706 11.71222,0.0705 16.93333,0.3175 6.91445,0.28222 15.24,0.3175 30.33889,0.0705 23.63611,-0.38805 37.88834,-0.21166 64.27611,0.77611 10.16,0.35278 22.86,0.67028 28.22223,0.67028 8.67833,0 30.6211,0.635 42.61556,1.23472 9.06637,0.45862 22.40137,1.27 26.28194,1.62278 7.37306,0.635 28.36333,2.78695 31.04443,3.175 1.48167,0.21167 4.72723,0.42334 7.23196,0.49389 2.54,0.0706 7.05554,0.35278 10.05417,0.67028 8.36081,0.84667 10.23054,0.77611 10.23054,-0.52917 0,-1.09361 -1.4111,-1.62278 -4.7625,-1.86972 -1.7286,-0.14111 -4.83304,-0.38806 -6.87917,-0.56444 -2.0461,-0.21167 -6.56166,-0.45862 -10.05416,-0.52917 -5.78554,-0.17639 -10.68917,-0.59972 -23.98888,-2.11667 -3.98639,-0.45861 -8.85473,-0.88194 -20.0025,-1.79916 -1.83446,-0.14112 -2.89279,-0.38806 -3.175,-0.77612 -0.84666,-0.98777 -0.67029,-10.86555 0.42334,-25.99972 0.24693,-3.10444 0.42333,-7.02027 0.4586,-8.71361 0.0353,-2.75166 0.0706,-3.03389 0.59973,-2.75166 0.35277,0.17638 5.18583,0.49388 10.795,0.70555 9.94833,0.35278 17.53304,0.70556 30.83277,1.41111 6.5264,0.35278 21.9075,1.02306 23.70667,1.05834 0.88193,0 0.9525,-0.0706 0.67027,-0.81139 -0.1764,-0.45861 -0.3175,-1.09361 -0.28224,-1.44639 0.0706,-0.52917 -0.70553,-0.59972 -7.86693,-0.70556 -4.37444,-0.10583 -10.54804,-0.3175 -13.75833,-0.52916 -7.90221,-0.49389 -25.32944,-1.37584 -32.63194,-1.62278 -3.28083,-0.10583 -11.71223,-0.42333 -18.69723,-0.70556 -21.02554,-0.84666 -64.34666,-1.34055 -104.06944,-1.12889 -20.70805,0.0706 -46.14333,0 -56.97361,-0.21166 -27.09333,-0.52917 -42.29805,-0.52917 -42.93305,-0.0706 z m 27.05805,2.57528 c 3.59834,0.24694 6.70278,0.52917 6.91445,0.59972 0.24694,0.0706 0.45861,4.83306 0.635,15.06361 0.14111,8.18445 0.3175,16.05139 0.42333,17.42722 0.14111,1.83445 0.0705,2.57528 -0.28222,2.82223 -0.3175,0.24694 -2.43417,0.28222 -6.45583,0.0705 -3.28084,-0.17639 -10.26584,-0.35278 -15.48695,-0.38805 -8.04333,-0.0706 -9.525,-0.14112 -9.73666,-0.59973 -0.9525,-1.905 -2.32834,-13.22916 -2.18723,-17.74472 0.21167,-6.63222 0.17639,-10.72444 -0.17638,-13.82889 -0.21167,-1.94027 -0.35278,-3.59833 -0.28223,-3.70416 0.21167,-0.35278 20.32,-0.14111 26.63472,0.28222 z m 32.45556,0.45861 c 7.47889,0.0706 23.28333,0 35.13666,-0.17639 11.85334,-0.17639 21.97806,-0.21166 22.5425,-0.0705 l 0.98778,0.24694 -0.24694,8.71361 c -0.14111,5.46806 -0.10584,10.08945 0.14111,12.41778 0.21166,2.04611 0.49389,6.31472 0.59972,9.48972 l 0.21167,5.75028 -1.37584,-0.17639 c -0.74083,-0.14111 -5.57388,-0.3175 -10.72444,-0.42333 -5.15056,-0.10584 -12.77056,-0.28223 -16.93333,-0.38806 -4.16278,-0.10583 -17.49778,-0.0353 -29.63334,0.17639 -13.37027,0.17639 -22.18972,0.21167 -22.43666,0 -0.24695,-0.21167 -0.45861,-3.38667 -0.59972,-9.24278 -0.14111,-4.86833 -0.28223,-10.01889 -0.3175,-11.35944 -0.0353,-1.37584 -0.0353,-5.32695 0,-8.81945 l 0.0706,-6.35 4.51555,0.0353 c 2.46945,0 10.58333,0.10584 18.06222,0.17639 z m 96.44944,0.77611 c 0.59972,0.74083 0.635,1.30528 0.42333,8.89 -0.59972,22.26028 -0.635,25.22361 -0.28222,26.24667 0.21167,0.59972 0.28222,1.12889 0.14111,1.19944 -0.38805,0.17639 -23.63611,-0.3175 -29.21,-0.635 -2.75166,-0.14111 -5.18583,-0.38805 -5.3975,-0.52917 -0.28222,-0.14111 -0.42333,-1.76388 -0.45861,-4.79777 0,-2.50473 -0.14111,-5.43278 -0.3175,-6.49111 -0.635,-4.37445 -0.98778,-12.41778 -0.70555,-17.28611 0.17639,-3.59834 0.14111,-5.50334 -0.14111,-6.38528 l -0.42334,-1.30528 17.85056,0.17639 c 17.74472,0.17639 17.85055,0.17639 18.52083,0.91722 z m 37.25334,-0.0705 c 12.73527,0.35277 14.71084,0.45861 15.24,0.98777 0.56444,0.52917 0.56444,1.05834 0.10584,8.32556 -0.28223,4.26861 -0.70557,8.64305 -0.88196,9.70139 -0.21167,1.05833 -0.35277,5.82083 -0.3175,10.58333 0.0353,8.18444 0,8.64306 -0.635,8.5725 -2.36361,-0.21167 -25.25888,-1.16417 -33.09055,-1.37583 -14.56973,-0.35278 -14.64028,-0.35278 -15.09889,-0.81139 -0.3175,-0.3175 -0.38806,-2.78695 -0.3175,-10.01889 0.0705,-5.29167 0.14111,-13.44083 0.17639,-18.13278 l 0.0705,-8.5725 10.05417,0.17639 c 5.53861,0.10584 16.65112,0.35278 24.69445,0.56445 z"
         inkscape:connector-curvature="0"
         style="stroke-width:0.03527778" />
      <path
         id="path4856"
         d="m 183.82004,164.74258 c -4.02167,1.16416 -5.08,1.5875 -5.43278,2.25777 -0.24694,0.45862 -0.3175,0.91723 -0.21167,1.05834 0.14112,0.10583 1.30528,0.0353 2.54,-0.21167 1.27,-0.21167 2.50473,-0.3175 2.71639,-0.17639 0.24695,0.14111 0.3175,1.905 0.24695,5.22111 l -0.14111,4.97417 h 0.84666 c 0.84667,0 0.91722,-0.17639 1.34056,-2.99861 0.24694,-1.65806 0.42333,-4.19806 0.38805,-5.64445 l -0.10583,-2.64583 1.86972,-0.74083 c 2.11667,-0.84667 3.10445,-1.65806 2.75167,-2.2225 -0.38806,-0.59972 -1.41111,-0.42334 -6.80861,1.12889 z"
         inkscape:connector-curvature="0"
         style="stroke-width:0.03527778" />
      <path
         id="path4858"
         d="m 191.0167,175.78452 c -0.14111,0.14111 -0.24694,1.72861 -0.24694,3.52778 0,2.99861 0.0706,3.31611 0.74083,3.70416 0.45861,0.24695 0.88195,0.24695 1.05834,0.0706 0.21166,-0.21167 0.28222,-1.905 0.24694,-3.84528 -0.10583,-3.21027 -0.17639,-3.4925 -0.81139,-3.59833 -0.42333,-0.0706 -0.84666,0 -0.98778,0.14111 z"
         inkscape:connector-curvature="0"
         style="stroke-width:0.03527778" />
      <path
         id="path4860"
         d="m 243.86281,159.87424 c -0.17638,0.0706 -1.30527,0.28223 -2.46944,0.52917 -5.92667,1.23472 -13.37028,3.42194 -14.88722,4.40972 -0.70556,0.45861 -0.77611,0.67028 -0.42334,1.27 0.42334,0.81139 0.70556,0.81139 3.88056,-0.35278 2.36361,-0.84666 7.9375,-2.32833 11.60639,-3.06916 3.70417,-0.74084 3.88055,-0.81139 3.88055,-1.55222 0,-0.67028 -0.91722,-1.37584 -1.5875,-1.23473 z"
         inkscape:connector-curvature="0"
         style="stroke-width:0.03527778" />
      <path
         id="path4862"
         d="m 238.46531,164.88369 c -0.14111,0.35278 -0.28222,4.05694 -0.28222,8.21972 0.0353,6.985 0.0706,7.58472 0.67028,7.69055 1.51694,0.3175 1.65806,-0.3175 1.65806,-8.04333 0,-4.05694 -0.10584,-7.58472 -0.21167,-7.90222 -0.28222,-0.74083 -1.44639,-0.70556 -1.83445,0.0353 z"
         inkscape:connector-curvature="0"
         style="stroke-width:0.03527778" />
      <path
         id="path4864"
         d="m 248.66059,174.65563 c -2.32833,0.84667 -1.72861,2.36361 0.81139,2.08139 1.83444,-0.21167 2.36361,0.3175 1.37583,1.41111 -2.15194,2.43417 -2.39888,4.02167 -0.84666,5.57389 1.19944,1.19944 2.99861,1.37583 5.11527,0.49389 2.01084,-0.84667 1.5875,-1.72861 -0.91722,-1.94028 -1.16416,-0.10583 -2.25778,-0.42333 -2.57528,-0.74083 -0.52916,-0.49389 -0.45861,-0.70556 0.84667,-2.36361 0.77611,-0.9525 1.5875,-1.86972 1.79917,-2.01084 0.49389,-0.3175 0.45861,-2.04611 -0.0706,-2.57527 -0.52916,-0.52917 -3.98639,-0.49389 -5.53861,0.0705 z"
         inkscape:connector-curvature="0"
         style="stroke-width:0.03527778" />
      <path
         id="path4866"
         d="m 307.89198,166.25952 c -1.05833,0.24695 -3.52778,0.59972 -5.46806,0.70556 -3.88055,0.24694 -4.7625,0.52916 -4.7625,1.51694 0,0.88195 0.67028,1.09361 3.52778,1.09361 3.4925,0 3.56306,0.14111 2.57528,6.80861 -0.52917,3.59834 -0.45861,4.48028 0.35278,4.48028 0.84666,0 2.08139,-5.46805 2.15194,-9.41917 l 0.0353,-2.57527 1.94028,-0.42334 c 1.05833,-0.21166 2.46944,-0.635 3.10444,-0.88194 0.98778,-0.42333 1.09361,-0.56445 0.77611,-1.16417 -0.45861,-0.81139 -1.44639,-0.84666 -4.23333,-0.14111 z"
         inkscape:connector-curvature="0"
         style="stroke-width:0.03527778" />
      <path
         id="path4868"
         d="m 311.84309,176.70174 c -0.635,0.77611 -0.91722,5.36222 -0.42333,6.31472 0.49389,0.9525 1.02305,1.37584 1.69333,1.37584 0.59972,0 0.59972,-7.09083 0,-7.69056 -0.52917,-0.52916 -0.81139,-0.52916 -1.27,0 z"
         inkscape:connector-curvature="0"
         style="stroke-width:0.03527778" />
      <path
         id="path4870"
         d="m 355.34058,169.39924 c -1.16416,0.24695 -3.81,0.56445 -5.92666,0.70556 -3.24555,0.21167 -3.84528,0.35278 -4.16278,0.9525 -0.45861,0.84667 0.14112,1.69333 1.23473,1.69333 0.42333,0 1.09361,0.21167 1.44638,0.49389 0.59973,0.42333 0.635,0.84667 0.42333,4.90361 -0.17637,3.45722 -0.1411,4.48028 0.24696,4.79778 0.9525,0.81139 1.34054,-0.52917 1.5875,-5.50333 l 0.21167,-4.83306 3.10444,-0.45861 c 4.51556,-0.635 6.31473,-1.65806 5.11527,-2.8575 -0.49388,-0.49389 -0.45861,-0.49389 -3.28084,0.10583 z"
         inkscape:connector-curvature="0"
         style="stroke-width:0.03527778" />
      <path
         id="path4872"
         d="m 357.98642,175.85508 c -0.67027,0.35277 -1.19944,0.81139 -1.16417,1.02305 0.0706,0.24695 -0.21167,1.16417 -0.59971,2.04611 -0.88196,2.04611 -0.88196,2.68111 0,3.81 0.38804,0.49389 0.70554,1.05834 0.70554,1.27 0,0.49389 -2.01083,0.52917 -2.29304,0.0353 -0.10583,-0.21167 -0.52916,-0.35278 -0.91723,-0.35278 -0.49389,0 -0.67027,0.24695 -0.67027,1.05834 0,3.13972 5.32694,2.29305 6.70277,-1.05834 0.59973,-1.41111 0.3175,-2.61055 -0.59973,-2.75166 -2.5047,-0.35278 -1.37583,-2.8575 1.51696,-3.42195 2.08138,-0.38805 2.89277,-1.02305 2.25777,-1.76389 -0.59973,-0.74083 -3.42193,-0.67027 -4.93889,0.10584 z"
         inkscape:connector-curvature="0"
         style="stroke-width:0.03527778" />
      <path
         id="path4874"
         d="m 95.837263,164.98952 c -1.516944,0.77611 -4.162777,3.59833 -5.997222,6.49111 -3.033889,4.62139 -3.739444,9.03111 -1.975555,12.41778 0.493889,0.98778 1.375833,2.2225 1.975555,2.68111 1.375833,1.19944 3.704167,1.55222 4.903611,0.77611 0.846667,-0.56444 0.881945,-0.59972 0.246945,-1.05833 -0.352778,-0.28222 -0.987778,-0.49389 -1.375834,-0.49389 -2.434166,0 -4.409722,-2.96333 -4.445,-6.52639 0,-2.54 1.27,-5.50333 3.704167,-8.60778 1.693333,-2.15194 4.903611,-4.97416 5.644444,-4.97416 0.282222,0 0.388056,-0.28223 0.282222,-0.70556 -0.246944,-0.88194 -1.234722,-0.88194 -2.963333,0 z"
         inkscape:connector-curvature="0"
         style="stroke-width:0.03527778" />
      <path
         id="path4876"
         d="m 137.2181,166.78869 c -0.3175,0.56444 -1.37584,2.11666 -2.29306,3.42194 -3.175,4.37445 -4.445,7.9375 -3.98639,11.1125 0.52917,3.56306 3.95111,8.39611 6.24417,8.85472 1.55222,0.3175 3.10444,-0.49389 4.97416,-2.57527 2.71639,-3.03389 3.98639,-7.33778 3.73945,-12.62945 -0.14111,-2.78694 -0.35278,-3.63361 -1.34056,-5.60916 -1.34055,-2.75167 -2.57527,-3.66889 -5.04472,-3.66889 -1.51694,0 -1.76389,0.10583 -2.29305,1.09361 z m 3.4925,1.94028 c 0.74083,0.35277 1.37583,1.16416 1.97555,2.46944 0.74083,1.65806 0.88195,2.43417 0.84667,5.22111 -0.0353,3.63361 -0.28222,4.65667 -1.65806,7.44361 -1.02305,2.15195 -2.61055,3.70417 -3.73944,3.70417 -1.02306,0 -3.06917,-2.29306 -4.05695,-4.51556 -1.09361,-2.54 -1.05833,-4.62139 0.24695,-7.47889 0.98778,-2.29305 4.51555,-7.40833 5.04472,-7.40833 0.14111,0 0.77611,0.24695 1.34056,0.56445 z"
         inkscape:connector-curvature="0"
         style="stroke-width:0.03527778" />
      <path
         id="path4878"
         d="m 410.72671,169.22285 c -0.56446,0.14112 -1.86973,0.28223 -2.89279,0.3175 -2.25777,0.0353 -2.92804,0.28223 -2.92804,1.05834 0,0.88194 0.70554,1.44639 1.79916,1.44639 1.62277,0 1.86971,0.67027 1.5875,4.62139 -0.14112,1.97555 -0.42333,4.44499 -0.59973,5.50333 -0.3175,1.65805 -0.28223,2.04611 0.1764,2.50472 0.35277,0.35278 0.67027,0.45861 0.84667,0.24694 0.4586,-0.49388 1.48166,-8.07861 1.48166,-10.79499 v -2.36362 l 1.16417,-0.21166 c 0.59971,-0.10584 1.76387,-0.28222 2.54,-0.38806 2.3636,-0.35278 2.6811,-0.52916 2.57527,-1.34055 -0.10583,-0.70556 -0.35277,-0.77611 -2.3989,-0.84667 -1.27,0 -2.75166,0.0706 -3.35137,0.24694 z"
         inkscape:connector-curvature="0"
         style="stroke-width:0.03527778" />
      <path
         id="path4880"
         d="m 100.42337,178.81841 c -2.081385,1.62278 -3.245551,3.88055 -3.033885,5.92667 0.211667,1.97555 1.164167,2.82222 3.280835,2.82222 2.92805,0 4.72722,-2.61056 4.72722,-6.84389 0,-3.10444 -2.25778,-3.95111 -4.97417,-1.905 z m 2.68112,3.35139 c -0.0353,2.08139 -0.56445,2.92805 -1.94028,2.92805 -2.116669,0 -2.187225,-1.44639 -0.17639,-3.81 1.41111,-1.69333 2.11667,-1.37583 2.11667,0.88195 z"
         inkscape:connector-curvature="0"
         style="stroke-width:0.03527778" />
      <path
         id="path4882"
         d="m 415.59504,179.59452 c -2.32833,2.01083 -3.4925,6.45583 -2.15196,8.14917 1.1289,1.44639 3.77473,1.12889 5.29167,-0.67028 1.16417,-1.41111 0.70556,-2.8575 -1.30527,-4.05695 -1.55223,-0.91722 -1.5875,-1.62277 0,-2.18722 1.27,-0.45861 1.5875,-1.23472 0.8114,-2.01083 -0.6703,-0.67028 -1.09363,-0.52917 -2.64584,0.77611 z m 0.59971,5.32694 c 1.23473,0.635 1.34056,1.09362 0.3175,1.34056 -0.70554,0.21167 -2.08137,-0.77611 -2.08137,-1.51694 0,-0.49389 0.56443,-0.42334 1.76387,0.17638 z"
         inkscape:connector-curvature="0"
         style="stroke-width:0.03527778" />
      <path
         id="path4884"
         d="m 108.3256,179.17119 c -0.35278,0.59972 -1.09361,3.81 -1.37584,6.20889 -0.24694,1.94027 0.10584,2.68111 1.12889,2.29305 0.56445,-0.21167 1.55222,-2.71639 1.72861,-4.26861 0.14111,-1.41111 0.38806,-1.72861 1.55222,-1.905 1.16417,-0.14111 1.76389,-1.16417 1.09362,-1.83444 -0.77612,-0.70556 -3.73945,-1.05834 -4.1275,-0.49389 z"
         inkscape:connector-curvature="0"
         style="stroke-width:0.03527778" />
      <path
         id="path4886"
         d="m 117.00393,180.51174 c -3.03389,2.46945 -3.4925,6.49111 -0.9525,8.255 1.65805,1.16417 5.29167,0.42334 5.50333,-1.12889 0.10584,-0.70555 -0.0353,-0.77611 -1.76389,-0.77611 -2.04611,-0.0353 -3.24555,-0.67028 -3.03389,-1.65805 0.0706,-0.38806 0.52917,-0.70556 1.34056,-0.81139 1.76389,-0.28222 3.52778,-1.44639 3.77472,-2.43417 0.17639,-0.67028 0,-1.05833 -0.74083,-1.69333 -1.30528,-1.09361 -2.61056,-1.02306 -4.1275,0.24694 z"
         inkscape:connector-curvature="0"
         style="stroke-width:0.03527778" />
      <path
         id="path4890"
         d="m 229.78698,230.85313 c -0.0353,0.0353 -6.80861,0.17639 -15.02833,0.28222 -8.255,0.10584 -16.40417,0.35278 -18.16806,0.52917 -1.72861,0.17639 -4.69194,0.35278 -6.52639,0.38805 -1.83444,0 -4.445,0.21167 -5.82083,0.45862 -1.34055,0.24694 -2.61055,0.35277 -2.82222,0.21166 -0.17639,-0.14111 -2.8575,-0.35278 -5.96194,-0.42333 l -5.60917,-0.14111 0.28222,3.38666 c 0.14111,1.83445 0.24695,10.4775 0.17639,19.22639 -0.0706,15.09889 -0.0706,15.91028 0.56444,16.65111 l 0.67028,0.74084 16.22778,-0.3175 c 8.92528,-0.17639 21.48417,-0.49389 27.86944,-0.67028 28.575,-0.88195 40.21667,-0.84667 67.73333,0.17639 2.54,0.10583 12.065,0.35278 21.16667,0.52916 17.32139,0.35278 33.51389,0.81139 49.91806,1.41112 5.32693,0.21166 12.10027,0.45861 14.99306,0.56444 10.26583,0.35278 27.305,1.23472 37.9236,1.905 11.71223,0.77611 13.5114,0.88194 26.63473,1.41111 4.86834,0.21167 9.8425,0.56445 11.04194,0.77611 1.94027,0.3175 2.32833,0.28222 2.8222,-0.21166 0.74084,-0.74084 0.24697,-1.65806 -1.0936,-2.01084 -0.52916,-0.14111 -5.2211,-0.42333 -10.40693,-0.635 -13.05277,-0.52916 -22.86,-1.05833 -27.23444,-1.44639 -2.04613,-0.17639 -6.94973,-0.49389 -10.93613,-0.70555 -3.98637,-0.21167 -11.28887,-0.59972 -16.22777,-0.88195 -4.93889,-0.28222 -18.27389,-0.77611 -29.63333,-1.09361 -11.35945,-0.35278 -20.81389,-0.74083 -21.02556,-0.91722 -0.28222,-0.21167 -0.35278,-2.54 -0.28222,-7.97278 0.0706,-4.19805 0.17639,-11.7475 0.24694,-16.72166 0.0353,-5.32695 0.24695,-9.2075 0.42334,-9.38389 0.21166,-0.17639 2.57528,-0.17639 5.29166,-0.0353 4.09223,0.24694 29.17474,0.74083 61.38334,1.23472 3.4925,0.0353 11.35944,0.28222 17.4625,0.52917 6.10306,0.24694 15.91027,0.45861 21.80167,0.45861 11.3947,0.0353 11.50053,0.0353 11.28887,-1.69333 -0.10584,-0.67028 -0.59971,-0.67028 -13.1586,-0.77611 -7.16138,-0.0353 -16.22777,-0.24695 -20.10834,-0.42334 -8.67833,-0.45861 -16.86277,-0.67028 -42.6861,-1.12889 -32.34972,-0.56444 -38.17056,-0.70555 -43.28584,-1.05833 -6.38527,-0.45861 -24.30638,-1.05833 -31.85583,-1.05833 -3.28083,0 -10.19528,-0.14111 -15.34583,-0.35278 -8.14917,-0.3175 -52.49333,-1.02306 -52.705,-0.81139 z m 32.42028,2.92806 c 38.06472,0.59972 66.28694,1.48166 67.02777,2.11666 0.21167,0.17639 0.3175,1.09361 0.24695,2.18722 -0.10584,1.02306 -0.21167,7.33778 -0.28222,14.04056 -0.17639,16.51 -0.21167,15.91028 0.0353,17.21555 0.14111,0.70556 0.0706,1.12889 -0.10583,0.98778 -0.17639,-0.10583 -14.11111,-0.56444 -30.97389,-0.98778 -32.10277,-0.84666 -60.39555,-1.02305 -79.19861,-0.49388 -8.85472,0.24694 -11.21833,0.21166 -11.43,-0.14112 -0.14111,-0.24694 -0.3175,-3.63361 -0.35277,-7.54944 -0.0706,-4.23333 -0.35278,-8.67833 -0.67028,-11.07722 -0.52917,-3.63361 -0.56445,-4.33917 -0.0353,-8.18445 0.28222,-2.29305 0.52917,-5.08 0.52917,-6.13833 v -1.97555 l 4.69194,-0.0353 c 2.54,-0.0353 7.83167,-0.17639 11.71222,-0.3175 3.88056,-0.14111 9.77195,-0.17639 13.05278,-0.10584 3.31611,0.10584 14.88722,0.3175 25.75278,0.45862 z m -56.97361,0.21166 c 0.17639,0.17639 0.14111,1.51695 -0.0353,2.96334 -1.12889,9.56027 -1.16417,9.8425 -0.70555,13.68777 0.24694,2.08139 0.56444,7.05556 0.67027,11.07722 l 0.24695,7.26723 -1.23472,0.17639 c -2.04612,0.24694 -10.51278,0.42333 -21.34306,0.42333 h -10.23055 v -16.40417 c 0,-9.03111 -0.14112,-16.86277 -0.3175,-17.39194 l -0.28223,-0.98778 5.22111,0.0353 c 5.22111,0 17.32139,-0.49389 23.07167,-1.02306 3.45722,-0.28222 4.51556,-0.24694 4.93889,0.17639 z"
         inkscape:connector-curvature="0"
         style="stroke-width:0.03527778" />
      <path
         id="path4892"
         d="m 265.38226,240.9073 c -6.87917,1.23472 -13.22917,3.84527 -13.22917,5.46805 0,0.88195 0.98778,0.88195 2.57528,-0.0353 3.03389,-1.79916 3.38667,-1.30527 3.45722,4.55084 0.0353,5.11527 0.28222,6.17361 1.41111,6.17361 0.77611,0 0.77611,0 0.52917,-5.57389 -0.14111,-3.03389 -0.28222,-5.82083 -0.3175,-6.20889 -0.0706,-0.70555 1.23472,-1.16417 5.50333,-2.04611 3.59834,-0.74083 3.66889,-2.96333 0.0706,-2.32833 z"
         inkscape:connector-curvature="0"
         style="stroke-width:0.03527778" />
      <path
         id="path4894"
         d="m 266.68754,251.80813 c -0.24695,0.98778 -0.42334,2.15194 -0.42334,2.57528 0,1.27 1.27,2.61055 2.57528,2.75166 0.98778,0.10584 1.12889,0.24695 1.23472,1.23473 0.10584,1.23472 0.9525,2.18722 1.48167,1.65805 0.17639,-0.17639 0.35278,-0.9525 0.42333,-1.72861 0.10584,-1.30528 0.17639,-1.41111 1.69334,-1.76389 1.34055,-0.3175 1.5875,-0.52917 1.5875,-1.23472 0,-0.70556 -0.17639,-0.88195 -0.9525,-0.88195 -0.52917,-0.0353 -1.34056,-0.38805 -1.79917,-0.81138 -1.09361,-1.02306 -1.65806,-0.98778 -1.65806,0.14111 0,0.81139 -0.10583,0.88194 -1.12889,0.77611 -1.12888,-0.10584 -1.16416,-0.14111 -1.19944,-1.86972 -0.0706,-2.57528 -0.0706,-2.64584 -0.77611,-2.64584 -0.49389,0 -0.74083,0.45861 -1.05833,1.79917 z"
         inkscape:connector-curvature="0"
         style="stroke-width:0.03527778" />
      <path
         id="path4896"
         d="m 188.82948,241.89507 c -0.59972,0.17639 -2.39889,0.98778 -3.98639,1.76389 -1.62277,0.77611 -3.21027,1.41111 -3.59833,1.41111 -0.74083,0 -1.5875,1.19945 -1.19944,1.79917 0.14111,0.24695 0.74083,0.28222 1.51694,0.17639 2.75167,-0.49389 3.38667,-0.42333 3.31611,0.3175 -0.67028,6.49111 -0.81139,9.77194 -0.42333,10.26583 1.09361,1.34056 1.55222,-1.23472 1.83444,-10.23055 l 0.0705,-2.08139 2.46945,-1.27 c 3.24555,-1.65806 3.24555,-3.10445 0,-2.15195 z"
         inkscape:connector-curvature="0"
         style="stroke-width:0.03527778" />
      <path
         id="path4898"
         d="m 189.92309,252.30202 c -0.81139,0.59972 -0.52916,1.5875 0.45861,1.5875 0.9525,0 1.12889,0.42333 0.67028,1.69333 -0.35278,0.88195 -0.3175,1.19945 0.21167,2.01083 0.56444,0.88195 0.56444,0.98778 0.0353,1.5875 -0.3175,0.35278 -1.05833,0.84667 -1.62278,1.05834 -1.16416,0.49389 -1.34055,1.23472 -0.35278,1.76389 0.52917,0.28222 0.98778,0.17639 1.86973,-0.35278 2.32833,-1.37583 3.31611,-3.59833 2.36361,-5.36222 -0.28222,-0.49389 -0.28222,-0.81139 0,-1.09361 0.21166,-0.21167 0.38805,-0.81139 0.38805,-1.34056 0,-1.76389 -2.50472,-2.71639 -4.02166,-1.55222 z"
         inkscape:connector-curvature="0"
         style="stroke-width:0.03527778" />
      <path
         id="path4904"
         d="m 87.970319,243.7648 c -2.963333,3.10444 -5.256389,7.54944 -5.432778,10.61861 -0.3175,4.93889 2.398889,8.64305 6.702778,9.24277 1.199444,0.17639 1.658055,0.0706 2.010833,-0.35277 0.599722,-0.74084 0.3175,-1.02306 -1.622777,-1.5875 -1.728612,-0.45861 -3.421945,-1.79917 -4.162778,-3.24556 -0.3175,-0.56444 -0.529167,-1.97555 -0.529167,-3.35139 0,-2.01083 0.176389,-2.78694 1.27,-4.93889 1.5875,-3.175 3.175,-5.08 5.221111,-6.17361 2.293056,-1.19944 2.116667,-2.43416 -0.388055,-2.43416 -0.635,0 -1.516945,0.635 -3.069167,2.2225 z"
         inkscape:connector-curvature="0"
         style="stroke-width:0.03527778" />
      <path
         id="path4906"
         d="m 131.8206,243.51785 c -0.35278,0.42334 -0.42334,1.69334 -0.3175,5.04472 0.21166,6.45584 0.17638,8.00806 -0.14112,11.18306 -0.14111,1.5875 -0.17638,3.21028 -0.0353,3.63361 0.28223,0.91722 1.5875,1.02306 1.62278,0.10583 0,-0.3175 0.0706,-1.16416 0.17639,-1.83444 0.45861,-3.66889 0.70556,-8.85472 0.56444,-13.15861 -0.10583,-4.19806 -0.21166,-4.90361 -0.77611,-5.18583 -0.45861,-0.24695 -0.74083,-0.17639 -1.09361,0.21166 z"
         inkscape:connector-curvature="0"
         style="stroke-width:0.03527778" />
      <path
         id="path4908"
         d="m 377.49504,244.01174 c -4.30389,1.12889 -7.51416,2.54 -7.51416,3.31611 0,0.24695 0.24693,0.67028 0.52916,0.91722 0.42334,0.35278 0.88194,0.24695 2.43417,-0.56444 2.50471,-1.30528 3.03387,-0.9525 2.8575,1.905 -0.1764,2.43417 0.38804,8.85472 0.88194,10.12472 0.28223,0.77611 1.69333,1.72861 2.0461,1.41111 0.0706,-0.0705 -0.1411,-1.65805 -0.4586,-3.59833 -0.35277,-2.18722 -0.52917,-4.93889 -0.45861,-7.51417 l 0.10584,-4.02166 1.5875,-0.42334 c 0.88193,-0.21166 2.2225,-0.52916 2.9986,-0.70555 1.05833,-0.24695 1.4111,-0.49389 1.4111,-1.02306 0,-1.09361 -1.8697,-1.02305 -6.42054,0.17639 z"
         inkscape:connector-curvature="0"
         style="stroke-width:0.03527778" />
      <path
         id="path4912"
         d="m 96.930874,253.74841 c -1.658055,1.41111 -2.575277,3.4925 -2.610555,5.96194 -0.03528,2.50472 0.917222,4.19806 2.892778,5.00945 1.128888,0.45861 1.305277,0.42333 2.857503,-0.3175 2.11666,-1.05834 3.24555,-3.24556 3.4925,-6.87917 0.14111,-2.46945 0.14111,-2.57528 -0.91723,-3.59833 -0.91722,-0.91723 -1.34055,-1.09362 -2.822218,-1.09362 -1.411111,0 -2.010833,0.21167 -2.892778,0.91723 z m 3.809996,1.76389 c 1.44639,1.02305 0.81139,5.89138 -0.917218,6.80861 -1.058333,0.56444 -1.411111,0.49389 -2.363611,-0.49389 -1.093611,-1.05834 -1.164167,-2.82222 -0.176389,-4.7625 1.058333,-2.04611 2.081389,-2.54 3.457218,-1.55222 z"
         inkscape:connector-curvature="0"
         style="stroke-width:0.03527778" />
      <path
         id="path4914"
         d="m 107.62004,253.43091 c -1.65805,0.21166 -1.94028,0.84666 -2.08139,4.445 -0.0706,1.76389 -0.17639,3.88055 -0.24694,4.65666 -0.0705,1.27 0,1.41111 0.77611,1.41111 0.98778,0 1.72861,-1.5875 1.76389,-3.70416 0.0353,-2.01084 1.09361,-4.445 2.2225,-5.08 0.52916,-0.35278 0.98777,-0.91722 0.98777,-1.30528 0,-0.70556 -0.59972,-0.77611 -3.42194,-0.42333 z"
         inkscape:connector-curvature="0"
         style="stroke-width:0.03527778" />
      <path
         id="path4916"
         d="m 381.86948,253.43091 c -0.1411,0.10583 -0.24694,0.49389 -0.24694,0.84666 0,0.635 0.67027,1.02306 1.76388,1.02306 0.81139,0 1.79916,1.09361 1.16416,1.30528 -0.81137,0.28222 -0.49387,1.44639 0.59973,2.2225 0.59973,0.42333 1.05834,0.91722 1.05834,1.12889 0,0.17638 -0.77611,0.67027 -1.7639,1.09361 -1.19944,0.49389 -1.76387,0.9525 -1.76387,1.37583 0,0.98778 1.48166,0.77611 4.23333,-0.59972 2.01083,-1.02306 2.46944,-1.41111 2.46944,-2.08139 0,-0.59972 -0.38807,-1.05833 -1.23473,-1.5875 -1.12888,-0.635 -1.19944,-0.77611 -0.84667,-1.5875 0.24696,-0.49389 0.3175,-1.12889 0.1764,-1.44639 -0.42334,-1.16417 -4.83307,-2.50472 -5.60917,-1.69333 z"
         inkscape:connector-curvature="0"
         style="stroke-width:0.03527778" />
      <path
         id="path4918"
         d="m 115.27532,254.13646 c -2.68111,1.76389 -4.05695,3.84528 -4.40972,6.59695 -0.14112,1.44639 -0.0706,1.76389 0.67027,2.50472 1.19945,1.19944 4.30389,1.23472 6.10306,0.14111 1.69333,-1.05833 1.30528,-1.5875 -1.05833,-1.44639 -2.43417,0.14111 -3.42195,-0.3175 -3.42195,-1.62278 0,-1.23472 0.59972,-1.83444 1.83445,-1.83444 1.51694,0 3.35138,-1.05833 4.02166,-2.32833 0.59972,-1.12889 0.59972,-1.19945 -0.0353,-1.86973 -0.77611,-0.88194 -2.46944,-0.9525 -3.70416,-0.14111 z"
         inkscape:connector-curvature="0"
         style="stroke-width:0.03527778" />
      <path
         id="path4922"
         d="m 446.81585,294.38841 c -0.74083,0.0706 -1.05833,0.42333 -1.4111,1.41111 -0.24694,0.70555 -0.4586,1.44639 -0.49387,1.65805 -0.3528,3.81 -0.635,5.08 -1.1289,5.18584 -0.28223,0.0705 -11.00667,-0.0353 -23.84777,-0.21167 -25.11779,-0.35278 -48.50696,0 -76.23529,1.09361 -21.87222,0.88194 -154.19916,0.84667 -174.27221,-0.0353 -16.01612,-0.70555 -38.24111,-1.44639 -59.19611,-2.01083 -15.733892,-0.38806 -17.709448,-0.3175 -15.804448,0.70555 0.881945,0.49389 16.898058,1.05834 29.844998,1.09362 4.86833,0 12.065,0.17638 16.05139,0.35277 44.16778,2.04611 35.73639,1.905 116.24027,1.905 50.76472,0 78.88111,-0.10583 88.37083,-0.42333 7.65528,-0.21167 21.62528,-0.67028 31.04444,-0.9525 18.97946,-0.635 66.78084,-0.42333 67.6628,0.24694 0.2822,0.24695 0.42333,1.55223 0.42333,4.23334 0,3.98639 0.52917,5.92666 1.55221,5.92666 0.28223,0 1.02306,-0.67027 1.69333,-1.51694 0.635,-0.81139 1.34056,-1.65806 1.55223,-1.83444 1.79917,-1.55223 6.4911,-7.40834 6.4911,-8.07862 0,-0.98777 -0.9525,-2.29305 -4.3039,-5.78555 -3.03387,-3.21028 -2.96333,-3.13972 -4.23333,-2.96333 z"
         inkscape:connector-curvature="0"
         style="stroke-width:0.03527778" />
      <path
         id="path4924"
         d="m 267.67531,312.62702 c -8.50194,3.03389 -12.91166,4.23333 -15.48694,4.23333 -2.04611,0 -2.68111,0.14111 -2.96333,0.59972 -0.3175,0.45861 -0.24695,0.74084 0.21166,1.27 0.9525,1.05834 3.21028,1.19945 6.20889,0.42334 1.41111,-0.38806 2.71639,-0.59973 2.89278,-0.49389 0.17639,0.10583 0.3175,3.13972 0.3175,6.77333 0,3.63361 0.17639,7.19667 0.35278,7.90222 0.3175,1.12889 0.45861,1.27 1.12889,1.02306 0.77611,-0.28222 0.77611,-0.35278 0.67027,-8.43139 -0.10583,-7.58472 -0.0705,-8.14917 0.56445,-8.46667 0.35278,-0.17639 2.2225,-0.84666 4.16278,-1.48166 4.93888,-1.62278 6.24416,-2.32834 6.10305,-3.28084 -0.14111,-1.05833 -1.30528,-1.09361 -4.16278,-0.0705 z"
         inkscape:connector-curvature="0"
         style="stroke-width:0.03527778" />
      <path
         id="path4926"
         d="m 267.81642,321.41118 c -0.28222,1.12889 0.0706,1.62278 1.09362,1.62278 1.05833,0 1.41111,-0.98778 0.67027,-1.79917 -0.81139,-0.91722 -1.48166,-0.84666 -1.76389,0.17639 z"
         inkscape:connector-curvature="0"
         style="stroke-width:0.03527778" />
      <path
         id="path4928"
         d="m 292.01698,322.54007 c -1.34056,1.16417 -2.25778,2.89278 -2.82222,5.46806 -0.52917,2.32833 -0.28223,4.09222 0.74083,5.3975 1.30528,1.65805 4.02167,1.76389 5.3975,0.28222 0.81139,-0.91722 0.17639,-1.62278 -1.41111,-1.55222 -1.65806,0.0706 -2.61056,-0.74084 -2.61056,-2.2225 0,-1.30528 0.52917,-1.94028 1.65806,-1.94028 1.02305,0 2.54,-0.74083 3.31611,-1.62278 1.37583,-1.62278 0.84667,-3.35139 -1.30528,-4.23333 -1.55222,-0.67028 -1.69333,-0.635 -2.96333,0.42333 z m 2.43417,1.86972 c 0.59972,0.38806 0.21166,1.09362 -0.67028,1.09362 -0.74084,0 -1.23472,-0.91723 -0.59972,-1.19945 0.635,-0.24694 0.74083,-0.24694 1.27,0.10583 z"
         inkscape:connector-curvature="0"
         style="stroke-width:0.03527778" />
      <path
         id="path4930"
         d="m 276.14198,324.26868 c -0.24694,0.28223 -0.98778,0.52917 -1.65806,0.52917 h -1.19944 l 0.10583,4.09222 c 0.0706,3.38667 0.21167,4.19806 0.70556,4.48028 0.84667,0.56444 1.69333,-0.28222 1.69333,-1.76389 0,-1.44639 0.70556,-4.33917 1.02306,-4.33917 0.35278,0 0.9525,1.19945 1.55222,2.96334 0.635,1.86972 1.37583,2.32833 2.32833,1.48166 0.52917,-0.49388 0.74084,-1.09361 0.74084,-2.2225 0,-0.81138 0.14111,-1.51694 0.28222,-1.51694 0.35278,0 0.9525,1.12889 1.37583,2.61056 0.38806,1.23472 1.19945,1.83444 2.04611,1.48166 0.67028,-0.24694 0.635,-0.35278 -0.3175,-3.84528 -1.16416,-4.26861 -2.46944,-5.32694 -3.63361,-2.89277 -0.3175,0.67027 -0.70555,1.23472 -0.88194,1.23472 -0.14111,0 -0.70556,-0.635 -1.19945,-1.41111 -0.98777,-1.51695 -2.15194,-1.83445 -2.96333,-0.88195 z"
         inkscape:connector-curvature="0"
         style="stroke-width:0.03527778" />
      <path
         id="path4932"
         d="m 267.78115,326.06785 c -0.10584,0.3175 -0.10584,2.08139 0,3.91583 0.14111,2.75167 0.3175,3.52778 0.88194,4.09223 0.42333,0.38805 0.9525,0.59972 1.27,0.49388 0.45861,-0.17638 0.49389,-0.77611 0.35278,-3.84527 -0.24695,-4.93889 -0.3175,-5.22111 -1.41111,-5.22111 -0.45861,0 -0.9525,0.24694 -1.09361,0.56444 z"
         inkscape:connector-curvature="0"
         style="stroke-width:0.03527778" />
    </g>
  </g>
</svg>
